G04 #@! TF.GenerationSoftware,KiCad,Pcbnew,(5.1.2-1)-1*
G04 #@! TF.CreationDate,2019-12-27T17:58:15-07:00*
G04 #@! TF.ProjectId,NuisanceEngine,4e756973-616e-4636-9545-6e67696e652e,rev?*
G04 #@! TF.SameCoordinates,Original*
G04 #@! TF.FileFunction,Soldermask,Bot*
G04 #@! TF.FilePolarity,Negative*
%FSLAX46Y46*%
G04 Gerber Fmt 4.6, Leading zero omitted, Abs format (unit mm)*
G04 Created by KiCad (PCBNEW (5.1.2-1)-1) date 2019-12-27 17:58:15*
%MOMM*%
%LPD*%
G04 APERTURE LIST*
%ADD10C,0.100000*%
G04 APERTURE END LIST*
D10*
G36*
X92168707Y-96957596D02*
G01*
X92245836Y-96965193D01*
X92443762Y-97025233D01*
X92443765Y-97025234D01*
X92626170Y-97122732D01*
X92786055Y-97253945D01*
X92917268Y-97413830D01*
X93014766Y-97596235D01*
X93014767Y-97596238D01*
X93074807Y-97794164D01*
X93095080Y-98000000D01*
X93074807Y-98205836D01*
X93014767Y-98403762D01*
X93014766Y-98403765D01*
X92917268Y-98586170D01*
X92786055Y-98746055D01*
X92626170Y-98877268D01*
X92443765Y-98974766D01*
X92443762Y-98974767D01*
X92245836Y-99034807D01*
X92168707Y-99042403D01*
X92091580Y-99050000D01*
X91988420Y-99050000D01*
X91911293Y-99042403D01*
X91834164Y-99034807D01*
X91636238Y-98974767D01*
X91636235Y-98974766D01*
X91453830Y-98877268D01*
X91293945Y-98746055D01*
X91162732Y-98586170D01*
X91065234Y-98403765D01*
X91065233Y-98403762D01*
X91005193Y-98205836D01*
X90984920Y-98000000D01*
X91005193Y-97794164D01*
X91065233Y-97596238D01*
X91065234Y-97596235D01*
X91162732Y-97413830D01*
X91293945Y-97253945D01*
X91453830Y-97122732D01*
X91636235Y-97025234D01*
X91636238Y-97025233D01*
X91834164Y-96965193D01*
X91911293Y-96957596D01*
X91988420Y-96950000D01*
X92091580Y-96950000D01*
X92168707Y-96957596D01*
X92168707Y-96957596D01*
G37*
G36*
X90550000Y-99050000D02*
G01*
X88450000Y-99050000D01*
X88450000Y-96950000D01*
X90550000Y-96950000D01*
X90550000Y-99050000D01*
X90550000Y-99050000D01*
G37*
G36*
X86668707Y-96957596D02*
G01*
X86745836Y-96965193D01*
X86943762Y-97025233D01*
X86943765Y-97025234D01*
X87126170Y-97122732D01*
X87286055Y-97253945D01*
X87417268Y-97413830D01*
X87514766Y-97596235D01*
X87514767Y-97596238D01*
X87574807Y-97794164D01*
X87595080Y-98000000D01*
X87574807Y-98205836D01*
X87514767Y-98403762D01*
X87514766Y-98403765D01*
X87417268Y-98586170D01*
X87286055Y-98746055D01*
X87126170Y-98877268D01*
X86943765Y-98974766D01*
X86943762Y-98974767D01*
X86745836Y-99034807D01*
X86668707Y-99042403D01*
X86591580Y-99050000D01*
X86488420Y-99050000D01*
X86411293Y-99042403D01*
X86334164Y-99034807D01*
X86136238Y-98974767D01*
X86136235Y-98974766D01*
X85953830Y-98877268D01*
X85793945Y-98746055D01*
X85662732Y-98586170D01*
X85565234Y-98403765D01*
X85565233Y-98403762D01*
X85505193Y-98205836D01*
X85484920Y-98000000D01*
X85505193Y-97794164D01*
X85565233Y-97596238D01*
X85565234Y-97596235D01*
X85662732Y-97413830D01*
X85793945Y-97253945D01*
X85953830Y-97122732D01*
X86136235Y-97025234D01*
X86136238Y-97025233D01*
X86334164Y-96965193D01*
X86411293Y-96957596D01*
X86488420Y-96950000D01*
X86591580Y-96950000D01*
X86668707Y-96957596D01*
X86668707Y-96957596D01*
G37*
G36*
X84128707Y-96957596D02*
G01*
X84205836Y-96965193D01*
X84403762Y-97025233D01*
X84403765Y-97025234D01*
X84586170Y-97122732D01*
X84746055Y-97253945D01*
X84877268Y-97413830D01*
X84974766Y-97596235D01*
X84974767Y-97596238D01*
X85034807Y-97794164D01*
X85055080Y-98000000D01*
X85034807Y-98205836D01*
X84974767Y-98403762D01*
X84974766Y-98403765D01*
X84877268Y-98586170D01*
X84746055Y-98746055D01*
X84586170Y-98877268D01*
X84403765Y-98974766D01*
X84403762Y-98974767D01*
X84205836Y-99034807D01*
X84128707Y-99042403D01*
X84051580Y-99050000D01*
X83948420Y-99050000D01*
X83871293Y-99042403D01*
X83794164Y-99034807D01*
X83596238Y-98974767D01*
X83596235Y-98974766D01*
X83413830Y-98877268D01*
X83253945Y-98746055D01*
X83122732Y-98586170D01*
X83025234Y-98403765D01*
X83025233Y-98403762D01*
X82965193Y-98205836D01*
X82944920Y-98000000D01*
X82965193Y-97794164D01*
X83025233Y-97596238D01*
X83025234Y-97596235D01*
X83122732Y-97413830D01*
X83253945Y-97253945D01*
X83413830Y-97122732D01*
X83596235Y-97025234D01*
X83596238Y-97025233D01*
X83794164Y-96965193D01*
X83871293Y-96957596D01*
X83948420Y-96950000D01*
X84051580Y-96950000D01*
X84128707Y-96957596D01*
X84128707Y-96957596D01*
G37*
G36*
X82510000Y-99050000D02*
G01*
X80410000Y-99050000D01*
X80410000Y-96950000D01*
X82510000Y-96950000D01*
X82510000Y-99050000D01*
X82510000Y-99050000D01*
G37*
G36*
X78668707Y-96957596D02*
G01*
X78745836Y-96965193D01*
X78943762Y-97025233D01*
X78943765Y-97025234D01*
X79126170Y-97122732D01*
X79286055Y-97253945D01*
X79417268Y-97413830D01*
X79514766Y-97596235D01*
X79514767Y-97596238D01*
X79574807Y-97794164D01*
X79595080Y-98000000D01*
X79574807Y-98205836D01*
X79514767Y-98403762D01*
X79514766Y-98403765D01*
X79417268Y-98586170D01*
X79286055Y-98746055D01*
X79126170Y-98877268D01*
X78943765Y-98974766D01*
X78943762Y-98974767D01*
X78745836Y-99034807D01*
X78668707Y-99042403D01*
X78591580Y-99050000D01*
X78488420Y-99050000D01*
X78411293Y-99042403D01*
X78334164Y-99034807D01*
X78136238Y-98974767D01*
X78136235Y-98974766D01*
X77953830Y-98877268D01*
X77793945Y-98746055D01*
X77662732Y-98586170D01*
X77565234Y-98403765D01*
X77565233Y-98403762D01*
X77505193Y-98205836D01*
X77484920Y-98000000D01*
X77505193Y-97794164D01*
X77565233Y-97596238D01*
X77565234Y-97596235D01*
X77662732Y-97413830D01*
X77793945Y-97253945D01*
X77953830Y-97122732D01*
X78136235Y-97025234D01*
X78136238Y-97025233D01*
X78334164Y-96965193D01*
X78411293Y-96957596D01*
X78488420Y-96950000D01*
X78591580Y-96950000D01*
X78668707Y-96957596D01*
X78668707Y-96957596D01*
G37*
G36*
X77050000Y-99050000D02*
G01*
X74950000Y-99050000D01*
X74950000Y-96950000D01*
X77050000Y-96950000D01*
X77050000Y-99050000D01*
X77050000Y-99050000D01*
G37*
G36*
X73208707Y-96957596D02*
G01*
X73285836Y-96965193D01*
X73483762Y-97025233D01*
X73483765Y-97025234D01*
X73666170Y-97122732D01*
X73826055Y-97253945D01*
X73957268Y-97413830D01*
X74054766Y-97596235D01*
X74054767Y-97596238D01*
X74114807Y-97794164D01*
X74135080Y-98000000D01*
X74114807Y-98205836D01*
X74054767Y-98403762D01*
X74054766Y-98403765D01*
X73957268Y-98586170D01*
X73826055Y-98746055D01*
X73666170Y-98877268D01*
X73483765Y-98974766D01*
X73483762Y-98974767D01*
X73285836Y-99034807D01*
X73208707Y-99042403D01*
X73131580Y-99050000D01*
X73028420Y-99050000D01*
X72951293Y-99042403D01*
X72874164Y-99034807D01*
X72676238Y-98974767D01*
X72676235Y-98974766D01*
X72493830Y-98877268D01*
X72333945Y-98746055D01*
X72202732Y-98586170D01*
X72105234Y-98403765D01*
X72105233Y-98403762D01*
X72045193Y-98205836D01*
X72024920Y-98000000D01*
X72045193Y-97794164D01*
X72105233Y-97596238D01*
X72105234Y-97596235D01*
X72202732Y-97413830D01*
X72333945Y-97253945D01*
X72493830Y-97122732D01*
X72676235Y-97025234D01*
X72676238Y-97025233D01*
X72874164Y-96965193D01*
X72951293Y-96957596D01*
X73028420Y-96950000D01*
X73131580Y-96950000D01*
X73208707Y-96957596D01*
X73208707Y-96957596D01*
G37*
G36*
X70668707Y-96957596D02*
G01*
X70745836Y-96965193D01*
X70943762Y-97025233D01*
X70943765Y-97025234D01*
X71126170Y-97122732D01*
X71286055Y-97253945D01*
X71417268Y-97413830D01*
X71514766Y-97596235D01*
X71514767Y-97596238D01*
X71574807Y-97794164D01*
X71595080Y-98000000D01*
X71574807Y-98205836D01*
X71514767Y-98403762D01*
X71514766Y-98403765D01*
X71417268Y-98586170D01*
X71286055Y-98746055D01*
X71126170Y-98877268D01*
X70943765Y-98974766D01*
X70943762Y-98974767D01*
X70745836Y-99034807D01*
X70668707Y-99042403D01*
X70591580Y-99050000D01*
X70488420Y-99050000D01*
X70411293Y-99042403D01*
X70334164Y-99034807D01*
X70136238Y-98974767D01*
X70136235Y-98974766D01*
X69953830Y-98877268D01*
X69793945Y-98746055D01*
X69662732Y-98586170D01*
X69565234Y-98403765D01*
X69565233Y-98403762D01*
X69505193Y-98205836D01*
X69484920Y-98000000D01*
X69505193Y-97794164D01*
X69565233Y-97596238D01*
X69565234Y-97596235D01*
X69662732Y-97413830D01*
X69793945Y-97253945D01*
X69953830Y-97122732D01*
X70136235Y-97025234D01*
X70136238Y-97025233D01*
X70334164Y-96965193D01*
X70411293Y-96957596D01*
X70488420Y-96950000D01*
X70591580Y-96950000D01*
X70668707Y-96957596D01*
X70668707Y-96957596D01*
G37*
G36*
X69050000Y-99050000D02*
G01*
X66950000Y-99050000D01*
X66950000Y-96950000D01*
X69050000Y-96950000D01*
X69050000Y-99050000D01*
X69050000Y-99050000D01*
G37*
G36*
X67441509Y-90557727D02*
G01*
X67702118Y-90609565D01*
X67818960Y-90657963D01*
X67984199Y-90726407D01*
X67984200Y-90726408D01*
X68238068Y-90896036D01*
X68453964Y-91111932D01*
X68480427Y-91151537D01*
X68623593Y-91365801D01*
X68625140Y-91369537D01*
X68725474Y-91611762D01*
X68740435Y-91647883D01*
X68800000Y-91947337D01*
X68800000Y-92252663D01*
X68740435Y-92552117D01*
X68623593Y-92834199D01*
X68623592Y-92834200D01*
X68453964Y-93088068D01*
X68238068Y-93303964D01*
X68197605Y-93331000D01*
X67984199Y-93473593D01*
X67818960Y-93542037D01*
X67702118Y-93590435D01*
X67552390Y-93620217D01*
X67402663Y-93650000D01*
X67097337Y-93650000D01*
X66947610Y-93620217D01*
X66797882Y-93590435D01*
X66681040Y-93542037D01*
X66515801Y-93473593D01*
X66302395Y-93331000D01*
X66261932Y-93303964D01*
X66046036Y-93088068D01*
X65876408Y-92834200D01*
X65876407Y-92834199D01*
X65759565Y-92552117D01*
X65700000Y-92252663D01*
X65700000Y-91947337D01*
X65759565Y-91647883D01*
X65774527Y-91611762D01*
X65874860Y-91369537D01*
X65876407Y-91365801D01*
X66019573Y-91151537D01*
X66046036Y-91111932D01*
X66261932Y-90896036D01*
X66515800Y-90726408D01*
X66515801Y-90726407D01*
X66681040Y-90657963D01*
X66797882Y-90609565D01*
X67058491Y-90557727D01*
X67097337Y-90550000D01*
X67402663Y-90550000D01*
X67441509Y-90557727D01*
X67441509Y-90557727D01*
G37*
G36*
X95441509Y-90557727D02*
G01*
X95702118Y-90609565D01*
X95818960Y-90657963D01*
X95984199Y-90726407D01*
X95984200Y-90726408D01*
X96238068Y-90896036D01*
X96453964Y-91111932D01*
X96480427Y-91151537D01*
X96623593Y-91365801D01*
X96625140Y-91369537D01*
X96725474Y-91611762D01*
X96740435Y-91647883D01*
X96800000Y-91947337D01*
X96800000Y-92252663D01*
X96740435Y-92552117D01*
X96623593Y-92834199D01*
X96623592Y-92834200D01*
X96453964Y-93088068D01*
X96238068Y-93303964D01*
X96197605Y-93331000D01*
X95984199Y-93473593D01*
X95818960Y-93542037D01*
X95702118Y-93590435D01*
X95552390Y-93620217D01*
X95402663Y-93650000D01*
X95097337Y-93650000D01*
X94947610Y-93620217D01*
X94797882Y-93590435D01*
X94681040Y-93542037D01*
X94515801Y-93473593D01*
X94302395Y-93331000D01*
X94261932Y-93303964D01*
X94046036Y-93088068D01*
X93876408Y-92834200D01*
X93876407Y-92834199D01*
X93759565Y-92552117D01*
X93700000Y-92252663D01*
X93700000Y-91947337D01*
X93759565Y-91647883D01*
X93774527Y-91611762D01*
X93874860Y-91369537D01*
X93876407Y-91365801D01*
X94019573Y-91151537D01*
X94046036Y-91111932D01*
X94261932Y-90896036D01*
X94515800Y-90726408D01*
X94515801Y-90726407D01*
X94681040Y-90657963D01*
X94797882Y-90609565D01*
X95058491Y-90557727D01*
X95097337Y-90550000D01*
X95402663Y-90550000D01*
X95441509Y-90557727D01*
X95441509Y-90557727D01*
G37*
G36*
X88888237Y-90720149D02*
G01*
X89130463Y-90820482D01*
X89130465Y-90820483D01*
X89348463Y-90966145D01*
X89533855Y-91151537D01*
X89533856Y-91151539D01*
X89679518Y-91369537D01*
X89779851Y-91611763D01*
X89831000Y-91868907D01*
X89831000Y-92131093D01*
X89779851Y-92388237D01*
X89711970Y-92552117D01*
X89679517Y-92630465D01*
X89533855Y-92848463D01*
X89348463Y-93033855D01*
X89130465Y-93179517D01*
X89130464Y-93179518D01*
X89130463Y-93179518D01*
X88888237Y-93279851D01*
X88631093Y-93331000D01*
X88368907Y-93331000D01*
X88111763Y-93279851D01*
X87869537Y-93179518D01*
X87869536Y-93179518D01*
X87869535Y-93179517D01*
X87651537Y-93033855D01*
X87466145Y-92848463D01*
X87320483Y-92630465D01*
X87288030Y-92552117D01*
X87220149Y-92388237D01*
X87169000Y-92131093D01*
X87169000Y-91868907D01*
X87220149Y-91611763D01*
X87320482Y-91369537D01*
X87466144Y-91151539D01*
X87466145Y-91151537D01*
X87651537Y-90966145D01*
X87869535Y-90820483D01*
X87869537Y-90820482D01*
X88111763Y-90720149D01*
X88368907Y-90669000D01*
X88631093Y-90669000D01*
X88888237Y-90720149D01*
X88888237Y-90720149D01*
G37*
G36*
X56820857Y-88442272D02*
G01*
X56960224Y-88500000D01*
X57021045Y-88525193D01*
X57111738Y-88585792D01*
X57201208Y-88645574D01*
X57354426Y-88798792D01*
X57474808Y-88978957D01*
X57557728Y-89179143D01*
X57600000Y-89391658D01*
X57600000Y-89608342D01*
X57557728Y-89820857D01*
X57474808Y-90021043D01*
X57474807Y-90021045D01*
X57354425Y-90201209D01*
X57201209Y-90354425D01*
X57021045Y-90474807D01*
X57021044Y-90474808D01*
X57021043Y-90474808D01*
X56820857Y-90557728D01*
X56608342Y-90600000D01*
X56391658Y-90600000D01*
X56179143Y-90557728D01*
X55978957Y-90474808D01*
X55978956Y-90474808D01*
X55978955Y-90474807D01*
X55798791Y-90354425D01*
X55645575Y-90201209D01*
X55525193Y-90021045D01*
X55525192Y-90021043D01*
X55442272Y-89820857D01*
X55400000Y-89608342D01*
X55400000Y-89391658D01*
X55442272Y-89179143D01*
X55525192Y-88978957D01*
X55645574Y-88798792D01*
X55798792Y-88645574D01*
X55888262Y-88585792D01*
X55978955Y-88525193D01*
X56039776Y-88500000D01*
X56179143Y-88442272D01*
X56391658Y-88400000D01*
X56608342Y-88400000D01*
X56820857Y-88442272D01*
X56820857Y-88442272D01*
G37*
G36*
X59320857Y-88442272D02*
G01*
X59460224Y-88500000D01*
X59521045Y-88525193D01*
X59611738Y-88585792D01*
X59701208Y-88645574D01*
X59854426Y-88798792D01*
X59974808Y-88978957D01*
X60057728Y-89179143D01*
X60100000Y-89391658D01*
X60100000Y-89608342D01*
X60057728Y-89820857D01*
X59974808Y-90021043D01*
X59974807Y-90021045D01*
X59854425Y-90201209D01*
X59701209Y-90354425D01*
X59521045Y-90474807D01*
X59521044Y-90474808D01*
X59521043Y-90474808D01*
X59320857Y-90557728D01*
X59108342Y-90600000D01*
X58891658Y-90600000D01*
X58679143Y-90557728D01*
X58478957Y-90474808D01*
X58478956Y-90474808D01*
X58478955Y-90474807D01*
X58298791Y-90354425D01*
X58145575Y-90201209D01*
X58025193Y-90021045D01*
X58025192Y-90021043D01*
X57942272Y-89820857D01*
X57900000Y-89608342D01*
X57900000Y-89391658D01*
X57942272Y-89179143D01*
X58025192Y-88978957D01*
X58145574Y-88798792D01*
X58298792Y-88645574D01*
X58388262Y-88585792D01*
X58478955Y-88525193D01*
X58539776Y-88500000D01*
X58679143Y-88442272D01*
X58891658Y-88400000D01*
X59108342Y-88400000D01*
X59320857Y-88442272D01*
X59320857Y-88442272D01*
G37*
G36*
X61820857Y-88442272D02*
G01*
X61960224Y-88500000D01*
X62021045Y-88525193D01*
X62111738Y-88585792D01*
X62201208Y-88645574D01*
X62354426Y-88798792D01*
X62474808Y-88978957D01*
X62557728Y-89179143D01*
X62600000Y-89391658D01*
X62600000Y-89608342D01*
X62557728Y-89820857D01*
X62474808Y-90021043D01*
X62474807Y-90021045D01*
X62354425Y-90201209D01*
X62201209Y-90354425D01*
X62021045Y-90474807D01*
X62021044Y-90474808D01*
X62021043Y-90474808D01*
X61820857Y-90557728D01*
X61608342Y-90600000D01*
X61391658Y-90600000D01*
X61179143Y-90557728D01*
X60978957Y-90474808D01*
X60978956Y-90474808D01*
X60978955Y-90474807D01*
X60798791Y-90354425D01*
X60645575Y-90201209D01*
X60525193Y-90021045D01*
X60525192Y-90021043D01*
X60442272Y-89820857D01*
X60400000Y-89608342D01*
X60400000Y-89391658D01*
X60442272Y-89179143D01*
X60525192Y-88978957D01*
X60645574Y-88798792D01*
X60798792Y-88645574D01*
X60888262Y-88585792D01*
X60978955Y-88525193D01*
X61039776Y-88500000D01*
X61179143Y-88442272D01*
X61391658Y-88400000D01*
X61608342Y-88400000D01*
X61820857Y-88442272D01*
X61820857Y-88442272D01*
G37*
G36*
X103820857Y-88442272D02*
G01*
X103960224Y-88500000D01*
X104021045Y-88525193D01*
X104111738Y-88585792D01*
X104201208Y-88645574D01*
X104354426Y-88798792D01*
X104474808Y-88978957D01*
X104557728Y-89179143D01*
X104600000Y-89391658D01*
X104600000Y-89608342D01*
X104557728Y-89820857D01*
X104474808Y-90021043D01*
X104474807Y-90021045D01*
X104354425Y-90201209D01*
X104201209Y-90354425D01*
X104021045Y-90474807D01*
X104021044Y-90474808D01*
X104021043Y-90474808D01*
X103820857Y-90557728D01*
X103608342Y-90600000D01*
X103391658Y-90600000D01*
X103179143Y-90557728D01*
X102978957Y-90474808D01*
X102978956Y-90474808D01*
X102978955Y-90474807D01*
X102798791Y-90354425D01*
X102645575Y-90201209D01*
X102525193Y-90021045D01*
X102525192Y-90021043D01*
X102442272Y-89820857D01*
X102400000Y-89608342D01*
X102400000Y-89391658D01*
X102442272Y-89179143D01*
X102525192Y-88978957D01*
X102645574Y-88798792D01*
X102798792Y-88645574D01*
X102888262Y-88585792D01*
X102978955Y-88525193D01*
X103039776Y-88500000D01*
X103179143Y-88442272D01*
X103391658Y-88400000D01*
X103608342Y-88400000D01*
X103820857Y-88442272D01*
X103820857Y-88442272D01*
G37*
G36*
X101320857Y-88442272D02*
G01*
X101460224Y-88500000D01*
X101521045Y-88525193D01*
X101611738Y-88585792D01*
X101701208Y-88645574D01*
X101854426Y-88798792D01*
X101974808Y-88978957D01*
X102057728Y-89179143D01*
X102100000Y-89391658D01*
X102100000Y-89608342D01*
X102057728Y-89820857D01*
X101974808Y-90021043D01*
X101974807Y-90021045D01*
X101854425Y-90201209D01*
X101701209Y-90354425D01*
X101521045Y-90474807D01*
X101521044Y-90474808D01*
X101521043Y-90474808D01*
X101320857Y-90557728D01*
X101108342Y-90600000D01*
X100891658Y-90600000D01*
X100679143Y-90557728D01*
X100478957Y-90474808D01*
X100478956Y-90474808D01*
X100478955Y-90474807D01*
X100298791Y-90354425D01*
X100145575Y-90201209D01*
X100025193Y-90021045D01*
X100025192Y-90021043D01*
X99942272Y-89820857D01*
X99900000Y-89608342D01*
X99900000Y-89391658D01*
X99942272Y-89179143D01*
X100025192Y-88978957D01*
X100145574Y-88798792D01*
X100298792Y-88645574D01*
X100388262Y-88585792D01*
X100478955Y-88525193D01*
X100539776Y-88500000D01*
X100679143Y-88442272D01*
X100891658Y-88400000D01*
X101108342Y-88400000D01*
X101320857Y-88442272D01*
X101320857Y-88442272D01*
G37*
G36*
X98820857Y-88442272D02*
G01*
X98960224Y-88500000D01*
X99021045Y-88525193D01*
X99111738Y-88585792D01*
X99201208Y-88645574D01*
X99354426Y-88798792D01*
X99474808Y-88978957D01*
X99557728Y-89179143D01*
X99600000Y-89391658D01*
X99600000Y-89608342D01*
X99557728Y-89820857D01*
X99474808Y-90021043D01*
X99474807Y-90021045D01*
X99354425Y-90201209D01*
X99201209Y-90354425D01*
X99021045Y-90474807D01*
X99021044Y-90474808D01*
X99021043Y-90474808D01*
X98820857Y-90557728D01*
X98608342Y-90600000D01*
X98391658Y-90600000D01*
X98179143Y-90557728D01*
X97978957Y-90474808D01*
X97978956Y-90474808D01*
X97978955Y-90474807D01*
X97798791Y-90354425D01*
X97645575Y-90201209D01*
X97525193Y-90021045D01*
X97525192Y-90021043D01*
X97442272Y-89820857D01*
X97400000Y-89608342D01*
X97400000Y-89391658D01*
X97442272Y-89179143D01*
X97525192Y-88978957D01*
X97645574Y-88798792D01*
X97798792Y-88645574D01*
X97888262Y-88585792D01*
X97978955Y-88525193D01*
X98039776Y-88500000D01*
X98179143Y-88442272D01*
X98391658Y-88400000D01*
X98608342Y-88400000D01*
X98820857Y-88442272D01*
X98820857Y-88442272D01*
G37*
G36*
X106501163Y-85584587D02*
G01*
X106675041Y-85619173D01*
X107002620Y-85754861D01*
X107297433Y-85951849D01*
X107548151Y-86202567D01*
X107745139Y-86497380D01*
X107880827Y-86824959D01*
X107880827Y-86824961D01*
X107950000Y-87172714D01*
X107950000Y-87527286D01*
X107915414Y-87701162D01*
X107880827Y-87875041D01*
X107745139Y-88202620D01*
X107548151Y-88497433D01*
X107297433Y-88748151D01*
X107002620Y-88945139D01*
X106675041Y-89080827D01*
X106501162Y-89115414D01*
X106327286Y-89150000D01*
X105972714Y-89150000D01*
X105798838Y-89115414D01*
X105624959Y-89080827D01*
X105297380Y-88945139D01*
X105002567Y-88748151D01*
X104751849Y-88497433D01*
X104554861Y-88202620D01*
X104419173Y-87875041D01*
X104384586Y-87701162D01*
X104350000Y-87527286D01*
X104350000Y-87172714D01*
X104419173Y-86824961D01*
X104419173Y-86824959D01*
X104554861Y-86497380D01*
X104751849Y-86202567D01*
X105002567Y-85951849D01*
X105297380Y-85754861D01*
X105624959Y-85619173D01*
X105798837Y-85584587D01*
X105972714Y-85550000D01*
X106327286Y-85550000D01*
X106501163Y-85584587D01*
X106501163Y-85584587D01*
G37*
G36*
X80351163Y-84934587D02*
G01*
X80525041Y-84969173D01*
X80852620Y-85104861D01*
X81147433Y-85301849D01*
X81398151Y-85552567D01*
X81595139Y-85847380D01*
X81730827Y-86174959D01*
X81765414Y-86348838D01*
X81794961Y-86497380D01*
X81800000Y-86522716D01*
X81800000Y-86877284D01*
X81730827Y-87225041D01*
X81595139Y-87552620D01*
X81398151Y-87847433D01*
X81147433Y-88098151D01*
X80852620Y-88295139D01*
X80525041Y-88430827D01*
X80351162Y-88465414D01*
X80177286Y-88500000D01*
X79822714Y-88500000D01*
X79648838Y-88465414D01*
X79474959Y-88430827D01*
X79147380Y-88295139D01*
X78852567Y-88098151D01*
X78601849Y-87847433D01*
X78404861Y-87552620D01*
X78269173Y-87225041D01*
X78200000Y-86877284D01*
X78200000Y-86522716D01*
X78205040Y-86497380D01*
X78234587Y-86348837D01*
X78269173Y-86174959D01*
X78404861Y-85847380D01*
X78601849Y-85552567D01*
X78852567Y-85301849D01*
X79147380Y-85104861D01*
X79474959Y-84969173D01*
X79648837Y-84934587D01*
X79822714Y-84900000D01*
X80177286Y-84900000D01*
X80351163Y-84934587D01*
X80351163Y-84934587D01*
G37*
G36*
X105731653Y-80832665D02*
G01*
X105895872Y-80865330D01*
X106205252Y-80993479D01*
X106483687Y-81179523D01*
X106720477Y-81416313D01*
X106906521Y-81694748D01*
X107034670Y-82004128D01*
X107100000Y-82332565D01*
X107100000Y-82667435D01*
X107034670Y-82995872D01*
X106906521Y-83305252D01*
X106720477Y-83583687D01*
X106483687Y-83820477D01*
X106205252Y-84006521D01*
X105895872Y-84134670D01*
X105731654Y-84167335D01*
X105567437Y-84200000D01*
X105232563Y-84200000D01*
X105068346Y-84167335D01*
X104904128Y-84134670D01*
X104594748Y-84006521D01*
X104316313Y-83820477D01*
X104079523Y-83583687D01*
X103893479Y-83305252D01*
X103765330Y-82995872D01*
X103700000Y-82667435D01*
X103700000Y-82332565D01*
X103765330Y-82004128D01*
X103893479Y-81694748D01*
X104079523Y-81416313D01*
X104316313Y-81179523D01*
X104594748Y-80993479D01*
X104904128Y-80865330D01*
X105068347Y-80832665D01*
X105232563Y-80800000D01*
X105567437Y-80800000D01*
X105731653Y-80832665D01*
X105731653Y-80832665D01*
G37*
G36*
X96931653Y-80832665D02*
G01*
X97095872Y-80865330D01*
X97405252Y-80993479D01*
X97683687Y-81179523D01*
X97920477Y-81416313D01*
X98106521Y-81694748D01*
X98234670Y-82004128D01*
X98300000Y-82332565D01*
X98300000Y-82667435D01*
X98234670Y-82995872D01*
X98106521Y-83305252D01*
X97920477Y-83583687D01*
X97683687Y-83820477D01*
X97405252Y-84006521D01*
X97095872Y-84134670D01*
X96931654Y-84167335D01*
X96767437Y-84200000D01*
X96432563Y-84200000D01*
X96268346Y-84167335D01*
X96104128Y-84134670D01*
X95794748Y-84006521D01*
X95516313Y-83820477D01*
X95279523Y-83583687D01*
X95093479Y-83305252D01*
X94965330Y-82995872D01*
X94900000Y-82667435D01*
X94900000Y-82332565D01*
X94965330Y-82004128D01*
X95093479Y-81694748D01*
X95279523Y-81416313D01*
X95516313Y-81179523D01*
X95794748Y-80993479D01*
X96104128Y-80865330D01*
X96268347Y-80832665D01*
X96432563Y-80800000D01*
X96767437Y-80800000D01*
X96931653Y-80832665D01*
X96931653Y-80832665D01*
G37*
G36*
X63731653Y-80832665D02*
G01*
X63895872Y-80865330D01*
X64205252Y-80993479D01*
X64483687Y-81179523D01*
X64720477Y-81416313D01*
X64906521Y-81694748D01*
X65034670Y-82004128D01*
X65100000Y-82332565D01*
X65100000Y-82667435D01*
X65034670Y-82995872D01*
X64906521Y-83305252D01*
X64720477Y-83583687D01*
X64483687Y-83820477D01*
X64205252Y-84006521D01*
X63895872Y-84134670D01*
X63731654Y-84167335D01*
X63567437Y-84200000D01*
X63232563Y-84200000D01*
X63068346Y-84167335D01*
X62904128Y-84134670D01*
X62594748Y-84006521D01*
X62316313Y-83820477D01*
X62079523Y-83583687D01*
X61893479Y-83305252D01*
X61765330Y-82995872D01*
X61700000Y-82667435D01*
X61700000Y-82332565D01*
X61765330Y-82004128D01*
X61893479Y-81694748D01*
X62079523Y-81416313D01*
X62316313Y-81179523D01*
X62594748Y-80993479D01*
X62904128Y-80865330D01*
X63068347Y-80832665D01*
X63232563Y-80800000D01*
X63567437Y-80800000D01*
X63731653Y-80832665D01*
X63731653Y-80832665D01*
G37*
G36*
X54931653Y-80832665D02*
G01*
X55095872Y-80865330D01*
X55405252Y-80993479D01*
X55683687Y-81179523D01*
X55920477Y-81416313D01*
X56106521Y-81694748D01*
X56234670Y-82004128D01*
X56300000Y-82332565D01*
X56300000Y-82667435D01*
X56234670Y-82995872D01*
X56106521Y-83305252D01*
X55920477Y-83583687D01*
X55683687Y-83820477D01*
X55405252Y-84006521D01*
X55095872Y-84134670D01*
X54931654Y-84167335D01*
X54767437Y-84200000D01*
X54432563Y-84200000D01*
X54268346Y-84167335D01*
X54104128Y-84134670D01*
X53794748Y-84006521D01*
X53516313Y-83820477D01*
X53279523Y-83583687D01*
X53093479Y-83305252D01*
X52965330Y-82995872D01*
X52900000Y-82667435D01*
X52900000Y-82332565D01*
X52965330Y-82004128D01*
X53093479Y-81694748D01*
X53279523Y-81416313D01*
X53516313Y-81179523D01*
X53794748Y-80993479D01*
X54104128Y-80865330D01*
X54268347Y-80832665D01*
X54432563Y-80800000D01*
X54767437Y-80800000D01*
X54931653Y-80832665D01*
X54931653Y-80832665D01*
G37*
G36*
X80351163Y-80234587D02*
G01*
X80525041Y-80269173D01*
X80852620Y-80404861D01*
X81147433Y-80601849D01*
X81398151Y-80852567D01*
X81595139Y-81147380D01*
X81730827Y-81474959D01*
X81800000Y-81822716D01*
X81800000Y-82177284D01*
X81730827Y-82525041D01*
X81595139Y-82852620D01*
X81398151Y-83147433D01*
X81147433Y-83398151D01*
X80852620Y-83595139D01*
X80525041Y-83730827D01*
X80351162Y-83765414D01*
X80177286Y-83800000D01*
X79822714Y-83800000D01*
X79648838Y-83765414D01*
X79474959Y-83730827D01*
X79147380Y-83595139D01*
X78852567Y-83398151D01*
X78601849Y-83147433D01*
X78404861Y-82852620D01*
X78269173Y-82525041D01*
X78200000Y-82177284D01*
X78200000Y-81822716D01*
X78269173Y-81474959D01*
X78404861Y-81147380D01*
X78601849Y-80852567D01*
X78852567Y-80601849D01*
X79147380Y-80404861D01*
X79474959Y-80269173D01*
X79648837Y-80234587D01*
X79822714Y-80200000D01*
X80177286Y-80200000D01*
X80351163Y-80234587D01*
X80351163Y-80234587D01*
G37*
G36*
X80351163Y-75534587D02*
G01*
X80525041Y-75569173D01*
X80852620Y-75704861D01*
X81147433Y-75901849D01*
X81398151Y-76152567D01*
X81595139Y-76447380D01*
X81730827Y-76774959D01*
X81800000Y-77122716D01*
X81800000Y-77477284D01*
X81730827Y-77825041D01*
X81595139Y-78152620D01*
X81398151Y-78447433D01*
X81147433Y-78698151D01*
X80852620Y-78895139D01*
X80525041Y-79030827D01*
X80351163Y-79065413D01*
X80177286Y-79100000D01*
X79822714Y-79100000D01*
X79648837Y-79065413D01*
X79474959Y-79030827D01*
X79147380Y-78895139D01*
X78852567Y-78698151D01*
X78601849Y-78447433D01*
X78404861Y-78152620D01*
X78269173Y-77825041D01*
X78200000Y-77477284D01*
X78200000Y-77122716D01*
X78269173Y-76774959D01*
X78404861Y-76447380D01*
X78601849Y-76152567D01*
X78852567Y-75901849D01*
X79147380Y-75704861D01*
X79474959Y-75569173D01*
X79648837Y-75534587D01*
X79822714Y-75500000D01*
X80177286Y-75500000D01*
X80351163Y-75534587D01*
X80351163Y-75534587D01*
G37*
G36*
X106501162Y-72884586D02*
G01*
X106675041Y-72919173D01*
X107002620Y-73054861D01*
X107297433Y-73251849D01*
X107548151Y-73502567D01*
X107745139Y-73797380D01*
X107880827Y-74124959D01*
X107950000Y-74472716D01*
X107950000Y-74827284D01*
X107880827Y-75175041D01*
X107745139Y-75502620D01*
X107548151Y-75797433D01*
X107297433Y-76048151D01*
X107002620Y-76245139D01*
X106675041Y-76380827D01*
X106501162Y-76415414D01*
X106327286Y-76450000D01*
X105972714Y-76450000D01*
X105798838Y-76415414D01*
X105624959Y-76380827D01*
X105297380Y-76245139D01*
X105002567Y-76048151D01*
X104751849Y-75797433D01*
X104554861Y-75502620D01*
X104419173Y-75175041D01*
X104350000Y-74827284D01*
X104350000Y-74472716D01*
X104419173Y-74124959D01*
X104554861Y-73797380D01*
X104751849Y-73502567D01*
X105002567Y-73251849D01*
X105297380Y-73054861D01*
X105624959Y-72919173D01*
X105798838Y-72884586D01*
X105972714Y-72850000D01*
X106327286Y-72850000D01*
X106501162Y-72884586D01*
X106501162Y-72884586D01*
G37*
G36*
X81552390Y-68379783D02*
G01*
X81702118Y-68409565D01*
X81818960Y-68457963D01*
X81984199Y-68526407D01*
X81984200Y-68526408D01*
X82238068Y-68696036D01*
X82453964Y-68911932D01*
X82567306Y-69081561D01*
X82623593Y-69165801D01*
X82740435Y-69447883D01*
X82800000Y-69747337D01*
X82800000Y-70052663D01*
X82740435Y-70352117D01*
X82623593Y-70634199D01*
X82623592Y-70634200D01*
X82453964Y-70888068D01*
X82238068Y-71103964D01*
X82068439Y-71217306D01*
X81984199Y-71273593D01*
X81818960Y-71342037D01*
X81702118Y-71390435D01*
X81552390Y-71420218D01*
X81402663Y-71450000D01*
X81097337Y-71450000D01*
X80947610Y-71420218D01*
X80797882Y-71390435D01*
X80681040Y-71342037D01*
X80515801Y-71273593D01*
X80431561Y-71217306D01*
X80261932Y-71103964D01*
X80046036Y-70888068D01*
X79876408Y-70634200D01*
X79876407Y-70634199D01*
X79759565Y-70352117D01*
X79700000Y-70052663D01*
X79700000Y-69747337D01*
X79759565Y-69447883D01*
X79876407Y-69165801D01*
X79932694Y-69081561D01*
X80046036Y-68911932D01*
X80261932Y-68696036D01*
X80515800Y-68526408D01*
X80515801Y-68526407D01*
X80681040Y-68457963D01*
X80797882Y-68409565D01*
X80947610Y-68379783D01*
X81097337Y-68350000D01*
X81402663Y-68350000D01*
X81552390Y-68379783D01*
X81552390Y-68379783D01*
G37*
G36*
X88888237Y-62720149D02*
G01*
X89130463Y-62820482D01*
X89130465Y-62820483D01*
X89348463Y-62966145D01*
X89533855Y-63151537D01*
X89669421Y-63354426D01*
X89679518Y-63369537D01*
X89779851Y-63611763D01*
X89831000Y-63868907D01*
X89831000Y-64131093D01*
X89779851Y-64388237D01*
X89679518Y-64630463D01*
X89679517Y-64630465D01*
X89533855Y-64848463D01*
X89348463Y-65033855D01*
X89130465Y-65179517D01*
X89130464Y-65179518D01*
X89130463Y-65179518D01*
X88888237Y-65279851D01*
X88631093Y-65331000D01*
X88368907Y-65331000D01*
X88111763Y-65279851D01*
X87869537Y-65179518D01*
X87869536Y-65179518D01*
X87869535Y-65179517D01*
X87651537Y-65033855D01*
X87466145Y-64848463D01*
X87320483Y-64630465D01*
X87320482Y-64630463D01*
X87220149Y-64388237D01*
X87169000Y-64131093D01*
X87169000Y-63868907D01*
X87220149Y-63611763D01*
X87320482Y-63369537D01*
X87330579Y-63354426D01*
X87466145Y-63151537D01*
X87651537Y-62966145D01*
X87869535Y-62820483D01*
X87869537Y-62820482D01*
X88111763Y-62720149D01*
X88368907Y-62669000D01*
X88631093Y-62669000D01*
X88888237Y-62720149D01*
X88888237Y-62720149D01*
G37*
G36*
X103820857Y-61442272D02*
G01*
X103960224Y-61500000D01*
X104021045Y-61525193D01*
X104111738Y-61585792D01*
X104201208Y-61645574D01*
X104354426Y-61798792D01*
X104474808Y-61978957D01*
X104557728Y-62179143D01*
X104600000Y-62391658D01*
X104600000Y-62608342D01*
X104557728Y-62820857D01*
X104474808Y-63021043D01*
X104354426Y-63201208D01*
X104201208Y-63354426D01*
X104111738Y-63414208D01*
X104021045Y-63474807D01*
X104021044Y-63474808D01*
X104021043Y-63474808D01*
X103820857Y-63557728D01*
X103608342Y-63600000D01*
X103391658Y-63600000D01*
X103179143Y-63557728D01*
X102978957Y-63474808D01*
X102978956Y-63474808D01*
X102978955Y-63474807D01*
X102888262Y-63414208D01*
X102798792Y-63354426D01*
X102645574Y-63201208D01*
X102525192Y-63021043D01*
X102442272Y-62820857D01*
X102400000Y-62608342D01*
X102400000Y-62391658D01*
X102442272Y-62179143D01*
X102525192Y-61978957D01*
X102645574Y-61798792D01*
X102798792Y-61645574D01*
X102888262Y-61585792D01*
X102978955Y-61525193D01*
X103039776Y-61500000D01*
X103179143Y-61442272D01*
X103391658Y-61400000D01*
X103608342Y-61400000D01*
X103820857Y-61442272D01*
X103820857Y-61442272D01*
G37*
G36*
X101320857Y-61442272D02*
G01*
X101460224Y-61500000D01*
X101521045Y-61525193D01*
X101611738Y-61585792D01*
X101701208Y-61645574D01*
X101854426Y-61798792D01*
X101974808Y-61978957D01*
X102057728Y-62179143D01*
X102100000Y-62391658D01*
X102100000Y-62608342D01*
X102057728Y-62820857D01*
X101974808Y-63021043D01*
X101854426Y-63201208D01*
X101701208Y-63354426D01*
X101611738Y-63414208D01*
X101521045Y-63474807D01*
X101521044Y-63474808D01*
X101521043Y-63474808D01*
X101320857Y-63557728D01*
X101108342Y-63600000D01*
X100891658Y-63600000D01*
X100679143Y-63557728D01*
X100478957Y-63474808D01*
X100478956Y-63474808D01*
X100478955Y-63474807D01*
X100388262Y-63414208D01*
X100298792Y-63354426D01*
X100145574Y-63201208D01*
X100025192Y-63021043D01*
X99942272Y-62820857D01*
X99900000Y-62608342D01*
X99900000Y-62391658D01*
X99942272Y-62179143D01*
X100025192Y-61978957D01*
X100145574Y-61798792D01*
X100298792Y-61645574D01*
X100388262Y-61585792D01*
X100478955Y-61525193D01*
X100539776Y-61500000D01*
X100679143Y-61442272D01*
X100891658Y-61400000D01*
X101108342Y-61400000D01*
X101320857Y-61442272D01*
X101320857Y-61442272D01*
G37*
G36*
X98820857Y-61442272D02*
G01*
X98960224Y-61500000D01*
X99021045Y-61525193D01*
X99111738Y-61585792D01*
X99201208Y-61645574D01*
X99354426Y-61798792D01*
X99474808Y-61978957D01*
X99557728Y-62179143D01*
X99600000Y-62391658D01*
X99600000Y-62608342D01*
X99557728Y-62820857D01*
X99474808Y-63021043D01*
X99354426Y-63201208D01*
X99201208Y-63354426D01*
X99111738Y-63414208D01*
X99021045Y-63474807D01*
X99021044Y-63474808D01*
X99021043Y-63474808D01*
X98820857Y-63557728D01*
X98608342Y-63600000D01*
X98391658Y-63600000D01*
X98179143Y-63557728D01*
X97978957Y-63474808D01*
X97978956Y-63474808D01*
X97978955Y-63474807D01*
X97888262Y-63414208D01*
X97798792Y-63354426D01*
X97645574Y-63201208D01*
X97525192Y-63021043D01*
X97442272Y-62820857D01*
X97400000Y-62608342D01*
X97400000Y-62391658D01*
X97442272Y-62179143D01*
X97525192Y-61978957D01*
X97645574Y-61798792D01*
X97798792Y-61645574D01*
X97888262Y-61585792D01*
X97978955Y-61525193D01*
X98039776Y-61500000D01*
X98179143Y-61442272D01*
X98391658Y-61400000D01*
X98608342Y-61400000D01*
X98820857Y-61442272D01*
X98820857Y-61442272D01*
G37*
G36*
X61820857Y-61442272D02*
G01*
X61960224Y-61500000D01*
X62021045Y-61525193D01*
X62111738Y-61585792D01*
X62201208Y-61645574D01*
X62354426Y-61798792D01*
X62474808Y-61978957D01*
X62557728Y-62179143D01*
X62600000Y-62391658D01*
X62600000Y-62608342D01*
X62557728Y-62820857D01*
X62474808Y-63021043D01*
X62354426Y-63201208D01*
X62201208Y-63354426D01*
X62111738Y-63414208D01*
X62021045Y-63474807D01*
X62021044Y-63474808D01*
X62021043Y-63474808D01*
X61820857Y-63557728D01*
X61608342Y-63600000D01*
X61391658Y-63600000D01*
X61179143Y-63557728D01*
X60978957Y-63474808D01*
X60978956Y-63474808D01*
X60978955Y-63474807D01*
X60888262Y-63414208D01*
X60798792Y-63354426D01*
X60645574Y-63201208D01*
X60525192Y-63021043D01*
X60442272Y-62820857D01*
X60400000Y-62608342D01*
X60400000Y-62391658D01*
X60442272Y-62179143D01*
X60525192Y-61978957D01*
X60645574Y-61798792D01*
X60798792Y-61645574D01*
X60888262Y-61585792D01*
X60978955Y-61525193D01*
X61039776Y-61500000D01*
X61179143Y-61442272D01*
X61391658Y-61400000D01*
X61608342Y-61400000D01*
X61820857Y-61442272D01*
X61820857Y-61442272D01*
G37*
G36*
X59320857Y-61442272D02*
G01*
X59460224Y-61500000D01*
X59521045Y-61525193D01*
X59611738Y-61585792D01*
X59701208Y-61645574D01*
X59854426Y-61798792D01*
X59974808Y-61978957D01*
X60057728Y-62179143D01*
X60100000Y-62391658D01*
X60100000Y-62608342D01*
X60057728Y-62820857D01*
X59974808Y-63021043D01*
X59854426Y-63201208D01*
X59701208Y-63354426D01*
X59611738Y-63414208D01*
X59521045Y-63474807D01*
X59521044Y-63474808D01*
X59521043Y-63474808D01*
X59320857Y-63557728D01*
X59108342Y-63600000D01*
X58891658Y-63600000D01*
X58679143Y-63557728D01*
X58478957Y-63474808D01*
X58478956Y-63474808D01*
X58478955Y-63474807D01*
X58388262Y-63414208D01*
X58298792Y-63354426D01*
X58145574Y-63201208D01*
X58025192Y-63021043D01*
X57942272Y-62820857D01*
X57900000Y-62608342D01*
X57900000Y-62391658D01*
X57942272Y-62179143D01*
X58025192Y-61978957D01*
X58145574Y-61798792D01*
X58298792Y-61645574D01*
X58388262Y-61585792D01*
X58478955Y-61525193D01*
X58539776Y-61500000D01*
X58679143Y-61442272D01*
X58891658Y-61400000D01*
X59108342Y-61400000D01*
X59320857Y-61442272D01*
X59320857Y-61442272D01*
G37*
G36*
X56820857Y-61442272D02*
G01*
X56960224Y-61500000D01*
X57021045Y-61525193D01*
X57111738Y-61585792D01*
X57201208Y-61645574D01*
X57354426Y-61798792D01*
X57474808Y-61978957D01*
X57557728Y-62179143D01*
X57600000Y-62391658D01*
X57600000Y-62608342D01*
X57557728Y-62820857D01*
X57474808Y-63021043D01*
X57354426Y-63201208D01*
X57201208Y-63354426D01*
X57111738Y-63414208D01*
X57021045Y-63474807D01*
X57021044Y-63474808D01*
X57021043Y-63474808D01*
X56820857Y-63557728D01*
X56608342Y-63600000D01*
X56391658Y-63600000D01*
X56179143Y-63557728D01*
X55978957Y-63474808D01*
X55978956Y-63474808D01*
X55978955Y-63474807D01*
X55888262Y-63414208D01*
X55798792Y-63354426D01*
X55645574Y-63201208D01*
X55525192Y-63021043D01*
X55442272Y-62820857D01*
X55400000Y-62608342D01*
X55400000Y-62391658D01*
X55442272Y-62179143D01*
X55525192Y-61978957D01*
X55645574Y-61798792D01*
X55798792Y-61645574D01*
X55888262Y-61585792D01*
X55978955Y-61525193D01*
X56039776Y-61500000D01*
X56179143Y-61442272D01*
X56391658Y-61400000D01*
X56608342Y-61400000D01*
X56820857Y-61442272D01*
X56820857Y-61442272D01*
G37*
G36*
X80351163Y-57934587D02*
G01*
X80525041Y-57969173D01*
X80852620Y-58104861D01*
X81147433Y-58301849D01*
X81398151Y-58552567D01*
X81595139Y-58847380D01*
X81730827Y-59174959D01*
X81743261Y-59237470D01*
X81800000Y-59522714D01*
X81800000Y-59877286D01*
X81767298Y-60041688D01*
X81730827Y-60225041D01*
X81595139Y-60552620D01*
X81398151Y-60847433D01*
X81147433Y-61098151D01*
X80852620Y-61295139D01*
X80525041Y-61430827D01*
X80351162Y-61465414D01*
X80177286Y-61500000D01*
X79822714Y-61500000D01*
X79648838Y-61465414D01*
X79474959Y-61430827D01*
X79147380Y-61295139D01*
X78852567Y-61098151D01*
X78601849Y-60847433D01*
X78404861Y-60552620D01*
X78269173Y-60225041D01*
X78232702Y-60041688D01*
X78200000Y-59877286D01*
X78200000Y-59522714D01*
X78256739Y-59237470D01*
X78269173Y-59174959D01*
X78404861Y-58847380D01*
X78601849Y-58552567D01*
X78852567Y-58301849D01*
X79147380Y-58104861D01*
X79474959Y-57969173D01*
X79648837Y-57934587D01*
X79822714Y-57900000D01*
X80177286Y-57900000D01*
X80351163Y-57934587D01*
X80351163Y-57934587D01*
G37*
G36*
X67977290Y-58775619D02*
G01*
X68041689Y-58788429D01*
X68223678Y-58863811D01*
X68387463Y-58973249D01*
X68526751Y-59112537D01*
X68636189Y-59276322D01*
X68711571Y-59458311D01*
X68711571Y-59458312D01*
X68750000Y-59651507D01*
X68750000Y-59848493D01*
X68724381Y-59977290D01*
X68711571Y-60041689D01*
X68636189Y-60223678D01*
X68526751Y-60387463D01*
X68387463Y-60526751D01*
X68223678Y-60636189D01*
X68041689Y-60711571D01*
X67977290Y-60724381D01*
X67848493Y-60750000D01*
X67651507Y-60750000D01*
X67522710Y-60724381D01*
X67458311Y-60711571D01*
X67276322Y-60636189D01*
X67112537Y-60526751D01*
X66973249Y-60387463D01*
X66863811Y-60223678D01*
X66788429Y-60041689D01*
X66775619Y-59977290D01*
X66750000Y-59848493D01*
X66750000Y-59651507D01*
X66788429Y-59458312D01*
X66788429Y-59458311D01*
X66863811Y-59276322D01*
X66973249Y-59112537D01*
X67112537Y-58973249D01*
X67276322Y-58863811D01*
X67458311Y-58788429D01*
X67522710Y-58775619D01*
X67651507Y-58750000D01*
X67848493Y-58750000D01*
X67977290Y-58775619D01*
X67977290Y-58775619D01*
G37*
G36*
X59185929Y-58316676D02*
G01*
X59403176Y-58382577D01*
X59403179Y-58382578D01*
X59582844Y-58478612D01*
X59603393Y-58489595D01*
X59603886Y-58490000D01*
X59778884Y-58633616D01*
X59874396Y-58750000D01*
X59922905Y-58809108D01*
X59922906Y-58809110D01*
X60029922Y-59009322D01*
X60029923Y-59009325D01*
X60095824Y-59226571D01*
X60095824Y-59226573D01*
X60098104Y-59249722D01*
X60102885Y-59273756D01*
X60112262Y-59296394D01*
X60125876Y-59316769D01*
X60143203Y-59334096D01*
X60163577Y-59347709D01*
X60186216Y-59357087D01*
X60210249Y-59361867D01*
X60234753Y-59361867D01*
X60258787Y-59357086D01*
X60281425Y-59347709D01*
X60301800Y-59334095D01*
X60319127Y-59316768D01*
X60332740Y-59296394D01*
X60342118Y-59273755D01*
X60347500Y-59237470D01*
X60347500Y-58300000D01*
X62652500Y-58300000D01*
X62652500Y-60700000D01*
X60347500Y-60700000D01*
X60347500Y-59762531D01*
X60345098Y-59738145D01*
X60337985Y-59714696D01*
X60326434Y-59693085D01*
X60310889Y-59674143D01*
X60291947Y-59658598D01*
X60270336Y-59647047D01*
X60246887Y-59639934D01*
X60222501Y-59637532D01*
X60198115Y-59639934D01*
X60174666Y-59647047D01*
X60153055Y-59658598D01*
X60134113Y-59674143D01*
X60118568Y-59693085D01*
X60107017Y-59714696D01*
X60098104Y-59750279D01*
X60095824Y-59773429D01*
X60064320Y-59877284D01*
X60029922Y-59990679D01*
X60002657Y-60041688D01*
X59922905Y-60190893D01*
X59896000Y-60223676D01*
X59778884Y-60366384D01*
X59651180Y-60471186D01*
X59603392Y-60510405D01*
X59603390Y-60510406D01*
X59403178Y-60617422D01*
X59403175Y-60617423D01*
X59185928Y-60683324D01*
X58960000Y-60705576D01*
X58734071Y-60683324D01*
X58516824Y-60617423D01*
X58516821Y-60617422D01*
X58316609Y-60510406D01*
X58316607Y-60510405D01*
X58268819Y-60471186D01*
X58141116Y-60366384D01*
X58034612Y-60236606D01*
X57997095Y-60190892D01*
X57890079Y-59990679D01*
X57890078Y-59990678D01*
X57846946Y-59848491D01*
X57824176Y-59773428D01*
X57814397Y-59674141D01*
X57809616Y-59650107D01*
X57800239Y-59627469D01*
X57786625Y-59607094D01*
X57769298Y-59589767D01*
X57748924Y-59576154D01*
X57726285Y-59566776D01*
X57702252Y-59561996D01*
X57677748Y-59561996D01*
X57653714Y-59566777D01*
X57631076Y-59576154D01*
X57610701Y-59589768D01*
X57593374Y-59607095D01*
X57579761Y-59627469D01*
X57570383Y-59650108D01*
X57565603Y-59674141D01*
X57555824Y-59773429D01*
X57524320Y-59877284D01*
X57489922Y-59990679D01*
X57462657Y-60041688D01*
X57382905Y-60190893D01*
X57356000Y-60223676D01*
X57238884Y-60366384D01*
X57111180Y-60471186D01*
X57063392Y-60510405D01*
X57063390Y-60510406D01*
X56863178Y-60617422D01*
X56863175Y-60617423D01*
X56645928Y-60683324D01*
X56420000Y-60705576D01*
X56194071Y-60683324D01*
X55976824Y-60617423D01*
X55976821Y-60617422D01*
X55776609Y-60510406D01*
X55776607Y-60510405D01*
X55728819Y-60471186D01*
X55601116Y-60366384D01*
X55494612Y-60236606D01*
X55457095Y-60190892D01*
X55350079Y-59990679D01*
X55350078Y-59990678D01*
X55306946Y-59848491D01*
X55284176Y-59773428D01*
X55272030Y-59650107D01*
X55267500Y-59604115D01*
X55267500Y-59395884D01*
X55284176Y-59226572D01*
X55299833Y-59174959D01*
X55350077Y-59009324D01*
X55350078Y-59009322D01*
X55350078Y-59009321D01*
X55457094Y-58809109D01*
X55457095Y-58809107D01*
X55601117Y-58633617D01*
X55776608Y-58489595D01*
X55797157Y-58478612D01*
X55976822Y-58382578D01*
X55976825Y-58382577D01*
X56194072Y-58316676D01*
X56420000Y-58294424D01*
X56645929Y-58316676D01*
X56863176Y-58382577D01*
X56863179Y-58382578D01*
X57042844Y-58478612D01*
X57063393Y-58489595D01*
X57063886Y-58490000D01*
X57238884Y-58633616D01*
X57334396Y-58750000D01*
X57382905Y-58809108D01*
X57382906Y-58809110D01*
X57489922Y-59009322D01*
X57489923Y-59009325D01*
X57555824Y-59226571D01*
X57555824Y-59226573D01*
X57565603Y-59325859D01*
X57570384Y-59349893D01*
X57579761Y-59372531D01*
X57593375Y-59392906D01*
X57610702Y-59410233D01*
X57631076Y-59423846D01*
X57653715Y-59433224D01*
X57677748Y-59438004D01*
X57702252Y-59438004D01*
X57726286Y-59433223D01*
X57748924Y-59423846D01*
X57769299Y-59410232D01*
X57786626Y-59392905D01*
X57800239Y-59372531D01*
X57809617Y-59349892D01*
X57814397Y-59325859D01*
X57824176Y-59226572D01*
X57839833Y-59174959D01*
X57890077Y-59009324D01*
X57890078Y-59009322D01*
X57890078Y-59009321D01*
X57997094Y-58809109D01*
X57997095Y-58809107D01*
X58141117Y-58633617D01*
X58316608Y-58489595D01*
X58337157Y-58478612D01*
X58516822Y-58382578D01*
X58516825Y-58382577D01*
X58734072Y-58316676D01*
X58960000Y-58294424D01*
X59185929Y-58316676D01*
X59185929Y-58316676D01*
G37*
G36*
X103794605Y-58528813D02*
G01*
X103978413Y-58604949D01*
X104143837Y-58715482D01*
X104284518Y-58856163D01*
X104395051Y-59021587D01*
X104471187Y-59205395D01*
X104510000Y-59400522D01*
X104510000Y-59599478D01*
X104471187Y-59794605D01*
X104395051Y-59978413D01*
X104284518Y-60143837D01*
X104143837Y-60284518D01*
X103978413Y-60395051D01*
X103794605Y-60471187D01*
X103599478Y-60510000D01*
X103400522Y-60510000D01*
X103205395Y-60471187D01*
X103021587Y-60395051D01*
X102856163Y-60284518D01*
X102715482Y-60143837D01*
X102604949Y-59978413D01*
X102528813Y-59794605D01*
X102490000Y-59599478D01*
X102490000Y-59400522D01*
X102528813Y-59205395D01*
X102604949Y-59021587D01*
X102715482Y-58856163D01*
X102856163Y-58715482D01*
X103021587Y-58604949D01*
X103205395Y-58528813D01*
X103400522Y-58490000D01*
X103599478Y-58490000D01*
X103794605Y-58528813D01*
X103794605Y-58528813D01*
G37*
G36*
X98794605Y-58528813D02*
G01*
X98978413Y-58604949D01*
X99143837Y-58715482D01*
X99284518Y-58856163D01*
X99395051Y-59021587D01*
X99471187Y-59205395D01*
X99510000Y-59400522D01*
X99510000Y-59599478D01*
X99471187Y-59794605D01*
X99395051Y-59978413D01*
X99284518Y-60143837D01*
X99143837Y-60284518D01*
X98978413Y-60395051D01*
X98794605Y-60471187D01*
X98599478Y-60510000D01*
X98400522Y-60510000D01*
X98205395Y-60471187D01*
X98021587Y-60395051D01*
X97856163Y-60284518D01*
X97715482Y-60143837D01*
X97604949Y-59978413D01*
X97528813Y-59794605D01*
X97490000Y-59599478D01*
X97490000Y-59400522D01*
X97528813Y-59205395D01*
X97604949Y-59021587D01*
X97715482Y-58856163D01*
X97856163Y-58715482D01*
X98021587Y-58604949D01*
X98205395Y-58528813D01*
X98400522Y-58490000D01*
X98599478Y-58490000D01*
X98794605Y-58528813D01*
X98794605Y-58528813D01*
G37*
G36*
X75300000Y-58800000D02*
G01*
X72700000Y-58800000D01*
X72700000Y-56200000D01*
X75300000Y-56200000D01*
X75300000Y-58800000D01*
X75300000Y-58800000D01*
G37*
G36*
X68750000Y-58250000D02*
G01*
X66750000Y-58250000D01*
X66750000Y-56250000D01*
X68750000Y-56250000D01*
X68750000Y-58250000D01*
X68750000Y-58250000D01*
G37*
G36*
X54931654Y-53832665D02*
G01*
X55095872Y-53865330D01*
X55405252Y-53993479D01*
X55683687Y-54179523D01*
X55920477Y-54416313D01*
X56106521Y-54694748D01*
X56234670Y-55004128D01*
X56300000Y-55332565D01*
X56300000Y-55667435D01*
X56234670Y-55995872D01*
X56106521Y-56305252D01*
X55920477Y-56583687D01*
X55683687Y-56820477D01*
X55405252Y-57006521D01*
X55095872Y-57134670D01*
X54931654Y-57167335D01*
X54767437Y-57200000D01*
X54432563Y-57200000D01*
X54268346Y-57167335D01*
X54104128Y-57134670D01*
X53794748Y-57006521D01*
X53516313Y-56820477D01*
X53279523Y-56583687D01*
X53093479Y-56305252D01*
X52965330Y-55995872D01*
X52900000Y-55667435D01*
X52900000Y-55332565D01*
X52965330Y-55004128D01*
X53093479Y-54694748D01*
X53279523Y-54416313D01*
X53516313Y-54179523D01*
X53794748Y-53993479D01*
X54104128Y-53865330D01*
X54268346Y-53832665D01*
X54432563Y-53800000D01*
X54767437Y-53800000D01*
X54931654Y-53832665D01*
X54931654Y-53832665D01*
G37*
G36*
X63731654Y-53832665D02*
G01*
X63895872Y-53865330D01*
X64205252Y-53993479D01*
X64483687Y-54179523D01*
X64720477Y-54416313D01*
X64906521Y-54694748D01*
X65034670Y-55004128D01*
X65100000Y-55332565D01*
X65100000Y-55667435D01*
X65034670Y-55995872D01*
X64906521Y-56305252D01*
X64720477Y-56583687D01*
X64483687Y-56820477D01*
X64205252Y-57006521D01*
X63895872Y-57134670D01*
X63731654Y-57167335D01*
X63567437Y-57200000D01*
X63232563Y-57200000D01*
X63068346Y-57167335D01*
X62904128Y-57134670D01*
X62594748Y-57006521D01*
X62316313Y-56820477D01*
X62079523Y-56583687D01*
X61893479Y-56305252D01*
X61765330Y-55995872D01*
X61700000Y-55667435D01*
X61700000Y-55332565D01*
X61765330Y-55004128D01*
X61893479Y-54694748D01*
X62079523Y-54416313D01*
X62316313Y-54179523D01*
X62594748Y-53993479D01*
X62904128Y-53865330D01*
X63068346Y-53832665D01*
X63232563Y-53800000D01*
X63567437Y-53800000D01*
X63731654Y-53832665D01*
X63731654Y-53832665D01*
G37*
G36*
X96931654Y-53832665D02*
G01*
X97095872Y-53865330D01*
X97405252Y-53993479D01*
X97683687Y-54179523D01*
X97920477Y-54416313D01*
X98106521Y-54694748D01*
X98234670Y-55004128D01*
X98300000Y-55332565D01*
X98300000Y-55667435D01*
X98234670Y-55995872D01*
X98106521Y-56305252D01*
X97920477Y-56583687D01*
X97683687Y-56820477D01*
X97405252Y-57006521D01*
X97095872Y-57134670D01*
X96931654Y-57167335D01*
X96767437Y-57200000D01*
X96432563Y-57200000D01*
X96268346Y-57167335D01*
X96104128Y-57134670D01*
X95794748Y-57006521D01*
X95516313Y-56820477D01*
X95279523Y-56583687D01*
X95093479Y-56305252D01*
X94965330Y-55995872D01*
X94900000Y-55667435D01*
X94900000Y-55332565D01*
X94965330Y-55004128D01*
X95093479Y-54694748D01*
X95279523Y-54416313D01*
X95516313Y-54179523D01*
X95794748Y-53993479D01*
X96104128Y-53865330D01*
X96268346Y-53832665D01*
X96432563Y-53800000D01*
X96767437Y-53800000D01*
X96931654Y-53832665D01*
X96931654Y-53832665D01*
G37*
G36*
X105731654Y-53832665D02*
G01*
X105895872Y-53865330D01*
X106205252Y-53993479D01*
X106483687Y-54179523D01*
X106720477Y-54416313D01*
X106906521Y-54694748D01*
X107034670Y-55004128D01*
X107100000Y-55332565D01*
X107100000Y-55667435D01*
X107034670Y-55995872D01*
X106906521Y-56305252D01*
X106720477Y-56583687D01*
X106483687Y-56820477D01*
X106205252Y-57006521D01*
X105895872Y-57134670D01*
X105731654Y-57167335D01*
X105567437Y-57200000D01*
X105232563Y-57200000D01*
X105068346Y-57167335D01*
X104904128Y-57134670D01*
X104594748Y-57006521D01*
X104316313Y-56820477D01*
X104079523Y-56583687D01*
X103893479Y-56305252D01*
X103765330Y-55995872D01*
X103700000Y-55667435D01*
X103700000Y-55332565D01*
X103765330Y-55004128D01*
X103893479Y-54694748D01*
X104079523Y-54416313D01*
X104316313Y-54179523D01*
X104594748Y-53993479D01*
X104904128Y-53865330D01*
X105068346Y-53832665D01*
X105232563Y-53800000D01*
X105567437Y-53800000D01*
X105731654Y-53832665D01*
X105731654Y-53832665D01*
G37*
G36*
X80351163Y-53234587D02*
G01*
X80525041Y-53269173D01*
X80852620Y-53404861D01*
X81147433Y-53601849D01*
X81398151Y-53852567D01*
X81595139Y-54147380D01*
X81730827Y-54474959D01*
X81730827Y-54474961D01*
X81794409Y-54794605D01*
X81800000Y-54822716D01*
X81800000Y-55177284D01*
X81730827Y-55525041D01*
X81595139Y-55852620D01*
X81398151Y-56147433D01*
X81147433Y-56398151D01*
X80852620Y-56595139D01*
X80525041Y-56730827D01*
X80351163Y-56765413D01*
X80177286Y-56800000D01*
X79822714Y-56800000D01*
X79648837Y-56765413D01*
X79474959Y-56730827D01*
X79147380Y-56595139D01*
X78852567Y-56398151D01*
X78601849Y-56147433D01*
X78404861Y-55852620D01*
X78269173Y-55525041D01*
X78200000Y-55177284D01*
X78200000Y-54822716D01*
X78205592Y-54794605D01*
X78269173Y-54474961D01*
X78269173Y-54474959D01*
X78404861Y-54147380D01*
X78601849Y-53852567D01*
X78852567Y-53601849D01*
X79147380Y-53404861D01*
X79474959Y-53269173D01*
X79648838Y-53234586D01*
X79822714Y-53200000D01*
X80177286Y-53200000D01*
X80351163Y-53234587D01*
X80351163Y-53234587D01*
G37*
G36*
X91150000Y-56200000D02*
G01*
X88850000Y-56200000D01*
X88850000Y-55175839D01*
X88847598Y-55151453D01*
X88840485Y-55128004D01*
X88828934Y-55106393D01*
X88813389Y-55087451D01*
X88794447Y-55071906D01*
X88772836Y-55060355D01*
X88749387Y-55053242D01*
X88725001Y-55050840D01*
X88700615Y-55053242D01*
X88677166Y-55060355D01*
X88655555Y-55071906D01*
X88636613Y-55087451D01*
X88621068Y-55106393D01*
X88609517Y-55128004D01*
X88602404Y-55151453D01*
X88565806Y-55335443D01*
X88479116Y-55544729D01*
X88353263Y-55733082D01*
X88193082Y-55893263D01*
X88004729Y-56019116D01*
X87795443Y-56105806D01*
X87647324Y-56135269D01*
X87573266Y-56150000D01*
X87346734Y-56150000D01*
X87272676Y-56135269D01*
X87124557Y-56105806D01*
X86915271Y-56019116D01*
X86726918Y-55893263D01*
X86566737Y-55733082D01*
X86440884Y-55544729D01*
X86354194Y-55335443D01*
X86310000Y-55113265D01*
X86310000Y-54886735D01*
X86354194Y-54664557D01*
X86440884Y-54455271D01*
X86566737Y-54266918D01*
X86726918Y-54106737D01*
X86915271Y-53980884D01*
X87124557Y-53894194D01*
X87272676Y-53864731D01*
X87346734Y-53850000D01*
X87573266Y-53850000D01*
X87647324Y-53864731D01*
X87795443Y-53894194D01*
X88004729Y-53980884D01*
X88193082Y-54106737D01*
X88353263Y-54266918D01*
X88479116Y-54455271D01*
X88565806Y-54664557D01*
X88591674Y-54794605D01*
X88602404Y-54848547D01*
X88609517Y-54871996D01*
X88621068Y-54893607D01*
X88636614Y-54912549D01*
X88655556Y-54928094D01*
X88677166Y-54939645D01*
X88700615Y-54946758D01*
X88725001Y-54949160D01*
X88749387Y-54946758D01*
X88772836Y-54939645D01*
X88794447Y-54928094D01*
X88813389Y-54912548D01*
X88828934Y-54893606D01*
X88840485Y-54871996D01*
X88847598Y-54848547D01*
X88850000Y-54824161D01*
X88850000Y-53800000D01*
X91150000Y-53800000D01*
X91150000Y-56200000D01*
X91150000Y-56200000D01*
G37*
G36*
X101294605Y-53528813D02*
G01*
X101478413Y-53604949D01*
X101643837Y-53715482D01*
X101784518Y-53856163D01*
X101895051Y-54021587D01*
X101971187Y-54205395D01*
X102010000Y-54400522D01*
X102010000Y-54599478D01*
X101971187Y-54794605D01*
X101895051Y-54978413D01*
X101784518Y-55143837D01*
X101643837Y-55284518D01*
X101478413Y-55395051D01*
X101294605Y-55471187D01*
X101099478Y-55510000D01*
X100900522Y-55510000D01*
X100705395Y-55471187D01*
X100521587Y-55395051D01*
X100356163Y-55284518D01*
X100215482Y-55143837D01*
X100104949Y-54978413D01*
X100028813Y-54794605D01*
X99990000Y-54599478D01*
X99990000Y-54400522D01*
X100028813Y-54205395D01*
X100104949Y-54021587D01*
X100215482Y-53856163D01*
X100356163Y-53715482D01*
X100521587Y-53604949D01*
X100705395Y-53528813D01*
X100900522Y-53490000D01*
X101099478Y-53490000D01*
X101294605Y-53528813D01*
X101294605Y-53528813D01*
G37*
G36*
X61185929Y-50816676D02*
G01*
X61403176Y-50882577D01*
X61403179Y-50882578D01*
X61559512Y-50966140D01*
X61603393Y-50989595D01*
X61649107Y-51027112D01*
X61778884Y-51133616D01*
X61885388Y-51263394D01*
X61922905Y-51309108D01*
X61922906Y-51309110D01*
X62029922Y-51509322D01*
X62029923Y-51509325D01*
X62095824Y-51726571D01*
X62095824Y-51726573D01*
X62098104Y-51749722D01*
X62102885Y-51773756D01*
X62112262Y-51796394D01*
X62125876Y-51816769D01*
X62143203Y-51834096D01*
X62163577Y-51847709D01*
X62186216Y-51857087D01*
X62210249Y-51861867D01*
X62234753Y-51861867D01*
X62258787Y-51857086D01*
X62281425Y-51847709D01*
X62301800Y-51834095D01*
X62319127Y-51816768D01*
X62332740Y-51796394D01*
X62342118Y-51773755D01*
X62347500Y-51737470D01*
X62347500Y-50800000D01*
X64652500Y-50800000D01*
X64652500Y-53200000D01*
X62347500Y-53200000D01*
X62347500Y-52262531D01*
X62345098Y-52238145D01*
X62337985Y-52214696D01*
X62326434Y-52193085D01*
X62310889Y-52174143D01*
X62291947Y-52158598D01*
X62270336Y-52147047D01*
X62246887Y-52139934D01*
X62222501Y-52137532D01*
X62198115Y-52139934D01*
X62174666Y-52147047D01*
X62153055Y-52158598D01*
X62134113Y-52174143D01*
X62118568Y-52193085D01*
X62107017Y-52214696D01*
X62098104Y-52250279D01*
X62095824Y-52273428D01*
X62029922Y-52490679D01*
X61933888Y-52670344D01*
X61922905Y-52690893D01*
X61885388Y-52736607D01*
X61778884Y-52866384D01*
X61649106Y-52972888D01*
X61603392Y-53010405D01*
X61603390Y-53010406D01*
X61403178Y-53117422D01*
X61403175Y-53117423D01*
X61185928Y-53183324D01*
X60960000Y-53205576D01*
X60734071Y-53183324D01*
X60516824Y-53117423D01*
X60516821Y-53117422D01*
X60316609Y-53010406D01*
X60316607Y-53010405D01*
X60270893Y-52972888D01*
X60141116Y-52866384D01*
X59997096Y-52690893D01*
X59997095Y-52690892D01*
X59890079Y-52490679D01*
X59890078Y-52490678D01*
X59890077Y-52490675D01*
X59824176Y-52273428D01*
X59814397Y-52174141D01*
X59809616Y-52150107D01*
X59800239Y-52127469D01*
X59786625Y-52107094D01*
X59769298Y-52089767D01*
X59748924Y-52076154D01*
X59726285Y-52066776D01*
X59702252Y-52061996D01*
X59677748Y-52061996D01*
X59653714Y-52066777D01*
X59631076Y-52076154D01*
X59610701Y-52089768D01*
X59593374Y-52107095D01*
X59579761Y-52127469D01*
X59570383Y-52150108D01*
X59565603Y-52174141D01*
X59555824Y-52273428D01*
X59489922Y-52490679D01*
X59393888Y-52670344D01*
X59382905Y-52690893D01*
X59345388Y-52736607D01*
X59238884Y-52866384D01*
X59109106Y-52972888D01*
X59063392Y-53010405D01*
X59063390Y-53010406D01*
X58863178Y-53117422D01*
X58863175Y-53117423D01*
X58645928Y-53183324D01*
X58420000Y-53205576D01*
X58194071Y-53183324D01*
X57976824Y-53117423D01*
X57976821Y-53117422D01*
X57776609Y-53010406D01*
X57776607Y-53010405D01*
X57730893Y-52972888D01*
X57601116Y-52866384D01*
X57457096Y-52690893D01*
X57457095Y-52690892D01*
X57350079Y-52490679D01*
X57350078Y-52490678D01*
X57350077Y-52490675D01*
X57284176Y-52273428D01*
X57272030Y-52150107D01*
X57267500Y-52104115D01*
X57267500Y-51895884D01*
X57284176Y-51726572D01*
X57350078Y-51509321D01*
X57457094Y-51309109D01*
X57457095Y-51309107D01*
X57601117Y-51133617D01*
X57776608Y-50989595D01*
X57820489Y-50966140D01*
X57976822Y-50882578D01*
X57976825Y-50882577D01*
X58194072Y-50816676D01*
X58420000Y-50794424D01*
X58645929Y-50816676D01*
X58863176Y-50882577D01*
X58863179Y-50882578D01*
X59019512Y-50966140D01*
X59063393Y-50989595D01*
X59109107Y-51027112D01*
X59238884Y-51133616D01*
X59345388Y-51263394D01*
X59382905Y-51309108D01*
X59382906Y-51309110D01*
X59489922Y-51509322D01*
X59489923Y-51509325D01*
X59555824Y-51726571D01*
X59555824Y-51726573D01*
X59565603Y-51825859D01*
X59570384Y-51849893D01*
X59579761Y-51872531D01*
X59593375Y-51892906D01*
X59610702Y-51910233D01*
X59631076Y-51923846D01*
X59653715Y-51933224D01*
X59677748Y-51938004D01*
X59702252Y-51938004D01*
X59726286Y-51933223D01*
X59748924Y-51923846D01*
X59769299Y-51910232D01*
X59786626Y-51892905D01*
X59800239Y-51872531D01*
X59809617Y-51849892D01*
X59814397Y-51825859D01*
X59824176Y-51726572D01*
X59890078Y-51509321D01*
X59997094Y-51309109D01*
X59997095Y-51309107D01*
X60141117Y-51133617D01*
X60316608Y-50989595D01*
X60360489Y-50966140D01*
X60516822Y-50882578D01*
X60516825Y-50882577D01*
X60734072Y-50816676D01*
X60960000Y-50794424D01*
X61185929Y-50816676D01*
X61185929Y-50816676D01*
G37*
G36*
X80351162Y-48534586D02*
G01*
X80525041Y-48569173D01*
X80852620Y-48704861D01*
X81147433Y-48901849D01*
X81398151Y-49152567D01*
X81595139Y-49447380D01*
X81730827Y-49774959D01*
X81800000Y-50122716D01*
X81800000Y-50477284D01*
X81730827Y-50825041D01*
X81595139Y-51152620D01*
X81398151Y-51447433D01*
X81147433Y-51698151D01*
X80852620Y-51895139D01*
X80852619Y-51895140D01*
X80852618Y-51895140D01*
X80816180Y-51910233D01*
X80525041Y-52030827D01*
X80368343Y-52061996D01*
X80177286Y-52100000D01*
X79822714Y-52100000D01*
X79631657Y-52061996D01*
X79474959Y-52030827D01*
X79183820Y-51910233D01*
X79147382Y-51895140D01*
X79147381Y-51895140D01*
X79147380Y-51895139D01*
X78852567Y-51698151D01*
X78601849Y-51447433D01*
X78404861Y-51152620D01*
X78269173Y-50825041D01*
X78200000Y-50477284D01*
X78200000Y-50122716D01*
X78269173Y-49774959D01*
X78404861Y-49447380D01*
X78601849Y-49152567D01*
X78852567Y-48901849D01*
X79147380Y-48704861D01*
X79474959Y-48569173D01*
X79648837Y-48534587D01*
X79822714Y-48500000D01*
X80177286Y-48500000D01*
X80351162Y-48534586D01*
X80351162Y-48534586D01*
G37*
G36*
X74254845Y-48598810D02*
G01*
X74499896Y-48673145D01*
X74725736Y-48793860D01*
X74923687Y-48956313D01*
X75086140Y-49154264D01*
X75206855Y-49380104D01*
X75281190Y-49625155D01*
X75306290Y-49880000D01*
X75281190Y-50134845D01*
X75206855Y-50379896D01*
X75086140Y-50605736D01*
X74923687Y-50803687D01*
X74725736Y-50966140D01*
X74499896Y-51086855D01*
X74254845Y-51161190D01*
X74063864Y-51180000D01*
X73936136Y-51180000D01*
X73745155Y-51161190D01*
X73500104Y-51086855D01*
X73274264Y-50966140D01*
X73076313Y-50803687D01*
X72913860Y-50605736D01*
X72793145Y-50379896D01*
X72718810Y-50134845D01*
X72693710Y-49880000D01*
X72718810Y-49625155D01*
X72793145Y-49380104D01*
X72913860Y-49154264D01*
X73076313Y-48956313D01*
X73274264Y-48793860D01*
X73500104Y-48673145D01*
X73745155Y-48598810D01*
X73936136Y-48580000D01*
X74063864Y-48580000D01*
X74254845Y-48598810D01*
X74254845Y-48598810D01*
G37*
M02*
