G04 #@! TF.GenerationSoftware,KiCad,Pcbnew,(5.1.2-1)-1*
G04 #@! TF.CreationDate,2019-12-27T17:58:15-07:00*
G04 #@! TF.ProjectId,NuisanceEngine,4e756973-616e-4636-9545-6e67696e652e,rev?*
G04 #@! TF.SameCoordinates,Original*
G04 #@! TF.FileFunction,Copper,L2,Bot*
G04 #@! TF.FilePolarity,Positive*
%FSLAX46Y46*%
G04 Gerber Fmt 4.6, Leading zero omitted, Abs format (unit mm)*
G04 Created by KiCad (PCBNEW (5.1.2-1)-1) date 2019-12-27 17:58:15*
%MOMM*%
%LPD*%
G04 APERTURE LIST*
%ADD10C,3.000000*%
%ADD11C,1.800000*%
%ADD12C,3.200000*%
%ADD13O,2.200000X2.200000*%
%ADD14R,2.200000X2.200000*%
%ADD15O,1.905000X2.000000*%
%ADD16R,1.905000X2.000000*%
%ADD17R,1.900000X2.000000*%
%ADD18C,1.900000*%
%ADD19C,2.262000*%
%ADD20C,1.620000*%
%ADD21O,1.700000X1.700000*%
%ADD22R,1.700000X1.700000*%
%ADD23R,1.600000X1.600000*%
%ADD24C,1.600000*%
%ADD25C,0.600000*%
%ADD26C,1.000000*%
%ADD27C,0.500000*%
%ADD28C,0.250000*%
%ADD29C,0.254000*%
G04 APERTURE END LIST*
D10*
X63400000Y-55500000D03*
X54600000Y-55500000D03*
D11*
X61500000Y-62500000D03*
X59000000Y-62500000D03*
X56500000Y-62500000D03*
D10*
X63400000Y-82500000D03*
X54600000Y-82500000D03*
D11*
X61500000Y-89500000D03*
X59000000Y-89500000D03*
X56500000Y-89500000D03*
D10*
X105400000Y-82500000D03*
X96600000Y-82500000D03*
D11*
X103500000Y-89500000D03*
X101000000Y-89500000D03*
X98500000Y-89500000D03*
D10*
X105400000Y-55500000D03*
X96600000Y-55500000D03*
D11*
X103500000Y-62500000D03*
X101000000Y-62500000D03*
X98500000Y-62500000D03*
D12*
X80000000Y-86700000D03*
X80000000Y-82000000D03*
X80000000Y-77300000D03*
D13*
X74000000Y-49880000D03*
D14*
X74000000Y-57500000D03*
D15*
X58420000Y-52000000D03*
X60960000Y-52000000D03*
D16*
X63500000Y-52000000D03*
D15*
X56420000Y-59500000D03*
X58960000Y-59500000D03*
D16*
X61500000Y-59500000D03*
D12*
X106150000Y-87350000D03*
X106150000Y-74650000D03*
D17*
X90000000Y-55000000D03*
D18*
X87460000Y-55000000D03*
D19*
X88500000Y-92000000D03*
X88500000Y-64000000D03*
D20*
X103500000Y-59500000D03*
X101000000Y-54500000D03*
X98500000Y-59500000D03*
D12*
X80000000Y-59700000D03*
X80000000Y-55000000D03*
X80000000Y-50300000D03*
D21*
X78540000Y-98000000D03*
D22*
X76000000Y-98000000D03*
D21*
X73080000Y-98000000D03*
X70540000Y-98000000D03*
D22*
X68000000Y-98000000D03*
X81460000Y-98000000D03*
D21*
X84000000Y-98000000D03*
X86540000Y-98000000D03*
D22*
X89500000Y-98000000D03*
D21*
X92040000Y-98000000D03*
D23*
X67750000Y-57250000D03*
D24*
X67750000Y-59750000D03*
D25*
X67000000Y-82000000D03*
X67000000Y-80500000D03*
X71000000Y-71750000D03*
X70250000Y-71750000D03*
X72000000Y-64750000D03*
X72000000Y-64000000D03*
X71250000Y-93000000D03*
X71250000Y-92250000D03*
X75750000Y-60500000D03*
X77250000Y-64750000D03*
X82750000Y-72750000D03*
X81750000Y-72750000D03*
X71000000Y-57000000D03*
X71000000Y-57750000D03*
X87000000Y-76000000D03*
X88000000Y-76000000D03*
X89000000Y-76000000D03*
X90000000Y-76000000D03*
X89000000Y-77000000D03*
X90000000Y-77000000D03*
X87000000Y-77000000D03*
X88000000Y-77000000D03*
X87000000Y-78000000D03*
X88000000Y-78000000D03*
X89000000Y-78000000D03*
X90000000Y-78000000D03*
X67125000Y-86875000D03*
X67000000Y-78000000D03*
X80000000Y-89750000D03*
X70500000Y-65250000D03*
X72500000Y-74000000D03*
X72500000Y-88500000D03*
X79500000Y-67250000D03*
X73500000Y-67250000D03*
D26*
X92500000Y-81000000D02*
X98850000Y-74650000D01*
X98850000Y-74650000D02*
X106900000Y-74650000D01*
X92500000Y-92040000D02*
X92500000Y-81000000D01*
X86540000Y-98000000D02*
X92500000Y-92040000D01*
D27*
X103449999Y-88177207D02*
X103500000Y-88227208D01*
X103500000Y-88227208D02*
X103500000Y-89500000D01*
X103449999Y-81563999D02*
X103449999Y-88177207D01*
X104786002Y-52000000D02*
X106500000Y-52000000D01*
X100786002Y-48000000D02*
X104786002Y-52000000D01*
X59500000Y-48000000D02*
X100786002Y-48000000D01*
X56500000Y-51000000D02*
X59500000Y-48000000D01*
X55000000Y-51000000D02*
X56500000Y-51000000D01*
X108200001Y-76813997D02*
X103449999Y-81563999D01*
X108200001Y-53700001D02*
X108200001Y-76813997D01*
X106500000Y-52000000D02*
X108200001Y-53700001D01*
X55000000Y-51000000D02*
X52000000Y-54000000D01*
X52000000Y-85000000D02*
X56500000Y-89500000D01*
X52000000Y-54000000D02*
X52000000Y-85000000D01*
D28*
X67000000Y-86750000D02*
X67125000Y-86875000D01*
X66000000Y-85750000D02*
X66000000Y-79000000D01*
X66700001Y-78299999D02*
X67000000Y-78000000D01*
X66000000Y-79000000D02*
X66700001Y-78299999D01*
X67125000Y-86875000D02*
X66000000Y-85750000D01*
D27*
X63500000Y-52047500D02*
X63500000Y-52000000D01*
X65350001Y-53897501D02*
X63500000Y-52047500D01*
X65350001Y-57102499D02*
X65350001Y-53897501D01*
X62952500Y-59500000D02*
X65350001Y-57102499D01*
X61500000Y-59500000D02*
X62952500Y-59500000D01*
X56420000Y-59452500D02*
X56420000Y-59500000D01*
X57872500Y-58000000D02*
X56420000Y-59452500D01*
X57920000Y-58000000D02*
X57872500Y-58000000D01*
X58420000Y-57500000D02*
X57920000Y-58000000D01*
X58420000Y-52000000D02*
X58420000Y-57500000D01*
X66450000Y-57250000D02*
X67750000Y-57250000D01*
X64000000Y-63500000D02*
X64000000Y-59700000D01*
X64000000Y-59700000D02*
X66450000Y-57250000D01*
X62500000Y-65000000D02*
X64000000Y-63500000D01*
X54000000Y-63500000D02*
X55500000Y-65000000D01*
X55500000Y-65000000D02*
X62500000Y-65000000D01*
X54000000Y-61967500D02*
X54000000Y-63500000D01*
X56420000Y-59547500D02*
X54000000Y-61967500D01*
X56420000Y-59500000D02*
X56420000Y-59547500D01*
D26*
X75250000Y-77250000D02*
X75250000Y-72500000D01*
X75250000Y-77250000D02*
X80000000Y-82000000D01*
X67750000Y-65000000D02*
X67875000Y-65125000D01*
X67750000Y-59750000D02*
X67750000Y-65000000D01*
X75250000Y-72500000D02*
X67875000Y-65125000D01*
D27*
X58960000Y-59960000D02*
X61500000Y-62500000D01*
X58960000Y-59500000D02*
X58960000Y-59960000D01*
D28*
X76750000Y-76899002D02*
X79600998Y-79750000D01*
X76750000Y-72833260D02*
X76750000Y-76899002D01*
X70500000Y-66583260D02*
X76750000Y-72833260D01*
X70500000Y-65250000D02*
X70500000Y-66583260D01*
X80299999Y-89450001D02*
X80000000Y-89750000D01*
X81925001Y-87824999D02*
X80299999Y-89450001D01*
X80599002Y-79750000D02*
X81925001Y-81075999D01*
X81925001Y-81075999D02*
X81925001Y-87824999D01*
X79600998Y-79750000D02*
X80599002Y-79750000D01*
X72500000Y-88500000D02*
X72500000Y-74000000D01*
X73500000Y-67250000D02*
X79500000Y-67250000D01*
D26*
X84000000Y-98000000D02*
X84000000Y-74500000D01*
X84000000Y-74500000D02*
X85500000Y-73000000D01*
X85500000Y-65200000D02*
X80000000Y-59700000D01*
X85500000Y-73000000D02*
X85500000Y-65200000D01*
D29*
G36*
X104413962Y-76074729D02*
G01*
X104725271Y-76386038D01*
X105091331Y-76630631D01*
X105498075Y-76799110D01*
X105929872Y-76885000D01*
X106370128Y-76885000D01*
X106801925Y-76799110D01*
X107077425Y-76684994D01*
X102854955Y-80907465D01*
X102821182Y-80935182D01*
X102710588Y-81069941D01*
X102628410Y-81223687D01*
X102577804Y-81390510D01*
X102564999Y-81520523D01*
X102564999Y-81520530D01*
X102560718Y-81563999D01*
X102564999Y-81607468D01*
X102565000Y-88133728D01*
X102560718Y-88177207D01*
X102570353Y-88275042D01*
X102521495Y-88307688D01*
X102307688Y-88521495D01*
X102250000Y-88607831D01*
X102192312Y-88521495D01*
X101978505Y-88307688D01*
X101727095Y-88139701D01*
X101447743Y-88023989D01*
X101151184Y-87965000D01*
X100848816Y-87965000D01*
X100552257Y-88023989D01*
X100272905Y-88139701D01*
X100021495Y-88307688D01*
X99807688Y-88521495D01*
X99712262Y-88664310D01*
X99564080Y-88615525D01*
X98679605Y-89500000D01*
X99564080Y-90384475D01*
X99712262Y-90335690D01*
X99807688Y-90478505D01*
X100021495Y-90692312D01*
X100272905Y-90860299D01*
X100552257Y-90976011D01*
X100848816Y-91035000D01*
X101151184Y-91035000D01*
X101447743Y-90976011D01*
X101727095Y-90860299D01*
X101978505Y-90692312D01*
X102192312Y-90478505D01*
X102250000Y-90392169D01*
X102307688Y-90478505D01*
X102521495Y-90692312D01*
X102772905Y-90860299D01*
X103052257Y-90976011D01*
X103348816Y-91035000D01*
X103651184Y-91035000D01*
X103947743Y-90976011D01*
X104227095Y-90860299D01*
X104478505Y-90692312D01*
X104692312Y-90478505D01*
X104860299Y-90227095D01*
X104976011Y-89947743D01*
X105035000Y-89651184D01*
X105035000Y-89348816D01*
X105021971Y-89283313D01*
X105326607Y-89439426D01*
X105750055Y-89559914D01*
X106188873Y-89595476D01*
X106626197Y-89544746D01*
X107045221Y-89409674D01*
X107365198Y-89238643D01*
X107533239Y-88912845D01*
X106150000Y-87529605D01*
X106135858Y-87543748D01*
X105956252Y-87364142D01*
X105970395Y-87350000D01*
X104587155Y-85966761D01*
X104334999Y-86096819D01*
X104334999Y-85787155D01*
X104766761Y-85787155D01*
X106150000Y-87170395D01*
X107533239Y-85787155D01*
X107365198Y-85461357D01*
X106973393Y-85260574D01*
X106549945Y-85140086D01*
X106111127Y-85104524D01*
X105673803Y-85155254D01*
X105254779Y-85290326D01*
X104934802Y-85461357D01*
X104766761Y-85787155D01*
X104334999Y-85787155D01*
X104334999Y-84356132D01*
X104388698Y-84392012D01*
X104777244Y-84552953D01*
X105189721Y-84635000D01*
X105610279Y-84635000D01*
X106022756Y-84552953D01*
X106411302Y-84392012D01*
X106760983Y-84158363D01*
X107058363Y-83860983D01*
X107292012Y-83511302D01*
X107452953Y-83122756D01*
X107535000Y-82710279D01*
X107535000Y-82289721D01*
X107452953Y-81877244D01*
X107292012Y-81488698D01*
X107058363Y-81139017D01*
X106760983Y-80841637D01*
X106411302Y-80607988D01*
X106022756Y-80447047D01*
X105852413Y-80413164D01*
X108290000Y-77975576D01*
X108290000Y-86703969D01*
X108209674Y-86454779D01*
X108038643Y-86134802D01*
X107712845Y-85966761D01*
X106329605Y-87350000D01*
X107712845Y-88733239D01*
X108038643Y-88565198D01*
X108239426Y-88173393D01*
X108290000Y-87995653D01*
X108290000Y-99290000D01*
X92768376Y-99290000D01*
X92806920Y-99271641D01*
X93040269Y-99097588D01*
X93235178Y-98881355D01*
X93384157Y-98631252D01*
X93481481Y-98356891D01*
X93360814Y-98127000D01*
X92167000Y-98127000D01*
X92167000Y-98147000D01*
X91913000Y-98147000D01*
X91913000Y-98127000D01*
X91893000Y-98127000D01*
X91893000Y-97873000D01*
X91913000Y-97873000D01*
X91913000Y-96679845D01*
X92167000Y-96679845D01*
X92167000Y-97873000D01*
X93360814Y-97873000D01*
X93481481Y-97643109D01*
X93384157Y-97368748D01*
X93235178Y-97118645D01*
X93040269Y-96902412D01*
X92806920Y-96728359D01*
X92544099Y-96603175D01*
X92396890Y-96558524D01*
X92167000Y-96679845D01*
X91913000Y-96679845D01*
X91683110Y-96558524D01*
X91535901Y-96603175D01*
X91273080Y-96728359D01*
X91039731Y-96902412D01*
X90963966Y-96986466D01*
X90939502Y-96905820D01*
X90880537Y-96795506D01*
X90801185Y-96698815D01*
X90704494Y-96619463D01*
X90594180Y-96560498D01*
X90474482Y-96524188D01*
X90350000Y-96511928D01*
X89633203Y-96511928D01*
X93263141Y-92881991D01*
X93306449Y-92846449D01*
X93375692Y-92762076D01*
X93490915Y-93040250D01*
X93708149Y-93365364D01*
X93984636Y-93641851D01*
X94309750Y-93859085D01*
X94670997Y-94008718D01*
X95054495Y-94085000D01*
X95445505Y-94085000D01*
X95829003Y-94008718D01*
X96190250Y-93859085D01*
X96515364Y-93641851D01*
X96791851Y-93365364D01*
X97009085Y-93040250D01*
X97158718Y-92679003D01*
X97235000Y-92295505D01*
X97235000Y-91904495D01*
X97158718Y-91520997D01*
X97009085Y-91159750D01*
X96791851Y-90834636D01*
X96521295Y-90564080D01*
X97615525Y-90564080D01*
X97699208Y-90818261D01*
X97971775Y-90949158D01*
X98264642Y-91024365D01*
X98566553Y-91040991D01*
X98865907Y-90998397D01*
X99151199Y-90898222D01*
X99300792Y-90818261D01*
X99384475Y-90564080D01*
X98500000Y-89679605D01*
X97615525Y-90564080D01*
X96521295Y-90564080D01*
X96515364Y-90558149D01*
X96190250Y-90340915D01*
X95829003Y-90191282D01*
X95445505Y-90115000D01*
X95054495Y-90115000D01*
X94670997Y-90191282D01*
X94309750Y-90340915D01*
X93984636Y-90558149D01*
X93708149Y-90834636D01*
X93635000Y-90944111D01*
X93635000Y-89566553D01*
X96959009Y-89566553D01*
X97001603Y-89865907D01*
X97101778Y-90151199D01*
X97181739Y-90300792D01*
X97435920Y-90384475D01*
X98320395Y-89500000D01*
X97435920Y-88615525D01*
X97181739Y-88699208D01*
X97050842Y-88971775D01*
X96975635Y-89264642D01*
X96959009Y-89566553D01*
X93635000Y-89566553D01*
X93635000Y-88435920D01*
X97615525Y-88435920D01*
X98500000Y-89320395D01*
X99384475Y-88435920D01*
X99300792Y-88181739D01*
X99028225Y-88050842D01*
X98735358Y-87975635D01*
X98433447Y-87959009D01*
X98134093Y-88001603D01*
X97848801Y-88101778D01*
X97699208Y-88181739D01*
X97615525Y-88435920D01*
X93635000Y-88435920D01*
X93635000Y-82289721D01*
X94465000Y-82289721D01*
X94465000Y-82710279D01*
X94547047Y-83122756D01*
X94707988Y-83511302D01*
X94941637Y-83860983D01*
X95239017Y-84158363D01*
X95588698Y-84392012D01*
X95977244Y-84552953D01*
X96389721Y-84635000D01*
X96810279Y-84635000D01*
X97222756Y-84552953D01*
X97611302Y-84392012D01*
X97960983Y-84158363D01*
X98258363Y-83860983D01*
X98492012Y-83511302D01*
X98652953Y-83122756D01*
X98735000Y-82710279D01*
X98735000Y-82289721D01*
X98652953Y-81877244D01*
X98492012Y-81488698D01*
X98258363Y-81139017D01*
X97960983Y-80841637D01*
X97611302Y-80607988D01*
X97222756Y-80447047D01*
X96810279Y-80365000D01*
X96389721Y-80365000D01*
X95977244Y-80447047D01*
X95588698Y-80607988D01*
X95239017Y-80841637D01*
X94941637Y-81139017D01*
X94707988Y-81488698D01*
X94547047Y-81877244D01*
X94465000Y-82289721D01*
X93635000Y-82289721D01*
X93635000Y-81470131D01*
X99320132Y-75785000D01*
X104220372Y-75785000D01*
X104413962Y-76074729D01*
X104413962Y-76074729D01*
G37*
X104413962Y-76074729D02*
X104725271Y-76386038D01*
X105091331Y-76630631D01*
X105498075Y-76799110D01*
X105929872Y-76885000D01*
X106370128Y-76885000D01*
X106801925Y-76799110D01*
X107077425Y-76684994D01*
X102854955Y-80907465D01*
X102821182Y-80935182D01*
X102710588Y-81069941D01*
X102628410Y-81223687D01*
X102577804Y-81390510D01*
X102564999Y-81520523D01*
X102564999Y-81520530D01*
X102560718Y-81563999D01*
X102564999Y-81607468D01*
X102565000Y-88133728D01*
X102560718Y-88177207D01*
X102570353Y-88275042D01*
X102521495Y-88307688D01*
X102307688Y-88521495D01*
X102250000Y-88607831D01*
X102192312Y-88521495D01*
X101978505Y-88307688D01*
X101727095Y-88139701D01*
X101447743Y-88023989D01*
X101151184Y-87965000D01*
X100848816Y-87965000D01*
X100552257Y-88023989D01*
X100272905Y-88139701D01*
X100021495Y-88307688D01*
X99807688Y-88521495D01*
X99712262Y-88664310D01*
X99564080Y-88615525D01*
X98679605Y-89500000D01*
X99564080Y-90384475D01*
X99712262Y-90335690D01*
X99807688Y-90478505D01*
X100021495Y-90692312D01*
X100272905Y-90860299D01*
X100552257Y-90976011D01*
X100848816Y-91035000D01*
X101151184Y-91035000D01*
X101447743Y-90976011D01*
X101727095Y-90860299D01*
X101978505Y-90692312D01*
X102192312Y-90478505D01*
X102250000Y-90392169D01*
X102307688Y-90478505D01*
X102521495Y-90692312D01*
X102772905Y-90860299D01*
X103052257Y-90976011D01*
X103348816Y-91035000D01*
X103651184Y-91035000D01*
X103947743Y-90976011D01*
X104227095Y-90860299D01*
X104478505Y-90692312D01*
X104692312Y-90478505D01*
X104860299Y-90227095D01*
X104976011Y-89947743D01*
X105035000Y-89651184D01*
X105035000Y-89348816D01*
X105021971Y-89283313D01*
X105326607Y-89439426D01*
X105750055Y-89559914D01*
X106188873Y-89595476D01*
X106626197Y-89544746D01*
X107045221Y-89409674D01*
X107365198Y-89238643D01*
X107533239Y-88912845D01*
X106150000Y-87529605D01*
X106135858Y-87543748D01*
X105956252Y-87364142D01*
X105970395Y-87350000D01*
X104587155Y-85966761D01*
X104334999Y-86096819D01*
X104334999Y-85787155D01*
X104766761Y-85787155D01*
X106150000Y-87170395D01*
X107533239Y-85787155D01*
X107365198Y-85461357D01*
X106973393Y-85260574D01*
X106549945Y-85140086D01*
X106111127Y-85104524D01*
X105673803Y-85155254D01*
X105254779Y-85290326D01*
X104934802Y-85461357D01*
X104766761Y-85787155D01*
X104334999Y-85787155D01*
X104334999Y-84356132D01*
X104388698Y-84392012D01*
X104777244Y-84552953D01*
X105189721Y-84635000D01*
X105610279Y-84635000D01*
X106022756Y-84552953D01*
X106411302Y-84392012D01*
X106760983Y-84158363D01*
X107058363Y-83860983D01*
X107292012Y-83511302D01*
X107452953Y-83122756D01*
X107535000Y-82710279D01*
X107535000Y-82289721D01*
X107452953Y-81877244D01*
X107292012Y-81488698D01*
X107058363Y-81139017D01*
X106760983Y-80841637D01*
X106411302Y-80607988D01*
X106022756Y-80447047D01*
X105852413Y-80413164D01*
X108290000Y-77975576D01*
X108290000Y-86703969D01*
X108209674Y-86454779D01*
X108038643Y-86134802D01*
X107712845Y-85966761D01*
X106329605Y-87350000D01*
X107712845Y-88733239D01*
X108038643Y-88565198D01*
X108239426Y-88173393D01*
X108290000Y-87995653D01*
X108290000Y-99290000D01*
X92768376Y-99290000D01*
X92806920Y-99271641D01*
X93040269Y-99097588D01*
X93235178Y-98881355D01*
X93384157Y-98631252D01*
X93481481Y-98356891D01*
X93360814Y-98127000D01*
X92167000Y-98127000D01*
X92167000Y-98147000D01*
X91913000Y-98147000D01*
X91913000Y-98127000D01*
X91893000Y-98127000D01*
X91893000Y-97873000D01*
X91913000Y-97873000D01*
X91913000Y-96679845D01*
X92167000Y-96679845D01*
X92167000Y-97873000D01*
X93360814Y-97873000D01*
X93481481Y-97643109D01*
X93384157Y-97368748D01*
X93235178Y-97118645D01*
X93040269Y-96902412D01*
X92806920Y-96728359D01*
X92544099Y-96603175D01*
X92396890Y-96558524D01*
X92167000Y-96679845D01*
X91913000Y-96679845D01*
X91683110Y-96558524D01*
X91535901Y-96603175D01*
X91273080Y-96728359D01*
X91039731Y-96902412D01*
X90963966Y-96986466D01*
X90939502Y-96905820D01*
X90880537Y-96795506D01*
X90801185Y-96698815D01*
X90704494Y-96619463D01*
X90594180Y-96560498D01*
X90474482Y-96524188D01*
X90350000Y-96511928D01*
X89633203Y-96511928D01*
X93263141Y-92881991D01*
X93306449Y-92846449D01*
X93375692Y-92762076D01*
X93490915Y-93040250D01*
X93708149Y-93365364D01*
X93984636Y-93641851D01*
X94309750Y-93859085D01*
X94670997Y-94008718D01*
X95054495Y-94085000D01*
X95445505Y-94085000D01*
X95829003Y-94008718D01*
X96190250Y-93859085D01*
X96515364Y-93641851D01*
X96791851Y-93365364D01*
X97009085Y-93040250D01*
X97158718Y-92679003D01*
X97235000Y-92295505D01*
X97235000Y-91904495D01*
X97158718Y-91520997D01*
X97009085Y-91159750D01*
X96791851Y-90834636D01*
X96521295Y-90564080D01*
X97615525Y-90564080D01*
X97699208Y-90818261D01*
X97971775Y-90949158D01*
X98264642Y-91024365D01*
X98566553Y-91040991D01*
X98865907Y-90998397D01*
X99151199Y-90898222D01*
X99300792Y-90818261D01*
X99384475Y-90564080D01*
X98500000Y-89679605D01*
X97615525Y-90564080D01*
X96521295Y-90564080D01*
X96515364Y-90558149D01*
X96190250Y-90340915D01*
X95829003Y-90191282D01*
X95445505Y-90115000D01*
X95054495Y-90115000D01*
X94670997Y-90191282D01*
X94309750Y-90340915D01*
X93984636Y-90558149D01*
X93708149Y-90834636D01*
X93635000Y-90944111D01*
X93635000Y-89566553D01*
X96959009Y-89566553D01*
X97001603Y-89865907D01*
X97101778Y-90151199D01*
X97181739Y-90300792D01*
X97435920Y-90384475D01*
X98320395Y-89500000D01*
X97435920Y-88615525D01*
X97181739Y-88699208D01*
X97050842Y-88971775D01*
X96975635Y-89264642D01*
X96959009Y-89566553D01*
X93635000Y-89566553D01*
X93635000Y-88435920D01*
X97615525Y-88435920D01*
X98500000Y-89320395D01*
X99384475Y-88435920D01*
X99300792Y-88181739D01*
X99028225Y-88050842D01*
X98735358Y-87975635D01*
X98433447Y-87959009D01*
X98134093Y-88001603D01*
X97848801Y-88101778D01*
X97699208Y-88181739D01*
X97615525Y-88435920D01*
X93635000Y-88435920D01*
X93635000Y-82289721D01*
X94465000Y-82289721D01*
X94465000Y-82710279D01*
X94547047Y-83122756D01*
X94707988Y-83511302D01*
X94941637Y-83860983D01*
X95239017Y-84158363D01*
X95588698Y-84392012D01*
X95977244Y-84552953D01*
X96389721Y-84635000D01*
X96810279Y-84635000D01*
X97222756Y-84552953D01*
X97611302Y-84392012D01*
X97960983Y-84158363D01*
X98258363Y-83860983D01*
X98492012Y-83511302D01*
X98652953Y-83122756D01*
X98735000Y-82710279D01*
X98735000Y-82289721D01*
X98652953Y-81877244D01*
X98492012Y-81488698D01*
X98258363Y-81139017D01*
X97960983Y-80841637D01*
X97611302Y-80607988D01*
X97222756Y-80447047D01*
X96810279Y-80365000D01*
X96389721Y-80365000D01*
X95977244Y-80447047D01*
X95588698Y-80607988D01*
X95239017Y-80841637D01*
X94941637Y-81139017D01*
X94707988Y-81488698D01*
X94547047Y-81877244D01*
X94465000Y-82289721D01*
X93635000Y-82289721D01*
X93635000Y-81470131D01*
X99320132Y-75785000D01*
X104220372Y-75785000D01*
X104413962Y-76074729D01*
G36*
X72550421Y-48911422D02*
G01*
X72389314Y-49212832D01*
X72290105Y-49539881D01*
X72256606Y-49880000D01*
X72290105Y-50220119D01*
X72389314Y-50547168D01*
X72550421Y-50848578D01*
X72767234Y-51112766D01*
X73031422Y-51329579D01*
X73332832Y-51490686D01*
X73659881Y-51589895D01*
X73914775Y-51615000D01*
X74085225Y-51615000D01*
X74340119Y-51589895D01*
X74667168Y-51490686D01*
X74968578Y-51329579D01*
X75232766Y-51112766D01*
X75449579Y-50848578D01*
X75610686Y-50547168D01*
X75709895Y-50220119D01*
X75743394Y-49880000D01*
X75709895Y-49539881D01*
X75610686Y-49212832D01*
X75449579Y-48911422D01*
X75427895Y-48885000D01*
X78257461Y-48885000D01*
X78019369Y-49241331D01*
X77850890Y-49648075D01*
X77765000Y-50079872D01*
X77765000Y-50520128D01*
X77850890Y-50951925D01*
X78019369Y-51358669D01*
X78263962Y-51724729D01*
X78575271Y-52036038D01*
X78941331Y-52280631D01*
X79348075Y-52449110D01*
X79779872Y-52535000D01*
X80220128Y-52535000D01*
X80651925Y-52449110D01*
X81058669Y-52280631D01*
X81424729Y-52036038D01*
X81736038Y-51724729D01*
X81980631Y-51358669D01*
X82149110Y-50951925D01*
X82235000Y-50520128D01*
X82235000Y-50079872D01*
X82149110Y-49648075D01*
X81980631Y-49241331D01*
X81742539Y-48885000D01*
X100419424Y-48885000D01*
X104129472Y-52595049D01*
X104157185Y-52628817D01*
X104190953Y-52656530D01*
X104190955Y-52656532D01*
X104215063Y-52676317D01*
X104291943Y-52739411D01*
X104445689Y-52821589D01*
X104612512Y-52872195D01*
X104742525Y-52885000D01*
X104742535Y-52885000D01*
X104786001Y-52889281D01*
X104829467Y-52885000D01*
X106133422Y-52885000D01*
X107315001Y-54066580D01*
X107315001Y-54544198D01*
X107292012Y-54488698D01*
X107058363Y-54139017D01*
X106760983Y-53841637D01*
X106411302Y-53607988D01*
X106022756Y-53447047D01*
X105610279Y-53365000D01*
X105189721Y-53365000D01*
X104777244Y-53447047D01*
X104388698Y-53607988D01*
X104039017Y-53841637D01*
X103741637Y-54139017D01*
X103507988Y-54488698D01*
X103347047Y-54877244D01*
X103265000Y-55289721D01*
X103265000Y-55710279D01*
X103347047Y-56122756D01*
X103507988Y-56511302D01*
X103741637Y-56860983D01*
X104039017Y-57158363D01*
X104388698Y-57392012D01*
X104777244Y-57552953D01*
X105189721Y-57635000D01*
X105610279Y-57635000D01*
X106022756Y-57552953D01*
X106411302Y-57392012D01*
X106760983Y-57158363D01*
X107058363Y-56860983D01*
X107292012Y-56511302D01*
X107315001Y-56455801D01*
X107315002Y-72740418D01*
X107208669Y-72669369D01*
X106801925Y-72500890D01*
X106370128Y-72415000D01*
X105929872Y-72415000D01*
X105498075Y-72500890D01*
X105091331Y-72669369D01*
X104725271Y-72913962D01*
X104413962Y-73225271D01*
X104220372Y-73515000D01*
X98905751Y-73515000D01*
X98849999Y-73509509D01*
X98627500Y-73531423D01*
X98577705Y-73546529D01*
X98413553Y-73596324D01*
X98216377Y-73701716D01*
X98043551Y-73843551D01*
X98008009Y-73886859D01*
X91736860Y-80158009D01*
X91693552Y-80193551D01*
X91551717Y-80366377D01*
X91541777Y-80384974D01*
X91446324Y-80563554D01*
X91381423Y-80777502D01*
X91359509Y-81000000D01*
X91365001Y-81055761D01*
X91365000Y-91569868D01*
X89997864Y-92937004D01*
X90065009Y-92836515D01*
X90198134Y-92515123D01*
X90266000Y-92173936D01*
X90266000Y-91826064D01*
X90198134Y-91484877D01*
X90065009Y-91163485D01*
X89871742Y-90874241D01*
X89625759Y-90628258D01*
X89336515Y-90434991D01*
X89015123Y-90301866D01*
X88673936Y-90234000D01*
X88326064Y-90234000D01*
X87984877Y-90301866D01*
X87663485Y-90434991D01*
X87374241Y-90628258D01*
X87128258Y-90874241D01*
X86934991Y-91163485D01*
X86801866Y-91484877D01*
X86734000Y-91826064D01*
X86734000Y-92173936D01*
X86801866Y-92515123D01*
X86934991Y-92836515D01*
X87128258Y-93125759D01*
X87374241Y-93371742D01*
X87663485Y-93565009D01*
X87984877Y-93698134D01*
X88326064Y-93766000D01*
X88673936Y-93766000D01*
X89015123Y-93698134D01*
X89336515Y-93565009D01*
X89437004Y-93497864D01*
X86414714Y-96520155D01*
X86248889Y-96536487D01*
X85968966Y-96621401D01*
X85710986Y-96759294D01*
X85484866Y-96944866D01*
X85299294Y-97170986D01*
X85270000Y-97225791D01*
X85240706Y-97170986D01*
X85135000Y-97042183D01*
X85135000Y-74970131D01*
X86263140Y-73841992D01*
X86306449Y-73806449D01*
X86448284Y-73633623D01*
X86553676Y-73436447D01*
X86618577Y-73222499D01*
X86635000Y-73055752D01*
X86635000Y-73055743D01*
X86640490Y-73000001D01*
X86635000Y-72944259D01*
X86635000Y-65255752D01*
X86637653Y-65228807D01*
X87450798Y-65228807D01*
X87562369Y-65506605D01*
X87874309Y-65660579D01*
X88210294Y-65750737D01*
X88557413Y-65773616D01*
X88902325Y-65728336D01*
X89231776Y-65616637D01*
X89437631Y-65506605D01*
X89549202Y-65228807D01*
X88500000Y-64179605D01*
X87450798Y-65228807D01*
X86637653Y-65228807D01*
X86640491Y-65200000D01*
X86618577Y-64977501D01*
X86553676Y-64763553D01*
X86448284Y-64566377D01*
X86341989Y-64436856D01*
X86341987Y-64436854D01*
X86306449Y-64393551D01*
X86263146Y-64358013D01*
X85962546Y-64057413D01*
X86726384Y-64057413D01*
X86771664Y-64402325D01*
X86883363Y-64731776D01*
X86993395Y-64937631D01*
X87271193Y-65049202D01*
X88320395Y-64000000D01*
X88679605Y-64000000D01*
X89728807Y-65049202D01*
X90006605Y-64937631D01*
X90160579Y-64625691D01*
X90250737Y-64289706D01*
X90273616Y-63942587D01*
X90228336Y-63597675D01*
X90116637Y-63268224D01*
X90006605Y-63062369D01*
X89728807Y-62950798D01*
X88679605Y-64000000D01*
X88320395Y-64000000D01*
X87271193Y-62950798D01*
X86993395Y-63062369D01*
X86839421Y-63374309D01*
X86749263Y-63710294D01*
X86726384Y-64057413D01*
X85962546Y-64057413D01*
X84676326Y-62771193D01*
X87450798Y-62771193D01*
X88500000Y-63820395D01*
X89549202Y-62771193D01*
X89437631Y-62493395D01*
X89144725Y-62348816D01*
X96965000Y-62348816D01*
X96965000Y-62651184D01*
X97023989Y-62947743D01*
X97139701Y-63227095D01*
X97307688Y-63478505D01*
X97521495Y-63692312D01*
X97772905Y-63860299D01*
X98052257Y-63976011D01*
X98348816Y-64035000D01*
X98651184Y-64035000D01*
X98947743Y-63976011D01*
X99227095Y-63860299D01*
X99478505Y-63692312D01*
X99692312Y-63478505D01*
X99750000Y-63392169D01*
X99807688Y-63478505D01*
X100021495Y-63692312D01*
X100272905Y-63860299D01*
X100552257Y-63976011D01*
X100848816Y-64035000D01*
X101151184Y-64035000D01*
X101447743Y-63976011D01*
X101727095Y-63860299D01*
X101978505Y-63692312D01*
X102192312Y-63478505D01*
X102250000Y-63392169D01*
X102307688Y-63478505D01*
X102521495Y-63692312D01*
X102772905Y-63860299D01*
X103052257Y-63976011D01*
X103348816Y-64035000D01*
X103651184Y-64035000D01*
X103947743Y-63976011D01*
X104227095Y-63860299D01*
X104478505Y-63692312D01*
X104692312Y-63478505D01*
X104860299Y-63227095D01*
X104976011Y-62947743D01*
X105035000Y-62651184D01*
X105035000Y-62348816D01*
X104976011Y-62052257D01*
X104860299Y-61772905D01*
X104692312Y-61521495D01*
X104478505Y-61307688D01*
X104227095Y-61139701D01*
X103947743Y-61023989D01*
X103651184Y-60965000D01*
X103348816Y-60965000D01*
X103052257Y-61023989D01*
X102772905Y-61139701D01*
X102521495Y-61307688D01*
X102307688Y-61521495D01*
X102250000Y-61607831D01*
X102192312Y-61521495D01*
X101978505Y-61307688D01*
X101727095Y-61139701D01*
X101447743Y-61023989D01*
X101151184Y-60965000D01*
X100848816Y-60965000D01*
X100552257Y-61023989D01*
X100272905Y-61139701D01*
X100021495Y-61307688D01*
X99807688Y-61521495D01*
X99750000Y-61607831D01*
X99692312Y-61521495D01*
X99478505Y-61307688D01*
X99227095Y-61139701D01*
X98947743Y-61023989D01*
X98651184Y-60965000D01*
X98348816Y-60965000D01*
X98052257Y-61023989D01*
X97772905Y-61139701D01*
X97521495Y-61307688D01*
X97307688Y-61521495D01*
X97139701Y-61772905D01*
X97023989Y-62052257D01*
X96965000Y-62348816D01*
X89144725Y-62348816D01*
X89125691Y-62339421D01*
X88789706Y-62249263D01*
X88442587Y-62226384D01*
X88097675Y-62271664D01*
X87768224Y-62383363D01*
X87562369Y-62493395D01*
X87450798Y-62771193D01*
X84676326Y-62771193D01*
X82404976Y-60499843D01*
X97679762Y-60499843D01*
X97752556Y-60744832D01*
X98009773Y-60866733D01*
X98285829Y-60936110D01*
X98570115Y-60950298D01*
X98851706Y-60908752D01*
X99119783Y-60813068D01*
X99247444Y-60744832D01*
X99320238Y-60499843D01*
X98500000Y-59679605D01*
X97679762Y-60499843D01*
X82404976Y-60499843D01*
X82167020Y-60261888D01*
X82235000Y-59920128D01*
X82235000Y-59570115D01*
X97049702Y-59570115D01*
X97091248Y-59851706D01*
X97186932Y-60119783D01*
X97255168Y-60247444D01*
X97500157Y-60320238D01*
X98320395Y-59500000D01*
X98679605Y-59500000D01*
X99499843Y-60320238D01*
X99744832Y-60247444D01*
X99866733Y-59990227D01*
X99936110Y-59714171D01*
X99950298Y-59429885D01*
X99939645Y-59357680D01*
X102055000Y-59357680D01*
X102055000Y-59642320D01*
X102110530Y-59921491D01*
X102219457Y-60184464D01*
X102377595Y-60421134D01*
X102578866Y-60622405D01*
X102815536Y-60780543D01*
X103078509Y-60889470D01*
X103357680Y-60945000D01*
X103642320Y-60945000D01*
X103921491Y-60889470D01*
X104184464Y-60780543D01*
X104421134Y-60622405D01*
X104622405Y-60421134D01*
X104780543Y-60184464D01*
X104889470Y-59921491D01*
X104945000Y-59642320D01*
X104945000Y-59357680D01*
X104889470Y-59078509D01*
X104780543Y-58815536D01*
X104622405Y-58578866D01*
X104421134Y-58377595D01*
X104184464Y-58219457D01*
X103921491Y-58110530D01*
X103642320Y-58055000D01*
X103357680Y-58055000D01*
X103078509Y-58110530D01*
X102815536Y-58219457D01*
X102578866Y-58377595D01*
X102377595Y-58578866D01*
X102219457Y-58815536D01*
X102110530Y-59078509D01*
X102055000Y-59357680D01*
X99939645Y-59357680D01*
X99908752Y-59148294D01*
X99813068Y-58880217D01*
X99744832Y-58752556D01*
X99499843Y-58679762D01*
X98679605Y-59500000D01*
X98320395Y-59500000D01*
X97500157Y-58679762D01*
X97255168Y-58752556D01*
X97133267Y-59009773D01*
X97063890Y-59285829D01*
X97049702Y-59570115D01*
X82235000Y-59570115D01*
X82235000Y-59479872D01*
X82149110Y-59048075D01*
X81980631Y-58641331D01*
X81886302Y-58500157D01*
X97679762Y-58500157D01*
X98500000Y-59320395D01*
X99320238Y-58500157D01*
X99247444Y-58255168D01*
X98990227Y-58133267D01*
X98714171Y-58063890D01*
X98429885Y-58049702D01*
X98148294Y-58091248D01*
X97880217Y-58186932D01*
X97752556Y-58255168D01*
X97679762Y-58500157D01*
X81886302Y-58500157D01*
X81736038Y-58275271D01*
X81424729Y-57963962D01*
X81058669Y-57719369D01*
X80651925Y-57550890D01*
X80220128Y-57465000D01*
X79779872Y-57465000D01*
X79348075Y-57550890D01*
X78941331Y-57719369D01*
X78575271Y-57963962D01*
X78263962Y-58275271D01*
X78019369Y-58641331D01*
X77850890Y-59048075D01*
X77765000Y-59479872D01*
X77765000Y-59920128D01*
X77850890Y-60351925D01*
X78019369Y-60758669D01*
X78263962Y-61124729D01*
X78575271Y-61436038D01*
X78941331Y-61680631D01*
X79348075Y-61849110D01*
X79779872Y-61935000D01*
X80220128Y-61935000D01*
X80561888Y-61867020D01*
X84365001Y-65670134D01*
X84365000Y-72529868D01*
X83236860Y-73658009D01*
X83193552Y-73693551D01*
X83051717Y-73866377D01*
X83029517Y-73907911D01*
X82946324Y-74063554D01*
X82881423Y-74277502D01*
X82859509Y-74500000D01*
X82865001Y-74555762D01*
X82865000Y-96841272D01*
X82840537Y-96795506D01*
X82761185Y-96698815D01*
X82664494Y-96619463D01*
X82554180Y-96560498D01*
X82434482Y-96524188D01*
X82310000Y-96511928D01*
X81745750Y-96515000D01*
X81587000Y-96673750D01*
X81587000Y-97873000D01*
X81607000Y-97873000D01*
X81607000Y-98127000D01*
X81587000Y-98127000D01*
X81587000Y-98147000D01*
X81333000Y-98147000D01*
X81333000Y-98127000D01*
X81313000Y-98127000D01*
X81313000Y-97873000D01*
X81333000Y-97873000D01*
X81333000Y-96673750D01*
X81174250Y-96515000D01*
X80610000Y-96511928D01*
X80485518Y-96524188D01*
X80365820Y-96560498D01*
X80255506Y-96619463D01*
X80158815Y-96698815D01*
X80079463Y-96795506D01*
X80020498Y-96905820D01*
X79984188Y-97025518D01*
X79971928Y-97150000D01*
X79974449Y-97613079D01*
X79918599Y-97428966D01*
X79780706Y-97170986D01*
X79595134Y-96944866D01*
X79369014Y-96759294D01*
X79111034Y-96621401D01*
X78831111Y-96536487D01*
X78612950Y-96515000D01*
X78467050Y-96515000D01*
X78248889Y-96536487D01*
X77968966Y-96621401D01*
X77710986Y-96759294D01*
X77484866Y-96944866D01*
X77460393Y-96974687D01*
X77439502Y-96905820D01*
X77380537Y-96795506D01*
X77301185Y-96698815D01*
X77204494Y-96619463D01*
X77094180Y-96560498D01*
X76974482Y-96524188D01*
X76850000Y-96511928D01*
X76285750Y-96515000D01*
X76127000Y-96673750D01*
X76127000Y-97873000D01*
X76147000Y-97873000D01*
X76147000Y-98127000D01*
X76127000Y-98127000D01*
X76127000Y-98147000D01*
X75873000Y-98147000D01*
X75873000Y-98127000D01*
X74673750Y-98127000D01*
X74515000Y-98285750D01*
X74514683Y-98343940D01*
X74400814Y-98127000D01*
X73207000Y-98127000D01*
X73207000Y-98147000D01*
X72953000Y-98147000D01*
X72953000Y-98127000D01*
X72933000Y-98127000D01*
X72933000Y-97873000D01*
X72953000Y-97873000D01*
X72953000Y-96679845D01*
X73207000Y-96679845D01*
X73207000Y-97873000D01*
X74400814Y-97873000D01*
X74514683Y-97656060D01*
X74515000Y-97714250D01*
X74673750Y-97873000D01*
X75873000Y-97873000D01*
X75873000Y-96673750D01*
X75714250Y-96515000D01*
X75150000Y-96511928D01*
X75025518Y-96524188D01*
X74905820Y-96560498D01*
X74795506Y-96619463D01*
X74698815Y-96698815D01*
X74619463Y-96795506D01*
X74560498Y-96905820D01*
X74524188Y-97025518D01*
X74511928Y-97150000D01*
X74514506Y-97623445D01*
X74424157Y-97368748D01*
X74275178Y-97118645D01*
X74080269Y-96902412D01*
X73846920Y-96728359D01*
X73584099Y-96603175D01*
X73436890Y-96558524D01*
X73207000Y-96679845D01*
X72953000Y-96679845D01*
X72723110Y-96558524D01*
X72575901Y-96603175D01*
X72313080Y-96728359D01*
X72079731Y-96902412D01*
X71884822Y-97118645D01*
X71815201Y-97235523D01*
X71780706Y-97170986D01*
X71595134Y-96944866D01*
X71369014Y-96759294D01*
X71111034Y-96621401D01*
X70831111Y-96536487D01*
X70612950Y-96515000D01*
X70467050Y-96515000D01*
X70248889Y-96536487D01*
X69968966Y-96621401D01*
X69710986Y-96759294D01*
X69484866Y-96944866D01*
X69460393Y-96974687D01*
X69439502Y-96905820D01*
X69380537Y-96795506D01*
X69301185Y-96698815D01*
X69204494Y-96619463D01*
X69094180Y-96560498D01*
X68974482Y-96524188D01*
X68850000Y-96511928D01*
X67150000Y-96511928D01*
X67025518Y-96524188D01*
X66905820Y-96560498D01*
X66795506Y-96619463D01*
X66698815Y-96698815D01*
X66619463Y-96795506D01*
X66560498Y-96905820D01*
X66524188Y-97025518D01*
X66511928Y-97150000D01*
X66511928Y-98850000D01*
X66524188Y-98974482D01*
X66560498Y-99094180D01*
X66619463Y-99204494D01*
X66689636Y-99290000D01*
X51710000Y-99290000D01*
X51710000Y-91904495D01*
X65265000Y-91904495D01*
X65265000Y-92295505D01*
X65341282Y-92679003D01*
X65490915Y-93040250D01*
X65708149Y-93365364D01*
X65984636Y-93641851D01*
X66309750Y-93859085D01*
X66670997Y-94008718D01*
X67054495Y-94085000D01*
X67445505Y-94085000D01*
X67829003Y-94008718D01*
X68190250Y-93859085D01*
X68515364Y-93641851D01*
X68791851Y-93365364D01*
X69009085Y-93040250D01*
X69158718Y-92679003D01*
X69235000Y-92295505D01*
X69235000Y-91904495D01*
X69158718Y-91520997D01*
X69009085Y-91159750D01*
X68791851Y-90834636D01*
X68515364Y-90558149D01*
X68190250Y-90340915D01*
X67829003Y-90191282D01*
X67445505Y-90115000D01*
X67054495Y-90115000D01*
X66670997Y-90191282D01*
X66309750Y-90340915D01*
X65984636Y-90558149D01*
X65708149Y-90834636D01*
X65490915Y-91159750D01*
X65341282Y-91520997D01*
X65265000Y-91904495D01*
X51710000Y-91904495D01*
X51710000Y-85961578D01*
X54986939Y-89238518D01*
X54965000Y-89348816D01*
X54965000Y-89651184D01*
X55023989Y-89947743D01*
X55139701Y-90227095D01*
X55307688Y-90478505D01*
X55521495Y-90692312D01*
X55772905Y-90860299D01*
X56052257Y-90976011D01*
X56348816Y-91035000D01*
X56651184Y-91035000D01*
X56947743Y-90976011D01*
X57227095Y-90860299D01*
X57478505Y-90692312D01*
X57692312Y-90478505D01*
X57750000Y-90392169D01*
X57807688Y-90478505D01*
X58021495Y-90692312D01*
X58272905Y-90860299D01*
X58552257Y-90976011D01*
X58848816Y-91035000D01*
X59151184Y-91035000D01*
X59447743Y-90976011D01*
X59727095Y-90860299D01*
X59978505Y-90692312D01*
X60192312Y-90478505D01*
X60250000Y-90392169D01*
X60307688Y-90478505D01*
X60521495Y-90692312D01*
X60772905Y-90860299D01*
X61052257Y-90976011D01*
X61348816Y-91035000D01*
X61651184Y-91035000D01*
X61947743Y-90976011D01*
X62227095Y-90860299D01*
X62478505Y-90692312D01*
X62692312Y-90478505D01*
X62860299Y-90227095D01*
X62976011Y-89947743D01*
X63035000Y-89651184D01*
X63035000Y-89348816D01*
X62976011Y-89052257D01*
X62860299Y-88772905D01*
X62692312Y-88521495D01*
X62478505Y-88307688D01*
X62227095Y-88139701D01*
X61947743Y-88023989D01*
X61651184Y-87965000D01*
X61348816Y-87965000D01*
X61052257Y-88023989D01*
X60772905Y-88139701D01*
X60521495Y-88307688D01*
X60307688Y-88521495D01*
X60250000Y-88607831D01*
X60192312Y-88521495D01*
X59978505Y-88307688D01*
X59727095Y-88139701D01*
X59447743Y-88023989D01*
X59151184Y-87965000D01*
X58848816Y-87965000D01*
X58552257Y-88023989D01*
X58272905Y-88139701D01*
X58021495Y-88307688D01*
X57807688Y-88521495D01*
X57750000Y-88607831D01*
X57692312Y-88521495D01*
X57478505Y-88307688D01*
X57227095Y-88139701D01*
X56947743Y-88023989D01*
X56651184Y-87965000D01*
X56348816Y-87965000D01*
X56238518Y-87986939D01*
X52885000Y-84633422D01*
X52885000Y-83776220D01*
X52941637Y-83860983D01*
X53239017Y-84158363D01*
X53588698Y-84392012D01*
X53977244Y-84552953D01*
X54389721Y-84635000D01*
X54810279Y-84635000D01*
X55222756Y-84552953D01*
X55611302Y-84392012D01*
X55960983Y-84158363D01*
X56258363Y-83860983D01*
X56492012Y-83511302D01*
X56652953Y-83122756D01*
X56735000Y-82710279D01*
X56735000Y-82289721D01*
X61265000Y-82289721D01*
X61265000Y-82710279D01*
X61347047Y-83122756D01*
X61507988Y-83511302D01*
X61741637Y-83860983D01*
X62039017Y-84158363D01*
X62388698Y-84392012D01*
X62777244Y-84552953D01*
X63189721Y-84635000D01*
X63610279Y-84635000D01*
X64022756Y-84552953D01*
X64411302Y-84392012D01*
X64760983Y-84158363D01*
X65058363Y-83860983D01*
X65240000Y-83589143D01*
X65240000Y-85712677D01*
X65236324Y-85750000D01*
X65240000Y-85787322D01*
X65240000Y-85787332D01*
X65250997Y-85898985D01*
X65277491Y-85986324D01*
X65294454Y-86042246D01*
X65365026Y-86174276D01*
X65404871Y-86222826D01*
X65459999Y-86290001D01*
X65489002Y-86313804D01*
X66201847Y-87026649D01*
X66225932Y-87147729D01*
X66296414Y-87317889D01*
X66398738Y-87471028D01*
X66528972Y-87601262D01*
X66682111Y-87703586D01*
X66852271Y-87774068D01*
X67032911Y-87810000D01*
X67217089Y-87810000D01*
X67397729Y-87774068D01*
X67567889Y-87703586D01*
X67721028Y-87601262D01*
X67851262Y-87471028D01*
X67953586Y-87317889D01*
X68024068Y-87147729D01*
X68060000Y-86967089D01*
X68060000Y-86782911D01*
X68024068Y-86602271D01*
X67953586Y-86432111D01*
X67851262Y-86278972D01*
X67721028Y-86148738D01*
X67567889Y-86046414D01*
X67397729Y-85975932D01*
X67276649Y-85951847D01*
X66760000Y-85435199D01*
X66760000Y-79314801D01*
X67151649Y-78923153D01*
X67272729Y-78899068D01*
X67442889Y-78828586D01*
X67596028Y-78726262D01*
X67726262Y-78596028D01*
X67828586Y-78442889D01*
X67899068Y-78272729D01*
X67935000Y-78092089D01*
X67935000Y-77907911D01*
X67899068Y-77727271D01*
X67828586Y-77557111D01*
X67726262Y-77403972D01*
X67596028Y-77273738D01*
X67442889Y-77171414D01*
X67272729Y-77100932D01*
X67092089Y-77065000D01*
X66907911Y-77065000D01*
X66727271Y-77100932D01*
X66557111Y-77171414D01*
X66403972Y-77273738D01*
X66273738Y-77403972D01*
X66171414Y-77557111D01*
X66100932Y-77727271D01*
X66076847Y-77848351D01*
X65488998Y-78436201D01*
X65460000Y-78459999D01*
X65436202Y-78488997D01*
X65436201Y-78488998D01*
X65365026Y-78575724D01*
X65294454Y-78707754D01*
X65250998Y-78851015D01*
X65236324Y-79000000D01*
X65240001Y-79037332D01*
X65240001Y-81410857D01*
X65058363Y-81139017D01*
X64760983Y-80841637D01*
X64411302Y-80607988D01*
X64022756Y-80447047D01*
X63610279Y-80365000D01*
X63189721Y-80365000D01*
X62777244Y-80447047D01*
X62388698Y-80607988D01*
X62039017Y-80841637D01*
X61741637Y-81139017D01*
X61507988Y-81488698D01*
X61347047Y-81877244D01*
X61265000Y-82289721D01*
X56735000Y-82289721D01*
X56652953Y-81877244D01*
X56492012Y-81488698D01*
X56258363Y-81139017D01*
X55960983Y-80841637D01*
X55611302Y-80607988D01*
X55222756Y-80447047D01*
X54810279Y-80365000D01*
X54389721Y-80365000D01*
X53977244Y-80447047D01*
X53588698Y-80607988D01*
X53239017Y-80841637D01*
X52941637Y-81139017D01*
X52885000Y-81223780D01*
X52885000Y-73907911D01*
X71565000Y-73907911D01*
X71565000Y-74092089D01*
X71600932Y-74272729D01*
X71671414Y-74442889D01*
X71740001Y-74545537D01*
X71740000Y-87954465D01*
X71671414Y-88057111D01*
X71600932Y-88227271D01*
X71565000Y-88407911D01*
X71565000Y-88592089D01*
X71600932Y-88772729D01*
X71671414Y-88942889D01*
X71773738Y-89096028D01*
X71903972Y-89226262D01*
X72057111Y-89328586D01*
X72227271Y-89399068D01*
X72407911Y-89435000D01*
X72592089Y-89435000D01*
X72772729Y-89399068D01*
X72942889Y-89328586D01*
X73096028Y-89226262D01*
X73226262Y-89096028D01*
X73328586Y-88942889D01*
X73399068Y-88772729D01*
X73435000Y-88592089D01*
X73435000Y-88407911D01*
X73399068Y-88227271D01*
X73328586Y-88057111D01*
X73260000Y-87954465D01*
X73260000Y-74545535D01*
X73328586Y-74442889D01*
X73399068Y-74272729D01*
X73435000Y-74092089D01*
X73435000Y-73907911D01*
X73399068Y-73727271D01*
X73328586Y-73557111D01*
X73226262Y-73403972D01*
X73096028Y-73273738D01*
X72942889Y-73171414D01*
X72772729Y-73100932D01*
X72592089Y-73065000D01*
X72407911Y-73065000D01*
X72227271Y-73100932D01*
X72057111Y-73171414D01*
X71903972Y-73273738D01*
X71773738Y-73403972D01*
X71671414Y-73557111D01*
X71600932Y-73727271D01*
X71565000Y-73907911D01*
X52885000Y-73907911D01*
X52885000Y-56776220D01*
X52941637Y-56860983D01*
X53239017Y-57158363D01*
X53588698Y-57392012D01*
X53977244Y-57552953D01*
X54389721Y-57635000D01*
X54810279Y-57635000D01*
X55222756Y-57552953D01*
X55611302Y-57392012D01*
X55960983Y-57158363D01*
X56258363Y-56860983D01*
X56492012Y-56511302D01*
X56652953Y-56122756D01*
X56735000Y-55710279D01*
X56735000Y-55289721D01*
X56652953Y-54877244D01*
X56492012Y-54488698D01*
X56258363Y-54139017D01*
X55960983Y-53841637D01*
X55611302Y-53607988D01*
X55222756Y-53447047D01*
X54810279Y-53365000D01*
X54389721Y-53365000D01*
X53977244Y-53447047D01*
X53682405Y-53569173D01*
X55366579Y-51885000D01*
X56456531Y-51885000D01*
X56500000Y-51889281D01*
X56543469Y-51885000D01*
X56543477Y-51885000D01*
X56673490Y-51872195D01*
X56837633Y-51822402D01*
X56832500Y-51874514D01*
X56832500Y-52125485D01*
X56855470Y-52358703D01*
X56946245Y-52657948D01*
X57093655Y-52933734D01*
X57292037Y-53175463D01*
X57533765Y-53373845D01*
X57535000Y-53374505D01*
X57535001Y-57133421D01*
X57441582Y-57226840D01*
X57378441Y-57260589D01*
X57359676Y-57275989D01*
X57277453Y-57343468D01*
X57277451Y-57343470D01*
X57243683Y-57371183D01*
X57215970Y-57404951D01*
X56732545Y-57888377D01*
X56731204Y-57887970D01*
X56420000Y-57857319D01*
X56108797Y-57887970D01*
X55809552Y-57978745D01*
X55533766Y-58126155D01*
X55292037Y-58324537D01*
X55093655Y-58566265D01*
X54946245Y-58842051D01*
X54855470Y-59141296D01*
X54832500Y-59374514D01*
X54832500Y-59625485D01*
X54855470Y-59858703D01*
X54855877Y-59860044D01*
X53404956Y-61310966D01*
X53371183Y-61338683D01*
X53260589Y-61473442D01*
X53178411Y-61627188D01*
X53162199Y-61680631D01*
X53134208Y-61772905D01*
X53127805Y-61794011D01*
X53115000Y-61924024D01*
X53115000Y-61924031D01*
X53110719Y-61967500D01*
X53115000Y-62010970D01*
X53115001Y-63456521D01*
X53110719Y-63500000D01*
X53127805Y-63673490D01*
X53178412Y-63840313D01*
X53260590Y-63994059D01*
X53343468Y-64095046D01*
X53343469Y-64095047D01*
X53371184Y-64128817D01*
X53404951Y-64156529D01*
X54843470Y-65595049D01*
X54871183Y-65628817D01*
X54904951Y-65656530D01*
X54904953Y-65656532D01*
X54949254Y-65692889D01*
X55005941Y-65739411D01*
X55159687Y-65821589D01*
X55326510Y-65872195D01*
X55456523Y-65885000D01*
X55456533Y-65885000D01*
X55499999Y-65889281D01*
X55543465Y-65885000D01*
X62456531Y-65885000D01*
X62500000Y-65889281D01*
X62543469Y-65885000D01*
X62543477Y-65885000D01*
X62673490Y-65872195D01*
X62840313Y-65821589D01*
X62994059Y-65739411D01*
X63128817Y-65628817D01*
X63156534Y-65595044D01*
X64595050Y-64156529D01*
X64628817Y-64128817D01*
X64656533Y-64095046D01*
X64739410Y-63994060D01*
X64739411Y-63994059D01*
X64821589Y-63840313D01*
X64872195Y-63673490D01*
X64885000Y-63543477D01*
X64885000Y-63543467D01*
X64889281Y-63500001D01*
X64885000Y-63456535D01*
X64885000Y-60066578D01*
X66476989Y-58474590D01*
X66498815Y-58501185D01*
X66595506Y-58580537D01*
X66705820Y-58639502D01*
X66801943Y-58668661D01*
X66635363Y-58835241D01*
X66478320Y-59070273D01*
X66370147Y-59331426D01*
X66315000Y-59608665D01*
X66315000Y-59891335D01*
X66370147Y-60168574D01*
X66478320Y-60429727D01*
X66615000Y-60634284D01*
X66615001Y-64944239D01*
X66609509Y-65000000D01*
X66631423Y-65222498D01*
X66696324Y-65436446D01*
X66696325Y-65436447D01*
X66801717Y-65633623D01*
X66943552Y-65806449D01*
X66986858Y-65841990D01*
X67111857Y-65966989D01*
X67111863Y-65966994D01*
X74115001Y-72970133D01*
X74115000Y-77194248D01*
X74109509Y-77250000D01*
X74115000Y-77305751D01*
X74131423Y-77472498D01*
X74196324Y-77686446D01*
X74301716Y-77883623D01*
X74443551Y-78056449D01*
X74486865Y-78091996D01*
X77832980Y-81438112D01*
X77765000Y-81779872D01*
X77765000Y-82220128D01*
X77850890Y-82651925D01*
X78019369Y-83058669D01*
X78263962Y-83424729D01*
X78575271Y-83736038D01*
X78941331Y-83980631D01*
X79348075Y-84149110D01*
X79779872Y-84235000D01*
X80220128Y-84235000D01*
X80651925Y-84149110D01*
X81058669Y-83980631D01*
X81165001Y-83909582D01*
X81165002Y-84790418D01*
X81058669Y-84719369D01*
X80651925Y-84550890D01*
X80220128Y-84465000D01*
X79779872Y-84465000D01*
X79348075Y-84550890D01*
X78941331Y-84719369D01*
X78575271Y-84963962D01*
X78263962Y-85275271D01*
X78019369Y-85641331D01*
X77850890Y-86048075D01*
X77765000Y-86479872D01*
X77765000Y-86920128D01*
X77850890Y-87351925D01*
X78019369Y-87758669D01*
X78263962Y-88124729D01*
X78575271Y-88436038D01*
X78941331Y-88680631D01*
X79348075Y-88849110D01*
X79607222Y-88900658D01*
X79557111Y-88921414D01*
X79403972Y-89023738D01*
X79273738Y-89153972D01*
X79171414Y-89307111D01*
X79100932Y-89477271D01*
X79065000Y-89657911D01*
X79065000Y-89842089D01*
X79100932Y-90022729D01*
X79171414Y-90192889D01*
X79273738Y-90346028D01*
X79403972Y-90476262D01*
X79557111Y-90578586D01*
X79727271Y-90649068D01*
X79907911Y-90685000D01*
X80092089Y-90685000D01*
X80272729Y-90649068D01*
X80442889Y-90578586D01*
X80596028Y-90476262D01*
X80726262Y-90346028D01*
X80828586Y-90192889D01*
X80899068Y-90022729D01*
X80923153Y-89901648D01*
X82436004Y-88388798D01*
X82465002Y-88365000D01*
X82559975Y-88249275D01*
X82630547Y-88117246D01*
X82674004Y-87973985D01*
X82685001Y-87862332D01*
X82685001Y-87862322D01*
X82688677Y-87824999D01*
X82685001Y-87787676D01*
X82685001Y-81113324D01*
X82688677Y-81075999D01*
X82685001Y-81038674D01*
X82685001Y-81038666D01*
X82674004Y-80927013D01*
X82630547Y-80783752D01*
X82559975Y-80651723D01*
X82465002Y-80535998D01*
X82436005Y-80512201D01*
X81162806Y-79239003D01*
X81147989Y-79220949D01*
X81424729Y-79036038D01*
X81736038Y-78724729D01*
X81980631Y-78358669D01*
X82149110Y-77951925D01*
X82235000Y-77520128D01*
X82235000Y-77079872D01*
X82149110Y-76648075D01*
X81980631Y-76241331D01*
X81736038Y-75875271D01*
X81424729Y-75563962D01*
X81058669Y-75319369D01*
X80651925Y-75150890D01*
X80220128Y-75065000D01*
X79779872Y-75065000D01*
X79348075Y-75150890D01*
X78941331Y-75319369D01*
X78575271Y-75563962D01*
X78263962Y-75875271D01*
X78019369Y-76241331D01*
X77850890Y-76648075D01*
X77804930Y-76879131D01*
X77510000Y-76584201D01*
X77510000Y-72870585D01*
X77513676Y-72833260D01*
X77510000Y-72795935D01*
X77510000Y-72795927D01*
X77499003Y-72684274D01*
X77455546Y-72541013D01*
X77384974Y-72408984D01*
X77290001Y-72293259D01*
X77261004Y-72269462D01*
X74696037Y-69704495D01*
X79265000Y-69704495D01*
X79265000Y-70095505D01*
X79341282Y-70479003D01*
X79490915Y-70840250D01*
X79708149Y-71165364D01*
X79984636Y-71441851D01*
X80309750Y-71659085D01*
X80670997Y-71808718D01*
X81054495Y-71885000D01*
X81445505Y-71885000D01*
X81829003Y-71808718D01*
X82190250Y-71659085D01*
X82515364Y-71441851D01*
X82791851Y-71165364D01*
X83009085Y-70840250D01*
X83158718Y-70479003D01*
X83235000Y-70095505D01*
X83235000Y-69704495D01*
X83158718Y-69320997D01*
X83009085Y-68959750D01*
X82791851Y-68634636D01*
X82515364Y-68358149D01*
X82190250Y-68140915D01*
X81829003Y-67991282D01*
X81445505Y-67915000D01*
X81054495Y-67915000D01*
X80670997Y-67991282D01*
X80309750Y-68140915D01*
X79984636Y-68358149D01*
X79708149Y-68634636D01*
X79490915Y-68959750D01*
X79341282Y-69320997D01*
X79265000Y-69704495D01*
X74696037Y-69704495D01*
X73079331Y-68087790D01*
X73227271Y-68149068D01*
X73407911Y-68185000D01*
X73592089Y-68185000D01*
X73772729Y-68149068D01*
X73942889Y-68078586D01*
X74045535Y-68010000D01*
X78954465Y-68010000D01*
X79057111Y-68078586D01*
X79227271Y-68149068D01*
X79407911Y-68185000D01*
X79592089Y-68185000D01*
X79772729Y-68149068D01*
X79942889Y-68078586D01*
X80096028Y-67976262D01*
X80226262Y-67846028D01*
X80328586Y-67692889D01*
X80399068Y-67522729D01*
X80435000Y-67342089D01*
X80435000Y-67157911D01*
X80399068Y-66977271D01*
X80328586Y-66807111D01*
X80226262Y-66653972D01*
X80096028Y-66523738D01*
X79942889Y-66421414D01*
X79772729Y-66350932D01*
X79592089Y-66315000D01*
X79407911Y-66315000D01*
X79227271Y-66350932D01*
X79057111Y-66421414D01*
X78954465Y-66490000D01*
X74045535Y-66490000D01*
X73942889Y-66421414D01*
X73772729Y-66350932D01*
X73592089Y-66315000D01*
X73407911Y-66315000D01*
X73227271Y-66350932D01*
X73057111Y-66421414D01*
X72903972Y-66523738D01*
X72773738Y-66653972D01*
X72671414Y-66807111D01*
X72600932Y-66977271D01*
X72565000Y-67157911D01*
X72565000Y-67342089D01*
X72600932Y-67522729D01*
X72662210Y-67670669D01*
X71260000Y-66268459D01*
X71260000Y-65795535D01*
X71328586Y-65692889D01*
X71399068Y-65522729D01*
X71435000Y-65342089D01*
X71435000Y-65157911D01*
X71399068Y-64977271D01*
X71328586Y-64807111D01*
X71226262Y-64653972D01*
X71096028Y-64523738D01*
X70942889Y-64421414D01*
X70772729Y-64350932D01*
X70592089Y-64315000D01*
X70407911Y-64315000D01*
X70227271Y-64350932D01*
X70057111Y-64421414D01*
X69903972Y-64523738D01*
X69773738Y-64653972D01*
X69671414Y-64807111D01*
X69600932Y-64977271D01*
X69565000Y-65157911D01*
X69565000Y-65209869D01*
X68885000Y-64529869D01*
X68885000Y-60634284D01*
X69021680Y-60429727D01*
X69129853Y-60168574D01*
X69185000Y-59891335D01*
X69185000Y-59608665D01*
X69129853Y-59331426D01*
X69021680Y-59070273D01*
X68864637Y-58835241D01*
X68698057Y-58668661D01*
X68794180Y-58639502D01*
X68904494Y-58580537D01*
X69001185Y-58501185D01*
X69080537Y-58404494D01*
X69139502Y-58294180D01*
X69175812Y-58174482D01*
X69188072Y-58050000D01*
X69188072Y-56450000D01*
X69183148Y-56400000D01*
X72261928Y-56400000D01*
X72261928Y-58600000D01*
X72274188Y-58724482D01*
X72310498Y-58844180D01*
X72369463Y-58954494D01*
X72448815Y-59051185D01*
X72545506Y-59130537D01*
X72655820Y-59189502D01*
X72775518Y-59225812D01*
X72900000Y-59238072D01*
X75100000Y-59238072D01*
X75224482Y-59225812D01*
X75344180Y-59189502D01*
X75454494Y-59130537D01*
X75551185Y-59051185D01*
X75630537Y-58954494D01*
X75689502Y-58844180D01*
X75725812Y-58724482D01*
X75738072Y-58600000D01*
X75738072Y-56400000D01*
X75725812Y-56275518D01*
X75689502Y-56155820D01*
X75630537Y-56045506D01*
X75551185Y-55948815D01*
X75454494Y-55869463D01*
X75344180Y-55810498D01*
X75224482Y-55774188D01*
X75100000Y-55761928D01*
X72900000Y-55761928D01*
X72775518Y-55774188D01*
X72655820Y-55810498D01*
X72545506Y-55869463D01*
X72448815Y-55948815D01*
X72369463Y-56045506D01*
X72310498Y-56155820D01*
X72274188Y-56275518D01*
X72261928Y-56400000D01*
X69183148Y-56400000D01*
X69175812Y-56325518D01*
X69139502Y-56205820D01*
X69080537Y-56095506D01*
X69001185Y-55998815D01*
X68904494Y-55919463D01*
X68794180Y-55860498D01*
X68674482Y-55824188D01*
X68550000Y-55811928D01*
X66950000Y-55811928D01*
X66825518Y-55824188D01*
X66705820Y-55860498D01*
X66595506Y-55919463D01*
X66498815Y-55998815D01*
X66419463Y-56095506D01*
X66360498Y-56205820D01*
X66324188Y-56325518D01*
X66319455Y-56373575D01*
X66276510Y-56377805D01*
X66235001Y-56390397D01*
X66235001Y-54779872D01*
X77765000Y-54779872D01*
X77765000Y-55220128D01*
X77850890Y-55651925D01*
X78019369Y-56058669D01*
X78263962Y-56424729D01*
X78575271Y-56736038D01*
X78941331Y-56980631D01*
X79348075Y-57149110D01*
X79779872Y-57235000D01*
X80220128Y-57235000D01*
X80651925Y-57149110D01*
X81058669Y-56980631D01*
X81424729Y-56736038D01*
X81736038Y-56424729D01*
X81980631Y-56058669D01*
X82149110Y-55651925D01*
X82235000Y-55220128D01*
X82235000Y-54843891D01*
X85875000Y-54843891D01*
X85875000Y-55156109D01*
X85935911Y-55462327D01*
X86055391Y-55750779D01*
X86228850Y-56010379D01*
X86449621Y-56231150D01*
X86709221Y-56404609D01*
X86997673Y-56524089D01*
X87303891Y-56585000D01*
X87616109Y-56585000D01*
X87922327Y-56524089D01*
X88210779Y-56404609D01*
X88458877Y-56238836D01*
X88460498Y-56244180D01*
X88519463Y-56354494D01*
X88598815Y-56451185D01*
X88695506Y-56530537D01*
X88805820Y-56589502D01*
X88925518Y-56625812D01*
X89050000Y-56638072D01*
X89714250Y-56635000D01*
X89873000Y-56476250D01*
X89873000Y-55127000D01*
X90127000Y-55127000D01*
X90127000Y-56476250D01*
X90285750Y-56635000D01*
X90950000Y-56638072D01*
X91074482Y-56625812D01*
X91194180Y-56589502D01*
X91304494Y-56530537D01*
X91401185Y-56451185D01*
X91480537Y-56354494D01*
X91539502Y-56244180D01*
X91575812Y-56124482D01*
X91588072Y-56000000D01*
X91585018Y-55289721D01*
X94465000Y-55289721D01*
X94465000Y-55710279D01*
X94547047Y-56122756D01*
X94707988Y-56511302D01*
X94941637Y-56860983D01*
X95239017Y-57158363D01*
X95588698Y-57392012D01*
X95977244Y-57552953D01*
X96389721Y-57635000D01*
X96810279Y-57635000D01*
X97222756Y-57552953D01*
X97611302Y-57392012D01*
X97960983Y-57158363D01*
X98258363Y-56860983D01*
X98492012Y-56511302D01*
X98652953Y-56122756D01*
X98735000Y-55710279D01*
X98735000Y-55499843D01*
X100179762Y-55499843D01*
X100252556Y-55744832D01*
X100509773Y-55866733D01*
X100785829Y-55936110D01*
X101070115Y-55950298D01*
X101351706Y-55908752D01*
X101619783Y-55813068D01*
X101747444Y-55744832D01*
X101820238Y-55499843D01*
X101000000Y-54679605D01*
X100179762Y-55499843D01*
X98735000Y-55499843D01*
X98735000Y-55289721D01*
X98652953Y-54877244D01*
X98525737Y-54570115D01*
X99549702Y-54570115D01*
X99591248Y-54851706D01*
X99686932Y-55119783D01*
X99755168Y-55247444D01*
X100000157Y-55320238D01*
X100820395Y-54500000D01*
X101179605Y-54500000D01*
X101999843Y-55320238D01*
X102244832Y-55247444D01*
X102366733Y-54990227D01*
X102436110Y-54714171D01*
X102450298Y-54429885D01*
X102408752Y-54148294D01*
X102313068Y-53880217D01*
X102244832Y-53752556D01*
X101999843Y-53679762D01*
X101179605Y-54500000D01*
X100820395Y-54500000D01*
X100000157Y-53679762D01*
X99755168Y-53752556D01*
X99633267Y-54009773D01*
X99563890Y-54285829D01*
X99549702Y-54570115D01*
X98525737Y-54570115D01*
X98492012Y-54488698D01*
X98258363Y-54139017D01*
X97960983Y-53841637D01*
X97611302Y-53607988D01*
X97350975Y-53500157D01*
X100179762Y-53500157D01*
X101000000Y-54320395D01*
X101820238Y-53500157D01*
X101747444Y-53255168D01*
X101490227Y-53133267D01*
X101214171Y-53063890D01*
X100929885Y-53049702D01*
X100648294Y-53091248D01*
X100380217Y-53186932D01*
X100252556Y-53255168D01*
X100179762Y-53500157D01*
X97350975Y-53500157D01*
X97222756Y-53447047D01*
X96810279Y-53365000D01*
X96389721Y-53365000D01*
X95977244Y-53447047D01*
X95588698Y-53607988D01*
X95239017Y-53841637D01*
X94941637Y-54139017D01*
X94707988Y-54488698D01*
X94547047Y-54877244D01*
X94465000Y-55289721D01*
X91585018Y-55289721D01*
X91585000Y-55285750D01*
X91426250Y-55127000D01*
X90127000Y-55127000D01*
X89873000Y-55127000D01*
X89853000Y-55127000D01*
X89853000Y-54873000D01*
X89873000Y-54873000D01*
X89873000Y-53523750D01*
X90127000Y-53523750D01*
X90127000Y-54873000D01*
X91426250Y-54873000D01*
X91585000Y-54714250D01*
X91588072Y-54000000D01*
X91575812Y-53875518D01*
X91539502Y-53755820D01*
X91480537Y-53645506D01*
X91401185Y-53548815D01*
X91304494Y-53469463D01*
X91194180Y-53410498D01*
X91074482Y-53374188D01*
X90950000Y-53361928D01*
X90285750Y-53365000D01*
X90127000Y-53523750D01*
X89873000Y-53523750D01*
X89714250Y-53365000D01*
X89050000Y-53361928D01*
X88925518Y-53374188D01*
X88805820Y-53410498D01*
X88695506Y-53469463D01*
X88598815Y-53548815D01*
X88519463Y-53645506D01*
X88460498Y-53755820D01*
X88458877Y-53761164D01*
X88210779Y-53595391D01*
X87922327Y-53475911D01*
X87616109Y-53415000D01*
X87303891Y-53415000D01*
X86997673Y-53475911D01*
X86709221Y-53595391D01*
X86449621Y-53768850D01*
X86228850Y-53989621D01*
X86055391Y-54249221D01*
X85935911Y-54537673D01*
X85875000Y-54843891D01*
X82235000Y-54843891D01*
X82235000Y-54779872D01*
X82149110Y-54348075D01*
X81980631Y-53941331D01*
X81736038Y-53575271D01*
X81424729Y-53263962D01*
X81058669Y-53019369D01*
X80651925Y-52850890D01*
X80220128Y-52765000D01*
X79779872Y-52765000D01*
X79348075Y-52850890D01*
X78941331Y-53019369D01*
X78575271Y-53263962D01*
X78263962Y-53575271D01*
X78019369Y-53941331D01*
X77850890Y-54348075D01*
X77765000Y-54779872D01*
X66235001Y-54779872D01*
X66235001Y-53940970D01*
X66239282Y-53897501D01*
X66235001Y-53854032D01*
X66235001Y-53854024D01*
X66222196Y-53724011D01*
X66201724Y-53656524D01*
X66171590Y-53557187D01*
X66089412Y-53403442D01*
X66006533Y-53302454D01*
X66006531Y-53302452D01*
X65978818Y-53268684D01*
X65945050Y-53240971D01*
X65090572Y-52386493D01*
X65090572Y-51000000D01*
X65078312Y-50875518D01*
X65042002Y-50755820D01*
X64983037Y-50645506D01*
X64903685Y-50548815D01*
X64806994Y-50469463D01*
X64696680Y-50410498D01*
X64576982Y-50374188D01*
X64452500Y-50361928D01*
X62547500Y-50361928D01*
X62423018Y-50374188D01*
X62303320Y-50410498D01*
X62193006Y-50469463D01*
X62096315Y-50548815D01*
X62016963Y-50645506D01*
X61967941Y-50737219D01*
X61826923Y-50624031D01*
X61551094Y-50480429D01*
X61332980Y-50409437D01*
X61087000Y-50529406D01*
X61087000Y-51873000D01*
X61107000Y-51873000D01*
X61107000Y-52127000D01*
X61087000Y-52127000D01*
X61087000Y-53470594D01*
X61332980Y-53590563D01*
X61551094Y-53519571D01*
X61826923Y-53375969D01*
X61967941Y-53262781D01*
X62016963Y-53354494D01*
X62096315Y-53451185D01*
X62193006Y-53530537D01*
X62303320Y-53589502D01*
X62381068Y-53613086D01*
X62039017Y-53841637D01*
X61741637Y-54139017D01*
X61507988Y-54488698D01*
X61347047Y-54877244D01*
X61265000Y-55289721D01*
X61265000Y-55710279D01*
X61347047Y-56122756D01*
X61507988Y-56511302D01*
X61741637Y-56860983D01*
X62039017Y-57158363D01*
X62388698Y-57392012D01*
X62777244Y-57552953D01*
X63189721Y-57635000D01*
X63565921Y-57635000D01*
X63008249Y-58192673D01*
X62983037Y-58145506D01*
X62903685Y-58048815D01*
X62806994Y-57969463D01*
X62696680Y-57910498D01*
X62576982Y-57874188D01*
X62452500Y-57861928D01*
X60547500Y-57861928D01*
X60423018Y-57874188D01*
X60303320Y-57910498D01*
X60193006Y-57969463D01*
X60096315Y-58048815D01*
X60016963Y-58145506D01*
X59972095Y-58229446D01*
X59846235Y-58126155D01*
X59570449Y-57978745D01*
X59271204Y-57887970D01*
X59218871Y-57882816D01*
X59241589Y-57840313D01*
X59292195Y-57673490D01*
X59305000Y-57543477D01*
X59305000Y-57543469D01*
X59309281Y-57500000D01*
X59305000Y-57456531D01*
X59305000Y-53374505D01*
X59306234Y-53373845D01*
X59547963Y-53175463D01*
X59695163Y-52996101D01*
X59850563Y-53181315D01*
X60093077Y-53375969D01*
X60368906Y-53519571D01*
X60587020Y-53590563D01*
X60833000Y-53470594D01*
X60833000Y-52127000D01*
X60813000Y-52127000D01*
X60813000Y-51873000D01*
X60833000Y-51873000D01*
X60833000Y-50529406D01*
X60587020Y-50409437D01*
X60368906Y-50480429D01*
X60093077Y-50624031D01*
X59850563Y-50818685D01*
X59695162Y-51003900D01*
X59547963Y-50824537D01*
X59306235Y-50626155D01*
X59030449Y-50478745D01*
X58731204Y-50387970D01*
X58420000Y-50357319D01*
X58391447Y-50360131D01*
X59866579Y-48885000D01*
X72572105Y-48885000D01*
X72550421Y-48911422D01*
X72550421Y-48911422D01*
G37*
X72550421Y-48911422D02*
X72389314Y-49212832D01*
X72290105Y-49539881D01*
X72256606Y-49880000D01*
X72290105Y-50220119D01*
X72389314Y-50547168D01*
X72550421Y-50848578D01*
X72767234Y-51112766D01*
X73031422Y-51329579D01*
X73332832Y-51490686D01*
X73659881Y-51589895D01*
X73914775Y-51615000D01*
X74085225Y-51615000D01*
X74340119Y-51589895D01*
X74667168Y-51490686D01*
X74968578Y-51329579D01*
X75232766Y-51112766D01*
X75449579Y-50848578D01*
X75610686Y-50547168D01*
X75709895Y-50220119D01*
X75743394Y-49880000D01*
X75709895Y-49539881D01*
X75610686Y-49212832D01*
X75449579Y-48911422D01*
X75427895Y-48885000D01*
X78257461Y-48885000D01*
X78019369Y-49241331D01*
X77850890Y-49648075D01*
X77765000Y-50079872D01*
X77765000Y-50520128D01*
X77850890Y-50951925D01*
X78019369Y-51358669D01*
X78263962Y-51724729D01*
X78575271Y-52036038D01*
X78941331Y-52280631D01*
X79348075Y-52449110D01*
X79779872Y-52535000D01*
X80220128Y-52535000D01*
X80651925Y-52449110D01*
X81058669Y-52280631D01*
X81424729Y-52036038D01*
X81736038Y-51724729D01*
X81980631Y-51358669D01*
X82149110Y-50951925D01*
X82235000Y-50520128D01*
X82235000Y-50079872D01*
X82149110Y-49648075D01*
X81980631Y-49241331D01*
X81742539Y-48885000D01*
X100419424Y-48885000D01*
X104129472Y-52595049D01*
X104157185Y-52628817D01*
X104190953Y-52656530D01*
X104190955Y-52656532D01*
X104215063Y-52676317D01*
X104291943Y-52739411D01*
X104445689Y-52821589D01*
X104612512Y-52872195D01*
X104742525Y-52885000D01*
X104742535Y-52885000D01*
X104786001Y-52889281D01*
X104829467Y-52885000D01*
X106133422Y-52885000D01*
X107315001Y-54066580D01*
X107315001Y-54544198D01*
X107292012Y-54488698D01*
X107058363Y-54139017D01*
X106760983Y-53841637D01*
X106411302Y-53607988D01*
X106022756Y-53447047D01*
X105610279Y-53365000D01*
X105189721Y-53365000D01*
X104777244Y-53447047D01*
X104388698Y-53607988D01*
X104039017Y-53841637D01*
X103741637Y-54139017D01*
X103507988Y-54488698D01*
X103347047Y-54877244D01*
X103265000Y-55289721D01*
X103265000Y-55710279D01*
X103347047Y-56122756D01*
X103507988Y-56511302D01*
X103741637Y-56860983D01*
X104039017Y-57158363D01*
X104388698Y-57392012D01*
X104777244Y-57552953D01*
X105189721Y-57635000D01*
X105610279Y-57635000D01*
X106022756Y-57552953D01*
X106411302Y-57392012D01*
X106760983Y-57158363D01*
X107058363Y-56860983D01*
X107292012Y-56511302D01*
X107315001Y-56455801D01*
X107315002Y-72740418D01*
X107208669Y-72669369D01*
X106801925Y-72500890D01*
X106370128Y-72415000D01*
X105929872Y-72415000D01*
X105498075Y-72500890D01*
X105091331Y-72669369D01*
X104725271Y-72913962D01*
X104413962Y-73225271D01*
X104220372Y-73515000D01*
X98905751Y-73515000D01*
X98849999Y-73509509D01*
X98627500Y-73531423D01*
X98577705Y-73546529D01*
X98413553Y-73596324D01*
X98216377Y-73701716D01*
X98043551Y-73843551D01*
X98008009Y-73886859D01*
X91736860Y-80158009D01*
X91693552Y-80193551D01*
X91551717Y-80366377D01*
X91541777Y-80384974D01*
X91446324Y-80563554D01*
X91381423Y-80777502D01*
X91359509Y-81000000D01*
X91365001Y-81055761D01*
X91365000Y-91569868D01*
X89997864Y-92937004D01*
X90065009Y-92836515D01*
X90198134Y-92515123D01*
X90266000Y-92173936D01*
X90266000Y-91826064D01*
X90198134Y-91484877D01*
X90065009Y-91163485D01*
X89871742Y-90874241D01*
X89625759Y-90628258D01*
X89336515Y-90434991D01*
X89015123Y-90301866D01*
X88673936Y-90234000D01*
X88326064Y-90234000D01*
X87984877Y-90301866D01*
X87663485Y-90434991D01*
X87374241Y-90628258D01*
X87128258Y-90874241D01*
X86934991Y-91163485D01*
X86801866Y-91484877D01*
X86734000Y-91826064D01*
X86734000Y-92173936D01*
X86801866Y-92515123D01*
X86934991Y-92836515D01*
X87128258Y-93125759D01*
X87374241Y-93371742D01*
X87663485Y-93565009D01*
X87984877Y-93698134D01*
X88326064Y-93766000D01*
X88673936Y-93766000D01*
X89015123Y-93698134D01*
X89336515Y-93565009D01*
X89437004Y-93497864D01*
X86414714Y-96520155D01*
X86248889Y-96536487D01*
X85968966Y-96621401D01*
X85710986Y-96759294D01*
X85484866Y-96944866D01*
X85299294Y-97170986D01*
X85270000Y-97225791D01*
X85240706Y-97170986D01*
X85135000Y-97042183D01*
X85135000Y-74970131D01*
X86263140Y-73841992D01*
X86306449Y-73806449D01*
X86448284Y-73633623D01*
X86553676Y-73436447D01*
X86618577Y-73222499D01*
X86635000Y-73055752D01*
X86635000Y-73055743D01*
X86640490Y-73000001D01*
X86635000Y-72944259D01*
X86635000Y-65255752D01*
X86637653Y-65228807D01*
X87450798Y-65228807D01*
X87562369Y-65506605D01*
X87874309Y-65660579D01*
X88210294Y-65750737D01*
X88557413Y-65773616D01*
X88902325Y-65728336D01*
X89231776Y-65616637D01*
X89437631Y-65506605D01*
X89549202Y-65228807D01*
X88500000Y-64179605D01*
X87450798Y-65228807D01*
X86637653Y-65228807D01*
X86640491Y-65200000D01*
X86618577Y-64977501D01*
X86553676Y-64763553D01*
X86448284Y-64566377D01*
X86341989Y-64436856D01*
X86341987Y-64436854D01*
X86306449Y-64393551D01*
X86263146Y-64358013D01*
X85962546Y-64057413D01*
X86726384Y-64057413D01*
X86771664Y-64402325D01*
X86883363Y-64731776D01*
X86993395Y-64937631D01*
X87271193Y-65049202D01*
X88320395Y-64000000D01*
X88679605Y-64000000D01*
X89728807Y-65049202D01*
X90006605Y-64937631D01*
X90160579Y-64625691D01*
X90250737Y-64289706D01*
X90273616Y-63942587D01*
X90228336Y-63597675D01*
X90116637Y-63268224D01*
X90006605Y-63062369D01*
X89728807Y-62950798D01*
X88679605Y-64000000D01*
X88320395Y-64000000D01*
X87271193Y-62950798D01*
X86993395Y-63062369D01*
X86839421Y-63374309D01*
X86749263Y-63710294D01*
X86726384Y-64057413D01*
X85962546Y-64057413D01*
X84676326Y-62771193D01*
X87450798Y-62771193D01*
X88500000Y-63820395D01*
X89549202Y-62771193D01*
X89437631Y-62493395D01*
X89144725Y-62348816D01*
X96965000Y-62348816D01*
X96965000Y-62651184D01*
X97023989Y-62947743D01*
X97139701Y-63227095D01*
X97307688Y-63478505D01*
X97521495Y-63692312D01*
X97772905Y-63860299D01*
X98052257Y-63976011D01*
X98348816Y-64035000D01*
X98651184Y-64035000D01*
X98947743Y-63976011D01*
X99227095Y-63860299D01*
X99478505Y-63692312D01*
X99692312Y-63478505D01*
X99750000Y-63392169D01*
X99807688Y-63478505D01*
X100021495Y-63692312D01*
X100272905Y-63860299D01*
X100552257Y-63976011D01*
X100848816Y-64035000D01*
X101151184Y-64035000D01*
X101447743Y-63976011D01*
X101727095Y-63860299D01*
X101978505Y-63692312D01*
X102192312Y-63478505D01*
X102250000Y-63392169D01*
X102307688Y-63478505D01*
X102521495Y-63692312D01*
X102772905Y-63860299D01*
X103052257Y-63976011D01*
X103348816Y-64035000D01*
X103651184Y-64035000D01*
X103947743Y-63976011D01*
X104227095Y-63860299D01*
X104478505Y-63692312D01*
X104692312Y-63478505D01*
X104860299Y-63227095D01*
X104976011Y-62947743D01*
X105035000Y-62651184D01*
X105035000Y-62348816D01*
X104976011Y-62052257D01*
X104860299Y-61772905D01*
X104692312Y-61521495D01*
X104478505Y-61307688D01*
X104227095Y-61139701D01*
X103947743Y-61023989D01*
X103651184Y-60965000D01*
X103348816Y-60965000D01*
X103052257Y-61023989D01*
X102772905Y-61139701D01*
X102521495Y-61307688D01*
X102307688Y-61521495D01*
X102250000Y-61607831D01*
X102192312Y-61521495D01*
X101978505Y-61307688D01*
X101727095Y-61139701D01*
X101447743Y-61023989D01*
X101151184Y-60965000D01*
X100848816Y-60965000D01*
X100552257Y-61023989D01*
X100272905Y-61139701D01*
X100021495Y-61307688D01*
X99807688Y-61521495D01*
X99750000Y-61607831D01*
X99692312Y-61521495D01*
X99478505Y-61307688D01*
X99227095Y-61139701D01*
X98947743Y-61023989D01*
X98651184Y-60965000D01*
X98348816Y-60965000D01*
X98052257Y-61023989D01*
X97772905Y-61139701D01*
X97521495Y-61307688D01*
X97307688Y-61521495D01*
X97139701Y-61772905D01*
X97023989Y-62052257D01*
X96965000Y-62348816D01*
X89144725Y-62348816D01*
X89125691Y-62339421D01*
X88789706Y-62249263D01*
X88442587Y-62226384D01*
X88097675Y-62271664D01*
X87768224Y-62383363D01*
X87562369Y-62493395D01*
X87450798Y-62771193D01*
X84676326Y-62771193D01*
X82404976Y-60499843D01*
X97679762Y-60499843D01*
X97752556Y-60744832D01*
X98009773Y-60866733D01*
X98285829Y-60936110D01*
X98570115Y-60950298D01*
X98851706Y-60908752D01*
X99119783Y-60813068D01*
X99247444Y-60744832D01*
X99320238Y-60499843D01*
X98500000Y-59679605D01*
X97679762Y-60499843D01*
X82404976Y-60499843D01*
X82167020Y-60261888D01*
X82235000Y-59920128D01*
X82235000Y-59570115D01*
X97049702Y-59570115D01*
X97091248Y-59851706D01*
X97186932Y-60119783D01*
X97255168Y-60247444D01*
X97500157Y-60320238D01*
X98320395Y-59500000D01*
X98679605Y-59500000D01*
X99499843Y-60320238D01*
X99744832Y-60247444D01*
X99866733Y-59990227D01*
X99936110Y-59714171D01*
X99950298Y-59429885D01*
X99939645Y-59357680D01*
X102055000Y-59357680D01*
X102055000Y-59642320D01*
X102110530Y-59921491D01*
X102219457Y-60184464D01*
X102377595Y-60421134D01*
X102578866Y-60622405D01*
X102815536Y-60780543D01*
X103078509Y-60889470D01*
X103357680Y-60945000D01*
X103642320Y-60945000D01*
X103921491Y-60889470D01*
X104184464Y-60780543D01*
X104421134Y-60622405D01*
X104622405Y-60421134D01*
X104780543Y-60184464D01*
X104889470Y-59921491D01*
X104945000Y-59642320D01*
X104945000Y-59357680D01*
X104889470Y-59078509D01*
X104780543Y-58815536D01*
X104622405Y-58578866D01*
X104421134Y-58377595D01*
X104184464Y-58219457D01*
X103921491Y-58110530D01*
X103642320Y-58055000D01*
X103357680Y-58055000D01*
X103078509Y-58110530D01*
X102815536Y-58219457D01*
X102578866Y-58377595D01*
X102377595Y-58578866D01*
X102219457Y-58815536D01*
X102110530Y-59078509D01*
X102055000Y-59357680D01*
X99939645Y-59357680D01*
X99908752Y-59148294D01*
X99813068Y-58880217D01*
X99744832Y-58752556D01*
X99499843Y-58679762D01*
X98679605Y-59500000D01*
X98320395Y-59500000D01*
X97500157Y-58679762D01*
X97255168Y-58752556D01*
X97133267Y-59009773D01*
X97063890Y-59285829D01*
X97049702Y-59570115D01*
X82235000Y-59570115D01*
X82235000Y-59479872D01*
X82149110Y-59048075D01*
X81980631Y-58641331D01*
X81886302Y-58500157D01*
X97679762Y-58500157D01*
X98500000Y-59320395D01*
X99320238Y-58500157D01*
X99247444Y-58255168D01*
X98990227Y-58133267D01*
X98714171Y-58063890D01*
X98429885Y-58049702D01*
X98148294Y-58091248D01*
X97880217Y-58186932D01*
X97752556Y-58255168D01*
X97679762Y-58500157D01*
X81886302Y-58500157D01*
X81736038Y-58275271D01*
X81424729Y-57963962D01*
X81058669Y-57719369D01*
X80651925Y-57550890D01*
X80220128Y-57465000D01*
X79779872Y-57465000D01*
X79348075Y-57550890D01*
X78941331Y-57719369D01*
X78575271Y-57963962D01*
X78263962Y-58275271D01*
X78019369Y-58641331D01*
X77850890Y-59048075D01*
X77765000Y-59479872D01*
X77765000Y-59920128D01*
X77850890Y-60351925D01*
X78019369Y-60758669D01*
X78263962Y-61124729D01*
X78575271Y-61436038D01*
X78941331Y-61680631D01*
X79348075Y-61849110D01*
X79779872Y-61935000D01*
X80220128Y-61935000D01*
X80561888Y-61867020D01*
X84365001Y-65670134D01*
X84365000Y-72529868D01*
X83236860Y-73658009D01*
X83193552Y-73693551D01*
X83051717Y-73866377D01*
X83029517Y-73907911D01*
X82946324Y-74063554D01*
X82881423Y-74277502D01*
X82859509Y-74500000D01*
X82865001Y-74555762D01*
X82865000Y-96841272D01*
X82840537Y-96795506D01*
X82761185Y-96698815D01*
X82664494Y-96619463D01*
X82554180Y-96560498D01*
X82434482Y-96524188D01*
X82310000Y-96511928D01*
X81745750Y-96515000D01*
X81587000Y-96673750D01*
X81587000Y-97873000D01*
X81607000Y-97873000D01*
X81607000Y-98127000D01*
X81587000Y-98127000D01*
X81587000Y-98147000D01*
X81333000Y-98147000D01*
X81333000Y-98127000D01*
X81313000Y-98127000D01*
X81313000Y-97873000D01*
X81333000Y-97873000D01*
X81333000Y-96673750D01*
X81174250Y-96515000D01*
X80610000Y-96511928D01*
X80485518Y-96524188D01*
X80365820Y-96560498D01*
X80255506Y-96619463D01*
X80158815Y-96698815D01*
X80079463Y-96795506D01*
X80020498Y-96905820D01*
X79984188Y-97025518D01*
X79971928Y-97150000D01*
X79974449Y-97613079D01*
X79918599Y-97428966D01*
X79780706Y-97170986D01*
X79595134Y-96944866D01*
X79369014Y-96759294D01*
X79111034Y-96621401D01*
X78831111Y-96536487D01*
X78612950Y-96515000D01*
X78467050Y-96515000D01*
X78248889Y-96536487D01*
X77968966Y-96621401D01*
X77710986Y-96759294D01*
X77484866Y-96944866D01*
X77460393Y-96974687D01*
X77439502Y-96905820D01*
X77380537Y-96795506D01*
X77301185Y-96698815D01*
X77204494Y-96619463D01*
X77094180Y-96560498D01*
X76974482Y-96524188D01*
X76850000Y-96511928D01*
X76285750Y-96515000D01*
X76127000Y-96673750D01*
X76127000Y-97873000D01*
X76147000Y-97873000D01*
X76147000Y-98127000D01*
X76127000Y-98127000D01*
X76127000Y-98147000D01*
X75873000Y-98147000D01*
X75873000Y-98127000D01*
X74673750Y-98127000D01*
X74515000Y-98285750D01*
X74514683Y-98343940D01*
X74400814Y-98127000D01*
X73207000Y-98127000D01*
X73207000Y-98147000D01*
X72953000Y-98147000D01*
X72953000Y-98127000D01*
X72933000Y-98127000D01*
X72933000Y-97873000D01*
X72953000Y-97873000D01*
X72953000Y-96679845D01*
X73207000Y-96679845D01*
X73207000Y-97873000D01*
X74400814Y-97873000D01*
X74514683Y-97656060D01*
X74515000Y-97714250D01*
X74673750Y-97873000D01*
X75873000Y-97873000D01*
X75873000Y-96673750D01*
X75714250Y-96515000D01*
X75150000Y-96511928D01*
X75025518Y-96524188D01*
X74905820Y-96560498D01*
X74795506Y-96619463D01*
X74698815Y-96698815D01*
X74619463Y-96795506D01*
X74560498Y-96905820D01*
X74524188Y-97025518D01*
X74511928Y-97150000D01*
X74514506Y-97623445D01*
X74424157Y-97368748D01*
X74275178Y-97118645D01*
X74080269Y-96902412D01*
X73846920Y-96728359D01*
X73584099Y-96603175D01*
X73436890Y-96558524D01*
X73207000Y-96679845D01*
X72953000Y-96679845D01*
X72723110Y-96558524D01*
X72575901Y-96603175D01*
X72313080Y-96728359D01*
X72079731Y-96902412D01*
X71884822Y-97118645D01*
X71815201Y-97235523D01*
X71780706Y-97170986D01*
X71595134Y-96944866D01*
X71369014Y-96759294D01*
X71111034Y-96621401D01*
X70831111Y-96536487D01*
X70612950Y-96515000D01*
X70467050Y-96515000D01*
X70248889Y-96536487D01*
X69968966Y-96621401D01*
X69710986Y-96759294D01*
X69484866Y-96944866D01*
X69460393Y-96974687D01*
X69439502Y-96905820D01*
X69380537Y-96795506D01*
X69301185Y-96698815D01*
X69204494Y-96619463D01*
X69094180Y-96560498D01*
X68974482Y-96524188D01*
X68850000Y-96511928D01*
X67150000Y-96511928D01*
X67025518Y-96524188D01*
X66905820Y-96560498D01*
X66795506Y-96619463D01*
X66698815Y-96698815D01*
X66619463Y-96795506D01*
X66560498Y-96905820D01*
X66524188Y-97025518D01*
X66511928Y-97150000D01*
X66511928Y-98850000D01*
X66524188Y-98974482D01*
X66560498Y-99094180D01*
X66619463Y-99204494D01*
X66689636Y-99290000D01*
X51710000Y-99290000D01*
X51710000Y-91904495D01*
X65265000Y-91904495D01*
X65265000Y-92295505D01*
X65341282Y-92679003D01*
X65490915Y-93040250D01*
X65708149Y-93365364D01*
X65984636Y-93641851D01*
X66309750Y-93859085D01*
X66670997Y-94008718D01*
X67054495Y-94085000D01*
X67445505Y-94085000D01*
X67829003Y-94008718D01*
X68190250Y-93859085D01*
X68515364Y-93641851D01*
X68791851Y-93365364D01*
X69009085Y-93040250D01*
X69158718Y-92679003D01*
X69235000Y-92295505D01*
X69235000Y-91904495D01*
X69158718Y-91520997D01*
X69009085Y-91159750D01*
X68791851Y-90834636D01*
X68515364Y-90558149D01*
X68190250Y-90340915D01*
X67829003Y-90191282D01*
X67445505Y-90115000D01*
X67054495Y-90115000D01*
X66670997Y-90191282D01*
X66309750Y-90340915D01*
X65984636Y-90558149D01*
X65708149Y-90834636D01*
X65490915Y-91159750D01*
X65341282Y-91520997D01*
X65265000Y-91904495D01*
X51710000Y-91904495D01*
X51710000Y-85961578D01*
X54986939Y-89238518D01*
X54965000Y-89348816D01*
X54965000Y-89651184D01*
X55023989Y-89947743D01*
X55139701Y-90227095D01*
X55307688Y-90478505D01*
X55521495Y-90692312D01*
X55772905Y-90860299D01*
X56052257Y-90976011D01*
X56348816Y-91035000D01*
X56651184Y-91035000D01*
X56947743Y-90976011D01*
X57227095Y-90860299D01*
X57478505Y-90692312D01*
X57692312Y-90478505D01*
X57750000Y-90392169D01*
X57807688Y-90478505D01*
X58021495Y-90692312D01*
X58272905Y-90860299D01*
X58552257Y-90976011D01*
X58848816Y-91035000D01*
X59151184Y-91035000D01*
X59447743Y-90976011D01*
X59727095Y-90860299D01*
X59978505Y-90692312D01*
X60192312Y-90478505D01*
X60250000Y-90392169D01*
X60307688Y-90478505D01*
X60521495Y-90692312D01*
X60772905Y-90860299D01*
X61052257Y-90976011D01*
X61348816Y-91035000D01*
X61651184Y-91035000D01*
X61947743Y-90976011D01*
X62227095Y-90860299D01*
X62478505Y-90692312D01*
X62692312Y-90478505D01*
X62860299Y-90227095D01*
X62976011Y-89947743D01*
X63035000Y-89651184D01*
X63035000Y-89348816D01*
X62976011Y-89052257D01*
X62860299Y-88772905D01*
X62692312Y-88521495D01*
X62478505Y-88307688D01*
X62227095Y-88139701D01*
X61947743Y-88023989D01*
X61651184Y-87965000D01*
X61348816Y-87965000D01*
X61052257Y-88023989D01*
X60772905Y-88139701D01*
X60521495Y-88307688D01*
X60307688Y-88521495D01*
X60250000Y-88607831D01*
X60192312Y-88521495D01*
X59978505Y-88307688D01*
X59727095Y-88139701D01*
X59447743Y-88023989D01*
X59151184Y-87965000D01*
X58848816Y-87965000D01*
X58552257Y-88023989D01*
X58272905Y-88139701D01*
X58021495Y-88307688D01*
X57807688Y-88521495D01*
X57750000Y-88607831D01*
X57692312Y-88521495D01*
X57478505Y-88307688D01*
X57227095Y-88139701D01*
X56947743Y-88023989D01*
X56651184Y-87965000D01*
X56348816Y-87965000D01*
X56238518Y-87986939D01*
X52885000Y-84633422D01*
X52885000Y-83776220D01*
X52941637Y-83860983D01*
X53239017Y-84158363D01*
X53588698Y-84392012D01*
X53977244Y-84552953D01*
X54389721Y-84635000D01*
X54810279Y-84635000D01*
X55222756Y-84552953D01*
X55611302Y-84392012D01*
X55960983Y-84158363D01*
X56258363Y-83860983D01*
X56492012Y-83511302D01*
X56652953Y-83122756D01*
X56735000Y-82710279D01*
X56735000Y-82289721D01*
X61265000Y-82289721D01*
X61265000Y-82710279D01*
X61347047Y-83122756D01*
X61507988Y-83511302D01*
X61741637Y-83860983D01*
X62039017Y-84158363D01*
X62388698Y-84392012D01*
X62777244Y-84552953D01*
X63189721Y-84635000D01*
X63610279Y-84635000D01*
X64022756Y-84552953D01*
X64411302Y-84392012D01*
X64760983Y-84158363D01*
X65058363Y-83860983D01*
X65240000Y-83589143D01*
X65240000Y-85712677D01*
X65236324Y-85750000D01*
X65240000Y-85787322D01*
X65240000Y-85787332D01*
X65250997Y-85898985D01*
X65277491Y-85986324D01*
X65294454Y-86042246D01*
X65365026Y-86174276D01*
X65404871Y-86222826D01*
X65459999Y-86290001D01*
X65489002Y-86313804D01*
X66201847Y-87026649D01*
X66225932Y-87147729D01*
X66296414Y-87317889D01*
X66398738Y-87471028D01*
X66528972Y-87601262D01*
X66682111Y-87703586D01*
X66852271Y-87774068D01*
X67032911Y-87810000D01*
X67217089Y-87810000D01*
X67397729Y-87774068D01*
X67567889Y-87703586D01*
X67721028Y-87601262D01*
X67851262Y-87471028D01*
X67953586Y-87317889D01*
X68024068Y-87147729D01*
X68060000Y-86967089D01*
X68060000Y-86782911D01*
X68024068Y-86602271D01*
X67953586Y-86432111D01*
X67851262Y-86278972D01*
X67721028Y-86148738D01*
X67567889Y-86046414D01*
X67397729Y-85975932D01*
X67276649Y-85951847D01*
X66760000Y-85435199D01*
X66760000Y-79314801D01*
X67151649Y-78923153D01*
X67272729Y-78899068D01*
X67442889Y-78828586D01*
X67596028Y-78726262D01*
X67726262Y-78596028D01*
X67828586Y-78442889D01*
X67899068Y-78272729D01*
X67935000Y-78092089D01*
X67935000Y-77907911D01*
X67899068Y-77727271D01*
X67828586Y-77557111D01*
X67726262Y-77403972D01*
X67596028Y-77273738D01*
X67442889Y-77171414D01*
X67272729Y-77100932D01*
X67092089Y-77065000D01*
X66907911Y-77065000D01*
X66727271Y-77100932D01*
X66557111Y-77171414D01*
X66403972Y-77273738D01*
X66273738Y-77403972D01*
X66171414Y-77557111D01*
X66100932Y-77727271D01*
X66076847Y-77848351D01*
X65488998Y-78436201D01*
X65460000Y-78459999D01*
X65436202Y-78488997D01*
X65436201Y-78488998D01*
X65365026Y-78575724D01*
X65294454Y-78707754D01*
X65250998Y-78851015D01*
X65236324Y-79000000D01*
X65240001Y-79037332D01*
X65240001Y-81410857D01*
X65058363Y-81139017D01*
X64760983Y-80841637D01*
X64411302Y-80607988D01*
X64022756Y-80447047D01*
X63610279Y-80365000D01*
X63189721Y-80365000D01*
X62777244Y-80447047D01*
X62388698Y-80607988D01*
X62039017Y-80841637D01*
X61741637Y-81139017D01*
X61507988Y-81488698D01*
X61347047Y-81877244D01*
X61265000Y-82289721D01*
X56735000Y-82289721D01*
X56652953Y-81877244D01*
X56492012Y-81488698D01*
X56258363Y-81139017D01*
X55960983Y-80841637D01*
X55611302Y-80607988D01*
X55222756Y-80447047D01*
X54810279Y-80365000D01*
X54389721Y-80365000D01*
X53977244Y-80447047D01*
X53588698Y-80607988D01*
X53239017Y-80841637D01*
X52941637Y-81139017D01*
X52885000Y-81223780D01*
X52885000Y-73907911D01*
X71565000Y-73907911D01*
X71565000Y-74092089D01*
X71600932Y-74272729D01*
X71671414Y-74442889D01*
X71740001Y-74545537D01*
X71740000Y-87954465D01*
X71671414Y-88057111D01*
X71600932Y-88227271D01*
X71565000Y-88407911D01*
X71565000Y-88592089D01*
X71600932Y-88772729D01*
X71671414Y-88942889D01*
X71773738Y-89096028D01*
X71903972Y-89226262D01*
X72057111Y-89328586D01*
X72227271Y-89399068D01*
X72407911Y-89435000D01*
X72592089Y-89435000D01*
X72772729Y-89399068D01*
X72942889Y-89328586D01*
X73096028Y-89226262D01*
X73226262Y-89096028D01*
X73328586Y-88942889D01*
X73399068Y-88772729D01*
X73435000Y-88592089D01*
X73435000Y-88407911D01*
X73399068Y-88227271D01*
X73328586Y-88057111D01*
X73260000Y-87954465D01*
X73260000Y-74545535D01*
X73328586Y-74442889D01*
X73399068Y-74272729D01*
X73435000Y-74092089D01*
X73435000Y-73907911D01*
X73399068Y-73727271D01*
X73328586Y-73557111D01*
X73226262Y-73403972D01*
X73096028Y-73273738D01*
X72942889Y-73171414D01*
X72772729Y-73100932D01*
X72592089Y-73065000D01*
X72407911Y-73065000D01*
X72227271Y-73100932D01*
X72057111Y-73171414D01*
X71903972Y-73273738D01*
X71773738Y-73403972D01*
X71671414Y-73557111D01*
X71600932Y-73727271D01*
X71565000Y-73907911D01*
X52885000Y-73907911D01*
X52885000Y-56776220D01*
X52941637Y-56860983D01*
X53239017Y-57158363D01*
X53588698Y-57392012D01*
X53977244Y-57552953D01*
X54389721Y-57635000D01*
X54810279Y-57635000D01*
X55222756Y-57552953D01*
X55611302Y-57392012D01*
X55960983Y-57158363D01*
X56258363Y-56860983D01*
X56492012Y-56511302D01*
X56652953Y-56122756D01*
X56735000Y-55710279D01*
X56735000Y-55289721D01*
X56652953Y-54877244D01*
X56492012Y-54488698D01*
X56258363Y-54139017D01*
X55960983Y-53841637D01*
X55611302Y-53607988D01*
X55222756Y-53447047D01*
X54810279Y-53365000D01*
X54389721Y-53365000D01*
X53977244Y-53447047D01*
X53682405Y-53569173D01*
X55366579Y-51885000D01*
X56456531Y-51885000D01*
X56500000Y-51889281D01*
X56543469Y-51885000D01*
X56543477Y-51885000D01*
X56673490Y-51872195D01*
X56837633Y-51822402D01*
X56832500Y-51874514D01*
X56832500Y-52125485D01*
X56855470Y-52358703D01*
X56946245Y-52657948D01*
X57093655Y-52933734D01*
X57292037Y-53175463D01*
X57533765Y-53373845D01*
X57535000Y-53374505D01*
X57535001Y-57133421D01*
X57441582Y-57226840D01*
X57378441Y-57260589D01*
X57359676Y-57275989D01*
X57277453Y-57343468D01*
X57277451Y-57343470D01*
X57243683Y-57371183D01*
X57215970Y-57404951D01*
X56732545Y-57888377D01*
X56731204Y-57887970D01*
X56420000Y-57857319D01*
X56108797Y-57887970D01*
X55809552Y-57978745D01*
X55533766Y-58126155D01*
X55292037Y-58324537D01*
X55093655Y-58566265D01*
X54946245Y-58842051D01*
X54855470Y-59141296D01*
X54832500Y-59374514D01*
X54832500Y-59625485D01*
X54855470Y-59858703D01*
X54855877Y-59860044D01*
X53404956Y-61310966D01*
X53371183Y-61338683D01*
X53260589Y-61473442D01*
X53178411Y-61627188D01*
X53162199Y-61680631D01*
X53134208Y-61772905D01*
X53127805Y-61794011D01*
X53115000Y-61924024D01*
X53115000Y-61924031D01*
X53110719Y-61967500D01*
X53115000Y-62010970D01*
X53115001Y-63456521D01*
X53110719Y-63500000D01*
X53127805Y-63673490D01*
X53178412Y-63840313D01*
X53260590Y-63994059D01*
X53343468Y-64095046D01*
X53343469Y-64095047D01*
X53371184Y-64128817D01*
X53404951Y-64156529D01*
X54843470Y-65595049D01*
X54871183Y-65628817D01*
X54904951Y-65656530D01*
X54904953Y-65656532D01*
X54949254Y-65692889D01*
X55005941Y-65739411D01*
X55159687Y-65821589D01*
X55326510Y-65872195D01*
X55456523Y-65885000D01*
X55456533Y-65885000D01*
X55499999Y-65889281D01*
X55543465Y-65885000D01*
X62456531Y-65885000D01*
X62500000Y-65889281D01*
X62543469Y-65885000D01*
X62543477Y-65885000D01*
X62673490Y-65872195D01*
X62840313Y-65821589D01*
X62994059Y-65739411D01*
X63128817Y-65628817D01*
X63156534Y-65595044D01*
X64595050Y-64156529D01*
X64628817Y-64128817D01*
X64656533Y-64095046D01*
X64739410Y-63994060D01*
X64739411Y-63994059D01*
X64821589Y-63840313D01*
X64872195Y-63673490D01*
X64885000Y-63543477D01*
X64885000Y-63543467D01*
X64889281Y-63500001D01*
X64885000Y-63456535D01*
X64885000Y-60066578D01*
X66476989Y-58474590D01*
X66498815Y-58501185D01*
X66595506Y-58580537D01*
X66705820Y-58639502D01*
X66801943Y-58668661D01*
X66635363Y-58835241D01*
X66478320Y-59070273D01*
X66370147Y-59331426D01*
X66315000Y-59608665D01*
X66315000Y-59891335D01*
X66370147Y-60168574D01*
X66478320Y-60429727D01*
X66615000Y-60634284D01*
X66615001Y-64944239D01*
X66609509Y-65000000D01*
X66631423Y-65222498D01*
X66696324Y-65436446D01*
X66696325Y-65436447D01*
X66801717Y-65633623D01*
X66943552Y-65806449D01*
X66986858Y-65841990D01*
X67111857Y-65966989D01*
X67111863Y-65966994D01*
X74115001Y-72970133D01*
X74115000Y-77194248D01*
X74109509Y-77250000D01*
X74115000Y-77305751D01*
X74131423Y-77472498D01*
X74196324Y-77686446D01*
X74301716Y-77883623D01*
X74443551Y-78056449D01*
X74486865Y-78091996D01*
X77832980Y-81438112D01*
X77765000Y-81779872D01*
X77765000Y-82220128D01*
X77850890Y-82651925D01*
X78019369Y-83058669D01*
X78263962Y-83424729D01*
X78575271Y-83736038D01*
X78941331Y-83980631D01*
X79348075Y-84149110D01*
X79779872Y-84235000D01*
X80220128Y-84235000D01*
X80651925Y-84149110D01*
X81058669Y-83980631D01*
X81165001Y-83909582D01*
X81165002Y-84790418D01*
X81058669Y-84719369D01*
X80651925Y-84550890D01*
X80220128Y-84465000D01*
X79779872Y-84465000D01*
X79348075Y-84550890D01*
X78941331Y-84719369D01*
X78575271Y-84963962D01*
X78263962Y-85275271D01*
X78019369Y-85641331D01*
X77850890Y-86048075D01*
X77765000Y-86479872D01*
X77765000Y-86920128D01*
X77850890Y-87351925D01*
X78019369Y-87758669D01*
X78263962Y-88124729D01*
X78575271Y-88436038D01*
X78941331Y-88680631D01*
X79348075Y-88849110D01*
X79607222Y-88900658D01*
X79557111Y-88921414D01*
X79403972Y-89023738D01*
X79273738Y-89153972D01*
X79171414Y-89307111D01*
X79100932Y-89477271D01*
X79065000Y-89657911D01*
X79065000Y-89842089D01*
X79100932Y-90022729D01*
X79171414Y-90192889D01*
X79273738Y-90346028D01*
X79403972Y-90476262D01*
X79557111Y-90578586D01*
X79727271Y-90649068D01*
X79907911Y-90685000D01*
X80092089Y-90685000D01*
X80272729Y-90649068D01*
X80442889Y-90578586D01*
X80596028Y-90476262D01*
X80726262Y-90346028D01*
X80828586Y-90192889D01*
X80899068Y-90022729D01*
X80923153Y-89901648D01*
X82436004Y-88388798D01*
X82465002Y-88365000D01*
X82559975Y-88249275D01*
X82630547Y-88117246D01*
X82674004Y-87973985D01*
X82685001Y-87862332D01*
X82685001Y-87862322D01*
X82688677Y-87824999D01*
X82685001Y-87787676D01*
X82685001Y-81113324D01*
X82688677Y-81075999D01*
X82685001Y-81038674D01*
X82685001Y-81038666D01*
X82674004Y-80927013D01*
X82630547Y-80783752D01*
X82559975Y-80651723D01*
X82465002Y-80535998D01*
X82436005Y-80512201D01*
X81162806Y-79239003D01*
X81147989Y-79220949D01*
X81424729Y-79036038D01*
X81736038Y-78724729D01*
X81980631Y-78358669D01*
X82149110Y-77951925D01*
X82235000Y-77520128D01*
X82235000Y-77079872D01*
X82149110Y-76648075D01*
X81980631Y-76241331D01*
X81736038Y-75875271D01*
X81424729Y-75563962D01*
X81058669Y-75319369D01*
X80651925Y-75150890D01*
X80220128Y-75065000D01*
X79779872Y-75065000D01*
X79348075Y-75150890D01*
X78941331Y-75319369D01*
X78575271Y-75563962D01*
X78263962Y-75875271D01*
X78019369Y-76241331D01*
X77850890Y-76648075D01*
X77804930Y-76879131D01*
X77510000Y-76584201D01*
X77510000Y-72870585D01*
X77513676Y-72833260D01*
X77510000Y-72795935D01*
X77510000Y-72795927D01*
X77499003Y-72684274D01*
X77455546Y-72541013D01*
X77384974Y-72408984D01*
X77290001Y-72293259D01*
X77261004Y-72269462D01*
X74696037Y-69704495D01*
X79265000Y-69704495D01*
X79265000Y-70095505D01*
X79341282Y-70479003D01*
X79490915Y-70840250D01*
X79708149Y-71165364D01*
X79984636Y-71441851D01*
X80309750Y-71659085D01*
X80670997Y-71808718D01*
X81054495Y-71885000D01*
X81445505Y-71885000D01*
X81829003Y-71808718D01*
X82190250Y-71659085D01*
X82515364Y-71441851D01*
X82791851Y-71165364D01*
X83009085Y-70840250D01*
X83158718Y-70479003D01*
X83235000Y-70095505D01*
X83235000Y-69704495D01*
X83158718Y-69320997D01*
X83009085Y-68959750D01*
X82791851Y-68634636D01*
X82515364Y-68358149D01*
X82190250Y-68140915D01*
X81829003Y-67991282D01*
X81445505Y-67915000D01*
X81054495Y-67915000D01*
X80670997Y-67991282D01*
X80309750Y-68140915D01*
X79984636Y-68358149D01*
X79708149Y-68634636D01*
X79490915Y-68959750D01*
X79341282Y-69320997D01*
X79265000Y-69704495D01*
X74696037Y-69704495D01*
X73079331Y-68087790D01*
X73227271Y-68149068D01*
X73407911Y-68185000D01*
X73592089Y-68185000D01*
X73772729Y-68149068D01*
X73942889Y-68078586D01*
X74045535Y-68010000D01*
X78954465Y-68010000D01*
X79057111Y-68078586D01*
X79227271Y-68149068D01*
X79407911Y-68185000D01*
X79592089Y-68185000D01*
X79772729Y-68149068D01*
X79942889Y-68078586D01*
X80096028Y-67976262D01*
X80226262Y-67846028D01*
X80328586Y-67692889D01*
X80399068Y-67522729D01*
X80435000Y-67342089D01*
X80435000Y-67157911D01*
X80399068Y-66977271D01*
X80328586Y-66807111D01*
X80226262Y-66653972D01*
X80096028Y-66523738D01*
X79942889Y-66421414D01*
X79772729Y-66350932D01*
X79592089Y-66315000D01*
X79407911Y-66315000D01*
X79227271Y-66350932D01*
X79057111Y-66421414D01*
X78954465Y-66490000D01*
X74045535Y-66490000D01*
X73942889Y-66421414D01*
X73772729Y-66350932D01*
X73592089Y-66315000D01*
X73407911Y-66315000D01*
X73227271Y-66350932D01*
X73057111Y-66421414D01*
X72903972Y-66523738D01*
X72773738Y-66653972D01*
X72671414Y-66807111D01*
X72600932Y-66977271D01*
X72565000Y-67157911D01*
X72565000Y-67342089D01*
X72600932Y-67522729D01*
X72662210Y-67670669D01*
X71260000Y-66268459D01*
X71260000Y-65795535D01*
X71328586Y-65692889D01*
X71399068Y-65522729D01*
X71435000Y-65342089D01*
X71435000Y-65157911D01*
X71399068Y-64977271D01*
X71328586Y-64807111D01*
X71226262Y-64653972D01*
X71096028Y-64523738D01*
X70942889Y-64421414D01*
X70772729Y-64350932D01*
X70592089Y-64315000D01*
X70407911Y-64315000D01*
X70227271Y-64350932D01*
X70057111Y-64421414D01*
X69903972Y-64523738D01*
X69773738Y-64653972D01*
X69671414Y-64807111D01*
X69600932Y-64977271D01*
X69565000Y-65157911D01*
X69565000Y-65209869D01*
X68885000Y-64529869D01*
X68885000Y-60634284D01*
X69021680Y-60429727D01*
X69129853Y-60168574D01*
X69185000Y-59891335D01*
X69185000Y-59608665D01*
X69129853Y-59331426D01*
X69021680Y-59070273D01*
X68864637Y-58835241D01*
X68698057Y-58668661D01*
X68794180Y-58639502D01*
X68904494Y-58580537D01*
X69001185Y-58501185D01*
X69080537Y-58404494D01*
X69139502Y-58294180D01*
X69175812Y-58174482D01*
X69188072Y-58050000D01*
X69188072Y-56450000D01*
X69183148Y-56400000D01*
X72261928Y-56400000D01*
X72261928Y-58600000D01*
X72274188Y-58724482D01*
X72310498Y-58844180D01*
X72369463Y-58954494D01*
X72448815Y-59051185D01*
X72545506Y-59130537D01*
X72655820Y-59189502D01*
X72775518Y-59225812D01*
X72900000Y-59238072D01*
X75100000Y-59238072D01*
X75224482Y-59225812D01*
X75344180Y-59189502D01*
X75454494Y-59130537D01*
X75551185Y-59051185D01*
X75630537Y-58954494D01*
X75689502Y-58844180D01*
X75725812Y-58724482D01*
X75738072Y-58600000D01*
X75738072Y-56400000D01*
X75725812Y-56275518D01*
X75689502Y-56155820D01*
X75630537Y-56045506D01*
X75551185Y-55948815D01*
X75454494Y-55869463D01*
X75344180Y-55810498D01*
X75224482Y-55774188D01*
X75100000Y-55761928D01*
X72900000Y-55761928D01*
X72775518Y-55774188D01*
X72655820Y-55810498D01*
X72545506Y-55869463D01*
X72448815Y-55948815D01*
X72369463Y-56045506D01*
X72310498Y-56155820D01*
X72274188Y-56275518D01*
X72261928Y-56400000D01*
X69183148Y-56400000D01*
X69175812Y-56325518D01*
X69139502Y-56205820D01*
X69080537Y-56095506D01*
X69001185Y-55998815D01*
X68904494Y-55919463D01*
X68794180Y-55860498D01*
X68674482Y-55824188D01*
X68550000Y-55811928D01*
X66950000Y-55811928D01*
X66825518Y-55824188D01*
X66705820Y-55860498D01*
X66595506Y-55919463D01*
X66498815Y-55998815D01*
X66419463Y-56095506D01*
X66360498Y-56205820D01*
X66324188Y-56325518D01*
X66319455Y-56373575D01*
X66276510Y-56377805D01*
X66235001Y-56390397D01*
X66235001Y-54779872D01*
X77765000Y-54779872D01*
X77765000Y-55220128D01*
X77850890Y-55651925D01*
X78019369Y-56058669D01*
X78263962Y-56424729D01*
X78575271Y-56736038D01*
X78941331Y-56980631D01*
X79348075Y-57149110D01*
X79779872Y-57235000D01*
X80220128Y-57235000D01*
X80651925Y-57149110D01*
X81058669Y-56980631D01*
X81424729Y-56736038D01*
X81736038Y-56424729D01*
X81980631Y-56058669D01*
X82149110Y-55651925D01*
X82235000Y-55220128D01*
X82235000Y-54843891D01*
X85875000Y-54843891D01*
X85875000Y-55156109D01*
X85935911Y-55462327D01*
X86055391Y-55750779D01*
X86228850Y-56010379D01*
X86449621Y-56231150D01*
X86709221Y-56404609D01*
X86997673Y-56524089D01*
X87303891Y-56585000D01*
X87616109Y-56585000D01*
X87922327Y-56524089D01*
X88210779Y-56404609D01*
X88458877Y-56238836D01*
X88460498Y-56244180D01*
X88519463Y-56354494D01*
X88598815Y-56451185D01*
X88695506Y-56530537D01*
X88805820Y-56589502D01*
X88925518Y-56625812D01*
X89050000Y-56638072D01*
X89714250Y-56635000D01*
X89873000Y-56476250D01*
X89873000Y-55127000D01*
X90127000Y-55127000D01*
X90127000Y-56476250D01*
X90285750Y-56635000D01*
X90950000Y-56638072D01*
X91074482Y-56625812D01*
X91194180Y-56589502D01*
X91304494Y-56530537D01*
X91401185Y-56451185D01*
X91480537Y-56354494D01*
X91539502Y-56244180D01*
X91575812Y-56124482D01*
X91588072Y-56000000D01*
X91585018Y-55289721D01*
X94465000Y-55289721D01*
X94465000Y-55710279D01*
X94547047Y-56122756D01*
X94707988Y-56511302D01*
X94941637Y-56860983D01*
X95239017Y-57158363D01*
X95588698Y-57392012D01*
X95977244Y-57552953D01*
X96389721Y-57635000D01*
X96810279Y-57635000D01*
X97222756Y-57552953D01*
X97611302Y-57392012D01*
X97960983Y-57158363D01*
X98258363Y-56860983D01*
X98492012Y-56511302D01*
X98652953Y-56122756D01*
X98735000Y-55710279D01*
X98735000Y-55499843D01*
X100179762Y-55499843D01*
X100252556Y-55744832D01*
X100509773Y-55866733D01*
X100785829Y-55936110D01*
X101070115Y-55950298D01*
X101351706Y-55908752D01*
X101619783Y-55813068D01*
X101747444Y-55744832D01*
X101820238Y-55499843D01*
X101000000Y-54679605D01*
X100179762Y-55499843D01*
X98735000Y-55499843D01*
X98735000Y-55289721D01*
X98652953Y-54877244D01*
X98525737Y-54570115D01*
X99549702Y-54570115D01*
X99591248Y-54851706D01*
X99686932Y-55119783D01*
X99755168Y-55247444D01*
X100000157Y-55320238D01*
X100820395Y-54500000D01*
X101179605Y-54500000D01*
X101999843Y-55320238D01*
X102244832Y-55247444D01*
X102366733Y-54990227D01*
X102436110Y-54714171D01*
X102450298Y-54429885D01*
X102408752Y-54148294D01*
X102313068Y-53880217D01*
X102244832Y-53752556D01*
X101999843Y-53679762D01*
X101179605Y-54500000D01*
X100820395Y-54500000D01*
X100000157Y-53679762D01*
X99755168Y-53752556D01*
X99633267Y-54009773D01*
X99563890Y-54285829D01*
X99549702Y-54570115D01*
X98525737Y-54570115D01*
X98492012Y-54488698D01*
X98258363Y-54139017D01*
X97960983Y-53841637D01*
X97611302Y-53607988D01*
X97350975Y-53500157D01*
X100179762Y-53500157D01*
X101000000Y-54320395D01*
X101820238Y-53500157D01*
X101747444Y-53255168D01*
X101490227Y-53133267D01*
X101214171Y-53063890D01*
X100929885Y-53049702D01*
X100648294Y-53091248D01*
X100380217Y-53186932D01*
X100252556Y-53255168D01*
X100179762Y-53500157D01*
X97350975Y-53500157D01*
X97222756Y-53447047D01*
X96810279Y-53365000D01*
X96389721Y-53365000D01*
X95977244Y-53447047D01*
X95588698Y-53607988D01*
X95239017Y-53841637D01*
X94941637Y-54139017D01*
X94707988Y-54488698D01*
X94547047Y-54877244D01*
X94465000Y-55289721D01*
X91585018Y-55289721D01*
X91585000Y-55285750D01*
X91426250Y-55127000D01*
X90127000Y-55127000D01*
X89873000Y-55127000D01*
X89853000Y-55127000D01*
X89853000Y-54873000D01*
X89873000Y-54873000D01*
X89873000Y-53523750D01*
X90127000Y-53523750D01*
X90127000Y-54873000D01*
X91426250Y-54873000D01*
X91585000Y-54714250D01*
X91588072Y-54000000D01*
X91575812Y-53875518D01*
X91539502Y-53755820D01*
X91480537Y-53645506D01*
X91401185Y-53548815D01*
X91304494Y-53469463D01*
X91194180Y-53410498D01*
X91074482Y-53374188D01*
X90950000Y-53361928D01*
X90285750Y-53365000D01*
X90127000Y-53523750D01*
X89873000Y-53523750D01*
X89714250Y-53365000D01*
X89050000Y-53361928D01*
X88925518Y-53374188D01*
X88805820Y-53410498D01*
X88695506Y-53469463D01*
X88598815Y-53548815D01*
X88519463Y-53645506D01*
X88460498Y-53755820D01*
X88458877Y-53761164D01*
X88210779Y-53595391D01*
X87922327Y-53475911D01*
X87616109Y-53415000D01*
X87303891Y-53415000D01*
X86997673Y-53475911D01*
X86709221Y-53595391D01*
X86449621Y-53768850D01*
X86228850Y-53989621D01*
X86055391Y-54249221D01*
X85935911Y-54537673D01*
X85875000Y-54843891D01*
X82235000Y-54843891D01*
X82235000Y-54779872D01*
X82149110Y-54348075D01*
X81980631Y-53941331D01*
X81736038Y-53575271D01*
X81424729Y-53263962D01*
X81058669Y-53019369D01*
X80651925Y-52850890D01*
X80220128Y-52765000D01*
X79779872Y-52765000D01*
X79348075Y-52850890D01*
X78941331Y-53019369D01*
X78575271Y-53263962D01*
X78263962Y-53575271D01*
X78019369Y-53941331D01*
X77850890Y-54348075D01*
X77765000Y-54779872D01*
X66235001Y-54779872D01*
X66235001Y-53940970D01*
X66239282Y-53897501D01*
X66235001Y-53854032D01*
X66235001Y-53854024D01*
X66222196Y-53724011D01*
X66201724Y-53656524D01*
X66171590Y-53557187D01*
X66089412Y-53403442D01*
X66006533Y-53302454D01*
X66006531Y-53302452D01*
X65978818Y-53268684D01*
X65945050Y-53240971D01*
X65090572Y-52386493D01*
X65090572Y-51000000D01*
X65078312Y-50875518D01*
X65042002Y-50755820D01*
X64983037Y-50645506D01*
X64903685Y-50548815D01*
X64806994Y-50469463D01*
X64696680Y-50410498D01*
X64576982Y-50374188D01*
X64452500Y-50361928D01*
X62547500Y-50361928D01*
X62423018Y-50374188D01*
X62303320Y-50410498D01*
X62193006Y-50469463D01*
X62096315Y-50548815D01*
X62016963Y-50645506D01*
X61967941Y-50737219D01*
X61826923Y-50624031D01*
X61551094Y-50480429D01*
X61332980Y-50409437D01*
X61087000Y-50529406D01*
X61087000Y-51873000D01*
X61107000Y-51873000D01*
X61107000Y-52127000D01*
X61087000Y-52127000D01*
X61087000Y-53470594D01*
X61332980Y-53590563D01*
X61551094Y-53519571D01*
X61826923Y-53375969D01*
X61967941Y-53262781D01*
X62016963Y-53354494D01*
X62096315Y-53451185D01*
X62193006Y-53530537D01*
X62303320Y-53589502D01*
X62381068Y-53613086D01*
X62039017Y-53841637D01*
X61741637Y-54139017D01*
X61507988Y-54488698D01*
X61347047Y-54877244D01*
X61265000Y-55289721D01*
X61265000Y-55710279D01*
X61347047Y-56122756D01*
X61507988Y-56511302D01*
X61741637Y-56860983D01*
X62039017Y-57158363D01*
X62388698Y-57392012D01*
X62777244Y-57552953D01*
X63189721Y-57635000D01*
X63565921Y-57635000D01*
X63008249Y-58192673D01*
X62983037Y-58145506D01*
X62903685Y-58048815D01*
X62806994Y-57969463D01*
X62696680Y-57910498D01*
X62576982Y-57874188D01*
X62452500Y-57861928D01*
X60547500Y-57861928D01*
X60423018Y-57874188D01*
X60303320Y-57910498D01*
X60193006Y-57969463D01*
X60096315Y-58048815D01*
X60016963Y-58145506D01*
X59972095Y-58229446D01*
X59846235Y-58126155D01*
X59570449Y-57978745D01*
X59271204Y-57887970D01*
X59218871Y-57882816D01*
X59241589Y-57840313D01*
X59292195Y-57673490D01*
X59305000Y-57543477D01*
X59305000Y-57543469D01*
X59309281Y-57500000D01*
X59305000Y-57456531D01*
X59305000Y-53374505D01*
X59306234Y-53373845D01*
X59547963Y-53175463D01*
X59695163Y-52996101D01*
X59850563Y-53181315D01*
X60093077Y-53375969D01*
X60368906Y-53519571D01*
X60587020Y-53590563D01*
X60833000Y-53470594D01*
X60833000Y-52127000D01*
X60813000Y-52127000D01*
X60813000Y-51873000D01*
X60833000Y-51873000D01*
X60833000Y-50529406D01*
X60587020Y-50409437D01*
X60368906Y-50480429D01*
X60093077Y-50624031D01*
X59850563Y-50818685D01*
X59695162Y-51003900D01*
X59547963Y-50824537D01*
X59306235Y-50626155D01*
X59030449Y-50478745D01*
X58731204Y-50387970D01*
X58420000Y-50357319D01*
X58391447Y-50360131D01*
X59866579Y-48885000D01*
X72572105Y-48885000D01*
X72550421Y-48911422D01*
G36*
X63115000Y-63133421D02*
G01*
X62133422Y-64115000D01*
X55866579Y-64115000D01*
X55315659Y-63564080D01*
X55615525Y-63564080D01*
X55699208Y-63818261D01*
X55971775Y-63949158D01*
X56264642Y-64024365D01*
X56566553Y-64040991D01*
X56865907Y-63998397D01*
X57151199Y-63898222D01*
X57300792Y-63818261D01*
X57384475Y-63564080D01*
X56500000Y-62679605D01*
X55615525Y-63564080D01*
X55315659Y-63564080D01*
X54885000Y-63133422D01*
X54885000Y-62334078D01*
X54982960Y-62236118D01*
X54975635Y-62264642D01*
X54959009Y-62566553D01*
X55001603Y-62865907D01*
X55101778Y-63151199D01*
X55181739Y-63300792D01*
X55435920Y-63384475D01*
X56320395Y-62500000D01*
X56306253Y-62485858D01*
X56485858Y-62306253D01*
X56500000Y-62320395D01*
X57384475Y-61435920D01*
X57300792Y-61181739D01*
X57028225Y-61050842D01*
X56976608Y-61037587D01*
X57030448Y-61021255D01*
X57306234Y-60873845D01*
X57547963Y-60675463D01*
X57690000Y-60502391D01*
X57832037Y-60675463D01*
X58073765Y-60873845D01*
X58349551Y-61021255D01*
X58470374Y-61057906D01*
X58272905Y-61139701D01*
X58021495Y-61307688D01*
X57807688Y-61521495D01*
X57712262Y-61664310D01*
X57564080Y-61615525D01*
X56679605Y-62500000D01*
X57564080Y-63384475D01*
X57712262Y-63335690D01*
X57807688Y-63478505D01*
X58021495Y-63692312D01*
X58272905Y-63860299D01*
X58552257Y-63976011D01*
X58848816Y-64035000D01*
X59151184Y-64035000D01*
X59447743Y-63976011D01*
X59727095Y-63860299D01*
X59978505Y-63692312D01*
X60192312Y-63478505D01*
X60250000Y-63392169D01*
X60307688Y-63478505D01*
X60521495Y-63692312D01*
X60772905Y-63860299D01*
X61052257Y-63976011D01*
X61348816Y-64035000D01*
X61651184Y-64035000D01*
X61947743Y-63976011D01*
X62227095Y-63860299D01*
X62478505Y-63692312D01*
X62692312Y-63478505D01*
X62860299Y-63227095D01*
X62976011Y-62947743D01*
X63035000Y-62651184D01*
X63035000Y-62348816D01*
X62976011Y-62052257D01*
X62860299Y-61772905D01*
X62692312Y-61521495D01*
X62478505Y-61307688D01*
X62227095Y-61139701D01*
X62223162Y-61138072D01*
X62452500Y-61138072D01*
X62576982Y-61125812D01*
X62696680Y-61089502D01*
X62806994Y-61030537D01*
X62903685Y-60951185D01*
X62983037Y-60854494D01*
X63042002Y-60744180D01*
X63078312Y-60624482D01*
X63090572Y-60500000D01*
X63090572Y-60375683D01*
X63115001Y-60373277D01*
X63115000Y-63133421D01*
X63115000Y-63133421D01*
G37*
X63115000Y-63133421D02*
X62133422Y-64115000D01*
X55866579Y-64115000D01*
X55315659Y-63564080D01*
X55615525Y-63564080D01*
X55699208Y-63818261D01*
X55971775Y-63949158D01*
X56264642Y-64024365D01*
X56566553Y-64040991D01*
X56865907Y-63998397D01*
X57151199Y-63898222D01*
X57300792Y-63818261D01*
X57384475Y-63564080D01*
X56500000Y-62679605D01*
X55615525Y-63564080D01*
X55315659Y-63564080D01*
X54885000Y-63133422D01*
X54885000Y-62334078D01*
X54982960Y-62236118D01*
X54975635Y-62264642D01*
X54959009Y-62566553D01*
X55001603Y-62865907D01*
X55101778Y-63151199D01*
X55181739Y-63300792D01*
X55435920Y-63384475D01*
X56320395Y-62500000D01*
X56306253Y-62485858D01*
X56485858Y-62306253D01*
X56500000Y-62320395D01*
X57384475Y-61435920D01*
X57300792Y-61181739D01*
X57028225Y-61050842D01*
X56976608Y-61037587D01*
X57030448Y-61021255D01*
X57306234Y-60873845D01*
X57547963Y-60675463D01*
X57690000Y-60502391D01*
X57832037Y-60675463D01*
X58073765Y-60873845D01*
X58349551Y-61021255D01*
X58470374Y-61057906D01*
X58272905Y-61139701D01*
X58021495Y-61307688D01*
X57807688Y-61521495D01*
X57712262Y-61664310D01*
X57564080Y-61615525D01*
X56679605Y-62500000D01*
X57564080Y-63384475D01*
X57712262Y-63335690D01*
X57807688Y-63478505D01*
X58021495Y-63692312D01*
X58272905Y-63860299D01*
X58552257Y-63976011D01*
X58848816Y-64035000D01*
X59151184Y-64035000D01*
X59447743Y-63976011D01*
X59727095Y-63860299D01*
X59978505Y-63692312D01*
X60192312Y-63478505D01*
X60250000Y-63392169D01*
X60307688Y-63478505D01*
X60521495Y-63692312D01*
X60772905Y-63860299D01*
X61052257Y-63976011D01*
X61348816Y-64035000D01*
X61651184Y-64035000D01*
X61947743Y-63976011D01*
X62227095Y-63860299D01*
X62478505Y-63692312D01*
X62692312Y-63478505D01*
X62860299Y-63227095D01*
X62976011Y-62947743D01*
X63035000Y-62651184D01*
X63035000Y-62348816D01*
X62976011Y-62052257D01*
X62860299Y-61772905D01*
X62692312Y-61521495D01*
X62478505Y-61307688D01*
X62227095Y-61139701D01*
X62223162Y-61138072D01*
X62452500Y-61138072D01*
X62576982Y-61125812D01*
X62696680Y-61089502D01*
X62806994Y-61030537D01*
X62903685Y-60951185D01*
X62983037Y-60854494D01*
X63042002Y-60744180D01*
X63078312Y-60624482D01*
X63090572Y-60500000D01*
X63090572Y-60375683D01*
X63115001Y-60373277D01*
X63115000Y-63133421D01*
M02*
