G04 #@! TF.GenerationSoftware,KiCad,Pcbnew,(5.1.2-1)-1*
G04 #@! TF.CreationDate,2019-12-27T17:04:05-07:00*
G04 #@! TF.ProjectId,NuisanceEngine,4e756973-616e-4636-9545-6e67696e652e,rev?*
G04 #@! TF.SameCoordinates,Original*
G04 #@! TF.FileFunction,Soldermask,Top*
G04 #@! TF.FilePolarity,Negative*
%FSLAX46Y46*%
G04 Gerber Fmt 4.6, Leading zero omitted, Abs format (unit mm)*
G04 Created by KiCad (PCBNEW (5.1.2-1)-1) date 2019-12-27 17:04:05*
%MOMM*%
%LPD*%
G04 APERTURE LIST*
%ADD10C,0.100000*%
G04 APERTURE END LIST*
D10*
G36*
X92168707Y-96957596D02*
G01*
X92245836Y-96965193D01*
X92443762Y-97025233D01*
X92443765Y-97025234D01*
X92626170Y-97122732D01*
X92786055Y-97253945D01*
X92917268Y-97413830D01*
X93014766Y-97596235D01*
X93014767Y-97596238D01*
X93074807Y-97794164D01*
X93095080Y-98000000D01*
X93074807Y-98205836D01*
X93014767Y-98403762D01*
X93014766Y-98403765D01*
X92917268Y-98586170D01*
X92786055Y-98746055D01*
X92626170Y-98877268D01*
X92443765Y-98974766D01*
X92443762Y-98974767D01*
X92245836Y-99034807D01*
X92168707Y-99042403D01*
X92091580Y-99050000D01*
X91988420Y-99050000D01*
X91911293Y-99042403D01*
X91834164Y-99034807D01*
X91636238Y-98974767D01*
X91636235Y-98974766D01*
X91453830Y-98877268D01*
X91293945Y-98746055D01*
X91162732Y-98586170D01*
X91065234Y-98403765D01*
X91065233Y-98403762D01*
X91005193Y-98205836D01*
X90984920Y-98000000D01*
X91005193Y-97794164D01*
X91065233Y-97596238D01*
X91065234Y-97596235D01*
X91162732Y-97413830D01*
X91293945Y-97253945D01*
X91453830Y-97122732D01*
X91636235Y-97025234D01*
X91636238Y-97025233D01*
X91834164Y-96965193D01*
X91911293Y-96957596D01*
X91988420Y-96950000D01*
X92091580Y-96950000D01*
X92168707Y-96957596D01*
X92168707Y-96957596D01*
G37*
G36*
X90550000Y-99050000D02*
G01*
X88450000Y-99050000D01*
X88450000Y-96950000D01*
X90550000Y-96950000D01*
X90550000Y-99050000D01*
X90550000Y-99050000D01*
G37*
G36*
X86668707Y-96957596D02*
G01*
X86745836Y-96965193D01*
X86943762Y-97025233D01*
X86943765Y-97025234D01*
X87126170Y-97122732D01*
X87286055Y-97253945D01*
X87417268Y-97413830D01*
X87514766Y-97596235D01*
X87514767Y-97596238D01*
X87574807Y-97794164D01*
X87595080Y-98000000D01*
X87574807Y-98205836D01*
X87514767Y-98403762D01*
X87514766Y-98403765D01*
X87417268Y-98586170D01*
X87286055Y-98746055D01*
X87126170Y-98877268D01*
X86943765Y-98974766D01*
X86943762Y-98974767D01*
X86745836Y-99034807D01*
X86668707Y-99042403D01*
X86591580Y-99050000D01*
X86488420Y-99050000D01*
X86411293Y-99042403D01*
X86334164Y-99034807D01*
X86136238Y-98974767D01*
X86136235Y-98974766D01*
X85953830Y-98877268D01*
X85793945Y-98746055D01*
X85662732Y-98586170D01*
X85565234Y-98403765D01*
X85565233Y-98403762D01*
X85505193Y-98205836D01*
X85484920Y-98000000D01*
X85505193Y-97794164D01*
X85565233Y-97596238D01*
X85565234Y-97596235D01*
X85662732Y-97413830D01*
X85793945Y-97253945D01*
X85953830Y-97122732D01*
X86136235Y-97025234D01*
X86136238Y-97025233D01*
X86334164Y-96965193D01*
X86411293Y-96957596D01*
X86488420Y-96950000D01*
X86591580Y-96950000D01*
X86668707Y-96957596D01*
X86668707Y-96957596D01*
G37*
G36*
X84128707Y-96957596D02*
G01*
X84205836Y-96965193D01*
X84403762Y-97025233D01*
X84403765Y-97025234D01*
X84586170Y-97122732D01*
X84746055Y-97253945D01*
X84877268Y-97413830D01*
X84974766Y-97596235D01*
X84974767Y-97596238D01*
X85034807Y-97794164D01*
X85055080Y-98000000D01*
X85034807Y-98205836D01*
X84974767Y-98403762D01*
X84974766Y-98403765D01*
X84877268Y-98586170D01*
X84746055Y-98746055D01*
X84586170Y-98877268D01*
X84403765Y-98974766D01*
X84403762Y-98974767D01*
X84205836Y-99034807D01*
X84128707Y-99042403D01*
X84051580Y-99050000D01*
X83948420Y-99050000D01*
X83871293Y-99042403D01*
X83794164Y-99034807D01*
X83596238Y-98974767D01*
X83596235Y-98974766D01*
X83413830Y-98877268D01*
X83253945Y-98746055D01*
X83122732Y-98586170D01*
X83025234Y-98403765D01*
X83025233Y-98403762D01*
X82965193Y-98205836D01*
X82944920Y-98000000D01*
X82965193Y-97794164D01*
X83025233Y-97596238D01*
X83025234Y-97596235D01*
X83122732Y-97413830D01*
X83253945Y-97253945D01*
X83413830Y-97122732D01*
X83596235Y-97025234D01*
X83596238Y-97025233D01*
X83794164Y-96965193D01*
X83871293Y-96957596D01*
X83948420Y-96950000D01*
X84051580Y-96950000D01*
X84128707Y-96957596D01*
X84128707Y-96957596D01*
G37*
G36*
X82510000Y-99050000D02*
G01*
X80410000Y-99050000D01*
X80410000Y-96950000D01*
X82510000Y-96950000D01*
X82510000Y-99050000D01*
X82510000Y-99050000D01*
G37*
G36*
X78668707Y-96957596D02*
G01*
X78745836Y-96965193D01*
X78943762Y-97025233D01*
X78943765Y-97025234D01*
X79126170Y-97122732D01*
X79286055Y-97253945D01*
X79417268Y-97413830D01*
X79514766Y-97596235D01*
X79514767Y-97596238D01*
X79574807Y-97794164D01*
X79595080Y-98000000D01*
X79574807Y-98205836D01*
X79514767Y-98403762D01*
X79514766Y-98403765D01*
X79417268Y-98586170D01*
X79286055Y-98746055D01*
X79126170Y-98877268D01*
X78943765Y-98974766D01*
X78943762Y-98974767D01*
X78745836Y-99034807D01*
X78668707Y-99042403D01*
X78591580Y-99050000D01*
X78488420Y-99050000D01*
X78411293Y-99042403D01*
X78334164Y-99034807D01*
X78136238Y-98974767D01*
X78136235Y-98974766D01*
X77953830Y-98877268D01*
X77793945Y-98746055D01*
X77662732Y-98586170D01*
X77565234Y-98403765D01*
X77565233Y-98403762D01*
X77505193Y-98205836D01*
X77484920Y-98000000D01*
X77505193Y-97794164D01*
X77565233Y-97596238D01*
X77565234Y-97596235D01*
X77662732Y-97413830D01*
X77793945Y-97253945D01*
X77953830Y-97122732D01*
X78136235Y-97025234D01*
X78136238Y-97025233D01*
X78334164Y-96965193D01*
X78411293Y-96957596D01*
X78488420Y-96950000D01*
X78591580Y-96950000D01*
X78668707Y-96957596D01*
X78668707Y-96957596D01*
G37*
G36*
X77050000Y-99050000D02*
G01*
X74950000Y-99050000D01*
X74950000Y-96950000D01*
X77050000Y-96950000D01*
X77050000Y-99050000D01*
X77050000Y-99050000D01*
G37*
G36*
X73208707Y-96957596D02*
G01*
X73285836Y-96965193D01*
X73483762Y-97025233D01*
X73483765Y-97025234D01*
X73666170Y-97122732D01*
X73826055Y-97253945D01*
X73957268Y-97413830D01*
X74054766Y-97596235D01*
X74054767Y-97596238D01*
X74114807Y-97794164D01*
X74135080Y-98000000D01*
X74114807Y-98205836D01*
X74054767Y-98403762D01*
X74054766Y-98403765D01*
X73957268Y-98586170D01*
X73826055Y-98746055D01*
X73666170Y-98877268D01*
X73483765Y-98974766D01*
X73483762Y-98974767D01*
X73285836Y-99034807D01*
X73208707Y-99042403D01*
X73131580Y-99050000D01*
X73028420Y-99050000D01*
X72951293Y-99042403D01*
X72874164Y-99034807D01*
X72676238Y-98974767D01*
X72676235Y-98974766D01*
X72493830Y-98877268D01*
X72333945Y-98746055D01*
X72202732Y-98586170D01*
X72105234Y-98403765D01*
X72105233Y-98403762D01*
X72045193Y-98205836D01*
X72024920Y-98000000D01*
X72045193Y-97794164D01*
X72105233Y-97596238D01*
X72105234Y-97596235D01*
X72202732Y-97413830D01*
X72333945Y-97253945D01*
X72493830Y-97122732D01*
X72676235Y-97025234D01*
X72676238Y-97025233D01*
X72874164Y-96965193D01*
X72951293Y-96957596D01*
X73028420Y-96950000D01*
X73131580Y-96950000D01*
X73208707Y-96957596D01*
X73208707Y-96957596D01*
G37*
G36*
X70668707Y-96957596D02*
G01*
X70745836Y-96965193D01*
X70943762Y-97025233D01*
X70943765Y-97025234D01*
X71126170Y-97122732D01*
X71286055Y-97253945D01*
X71417268Y-97413830D01*
X71514766Y-97596235D01*
X71514767Y-97596238D01*
X71574807Y-97794164D01*
X71595080Y-98000000D01*
X71574807Y-98205836D01*
X71514767Y-98403762D01*
X71514766Y-98403765D01*
X71417268Y-98586170D01*
X71286055Y-98746055D01*
X71126170Y-98877268D01*
X70943765Y-98974766D01*
X70943762Y-98974767D01*
X70745836Y-99034807D01*
X70668707Y-99042403D01*
X70591580Y-99050000D01*
X70488420Y-99050000D01*
X70411293Y-99042403D01*
X70334164Y-99034807D01*
X70136238Y-98974767D01*
X70136235Y-98974766D01*
X69953830Y-98877268D01*
X69793945Y-98746055D01*
X69662732Y-98586170D01*
X69565234Y-98403765D01*
X69565233Y-98403762D01*
X69505193Y-98205836D01*
X69484920Y-98000000D01*
X69505193Y-97794164D01*
X69565233Y-97596238D01*
X69565234Y-97596235D01*
X69662732Y-97413830D01*
X69793945Y-97253945D01*
X69953830Y-97122732D01*
X70136235Y-97025234D01*
X70136238Y-97025233D01*
X70334164Y-96965193D01*
X70411293Y-96957596D01*
X70488420Y-96950000D01*
X70591580Y-96950000D01*
X70668707Y-96957596D01*
X70668707Y-96957596D01*
G37*
G36*
X69050000Y-99050000D02*
G01*
X66950000Y-99050000D01*
X66950000Y-96950000D01*
X69050000Y-96950000D01*
X69050000Y-99050000D01*
X69050000Y-99050000D01*
G37*
G36*
X85453530Y-93655877D02*
G01*
X85505010Y-93671493D01*
X85552445Y-93696848D01*
X85594027Y-93730973D01*
X85628152Y-93772555D01*
X85653507Y-93819990D01*
X85669123Y-93871470D01*
X85675000Y-93931140D01*
X85675000Y-94818860D01*
X85669123Y-94878530D01*
X85653507Y-94930010D01*
X85628152Y-94977445D01*
X85594027Y-95019027D01*
X85552445Y-95053152D01*
X85505010Y-95078507D01*
X85453530Y-95094123D01*
X85393860Y-95100000D01*
X84606140Y-95100000D01*
X84546470Y-95094123D01*
X84494990Y-95078507D01*
X84447555Y-95053152D01*
X84405973Y-95019027D01*
X84371848Y-94977445D01*
X84346493Y-94930010D01*
X84330877Y-94878530D01*
X84325000Y-94818860D01*
X84325000Y-93931140D01*
X84330877Y-93871470D01*
X84346493Y-93819990D01*
X84371848Y-93772555D01*
X84405973Y-93730973D01*
X84447555Y-93696848D01*
X84494990Y-93671493D01*
X84546470Y-93655877D01*
X84606140Y-93650000D01*
X85393860Y-93650000D01*
X85453530Y-93655877D01*
X85453530Y-93655877D01*
G37*
G36*
X77035529Y-93105710D02*
G01*
X77085378Y-93120831D01*
X77131310Y-93145382D01*
X77171574Y-93178426D01*
X77204618Y-93218690D01*
X77229169Y-93264622D01*
X77244290Y-93314471D01*
X77250000Y-93372444D01*
X77250000Y-94627556D01*
X77244290Y-94685529D01*
X77229169Y-94735378D01*
X77204618Y-94781310D01*
X77171574Y-94821574D01*
X77131310Y-94854618D01*
X77085378Y-94879169D01*
X77035529Y-94894290D01*
X76977556Y-94900000D01*
X75972444Y-94900000D01*
X75914471Y-94894290D01*
X75864622Y-94879169D01*
X75818690Y-94854618D01*
X75778426Y-94821574D01*
X75745382Y-94781310D01*
X75720831Y-94735378D01*
X75705710Y-94685529D01*
X75700000Y-94627556D01*
X75700000Y-93372444D01*
X75705710Y-93314471D01*
X75720831Y-93264622D01*
X75745382Y-93218690D01*
X75778426Y-93178426D01*
X75818690Y-93145382D01*
X75864622Y-93120831D01*
X75914471Y-93105710D01*
X75972444Y-93100000D01*
X76977556Y-93100000D01*
X77035529Y-93105710D01*
X77035529Y-93105710D01*
G37*
G36*
X79085529Y-93105710D02*
G01*
X79135378Y-93120831D01*
X79181310Y-93145382D01*
X79221574Y-93178426D01*
X79254618Y-93218690D01*
X79279169Y-93264622D01*
X79294290Y-93314471D01*
X79300000Y-93372444D01*
X79300000Y-94627556D01*
X79294290Y-94685529D01*
X79279169Y-94735378D01*
X79254618Y-94781310D01*
X79221574Y-94821574D01*
X79181310Y-94854618D01*
X79135378Y-94879169D01*
X79085529Y-94894290D01*
X79027556Y-94900000D01*
X78022444Y-94900000D01*
X77964471Y-94894290D01*
X77914622Y-94879169D01*
X77868690Y-94854618D01*
X77828426Y-94821574D01*
X77795382Y-94781310D01*
X77770831Y-94735378D01*
X77755710Y-94685529D01*
X77750000Y-94627556D01*
X77750000Y-93372444D01*
X77755710Y-93314471D01*
X77770831Y-93264622D01*
X77795382Y-93218690D01*
X77828426Y-93178426D01*
X77868690Y-93145382D01*
X77914622Y-93120831D01*
X77964471Y-93105710D01*
X78022444Y-93100000D01*
X79027556Y-93100000D01*
X79085529Y-93105710D01*
X79085529Y-93105710D01*
G37*
G36*
X81535529Y-93105710D02*
G01*
X81585378Y-93120831D01*
X81631310Y-93145382D01*
X81671574Y-93178426D01*
X81704618Y-93218690D01*
X81729169Y-93264622D01*
X81744290Y-93314471D01*
X81750000Y-93372444D01*
X81750000Y-94627556D01*
X81744290Y-94685529D01*
X81729169Y-94735378D01*
X81704618Y-94781310D01*
X81671574Y-94821574D01*
X81631310Y-94854618D01*
X81585378Y-94879169D01*
X81535529Y-94894290D01*
X81477556Y-94900000D01*
X80472444Y-94900000D01*
X80414471Y-94894290D01*
X80364622Y-94879169D01*
X80318690Y-94854618D01*
X80278426Y-94821574D01*
X80245382Y-94781310D01*
X80220831Y-94735378D01*
X80205710Y-94685529D01*
X80200000Y-94627556D01*
X80200000Y-93372444D01*
X80205710Y-93314471D01*
X80220831Y-93264622D01*
X80245382Y-93218690D01*
X80278426Y-93178426D01*
X80318690Y-93145382D01*
X80364622Y-93120831D01*
X80414471Y-93105710D01*
X80472444Y-93100000D01*
X81477556Y-93100000D01*
X81535529Y-93105710D01*
X81535529Y-93105710D01*
G37*
G36*
X83585529Y-93105710D02*
G01*
X83635378Y-93120831D01*
X83681310Y-93145382D01*
X83721574Y-93178426D01*
X83754618Y-93218690D01*
X83779169Y-93264622D01*
X83794290Y-93314471D01*
X83800000Y-93372444D01*
X83800000Y-94627556D01*
X83794290Y-94685529D01*
X83779169Y-94735378D01*
X83754618Y-94781310D01*
X83721574Y-94821574D01*
X83681310Y-94854618D01*
X83635378Y-94879169D01*
X83585529Y-94894290D01*
X83527556Y-94900000D01*
X82522444Y-94900000D01*
X82464471Y-94894290D01*
X82414622Y-94879169D01*
X82368690Y-94854618D01*
X82328426Y-94821574D01*
X82295382Y-94781310D01*
X82270831Y-94735378D01*
X82255710Y-94685529D01*
X82250000Y-94627556D01*
X82250000Y-93372444D01*
X82255710Y-93314471D01*
X82270831Y-93264622D01*
X82295382Y-93218690D01*
X82328426Y-93178426D01*
X82368690Y-93145382D01*
X82414622Y-93120831D01*
X82464471Y-93105710D01*
X82522444Y-93100000D01*
X83527556Y-93100000D01*
X83585529Y-93105710D01*
X83585529Y-93105710D01*
G37*
G36*
X96295153Y-90578343D02*
G01*
X96452118Y-90609565D01*
X96497903Y-90628530D01*
X96734199Y-90726407D01*
X96771228Y-90751149D01*
X96988068Y-90896036D01*
X97203964Y-91111932D01*
X97267405Y-91206879D01*
X97373593Y-91365801D01*
X97375140Y-91369537D01*
X97490435Y-91647882D01*
X97500803Y-91700005D01*
X97550000Y-91947337D01*
X97550000Y-92252663D01*
X97522353Y-92391656D01*
X97490435Y-92552118D01*
X97473036Y-92594123D01*
X97373593Y-92834199D01*
X97373592Y-92834200D01*
X97203964Y-93088068D01*
X96988068Y-93303964D01*
X96876471Y-93378530D01*
X96734199Y-93473593D01*
X96624511Y-93519027D01*
X96452118Y-93590435D01*
X96302390Y-93620217D01*
X96152663Y-93650000D01*
X95847337Y-93650000D01*
X95697610Y-93620217D01*
X95547882Y-93590435D01*
X95375489Y-93519027D01*
X95265801Y-93473593D01*
X95123529Y-93378530D01*
X95011932Y-93303964D01*
X94796036Y-93088068D01*
X94626408Y-92834200D01*
X94626407Y-92834199D01*
X94526964Y-92594123D01*
X94509565Y-92552118D01*
X94477647Y-92391656D01*
X94450000Y-92252663D01*
X94450000Y-91947337D01*
X94499197Y-91700005D01*
X94509565Y-91647882D01*
X94624860Y-91369537D01*
X94626407Y-91365801D01*
X94732595Y-91206879D01*
X94796036Y-91111932D01*
X95011932Y-90896036D01*
X95228772Y-90751149D01*
X95265801Y-90726407D01*
X95502097Y-90628530D01*
X95547882Y-90609565D01*
X95704847Y-90578343D01*
X95847337Y-90550000D01*
X96152663Y-90550000D01*
X96295153Y-90578343D01*
X96295153Y-90578343D01*
G37*
G36*
X68295153Y-90578343D02*
G01*
X68452118Y-90609565D01*
X68497903Y-90628530D01*
X68734199Y-90726407D01*
X68771228Y-90751149D01*
X68988068Y-90896036D01*
X69203964Y-91111932D01*
X69267405Y-91206879D01*
X69373593Y-91365801D01*
X69375140Y-91369537D01*
X69490435Y-91647882D01*
X69500803Y-91700005D01*
X69550000Y-91947337D01*
X69550000Y-92252663D01*
X69522353Y-92391656D01*
X69490435Y-92552118D01*
X69473036Y-92594123D01*
X69373593Y-92834199D01*
X69373592Y-92834200D01*
X69203964Y-93088068D01*
X68988068Y-93303964D01*
X68876471Y-93378530D01*
X68734199Y-93473593D01*
X68624511Y-93519027D01*
X68452118Y-93590435D01*
X68302390Y-93620217D01*
X68152663Y-93650000D01*
X67847337Y-93650000D01*
X67697610Y-93620217D01*
X67547882Y-93590435D01*
X67375489Y-93519027D01*
X67265801Y-93473593D01*
X67123529Y-93378530D01*
X67011932Y-93303964D01*
X66796036Y-93088068D01*
X66626408Y-92834200D01*
X66626407Y-92834199D01*
X66526964Y-92594123D01*
X66509565Y-92552118D01*
X66477647Y-92391656D01*
X66450000Y-92252663D01*
X66450000Y-91947337D01*
X66499197Y-91700005D01*
X66509565Y-91647882D01*
X66624860Y-91369537D01*
X66626407Y-91365801D01*
X66732595Y-91206879D01*
X66796036Y-91111932D01*
X67011932Y-90896036D01*
X67228772Y-90751149D01*
X67265801Y-90726407D01*
X67502097Y-90628530D01*
X67547882Y-90609565D01*
X67704847Y-90578343D01*
X67847337Y-90550000D01*
X68152663Y-90550000D01*
X68295153Y-90578343D01*
X68295153Y-90578343D01*
G37*
G36*
X72953530Y-92155877D02*
G01*
X73005010Y-92171493D01*
X73052445Y-92196848D01*
X73094027Y-92230973D01*
X73128152Y-92272555D01*
X73153507Y-92319990D01*
X73169123Y-92371470D01*
X73175000Y-92431140D01*
X73175000Y-93318860D01*
X73169123Y-93378530D01*
X73153507Y-93430010D01*
X73128152Y-93477445D01*
X73094027Y-93519027D01*
X73052445Y-93553152D01*
X73005010Y-93578507D01*
X72953530Y-93594123D01*
X72893860Y-93600000D01*
X72106140Y-93600000D01*
X72046470Y-93594123D01*
X71994990Y-93578507D01*
X71947555Y-93553152D01*
X71905973Y-93519027D01*
X71871848Y-93477445D01*
X71846493Y-93430010D01*
X71830877Y-93378530D01*
X71825000Y-93318860D01*
X71825000Y-92431140D01*
X71830877Y-92371470D01*
X71846493Y-92319990D01*
X71871848Y-92272555D01*
X71905973Y-92230973D01*
X71947555Y-92196848D01*
X71994990Y-92171493D01*
X72046470Y-92155877D01*
X72106140Y-92150000D01*
X72893860Y-92150000D01*
X72953530Y-92155877D01*
X72953530Y-92155877D01*
G37*
G36*
X85453530Y-91905877D02*
G01*
X85505010Y-91921493D01*
X85552445Y-91946848D01*
X85594027Y-91980973D01*
X85628152Y-92022555D01*
X85653507Y-92069990D01*
X85669123Y-92121470D01*
X85675000Y-92181140D01*
X85675000Y-93068860D01*
X85669123Y-93128530D01*
X85653507Y-93180010D01*
X85628152Y-93227445D01*
X85594027Y-93269027D01*
X85552445Y-93303152D01*
X85505010Y-93328507D01*
X85453530Y-93344123D01*
X85393860Y-93350000D01*
X84606140Y-93350000D01*
X84546470Y-93344123D01*
X84494990Y-93328507D01*
X84447555Y-93303152D01*
X84405973Y-93269027D01*
X84371848Y-93227445D01*
X84346493Y-93180010D01*
X84330877Y-93128530D01*
X84325000Y-93068860D01*
X84325000Y-92181140D01*
X84330877Y-92121470D01*
X84346493Y-92069990D01*
X84371848Y-92022555D01*
X84405973Y-91980973D01*
X84447555Y-91946848D01*
X84494990Y-91921493D01*
X84546470Y-91905877D01*
X84606140Y-91900000D01*
X85393860Y-91900000D01*
X85453530Y-91905877D01*
X85453530Y-91905877D01*
G37*
G36*
X88888237Y-90720149D02*
G01*
X89130463Y-90820482D01*
X89130465Y-90820483D01*
X89348463Y-90966145D01*
X89533855Y-91151537D01*
X89646412Y-91319990D01*
X89679518Y-91369537D01*
X89779851Y-91611763D01*
X89831000Y-91868907D01*
X89831000Y-92131093D01*
X89779851Y-92388237D01*
X89701039Y-92578507D01*
X89679517Y-92630465D01*
X89533855Y-92848463D01*
X89348463Y-93033855D01*
X89130465Y-93179517D01*
X89130464Y-93179518D01*
X89130463Y-93179518D01*
X88888237Y-93279851D01*
X88631093Y-93331000D01*
X88368907Y-93331000D01*
X88111763Y-93279851D01*
X87869537Y-93179518D01*
X87869536Y-93179518D01*
X87869535Y-93179517D01*
X87651537Y-93033855D01*
X87466145Y-92848463D01*
X87320483Y-92630465D01*
X87298961Y-92578507D01*
X87220149Y-92388237D01*
X87169000Y-92131093D01*
X87169000Y-91868907D01*
X87220149Y-91611763D01*
X87320482Y-91369537D01*
X87353588Y-91319990D01*
X87466145Y-91151537D01*
X87651537Y-90966145D01*
X87869535Y-90820483D01*
X87869537Y-90820482D01*
X88111763Y-90720149D01*
X88368907Y-90669000D01*
X88631093Y-90669000D01*
X88888237Y-90720149D01*
X88888237Y-90720149D01*
G37*
G36*
X74953530Y-91155877D02*
G01*
X75005010Y-91171493D01*
X75052445Y-91196848D01*
X75094027Y-91230973D01*
X75128152Y-91272555D01*
X75153507Y-91319990D01*
X75169123Y-91371470D01*
X75175000Y-91431140D01*
X75175000Y-92318860D01*
X75169123Y-92378530D01*
X75153507Y-92430010D01*
X75128152Y-92477445D01*
X75094027Y-92519027D01*
X75052445Y-92553152D01*
X75005010Y-92578507D01*
X74953530Y-92594123D01*
X74893860Y-92600000D01*
X74106140Y-92600000D01*
X74046470Y-92594123D01*
X73994990Y-92578507D01*
X73947555Y-92553152D01*
X73905973Y-92519027D01*
X73871848Y-92477445D01*
X73846493Y-92430010D01*
X73830877Y-92378530D01*
X73825000Y-92318860D01*
X73825000Y-91431140D01*
X73830877Y-91371470D01*
X73846493Y-91319990D01*
X73871848Y-91272555D01*
X73905973Y-91230973D01*
X73947555Y-91196848D01*
X73994990Y-91171493D01*
X74046470Y-91155877D01*
X74106140Y-91150000D01*
X74893860Y-91150000D01*
X74953530Y-91155877D01*
X74953530Y-91155877D01*
G37*
G36*
X72953530Y-90405877D02*
G01*
X73005010Y-90421493D01*
X73052445Y-90446848D01*
X73094027Y-90480973D01*
X73128152Y-90522555D01*
X73153507Y-90569990D01*
X73169123Y-90621470D01*
X73175000Y-90681140D01*
X73175000Y-91568860D01*
X73169123Y-91628530D01*
X73153507Y-91680010D01*
X73128152Y-91727445D01*
X73094027Y-91769027D01*
X73052445Y-91803152D01*
X73005010Y-91828507D01*
X72953530Y-91844123D01*
X72893860Y-91850000D01*
X72106140Y-91850000D01*
X72046470Y-91844123D01*
X71994990Y-91828507D01*
X71947555Y-91803152D01*
X71905973Y-91769027D01*
X71871848Y-91727445D01*
X71846493Y-91680010D01*
X71830877Y-91628530D01*
X71825000Y-91568860D01*
X71825000Y-90681140D01*
X71830877Y-90621470D01*
X71846493Y-90569990D01*
X71871848Y-90522555D01*
X71905973Y-90480973D01*
X71947555Y-90446848D01*
X71994990Y-90421493D01*
X72046470Y-90405877D01*
X72106140Y-90400000D01*
X72893860Y-90400000D01*
X72953530Y-90405877D01*
X72953530Y-90405877D01*
G37*
G36*
X77128530Y-90330877D02*
G01*
X77180010Y-90346493D01*
X77227445Y-90371848D01*
X77269027Y-90405973D01*
X77303152Y-90447555D01*
X77328507Y-90494990D01*
X77344123Y-90546470D01*
X77350000Y-90606140D01*
X77350000Y-91393860D01*
X77344123Y-91453530D01*
X77328507Y-91505010D01*
X77303152Y-91552445D01*
X77269027Y-91594027D01*
X77227445Y-91628152D01*
X77180010Y-91653507D01*
X77128530Y-91669123D01*
X77068860Y-91675000D01*
X76181140Y-91675000D01*
X76121470Y-91669123D01*
X76069990Y-91653507D01*
X76022555Y-91628152D01*
X75980973Y-91594027D01*
X75946848Y-91552445D01*
X75921493Y-91505010D01*
X75905877Y-91453530D01*
X75900000Y-91393860D01*
X75900000Y-90606140D01*
X75905877Y-90546470D01*
X75921493Y-90494990D01*
X75946848Y-90447555D01*
X75980973Y-90405973D01*
X76022555Y-90371848D01*
X76069990Y-90346493D01*
X76121470Y-90330877D01*
X76181140Y-90325000D01*
X77068860Y-90325000D01*
X77128530Y-90330877D01*
X77128530Y-90330877D01*
G37*
G36*
X78878530Y-90330877D02*
G01*
X78930010Y-90346493D01*
X78977445Y-90371848D01*
X79019027Y-90405973D01*
X79053152Y-90447555D01*
X79078507Y-90494990D01*
X79094123Y-90546470D01*
X79100000Y-90606140D01*
X79100000Y-91393860D01*
X79094123Y-91453530D01*
X79078507Y-91505010D01*
X79053152Y-91552445D01*
X79019027Y-91594027D01*
X78977445Y-91628152D01*
X78930010Y-91653507D01*
X78878530Y-91669123D01*
X78818860Y-91675000D01*
X77931140Y-91675000D01*
X77871470Y-91669123D01*
X77819990Y-91653507D01*
X77772555Y-91628152D01*
X77730973Y-91594027D01*
X77696848Y-91552445D01*
X77671493Y-91505010D01*
X77655877Y-91453530D01*
X77650000Y-91393860D01*
X77650000Y-90606140D01*
X77655877Y-90546470D01*
X77671493Y-90494990D01*
X77696848Y-90447555D01*
X77730973Y-90405973D01*
X77772555Y-90371848D01*
X77819990Y-90346493D01*
X77871470Y-90330877D01*
X77931140Y-90325000D01*
X78818860Y-90325000D01*
X78878530Y-90330877D01*
X78878530Y-90330877D01*
G37*
G36*
X81628530Y-90330877D02*
G01*
X81680010Y-90346493D01*
X81727445Y-90371848D01*
X81769027Y-90405973D01*
X81803152Y-90447555D01*
X81828507Y-90494990D01*
X81844123Y-90546470D01*
X81850000Y-90606140D01*
X81850000Y-91393860D01*
X81844123Y-91453530D01*
X81828507Y-91505010D01*
X81803152Y-91552445D01*
X81769027Y-91594027D01*
X81727445Y-91628152D01*
X81680010Y-91653507D01*
X81628530Y-91669123D01*
X81568860Y-91675000D01*
X80681140Y-91675000D01*
X80621470Y-91669123D01*
X80569990Y-91653507D01*
X80522555Y-91628152D01*
X80480973Y-91594027D01*
X80446848Y-91552445D01*
X80421493Y-91505010D01*
X80405877Y-91453530D01*
X80400000Y-91393860D01*
X80400000Y-90606140D01*
X80405877Y-90546470D01*
X80421493Y-90494990D01*
X80446848Y-90447555D01*
X80480973Y-90405973D01*
X80522555Y-90371848D01*
X80569990Y-90346493D01*
X80621470Y-90330877D01*
X80681140Y-90325000D01*
X81568860Y-90325000D01*
X81628530Y-90330877D01*
X81628530Y-90330877D01*
G37*
G36*
X83378530Y-90330877D02*
G01*
X83430010Y-90346493D01*
X83477445Y-90371848D01*
X83519027Y-90405973D01*
X83553152Y-90447555D01*
X83578507Y-90494990D01*
X83594123Y-90546470D01*
X83600000Y-90606140D01*
X83600000Y-91393860D01*
X83594123Y-91453530D01*
X83578507Y-91505010D01*
X83553152Y-91552445D01*
X83519027Y-91594027D01*
X83477445Y-91628152D01*
X83430010Y-91653507D01*
X83378530Y-91669123D01*
X83318860Y-91675000D01*
X82431140Y-91675000D01*
X82371470Y-91669123D01*
X82319990Y-91653507D01*
X82272555Y-91628152D01*
X82230973Y-91594027D01*
X82196848Y-91552445D01*
X82171493Y-91505010D01*
X82155877Y-91453530D01*
X82150000Y-91393860D01*
X82150000Y-90606140D01*
X82155877Y-90546470D01*
X82171493Y-90494990D01*
X82196848Y-90447555D01*
X82230973Y-90405973D01*
X82272555Y-90371848D01*
X82319990Y-90346493D01*
X82371470Y-90330877D01*
X82431140Y-90325000D01*
X83318860Y-90325000D01*
X83378530Y-90330877D01*
X83378530Y-90330877D01*
G37*
G36*
X74953530Y-89405877D02*
G01*
X75005010Y-89421493D01*
X75052445Y-89446848D01*
X75094027Y-89480973D01*
X75128152Y-89522555D01*
X75153507Y-89569990D01*
X75169123Y-89621470D01*
X75175000Y-89681140D01*
X75175000Y-90568860D01*
X75169123Y-90628530D01*
X75153507Y-90680010D01*
X75128152Y-90727445D01*
X75094027Y-90769027D01*
X75052445Y-90803152D01*
X75005010Y-90828507D01*
X74953530Y-90844123D01*
X74893860Y-90850000D01*
X74106140Y-90850000D01*
X74046470Y-90844123D01*
X73994990Y-90828507D01*
X73947555Y-90803152D01*
X73905973Y-90769027D01*
X73871848Y-90727445D01*
X73846493Y-90680010D01*
X73830877Y-90628530D01*
X73825000Y-90568860D01*
X73825000Y-89681140D01*
X73830877Y-89621470D01*
X73846493Y-89569990D01*
X73871848Y-89522555D01*
X73905973Y-89480973D01*
X73947555Y-89446848D01*
X73994990Y-89421493D01*
X74046470Y-89405877D01*
X74106140Y-89400000D01*
X74893860Y-89400000D01*
X74953530Y-89405877D01*
X74953530Y-89405877D01*
G37*
G36*
X61820857Y-88442272D02*
G01*
X61960224Y-88500000D01*
X62021045Y-88525193D01*
X62094552Y-88574309D01*
X62201208Y-88645574D01*
X62354426Y-88798792D01*
X62474808Y-88978957D01*
X62557728Y-89179143D01*
X62600000Y-89391658D01*
X62600000Y-89608342D01*
X62557728Y-89820857D01*
X62474808Y-90021043D01*
X62354426Y-90201208D01*
X62201208Y-90354426D01*
X62133001Y-90400000D01*
X62021045Y-90474807D01*
X62021044Y-90474808D01*
X62021043Y-90474808D01*
X61820857Y-90557728D01*
X61608342Y-90600000D01*
X61391658Y-90600000D01*
X61179143Y-90557728D01*
X60978957Y-90474808D01*
X60978956Y-90474808D01*
X60978955Y-90474807D01*
X60866999Y-90400000D01*
X60798792Y-90354426D01*
X60645574Y-90201208D01*
X60525192Y-90021043D01*
X60442272Y-89820857D01*
X60400000Y-89608342D01*
X60400000Y-89391658D01*
X60442272Y-89179143D01*
X60525192Y-88978957D01*
X60645574Y-88798792D01*
X60798792Y-88645574D01*
X60905448Y-88574309D01*
X60978955Y-88525193D01*
X61039776Y-88500000D01*
X61179143Y-88442272D01*
X61391658Y-88400000D01*
X61608342Y-88400000D01*
X61820857Y-88442272D01*
X61820857Y-88442272D01*
G37*
G36*
X98820857Y-88442272D02*
G01*
X98960224Y-88500000D01*
X99021045Y-88525193D01*
X99094552Y-88574309D01*
X99201208Y-88645574D01*
X99354426Y-88798792D01*
X99474808Y-88978957D01*
X99557728Y-89179143D01*
X99600000Y-89391658D01*
X99600000Y-89608342D01*
X99557728Y-89820857D01*
X99474808Y-90021043D01*
X99354426Y-90201208D01*
X99201208Y-90354426D01*
X99133001Y-90400000D01*
X99021045Y-90474807D01*
X99021044Y-90474808D01*
X99021043Y-90474808D01*
X98820857Y-90557728D01*
X98608342Y-90600000D01*
X98391658Y-90600000D01*
X98179143Y-90557728D01*
X97978957Y-90474808D01*
X97978956Y-90474808D01*
X97978955Y-90474807D01*
X97866999Y-90400000D01*
X97798792Y-90354426D01*
X97645574Y-90201208D01*
X97525192Y-90021043D01*
X97442272Y-89820857D01*
X97400000Y-89608342D01*
X97400000Y-89391658D01*
X97442272Y-89179143D01*
X97525192Y-88978957D01*
X97645574Y-88798792D01*
X97798792Y-88645574D01*
X97905448Y-88574309D01*
X97978955Y-88525193D01*
X98039776Y-88500000D01*
X98179143Y-88442272D01*
X98391658Y-88400000D01*
X98608342Y-88400000D01*
X98820857Y-88442272D01*
X98820857Y-88442272D01*
G37*
G36*
X101320857Y-88442272D02*
G01*
X101460224Y-88500000D01*
X101521045Y-88525193D01*
X101594552Y-88574309D01*
X101701208Y-88645574D01*
X101854426Y-88798792D01*
X101974808Y-88978957D01*
X102057728Y-89179143D01*
X102100000Y-89391658D01*
X102100000Y-89608342D01*
X102057728Y-89820857D01*
X101974808Y-90021043D01*
X101854426Y-90201208D01*
X101701208Y-90354426D01*
X101633001Y-90400000D01*
X101521045Y-90474807D01*
X101521044Y-90474808D01*
X101521043Y-90474808D01*
X101320857Y-90557728D01*
X101108342Y-90600000D01*
X100891658Y-90600000D01*
X100679143Y-90557728D01*
X100478957Y-90474808D01*
X100478956Y-90474808D01*
X100478955Y-90474807D01*
X100366999Y-90400000D01*
X100298792Y-90354426D01*
X100145574Y-90201208D01*
X100025192Y-90021043D01*
X99942272Y-89820857D01*
X99900000Y-89608342D01*
X99900000Y-89391658D01*
X99942272Y-89179143D01*
X100025192Y-88978957D01*
X100145574Y-88798792D01*
X100298792Y-88645574D01*
X100405448Y-88574309D01*
X100478955Y-88525193D01*
X100539776Y-88500000D01*
X100679143Y-88442272D01*
X100891658Y-88400000D01*
X101108342Y-88400000D01*
X101320857Y-88442272D01*
X101320857Y-88442272D01*
G37*
G36*
X103820857Y-88442272D02*
G01*
X103960224Y-88500000D01*
X104021045Y-88525193D01*
X104094552Y-88574309D01*
X104201208Y-88645574D01*
X104354426Y-88798792D01*
X104474808Y-88978957D01*
X104557728Y-89179143D01*
X104600000Y-89391658D01*
X104600000Y-89608342D01*
X104557728Y-89820857D01*
X104474808Y-90021043D01*
X104354426Y-90201208D01*
X104201208Y-90354426D01*
X104133001Y-90400000D01*
X104021045Y-90474807D01*
X104021044Y-90474808D01*
X104021043Y-90474808D01*
X103820857Y-90557728D01*
X103608342Y-90600000D01*
X103391658Y-90600000D01*
X103179143Y-90557728D01*
X102978957Y-90474808D01*
X102978956Y-90474808D01*
X102978955Y-90474807D01*
X102866999Y-90400000D01*
X102798792Y-90354426D01*
X102645574Y-90201208D01*
X102525192Y-90021043D01*
X102442272Y-89820857D01*
X102400000Y-89608342D01*
X102400000Y-89391658D01*
X102442272Y-89179143D01*
X102525192Y-88978957D01*
X102645574Y-88798792D01*
X102798792Y-88645574D01*
X102905448Y-88574309D01*
X102978955Y-88525193D01*
X103039776Y-88500000D01*
X103179143Y-88442272D01*
X103391658Y-88400000D01*
X103608342Y-88400000D01*
X103820857Y-88442272D01*
X103820857Y-88442272D01*
G37*
G36*
X56820857Y-88442272D02*
G01*
X56960224Y-88500000D01*
X57021045Y-88525193D01*
X57094552Y-88574309D01*
X57201208Y-88645574D01*
X57354426Y-88798792D01*
X57474808Y-88978957D01*
X57557728Y-89179143D01*
X57600000Y-89391658D01*
X57600000Y-89608342D01*
X57557728Y-89820857D01*
X57474808Y-90021043D01*
X57354426Y-90201208D01*
X57201208Y-90354426D01*
X57133001Y-90400000D01*
X57021045Y-90474807D01*
X57021044Y-90474808D01*
X57021043Y-90474808D01*
X56820857Y-90557728D01*
X56608342Y-90600000D01*
X56391658Y-90600000D01*
X56179143Y-90557728D01*
X55978957Y-90474808D01*
X55978956Y-90474808D01*
X55978955Y-90474807D01*
X55866999Y-90400000D01*
X55798792Y-90354426D01*
X55645574Y-90201208D01*
X55525192Y-90021043D01*
X55442272Y-89820857D01*
X55400000Y-89608342D01*
X55400000Y-89391658D01*
X55442272Y-89179143D01*
X55525192Y-88978957D01*
X55645574Y-88798792D01*
X55798792Y-88645574D01*
X55905448Y-88574309D01*
X55978955Y-88525193D01*
X56039776Y-88500000D01*
X56179143Y-88442272D01*
X56391658Y-88400000D01*
X56608342Y-88400000D01*
X56820857Y-88442272D01*
X56820857Y-88442272D01*
G37*
G36*
X59320857Y-88442272D02*
G01*
X59460224Y-88500000D01*
X59521045Y-88525193D01*
X59594552Y-88574309D01*
X59701208Y-88645574D01*
X59854426Y-88798792D01*
X59974808Y-88978957D01*
X60057728Y-89179143D01*
X60100000Y-89391658D01*
X60100000Y-89608342D01*
X60057728Y-89820857D01*
X59974808Y-90021043D01*
X59854426Y-90201208D01*
X59701208Y-90354426D01*
X59633001Y-90400000D01*
X59521045Y-90474807D01*
X59521044Y-90474808D01*
X59521043Y-90474808D01*
X59320857Y-90557728D01*
X59108342Y-90600000D01*
X58891658Y-90600000D01*
X58679143Y-90557728D01*
X58478957Y-90474808D01*
X58478956Y-90474808D01*
X58478955Y-90474807D01*
X58366999Y-90400000D01*
X58298792Y-90354426D01*
X58145574Y-90201208D01*
X58025192Y-90021043D01*
X57942272Y-89820857D01*
X57900000Y-89608342D01*
X57900000Y-89391658D01*
X57942272Y-89179143D01*
X58025192Y-88978957D01*
X58145574Y-88798792D01*
X58298792Y-88645574D01*
X58405448Y-88574309D01*
X58478955Y-88525193D01*
X58539776Y-88500000D01*
X58679143Y-88442272D01*
X58891658Y-88400000D01*
X59108342Y-88400000D01*
X59320857Y-88442272D01*
X59320857Y-88442272D01*
G37*
G36*
X107251163Y-85584587D02*
G01*
X107425041Y-85619173D01*
X107620186Y-85700005D01*
X107743659Y-85751149D01*
X107752620Y-85754861D01*
X108047433Y-85951849D01*
X108298151Y-86202567D01*
X108495139Y-86497380D01*
X108630827Y-86824959D01*
X108634518Y-86843515D01*
X108700000Y-87172714D01*
X108700000Y-87527286D01*
X108694855Y-87553152D01*
X108630827Y-87875041D01*
X108495139Y-88202620D01*
X108298151Y-88497433D01*
X108047433Y-88748151D01*
X107752620Y-88945139D01*
X107425041Y-89080827D01*
X107251162Y-89115414D01*
X107077286Y-89150000D01*
X106722714Y-89150000D01*
X106548838Y-89115414D01*
X106374959Y-89080827D01*
X106047380Y-88945139D01*
X105752567Y-88748151D01*
X105501849Y-88497433D01*
X105304861Y-88202620D01*
X105169173Y-87875041D01*
X105105145Y-87553152D01*
X105100000Y-87527286D01*
X105100000Y-87172714D01*
X105165482Y-86843515D01*
X105169173Y-86824959D01*
X105304861Y-86497380D01*
X105501849Y-86202567D01*
X105752567Y-85951849D01*
X106047380Y-85754861D01*
X106056342Y-85751149D01*
X106179814Y-85700005D01*
X106374959Y-85619173D01*
X106548837Y-85584587D01*
X106722714Y-85550000D01*
X107077286Y-85550000D01*
X107251163Y-85584587D01*
X107251163Y-85584587D01*
G37*
G36*
X70953530Y-87155877D02*
G01*
X71005010Y-87171493D01*
X71052445Y-87196848D01*
X71094027Y-87230973D01*
X71128152Y-87272555D01*
X71153507Y-87319990D01*
X71169123Y-87371470D01*
X71175000Y-87431140D01*
X71175000Y-88318860D01*
X71169123Y-88378530D01*
X71153507Y-88430010D01*
X71128152Y-88477445D01*
X71094027Y-88519027D01*
X71052445Y-88553152D01*
X71005010Y-88578507D01*
X70953530Y-88594123D01*
X70893860Y-88600000D01*
X70106140Y-88600000D01*
X70046470Y-88594123D01*
X69994990Y-88578507D01*
X69947555Y-88553152D01*
X69905973Y-88519027D01*
X69871848Y-88477445D01*
X69846493Y-88430010D01*
X69830877Y-88378530D01*
X69825000Y-88318860D01*
X69825000Y-87431140D01*
X69830877Y-87371470D01*
X69846493Y-87319990D01*
X69871848Y-87272555D01*
X69905973Y-87230973D01*
X69947555Y-87196848D01*
X69994990Y-87171493D01*
X70046470Y-87155877D01*
X70106140Y-87150000D01*
X70893860Y-87150000D01*
X70953530Y-87155877D01*
X70953530Y-87155877D01*
G37*
G36*
X80351163Y-84934587D02*
G01*
X80525041Y-84969173D01*
X80852620Y-85104861D01*
X81147433Y-85301849D01*
X81398151Y-85552567D01*
X81595139Y-85847380D01*
X81730827Y-86174959D01*
X81737176Y-86206879D01*
X81794961Y-86497380D01*
X81800000Y-86522716D01*
X81800000Y-86877284D01*
X81730827Y-87225041D01*
X81595139Y-87552620D01*
X81398151Y-87847433D01*
X81147433Y-88098151D01*
X80852620Y-88295139D01*
X80525041Y-88430827D01*
X80428626Y-88450005D01*
X80177286Y-88500000D01*
X79822714Y-88500000D01*
X79571374Y-88450005D01*
X79474959Y-88430827D01*
X79147380Y-88295139D01*
X78852567Y-88098151D01*
X78601849Y-87847433D01*
X78404861Y-87552620D01*
X78269173Y-87225041D01*
X78200000Y-86877284D01*
X78200000Y-86522716D01*
X78205040Y-86497380D01*
X78262824Y-86206879D01*
X78269173Y-86174959D01*
X78404861Y-85847380D01*
X78601849Y-85552567D01*
X78852567Y-85301849D01*
X79147380Y-85104861D01*
X79474959Y-84969173D01*
X79648837Y-84934587D01*
X79822714Y-84900000D01*
X80177286Y-84900000D01*
X80351163Y-84934587D01*
X80351163Y-84934587D01*
G37*
G36*
X74953530Y-86155877D02*
G01*
X75005010Y-86171493D01*
X75052445Y-86196848D01*
X75094027Y-86230973D01*
X75128152Y-86272555D01*
X75153507Y-86319990D01*
X75169123Y-86371470D01*
X75175000Y-86431140D01*
X75175000Y-87318860D01*
X75169123Y-87378530D01*
X75153507Y-87430010D01*
X75128152Y-87477445D01*
X75094027Y-87519027D01*
X75052445Y-87553152D01*
X75005010Y-87578507D01*
X74953530Y-87594123D01*
X74893860Y-87600000D01*
X74106140Y-87600000D01*
X74046470Y-87594123D01*
X73994990Y-87578507D01*
X73947555Y-87553152D01*
X73905973Y-87519027D01*
X73871848Y-87477445D01*
X73846493Y-87430010D01*
X73830877Y-87378530D01*
X73825000Y-87318860D01*
X73825000Y-86431140D01*
X73830877Y-86371470D01*
X73846493Y-86319990D01*
X73871848Y-86272555D01*
X73905973Y-86230973D01*
X73947555Y-86196848D01*
X73994990Y-86171493D01*
X74046470Y-86155877D01*
X74106140Y-86150000D01*
X74893860Y-86150000D01*
X74953530Y-86155877D01*
X74953530Y-86155877D01*
G37*
G36*
X68953530Y-86155877D02*
G01*
X69005010Y-86171493D01*
X69052445Y-86196848D01*
X69094027Y-86230973D01*
X69128152Y-86272555D01*
X69153507Y-86319990D01*
X69169123Y-86371470D01*
X69175000Y-86431140D01*
X69175000Y-87318860D01*
X69169123Y-87378530D01*
X69153507Y-87430010D01*
X69128152Y-87477445D01*
X69094027Y-87519027D01*
X69052445Y-87553152D01*
X69005010Y-87578507D01*
X68953530Y-87594123D01*
X68893860Y-87600000D01*
X68106140Y-87600000D01*
X68046470Y-87594123D01*
X67994990Y-87578507D01*
X67947555Y-87553152D01*
X67905973Y-87519027D01*
X67871848Y-87477445D01*
X67846493Y-87430010D01*
X67830877Y-87378530D01*
X67825000Y-87318860D01*
X67825000Y-86431140D01*
X67830877Y-86371470D01*
X67846493Y-86319990D01*
X67871848Y-86272555D01*
X67905973Y-86230973D01*
X67947555Y-86196848D01*
X67994990Y-86171493D01*
X68046470Y-86155877D01*
X68106140Y-86150000D01*
X68893860Y-86150000D01*
X68953530Y-86155877D01*
X68953530Y-86155877D01*
G37*
G36*
X72953530Y-86155877D02*
G01*
X73005010Y-86171493D01*
X73052445Y-86196848D01*
X73094027Y-86230973D01*
X73128152Y-86272555D01*
X73153507Y-86319990D01*
X73169123Y-86371470D01*
X73175000Y-86431140D01*
X73175000Y-87318860D01*
X73169123Y-87378530D01*
X73153507Y-87430010D01*
X73128152Y-87477445D01*
X73094027Y-87519027D01*
X73052445Y-87553152D01*
X73005010Y-87578507D01*
X72953530Y-87594123D01*
X72893860Y-87600000D01*
X72106140Y-87600000D01*
X72046470Y-87594123D01*
X71994990Y-87578507D01*
X71947555Y-87553152D01*
X71905973Y-87519027D01*
X71871848Y-87477445D01*
X71846493Y-87430010D01*
X71830877Y-87378530D01*
X71825000Y-87318860D01*
X71825000Y-86431140D01*
X71830877Y-86371470D01*
X71846493Y-86319990D01*
X71871848Y-86272555D01*
X71905973Y-86230973D01*
X71947555Y-86196848D01*
X71994990Y-86171493D01*
X72046470Y-86155877D01*
X72106140Y-86150000D01*
X72893860Y-86150000D01*
X72953530Y-86155877D01*
X72953530Y-86155877D01*
G37*
G36*
X70953530Y-85405877D02*
G01*
X71005010Y-85421493D01*
X71052445Y-85446848D01*
X71094027Y-85480973D01*
X71128152Y-85522555D01*
X71153507Y-85569990D01*
X71169123Y-85621470D01*
X71175000Y-85681140D01*
X71175000Y-86568860D01*
X71169123Y-86628530D01*
X71153507Y-86680010D01*
X71128152Y-86727445D01*
X71094027Y-86769027D01*
X71052445Y-86803152D01*
X71005010Y-86828507D01*
X70953530Y-86844123D01*
X70893860Y-86850000D01*
X70106140Y-86850000D01*
X70046470Y-86844123D01*
X69994990Y-86828507D01*
X69947555Y-86803152D01*
X69905973Y-86769027D01*
X69871848Y-86727445D01*
X69846493Y-86680010D01*
X69830877Y-86628530D01*
X69825000Y-86568860D01*
X69825000Y-85681140D01*
X69830877Y-85621470D01*
X69846493Y-85569990D01*
X69871848Y-85522555D01*
X69905973Y-85480973D01*
X69947555Y-85446848D01*
X69994990Y-85421493D01*
X70046470Y-85405877D01*
X70106140Y-85400000D01*
X70893860Y-85400000D01*
X70953530Y-85405877D01*
X70953530Y-85405877D01*
G37*
G36*
X74953530Y-84405877D02*
G01*
X75005010Y-84421493D01*
X75052445Y-84446848D01*
X75094027Y-84480973D01*
X75128152Y-84522555D01*
X75153507Y-84569990D01*
X75169123Y-84621470D01*
X75175000Y-84681140D01*
X75175000Y-85568860D01*
X75169123Y-85628530D01*
X75153507Y-85680010D01*
X75128152Y-85727445D01*
X75094027Y-85769027D01*
X75052445Y-85803152D01*
X75005010Y-85828507D01*
X74953530Y-85844123D01*
X74893860Y-85850000D01*
X74106140Y-85850000D01*
X74046470Y-85844123D01*
X73994990Y-85828507D01*
X73947555Y-85803152D01*
X73905973Y-85769027D01*
X73871848Y-85727445D01*
X73846493Y-85680010D01*
X73830877Y-85628530D01*
X73825000Y-85568860D01*
X73825000Y-84681140D01*
X73830877Y-84621470D01*
X73846493Y-84569990D01*
X73871848Y-84522555D01*
X73905973Y-84480973D01*
X73947555Y-84446848D01*
X73994990Y-84421493D01*
X74046470Y-84405877D01*
X74106140Y-84400000D01*
X74893860Y-84400000D01*
X74953530Y-84405877D01*
X74953530Y-84405877D01*
G37*
G36*
X68953530Y-84405877D02*
G01*
X69005010Y-84421493D01*
X69052445Y-84446848D01*
X69094027Y-84480973D01*
X69128152Y-84522555D01*
X69153507Y-84569990D01*
X69169123Y-84621470D01*
X69175000Y-84681140D01*
X69175000Y-85568860D01*
X69169123Y-85628530D01*
X69153507Y-85680010D01*
X69128152Y-85727445D01*
X69094027Y-85769027D01*
X69052445Y-85803152D01*
X69005010Y-85828507D01*
X68953530Y-85844123D01*
X68893860Y-85850000D01*
X68106140Y-85850000D01*
X68046470Y-85844123D01*
X67994990Y-85828507D01*
X67947555Y-85803152D01*
X67905973Y-85769027D01*
X67871848Y-85727445D01*
X67846493Y-85680010D01*
X67830877Y-85628530D01*
X67825000Y-85568860D01*
X67825000Y-84681140D01*
X67830877Y-84621470D01*
X67846493Y-84569990D01*
X67871848Y-84522555D01*
X67905973Y-84480973D01*
X67947555Y-84446848D01*
X67994990Y-84421493D01*
X68046470Y-84405877D01*
X68106140Y-84400000D01*
X68893860Y-84400000D01*
X68953530Y-84405877D01*
X68953530Y-84405877D01*
G37*
G36*
X72953530Y-84405877D02*
G01*
X73005010Y-84421493D01*
X73052445Y-84446848D01*
X73094027Y-84480973D01*
X73128152Y-84522555D01*
X73153507Y-84569990D01*
X73169123Y-84621470D01*
X73175000Y-84681140D01*
X73175000Y-85568860D01*
X73169123Y-85628530D01*
X73153507Y-85680010D01*
X73128152Y-85727445D01*
X73094027Y-85769027D01*
X73052445Y-85803152D01*
X73005010Y-85828507D01*
X72953530Y-85844123D01*
X72893860Y-85850000D01*
X72106140Y-85850000D01*
X72046470Y-85844123D01*
X71994990Y-85828507D01*
X71947555Y-85803152D01*
X71905973Y-85769027D01*
X71871848Y-85727445D01*
X71846493Y-85680010D01*
X71830877Y-85628530D01*
X71825000Y-85568860D01*
X71825000Y-84681140D01*
X71830877Y-84621470D01*
X71846493Y-84569990D01*
X71871848Y-84522555D01*
X71905973Y-84480973D01*
X71947555Y-84446848D01*
X71994990Y-84421493D01*
X72046470Y-84405877D01*
X72106140Y-84400000D01*
X72893860Y-84400000D01*
X72953530Y-84405877D01*
X72953530Y-84405877D01*
G37*
G36*
X70953530Y-83155877D02*
G01*
X71005010Y-83171493D01*
X71052445Y-83196848D01*
X71094027Y-83230973D01*
X71128152Y-83272555D01*
X71153507Y-83319990D01*
X71169123Y-83371470D01*
X71175000Y-83431140D01*
X71175000Y-84318860D01*
X71169123Y-84378530D01*
X71153507Y-84430010D01*
X71128152Y-84477445D01*
X71094027Y-84519027D01*
X71052445Y-84553152D01*
X71005010Y-84578507D01*
X70953530Y-84594123D01*
X70893860Y-84600000D01*
X70106140Y-84600000D01*
X70046470Y-84594123D01*
X69994990Y-84578507D01*
X69947555Y-84553152D01*
X69905973Y-84519027D01*
X69871848Y-84477445D01*
X69846493Y-84430010D01*
X69830877Y-84378530D01*
X69825000Y-84318860D01*
X69825000Y-83431140D01*
X69830877Y-83371470D01*
X69846493Y-83319990D01*
X69871848Y-83272555D01*
X69905973Y-83230973D01*
X69947555Y-83196848D01*
X69994990Y-83171493D01*
X70046470Y-83155877D01*
X70106140Y-83150000D01*
X70893860Y-83150000D01*
X70953530Y-83155877D01*
X70953530Y-83155877D01*
G37*
G36*
X63731653Y-80832665D02*
G01*
X63895872Y-80865330D01*
X64205252Y-80993479D01*
X64483687Y-81179523D01*
X64720477Y-81416313D01*
X64906521Y-81694748D01*
X65034670Y-82004128D01*
X65034670Y-82004130D01*
X65100000Y-82332563D01*
X65100000Y-82667437D01*
X65083348Y-82751149D01*
X65034670Y-82995872D01*
X64906521Y-83305252D01*
X64720477Y-83583687D01*
X64483687Y-83820477D01*
X64205252Y-84006521D01*
X63895872Y-84134670D01*
X63731654Y-84167335D01*
X63567437Y-84200000D01*
X63232563Y-84200000D01*
X63068346Y-84167335D01*
X62904128Y-84134670D01*
X62594748Y-84006521D01*
X62316313Y-83820477D01*
X62079523Y-83583687D01*
X61893479Y-83305252D01*
X61765330Y-82995872D01*
X61716652Y-82751149D01*
X61700000Y-82667437D01*
X61700000Y-82332563D01*
X61765330Y-82004130D01*
X61765330Y-82004128D01*
X61893479Y-81694748D01*
X62079523Y-81416313D01*
X62316313Y-81179523D01*
X62594748Y-80993479D01*
X62904128Y-80865330D01*
X63068347Y-80832665D01*
X63232563Y-80800000D01*
X63567437Y-80800000D01*
X63731653Y-80832665D01*
X63731653Y-80832665D01*
G37*
G36*
X54931653Y-80832665D02*
G01*
X55095872Y-80865330D01*
X55405252Y-80993479D01*
X55683687Y-81179523D01*
X55920477Y-81416313D01*
X56106521Y-81694748D01*
X56234670Y-82004128D01*
X56234670Y-82004130D01*
X56300000Y-82332563D01*
X56300000Y-82667437D01*
X56283348Y-82751149D01*
X56234670Y-82995872D01*
X56106521Y-83305252D01*
X55920477Y-83583687D01*
X55683687Y-83820477D01*
X55405252Y-84006521D01*
X55095872Y-84134670D01*
X54931654Y-84167335D01*
X54767437Y-84200000D01*
X54432563Y-84200000D01*
X54268346Y-84167335D01*
X54104128Y-84134670D01*
X53794748Y-84006521D01*
X53516313Y-83820477D01*
X53279523Y-83583687D01*
X53093479Y-83305252D01*
X52965330Y-82995872D01*
X52916652Y-82751149D01*
X52900000Y-82667437D01*
X52900000Y-82332563D01*
X52965330Y-82004130D01*
X52965330Y-82004128D01*
X53093479Y-81694748D01*
X53279523Y-81416313D01*
X53516313Y-81179523D01*
X53794748Y-80993479D01*
X54104128Y-80865330D01*
X54268347Y-80832665D01*
X54432563Y-80800000D01*
X54767437Y-80800000D01*
X54931653Y-80832665D01*
X54931653Y-80832665D01*
G37*
G36*
X105731653Y-80832665D02*
G01*
X105895872Y-80865330D01*
X106205252Y-80993479D01*
X106483687Y-81179523D01*
X106720477Y-81416313D01*
X106906521Y-81694748D01*
X107034670Y-82004128D01*
X107034670Y-82004130D01*
X107100000Y-82332563D01*
X107100000Y-82667437D01*
X107083348Y-82751149D01*
X107034670Y-82995872D01*
X106906521Y-83305252D01*
X106720477Y-83583687D01*
X106483687Y-83820477D01*
X106205252Y-84006521D01*
X105895872Y-84134670D01*
X105731654Y-84167335D01*
X105567437Y-84200000D01*
X105232563Y-84200000D01*
X105068346Y-84167335D01*
X104904128Y-84134670D01*
X104594748Y-84006521D01*
X104316313Y-83820477D01*
X104079523Y-83583687D01*
X103893479Y-83305252D01*
X103765330Y-82995872D01*
X103716652Y-82751149D01*
X103700000Y-82667437D01*
X103700000Y-82332563D01*
X103765330Y-82004130D01*
X103765330Y-82004128D01*
X103893479Y-81694748D01*
X104079523Y-81416313D01*
X104316313Y-81179523D01*
X104594748Y-80993479D01*
X104904128Y-80865330D01*
X105068347Y-80832665D01*
X105232563Y-80800000D01*
X105567437Y-80800000D01*
X105731653Y-80832665D01*
X105731653Y-80832665D01*
G37*
G36*
X96931653Y-80832665D02*
G01*
X97095872Y-80865330D01*
X97405252Y-80993479D01*
X97683687Y-81179523D01*
X97920477Y-81416313D01*
X98106521Y-81694748D01*
X98234670Y-82004128D01*
X98234670Y-82004130D01*
X98300000Y-82332563D01*
X98300000Y-82667437D01*
X98283348Y-82751149D01*
X98234670Y-82995872D01*
X98106521Y-83305252D01*
X97920477Y-83583687D01*
X97683687Y-83820477D01*
X97405252Y-84006521D01*
X97095872Y-84134670D01*
X96931654Y-84167335D01*
X96767437Y-84200000D01*
X96432563Y-84200000D01*
X96268346Y-84167335D01*
X96104128Y-84134670D01*
X95794748Y-84006521D01*
X95516313Y-83820477D01*
X95279523Y-83583687D01*
X95093479Y-83305252D01*
X94965330Y-82995872D01*
X94916652Y-82751149D01*
X94900000Y-82667437D01*
X94900000Y-82332563D01*
X94965330Y-82004130D01*
X94965330Y-82004128D01*
X95093479Y-81694748D01*
X95279523Y-81416313D01*
X95516313Y-81179523D01*
X95794748Y-80993479D01*
X96104128Y-80865330D01*
X96268347Y-80832665D01*
X96432563Y-80800000D01*
X96767437Y-80800000D01*
X96931653Y-80832665D01*
X96931653Y-80832665D01*
G37*
G36*
X80351163Y-80234587D02*
G01*
X80525041Y-80269173D01*
X80852620Y-80404861D01*
X81147433Y-80601849D01*
X81398151Y-80852567D01*
X81595139Y-81147380D01*
X81730827Y-81474959D01*
X81749505Y-81568860D01*
X81800000Y-81822714D01*
X81800000Y-82177286D01*
X81775591Y-82299995D01*
X81730827Y-82525041D01*
X81658354Y-82700005D01*
X81598911Y-82843515D01*
X81595139Y-82852620D01*
X81398151Y-83147433D01*
X81147433Y-83398151D01*
X80852620Y-83595139D01*
X80525041Y-83730827D01*
X80351162Y-83765414D01*
X80177286Y-83800000D01*
X79822714Y-83800000D01*
X79648838Y-83765414D01*
X79474959Y-83730827D01*
X79147380Y-83595139D01*
X78852567Y-83398151D01*
X78601849Y-83147433D01*
X78404861Y-82852620D01*
X78401090Y-82843515D01*
X78341646Y-82700005D01*
X78269173Y-82525041D01*
X78224409Y-82299995D01*
X78200000Y-82177286D01*
X78200000Y-81822714D01*
X78250495Y-81568860D01*
X78269173Y-81474959D01*
X78404861Y-81147380D01*
X78601849Y-80852567D01*
X78852567Y-80601849D01*
X79147380Y-80404861D01*
X79474959Y-80269173D01*
X79648837Y-80234587D01*
X79822714Y-80200000D01*
X80177286Y-80200000D01*
X80351163Y-80234587D01*
X80351163Y-80234587D01*
G37*
G36*
X75050000Y-83650000D02*
G01*
X73850000Y-83650000D01*
X73850000Y-81350000D01*
X75050000Y-81350000D01*
X75050000Y-83650000D01*
X75050000Y-83650000D01*
G37*
G36*
X73150000Y-83650000D02*
G01*
X71950000Y-83650000D01*
X71950000Y-81350000D01*
X73150000Y-81350000D01*
X73150000Y-83650000D01*
X73150000Y-83650000D01*
G37*
G36*
X68953530Y-82155877D02*
G01*
X69005010Y-82171493D01*
X69052445Y-82196848D01*
X69094027Y-82230973D01*
X69128152Y-82272555D01*
X69153507Y-82319990D01*
X69169123Y-82371470D01*
X69175000Y-82431140D01*
X69175000Y-83318860D01*
X69169123Y-83378530D01*
X69153507Y-83430010D01*
X69128152Y-83477445D01*
X69094027Y-83519027D01*
X69052445Y-83553152D01*
X69005010Y-83578507D01*
X68953530Y-83594123D01*
X68893860Y-83600000D01*
X68106140Y-83600000D01*
X68046470Y-83594123D01*
X67994990Y-83578507D01*
X67947555Y-83553152D01*
X67905973Y-83519027D01*
X67871848Y-83477445D01*
X67846493Y-83430010D01*
X67830877Y-83378530D01*
X67825000Y-83318860D01*
X67825000Y-82431140D01*
X67830877Y-82371470D01*
X67846493Y-82319990D01*
X67871848Y-82272555D01*
X67905973Y-82230973D01*
X67947555Y-82196848D01*
X67994990Y-82171493D01*
X68046470Y-82155877D01*
X68106140Y-82150000D01*
X68893860Y-82150000D01*
X68953530Y-82155877D01*
X68953530Y-82155877D01*
G37*
G36*
X70953530Y-81405877D02*
G01*
X71005010Y-81421493D01*
X71052445Y-81446848D01*
X71094027Y-81480973D01*
X71128152Y-81522555D01*
X71153507Y-81569990D01*
X71169123Y-81621470D01*
X71175000Y-81681140D01*
X71175000Y-82568860D01*
X71169123Y-82628530D01*
X71153507Y-82680010D01*
X71128152Y-82727445D01*
X71094027Y-82769027D01*
X71052445Y-82803152D01*
X71005010Y-82828507D01*
X70953530Y-82844123D01*
X70893860Y-82850000D01*
X70106140Y-82850000D01*
X70046470Y-82844123D01*
X69994990Y-82828507D01*
X69947555Y-82803152D01*
X69905973Y-82769027D01*
X69871848Y-82727445D01*
X69846493Y-82680010D01*
X69830877Y-82628530D01*
X69825000Y-82568860D01*
X69825000Y-81681140D01*
X69830877Y-81621470D01*
X69846493Y-81569990D01*
X69871848Y-81522555D01*
X69905973Y-81480973D01*
X69947555Y-81446848D01*
X69994990Y-81421493D01*
X70046470Y-81405877D01*
X70106140Y-81400000D01*
X70893860Y-81400000D01*
X70953530Y-81405877D01*
X70953530Y-81405877D01*
G37*
G36*
X68953530Y-80405877D02*
G01*
X69005010Y-80421493D01*
X69052445Y-80446848D01*
X69094027Y-80480973D01*
X69128152Y-80522555D01*
X69153507Y-80569990D01*
X69169123Y-80621470D01*
X69175000Y-80681140D01*
X69175000Y-81568860D01*
X69169123Y-81628530D01*
X69153507Y-81680010D01*
X69128152Y-81727445D01*
X69094027Y-81769027D01*
X69052445Y-81803152D01*
X69005010Y-81828507D01*
X68953530Y-81844123D01*
X68893860Y-81850000D01*
X68106140Y-81850000D01*
X68046470Y-81844123D01*
X67994990Y-81828507D01*
X67947555Y-81803152D01*
X67905973Y-81769027D01*
X67871848Y-81727445D01*
X67846493Y-81680010D01*
X67830877Y-81628530D01*
X67825000Y-81568860D01*
X67825000Y-80681140D01*
X67830877Y-80621470D01*
X67846493Y-80569990D01*
X67871848Y-80522555D01*
X67905973Y-80480973D01*
X67947555Y-80446848D01*
X67994990Y-80421493D01*
X68046470Y-80405877D01*
X68106140Y-80400000D01*
X68893860Y-80400000D01*
X68953530Y-80405877D01*
X68953530Y-80405877D01*
G37*
G36*
X74100000Y-80650000D02*
G01*
X72900000Y-80650000D01*
X72900000Y-78350000D01*
X74100000Y-78350000D01*
X74100000Y-80650000D01*
X74100000Y-80650000D01*
G37*
G36*
X69128530Y-78330877D02*
G01*
X69180010Y-78346493D01*
X69227445Y-78371848D01*
X69269027Y-78405973D01*
X69303152Y-78447555D01*
X69328507Y-78494990D01*
X69344123Y-78546470D01*
X69350000Y-78606140D01*
X69350000Y-79393860D01*
X69344123Y-79453530D01*
X69328507Y-79505010D01*
X69303152Y-79552445D01*
X69269027Y-79594027D01*
X69227445Y-79628152D01*
X69180010Y-79653507D01*
X69128530Y-79669123D01*
X69068860Y-79675000D01*
X68181140Y-79675000D01*
X68121470Y-79669123D01*
X68069990Y-79653507D01*
X68022555Y-79628152D01*
X67980973Y-79594027D01*
X67946848Y-79552445D01*
X67921493Y-79505010D01*
X67905877Y-79453530D01*
X67900000Y-79393860D01*
X67900000Y-78606140D01*
X67905877Y-78546470D01*
X67921493Y-78494990D01*
X67946848Y-78447555D01*
X67980973Y-78405973D01*
X68022555Y-78371848D01*
X68069990Y-78346493D01*
X68121470Y-78330877D01*
X68181140Y-78325000D01*
X69068860Y-78325000D01*
X69128530Y-78330877D01*
X69128530Y-78330877D01*
G37*
G36*
X70878530Y-78330877D02*
G01*
X70930010Y-78346493D01*
X70977445Y-78371848D01*
X71019027Y-78405973D01*
X71053152Y-78447555D01*
X71078507Y-78494990D01*
X71094123Y-78546470D01*
X71100000Y-78606140D01*
X71100000Y-79393860D01*
X71094123Y-79453530D01*
X71078507Y-79505010D01*
X71053152Y-79552445D01*
X71019027Y-79594027D01*
X70977445Y-79628152D01*
X70930010Y-79653507D01*
X70878530Y-79669123D01*
X70818860Y-79675000D01*
X69931140Y-79675000D01*
X69871470Y-79669123D01*
X69819990Y-79653507D01*
X69772555Y-79628152D01*
X69730973Y-79594027D01*
X69696848Y-79552445D01*
X69671493Y-79505010D01*
X69655877Y-79453530D01*
X69650000Y-79393860D01*
X69650000Y-78606140D01*
X69655877Y-78546470D01*
X69671493Y-78494990D01*
X69696848Y-78447555D01*
X69730973Y-78405973D01*
X69772555Y-78371848D01*
X69819990Y-78346493D01*
X69871470Y-78330877D01*
X69931140Y-78325000D01*
X70818860Y-78325000D01*
X70878530Y-78330877D01*
X70878530Y-78330877D01*
G37*
G36*
X80351163Y-75534587D02*
G01*
X80525041Y-75569173D01*
X80852620Y-75704861D01*
X81147433Y-75901849D01*
X81398151Y-76152567D01*
X81595139Y-76447380D01*
X81730827Y-76774959D01*
X81800000Y-77122716D01*
X81800000Y-77477284D01*
X81730827Y-77825041D01*
X81595139Y-78152620D01*
X81398151Y-78447433D01*
X81147433Y-78698151D01*
X80852620Y-78895139D01*
X80525041Y-79030827D01*
X80351163Y-79065413D01*
X80177286Y-79100000D01*
X79822714Y-79100000D01*
X79648837Y-79065413D01*
X79474959Y-79030827D01*
X79147380Y-78895139D01*
X78852567Y-78698151D01*
X78601849Y-78447433D01*
X78404861Y-78152620D01*
X78269173Y-77825041D01*
X78200000Y-77477284D01*
X78200000Y-77122716D01*
X78269173Y-76774959D01*
X78404861Y-76447380D01*
X78601849Y-76152567D01*
X78852567Y-75901849D01*
X79147380Y-75704861D01*
X79474959Y-75569173D01*
X79648837Y-75534587D01*
X79822714Y-75500000D01*
X80177286Y-75500000D01*
X80351163Y-75534587D01*
X80351163Y-75534587D01*
G37*
G36*
X67690000Y-76650000D02*
G01*
X66690000Y-76650000D01*
X66690000Y-74750000D01*
X67690000Y-74750000D01*
X67690000Y-76650000D01*
X67690000Y-76650000D01*
G37*
G36*
X68960000Y-76650000D02*
G01*
X67960000Y-76650000D01*
X67960000Y-74750000D01*
X68960000Y-74750000D01*
X68960000Y-76650000D01*
X68960000Y-76650000D01*
G37*
G36*
X70230000Y-76650000D02*
G01*
X69230000Y-76650000D01*
X69230000Y-74750000D01*
X70230000Y-74750000D01*
X70230000Y-76650000D01*
X70230000Y-76650000D01*
G37*
G36*
X71500000Y-76650000D02*
G01*
X70500000Y-76650000D01*
X70500000Y-74750000D01*
X71500000Y-74750000D01*
X71500000Y-76650000D01*
X71500000Y-76650000D01*
G37*
G36*
X72770000Y-76650000D02*
G01*
X71770000Y-76650000D01*
X71770000Y-74750000D01*
X72770000Y-74750000D01*
X72770000Y-76650000D01*
X72770000Y-76650000D01*
G37*
G36*
X74040000Y-76650000D02*
G01*
X73040000Y-76650000D01*
X73040000Y-74750000D01*
X74040000Y-74750000D01*
X74040000Y-76650000D01*
X74040000Y-76650000D01*
G37*
G36*
X75310000Y-76650000D02*
G01*
X74310000Y-76650000D01*
X74310000Y-74750000D01*
X75310000Y-74750000D01*
X75310000Y-76650000D01*
X75310000Y-76650000D01*
G37*
G36*
X107251162Y-72884586D02*
G01*
X107425041Y-72919173D01*
X107752620Y-73054861D01*
X108047433Y-73251849D01*
X108298151Y-73502567D01*
X108495139Y-73797380D01*
X108630827Y-74124959D01*
X108700000Y-74472716D01*
X108700000Y-74827284D01*
X108630827Y-75175041D01*
X108495139Y-75502620D01*
X108298151Y-75797433D01*
X108047433Y-76048151D01*
X107752620Y-76245139D01*
X107425041Y-76380827D01*
X107251162Y-76415414D01*
X107077286Y-76450000D01*
X106722714Y-76450000D01*
X106548838Y-76415414D01*
X106374959Y-76380827D01*
X106047380Y-76245139D01*
X105752567Y-76048151D01*
X105501849Y-75797433D01*
X105304861Y-75502620D01*
X105169173Y-75175041D01*
X105100000Y-74827284D01*
X105100000Y-74472716D01*
X105169173Y-74124959D01*
X105304861Y-73797380D01*
X105501849Y-73502567D01*
X105752567Y-73251849D01*
X106047380Y-73054861D01*
X106374959Y-72919173D01*
X106548838Y-72884586D01*
X106722714Y-72850000D01*
X107077286Y-72850000D01*
X107251162Y-72884586D01*
X107251162Y-72884586D01*
G37*
G36*
X83253530Y-73330877D02*
G01*
X83305010Y-73346493D01*
X83352445Y-73371848D01*
X83394027Y-73405973D01*
X83428152Y-73447555D01*
X83453507Y-73494990D01*
X83469123Y-73546470D01*
X83475000Y-73606140D01*
X83475000Y-74393860D01*
X83469123Y-74453530D01*
X83453507Y-74505010D01*
X83428152Y-74552445D01*
X83394027Y-74594027D01*
X83352445Y-74628152D01*
X83305010Y-74653507D01*
X83253530Y-74669123D01*
X83193860Y-74675000D01*
X82306140Y-74675000D01*
X82246470Y-74669123D01*
X82194990Y-74653507D01*
X82147555Y-74628152D01*
X82105973Y-74594027D01*
X82071848Y-74552445D01*
X82046493Y-74505010D01*
X82030877Y-74453530D01*
X82025000Y-74393860D01*
X82025000Y-73606140D01*
X82030877Y-73546470D01*
X82046493Y-73494990D01*
X82071848Y-73447555D01*
X82105973Y-73405973D01*
X82147555Y-73371848D01*
X82194990Y-73346493D01*
X82246470Y-73330877D01*
X82306140Y-73325000D01*
X83193860Y-73325000D01*
X83253530Y-73330877D01*
X83253530Y-73330877D01*
G37*
G36*
X81503530Y-73330877D02*
G01*
X81555010Y-73346493D01*
X81602445Y-73371848D01*
X81644027Y-73405973D01*
X81678152Y-73447555D01*
X81703507Y-73494990D01*
X81719123Y-73546470D01*
X81725000Y-73606140D01*
X81725000Y-74393860D01*
X81719123Y-74453530D01*
X81703507Y-74505010D01*
X81678152Y-74552445D01*
X81644027Y-74594027D01*
X81602445Y-74628152D01*
X81555010Y-74653507D01*
X81503530Y-74669123D01*
X81443860Y-74675000D01*
X80556140Y-74675000D01*
X80496470Y-74669123D01*
X80444990Y-74653507D01*
X80397555Y-74628152D01*
X80355973Y-74594027D01*
X80321848Y-74552445D01*
X80296493Y-74505010D01*
X80280877Y-74453530D01*
X80275000Y-74393860D01*
X80275000Y-73606140D01*
X80280877Y-73546470D01*
X80296493Y-73494990D01*
X80321848Y-73447555D01*
X80355973Y-73405973D01*
X80397555Y-73371848D01*
X80444990Y-73346493D01*
X80496470Y-73330877D01*
X80556140Y-73325000D01*
X81443860Y-73325000D01*
X81503530Y-73330877D01*
X81503530Y-73330877D01*
G37*
G36*
X79378530Y-73330877D02*
G01*
X79430010Y-73346493D01*
X79477445Y-73371848D01*
X79519027Y-73405973D01*
X79553152Y-73447555D01*
X79578507Y-73494990D01*
X79594123Y-73546470D01*
X79600000Y-73606140D01*
X79600000Y-74393860D01*
X79594123Y-74453530D01*
X79578507Y-74505010D01*
X79553152Y-74552445D01*
X79519027Y-74594027D01*
X79477445Y-74628152D01*
X79430010Y-74653507D01*
X79378530Y-74669123D01*
X79318860Y-74675000D01*
X78431140Y-74675000D01*
X78371470Y-74669123D01*
X78319990Y-74653507D01*
X78272555Y-74628152D01*
X78230973Y-74594027D01*
X78196848Y-74552445D01*
X78171493Y-74505010D01*
X78155877Y-74453530D01*
X78150000Y-74393860D01*
X78150000Y-73606140D01*
X78155877Y-73546470D01*
X78171493Y-73494990D01*
X78196848Y-73447555D01*
X78230973Y-73405973D01*
X78272555Y-73371848D01*
X78319990Y-73346493D01*
X78371470Y-73330877D01*
X78431140Y-73325000D01*
X79318860Y-73325000D01*
X79378530Y-73330877D01*
X79378530Y-73330877D01*
G37*
G36*
X77628530Y-73330877D02*
G01*
X77680010Y-73346493D01*
X77727445Y-73371848D01*
X77769027Y-73405973D01*
X77803152Y-73447555D01*
X77828507Y-73494990D01*
X77844123Y-73546470D01*
X77850000Y-73606140D01*
X77850000Y-74393860D01*
X77844123Y-74453530D01*
X77828507Y-74505010D01*
X77803152Y-74552445D01*
X77769027Y-74594027D01*
X77727445Y-74628152D01*
X77680010Y-74653507D01*
X77628530Y-74669123D01*
X77568860Y-74675000D01*
X76681140Y-74675000D01*
X76621470Y-74669123D01*
X76569990Y-74653507D01*
X76522555Y-74628152D01*
X76480973Y-74594027D01*
X76446848Y-74552445D01*
X76421493Y-74505010D01*
X76405877Y-74453530D01*
X76400000Y-74393860D01*
X76400000Y-73606140D01*
X76405877Y-73546470D01*
X76421493Y-73494990D01*
X76446848Y-73447555D01*
X76480973Y-73405973D01*
X76522555Y-73371848D01*
X76569990Y-73346493D01*
X76621470Y-73330877D01*
X76681140Y-73325000D01*
X77568860Y-73325000D01*
X77628530Y-73330877D01*
X77628530Y-73330877D01*
G37*
G36*
X77453530Y-70155877D02*
G01*
X77505010Y-70171493D01*
X77552445Y-70196848D01*
X77594027Y-70230973D01*
X77628152Y-70272555D01*
X77653507Y-70319990D01*
X77669123Y-70371470D01*
X77675000Y-70431140D01*
X77675000Y-71318860D01*
X77669123Y-71378530D01*
X77653507Y-71430010D01*
X77628152Y-71477445D01*
X77594027Y-71519027D01*
X77552445Y-71553152D01*
X77505010Y-71578507D01*
X77453530Y-71594123D01*
X77393860Y-71600000D01*
X76606140Y-71600000D01*
X76546470Y-71594123D01*
X76494990Y-71578507D01*
X76447555Y-71553152D01*
X76405973Y-71519027D01*
X76371848Y-71477445D01*
X76346493Y-71430010D01*
X76330877Y-71378530D01*
X76325000Y-71318860D01*
X76325000Y-70431140D01*
X76330877Y-70371470D01*
X76346493Y-70319990D01*
X76371848Y-70272555D01*
X76405973Y-70230973D01*
X76447555Y-70196848D01*
X76494990Y-70171493D01*
X76546470Y-70155877D01*
X76606140Y-70150000D01*
X77393860Y-70150000D01*
X77453530Y-70155877D01*
X77453530Y-70155877D01*
G37*
G36*
X82296093Y-68378530D02*
G01*
X82452118Y-68409565D01*
X82549748Y-68450005D01*
X82734199Y-68526407D01*
X82734200Y-68526408D01*
X82988068Y-68696036D01*
X83203964Y-68911932D01*
X83317306Y-69081561D01*
X83373593Y-69165801D01*
X83490435Y-69447883D01*
X83550000Y-69747337D01*
X83550000Y-70052663D01*
X83526363Y-70171493D01*
X83496826Y-70319990D01*
X83490435Y-70352117D01*
X83373593Y-70634199D01*
X83373592Y-70634200D01*
X83203964Y-70888068D01*
X82988068Y-71103964D01*
X82818439Y-71217306D01*
X82734199Y-71273593D01*
X82568960Y-71342037D01*
X82452118Y-71390435D01*
X82302390Y-71420218D01*
X82152663Y-71450000D01*
X81847337Y-71450000D01*
X81697610Y-71420218D01*
X81547882Y-71390435D01*
X81431040Y-71342037D01*
X81265801Y-71273593D01*
X81181561Y-71217306D01*
X81011932Y-71103964D01*
X80796036Y-70888068D01*
X80626408Y-70634200D01*
X80626407Y-70634199D01*
X80509565Y-70352117D01*
X80503175Y-70319990D01*
X80473637Y-70171493D01*
X80450000Y-70052663D01*
X80450000Y-69747337D01*
X80509565Y-69447883D01*
X80626407Y-69165801D01*
X80682694Y-69081561D01*
X80796036Y-68911932D01*
X81011932Y-68696036D01*
X81265800Y-68526408D01*
X81265801Y-68526407D01*
X81450252Y-68450005D01*
X81547882Y-68409565D01*
X81703907Y-68378530D01*
X81847337Y-68350000D01*
X82152663Y-68350000D01*
X82296093Y-68378530D01*
X82296093Y-68378530D01*
G37*
G36*
X74040000Y-71250000D02*
G01*
X73040000Y-71250000D01*
X73040000Y-69350000D01*
X74040000Y-69350000D01*
X74040000Y-71250000D01*
X74040000Y-71250000D01*
G37*
G36*
X72770000Y-71250000D02*
G01*
X71770000Y-71250000D01*
X71770000Y-69350000D01*
X72770000Y-69350000D01*
X72770000Y-71250000D01*
X72770000Y-71250000D01*
G37*
G36*
X71500000Y-71250000D02*
G01*
X70500000Y-71250000D01*
X70500000Y-69350000D01*
X71500000Y-69350000D01*
X71500000Y-71250000D01*
X71500000Y-71250000D01*
G37*
G36*
X70230000Y-71250000D02*
G01*
X69230000Y-71250000D01*
X69230000Y-69350000D01*
X70230000Y-69350000D01*
X70230000Y-71250000D01*
X70230000Y-71250000D01*
G37*
G36*
X68960000Y-71250000D02*
G01*
X67960000Y-71250000D01*
X67960000Y-69350000D01*
X68960000Y-69350000D01*
X68960000Y-71250000D01*
X68960000Y-71250000D01*
G37*
G36*
X67690000Y-71250000D02*
G01*
X66690000Y-71250000D01*
X66690000Y-69350000D01*
X67690000Y-69350000D01*
X67690000Y-71250000D01*
X67690000Y-71250000D01*
G37*
G36*
X75310000Y-71250000D02*
G01*
X74310000Y-71250000D01*
X74310000Y-69350000D01*
X75310000Y-69350000D01*
X75310000Y-71250000D01*
X75310000Y-71250000D01*
G37*
G36*
X77453530Y-68405877D02*
G01*
X77505010Y-68421493D01*
X77552445Y-68446848D01*
X77594027Y-68480973D01*
X77628152Y-68522555D01*
X77653507Y-68569990D01*
X77669123Y-68621470D01*
X77675000Y-68681140D01*
X77675000Y-69568860D01*
X77669123Y-69628530D01*
X77653507Y-69680010D01*
X77628152Y-69727445D01*
X77594027Y-69769027D01*
X77552445Y-69803152D01*
X77505010Y-69828507D01*
X77453530Y-69844123D01*
X77393860Y-69850000D01*
X76606140Y-69850000D01*
X76546470Y-69844123D01*
X76494990Y-69828507D01*
X76447555Y-69803152D01*
X76405973Y-69769027D01*
X76371848Y-69727445D01*
X76346493Y-69680010D01*
X76330877Y-69628530D01*
X76325000Y-69568860D01*
X76325000Y-68681140D01*
X76330877Y-68621470D01*
X76346493Y-68569990D01*
X76371848Y-68522555D01*
X76405973Y-68480973D01*
X76447555Y-68446848D01*
X76494990Y-68421493D01*
X76546470Y-68405877D01*
X76606140Y-68400000D01*
X77393860Y-68400000D01*
X77453530Y-68405877D01*
X77453530Y-68405877D01*
G37*
G36*
X75453530Y-67155877D02*
G01*
X75505010Y-67171493D01*
X75552445Y-67196848D01*
X75594027Y-67230973D01*
X75628152Y-67272555D01*
X75653507Y-67319990D01*
X75669123Y-67371470D01*
X75675000Y-67431140D01*
X75675000Y-68318860D01*
X75669123Y-68378530D01*
X75653507Y-68430010D01*
X75628152Y-68477445D01*
X75594027Y-68519027D01*
X75552445Y-68553152D01*
X75505010Y-68578507D01*
X75453530Y-68594123D01*
X75393860Y-68600000D01*
X74606140Y-68600000D01*
X74546470Y-68594123D01*
X74494990Y-68578507D01*
X74447555Y-68553152D01*
X74405973Y-68519027D01*
X74371848Y-68477445D01*
X74346493Y-68430010D01*
X74330877Y-68378530D01*
X74325000Y-68318860D01*
X74325000Y-67431140D01*
X74330877Y-67371470D01*
X74346493Y-67319990D01*
X74371848Y-67272555D01*
X74405973Y-67230973D01*
X74447555Y-67196848D01*
X74494990Y-67171493D01*
X74546470Y-67155877D01*
X74606140Y-67150000D01*
X75393860Y-67150000D01*
X75453530Y-67155877D01*
X75453530Y-67155877D01*
G37*
G36*
X72453530Y-67155877D02*
G01*
X72505010Y-67171493D01*
X72552445Y-67196848D01*
X72594027Y-67230973D01*
X72628152Y-67272555D01*
X72653507Y-67319990D01*
X72669123Y-67371470D01*
X72675000Y-67431140D01*
X72675000Y-68318860D01*
X72669123Y-68378530D01*
X72653507Y-68430010D01*
X72628152Y-68477445D01*
X72594027Y-68519027D01*
X72552445Y-68553152D01*
X72505010Y-68578507D01*
X72453530Y-68594123D01*
X72393860Y-68600000D01*
X71606140Y-68600000D01*
X71546470Y-68594123D01*
X71494990Y-68578507D01*
X71447555Y-68553152D01*
X71405973Y-68519027D01*
X71371848Y-68477445D01*
X71346493Y-68430010D01*
X71330877Y-68378530D01*
X71325000Y-68318860D01*
X71325000Y-67431140D01*
X71330877Y-67371470D01*
X71346493Y-67319990D01*
X71371848Y-67272555D01*
X71405973Y-67230973D01*
X71447555Y-67196848D01*
X71494990Y-67171493D01*
X71546470Y-67155877D01*
X71606140Y-67150000D01*
X72393860Y-67150000D01*
X72453530Y-67155877D01*
X72453530Y-67155877D01*
G37*
G36*
X69453530Y-66155877D02*
G01*
X69505010Y-66171493D01*
X69552445Y-66196848D01*
X69594027Y-66230973D01*
X69628152Y-66272555D01*
X69653507Y-66319990D01*
X69669123Y-66371470D01*
X69675000Y-66431140D01*
X69675000Y-67318860D01*
X69669123Y-67378530D01*
X69653507Y-67430010D01*
X69628152Y-67477445D01*
X69594027Y-67519027D01*
X69552445Y-67553152D01*
X69505010Y-67578507D01*
X69453530Y-67594123D01*
X69393860Y-67600000D01*
X68606140Y-67600000D01*
X68546470Y-67594123D01*
X68494990Y-67578507D01*
X68447555Y-67553152D01*
X68405973Y-67519027D01*
X68371848Y-67477445D01*
X68346493Y-67430010D01*
X68330877Y-67378530D01*
X68325000Y-67318860D01*
X68325000Y-66431140D01*
X68330877Y-66371470D01*
X68346493Y-66319990D01*
X68371848Y-66272555D01*
X68405973Y-66230973D01*
X68447555Y-66196848D01*
X68494990Y-66171493D01*
X68546470Y-66155877D01*
X68606140Y-66150000D01*
X69393860Y-66150000D01*
X69453530Y-66155877D01*
X69453530Y-66155877D01*
G37*
G36*
X67453530Y-66155877D02*
G01*
X67505010Y-66171493D01*
X67552445Y-66196848D01*
X67594027Y-66230973D01*
X67628152Y-66272555D01*
X67653507Y-66319990D01*
X67669123Y-66371470D01*
X67675000Y-66431140D01*
X67675000Y-67318860D01*
X67669123Y-67378530D01*
X67653507Y-67430010D01*
X67628152Y-67477445D01*
X67594027Y-67519027D01*
X67552445Y-67553152D01*
X67505010Y-67578507D01*
X67453530Y-67594123D01*
X67393860Y-67600000D01*
X66606140Y-67600000D01*
X66546470Y-67594123D01*
X66494990Y-67578507D01*
X66447555Y-67553152D01*
X66405973Y-67519027D01*
X66371848Y-67477445D01*
X66346493Y-67430010D01*
X66330877Y-67378530D01*
X66325000Y-67318860D01*
X66325000Y-66431140D01*
X66330877Y-66371470D01*
X66346493Y-66319990D01*
X66371848Y-66272555D01*
X66405973Y-66230973D01*
X66447555Y-66196848D01*
X66494990Y-66171493D01*
X66546470Y-66155877D01*
X66606140Y-66150000D01*
X67393860Y-66150000D01*
X67453530Y-66155877D01*
X67453530Y-66155877D01*
G37*
G36*
X65453530Y-66155877D02*
G01*
X65505010Y-66171493D01*
X65552445Y-66196848D01*
X65594027Y-66230973D01*
X65628152Y-66272555D01*
X65653507Y-66319990D01*
X65669123Y-66371470D01*
X65675000Y-66431140D01*
X65675000Y-67318860D01*
X65669123Y-67378530D01*
X65653507Y-67430010D01*
X65628152Y-67477445D01*
X65594027Y-67519027D01*
X65552445Y-67553152D01*
X65505010Y-67578507D01*
X65453530Y-67594123D01*
X65393860Y-67600000D01*
X64606140Y-67600000D01*
X64546470Y-67594123D01*
X64494990Y-67578507D01*
X64447555Y-67553152D01*
X64405973Y-67519027D01*
X64371848Y-67477445D01*
X64346493Y-67430010D01*
X64330877Y-67378530D01*
X64325000Y-67318860D01*
X64325000Y-66431140D01*
X64330877Y-66371470D01*
X64346493Y-66319990D01*
X64371848Y-66272555D01*
X64405973Y-66230973D01*
X64447555Y-66196848D01*
X64494990Y-66171493D01*
X64546470Y-66155877D01*
X64606140Y-66150000D01*
X65393860Y-66150000D01*
X65453530Y-66155877D01*
X65453530Y-66155877D01*
G37*
G36*
X75453530Y-65405877D02*
G01*
X75505010Y-65421493D01*
X75552445Y-65446848D01*
X75594027Y-65480973D01*
X75628152Y-65522555D01*
X75653507Y-65569990D01*
X75669123Y-65621470D01*
X75675000Y-65681140D01*
X75675000Y-66568860D01*
X75669123Y-66628530D01*
X75653507Y-66680010D01*
X75628152Y-66727445D01*
X75594027Y-66769027D01*
X75552445Y-66803152D01*
X75505010Y-66828507D01*
X75453530Y-66844123D01*
X75393860Y-66850000D01*
X74606140Y-66850000D01*
X74546470Y-66844123D01*
X74494990Y-66828507D01*
X74447555Y-66803152D01*
X74405973Y-66769027D01*
X74371848Y-66727445D01*
X74346493Y-66680010D01*
X74330877Y-66628530D01*
X74325000Y-66568860D01*
X74325000Y-65681140D01*
X74330877Y-65621470D01*
X74346493Y-65569990D01*
X74371848Y-65522555D01*
X74405973Y-65480973D01*
X74447555Y-65446848D01*
X74494990Y-65421493D01*
X74546470Y-65405877D01*
X74606140Y-65400000D01*
X75393860Y-65400000D01*
X75453530Y-65405877D01*
X75453530Y-65405877D01*
G37*
G36*
X72453530Y-65405877D02*
G01*
X72505010Y-65421493D01*
X72552445Y-65446848D01*
X72594027Y-65480973D01*
X72628152Y-65522555D01*
X72653507Y-65569990D01*
X72669123Y-65621470D01*
X72675000Y-65681140D01*
X72675000Y-66568860D01*
X72669123Y-66628530D01*
X72653507Y-66680010D01*
X72628152Y-66727445D01*
X72594027Y-66769027D01*
X72552445Y-66803152D01*
X72505010Y-66828507D01*
X72453530Y-66844123D01*
X72393860Y-66850000D01*
X71606140Y-66850000D01*
X71546470Y-66844123D01*
X71494990Y-66828507D01*
X71447555Y-66803152D01*
X71405973Y-66769027D01*
X71371848Y-66727445D01*
X71346493Y-66680010D01*
X71330877Y-66628530D01*
X71325000Y-66568860D01*
X71325000Y-65681140D01*
X71330877Y-65621470D01*
X71346493Y-65569990D01*
X71371848Y-65522555D01*
X71405973Y-65480973D01*
X71447555Y-65446848D01*
X71494990Y-65421493D01*
X71546470Y-65405877D01*
X71606140Y-65400000D01*
X72393860Y-65400000D01*
X72453530Y-65405877D01*
X72453530Y-65405877D01*
G37*
G36*
X83378530Y-65330877D02*
G01*
X83430010Y-65346493D01*
X83477445Y-65371848D01*
X83519027Y-65405973D01*
X83553152Y-65447555D01*
X83578507Y-65494990D01*
X83594123Y-65546470D01*
X83600000Y-65606140D01*
X83600000Y-66393860D01*
X83594123Y-66453530D01*
X83578507Y-66505010D01*
X83553152Y-66552445D01*
X83519027Y-66594027D01*
X83477445Y-66628152D01*
X83430010Y-66653507D01*
X83378530Y-66669123D01*
X83318860Y-66675000D01*
X82431140Y-66675000D01*
X82371470Y-66669123D01*
X82319990Y-66653507D01*
X82272555Y-66628152D01*
X82230973Y-66594027D01*
X82196848Y-66552445D01*
X82171493Y-66505010D01*
X82155877Y-66453530D01*
X82150000Y-66393860D01*
X82150000Y-65606140D01*
X82155877Y-65546470D01*
X82171493Y-65494990D01*
X82196848Y-65447555D01*
X82230973Y-65405973D01*
X82272555Y-65371848D01*
X82319990Y-65346493D01*
X82371470Y-65330877D01*
X82431140Y-65325000D01*
X83318860Y-65325000D01*
X83378530Y-65330877D01*
X83378530Y-65330877D01*
G37*
G36*
X81628530Y-65330877D02*
G01*
X81680010Y-65346493D01*
X81727445Y-65371848D01*
X81769027Y-65405973D01*
X81803152Y-65447555D01*
X81828507Y-65494990D01*
X81844123Y-65546470D01*
X81850000Y-65606140D01*
X81850000Y-66393860D01*
X81844123Y-66453530D01*
X81828507Y-66505010D01*
X81803152Y-66552445D01*
X81769027Y-66594027D01*
X81727445Y-66628152D01*
X81680010Y-66653507D01*
X81628530Y-66669123D01*
X81568860Y-66675000D01*
X80681140Y-66675000D01*
X80621470Y-66669123D01*
X80569990Y-66653507D01*
X80522555Y-66628152D01*
X80480973Y-66594027D01*
X80446848Y-66552445D01*
X80421493Y-66505010D01*
X80405877Y-66453530D01*
X80400000Y-66393860D01*
X80400000Y-65606140D01*
X80405877Y-65546470D01*
X80421493Y-65494990D01*
X80446848Y-65447555D01*
X80480973Y-65405973D01*
X80522555Y-65371848D01*
X80569990Y-65346493D01*
X80621470Y-65330877D01*
X80681140Y-65325000D01*
X81568860Y-65325000D01*
X81628530Y-65330877D01*
X81628530Y-65330877D01*
G37*
G36*
X77628530Y-65330877D02*
G01*
X77680010Y-65346493D01*
X77727445Y-65371848D01*
X77769027Y-65405973D01*
X77803152Y-65447555D01*
X77828507Y-65494990D01*
X77844123Y-65546470D01*
X77850000Y-65606140D01*
X77850000Y-66393860D01*
X77844123Y-66453530D01*
X77828507Y-66505010D01*
X77803152Y-66552445D01*
X77769027Y-66594027D01*
X77727445Y-66628152D01*
X77680010Y-66653507D01*
X77628530Y-66669123D01*
X77568860Y-66675000D01*
X76681140Y-66675000D01*
X76621470Y-66669123D01*
X76569990Y-66653507D01*
X76522555Y-66628152D01*
X76480973Y-66594027D01*
X76446848Y-66552445D01*
X76421493Y-66505010D01*
X76405877Y-66453530D01*
X76400000Y-66393860D01*
X76400000Y-65606140D01*
X76405877Y-65546470D01*
X76421493Y-65494990D01*
X76446848Y-65447555D01*
X76480973Y-65405973D01*
X76522555Y-65371848D01*
X76569990Y-65346493D01*
X76621470Y-65330877D01*
X76681140Y-65325000D01*
X77568860Y-65325000D01*
X77628530Y-65330877D01*
X77628530Y-65330877D01*
G37*
G36*
X79378530Y-65330877D02*
G01*
X79430010Y-65346493D01*
X79477445Y-65371848D01*
X79519027Y-65405973D01*
X79553152Y-65447555D01*
X79578507Y-65494990D01*
X79594123Y-65546470D01*
X79600000Y-65606140D01*
X79600000Y-66393860D01*
X79594123Y-66453530D01*
X79578507Y-66505010D01*
X79553152Y-66552445D01*
X79519027Y-66594027D01*
X79477445Y-66628152D01*
X79430010Y-66653507D01*
X79378530Y-66669123D01*
X79318860Y-66675000D01*
X78431140Y-66675000D01*
X78371470Y-66669123D01*
X78319990Y-66653507D01*
X78272555Y-66628152D01*
X78230973Y-66594027D01*
X78196848Y-66552445D01*
X78171493Y-66505010D01*
X78155877Y-66453530D01*
X78150000Y-66393860D01*
X78150000Y-65606140D01*
X78155877Y-65546470D01*
X78171493Y-65494990D01*
X78196848Y-65447555D01*
X78230973Y-65405973D01*
X78272555Y-65371848D01*
X78319990Y-65346493D01*
X78371470Y-65330877D01*
X78431140Y-65325000D01*
X79318860Y-65325000D01*
X79378530Y-65330877D01*
X79378530Y-65330877D01*
G37*
G36*
X65453530Y-64405877D02*
G01*
X65505010Y-64421493D01*
X65552445Y-64446848D01*
X65594027Y-64480973D01*
X65628152Y-64522555D01*
X65653507Y-64569990D01*
X65669123Y-64621470D01*
X65675000Y-64681140D01*
X65675000Y-65568860D01*
X65669123Y-65628530D01*
X65653507Y-65680010D01*
X65628152Y-65727445D01*
X65594027Y-65769027D01*
X65552445Y-65803152D01*
X65505010Y-65828507D01*
X65453530Y-65844123D01*
X65393860Y-65850000D01*
X64606140Y-65850000D01*
X64546470Y-65844123D01*
X64494990Y-65828507D01*
X64447555Y-65803152D01*
X64405973Y-65769027D01*
X64371848Y-65727445D01*
X64346493Y-65680010D01*
X64330877Y-65628530D01*
X64325000Y-65568860D01*
X64325000Y-64681140D01*
X64330877Y-64621470D01*
X64346493Y-64569990D01*
X64371848Y-64522555D01*
X64405973Y-64480973D01*
X64447555Y-64446848D01*
X64494990Y-64421493D01*
X64546470Y-64405877D01*
X64606140Y-64400000D01*
X65393860Y-64400000D01*
X65453530Y-64405877D01*
X65453530Y-64405877D01*
G37*
G36*
X69453530Y-64405877D02*
G01*
X69505010Y-64421493D01*
X69552445Y-64446848D01*
X69594027Y-64480973D01*
X69628152Y-64522555D01*
X69653507Y-64569990D01*
X69669123Y-64621470D01*
X69675000Y-64681140D01*
X69675000Y-65568860D01*
X69669123Y-65628530D01*
X69653507Y-65680010D01*
X69628152Y-65727445D01*
X69594027Y-65769027D01*
X69552445Y-65803152D01*
X69505010Y-65828507D01*
X69453530Y-65844123D01*
X69393860Y-65850000D01*
X68606140Y-65850000D01*
X68546470Y-65844123D01*
X68494990Y-65828507D01*
X68447555Y-65803152D01*
X68405973Y-65769027D01*
X68371848Y-65727445D01*
X68346493Y-65680010D01*
X68330877Y-65628530D01*
X68325000Y-65568860D01*
X68325000Y-64681140D01*
X68330877Y-64621470D01*
X68346493Y-64569990D01*
X68371848Y-64522555D01*
X68405973Y-64480973D01*
X68447555Y-64446848D01*
X68494990Y-64421493D01*
X68546470Y-64405877D01*
X68606140Y-64400000D01*
X69393860Y-64400000D01*
X69453530Y-64405877D01*
X69453530Y-64405877D01*
G37*
G36*
X67453530Y-64405877D02*
G01*
X67505010Y-64421493D01*
X67552445Y-64446848D01*
X67594027Y-64480973D01*
X67628152Y-64522555D01*
X67653507Y-64569990D01*
X67669123Y-64621470D01*
X67675000Y-64681140D01*
X67675000Y-65568860D01*
X67669123Y-65628530D01*
X67653507Y-65680010D01*
X67628152Y-65727445D01*
X67594027Y-65769027D01*
X67552445Y-65803152D01*
X67505010Y-65828507D01*
X67453530Y-65844123D01*
X67393860Y-65850000D01*
X66606140Y-65850000D01*
X66546470Y-65844123D01*
X66494990Y-65828507D01*
X66447555Y-65803152D01*
X66405973Y-65769027D01*
X66371848Y-65727445D01*
X66346493Y-65680010D01*
X66330877Y-65628530D01*
X66325000Y-65568860D01*
X66325000Y-64681140D01*
X66330877Y-64621470D01*
X66346493Y-64569990D01*
X66371848Y-64522555D01*
X66405973Y-64480973D01*
X66447555Y-64446848D01*
X66494990Y-64421493D01*
X66546470Y-64405877D01*
X66606140Y-64400000D01*
X67393860Y-64400000D01*
X67453530Y-64405877D01*
X67453530Y-64405877D01*
G37*
G36*
X88888237Y-62720149D02*
G01*
X89130463Y-62820482D01*
X89130465Y-62820483D01*
X89348463Y-62966145D01*
X89533855Y-63151537D01*
X89669421Y-63354426D01*
X89679518Y-63369537D01*
X89779851Y-63611763D01*
X89831000Y-63868907D01*
X89831000Y-64131093D01*
X89779851Y-64388237D01*
X89688680Y-64608344D01*
X89679517Y-64630465D01*
X89533855Y-64848463D01*
X89348463Y-65033855D01*
X89130465Y-65179517D01*
X89130464Y-65179518D01*
X89130463Y-65179518D01*
X88888237Y-65279851D01*
X88631093Y-65331000D01*
X88368907Y-65331000D01*
X88111763Y-65279851D01*
X87869537Y-65179518D01*
X87869536Y-65179518D01*
X87869535Y-65179517D01*
X87651537Y-65033855D01*
X87466145Y-64848463D01*
X87320483Y-64630465D01*
X87311320Y-64608344D01*
X87220149Y-64388237D01*
X87169000Y-64131093D01*
X87169000Y-63868907D01*
X87220149Y-63611763D01*
X87320482Y-63369537D01*
X87330579Y-63354426D01*
X87466145Y-63151537D01*
X87651537Y-62966145D01*
X87869535Y-62820483D01*
X87869537Y-62820482D01*
X88111763Y-62720149D01*
X88368907Y-62669000D01*
X88631093Y-62669000D01*
X88888237Y-62720149D01*
X88888237Y-62720149D01*
G37*
G36*
X74100000Y-64650000D02*
G01*
X72900000Y-64650000D01*
X72900000Y-62350000D01*
X74100000Y-62350000D01*
X74100000Y-64650000D01*
X74100000Y-64650000D01*
G37*
G36*
X65628530Y-62330877D02*
G01*
X65680010Y-62346493D01*
X65727445Y-62371848D01*
X65769027Y-62405973D01*
X65803152Y-62447555D01*
X65828507Y-62494990D01*
X65844123Y-62546470D01*
X65850000Y-62606140D01*
X65850000Y-63393860D01*
X65844123Y-63453530D01*
X65828507Y-63505010D01*
X65803152Y-63552445D01*
X65769027Y-63594027D01*
X65727445Y-63628152D01*
X65680010Y-63653507D01*
X65628530Y-63669123D01*
X65568860Y-63675000D01*
X64681140Y-63675000D01*
X64621470Y-63669123D01*
X64569990Y-63653507D01*
X64522555Y-63628152D01*
X64480973Y-63594027D01*
X64446848Y-63552445D01*
X64421493Y-63505010D01*
X64405877Y-63453530D01*
X64400000Y-63393860D01*
X64400000Y-62606140D01*
X64405877Y-62546470D01*
X64421493Y-62494990D01*
X64446848Y-62447555D01*
X64480973Y-62405973D01*
X64522555Y-62371848D01*
X64569990Y-62346493D01*
X64621470Y-62330877D01*
X64681140Y-62325000D01*
X65568860Y-62325000D01*
X65628530Y-62330877D01*
X65628530Y-62330877D01*
G37*
G36*
X67378530Y-62330877D02*
G01*
X67430010Y-62346493D01*
X67477445Y-62371848D01*
X67519027Y-62405973D01*
X67553152Y-62447555D01*
X67578507Y-62494990D01*
X67594123Y-62546470D01*
X67600000Y-62606140D01*
X67600000Y-63393860D01*
X67594123Y-63453530D01*
X67578507Y-63505010D01*
X67553152Y-63552445D01*
X67519027Y-63594027D01*
X67477445Y-63628152D01*
X67430010Y-63653507D01*
X67378530Y-63669123D01*
X67318860Y-63675000D01*
X66431140Y-63675000D01*
X66371470Y-63669123D01*
X66319990Y-63653507D01*
X66272555Y-63628152D01*
X66230973Y-63594027D01*
X66196848Y-63552445D01*
X66171493Y-63505010D01*
X66155877Y-63453530D01*
X66150000Y-63393860D01*
X66150000Y-62606140D01*
X66155877Y-62546470D01*
X66171493Y-62494990D01*
X66196848Y-62447555D01*
X66230973Y-62405973D01*
X66272555Y-62371848D01*
X66319990Y-62346493D01*
X66371470Y-62330877D01*
X66431140Y-62325000D01*
X67318860Y-62325000D01*
X67378530Y-62330877D01*
X67378530Y-62330877D01*
G37*
G36*
X71378530Y-62330877D02*
G01*
X71430010Y-62346493D01*
X71477445Y-62371848D01*
X71519027Y-62405973D01*
X71553152Y-62447555D01*
X71578507Y-62494990D01*
X71594123Y-62546470D01*
X71600000Y-62606140D01*
X71600000Y-63393860D01*
X71594123Y-63453530D01*
X71578507Y-63505010D01*
X71553152Y-63552445D01*
X71519027Y-63594027D01*
X71477445Y-63628152D01*
X71430010Y-63653507D01*
X71378530Y-63669123D01*
X71318860Y-63675000D01*
X70431140Y-63675000D01*
X70371470Y-63669123D01*
X70319990Y-63653507D01*
X70272555Y-63628152D01*
X70230973Y-63594027D01*
X70196848Y-63552445D01*
X70171493Y-63505010D01*
X70155877Y-63453530D01*
X70150000Y-63393860D01*
X70150000Y-62606140D01*
X70155877Y-62546470D01*
X70171493Y-62494990D01*
X70196848Y-62447555D01*
X70230973Y-62405973D01*
X70272555Y-62371848D01*
X70319990Y-62346493D01*
X70371470Y-62330877D01*
X70431140Y-62325000D01*
X71318860Y-62325000D01*
X71378530Y-62330877D01*
X71378530Y-62330877D01*
G37*
G36*
X69628530Y-62330877D02*
G01*
X69680010Y-62346493D01*
X69727445Y-62371848D01*
X69769027Y-62405973D01*
X69803152Y-62447555D01*
X69828507Y-62494990D01*
X69844123Y-62546470D01*
X69850000Y-62606140D01*
X69850000Y-63393860D01*
X69844123Y-63453530D01*
X69828507Y-63505010D01*
X69803152Y-63552445D01*
X69769027Y-63594027D01*
X69727445Y-63628152D01*
X69680010Y-63653507D01*
X69628530Y-63669123D01*
X69568860Y-63675000D01*
X68681140Y-63675000D01*
X68621470Y-63669123D01*
X68569990Y-63653507D01*
X68522555Y-63628152D01*
X68480973Y-63594027D01*
X68446848Y-63552445D01*
X68421493Y-63505010D01*
X68405877Y-63453530D01*
X68400000Y-63393860D01*
X68400000Y-62606140D01*
X68405877Y-62546470D01*
X68421493Y-62494990D01*
X68446848Y-62447555D01*
X68480973Y-62405973D01*
X68522555Y-62371848D01*
X68569990Y-62346493D01*
X68621470Y-62330877D01*
X68681140Y-62325000D01*
X69568860Y-62325000D01*
X69628530Y-62330877D01*
X69628530Y-62330877D01*
G37*
G36*
X77628530Y-62330877D02*
G01*
X77680010Y-62346493D01*
X77727445Y-62371848D01*
X77769027Y-62405973D01*
X77803152Y-62447555D01*
X77828507Y-62494990D01*
X77844123Y-62546470D01*
X77850000Y-62606140D01*
X77850000Y-63393860D01*
X77844123Y-63453530D01*
X77828507Y-63505010D01*
X77803152Y-63552445D01*
X77769027Y-63594027D01*
X77727445Y-63628152D01*
X77680010Y-63653507D01*
X77628530Y-63669123D01*
X77568860Y-63675000D01*
X76681140Y-63675000D01*
X76621470Y-63669123D01*
X76569990Y-63653507D01*
X76522555Y-63628152D01*
X76480973Y-63594027D01*
X76446848Y-63552445D01*
X76421493Y-63505010D01*
X76405877Y-63453530D01*
X76400000Y-63393860D01*
X76400000Y-62606140D01*
X76405877Y-62546470D01*
X76421493Y-62494990D01*
X76446848Y-62447555D01*
X76480973Y-62405973D01*
X76522555Y-62371848D01*
X76569990Y-62346493D01*
X76621470Y-62330877D01*
X76681140Y-62325000D01*
X77568860Y-62325000D01*
X77628530Y-62330877D01*
X77628530Y-62330877D01*
G37*
G36*
X79378530Y-62330877D02*
G01*
X79430010Y-62346493D01*
X79477445Y-62371848D01*
X79519027Y-62405973D01*
X79553152Y-62447555D01*
X79578507Y-62494990D01*
X79594123Y-62546470D01*
X79600000Y-62606140D01*
X79600000Y-63393860D01*
X79594123Y-63453530D01*
X79578507Y-63505010D01*
X79553152Y-63552445D01*
X79519027Y-63594027D01*
X79477445Y-63628152D01*
X79430010Y-63653507D01*
X79378530Y-63669123D01*
X79318860Y-63675000D01*
X78431140Y-63675000D01*
X78371470Y-63669123D01*
X78319990Y-63653507D01*
X78272555Y-63628152D01*
X78230973Y-63594027D01*
X78196848Y-63552445D01*
X78171493Y-63505010D01*
X78155877Y-63453530D01*
X78150000Y-63393860D01*
X78150000Y-62606140D01*
X78155877Y-62546470D01*
X78171493Y-62494990D01*
X78196848Y-62447555D01*
X78230973Y-62405973D01*
X78272555Y-62371848D01*
X78319990Y-62346493D01*
X78371470Y-62330877D01*
X78431140Y-62325000D01*
X79318860Y-62325000D01*
X79378530Y-62330877D01*
X79378530Y-62330877D01*
G37*
G36*
X93878530Y-62330877D02*
G01*
X93930010Y-62346493D01*
X93977445Y-62371848D01*
X94019027Y-62405973D01*
X94053152Y-62447555D01*
X94078507Y-62494990D01*
X94094123Y-62546470D01*
X94100000Y-62606140D01*
X94100000Y-63393860D01*
X94094123Y-63453530D01*
X94078507Y-63505010D01*
X94053152Y-63552445D01*
X94019027Y-63594027D01*
X93977445Y-63628152D01*
X93930010Y-63653507D01*
X93878530Y-63669123D01*
X93818860Y-63675000D01*
X92931140Y-63675000D01*
X92871470Y-63669123D01*
X92819990Y-63653507D01*
X92772555Y-63628152D01*
X92730973Y-63594027D01*
X92696848Y-63552445D01*
X92671493Y-63505010D01*
X92655877Y-63453530D01*
X92650000Y-63393860D01*
X92650000Y-62606140D01*
X92655877Y-62546470D01*
X92671493Y-62494990D01*
X92696848Y-62447555D01*
X92730973Y-62405973D01*
X92772555Y-62371848D01*
X92819990Y-62346493D01*
X92871470Y-62330877D01*
X92931140Y-62325000D01*
X93818860Y-62325000D01*
X93878530Y-62330877D01*
X93878530Y-62330877D01*
G37*
G36*
X92128530Y-62330877D02*
G01*
X92180010Y-62346493D01*
X92227445Y-62371848D01*
X92269027Y-62405973D01*
X92303152Y-62447555D01*
X92328507Y-62494990D01*
X92344123Y-62546470D01*
X92350000Y-62606140D01*
X92350000Y-63393860D01*
X92344123Y-63453530D01*
X92328507Y-63505010D01*
X92303152Y-63552445D01*
X92269027Y-63594027D01*
X92227445Y-63628152D01*
X92180010Y-63653507D01*
X92128530Y-63669123D01*
X92068860Y-63675000D01*
X91181140Y-63675000D01*
X91121470Y-63669123D01*
X91069990Y-63653507D01*
X91022555Y-63628152D01*
X90980973Y-63594027D01*
X90946848Y-63552445D01*
X90921493Y-63505010D01*
X90905877Y-63453530D01*
X90900000Y-63393860D01*
X90900000Y-62606140D01*
X90905877Y-62546470D01*
X90921493Y-62494990D01*
X90946848Y-62447555D01*
X90980973Y-62405973D01*
X91022555Y-62371848D01*
X91069990Y-62346493D01*
X91121470Y-62330877D01*
X91181140Y-62325000D01*
X92068860Y-62325000D01*
X92128530Y-62330877D01*
X92128530Y-62330877D01*
G37*
G36*
X83378530Y-62330877D02*
G01*
X83430010Y-62346493D01*
X83477445Y-62371848D01*
X83519027Y-62405973D01*
X83553152Y-62447555D01*
X83578507Y-62494990D01*
X83594123Y-62546470D01*
X83600000Y-62606140D01*
X83600000Y-63393860D01*
X83594123Y-63453530D01*
X83578507Y-63505010D01*
X83553152Y-63552445D01*
X83519027Y-63594027D01*
X83477445Y-63628152D01*
X83430010Y-63653507D01*
X83378530Y-63669123D01*
X83318860Y-63675000D01*
X82431140Y-63675000D01*
X82371470Y-63669123D01*
X82319990Y-63653507D01*
X82272555Y-63628152D01*
X82230973Y-63594027D01*
X82196848Y-63552445D01*
X82171493Y-63505010D01*
X82155877Y-63453530D01*
X82150000Y-63393860D01*
X82150000Y-62606140D01*
X82155877Y-62546470D01*
X82171493Y-62494990D01*
X82196848Y-62447555D01*
X82230973Y-62405973D01*
X82272555Y-62371848D01*
X82319990Y-62346493D01*
X82371470Y-62330877D01*
X82431140Y-62325000D01*
X83318860Y-62325000D01*
X83378530Y-62330877D01*
X83378530Y-62330877D01*
G37*
G36*
X81628530Y-62330877D02*
G01*
X81680010Y-62346493D01*
X81727445Y-62371848D01*
X81769027Y-62405973D01*
X81803152Y-62447555D01*
X81828507Y-62494990D01*
X81844123Y-62546470D01*
X81850000Y-62606140D01*
X81850000Y-63393860D01*
X81844123Y-63453530D01*
X81828507Y-63505010D01*
X81803152Y-63552445D01*
X81769027Y-63594027D01*
X81727445Y-63628152D01*
X81680010Y-63653507D01*
X81628530Y-63669123D01*
X81568860Y-63675000D01*
X80681140Y-63675000D01*
X80621470Y-63669123D01*
X80569990Y-63653507D01*
X80522555Y-63628152D01*
X80480973Y-63594027D01*
X80446848Y-63552445D01*
X80421493Y-63505010D01*
X80405877Y-63453530D01*
X80400000Y-63393860D01*
X80400000Y-62606140D01*
X80405877Y-62546470D01*
X80421493Y-62494990D01*
X80446848Y-62447555D01*
X80480973Y-62405973D01*
X80522555Y-62371848D01*
X80569990Y-62346493D01*
X80621470Y-62330877D01*
X80681140Y-62325000D01*
X81568860Y-62325000D01*
X81628530Y-62330877D01*
X81628530Y-62330877D01*
G37*
G36*
X56820857Y-61442272D02*
G01*
X56960224Y-61500000D01*
X57021045Y-61525193D01*
X57094552Y-61574309D01*
X57201208Y-61645574D01*
X57354426Y-61798792D01*
X57474808Y-61978957D01*
X57557728Y-62179143D01*
X57600000Y-62391658D01*
X57600000Y-62608342D01*
X57557728Y-62820857D01*
X57474808Y-63021043D01*
X57354426Y-63201208D01*
X57201208Y-63354426D01*
X57127998Y-63403343D01*
X57021045Y-63474807D01*
X57021044Y-63474808D01*
X57021043Y-63474808D01*
X56820857Y-63557728D01*
X56608342Y-63600000D01*
X56391658Y-63600000D01*
X56179143Y-63557728D01*
X55978957Y-63474808D01*
X55978956Y-63474808D01*
X55978955Y-63474807D01*
X55872002Y-63403343D01*
X55798792Y-63354426D01*
X55645574Y-63201208D01*
X55525192Y-63021043D01*
X55442272Y-62820857D01*
X55400000Y-62608342D01*
X55400000Y-62391658D01*
X55442272Y-62179143D01*
X55525192Y-61978957D01*
X55645574Y-61798792D01*
X55798792Y-61645574D01*
X55905448Y-61574309D01*
X55978955Y-61525193D01*
X56039776Y-61500000D01*
X56179143Y-61442272D01*
X56391658Y-61400000D01*
X56608342Y-61400000D01*
X56820857Y-61442272D01*
X56820857Y-61442272D01*
G37*
G36*
X103820857Y-61442272D02*
G01*
X103960224Y-61500000D01*
X104021045Y-61525193D01*
X104094552Y-61574309D01*
X104201208Y-61645574D01*
X104354426Y-61798792D01*
X104474808Y-61978957D01*
X104557728Y-62179143D01*
X104600000Y-62391658D01*
X104600000Y-62608342D01*
X104557728Y-62820857D01*
X104474808Y-63021043D01*
X104354426Y-63201208D01*
X104201208Y-63354426D01*
X104127998Y-63403343D01*
X104021045Y-63474807D01*
X104021044Y-63474808D01*
X104021043Y-63474808D01*
X103820857Y-63557728D01*
X103608342Y-63600000D01*
X103391658Y-63600000D01*
X103179143Y-63557728D01*
X102978957Y-63474808D01*
X102978956Y-63474808D01*
X102978955Y-63474807D01*
X102872002Y-63403343D01*
X102798792Y-63354426D01*
X102645574Y-63201208D01*
X102525192Y-63021043D01*
X102442272Y-62820857D01*
X102400000Y-62608342D01*
X102400000Y-62391658D01*
X102442272Y-62179143D01*
X102525192Y-61978957D01*
X102645574Y-61798792D01*
X102798792Y-61645574D01*
X102905448Y-61574309D01*
X102978955Y-61525193D01*
X103039776Y-61500000D01*
X103179143Y-61442272D01*
X103391658Y-61400000D01*
X103608342Y-61400000D01*
X103820857Y-61442272D01*
X103820857Y-61442272D01*
G37*
G36*
X101320857Y-61442272D02*
G01*
X101460224Y-61500000D01*
X101521045Y-61525193D01*
X101594552Y-61574309D01*
X101701208Y-61645574D01*
X101854426Y-61798792D01*
X101974808Y-61978957D01*
X102057728Y-62179143D01*
X102100000Y-62391658D01*
X102100000Y-62608342D01*
X102057728Y-62820857D01*
X101974808Y-63021043D01*
X101854426Y-63201208D01*
X101701208Y-63354426D01*
X101627998Y-63403343D01*
X101521045Y-63474807D01*
X101521044Y-63474808D01*
X101521043Y-63474808D01*
X101320857Y-63557728D01*
X101108342Y-63600000D01*
X100891658Y-63600000D01*
X100679143Y-63557728D01*
X100478957Y-63474808D01*
X100478956Y-63474808D01*
X100478955Y-63474807D01*
X100372002Y-63403343D01*
X100298792Y-63354426D01*
X100145574Y-63201208D01*
X100025192Y-63021043D01*
X99942272Y-62820857D01*
X99900000Y-62608342D01*
X99900000Y-62391658D01*
X99942272Y-62179143D01*
X100025192Y-61978957D01*
X100145574Y-61798792D01*
X100298792Y-61645574D01*
X100405448Y-61574309D01*
X100478955Y-61525193D01*
X100539776Y-61500000D01*
X100679143Y-61442272D01*
X100891658Y-61400000D01*
X101108342Y-61400000D01*
X101320857Y-61442272D01*
X101320857Y-61442272D01*
G37*
G36*
X98820857Y-61442272D02*
G01*
X98960224Y-61500000D01*
X99021045Y-61525193D01*
X99094552Y-61574309D01*
X99201208Y-61645574D01*
X99354426Y-61798792D01*
X99474808Y-61978957D01*
X99557728Y-62179143D01*
X99600000Y-62391658D01*
X99600000Y-62608342D01*
X99557728Y-62820857D01*
X99474808Y-63021043D01*
X99354426Y-63201208D01*
X99201208Y-63354426D01*
X99127998Y-63403343D01*
X99021045Y-63474807D01*
X99021044Y-63474808D01*
X99021043Y-63474808D01*
X98820857Y-63557728D01*
X98608342Y-63600000D01*
X98391658Y-63600000D01*
X98179143Y-63557728D01*
X97978957Y-63474808D01*
X97978956Y-63474808D01*
X97978955Y-63474807D01*
X97872002Y-63403343D01*
X97798792Y-63354426D01*
X97645574Y-63201208D01*
X97525192Y-63021043D01*
X97442272Y-62820857D01*
X97400000Y-62608342D01*
X97400000Y-62391658D01*
X97442272Y-62179143D01*
X97525192Y-61978957D01*
X97645574Y-61798792D01*
X97798792Y-61645574D01*
X97905448Y-61574309D01*
X97978955Y-61525193D01*
X98039776Y-61500000D01*
X98179143Y-61442272D01*
X98391658Y-61400000D01*
X98608342Y-61400000D01*
X98820857Y-61442272D01*
X98820857Y-61442272D01*
G37*
G36*
X59320857Y-61442272D02*
G01*
X59460224Y-61500000D01*
X59521045Y-61525193D01*
X59594552Y-61574309D01*
X59701208Y-61645574D01*
X59854426Y-61798792D01*
X59974808Y-61978957D01*
X60057728Y-62179143D01*
X60100000Y-62391658D01*
X60100000Y-62608342D01*
X60057728Y-62820857D01*
X59974808Y-63021043D01*
X59854426Y-63201208D01*
X59701208Y-63354426D01*
X59627998Y-63403343D01*
X59521045Y-63474807D01*
X59521044Y-63474808D01*
X59521043Y-63474808D01*
X59320857Y-63557728D01*
X59108342Y-63600000D01*
X58891658Y-63600000D01*
X58679143Y-63557728D01*
X58478957Y-63474808D01*
X58478956Y-63474808D01*
X58478955Y-63474807D01*
X58372002Y-63403343D01*
X58298792Y-63354426D01*
X58145574Y-63201208D01*
X58025192Y-63021043D01*
X57942272Y-62820857D01*
X57900000Y-62608342D01*
X57900000Y-62391658D01*
X57942272Y-62179143D01*
X58025192Y-61978957D01*
X58145574Y-61798792D01*
X58298792Y-61645574D01*
X58405448Y-61574309D01*
X58478955Y-61525193D01*
X58539776Y-61500000D01*
X58679143Y-61442272D01*
X58891658Y-61400000D01*
X59108342Y-61400000D01*
X59320857Y-61442272D01*
X59320857Y-61442272D01*
G37*
G36*
X61820857Y-61442272D02*
G01*
X61960224Y-61500000D01*
X62021045Y-61525193D01*
X62094552Y-61574309D01*
X62201208Y-61645574D01*
X62354426Y-61798792D01*
X62474808Y-61978957D01*
X62557728Y-62179143D01*
X62600000Y-62391658D01*
X62600000Y-62608342D01*
X62557728Y-62820857D01*
X62474808Y-63021043D01*
X62354426Y-63201208D01*
X62201208Y-63354426D01*
X62127998Y-63403343D01*
X62021045Y-63474807D01*
X62021044Y-63474808D01*
X62021043Y-63474808D01*
X61820857Y-63557728D01*
X61608342Y-63600000D01*
X61391658Y-63600000D01*
X61179143Y-63557728D01*
X60978957Y-63474808D01*
X60978956Y-63474808D01*
X60978955Y-63474807D01*
X60872002Y-63403343D01*
X60798792Y-63354426D01*
X60645574Y-63201208D01*
X60525192Y-63021043D01*
X60442272Y-62820857D01*
X60400000Y-62608342D01*
X60400000Y-62391658D01*
X60442272Y-62179143D01*
X60525192Y-61978957D01*
X60645574Y-61798792D01*
X60798792Y-61645574D01*
X60905448Y-61574309D01*
X60978955Y-61525193D01*
X61039776Y-61500000D01*
X61179143Y-61442272D01*
X61391658Y-61400000D01*
X61608342Y-61400000D01*
X61820857Y-61442272D01*
X61820857Y-61442272D01*
G37*
G36*
X73150000Y-61650000D02*
G01*
X71950000Y-61650000D01*
X71950000Y-59350000D01*
X73150000Y-59350000D01*
X73150000Y-61650000D01*
X73150000Y-61650000D01*
G37*
G36*
X75050000Y-61650000D02*
G01*
X73850000Y-61650000D01*
X73850000Y-59350000D01*
X75050000Y-59350000D01*
X75050000Y-61650000D01*
X75050000Y-61650000D01*
G37*
G36*
X91953530Y-60155877D02*
G01*
X92005010Y-60171493D01*
X92052445Y-60196848D01*
X92094027Y-60230973D01*
X92128152Y-60272555D01*
X92153507Y-60319990D01*
X92169123Y-60371470D01*
X92175000Y-60431140D01*
X92175000Y-61318860D01*
X92169123Y-61378530D01*
X92153507Y-61430010D01*
X92128152Y-61477445D01*
X92094027Y-61519027D01*
X92052445Y-61553152D01*
X92005010Y-61578507D01*
X91953530Y-61594123D01*
X91893860Y-61600000D01*
X91106140Y-61600000D01*
X91046470Y-61594123D01*
X90994990Y-61578507D01*
X90947555Y-61553152D01*
X90905973Y-61519027D01*
X90871848Y-61477445D01*
X90846493Y-61430010D01*
X90830877Y-61378530D01*
X90825000Y-61318860D01*
X90825000Y-60431140D01*
X90830877Y-60371470D01*
X90846493Y-60319990D01*
X90871848Y-60272555D01*
X90905973Y-60230973D01*
X90947555Y-60196848D01*
X90994990Y-60171493D01*
X91046470Y-60155877D01*
X91106140Y-60150000D01*
X91893860Y-60150000D01*
X91953530Y-60155877D01*
X91953530Y-60155877D01*
G37*
G36*
X88953530Y-60155877D02*
G01*
X89005010Y-60171493D01*
X89052445Y-60196848D01*
X89094027Y-60230973D01*
X89128152Y-60272555D01*
X89153507Y-60319990D01*
X89169123Y-60371470D01*
X89175000Y-60431140D01*
X89175000Y-61318860D01*
X89169123Y-61378530D01*
X89153507Y-61430010D01*
X89128152Y-61477445D01*
X89094027Y-61519027D01*
X89052445Y-61553152D01*
X89005010Y-61578507D01*
X88953530Y-61594123D01*
X88893860Y-61600000D01*
X88106140Y-61600000D01*
X88046470Y-61594123D01*
X87994990Y-61578507D01*
X87947555Y-61553152D01*
X87905973Y-61519027D01*
X87871848Y-61477445D01*
X87846493Y-61430010D01*
X87830877Y-61378530D01*
X87825000Y-61318860D01*
X87825000Y-60431140D01*
X87830877Y-60371470D01*
X87846493Y-60319990D01*
X87871848Y-60272555D01*
X87905973Y-60230973D01*
X87947555Y-60196848D01*
X87994990Y-60171493D01*
X88046470Y-60155877D01*
X88106140Y-60150000D01*
X88893860Y-60150000D01*
X88953530Y-60155877D01*
X88953530Y-60155877D01*
G37*
G36*
X85953530Y-60155877D02*
G01*
X86005010Y-60171493D01*
X86052445Y-60196848D01*
X86094027Y-60230973D01*
X86128152Y-60272555D01*
X86153507Y-60319990D01*
X86169123Y-60371470D01*
X86175000Y-60431140D01*
X86175000Y-61318860D01*
X86169123Y-61378530D01*
X86153507Y-61430010D01*
X86128152Y-61477445D01*
X86094027Y-61519027D01*
X86052445Y-61553152D01*
X86005010Y-61578507D01*
X85953530Y-61594123D01*
X85893860Y-61600000D01*
X85106140Y-61600000D01*
X85046470Y-61594123D01*
X84994990Y-61578507D01*
X84947555Y-61553152D01*
X84905973Y-61519027D01*
X84871848Y-61477445D01*
X84846493Y-61430010D01*
X84830877Y-61378530D01*
X84825000Y-61318860D01*
X84825000Y-60431140D01*
X84830877Y-60371470D01*
X84846493Y-60319990D01*
X84871848Y-60272555D01*
X84905973Y-60230973D01*
X84947555Y-60196848D01*
X84994990Y-60171493D01*
X85046470Y-60155877D01*
X85106140Y-60150000D01*
X85893860Y-60150000D01*
X85953530Y-60155877D01*
X85953530Y-60155877D01*
G37*
G36*
X80351163Y-57934587D02*
G01*
X80525041Y-57969173D01*
X80796415Y-58081580D01*
X80839625Y-58099478D01*
X80852620Y-58104861D01*
X81147433Y-58301849D01*
X81398151Y-58552567D01*
X81595139Y-58847380D01*
X81730827Y-59174959D01*
X81743261Y-59237470D01*
X81800000Y-59522714D01*
X81800000Y-59877286D01*
X81767298Y-60041688D01*
X81730827Y-60225041D01*
X81595139Y-60552620D01*
X81398151Y-60847433D01*
X81147433Y-61098151D01*
X80852620Y-61295139D01*
X80525041Y-61430827D01*
X80428626Y-61450005D01*
X80177286Y-61500000D01*
X79822714Y-61500000D01*
X79571374Y-61450005D01*
X79474959Y-61430827D01*
X79147380Y-61295139D01*
X78852567Y-61098151D01*
X78601849Y-60847433D01*
X78404861Y-60552620D01*
X78269173Y-60225041D01*
X78232702Y-60041688D01*
X78200000Y-59877286D01*
X78200000Y-59522714D01*
X78256739Y-59237470D01*
X78269173Y-59174959D01*
X78404861Y-58847380D01*
X78601849Y-58552567D01*
X78852567Y-58301849D01*
X79147380Y-58104861D01*
X79160376Y-58099478D01*
X79203585Y-58081580D01*
X79474959Y-57969173D01*
X79648837Y-57934587D01*
X79822714Y-57900000D01*
X80177286Y-57900000D01*
X80351163Y-57934587D01*
X80351163Y-57934587D01*
G37*
G36*
X67977290Y-58775619D02*
G01*
X68041689Y-58788429D01*
X68223678Y-58863811D01*
X68387463Y-58973249D01*
X68526751Y-59112537D01*
X68636189Y-59276322D01*
X68711571Y-59458311D01*
X68711571Y-59458312D01*
X68750000Y-59651507D01*
X68750000Y-59848493D01*
X68724381Y-59977290D01*
X68711571Y-60041689D01*
X68636189Y-60223678D01*
X68526751Y-60387463D01*
X68387463Y-60526751D01*
X68223678Y-60636189D01*
X68041689Y-60711571D01*
X67977290Y-60724381D01*
X67848493Y-60750000D01*
X67651507Y-60750000D01*
X67522710Y-60724381D01*
X67458311Y-60711571D01*
X67276322Y-60636189D01*
X67112537Y-60526751D01*
X66973249Y-60387463D01*
X66863811Y-60223678D01*
X66788429Y-60041689D01*
X66775619Y-59977290D01*
X66750000Y-59848493D01*
X66750000Y-59651507D01*
X66788429Y-59458312D01*
X66788429Y-59458311D01*
X66863811Y-59276322D01*
X66973249Y-59112537D01*
X67112537Y-58973249D01*
X67276322Y-58863811D01*
X67458311Y-58788429D01*
X67522710Y-58775619D01*
X67651507Y-58750000D01*
X67848493Y-58750000D01*
X67977290Y-58775619D01*
X67977290Y-58775619D01*
G37*
G36*
X59185929Y-58316676D02*
G01*
X59403176Y-58382577D01*
X59403179Y-58382578D01*
X59483837Y-58425691D01*
X59603393Y-58489595D01*
X59649107Y-58527112D01*
X59778884Y-58633616D01*
X59864138Y-58737500D01*
X59922905Y-58809108D01*
X59922906Y-58809110D01*
X60029922Y-59009322D01*
X60029923Y-59009325D01*
X60095824Y-59226571D01*
X60095824Y-59226573D01*
X60098104Y-59249722D01*
X60102885Y-59273756D01*
X60112262Y-59296394D01*
X60125876Y-59316769D01*
X60143203Y-59334096D01*
X60163577Y-59347709D01*
X60186216Y-59357087D01*
X60210249Y-59361867D01*
X60234753Y-59361867D01*
X60258787Y-59357086D01*
X60281425Y-59347709D01*
X60301800Y-59334095D01*
X60319127Y-59316768D01*
X60332740Y-59296394D01*
X60342118Y-59273755D01*
X60347500Y-59237470D01*
X60347500Y-58300000D01*
X62652500Y-58300000D01*
X62652500Y-60700000D01*
X60347500Y-60700000D01*
X60347500Y-59762531D01*
X60345098Y-59738145D01*
X60337985Y-59714696D01*
X60326434Y-59693085D01*
X60310889Y-59674143D01*
X60291947Y-59658598D01*
X60270336Y-59647047D01*
X60246887Y-59639934D01*
X60222501Y-59637532D01*
X60198115Y-59639934D01*
X60174666Y-59647047D01*
X60153055Y-59658598D01*
X60134113Y-59674143D01*
X60118568Y-59693085D01*
X60107017Y-59714696D01*
X60098104Y-59750279D01*
X60095824Y-59773429D01*
X60072596Y-59850000D01*
X60029922Y-59990679D01*
X60002657Y-60041688D01*
X59922905Y-60190893D01*
X59896000Y-60223676D01*
X59778884Y-60366384D01*
X59699977Y-60431140D01*
X59603392Y-60510405D01*
X59603390Y-60510406D01*
X59403178Y-60617422D01*
X59403175Y-60617423D01*
X59185928Y-60683324D01*
X58960000Y-60705576D01*
X58734071Y-60683324D01*
X58516824Y-60617423D01*
X58516821Y-60617422D01*
X58316609Y-60510406D01*
X58316607Y-60510405D01*
X58270893Y-60472888D01*
X58141116Y-60366384D01*
X58029989Y-60230973D01*
X57997095Y-60190892D01*
X57890079Y-59990679D01*
X57890078Y-59990678D01*
X57830150Y-59793121D01*
X57824176Y-59773428D01*
X57814397Y-59674141D01*
X57809616Y-59650107D01*
X57800239Y-59627469D01*
X57786625Y-59607094D01*
X57769298Y-59589767D01*
X57748924Y-59576154D01*
X57726285Y-59566776D01*
X57702252Y-59561996D01*
X57677748Y-59561996D01*
X57653714Y-59566777D01*
X57631076Y-59576154D01*
X57610701Y-59589768D01*
X57593374Y-59607095D01*
X57579761Y-59627469D01*
X57570383Y-59650108D01*
X57565603Y-59674141D01*
X57555824Y-59773429D01*
X57532596Y-59850000D01*
X57489922Y-59990679D01*
X57462657Y-60041688D01*
X57382905Y-60190893D01*
X57356000Y-60223676D01*
X57238884Y-60366384D01*
X57159977Y-60431140D01*
X57063392Y-60510405D01*
X57063390Y-60510406D01*
X56863178Y-60617422D01*
X56863175Y-60617423D01*
X56645928Y-60683324D01*
X56420000Y-60705576D01*
X56194071Y-60683324D01*
X55976824Y-60617423D01*
X55976821Y-60617422D01*
X55776609Y-60510406D01*
X55776607Y-60510405D01*
X55730893Y-60472888D01*
X55601116Y-60366384D01*
X55489989Y-60230973D01*
X55457095Y-60190892D01*
X55350079Y-59990679D01*
X55350078Y-59990678D01*
X55290150Y-59793121D01*
X55284176Y-59773428D01*
X55272030Y-59650107D01*
X55267500Y-59604115D01*
X55267500Y-59395884D01*
X55284176Y-59226572D01*
X55299833Y-59174959D01*
X55350077Y-59009324D01*
X55350078Y-59009322D01*
X55350078Y-59009321D01*
X55457094Y-58809109D01*
X55457095Y-58809107D01*
X55601117Y-58633617D01*
X55776608Y-58489595D01*
X55896164Y-58425691D01*
X55976822Y-58382578D01*
X55976825Y-58382577D01*
X56194072Y-58316676D01*
X56420000Y-58294424D01*
X56645929Y-58316676D01*
X56863176Y-58382577D01*
X56863179Y-58382578D01*
X56943837Y-58425691D01*
X57063393Y-58489595D01*
X57109107Y-58527112D01*
X57238884Y-58633616D01*
X57324138Y-58737500D01*
X57382905Y-58809108D01*
X57382906Y-58809110D01*
X57489922Y-59009322D01*
X57489923Y-59009325D01*
X57555824Y-59226571D01*
X57555824Y-59226573D01*
X57565603Y-59325859D01*
X57570384Y-59349893D01*
X57579761Y-59372531D01*
X57593375Y-59392906D01*
X57610702Y-59410233D01*
X57631076Y-59423846D01*
X57653715Y-59433224D01*
X57677748Y-59438004D01*
X57702252Y-59438004D01*
X57726286Y-59433223D01*
X57748924Y-59423846D01*
X57769299Y-59410232D01*
X57786626Y-59392905D01*
X57800239Y-59372531D01*
X57809617Y-59349892D01*
X57814397Y-59325859D01*
X57824176Y-59226572D01*
X57839833Y-59174959D01*
X57890077Y-59009324D01*
X57890078Y-59009322D01*
X57890078Y-59009321D01*
X57997094Y-58809109D01*
X57997095Y-58809107D01*
X58141117Y-58633617D01*
X58316608Y-58489595D01*
X58436164Y-58425691D01*
X58516822Y-58382578D01*
X58516825Y-58382577D01*
X58734072Y-58316676D01*
X58960000Y-58294424D01*
X59185929Y-58316676D01*
X59185929Y-58316676D01*
G37*
G36*
X85953530Y-58405877D02*
G01*
X86005010Y-58421493D01*
X86052445Y-58446848D01*
X86094027Y-58480973D01*
X86128152Y-58522555D01*
X86153507Y-58569990D01*
X86169123Y-58621470D01*
X86175000Y-58681140D01*
X86175000Y-59568860D01*
X86169123Y-59628530D01*
X86153507Y-59680010D01*
X86128152Y-59727445D01*
X86094027Y-59769027D01*
X86052445Y-59803152D01*
X86005010Y-59828507D01*
X85953530Y-59844123D01*
X85893860Y-59850000D01*
X85106140Y-59850000D01*
X85046470Y-59844123D01*
X84994990Y-59828507D01*
X84947555Y-59803152D01*
X84905973Y-59769027D01*
X84871848Y-59727445D01*
X84846493Y-59680010D01*
X84830877Y-59628530D01*
X84825000Y-59568860D01*
X84825000Y-58681140D01*
X84830877Y-58621470D01*
X84846493Y-58569990D01*
X84871848Y-58522555D01*
X84905973Y-58480973D01*
X84947555Y-58446848D01*
X84994990Y-58421493D01*
X85046470Y-58405877D01*
X85106140Y-58400000D01*
X85893860Y-58400000D01*
X85953530Y-58405877D01*
X85953530Y-58405877D01*
G37*
G36*
X91953530Y-58405877D02*
G01*
X92005010Y-58421493D01*
X92052445Y-58446848D01*
X92094027Y-58480973D01*
X92128152Y-58522555D01*
X92153507Y-58569990D01*
X92169123Y-58621470D01*
X92175000Y-58681140D01*
X92175000Y-59568860D01*
X92169123Y-59628530D01*
X92153507Y-59680010D01*
X92128152Y-59727445D01*
X92094027Y-59769027D01*
X92052445Y-59803152D01*
X92005010Y-59828507D01*
X91953530Y-59844123D01*
X91893860Y-59850000D01*
X91106140Y-59850000D01*
X91046470Y-59844123D01*
X90994990Y-59828507D01*
X90947555Y-59803152D01*
X90905973Y-59769027D01*
X90871848Y-59727445D01*
X90846493Y-59680010D01*
X90830877Y-59628530D01*
X90825000Y-59568860D01*
X90825000Y-58681140D01*
X90830877Y-58621470D01*
X90846493Y-58569990D01*
X90871848Y-58522555D01*
X90905973Y-58480973D01*
X90947555Y-58446848D01*
X90994990Y-58421493D01*
X91046470Y-58405877D01*
X91106140Y-58400000D01*
X91893860Y-58400000D01*
X91953530Y-58405877D01*
X91953530Y-58405877D01*
G37*
G36*
X88953530Y-58405877D02*
G01*
X89005010Y-58421493D01*
X89052445Y-58446848D01*
X89094027Y-58480973D01*
X89128152Y-58522555D01*
X89153507Y-58569990D01*
X89169123Y-58621470D01*
X89175000Y-58681140D01*
X89175000Y-59568860D01*
X89169123Y-59628530D01*
X89153507Y-59680010D01*
X89128152Y-59727445D01*
X89094027Y-59769027D01*
X89052445Y-59803152D01*
X89005010Y-59828507D01*
X88953530Y-59844123D01*
X88893860Y-59850000D01*
X88106140Y-59850000D01*
X88046470Y-59844123D01*
X87994990Y-59828507D01*
X87947555Y-59803152D01*
X87905973Y-59769027D01*
X87871848Y-59727445D01*
X87846493Y-59680010D01*
X87830877Y-59628530D01*
X87825000Y-59568860D01*
X87825000Y-58681140D01*
X87830877Y-58621470D01*
X87846493Y-58569990D01*
X87871848Y-58522555D01*
X87905973Y-58480973D01*
X87947555Y-58446848D01*
X87994990Y-58421493D01*
X88046470Y-58405877D01*
X88106140Y-58400000D01*
X88893860Y-58400000D01*
X88953530Y-58405877D01*
X88953530Y-58405877D01*
G37*
G36*
X98794605Y-57028813D02*
G01*
X98978413Y-57104949D01*
X99143837Y-57215482D01*
X99284518Y-57356163D01*
X99395051Y-57521587D01*
X99471187Y-57705395D01*
X99510000Y-57900522D01*
X99510000Y-58099478D01*
X99471187Y-58294605D01*
X99395051Y-58478413D01*
X99284518Y-58643837D01*
X99143837Y-58784518D01*
X98978413Y-58895051D01*
X98794605Y-58971187D01*
X98599478Y-59010000D01*
X98400522Y-59010000D01*
X98205395Y-58971187D01*
X98021587Y-58895051D01*
X97856163Y-58784518D01*
X97715482Y-58643837D01*
X97604949Y-58478413D01*
X97528813Y-58294605D01*
X97490000Y-58099478D01*
X97490000Y-57900522D01*
X97528813Y-57705395D01*
X97604949Y-57521587D01*
X97715482Y-57356163D01*
X97856163Y-57215482D01*
X98021587Y-57104949D01*
X98205395Y-57028813D01*
X98400522Y-56990000D01*
X98599478Y-56990000D01*
X98794605Y-57028813D01*
X98794605Y-57028813D01*
G37*
G36*
X103794605Y-57028813D02*
G01*
X103978413Y-57104949D01*
X104143837Y-57215482D01*
X104284518Y-57356163D01*
X104395051Y-57521587D01*
X104471187Y-57705395D01*
X104510000Y-57900522D01*
X104510000Y-58099478D01*
X104471187Y-58294605D01*
X104395051Y-58478413D01*
X104284518Y-58643837D01*
X104143837Y-58784518D01*
X103978413Y-58895051D01*
X103794605Y-58971187D01*
X103599478Y-59010000D01*
X103400522Y-59010000D01*
X103205395Y-58971187D01*
X103021587Y-58895051D01*
X102856163Y-58784518D01*
X102715482Y-58643837D01*
X102604949Y-58478413D01*
X102528813Y-58294605D01*
X102490000Y-58099478D01*
X102490000Y-57900522D01*
X102528813Y-57705395D01*
X102604949Y-57521587D01*
X102715482Y-57356163D01*
X102856163Y-57215482D01*
X103021587Y-57104949D01*
X103205395Y-57028813D01*
X103400522Y-56990000D01*
X103599478Y-56990000D01*
X103794605Y-57028813D01*
X103794605Y-57028813D01*
G37*
G36*
X75300000Y-58800000D02*
G01*
X72700000Y-58800000D01*
X72700000Y-56200000D01*
X75300000Y-56200000D01*
X75300000Y-58800000D01*
X75300000Y-58800000D01*
G37*
G36*
X68750000Y-58250000D02*
G01*
X66750000Y-58250000D01*
X66750000Y-56250000D01*
X68750000Y-56250000D01*
X68750000Y-58250000D01*
X68750000Y-58250000D01*
G37*
G36*
X105731654Y-53832665D02*
G01*
X105895872Y-53865330D01*
X106205252Y-53993479D01*
X106483687Y-54179523D01*
X106720477Y-54416313D01*
X106906521Y-54694748D01*
X107034670Y-55004128D01*
X107100000Y-55332565D01*
X107100000Y-55667435D01*
X107034670Y-55995872D01*
X106906521Y-56305252D01*
X106720477Y-56583687D01*
X106483687Y-56820477D01*
X106205252Y-57006521D01*
X105895872Y-57134670D01*
X105731654Y-57167335D01*
X105567437Y-57200000D01*
X105232563Y-57200000D01*
X105068346Y-57167335D01*
X104904128Y-57134670D01*
X104594748Y-57006521D01*
X104316313Y-56820477D01*
X104079523Y-56583687D01*
X103893479Y-56305252D01*
X103765330Y-55995872D01*
X103700000Y-55667435D01*
X103700000Y-55332565D01*
X103765330Y-55004128D01*
X103893479Y-54694748D01*
X104079523Y-54416313D01*
X104316313Y-54179523D01*
X104594748Y-53993479D01*
X104904128Y-53865330D01*
X105068346Y-53832665D01*
X105232563Y-53800000D01*
X105567437Y-53800000D01*
X105731654Y-53832665D01*
X105731654Y-53832665D01*
G37*
G36*
X96931654Y-53832665D02*
G01*
X97095872Y-53865330D01*
X97405252Y-53993479D01*
X97683687Y-54179523D01*
X97920477Y-54416313D01*
X98106521Y-54694748D01*
X98234670Y-55004128D01*
X98300000Y-55332565D01*
X98300000Y-55667435D01*
X98234670Y-55995872D01*
X98106521Y-56305252D01*
X97920477Y-56583687D01*
X97683687Y-56820477D01*
X97405252Y-57006521D01*
X97095872Y-57134670D01*
X96931654Y-57167335D01*
X96767437Y-57200000D01*
X96432563Y-57200000D01*
X96268346Y-57167335D01*
X96104128Y-57134670D01*
X95794748Y-57006521D01*
X95516313Y-56820477D01*
X95279523Y-56583687D01*
X95093479Y-56305252D01*
X94965330Y-55995872D01*
X94900000Y-55667435D01*
X94900000Y-55332565D01*
X94965330Y-55004128D01*
X95093479Y-54694748D01*
X95279523Y-54416313D01*
X95516313Y-54179523D01*
X95794748Y-53993479D01*
X96104128Y-53865330D01*
X96268346Y-53832665D01*
X96432563Y-53800000D01*
X96767437Y-53800000D01*
X96931654Y-53832665D01*
X96931654Y-53832665D01*
G37*
G36*
X63731654Y-53832665D02*
G01*
X63895872Y-53865330D01*
X64205252Y-53993479D01*
X64483687Y-54179523D01*
X64720477Y-54416313D01*
X64906521Y-54694748D01*
X65034670Y-55004128D01*
X65100000Y-55332565D01*
X65100000Y-55667435D01*
X65034670Y-55995872D01*
X64906521Y-56305252D01*
X64720477Y-56583687D01*
X64483687Y-56820477D01*
X64205252Y-57006521D01*
X63895872Y-57134670D01*
X63731654Y-57167335D01*
X63567437Y-57200000D01*
X63232563Y-57200000D01*
X63068346Y-57167335D01*
X62904128Y-57134670D01*
X62594748Y-57006521D01*
X62316313Y-56820477D01*
X62079523Y-56583687D01*
X61893479Y-56305252D01*
X61765330Y-55995872D01*
X61700000Y-55667435D01*
X61700000Y-55332565D01*
X61765330Y-55004128D01*
X61893479Y-54694748D01*
X62079523Y-54416313D01*
X62316313Y-54179523D01*
X62594748Y-53993479D01*
X62904128Y-53865330D01*
X63068346Y-53832665D01*
X63232563Y-53800000D01*
X63567437Y-53800000D01*
X63731654Y-53832665D01*
X63731654Y-53832665D01*
G37*
G36*
X54931654Y-53832665D02*
G01*
X55095872Y-53865330D01*
X55405252Y-53993479D01*
X55683687Y-54179523D01*
X55920477Y-54416313D01*
X56106521Y-54694748D01*
X56234670Y-55004128D01*
X56300000Y-55332565D01*
X56300000Y-55667435D01*
X56234670Y-55995872D01*
X56106521Y-56305252D01*
X55920477Y-56583687D01*
X55683687Y-56820477D01*
X55405252Y-57006521D01*
X55095872Y-57134670D01*
X54931654Y-57167335D01*
X54767437Y-57200000D01*
X54432563Y-57200000D01*
X54268346Y-57167335D01*
X54104128Y-57134670D01*
X53794748Y-57006521D01*
X53516313Y-56820477D01*
X53279523Y-56583687D01*
X53093479Y-56305252D01*
X52965330Y-55995872D01*
X52900000Y-55667435D01*
X52900000Y-55332565D01*
X52965330Y-55004128D01*
X53093479Y-54694748D01*
X53279523Y-54416313D01*
X53516313Y-54179523D01*
X53794748Y-53993479D01*
X54104128Y-53865330D01*
X54268346Y-53832665D01*
X54432563Y-53800000D01*
X54767437Y-53800000D01*
X54931654Y-53832665D01*
X54931654Y-53832665D01*
G37*
G36*
X80315260Y-53227445D02*
G01*
X80525041Y-53269173D01*
X80852620Y-53404861D01*
X81147433Y-53601849D01*
X81398151Y-53852567D01*
X81595139Y-54147380D01*
X81730827Y-54474959D01*
X81730827Y-54474961D01*
X81789680Y-54770831D01*
X81800000Y-54822716D01*
X81800000Y-55177284D01*
X81730827Y-55525041D01*
X81595139Y-55852620D01*
X81398151Y-56147433D01*
X81147433Y-56398151D01*
X80852620Y-56595139D01*
X80525041Y-56730827D01*
X80351163Y-56765413D01*
X80177286Y-56800000D01*
X79822714Y-56800000D01*
X79648837Y-56765413D01*
X79474959Y-56730827D01*
X79147380Y-56595139D01*
X78852567Y-56398151D01*
X78601849Y-56147433D01*
X78404861Y-55852620D01*
X78269173Y-55525041D01*
X78200000Y-55177284D01*
X78200000Y-54822716D01*
X78210321Y-54770831D01*
X78269173Y-54474961D01*
X78269173Y-54474959D01*
X78404861Y-54147380D01*
X78601849Y-53852567D01*
X78852567Y-53601849D01*
X79147380Y-53404861D01*
X79474959Y-53269173D01*
X79684740Y-53227445D01*
X79822714Y-53200000D01*
X80177286Y-53200000D01*
X80315260Y-53227445D01*
X80315260Y-53227445D01*
G37*
G36*
X71685529Y-54755710D02*
G01*
X71735378Y-54770831D01*
X71781310Y-54795382D01*
X71821574Y-54828426D01*
X71854618Y-54868690D01*
X71879169Y-54914622D01*
X71894290Y-54964471D01*
X71900000Y-55022444D01*
X71900000Y-56027556D01*
X71894290Y-56085529D01*
X71879169Y-56135378D01*
X71854618Y-56181310D01*
X71821574Y-56221574D01*
X71781310Y-56254618D01*
X71735378Y-56279169D01*
X71685529Y-56294290D01*
X71627556Y-56300000D01*
X70372444Y-56300000D01*
X70314471Y-56294290D01*
X70264622Y-56279169D01*
X70218690Y-56254618D01*
X70178426Y-56221574D01*
X70145382Y-56181310D01*
X70120831Y-56135378D01*
X70105710Y-56085529D01*
X70100000Y-56027556D01*
X70100000Y-55022444D01*
X70105710Y-54964471D01*
X70120831Y-54914622D01*
X70145382Y-54868690D01*
X70178426Y-54828426D01*
X70218690Y-54795382D01*
X70264622Y-54770831D01*
X70314471Y-54755710D01*
X70372444Y-54750000D01*
X71627556Y-54750000D01*
X71685529Y-54755710D01*
X71685529Y-54755710D01*
G37*
G36*
X91150000Y-56200000D02*
G01*
X88850000Y-56200000D01*
X88850000Y-55175839D01*
X88847598Y-55151453D01*
X88840485Y-55128004D01*
X88828934Y-55106393D01*
X88813389Y-55087451D01*
X88794447Y-55071906D01*
X88772836Y-55060355D01*
X88749387Y-55053242D01*
X88725001Y-55050840D01*
X88700615Y-55053242D01*
X88677166Y-55060355D01*
X88655555Y-55071906D01*
X88636613Y-55087451D01*
X88621068Y-55106393D01*
X88609517Y-55128004D01*
X88602404Y-55151453D01*
X88565806Y-55335443D01*
X88479116Y-55544729D01*
X88353263Y-55733082D01*
X88193082Y-55893263D01*
X88004729Y-56019116D01*
X87795443Y-56105806D01*
X87647324Y-56135269D01*
X87573266Y-56150000D01*
X87346734Y-56150000D01*
X87272676Y-56135269D01*
X87124557Y-56105806D01*
X86915271Y-56019116D01*
X86726918Y-55893263D01*
X86566737Y-55733082D01*
X86440884Y-55544729D01*
X86354194Y-55335443D01*
X86310000Y-55113265D01*
X86310000Y-54886735D01*
X86354194Y-54664557D01*
X86440884Y-54455271D01*
X86566737Y-54266918D01*
X86726918Y-54106737D01*
X86915271Y-53980884D01*
X87124557Y-53894194D01*
X87272676Y-53864731D01*
X87346734Y-53850000D01*
X87573266Y-53850000D01*
X87647324Y-53864731D01*
X87795443Y-53894194D01*
X88004729Y-53980884D01*
X88193082Y-54106737D01*
X88353263Y-54266918D01*
X88479116Y-54455271D01*
X88565806Y-54664557D01*
X88591829Y-54795382D01*
X88602404Y-54848547D01*
X88609517Y-54871996D01*
X88621068Y-54893607D01*
X88636614Y-54912549D01*
X88655556Y-54928094D01*
X88677166Y-54939645D01*
X88700615Y-54946758D01*
X88725001Y-54949160D01*
X88749387Y-54946758D01*
X88772836Y-54939645D01*
X88794447Y-54928094D01*
X88813389Y-54912548D01*
X88828934Y-54893606D01*
X88840485Y-54871996D01*
X88847598Y-54848547D01*
X88850000Y-54824161D01*
X88850000Y-53800000D01*
X91150000Y-53800000D01*
X91150000Y-56200000D01*
X91150000Y-56200000D01*
G37*
G36*
X69453530Y-53655877D02*
G01*
X69505010Y-53671493D01*
X69552445Y-53696848D01*
X69594027Y-53730973D01*
X69628152Y-53772555D01*
X69653507Y-53819990D01*
X69669123Y-53871470D01*
X69675000Y-53931140D01*
X69675000Y-54818860D01*
X69669123Y-54878530D01*
X69653507Y-54930010D01*
X69628152Y-54977445D01*
X69594027Y-55019027D01*
X69552445Y-55053152D01*
X69505010Y-55078507D01*
X69453530Y-55094123D01*
X69393860Y-55100000D01*
X68606140Y-55100000D01*
X68546470Y-55094123D01*
X68494990Y-55078507D01*
X68447555Y-55053152D01*
X68405973Y-55019027D01*
X68371848Y-54977445D01*
X68346493Y-54930010D01*
X68330877Y-54878530D01*
X68325000Y-54818860D01*
X68325000Y-53931140D01*
X68330877Y-53871470D01*
X68346493Y-53819990D01*
X68371848Y-53772555D01*
X68405973Y-53730973D01*
X68447555Y-53696848D01*
X68494990Y-53671493D01*
X68546470Y-53655877D01*
X68606140Y-53650000D01*
X69393860Y-53650000D01*
X69453530Y-53655877D01*
X69453530Y-53655877D01*
G37*
G36*
X71685529Y-52705710D02*
G01*
X71735378Y-52720831D01*
X71781310Y-52745382D01*
X71821574Y-52778426D01*
X71854618Y-52818690D01*
X71879169Y-52864622D01*
X71894290Y-52914471D01*
X71900000Y-52972444D01*
X71900000Y-53977556D01*
X71894290Y-54035529D01*
X71879169Y-54085378D01*
X71854618Y-54131310D01*
X71821574Y-54171574D01*
X71781310Y-54204618D01*
X71735378Y-54229169D01*
X71685529Y-54244290D01*
X71627556Y-54250000D01*
X70372444Y-54250000D01*
X70314471Y-54244290D01*
X70264622Y-54229169D01*
X70218690Y-54204618D01*
X70178426Y-54171574D01*
X70145382Y-54131310D01*
X70120831Y-54085378D01*
X70105710Y-54035529D01*
X70100000Y-53977556D01*
X70100000Y-52972444D01*
X70105710Y-52914471D01*
X70120831Y-52864622D01*
X70145382Y-52818690D01*
X70178426Y-52778426D01*
X70218690Y-52745382D01*
X70264622Y-52720831D01*
X70314471Y-52705710D01*
X70372444Y-52700000D01*
X71627556Y-52700000D01*
X71685529Y-52705710D01*
X71685529Y-52705710D01*
G37*
G36*
X101294605Y-52028813D02*
G01*
X101478413Y-52104949D01*
X101643837Y-52215482D01*
X101784518Y-52356163D01*
X101895051Y-52521587D01*
X101971187Y-52705395D01*
X102010000Y-52900522D01*
X102010000Y-53099478D01*
X101971187Y-53294605D01*
X101895051Y-53478413D01*
X101784518Y-53643837D01*
X101643837Y-53784518D01*
X101478413Y-53895051D01*
X101294605Y-53971187D01*
X101099478Y-54010000D01*
X100900522Y-54010000D01*
X100705395Y-53971187D01*
X100521587Y-53895051D01*
X100356163Y-53784518D01*
X100215482Y-53643837D01*
X100104949Y-53478413D01*
X100028813Y-53294605D01*
X99990000Y-53099478D01*
X99990000Y-52900522D01*
X100028813Y-52705395D01*
X100104949Y-52521587D01*
X100215482Y-52356163D01*
X100356163Y-52215482D01*
X100521587Y-52104949D01*
X100705395Y-52028813D01*
X100900522Y-51990000D01*
X101099478Y-51990000D01*
X101294605Y-52028813D01*
X101294605Y-52028813D01*
G37*
G36*
X69453530Y-51905877D02*
G01*
X69505010Y-51921493D01*
X69552445Y-51946848D01*
X69594027Y-51980973D01*
X69628152Y-52022555D01*
X69653507Y-52069990D01*
X69669123Y-52121470D01*
X69675000Y-52181140D01*
X69675000Y-53068860D01*
X69669123Y-53128530D01*
X69653507Y-53180010D01*
X69628152Y-53227445D01*
X69594027Y-53269027D01*
X69552445Y-53303152D01*
X69505010Y-53328507D01*
X69453530Y-53344123D01*
X69393860Y-53350000D01*
X68606140Y-53350000D01*
X68546470Y-53344123D01*
X68494990Y-53328507D01*
X68447555Y-53303152D01*
X68405973Y-53269027D01*
X68371848Y-53227445D01*
X68346493Y-53180010D01*
X68330877Y-53128530D01*
X68325000Y-53068860D01*
X68325000Y-52181140D01*
X68330877Y-52121470D01*
X68346493Y-52069990D01*
X68371848Y-52022555D01*
X68405973Y-51980973D01*
X68447555Y-51946848D01*
X68494990Y-51921493D01*
X68546470Y-51905877D01*
X68606140Y-51900000D01*
X69393860Y-51900000D01*
X69453530Y-51905877D01*
X69453530Y-51905877D01*
G37*
G36*
X61185929Y-50816676D02*
G01*
X61403176Y-50882577D01*
X61403179Y-50882578D01*
X61544300Y-50958009D01*
X61603393Y-50989595D01*
X61641927Y-51021219D01*
X61778884Y-51133616D01*
X61885388Y-51263394D01*
X61922905Y-51309108D01*
X61922906Y-51309110D01*
X62029922Y-51509322D01*
X62029923Y-51509325D01*
X62095824Y-51726571D01*
X62095824Y-51726573D01*
X62098104Y-51749722D01*
X62102885Y-51773756D01*
X62112262Y-51796394D01*
X62125876Y-51816769D01*
X62143203Y-51834096D01*
X62163577Y-51847709D01*
X62186216Y-51857087D01*
X62210249Y-51861867D01*
X62234753Y-51861867D01*
X62258787Y-51857086D01*
X62281425Y-51847709D01*
X62301800Y-51834095D01*
X62319127Y-51816768D01*
X62332740Y-51796394D01*
X62342118Y-51773755D01*
X62347500Y-51737470D01*
X62347500Y-50800000D01*
X64652500Y-50800000D01*
X64652500Y-53200000D01*
X62347500Y-53200000D01*
X62347500Y-52262531D01*
X62345098Y-52238145D01*
X62337985Y-52214696D01*
X62326434Y-52193085D01*
X62310889Y-52174143D01*
X62291947Y-52158598D01*
X62270336Y-52147047D01*
X62246887Y-52139934D01*
X62222501Y-52137532D01*
X62198115Y-52139934D01*
X62174666Y-52147047D01*
X62153055Y-52158598D01*
X62134113Y-52174143D01*
X62118568Y-52193085D01*
X62107017Y-52214696D01*
X62098104Y-52250279D01*
X62095824Y-52273429D01*
X62089728Y-52293525D01*
X62029922Y-52490679D01*
X62013401Y-52521587D01*
X61922905Y-52690893D01*
X61910117Y-52706475D01*
X61778884Y-52866384D01*
X61651140Y-52971219D01*
X61603392Y-53010405D01*
X61582843Y-53021388D01*
X61403178Y-53117422D01*
X61403175Y-53117423D01*
X61185928Y-53183324D01*
X60960000Y-53205576D01*
X60734071Y-53183324D01*
X60516824Y-53117423D01*
X60516821Y-53117422D01*
X60337156Y-53021388D01*
X60316607Y-53010405D01*
X60268859Y-52971219D01*
X60141116Y-52866384D01*
X60034612Y-52736606D01*
X59997095Y-52690892D01*
X59986112Y-52670343D01*
X59890078Y-52490678D01*
X59890077Y-52490675D01*
X59824176Y-52273428D01*
X59814397Y-52174141D01*
X59809616Y-52150107D01*
X59800239Y-52127469D01*
X59786625Y-52107094D01*
X59769298Y-52089767D01*
X59748924Y-52076154D01*
X59726285Y-52066776D01*
X59702252Y-52061996D01*
X59677748Y-52061996D01*
X59653714Y-52066777D01*
X59631076Y-52076154D01*
X59610701Y-52089768D01*
X59593374Y-52107095D01*
X59579761Y-52127469D01*
X59570383Y-52150108D01*
X59565603Y-52174141D01*
X59555824Y-52273429D01*
X59549728Y-52293525D01*
X59489922Y-52490679D01*
X59473401Y-52521587D01*
X59382905Y-52690893D01*
X59370117Y-52706475D01*
X59238884Y-52866384D01*
X59111140Y-52971219D01*
X59063392Y-53010405D01*
X59042843Y-53021388D01*
X58863178Y-53117422D01*
X58863175Y-53117423D01*
X58645928Y-53183324D01*
X58420000Y-53205576D01*
X58194071Y-53183324D01*
X57976824Y-53117423D01*
X57976821Y-53117422D01*
X57797156Y-53021388D01*
X57776607Y-53010405D01*
X57728859Y-52971219D01*
X57601116Y-52866384D01*
X57494612Y-52736606D01*
X57457095Y-52690892D01*
X57446112Y-52670343D01*
X57350078Y-52490678D01*
X57350077Y-52490675D01*
X57284176Y-52273428D01*
X57272030Y-52150107D01*
X57267500Y-52104115D01*
X57267500Y-51895884D01*
X57284176Y-51726572D01*
X57350078Y-51509321D01*
X57457094Y-51309109D01*
X57457095Y-51309107D01*
X57601117Y-51133617D01*
X57776608Y-50989595D01*
X57835701Y-50958009D01*
X57976822Y-50882578D01*
X57976825Y-50882577D01*
X58194072Y-50816676D01*
X58420000Y-50794424D01*
X58645929Y-50816676D01*
X58863176Y-50882577D01*
X58863179Y-50882578D01*
X59004300Y-50958009D01*
X59063393Y-50989595D01*
X59101927Y-51021219D01*
X59238884Y-51133616D01*
X59345388Y-51263394D01*
X59382905Y-51309108D01*
X59382906Y-51309110D01*
X59489922Y-51509322D01*
X59489923Y-51509325D01*
X59555824Y-51726571D01*
X59555824Y-51726573D01*
X59565603Y-51825859D01*
X59570384Y-51849893D01*
X59579761Y-51872531D01*
X59593375Y-51892906D01*
X59610702Y-51910233D01*
X59631076Y-51923846D01*
X59653715Y-51933224D01*
X59677748Y-51938004D01*
X59702252Y-51938004D01*
X59726286Y-51933223D01*
X59748924Y-51923846D01*
X59769299Y-51910232D01*
X59786626Y-51892905D01*
X59800239Y-51872531D01*
X59809617Y-51849892D01*
X59814397Y-51825859D01*
X59824176Y-51726572D01*
X59890078Y-51509321D01*
X59997094Y-51309109D01*
X59997095Y-51309107D01*
X60141117Y-51133617D01*
X60316608Y-50989595D01*
X60375701Y-50958009D01*
X60516822Y-50882578D01*
X60516825Y-50882577D01*
X60734072Y-50816676D01*
X60960000Y-50794424D01*
X61185929Y-50816676D01*
X61185929Y-50816676D01*
G37*
G36*
X71685529Y-50755710D02*
G01*
X71735378Y-50770831D01*
X71781310Y-50795382D01*
X71821574Y-50828426D01*
X71854618Y-50868690D01*
X71879169Y-50914622D01*
X71894290Y-50964471D01*
X71900000Y-51022444D01*
X71900000Y-52027556D01*
X71894290Y-52085529D01*
X71879169Y-52135378D01*
X71854618Y-52181310D01*
X71821574Y-52221574D01*
X71781310Y-52254618D01*
X71735378Y-52279169D01*
X71685529Y-52294290D01*
X71627556Y-52300000D01*
X70372444Y-52300000D01*
X70314471Y-52294290D01*
X70264622Y-52279169D01*
X70218690Y-52254618D01*
X70178426Y-52221574D01*
X70145382Y-52181310D01*
X70120831Y-52135378D01*
X70105710Y-52085529D01*
X70100000Y-52027556D01*
X70100000Y-51022444D01*
X70105710Y-50964471D01*
X70120831Y-50914622D01*
X70145382Y-50868690D01*
X70178426Y-50828426D01*
X70218690Y-50795382D01*
X70264622Y-50770831D01*
X70314471Y-50755710D01*
X70372444Y-50750000D01*
X71627556Y-50750000D01*
X71685529Y-50755710D01*
X71685529Y-50755710D01*
G37*
G36*
X80344916Y-48533344D02*
G01*
X80525041Y-48569173D01*
X80852620Y-48704861D01*
X81147433Y-48901849D01*
X81398151Y-49152567D01*
X81559378Y-49393860D01*
X81595140Y-49447382D01*
X81618420Y-49503585D01*
X81730827Y-49774959D01*
X81730827Y-49774961D01*
X81794294Y-50094027D01*
X81800000Y-50122716D01*
X81800000Y-50477284D01*
X81730827Y-50825041D01*
X81595139Y-51152620D01*
X81398151Y-51447433D01*
X81147433Y-51698151D01*
X80852620Y-51895139D01*
X80852619Y-51895140D01*
X80852618Y-51895140D01*
X80816180Y-51910233D01*
X80525041Y-52030827D01*
X80368343Y-52061996D01*
X80177286Y-52100000D01*
X79822714Y-52100000D01*
X79631657Y-52061996D01*
X79474959Y-52030827D01*
X79183820Y-51910233D01*
X79147382Y-51895140D01*
X79147381Y-51895140D01*
X79147380Y-51895139D01*
X78852567Y-51698151D01*
X78601849Y-51447433D01*
X78404861Y-51152620D01*
X78269173Y-50825041D01*
X78200000Y-50477284D01*
X78200000Y-50122716D01*
X78205707Y-50094027D01*
X78269173Y-49774961D01*
X78269173Y-49774959D01*
X78381580Y-49503585D01*
X78404860Y-49447382D01*
X78440622Y-49393860D01*
X78601849Y-49152567D01*
X78852567Y-48901849D01*
X79147380Y-48704861D01*
X79474959Y-48569173D01*
X79655084Y-48533344D01*
X79822714Y-48500000D01*
X80177286Y-48500000D01*
X80344916Y-48533344D01*
X80344916Y-48533344D01*
G37*
G36*
X74254845Y-48598810D02*
G01*
X74499896Y-48673145D01*
X74725736Y-48793860D01*
X74923687Y-48956313D01*
X75086140Y-49154264D01*
X75206855Y-49380104D01*
X75281190Y-49625155D01*
X75306290Y-49880000D01*
X75281190Y-50134845D01*
X75206855Y-50379896D01*
X75086140Y-50605736D01*
X74923687Y-50803687D01*
X74725736Y-50966140D01*
X74499896Y-51086855D01*
X74254845Y-51161190D01*
X74063864Y-51180000D01*
X73936136Y-51180000D01*
X73745155Y-51161190D01*
X73500104Y-51086855D01*
X73274264Y-50966140D01*
X73076313Y-50803687D01*
X72913860Y-50605736D01*
X72793145Y-50379896D01*
X72718810Y-50134845D01*
X72693710Y-49880000D01*
X72718810Y-49625155D01*
X72793145Y-49380104D01*
X72913860Y-49154264D01*
X73076313Y-48956313D01*
X73274264Y-48793860D01*
X73500104Y-48673145D01*
X73745155Y-48598810D01*
X73936136Y-48580000D01*
X74063864Y-48580000D01*
X74254845Y-48598810D01*
X74254845Y-48598810D01*
G37*
G36*
X71685529Y-48705710D02*
G01*
X71735378Y-48720831D01*
X71781310Y-48745382D01*
X71821574Y-48778426D01*
X71854618Y-48818690D01*
X71879169Y-48864622D01*
X71894290Y-48914471D01*
X71900000Y-48972444D01*
X71900000Y-49977556D01*
X71894290Y-50035529D01*
X71879169Y-50085378D01*
X71854618Y-50131310D01*
X71821574Y-50171574D01*
X71781310Y-50204618D01*
X71735378Y-50229169D01*
X71685529Y-50244290D01*
X71627556Y-50250000D01*
X70372444Y-50250000D01*
X70314471Y-50244290D01*
X70264622Y-50229169D01*
X70218690Y-50204618D01*
X70178426Y-50171574D01*
X70145382Y-50131310D01*
X70120831Y-50085378D01*
X70105710Y-50035529D01*
X70100000Y-49977556D01*
X70100000Y-48972444D01*
X70105710Y-48914471D01*
X70120831Y-48864622D01*
X70145382Y-48818690D01*
X70178426Y-48778426D01*
X70218690Y-48745382D01*
X70264622Y-48720831D01*
X70314471Y-48705710D01*
X70372444Y-48700000D01*
X71627556Y-48700000D01*
X71685529Y-48705710D01*
X71685529Y-48705710D01*
G37*
G36*
X69378530Y-48830877D02*
G01*
X69430010Y-48846493D01*
X69477445Y-48871848D01*
X69519027Y-48905973D01*
X69553152Y-48947555D01*
X69578507Y-48994990D01*
X69594123Y-49046470D01*
X69600000Y-49106140D01*
X69600000Y-49893860D01*
X69594123Y-49953530D01*
X69578507Y-50005010D01*
X69553152Y-50052445D01*
X69519027Y-50094027D01*
X69477445Y-50128152D01*
X69430010Y-50153507D01*
X69378530Y-50169123D01*
X69318860Y-50175000D01*
X68431140Y-50175000D01*
X68371470Y-50169123D01*
X68319990Y-50153507D01*
X68272555Y-50128152D01*
X68230973Y-50094027D01*
X68196848Y-50052445D01*
X68171493Y-50005010D01*
X68155877Y-49953530D01*
X68150000Y-49893860D01*
X68150000Y-49106140D01*
X68155877Y-49046470D01*
X68171493Y-48994990D01*
X68196848Y-48947555D01*
X68230973Y-48905973D01*
X68272555Y-48871848D01*
X68319990Y-48846493D01*
X68371470Y-48830877D01*
X68431140Y-48825000D01*
X69318860Y-48825000D01*
X69378530Y-48830877D01*
X69378530Y-48830877D01*
G37*
G36*
X67628530Y-48830877D02*
G01*
X67680010Y-48846493D01*
X67727445Y-48871848D01*
X67769027Y-48905973D01*
X67803152Y-48947555D01*
X67828507Y-48994990D01*
X67844123Y-49046470D01*
X67850000Y-49106140D01*
X67850000Y-49893860D01*
X67844123Y-49953530D01*
X67828507Y-50005010D01*
X67803152Y-50052445D01*
X67769027Y-50094027D01*
X67727445Y-50128152D01*
X67680010Y-50153507D01*
X67628530Y-50169123D01*
X67568860Y-50175000D01*
X66681140Y-50175000D01*
X66621470Y-50169123D01*
X66569990Y-50153507D01*
X66522555Y-50128152D01*
X66480973Y-50094027D01*
X66446848Y-50052445D01*
X66421493Y-50005010D01*
X66405877Y-49953530D01*
X66400000Y-49893860D01*
X66400000Y-49106140D01*
X66405877Y-49046470D01*
X66421493Y-48994990D01*
X66446848Y-48947555D01*
X66480973Y-48905973D01*
X66522555Y-48871848D01*
X66569990Y-48846493D01*
X66621470Y-48830877D01*
X66681140Y-48825000D01*
X67568860Y-48825000D01*
X67628530Y-48830877D01*
X67628530Y-48830877D01*
G37*
G36*
X85628530Y-48330877D02*
G01*
X85680010Y-48346493D01*
X85727445Y-48371848D01*
X85769027Y-48405973D01*
X85803152Y-48447555D01*
X85828507Y-48494990D01*
X85844123Y-48546470D01*
X85850000Y-48606140D01*
X85850000Y-49393860D01*
X85844123Y-49453530D01*
X85828507Y-49505010D01*
X85803152Y-49552445D01*
X85769027Y-49594027D01*
X85727445Y-49628152D01*
X85680010Y-49653507D01*
X85628530Y-49669123D01*
X85568860Y-49675000D01*
X84681140Y-49675000D01*
X84621470Y-49669123D01*
X84569990Y-49653507D01*
X84522555Y-49628152D01*
X84480973Y-49594027D01*
X84446848Y-49552445D01*
X84421493Y-49505010D01*
X84405877Y-49453530D01*
X84400000Y-49393860D01*
X84400000Y-48606140D01*
X84405877Y-48546470D01*
X84421493Y-48494990D01*
X84446848Y-48447555D01*
X84480973Y-48405973D01*
X84522555Y-48371848D01*
X84569990Y-48346493D01*
X84621470Y-48330877D01*
X84681140Y-48325000D01*
X85568860Y-48325000D01*
X85628530Y-48330877D01*
X85628530Y-48330877D01*
G37*
G36*
X87378530Y-48330877D02*
G01*
X87430010Y-48346493D01*
X87477445Y-48371848D01*
X87519027Y-48405973D01*
X87553152Y-48447555D01*
X87578507Y-48494990D01*
X87594123Y-48546470D01*
X87600000Y-48606140D01*
X87600000Y-49393860D01*
X87594123Y-49453530D01*
X87578507Y-49505010D01*
X87553152Y-49552445D01*
X87519027Y-49594027D01*
X87477445Y-49628152D01*
X87430010Y-49653507D01*
X87378530Y-49669123D01*
X87318860Y-49675000D01*
X86431140Y-49675000D01*
X86371470Y-49669123D01*
X86319990Y-49653507D01*
X86272555Y-49628152D01*
X86230973Y-49594027D01*
X86196848Y-49552445D01*
X86171493Y-49505010D01*
X86155877Y-49453530D01*
X86150000Y-49393860D01*
X86150000Y-48606140D01*
X86155877Y-48546470D01*
X86171493Y-48494990D01*
X86196848Y-48447555D01*
X86230973Y-48405973D01*
X86272555Y-48371848D01*
X86319990Y-48346493D01*
X86371470Y-48330877D01*
X86431140Y-48325000D01*
X87318860Y-48325000D01*
X87378530Y-48330877D01*
X87378530Y-48330877D01*
G37*
M02*
