M48
; DRILL file {KiCad (5.1.2-1)-1} date Thursday, 29 August 2019 at 00:18:46
; FORMAT={-:-/ absolute / metric / decimal}
; #@! TF.CreationDate,2019-08-29T00:18:46-06:00
; #@! TF.GenerationSoftware,Kicad,Pcbnew,(5.1.2-1)-1
; #@! TF.FileFunction,Plated,1,2,PTH
FMAT,2
METRIC
T1C0.400
T2C0.800
T3C0.900
T4C1.000
T5C1.001
T6C1.100
T7C1.150
T8C1.500
T9C2.500
%
G90
G05
T1
X67.0Y-78.0
X67.0Y-80.5
X67.0Y-82.0
X67.125Y-86.875
X70.25Y-71.75
X70.5Y-65.25
X71.0Y-57.0
X71.0Y-57.75
X71.0Y-71.75
X71.25Y-92.25
X71.25Y-93.0
X72.0Y-64.0
X72.0Y-64.75
X72.5Y-74.0
X72.5Y-88.5
X73.5Y-67.25
X75.75Y-60.5
X77.25Y-64.75
X79.5Y-67.25
X80.0Y-89.75
X81.75Y-72.75
X82.75Y-72.75
X87.0Y-76.0
X87.0Y-77.0
X87.0Y-78.0
X88.0Y-76.0
X88.0Y-77.0
X88.0Y-78.0
X89.0Y-76.0
X89.0Y-77.0
X89.0Y-78.0
X90.0Y-76.0
X90.0Y-77.0
X90.0Y-78.0
T2
X67.5Y-57.0
X67.5Y-59.5
T3
X98.0Y-55.0
X98.0Y-60.0
X103.0Y-57.5
T4
X89.5Y-98.0
X92.04Y-98.0
X81.46Y-98.0
X84.0Y-98.0
X86.54Y-98.0
X68.0Y-98.0
X70.54Y-98.0
X73.08Y-98.0
X76.0Y-98.0
X78.54Y-98.0
T5
X87.46Y-55.0
X90.0Y-55.0
T6
X74.0Y-49.88
X74.0Y-57.5
X55.0Y-56.0
X55.0Y-58.54
X55.0Y-61.08
X62.0Y-56.0
X62.0Y-58.54
X62.0Y-61.08
T7
X96.0Y-98.0
X101.0Y-98.0
X106.0Y-98.0
X54.0Y-98.0
X59.0Y-98.0
X64.0Y-98.0
X54.0Y-71.0
X59.0Y-71.0
X64.0Y-71.0
X96.0Y-71.0
X101.0Y-71.0
X106.0Y-71.0
T8
X88.5Y-64.0
X88.5Y-92.0
T9
X106.9Y-74.65
X106.9Y-87.35
X80.0Y-77.3
X80.0Y-82.0
X80.0Y-86.7
X80.0Y-50.3
X80.0Y-55.0
X80.0Y-59.7
T0
M30
