G04 #@! TF.GenerationSoftware,KiCad,Pcbnew,(5.1.2-1)-1*
G04 #@! TF.CreationDate,2019-08-29T00:18:43-06:00*
G04 #@! TF.ProjectId,NuisanceEngine,4e756973-616e-4636-9545-6e67696e652e,rev?*
G04 #@! TF.SameCoordinates,Original*
G04 #@! TF.FileFunction,Copper,L2,Bot*
G04 #@! TF.FilePolarity,Positive*
%FSLAX46Y46*%
G04 Gerber Fmt 4.6, Leading zero omitted, Abs format (unit mm)*
G04 Created by KiCad (PCBNEW (5.1.2-1)-1) date 2019-08-29 00:18:43*
%MOMM*%
%LPD*%
G04 APERTURE LIST*
%ADD10C,3.200000*%
%ADD11O,2.200000X2.200000*%
%ADD12R,2.200000X2.200000*%
%ADD13O,2.000000X1.905000*%
%ADD14R,2.000000X1.905000*%
%ADD15C,2.000000*%
%ADD16R,1.900000X2.000000*%
%ADD17C,1.900000*%
%ADD18C,2.262000*%
%ADD19C,1.620000*%
%ADD20O,1.700000X1.700000*%
%ADD21R,1.700000X1.700000*%
%ADD22R,1.600000X1.600000*%
%ADD23C,1.600000*%
%ADD24C,0.600000*%
%ADD25C,1.000000*%
%ADD26C,0.500000*%
%ADD27C,0.250000*%
%ADD28C,0.254000*%
G04 APERTURE END LIST*
D10*
X80000000Y-86700000D03*
X80000000Y-82000000D03*
X80000000Y-77300000D03*
D11*
X74000000Y-49880000D03*
D12*
X74000000Y-57500000D03*
D13*
X55000000Y-61080000D03*
X55000000Y-58540000D03*
D14*
X55000000Y-56000000D03*
D13*
X62000000Y-61080000D03*
X62000000Y-58540000D03*
D14*
X62000000Y-56000000D03*
D15*
X106000000Y-71000000D03*
X101000000Y-71000000D03*
X96000000Y-71000000D03*
X106000000Y-98000000D03*
X101000000Y-98000000D03*
X96000000Y-98000000D03*
X64000000Y-98000000D03*
X59000000Y-98000000D03*
X54000000Y-98000000D03*
X64000000Y-71000000D03*
X59000000Y-71000000D03*
X54000000Y-71000000D03*
D10*
X106900000Y-87350000D03*
X106900000Y-74650000D03*
D16*
X90000000Y-55000000D03*
D17*
X87460000Y-55000000D03*
D18*
X88500000Y-92000000D03*
X88500000Y-64000000D03*
D19*
X98000000Y-60000000D03*
X103000000Y-57500000D03*
X98000000Y-55000000D03*
D10*
X80000000Y-59700000D03*
X80000000Y-55000000D03*
X80000000Y-50300000D03*
D20*
X78540000Y-98000000D03*
D21*
X76000000Y-98000000D03*
D20*
X73080000Y-98000000D03*
X70540000Y-98000000D03*
D21*
X68000000Y-98000000D03*
X81460000Y-98000000D03*
D20*
X84000000Y-98000000D03*
X86540000Y-98000000D03*
D21*
X89500000Y-98000000D03*
D20*
X92040000Y-98000000D03*
D22*
X67500000Y-57000000D03*
D23*
X67500000Y-59500000D03*
D24*
X67000000Y-82000000D03*
X67000000Y-80500000D03*
X71000000Y-71750000D03*
X70250000Y-71750000D03*
X72000000Y-64750000D03*
X72000000Y-64000000D03*
X71250000Y-93000000D03*
X71250000Y-92250000D03*
X75750000Y-60500000D03*
X77250000Y-64750000D03*
X82750000Y-72750000D03*
X81750000Y-72750000D03*
X71000000Y-57000000D03*
X71000000Y-57750000D03*
X87000000Y-76000000D03*
X88000000Y-76000000D03*
X89000000Y-76000000D03*
X90000000Y-76000000D03*
X89000000Y-77000000D03*
X90000000Y-77000000D03*
X87000000Y-77000000D03*
X88000000Y-77000000D03*
X87000000Y-78000000D03*
X88000000Y-78000000D03*
X89000000Y-78000000D03*
X90000000Y-78000000D03*
X67125000Y-86875000D03*
X67000000Y-78000000D03*
X80000000Y-89750000D03*
X70500000Y-65250000D03*
X72500000Y-74000000D03*
X72500000Y-88500000D03*
X79500000Y-67250000D03*
X73500000Y-67250000D03*
D25*
X100500000Y-81050000D02*
X106900000Y-74650000D01*
X86540000Y-98000000D02*
X92500000Y-92040000D01*
X92500000Y-89050000D02*
X100500000Y-81050000D01*
X92500000Y-92040000D02*
X92500000Y-89050000D01*
D26*
X54000000Y-96585787D02*
X54000000Y-98000000D01*
X54000000Y-78853998D02*
X54000000Y-96585787D01*
X106000000Y-98000000D02*
X108950001Y-95049999D01*
X55237498Y-53000000D02*
X54000000Y-53000000D01*
X51500000Y-55500000D02*
X51500000Y-76353998D01*
X55287499Y-52949999D02*
X55237498Y-53000000D01*
X51500000Y-76353998D02*
X54000000Y-78853998D01*
X80384003Y-52949999D02*
X55287499Y-52949999D01*
X101739999Y-51739999D02*
X81594003Y-51739999D01*
X54000000Y-53000000D02*
X51500000Y-55500000D01*
X108950001Y-58950001D02*
X101739999Y-51739999D01*
X108950001Y-95049999D02*
X108950001Y-58950001D01*
X81594003Y-51739999D02*
X80384003Y-52949999D01*
D27*
X67000000Y-86750000D02*
X67125000Y-86875000D01*
X66000000Y-85750000D02*
X66000000Y-79000000D01*
X66700001Y-78299999D02*
X67000000Y-78000000D01*
X66000000Y-79000000D02*
X66700001Y-78299999D01*
X67125000Y-86875000D02*
X66000000Y-85750000D01*
D25*
X55000000Y-61080000D02*
X62000000Y-61080000D01*
X67500000Y-64750000D02*
X67500000Y-59500000D01*
X75250000Y-72500000D02*
X67500000Y-64750000D01*
X75250000Y-77250000D02*
X75250000Y-72500000D01*
X75250000Y-77250000D02*
X80000000Y-82000000D01*
D27*
X76750000Y-76899002D02*
X79600998Y-79750000D01*
X76750000Y-72833260D02*
X76750000Y-76899002D01*
X70500000Y-66583260D02*
X76750000Y-72833260D01*
X70500000Y-65250000D02*
X70500000Y-66583260D01*
X80299999Y-89450001D02*
X80000000Y-89750000D01*
X81925001Y-87824999D02*
X80299999Y-89450001D01*
X80599002Y-79750000D02*
X81925001Y-81075999D01*
X81925001Y-81075999D02*
X81925001Y-87824999D01*
X79600998Y-79750000D02*
X80599002Y-79750000D01*
X72500000Y-88500000D02*
X72500000Y-74000000D01*
X73500000Y-67250000D02*
X79500000Y-67250000D01*
D25*
X84000000Y-98000000D02*
X84000000Y-74500000D01*
X84000000Y-74500000D02*
X85500000Y-73000000D01*
X85500000Y-65200000D02*
X80000000Y-59700000D01*
X85500000Y-73000000D02*
X85500000Y-65200000D01*
D28*
G36*
X108065001Y-85435633D02*
G01*
X107723393Y-85260574D01*
X107299945Y-85140086D01*
X106861127Y-85104524D01*
X106423803Y-85155254D01*
X106004779Y-85290326D01*
X105684802Y-85461357D01*
X105516761Y-85787155D01*
X106900000Y-87170395D01*
X106914142Y-87156252D01*
X107093748Y-87335858D01*
X107079605Y-87350000D01*
X107093748Y-87364142D01*
X106914142Y-87543748D01*
X106900000Y-87529605D01*
X105516761Y-88912845D01*
X105684802Y-89238643D01*
X106076607Y-89439426D01*
X106500055Y-89559914D01*
X106938873Y-89595476D01*
X107376197Y-89544746D01*
X107795221Y-89409674D01*
X108065001Y-89265474D01*
X108065001Y-94683420D01*
X106346525Y-96401897D01*
X106161033Y-96365000D01*
X105838967Y-96365000D01*
X105523088Y-96427832D01*
X105225537Y-96551082D01*
X104957748Y-96730013D01*
X104730013Y-96957748D01*
X104551082Y-97225537D01*
X104427832Y-97523088D01*
X104365000Y-97838967D01*
X104365000Y-98161033D01*
X104427832Y-98476912D01*
X104551082Y-98774463D01*
X104730013Y-99042252D01*
X104957748Y-99269987D01*
X104987700Y-99290000D01*
X102012300Y-99290000D01*
X102042252Y-99269987D01*
X102269987Y-99042252D01*
X102448918Y-98774463D01*
X102572168Y-98476912D01*
X102635000Y-98161033D01*
X102635000Y-97838967D01*
X102572168Y-97523088D01*
X102448918Y-97225537D01*
X102269987Y-96957748D01*
X102042252Y-96730013D01*
X101774463Y-96551082D01*
X101476912Y-96427832D01*
X101161033Y-96365000D01*
X100838967Y-96365000D01*
X100523088Y-96427832D01*
X100225537Y-96551082D01*
X99957748Y-96730013D01*
X99730013Y-96957748D01*
X99551082Y-97225537D01*
X99427832Y-97523088D01*
X99365000Y-97838967D01*
X99365000Y-98161033D01*
X99427832Y-98476912D01*
X99551082Y-98774463D01*
X99730013Y-99042252D01*
X99957748Y-99269987D01*
X99987700Y-99290000D01*
X96899818Y-99290000D01*
X96955808Y-99135413D01*
X96000000Y-98179605D01*
X95044192Y-99135413D01*
X95100182Y-99290000D01*
X92768376Y-99290000D01*
X92806920Y-99271641D01*
X93040269Y-99097588D01*
X93235178Y-98881355D01*
X93384157Y-98631252D01*
X93481481Y-98356891D01*
X93360814Y-98127000D01*
X92167000Y-98127000D01*
X92167000Y-98147000D01*
X91913000Y-98147000D01*
X91913000Y-98127000D01*
X91893000Y-98127000D01*
X91893000Y-98062595D01*
X94358282Y-98062595D01*
X94402039Y-98381675D01*
X94507205Y-98686088D01*
X94600186Y-98860044D01*
X94864587Y-98955808D01*
X95820395Y-98000000D01*
X96179605Y-98000000D01*
X97135413Y-98955808D01*
X97399814Y-98860044D01*
X97540704Y-98570429D01*
X97622384Y-98258892D01*
X97641718Y-97937405D01*
X97597961Y-97618325D01*
X97492795Y-97313912D01*
X97399814Y-97139956D01*
X97135413Y-97044192D01*
X96179605Y-98000000D01*
X95820395Y-98000000D01*
X94864587Y-97044192D01*
X94600186Y-97139956D01*
X94459296Y-97429571D01*
X94377616Y-97741108D01*
X94358282Y-98062595D01*
X91893000Y-98062595D01*
X91893000Y-97873000D01*
X91913000Y-97873000D01*
X91913000Y-96679845D01*
X92167000Y-96679845D01*
X92167000Y-97873000D01*
X93360814Y-97873000D01*
X93481481Y-97643109D01*
X93384157Y-97368748D01*
X93235178Y-97118645D01*
X93040269Y-96902412D01*
X92989558Y-96864587D01*
X95044192Y-96864587D01*
X96000000Y-97820395D01*
X96955808Y-96864587D01*
X96860044Y-96600186D01*
X96570429Y-96459296D01*
X96258892Y-96377616D01*
X95937405Y-96358282D01*
X95618325Y-96402039D01*
X95313912Y-96507205D01*
X95139956Y-96600186D01*
X95044192Y-96864587D01*
X92989558Y-96864587D01*
X92806920Y-96728359D01*
X92544099Y-96603175D01*
X92396890Y-96558524D01*
X92167000Y-96679845D01*
X91913000Y-96679845D01*
X91683110Y-96558524D01*
X91535901Y-96603175D01*
X91273080Y-96728359D01*
X91039731Y-96902412D01*
X90963966Y-96986466D01*
X90939502Y-96905820D01*
X90880537Y-96795506D01*
X90801185Y-96698815D01*
X90704494Y-96619463D01*
X90594180Y-96560498D01*
X90474482Y-96524188D01*
X90350000Y-96511928D01*
X89633203Y-96511928D01*
X93263141Y-92881991D01*
X93306449Y-92846449D01*
X93448284Y-92673623D01*
X93553676Y-92476447D01*
X93618577Y-92262499D01*
X93635000Y-92095752D01*
X93635000Y-92095751D01*
X93640491Y-92040000D01*
X93635000Y-91984248D01*
X93635000Y-91904495D01*
X94015000Y-91904495D01*
X94015000Y-92295505D01*
X94091282Y-92679003D01*
X94240915Y-93040250D01*
X94458149Y-93365364D01*
X94734636Y-93641851D01*
X95059750Y-93859085D01*
X95420997Y-94008718D01*
X95804495Y-94085000D01*
X96195505Y-94085000D01*
X96579003Y-94008718D01*
X96940250Y-93859085D01*
X97265364Y-93641851D01*
X97541851Y-93365364D01*
X97759085Y-93040250D01*
X97908718Y-92679003D01*
X97985000Y-92295505D01*
X97985000Y-91904495D01*
X97908718Y-91520997D01*
X97759085Y-91159750D01*
X97541851Y-90834636D01*
X97265364Y-90558149D01*
X96940250Y-90340915D01*
X96579003Y-90191282D01*
X96195505Y-90115000D01*
X95804495Y-90115000D01*
X95420997Y-90191282D01*
X95059750Y-90340915D01*
X94734636Y-90558149D01*
X94458149Y-90834636D01*
X94240915Y-91159750D01*
X94091282Y-91520997D01*
X94015000Y-91904495D01*
X93635000Y-91904495D01*
X93635000Y-89520131D01*
X95766258Y-87388873D01*
X104654524Y-87388873D01*
X104705254Y-87826197D01*
X104840326Y-88245221D01*
X105011357Y-88565198D01*
X105337155Y-88733239D01*
X106720395Y-87350000D01*
X105337155Y-85966761D01*
X105011357Y-86134802D01*
X104810574Y-86526607D01*
X104690086Y-86950055D01*
X104654524Y-87388873D01*
X95766258Y-87388873D01*
X101341988Y-81813144D01*
X101341993Y-81813138D01*
X106338112Y-76817020D01*
X106679872Y-76885000D01*
X107120128Y-76885000D01*
X107551925Y-76799110D01*
X107958669Y-76630631D01*
X108065002Y-76559582D01*
X108065001Y-85435633D01*
X108065001Y-85435633D01*
G37*
X108065001Y-85435633D02*
X107723393Y-85260574D01*
X107299945Y-85140086D01*
X106861127Y-85104524D01*
X106423803Y-85155254D01*
X106004779Y-85290326D01*
X105684802Y-85461357D01*
X105516761Y-85787155D01*
X106900000Y-87170395D01*
X106914142Y-87156252D01*
X107093748Y-87335858D01*
X107079605Y-87350000D01*
X107093748Y-87364142D01*
X106914142Y-87543748D01*
X106900000Y-87529605D01*
X105516761Y-88912845D01*
X105684802Y-89238643D01*
X106076607Y-89439426D01*
X106500055Y-89559914D01*
X106938873Y-89595476D01*
X107376197Y-89544746D01*
X107795221Y-89409674D01*
X108065001Y-89265474D01*
X108065001Y-94683420D01*
X106346525Y-96401897D01*
X106161033Y-96365000D01*
X105838967Y-96365000D01*
X105523088Y-96427832D01*
X105225537Y-96551082D01*
X104957748Y-96730013D01*
X104730013Y-96957748D01*
X104551082Y-97225537D01*
X104427832Y-97523088D01*
X104365000Y-97838967D01*
X104365000Y-98161033D01*
X104427832Y-98476912D01*
X104551082Y-98774463D01*
X104730013Y-99042252D01*
X104957748Y-99269987D01*
X104987700Y-99290000D01*
X102012300Y-99290000D01*
X102042252Y-99269987D01*
X102269987Y-99042252D01*
X102448918Y-98774463D01*
X102572168Y-98476912D01*
X102635000Y-98161033D01*
X102635000Y-97838967D01*
X102572168Y-97523088D01*
X102448918Y-97225537D01*
X102269987Y-96957748D01*
X102042252Y-96730013D01*
X101774463Y-96551082D01*
X101476912Y-96427832D01*
X101161033Y-96365000D01*
X100838967Y-96365000D01*
X100523088Y-96427832D01*
X100225537Y-96551082D01*
X99957748Y-96730013D01*
X99730013Y-96957748D01*
X99551082Y-97225537D01*
X99427832Y-97523088D01*
X99365000Y-97838967D01*
X99365000Y-98161033D01*
X99427832Y-98476912D01*
X99551082Y-98774463D01*
X99730013Y-99042252D01*
X99957748Y-99269987D01*
X99987700Y-99290000D01*
X96899818Y-99290000D01*
X96955808Y-99135413D01*
X96000000Y-98179605D01*
X95044192Y-99135413D01*
X95100182Y-99290000D01*
X92768376Y-99290000D01*
X92806920Y-99271641D01*
X93040269Y-99097588D01*
X93235178Y-98881355D01*
X93384157Y-98631252D01*
X93481481Y-98356891D01*
X93360814Y-98127000D01*
X92167000Y-98127000D01*
X92167000Y-98147000D01*
X91913000Y-98147000D01*
X91913000Y-98127000D01*
X91893000Y-98127000D01*
X91893000Y-98062595D01*
X94358282Y-98062595D01*
X94402039Y-98381675D01*
X94507205Y-98686088D01*
X94600186Y-98860044D01*
X94864587Y-98955808D01*
X95820395Y-98000000D01*
X96179605Y-98000000D01*
X97135413Y-98955808D01*
X97399814Y-98860044D01*
X97540704Y-98570429D01*
X97622384Y-98258892D01*
X97641718Y-97937405D01*
X97597961Y-97618325D01*
X97492795Y-97313912D01*
X97399814Y-97139956D01*
X97135413Y-97044192D01*
X96179605Y-98000000D01*
X95820395Y-98000000D01*
X94864587Y-97044192D01*
X94600186Y-97139956D01*
X94459296Y-97429571D01*
X94377616Y-97741108D01*
X94358282Y-98062595D01*
X91893000Y-98062595D01*
X91893000Y-97873000D01*
X91913000Y-97873000D01*
X91913000Y-96679845D01*
X92167000Y-96679845D01*
X92167000Y-97873000D01*
X93360814Y-97873000D01*
X93481481Y-97643109D01*
X93384157Y-97368748D01*
X93235178Y-97118645D01*
X93040269Y-96902412D01*
X92989558Y-96864587D01*
X95044192Y-96864587D01*
X96000000Y-97820395D01*
X96955808Y-96864587D01*
X96860044Y-96600186D01*
X96570429Y-96459296D01*
X96258892Y-96377616D01*
X95937405Y-96358282D01*
X95618325Y-96402039D01*
X95313912Y-96507205D01*
X95139956Y-96600186D01*
X95044192Y-96864587D01*
X92989558Y-96864587D01*
X92806920Y-96728359D01*
X92544099Y-96603175D01*
X92396890Y-96558524D01*
X92167000Y-96679845D01*
X91913000Y-96679845D01*
X91683110Y-96558524D01*
X91535901Y-96603175D01*
X91273080Y-96728359D01*
X91039731Y-96902412D01*
X90963966Y-96986466D01*
X90939502Y-96905820D01*
X90880537Y-96795506D01*
X90801185Y-96698815D01*
X90704494Y-96619463D01*
X90594180Y-96560498D01*
X90474482Y-96524188D01*
X90350000Y-96511928D01*
X89633203Y-96511928D01*
X93263141Y-92881991D01*
X93306449Y-92846449D01*
X93448284Y-92673623D01*
X93553676Y-92476447D01*
X93618577Y-92262499D01*
X93635000Y-92095752D01*
X93635000Y-92095751D01*
X93640491Y-92040000D01*
X93635000Y-91984248D01*
X93635000Y-91904495D01*
X94015000Y-91904495D01*
X94015000Y-92295505D01*
X94091282Y-92679003D01*
X94240915Y-93040250D01*
X94458149Y-93365364D01*
X94734636Y-93641851D01*
X95059750Y-93859085D01*
X95420997Y-94008718D01*
X95804495Y-94085000D01*
X96195505Y-94085000D01*
X96579003Y-94008718D01*
X96940250Y-93859085D01*
X97265364Y-93641851D01*
X97541851Y-93365364D01*
X97759085Y-93040250D01*
X97908718Y-92679003D01*
X97985000Y-92295505D01*
X97985000Y-91904495D01*
X97908718Y-91520997D01*
X97759085Y-91159750D01*
X97541851Y-90834636D01*
X97265364Y-90558149D01*
X96940250Y-90340915D01*
X96579003Y-90191282D01*
X96195505Y-90115000D01*
X95804495Y-90115000D01*
X95420997Y-90191282D01*
X95059750Y-90340915D01*
X94734636Y-90558149D01*
X94458149Y-90834636D01*
X94240915Y-91159750D01*
X94091282Y-91520997D01*
X94015000Y-91904495D01*
X93635000Y-91904495D01*
X93635000Y-89520131D01*
X95766258Y-87388873D01*
X104654524Y-87388873D01*
X104705254Y-87826197D01*
X104840326Y-88245221D01*
X105011357Y-88565198D01*
X105337155Y-88733239D01*
X106720395Y-87350000D01*
X105337155Y-85966761D01*
X105011357Y-86134802D01*
X104810574Y-86526607D01*
X104690086Y-86950055D01*
X104654524Y-87388873D01*
X95766258Y-87388873D01*
X101341988Y-81813144D01*
X101341993Y-81813138D01*
X106338112Y-76817020D01*
X106679872Y-76885000D01*
X107120128Y-76885000D01*
X107551925Y-76799110D01*
X107958669Y-76630631D01*
X108065002Y-76559582D01*
X108065001Y-85435633D01*
G36*
X108065002Y-59316581D02*
G01*
X108065002Y-72740418D01*
X107958669Y-72669369D01*
X107551925Y-72500890D01*
X107120128Y-72415000D01*
X106825225Y-72415000D01*
X107042252Y-72269987D01*
X107269987Y-72042252D01*
X107448918Y-71774463D01*
X107572168Y-71476912D01*
X107635000Y-71161033D01*
X107635000Y-70838967D01*
X107572168Y-70523088D01*
X107448918Y-70225537D01*
X107269987Y-69957748D01*
X107042252Y-69730013D01*
X106774463Y-69551082D01*
X106476912Y-69427832D01*
X106161033Y-69365000D01*
X105838967Y-69365000D01*
X105523088Y-69427832D01*
X105225537Y-69551082D01*
X104957748Y-69730013D01*
X104730013Y-69957748D01*
X104551082Y-70225537D01*
X104427832Y-70523088D01*
X104365000Y-70838967D01*
X104365000Y-71161033D01*
X104427832Y-71476912D01*
X104551082Y-71774463D01*
X104730013Y-72042252D01*
X104957748Y-72269987D01*
X105225537Y-72448918D01*
X105523088Y-72572168D01*
X105838967Y-72635000D01*
X105924305Y-72635000D01*
X105841331Y-72669369D01*
X105475271Y-72913962D01*
X105163962Y-73225271D01*
X104919369Y-73591331D01*
X104750890Y-73998075D01*
X104665000Y-74429872D01*
X104665000Y-74870128D01*
X104732980Y-75211888D01*
X99736862Y-80208007D01*
X99736856Y-80208012D01*
X91736860Y-88208009D01*
X91693552Y-88243551D01*
X91551717Y-88416377D01*
X91541208Y-88436038D01*
X91446324Y-88613554D01*
X91381423Y-88827502D01*
X91359509Y-89050000D01*
X91365001Y-89105761D01*
X91365000Y-91569868D01*
X89997864Y-92937004D01*
X90065009Y-92836515D01*
X90198134Y-92515123D01*
X90266000Y-92173936D01*
X90266000Y-91826064D01*
X90198134Y-91484877D01*
X90065009Y-91163485D01*
X89871742Y-90874241D01*
X89625759Y-90628258D01*
X89336515Y-90434991D01*
X89015123Y-90301866D01*
X88673936Y-90234000D01*
X88326064Y-90234000D01*
X87984877Y-90301866D01*
X87663485Y-90434991D01*
X87374241Y-90628258D01*
X87128258Y-90874241D01*
X86934991Y-91163485D01*
X86801866Y-91484877D01*
X86734000Y-91826064D01*
X86734000Y-92173936D01*
X86801866Y-92515123D01*
X86934991Y-92836515D01*
X87128258Y-93125759D01*
X87374241Y-93371742D01*
X87663485Y-93565009D01*
X87984877Y-93698134D01*
X88326064Y-93766000D01*
X88673936Y-93766000D01*
X89015123Y-93698134D01*
X89336515Y-93565009D01*
X89437004Y-93497864D01*
X86414714Y-96520155D01*
X86248889Y-96536487D01*
X85968966Y-96621401D01*
X85710986Y-96759294D01*
X85484866Y-96944866D01*
X85299294Y-97170986D01*
X85270000Y-97225791D01*
X85240706Y-97170986D01*
X85135000Y-97042183D01*
X85135000Y-74970131D01*
X86263140Y-73841992D01*
X86306449Y-73806449D01*
X86448284Y-73633623D01*
X86553676Y-73436447D01*
X86618577Y-73222499D01*
X86635000Y-73055752D01*
X86635000Y-73055743D01*
X86640490Y-73000001D01*
X86635000Y-72944259D01*
X86635000Y-70838967D01*
X94365000Y-70838967D01*
X94365000Y-71161033D01*
X94427832Y-71476912D01*
X94551082Y-71774463D01*
X94730013Y-72042252D01*
X94957748Y-72269987D01*
X95225537Y-72448918D01*
X95523088Y-72572168D01*
X95838967Y-72635000D01*
X96161033Y-72635000D01*
X96476912Y-72572168D01*
X96774463Y-72448918D01*
X97042252Y-72269987D01*
X97269987Y-72042252D01*
X97448918Y-71774463D01*
X97572168Y-71476912D01*
X97635000Y-71161033D01*
X97635000Y-70838967D01*
X99365000Y-70838967D01*
X99365000Y-71161033D01*
X99427832Y-71476912D01*
X99551082Y-71774463D01*
X99730013Y-72042252D01*
X99957748Y-72269987D01*
X100225537Y-72448918D01*
X100523088Y-72572168D01*
X100838967Y-72635000D01*
X101161033Y-72635000D01*
X101476912Y-72572168D01*
X101774463Y-72448918D01*
X102042252Y-72269987D01*
X102269987Y-72042252D01*
X102448918Y-71774463D01*
X102572168Y-71476912D01*
X102635000Y-71161033D01*
X102635000Y-70838967D01*
X102572168Y-70523088D01*
X102448918Y-70225537D01*
X102269987Y-69957748D01*
X102042252Y-69730013D01*
X101774463Y-69551082D01*
X101476912Y-69427832D01*
X101161033Y-69365000D01*
X100838967Y-69365000D01*
X100523088Y-69427832D01*
X100225537Y-69551082D01*
X99957748Y-69730013D01*
X99730013Y-69957748D01*
X99551082Y-70225537D01*
X99427832Y-70523088D01*
X99365000Y-70838967D01*
X97635000Y-70838967D01*
X97572168Y-70523088D01*
X97448918Y-70225537D01*
X97269987Y-69957748D01*
X97042252Y-69730013D01*
X96774463Y-69551082D01*
X96476912Y-69427832D01*
X96161033Y-69365000D01*
X95838967Y-69365000D01*
X95523088Y-69427832D01*
X95225537Y-69551082D01*
X94957748Y-69730013D01*
X94730013Y-69957748D01*
X94551082Y-70225537D01*
X94427832Y-70523088D01*
X94365000Y-70838967D01*
X86635000Y-70838967D01*
X86635000Y-65255752D01*
X86637653Y-65228807D01*
X87450798Y-65228807D01*
X87562369Y-65506605D01*
X87874309Y-65660579D01*
X88210294Y-65750737D01*
X88557413Y-65773616D01*
X88902325Y-65728336D01*
X89231776Y-65616637D01*
X89437631Y-65506605D01*
X89549202Y-65228807D01*
X88500000Y-64179605D01*
X87450798Y-65228807D01*
X86637653Y-65228807D01*
X86640491Y-65200000D01*
X86618577Y-64977501D01*
X86553676Y-64763553D01*
X86448284Y-64566377D01*
X86341989Y-64436856D01*
X86341987Y-64436854D01*
X86306449Y-64393551D01*
X86263146Y-64358013D01*
X85962546Y-64057413D01*
X86726384Y-64057413D01*
X86771664Y-64402325D01*
X86883363Y-64731776D01*
X86993395Y-64937631D01*
X87271193Y-65049202D01*
X88320395Y-64000000D01*
X88679605Y-64000000D01*
X89728807Y-65049202D01*
X90006605Y-64937631D01*
X90160579Y-64625691D01*
X90250737Y-64289706D01*
X90273616Y-63942587D01*
X90228336Y-63597675D01*
X90116637Y-63268224D01*
X90006605Y-63062369D01*
X89728807Y-62950798D01*
X88679605Y-64000000D01*
X88320395Y-64000000D01*
X87271193Y-62950798D01*
X86993395Y-63062369D01*
X86839421Y-63374309D01*
X86749263Y-63710294D01*
X86726384Y-64057413D01*
X85962546Y-64057413D01*
X84676326Y-62771193D01*
X87450798Y-62771193D01*
X88500000Y-63820395D01*
X89549202Y-62771193D01*
X89437631Y-62493395D01*
X89125691Y-62339421D01*
X88789706Y-62249263D01*
X88442587Y-62226384D01*
X88097675Y-62271664D01*
X87768224Y-62383363D01*
X87562369Y-62493395D01*
X87450798Y-62771193D01*
X84676326Y-62771193D01*
X82167020Y-60261888D01*
X82235000Y-59920128D01*
X82235000Y-59857680D01*
X96555000Y-59857680D01*
X96555000Y-60142320D01*
X96610530Y-60421491D01*
X96719457Y-60684464D01*
X96877595Y-60921134D01*
X97078866Y-61122405D01*
X97315536Y-61280543D01*
X97578509Y-61389470D01*
X97857680Y-61445000D01*
X98142320Y-61445000D01*
X98421491Y-61389470D01*
X98684464Y-61280543D01*
X98921134Y-61122405D01*
X99122405Y-60921134D01*
X99280543Y-60684464D01*
X99389470Y-60421491D01*
X99445000Y-60142320D01*
X99445000Y-59857680D01*
X99389470Y-59578509D01*
X99280543Y-59315536D01*
X99122405Y-59078866D01*
X98921134Y-58877595D01*
X98684464Y-58719457D01*
X98421491Y-58610530D01*
X98142320Y-58555000D01*
X97857680Y-58555000D01*
X97578509Y-58610530D01*
X97315536Y-58719457D01*
X97078866Y-58877595D01*
X96877595Y-59078866D01*
X96719457Y-59315536D01*
X96610530Y-59578509D01*
X96555000Y-59857680D01*
X82235000Y-59857680D01*
X82235000Y-59479872D01*
X82149110Y-59048075D01*
X81980631Y-58641331D01*
X81886092Y-58499843D01*
X102179762Y-58499843D01*
X102252556Y-58744832D01*
X102509773Y-58866733D01*
X102785829Y-58936110D01*
X103070115Y-58950298D01*
X103351706Y-58908752D01*
X103619783Y-58813068D01*
X103747444Y-58744832D01*
X103820238Y-58499843D01*
X103000000Y-57679605D01*
X102179762Y-58499843D01*
X81886092Y-58499843D01*
X81736038Y-58275271D01*
X81424729Y-57963962D01*
X81058669Y-57719369D01*
X80698339Y-57570115D01*
X101549702Y-57570115D01*
X101591248Y-57851706D01*
X101686932Y-58119783D01*
X101755168Y-58247444D01*
X102000157Y-58320238D01*
X102820395Y-57500000D01*
X103179605Y-57500000D01*
X103999843Y-58320238D01*
X104244832Y-58247444D01*
X104366733Y-57990227D01*
X104436110Y-57714171D01*
X104450298Y-57429885D01*
X104408752Y-57148294D01*
X104313068Y-56880217D01*
X104244832Y-56752556D01*
X103999843Y-56679762D01*
X103179605Y-57500000D01*
X102820395Y-57500000D01*
X102000157Y-56679762D01*
X101755168Y-56752556D01*
X101633267Y-57009773D01*
X101563890Y-57285829D01*
X101549702Y-57570115D01*
X80698339Y-57570115D01*
X80651925Y-57550890D01*
X80220128Y-57465000D01*
X79779872Y-57465000D01*
X79348075Y-57550890D01*
X78941331Y-57719369D01*
X78575271Y-57963962D01*
X78263962Y-58275271D01*
X78019369Y-58641331D01*
X77850890Y-59048075D01*
X77765000Y-59479872D01*
X77765000Y-59920128D01*
X77850890Y-60351925D01*
X78019369Y-60758669D01*
X78263962Y-61124729D01*
X78575271Y-61436038D01*
X78941331Y-61680631D01*
X79348075Y-61849110D01*
X79779872Y-61935000D01*
X80220128Y-61935000D01*
X80561888Y-61867020D01*
X84365001Y-65670134D01*
X84365000Y-72529868D01*
X83236860Y-73658009D01*
X83193552Y-73693551D01*
X83051717Y-73866377D01*
X83029517Y-73907911D01*
X82946324Y-74063554D01*
X82881423Y-74277502D01*
X82859509Y-74500000D01*
X82865001Y-74555762D01*
X82865000Y-96841272D01*
X82840537Y-96795506D01*
X82761185Y-96698815D01*
X82664494Y-96619463D01*
X82554180Y-96560498D01*
X82434482Y-96524188D01*
X82310000Y-96511928D01*
X81745750Y-96515000D01*
X81587000Y-96673750D01*
X81587000Y-97873000D01*
X81607000Y-97873000D01*
X81607000Y-98127000D01*
X81587000Y-98127000D01*
X81587000Y-98147000D01*
X81333000Y-98147000D01*
X81333000Y-98127000D01*
X81313000Y-98127000D01*
X81313000Y-97873000D01*
X81333000Y-97873000D01*
X81333000Y-96673750D01*
X81174250Y-96515000D01*
X80610000Y-96511928D01*
X80485518Y-96524188D01*
X80365820Y-96560498D01*
X80255506Y-96619463D01*
X80158815Y-96698815D01*
X80079463Y-96795506D01*
X80020498Y-96905820D01*
X79984188Y-97025518D01*
X79971928Y-97150000D01*
X79974449Y-97613079D01*
X79918599Y-97428966D01*
X79780706Y-97170986D01*
X79595134Y-96944866D01*
X79369014Y-96759294D01*
X79111034Y-96621401D01*
X78831111Y-96536487D01*
X78612950Y-96515000D01*
X78467050Y-96515000D01*
X78248889Y-96536487D01*
X77968966Y-96621401D01*
X77710986Y-96759294D01*
X77484866Y-96944866D01*
X77460393Y-96974687D01*
X77439502Y-96905820D01*
X77380537Y-96795506D01*
X77301185Y-96698815D01*
X77204494Y-96619463D01*
X77094180Y-96560498D01*
X76974482Y-96524188D01*
X76850000Y-96511928D01*
X76285750Y-96515000D01*
X76127000Y-96673750D01*
X76127000Y-97873000D01*
X76147000Y-97873000D01*
X76147000Y-98127000D01*
X76127000Y-98127000D01*
X76127000Y-98147000D01*
X75873000Y-98147000D01*
X75873000Y-98127000D01*
X74673750Y-98127000D01*
X74515000Y-98285750D01*
X74514683Y-98343940D01*
X74400814Y-98127000D01*
X73207000Y-98127000D01*
X73207000Y-98147000D01*
X72953000Y-98147000D01*
X72953000Y-98127000D01*
X72933000Y-98127000D01*
X72933000Y-97873000D01*
X72953000Y-97873000D01*
X72953000Y-96679845D01*
X73207000Y-96679845D01*
X73207000Y-97873000D01*
X74400814Y-97873000D01*
X74514683Y-97656060D01*
X74515000Y-97714250D01*
X74673750Y-97873000D01*
X75873000Y-97873000D01*
X75873000Y-96673750D01*
X75714250Y-96515000D01*
X75150000Y-96511928D01*
X75025518Y-96524188D01*
X74905820Y-96560498D01*
X74795506Y-96619463D01*
X74698815Y-96698815D01*
X74619463Y-96795506D01*
X74560498Y-96905820D01*
X74524188Y-97025518D01*
X74511928Y-97150000D01*
X74514506Y-97623445D01*
X74424157Y-97368748D01*
X74275178Y-97118645D01*
X74080269Y-96902412D01*
X73846920Y-96728359D01*
X73584099Y-96603175D01*
X73436890Y-96558524D01*
X73207000Y-96679845D01*
X72953000Y-96679845D01*
X72723110Y-96558524D01*
X72575901Y-96603175D01*
X72313080Y-96728359D01*
X72079731Y-96902412D01*
X71884822Y-97118645D01*
X71815201Y-97235523D01*
X71780706Y-97170986D01*
X71595134Y-96944866D01*
X71369014Y-96759294D01*
X71111034Y-96621401D01*
X70831111Y-96536487D01*
X70612950Y-96515000D01*
X70467050Y-96515000D01*
X70248889Y-96536487D01*
X69968966Y-96621401D01*
X69710986Y-96759294D01*
X69484866Y-96944866D01*
X69460393Y-96974687D01*
X69439502Y-96905820D01*
X69380537Y-96795506D01*
X69301185Y-96698815D01*
X69204494Y-96619463D01*
X69094180Y-96560498D01*
X68974482Y-96524188D01*
X68850000Y-96511928D01*
X67150000Y-96511928D01*
X67025518Y-96524188D01*
X66905820Y-96560498D01*
X66795506Y-96619463D01*
X66698815Y-96698815D01*
X66619463Y-96795506D01*
X66560498Y-96905820D01*
X66524188Y-97025518D01*
X66511928Y-97150000D01*
X66511928Y-98850000D01*
X66524188Y-98974482D01*
X66560498Y-99094180D01*
X66619463Y-99204494D01*
X66689636Y-99290000D01*
X65012300Y-99290000D01*
X65042252Y-99269987D01*
X65269987Y-99042252D01*
X65448918Y-98774463D01*
X65572168Y-98476912D01*
X65635000Y-98161033D01*
X65635000Y-97838967D01*
X65572168Y-97523088D01*
X65448918Y-97225537D01*
X65269987Y-96957748D01*
X65042252Y-96730013D01*
X64774463Y-96551082D01*
X64476912Y-96427832D01*
X64161033Y-96365000D01*
X63838967Y-96365000D01*
X63523088Y-96427832D01*
X63225537Y-96551082D01*
X62957748Y-96730013D01*
X62730013Y-96957748D01*
X62551082Y-97225537D01*
X62427832Y-97523088D01*
X62365000Y-97838967D01*
X62365000Y-98161033D01*
X62427832Y-98476912D01*
X62551082Y-98774463D01*
X62730013Y-99042252D01*
X62957748Y-99269987D01*
X62987700Y-99290000D01*
X60012300Y-99290000D01*
X60042252Y-99269987D01*
X60269987Y-99042252D01*
X60448918Y-98774463D01*
X60572168Y-98476912D01*
X60635000Y-98161033D01*
X60635000Y-97838967D01*
X60572168Y-97523088D01*
X60448918Y-97225537D01*
X60269987Y-96957748D01*
X60042252Y-96730013D01*
X59774463Y-96551082D01*
X59476912Y-96427832D01*
X59161033Y-96365000D01*
X58838967Y-96365000D01*
X58523088Y-96427832D01*
X58225537Y-96551082D01*
X57957748Y-96730013D01*
X57730013Y-96957748D01*
X57551082Y-97225537D01*
X57427832Y-97523088D01*
X57365000Y-97838967D01*
X57365000Y-98161033D01*
X57427832Y-98476912D01*
X57551082Y-98774463D01*
X57730013Y-99042252D01*
X57957748Y-99269987D01*
X57987700Y-99290000D01*
X55012300Y-99290000D01*
X55042252Y-99269987D01*
X55269987Y-99042252D01*
X55448918Y-98774463D01*
X55572168Y-98476912D01*
X55635000Y-98161033D01*
X55635000Y-97838967D01*
X55572168Y-97523088D01*
X55448918Y-97225537D01*
X55269987Y-96957748D01*
X55042252Y-96730013D01*
X54885000Y-96624941D01*
X54885000Y-91904495D01*
X66015000Y-91904495D01*
X66015000Y-92295505D01*
X66091282Y-92679003D01*
X66240915Y-93040250D01*
X66458149Y-93365364D01*
X66734636Y-93641851D01*
X67059750Y-93859085D01*
X67420997Y-94008718D01*
X67804495Y-94085000D01*
X68195505Y-94085000D01*
X68579003Y-94008718D01*
X68940250Y-93859085D01*
X69265364Y-93641851D01*
X69541851Y-93365364D01*
X69759085Y-93040250D01*
X69908718Y-92679003D01*
X69985000Y-92295505D01*
X69985000Y-91904495D01*
X69908718Y-91520997D01*
X69759085Y-91159750D01*
X69541851Y-90834636D01*
X69265364Y-90558149D01*
X68940250Y-90340915D01*
X68579003Y-90191282D01*
X68195505Y-90115000D01*
X67804495Y-90115000D01*
X67420997Y-90191282D01*
X67059750Y-90340915D01*
X66734636Y-90558149D01*
X66458149Y-90834636D01*
X66240915Y-91159750D01*
X66091282Y-91520997D01*
X66015000Y-91904495D01*
X54885000Y-91904495D01*
X54885000Y-79000000D01*
X65236324Y-79000000D01*
X65240001Y-79037332D01*
X65240000Y-85712677D01*
X65236324Y-85750000D01*
X65240000Y-85787322D01*
X65240000Y-85787332D01*
X65250997Y-85898985D01*
X65277491Y-85986324D01*
X65294454Y-86042246D01*
X65365026Y-86174276D01*
X65404871Y-86222826D01*
X65459999Y-86290001D01*
X65489002Y-86313804D01*
X66201847Y-87026649D01*
X66225932Y-87147729D01*
X66296414Y-87317889D01*
X66398738Y-87471028D01*
X66528972Y-87601262D01*
X66682111Y-87703586D01*
X66852271Y-87774068D01*
X67032911Y-87810000D01*
X67217089Y-87810000D01*
X67397729Y-87774068D01*
X67567889Y-87703586D01*
X67721028Y-87601262D01*
X67851262Y-87471028D01*
X67953586Y-87317889D01*
X68024068Y-87147729D01*
X68060000Y-86967089D01*
X68060000Y-86782911D01*
X68024068Y-86602271D01*
X67953586Y-86432111D01*
X67851262Y-86278972D01*
X67721028Y-86148738D01*
X67567889Y-86046414D01*
X67397729Y-85975932D01*
X67276649Y-85951847D01*
X66760000Y-85435199D01*
X66760000Y-79314801D01*
X67151649Y-78923153D01*
X67272729Y-78899068D01*
X67442889Y-78828586D01*
X67596028Y-78726262D01*
X67726262Y-78596028D01*
X67828586Y-78442889D01*
X67899068Y-78272729D01*
X67935000Y-78092089D01*
X67935000Y-77907911D01*
X67899068Y-77727271D01*
X67828586Y-77557111D01*
X67726262Y-77403972D01*
X67596028Y-77273738D01*
X67442889Y-77171414D01*
X67272729Y-77100932D01*
X67092089Y-77065000D01*
X66907911Y-77065000D01*
X66727271Y-77100932D01*
X66557111Y-77171414D01*
X66403972Y-77273738D01*
X66273738Y-77403972D01*
X66171414Y-77557111D01*
X66100932Y-77727271D01*
X66076847Y-77848351D01*
X65488998Y-78436201D01*
X65460000Y-78459999D01*
X65436202Y-78488997D01*
X65436201Y-78488998D01*
X65365026Y-78575724D01*
X65294454Y-78707754D01*
X65250998Y-78851015D01*
X65236324Y-79000000D01*
X54885000Y-79000000D01*
X54885000Y-78897467D01*
X54889281Y-78853998D01*
X54885000Y-78810529D01*
X54885000Y-78810521D01*
X54872195Y-78680508D01*
X54821589Y-78513685D01*
X54739411Y-78359939D01*
X54690219Y-78299999D01*
X54656532Y-78258951D01*
X54656530Y-78258949D01*
X54628817Y-78225181D01*
X54595050Y-78197469D01*
X52385000Y-75987420D01*
X52385000Y-73907911D01*
X71565000Y-73907911D01*
X71565000Y-74092089D01*
X71600932Y-74272729D01*
X71671414Y-74442889D01*
X71740001Y-74545537D01*
X71740000Y-87954465D01*
X71671414Y-88057111D01*
X71600932Y-88227271D01*
X71565000Y-88407911D01*
X71565000Y-88592089D01*
X71600932Y-88772729D01*
X71671414Y-88942889D01*
X71773738Y-89096028D01*
X71903972Y-89226262D01*
X72057111Y-89328586D01*
X72227271Y-89399068D01*
X72407911Y-89435000D01*
X72592089Y-89435000D01*
X72772729Y-89399068D01*
X72942889Y-89328586D01*
X73096028Y-89226262D01*
X73226262Y-89096028D01*
X73328586Y-88942889D01*
X73399068Y-88772729D01*
X73435000Y-88592089D01*
X73435000Y-88407911D01*
X73399068Y-88227271D01*
X73328586Y-88057111D01*
X73260000Y-87954465D01*
X73260000Y-74545535D01*
X73328586Y-74442889D01*
X73399068Y-74272729D01*
X73435000Y-74092089D01*
X73435000Y-73907911D01*
X73399068Y-73727271D01*
X73328586Y-73557111D01*
X73226262Y-73403972D01*
X73096028Y-73273738D01*
X72942889Y-73171414D01*
X72772729Y-73100932D01*
X72592089Y-73065000D01*
X72407911Y-73065000D01*
X72227271Y-73100932D01*
X72057111Y-73171414D01*
X71903972Y-73273738D01*
X71773738Y-73403972D01*
X71671414Y-73557111D01*
X71600932Y-73727271D01*
X71565000Y-73907911D01*
X52385000Y-73907911D01*
X52385000Y-72135413D01*
X53044192Y-72135413D01*
X53139956Y-72399814D01*
X53429571Y-72540704D01*
X53741108Y-72622384D01*
X54062595Y-72641718D01*
X54381675Y-72597961D01*
X54686088Y-72492795D01*
X54860044Y-72399814D01*
X54955808Y-72135413D01*
X54000000Y-71179605D01*
X53044192Y-72135413D01*
X52385000Y-72135413D01*
X52385000Y-71257425D01*
X52402039Y-71381675D01*
X52507205Y-71686088D01*
X52600186Y-71860044D01*
X52864587Y-71955808D01*
X53820395Y-71000000D01*
X54179605Y-71000000D01*
X55135413Y-71955808D01*
X55399814Y-71860044D01*
X55540704Y-71570429D01*
X55622384Y-71258892D01*
X55641718Y-70937405D01*
X55628219Y-70838967D01*
X57365000Y-70838967D01*
X57365000Y-71161033D01*
X57427832Y-71476912D01*
X57551082Y-71774463D01*
X57730013Y-72042252D01*
X57957748Y-72269987D01*
X58225537Y-72448918D01*
X58523088Y-72572168D01*
X58838967Y-72635000D01*
X59161033Y-72635000D01*
X59476912Y-72572168D01*
X59774463Y-72448918D01*
X60042252Y-72269987D01*
X60269987Y-72042252D01*
X60448918Y-71774463D01*
X60572168Y-71476912D01*
X60635000Y-71161033D01*
X60635000Y-70838967D01*
X62365000Y-70838967D01*
X62365000Y-71161033D01*
X62427832Y-71476912D01*
X62551082Y-71774463D01*
X62730013Y-72042252D01*
X62957748Y-72269987D01*
X63225537Y-72448918D01*
X63523088Y-72572168D01*
X63838967Y-72635000D01*
X64161033Y-72635000D01*
X64476912Y-72572168D01*
X64774463Y-72448918D01*
X65042252Y-72269987D01*
X65269987Y-72042252D01*
X65448918Y-71774463D01*
X65572168Y-71476912D01*
X65635000Y-71161033D01*
X65635000Y-70838967D01*
X65572168Y-70523088D01*
X65448918Y-70225537D01*
X65269987Y-69957748D01*
X65042252Y-69730013D01*
X64774463Y-69551082D01*
X64476912Y-69427832D01*
X64161033Y-69365000D01*
X63838967Y-69365000D01*
X63523088Y-69427832D01*
X63225537Y-69551082D01*
X62957748Y-69730013D01*
X62730013Y-69957748D01*
X62551082Y-70225537D01*
X62427832Y-70523088D01*
X62365000Y-70838967D01*
X60635000Y-70838967D01*
X60572168Y-70523088D01*
X60448918Y-70225537D01*
X60269987Y-69957748D01*
X60042252Y-69730013D01*
X59774463Y-69551082D01*
X59476912Y-69427832D01*
X59161033Y-69365000D01*
X58838967Y-69365000D01*
X58523088Y-69427832D01*
X58225537Y-69551082D01*
X57957748Y-69730013D01*
X57730013Y-69957748D01*
X57551082Y-70225537D01*
X57427832Y-70523088D01*
X57365000Y-70838967D01*
X55628219Y-70838967D01*
X55597961Y-70618325D01*
X55492795Y-70313912D01*
X55399814Y-70139956D01*
X55135413Y-70044192D01*
X54179605Y-71000000D01*
X53820395Y-71000000D01*
X52864587Y-70044192D01*
X52600186Y-70139956D01*
X52459296Y-70429571D01*
X52385000Y-70712945D01*
X52385000Y-69864587D01*
X53044192Y-69864587D01*
X54000000Y-70820395D01*
X54955808Y-69864587D01*
X54860044Y-69600186D01*
X54570429Y-69459296D01*
X54258892Y-69377616D01*
X53937405Y-69358282D01*
X53618325Y-69402039D01*
X53313912Y-69507205D01*
X53139956Y-69600186D01*
X53044192Y-69864587D01*
X52385000Y-69864587D01*
X52385000Y-61080000D01*
X53357319Y-61080000D01*
X53387970Y-61391204D01*
X53478745Y-61690449D01*
X53626155Y-61966235D01*
X53824537Y-62207963D01*
X54066265Y-62406345D01*
X54342051Y-62553755D01*
X54641296Y-62644530D01*
X54874514Y-62667500D01*
X55125486Y-62667500D01*
X55358704Y-62644530D01*
X55657949Y-62553755D01*
X55933735Y-62406345D01*
X56166888Y-62215000D01*
X60833112Y-62215000D01*
X61066265Y-62406345D01*
X61342051Y-62553755D01*
X61641296Y-62644530D01*
X61874514Y-62667500D01*
X62125486Y-62667500D01*
X62358704Y-62644530D01*
X62657949Y-62553755D01*
X62933735Y-62406345D01*
X63175463Y-62207963D01*
X63373845Y-61966235D01*
X63521255Y-61690449D01*
X63612030Y-61391204D01*
X63642681Y-61080000D01*
X63612030Y-60768796D01*
X63521255Y-60469551D01*
X63373845Y-60193765D01*
X63175463Y-59952037D01*
X63002391Y-59810000D01*
X63175463Y-59667963D01*
X63373845Y-59426235D01*
X63521255Y-59150449D01*
X63612030Y-58851204D01*
X63642681Y-58540000D01*
X63612030Y-58228796D01*
X63521255Y-57929551D01*
X63373845Y-57653765D01*
X63270554Y-57527905D01*
X63354494Y-57483037D01*
X63451185Y-57403685D01*
X63530537Y-57306994D01*
X63589502Y-57196680D01*
X63625812Y-57076982D01*
X63638072Y-56952500D01*
X63638072Y-56200000D01*
X66061928Y-56200000D01*
X66061928Y-57800000D01*
X66074188Y-57924482D01*
X66110498Y-58044180D01*
X66169463Y-58154494D01*
X66248815Y-58251185D01*
X66345506Y-58330537D01*
X66455820Y-58389502D01*
X66551943Y-58418661D01*
X66385363Y-58585241D01*
X66228320Y-58820273D01*
X66120147Y-59081426D01*
X66065000Y-59358665D01*
X66065000Y-59641335D01*
X66120147Y-59918574D01*
X66228320Y-60179727D01*
X66365001Y-60384285D01*
X66365000Y-64694248D01*
X66359509Y-64750000D01*
X66365000Y-64805751D01*
X66381423Y-64972498D01*
X66446324Y-65186446D01*
X66551716Y-65383623D01*
X66693551Y-65556449D01*
X66736865Y-65591996D01*
X74115001Y-72970133D01*
X74115000Y-77194248D01*
X74109509Y-77250000D01*
X74115000Y-77305751D01*
X74131423Y-77472498D01*
X74196324Y-77686446D01*
X74301716Y-77883623D01*
X74443551Y-78056449D01*
X74486865Y-78091996D01*
X77832980Y-81438112D01*
X77765000Y-81779872D01*
X77765000Y-82220128D01*
X77850890Y-82651925D01*
X78019369Y-83058669D01*
X78263962Y-83424729D01*
X78575271Y-83736038D01*
X78941331Y-83980631D01*
X79348075Y-84149110D01*
X79779872Y-84235000D01*
X80220128Y-84235000D01*
X80651925Y-84149110D01*
X81058669Y-83980631D01*
X81165001Y-83909582D01*
X81165002Y-84790418D01*
X81058669Y-84719369D01*
X80651925Y-84550890D01*
X80220128Y-84465000D01*
X79779872Y-84465000D01*
X79348075Y-84550890D01*
X78941331Y-84719369D01*
X78575271Y-84963962D01*
X78263962Y-85275271D01*
X78019369Y-85641331D01*
X77850890Y-86048075D01*
X77765000Y-86479872D01*
X77765000Y-86920128D01*
X77850890Y-87351925D01*
X78019369Y-87758669D01*
X78263962Y-88124729D01*
X78575271Y-88436038D01*
X78941331Y-88680631D01*
X79348075Y-88849110D01*
X79607222Y-88900658D01*
X79557111Y-88921414D01*
X79403972Y-89023738D01*
X79273738Y-89153972D01*
X79171414Y-89307111D01*
X79100932Y-89477271D01*
X79065000Y-89657911D01*
X79065000Y-89842089D01*
X79100932Y-90022729D01*
X79171414Y-90192889D01*
X79273738Y-90346028D01*
X79403972Y-90476262D01*
X79557111Y-90578586D01*
X79727271Y-90649068D01*
X79907911Y-90685000D01*
X80092089Y-90685000D01*
X80272729Y-90649068D01*
X80442889Y-90578586D01*
X80596028Y-90476262D01*
X80726262Y-90346028D01*
X80828586Y-90192889D01*
X80899068Y-90022729D01*
X80923153Y-89901648D01*
X82436004Y-88388798D01*
X82465002Y-88365000D01*
X82559975Y-88249275D01*
X82630547Y-88117246D01*
X82674004Y-87973985D01*
X82685001Y-87862332D01*
X82685001Y-87862322D01*
X82688677Y-87824999D01*
X82685001Y-87787676D01*
X82685001Y-81113324D01*
X82688677Y-81075999D01*
X82685001Y-81038674D01*
X82685001Y-81038666D01*
X82674004Y-80927013D01*
X82630547Y-80783752D01*
X82559975Y-80651723D01*
X82465002Y-80535998D01*
X82436005Y-80512201D01*
X81162806Y-79239003D01*
X81147989Y-79220949D01*
X81424729Y-79036038D01*
X81736038Y-78724729D01*
X81980631Y-78358669D01*
X82149110Y-77951925D01*
X82235000Y-77520128D01*
X82235000Y-77079872D01*
X82149110Y-76648075D01*
X81980631Y-76241331D01*
X81736038Y-75875271D01*
X81424729Y-75563962D01*
X81058669Y-75319369D01*
X80651925Y-75150890D01*
X80220128Y-75065000D01*
X79779872Y-75065000D01*
X79348075Y-75150890D01*
X78941331Y-75319369D01*
X78575271Y-75563962D01*
X78263962Y-75875271D01*
X78019369Y-76241331D01*
X77850890Y-76648075D01*
X77804930Y-76879131D01*
X77510000Y-76584201D01*
X77510000Y-72870585D01*
X77513676Y-72833260D01*
X77510000Y-72795935D01*
X77510000Y-72795927D01*
X77499003Y-72684274D01*
X77455546Y-72541013D01*
X77384974Y-72408984D01*
X77290001Y-72293259D01*
X77261004Y-72269462D01*
X74696037Y-69704495D01*
X80015000Y-69704495D01*
X80015000Y-70095505D01*
X80091282Y-70479003D01*
X80240915Y-70840250D01*
X80458149Y-71165364D01*
X80734636Y-71441851D01*
X81059750Y-71659085D01*
X81420997Y-71808718D01*
X81804495Y-71885000D01*
X82195505Y-71885000D01*
X82579003Y-71808718D01*
X82940250Y-71659085D01*
X83265364Y-71441851D01*
X83541851Y-71165364D01*
X83759085Y-70840250D01*
X83908718Y-70479003D01*
X83985000Y-70095505D01*
X83985000Y-69704495D01*
X83908718Y-69320997D01*
X83759085Y-68959750D01*
X83541851Y-68634636D01*
X83265364Y-68358149D01*
X82940250Y-68140915D01*
X82579003Y-67991282D01*
X82195505Y-67915000D01*
X81804495Y-67915000D01*
X81420997Y-67991282D01*
X81059750Y-68140915D01*
X80734636Y-68358149D01*
X80458149Y-68634636D01*
X80240915Y-68959750D01*
X80091282Y-69320997D01*
X80015000Y-69704495D01*
X74696037Y-69704495D01*
X73079331Y-68087790D01*
X73227271Y-68149068D01*
X73407911Y-68185000D01*
X73592089Y-68185000D01*
X73772729Y-68149068D01*
X73942889Y-68078586D01*
X74045535Y-68010000D01*
X78954465Y-68010000D01*
X79057111Y-68078586D01*
X79227271Y-68149068D01*
X79407911Y-68185000D01*
X79592089Y-68185000D01*
X79772729Y-68149068D01*
X79942889Y-68078586D01*
X80096028Y-67976262D01*
X80226262Y-67846028D01*
X80328586Y-67692889D01*
X80399068Y-67522729D01*
X80435000Y-67342089D01*
X80435000Y-67157911D01*
X80399068Y-66977271D01*
X80328586Y-66807111D01*
X80226262Y-66653972D01*
X80096028Y-66523738D01*
X79942889Y-66421414D01*
X79772729Y-66350932D01*
X79592089Y-66315000D01*
X79407911Y-66315000D01*
X79227271Y-66350932D01*
X79057111Y-66421414D01*
X78954465Y-66490000D01*
X74045535Y-66490000D01*
X73942889Y-66421414D01*
X73772729Y-66350932D01*
X73592089Y-66315000D01*
X73407911Y-66315000D01*
X73227271Y-66350932D01*
X73057111Y-66421414D01*
X72903972Y-66523738D01*
X72773738Y-66653972D01*
X72671414Y-66807111D01*
X72600932Y-66977271D01*
X72565000Y-67157911D01*
X72565000Y-67342089D01*
X72600932Y-67522729D01*
X72662210Y-67670669D01*
X71260000Y-66268459D01*
X71260000Y-65795535D01*
X71328586Y-65692889D01*
X71399068Y-65522729D01*
X71435000Y-65342089D01*
X71435000Y-65157911D01*
X71399068Y-64977271D01*
X71328586Y-64807111D01*
X71226262Y-64653972D01*
X71096028Y-64523738D01*
X70942889Y-64421414D01*
X70772729Y-64350932D01*
X70592089Y-64315000D01*
X70407911Y-64315000D01*
X70227271Y-64350932D01*
X70057111Y-64421414D01*
X69903972Y-64523738D01*
X69773738Y-64653972D01*
X69671414Y-64807111D01*
X69600932Y-64977271D01*
X69565000Y-65157911D01*
X69565000Y-65209869D01*
X68635000Y-64279869D01*
X68635000Y-60384284D01*
X68771680Y-60179727D01*
X68879853Y-59918574D01*
X68935000Y-59641335D01*
X68935000Y-59358665D01*
X68879853Y-59081426D01*
X68771680Y-58820273D01*
X68614637Y-58585241D01*
X68448057Y-58418661D01*
X68544180Y-58389502D01*
X68654494Y-58330537D01*
X68751185Y-58251185D01*
X68830537Y-58154494D01*
X68889502Y-58044180D01*
X68925812Y-57924482D01*
X68938072Y-57800000D01*
X68938072Y-56400000D01*
X72261928Y-56400000D01*
X72261928Y-58600000D01*
X72274188Y-58724482D01*
X72310498Y-58844180D01*
X72369463Y-58954494D01*
X72448815Y-59051185D01*
X72545506Y-59130537D01*
X72655820Y-59189502D01*
X72775518Y-59225812D01*
X72900000Y-59238072D01*
X75100000Y-59238072D01*
X75224482Y-59225812D01*
X75344180Y-59189502D01*
X75454494Y-59130537D01*
X75551185Y-59051185D01*
X75630537Y-58954494D01*
X75689502Y-58844180D01*
X75725812Y-58724482D01*
X75738072Y-58600000D01*
X75738072Y-56400000D01*
X75725812Y-56275518D01*
X75689502Y-56155820D01*
X75630537Y-56045506D01*
X75551185Y-55948815D01*
X75454494Y-55869463D01*
X75344180Y-55810498D01*
X75224482Y-55774188D01*
X75100000Y-55761928D01*
X72900000Y-55761928D01*
X72775518Y-55774188D01*
X72655820Y-55810498D01*
X72545506Y-55869463D01*
X72448815Y-55948815D01*
X72369463Y-56045506D01*
X72310498Y-56155820D01*
X72274188Y-56275518D01*
X72261928Y-56400000D01*
X68938072Y-56400000D01*
X68938072Y-56200000D01*
X68925812Y-56075518D01*
X68889502Y-55955820D01*
X68830537Y-55845506D01*
X68751185Y-55748815D01*
X68654494Y-55669463D01*
X68544180Y-55610498D01*
X68424482Y-55574188D01*
X68300000Y-55561928D01*
X66700000Y-55561928D01*
X66575518Y-55574188D01*
X66455820Y-55610498D01*
X66345506Y-55669463D01*
X66248815Y-55748815D01*
X66169463Y-55845506D01*
X66110498Y-55955820D01*
X66074188Y-56075518D01*
X66061928Y-56200000D01*
X63638072Y-56200000D01*
X63638072Y-55047500D01*
X63625812Y-54923018D01*
X63589502Y-54803320D01*
X63530537Y-54693006D01*
X63451185Y-54596315D01*
X63354494Y-54516963D01*
X63244180Y-54457998D01*
X63124482Y-54421688D01*
X63000000Y-54409428D01*
X61000000Y-54409428D01*
X60875518Y-54421688D01*
X60755820Y-54457998D01*
X60645506Y-54516963D01*
X60548815Y-54596315D01*
X60469463Y-54693006D01*
X60410498Y-54803320D01*
X60374188Y-54923018D01*
X60361928Y-55047500D01*
X60361928Y-56952500D01*
X60374188Y-57076982D01*
X60410498Y-57196680D01*
X60469463Y-57306994D01*
X60548815Y-57403685D01*
X60645506Y-57483037D01*
X60729446Y-57527905D01*
X60626155Y-57653765D01*
X60478745Y-57929551D01*
X60387970Y-58228796D01*
X60357319Y-58540000D01*
X60387970Y-58851204D01*
X60478745Y-59150449D01*
X60626155Y-59426235D01*
X60824537Y-59667963D01*
X60997609Y-59810000D01*
X60833112Y-59945000D01*
X56166888Y-59945000D01*
X55996101Y-59804837D01*
X56181315Y-59649437D01*
X56375969Y-59406923D01*
X56519571Y-59131094D01*
X56590563Y-58912980D01*
X56470594Y-58667000D01*
X55127000Y-58667000D01*
X55127000Y-58687000D01*
X54873000Y-58687000D01*
X54873000Y-58667000D01*
X53529406Y-58667000D01*
X53409437Y-58912980D01*
X53480429Y-59131094D01*
X53624031Y-59406923D01*
X53818685Y-59649437D01*
X54003899Y-59804837D01*
X53824537Y-59952037D01*
X53626155Y-60193765D01*
X53478745Y-60469551D01*
X53387970Y-60768796D01*
X53357319Y-61080000D01*
X52385000Y-61080000D01*
X52385000Y-55866578D01*
X53394056Y-54857523D01*
X53374188Y-54923018D01*
X53361928Y-55047500D01*
X53361928Y-56952500D01*
X53374188Y-57076982D01*
X53410498Y-57196680D01*
X53469463Y-57306994D01*
X53548815Y-57403685D01*
X53645506Y-57483037D01*
X53737219Y-57532059D01*
X53624031Y-57673077D01*
X53480429Y-57948906D01*
X53409437Y-58167020D01*
X53529406Y-58413000D01*
X54873000Y-58413000D01*
X54873000Y-58393000D01*
X55127000Y-58393000D01*
X55127000Y-58413000D01*
X56470594Y-58413000D01*
X56590563Y-58167020D01*
X56519571Y-57948906D01*
X56375969Y-57673077D01*
X56262781Y-57532059D01*
X56354494Y-57483037D01*
X56451185Y-57403685D01*
X56530537Y-57306994D01*
X56589502Y-57196680D01*
X56625812Y-57076982D01*
X56638072Y-56952500D01*
X56638072Y-55047500D01*
X56625812Y-54923018D01*
X56589502Y-54803320D01*
X56530537Y-54693006D01*
X56451185Y-54596315D01*
X56354494Y-54516963D01*
X56244180Y-54457998D01*
X56124482Y-54421688D01*
X56000000Y-54409428D01*
X54000000Y-54409428D01*
X53875518Y-54421688D01*
X53810023Y-54441556D01*
X54366579Y-53885000D01*
X55194029Y-53885000D01*
X55237498Y-53889281D01*
X55280967Y-53885000D01*
X55280975Y-53885000D01*
X55410988Y-53872195D01*
X55533605Y-53834999D01*
X78090418Y-53834999D01*
X78019369Y-53941331D01*
X77850890Y-54348075D01*
X77765000Y-54779872D01*
X77765000Y-55220128D01*
X77850890Y-55651925D01*
X78019369Y-56058669D01*
X78263962Y-56424729D01*
X78575271Y-56736038D01*
X78941331Y-56980631D01*
X79348075Y-57149110D01*
X79779872Y-57235000D01*
X80220128Y-57235000D01*
X80651925Y-57149110D01*
X81058669Y-56980631D01*
X81424729Y-56736038D01*
X81736038Y-56424729D01*
X81980631Y-56058669D01*
X82149110Y-55651925D01*
X82235000Y-55220128D01*
X82235000Y-54843891D01*
X85875000Y-54843891D01*
X85875000Y-55156109D01*
X85935911Y-55462327D01*
X86055391Y-55750779D01*
X86228850Y-56010379D01*
X86449621Y-56231150D01*
X86709221Y-56404609D01*
X86997673Y-56524089D01*
X87303891Y-56585000D01*
X87616109Y-56585000D01*
X87922327Y-56524089D01*
X88210779Y-56404609D01*
X88458877Y-56238836D01*
X88460498Y-56244180D01*
X88519463Y-56354494D01*
X88598815Y-56451185D01*
X88695506Y-56530537D01*
X88805820Y-56589502D01*
X88925518Y-56625812D01*
X89050000Y-56638072D01*
X89714250Y-56635000D01*
X89873000Y-56476250D01*
X89873000Y-55127000D01*
X90127000Y-55127000D01*
X90127000Y-56476250D01*
X90285750Y-56635000D01*
X90950000Y-56638072D01*
X91074482Y-56625812D01*
X91194180Y-56589502D01*
X91304494Y-56530537D01*
X91341512Y-56500157D01*
X102179762Y-56500157D01*
X103000000Y-57320395D01*
X103820238Y-56500157D01*
X103747444Y-56255168D01*
X103490227Y-56133267D01*
X103214171Y-56063890D01*
X102929885Y-56049702D01*
X102648294Y-56091248D01*
X102380217Y-56186932D01*
X102252556Y-56255168D01*
X102179762Y-56500157D01*
X91341512Y-56500157D01*
X91401185Y-56451185D01*
X91480537Y-56354494D01*
X91539502Y-56244180D01*
X91575812Y-56124482D01*
X91588072Y-56000000D01*
X91588072Y-55999843D01*
X97179762Y-55999843D01*
X97252556Y-56244832D01*
X97509773Y-56366733D01*
X97785829Y-56436110D01*
X98070115Y-56450298D01*
X98351706Y-56408752D01*
X98619783Y-56313068D01*
X98747444Y-56244832D01*
X98820238Y-55999843D01*
X98000000Y-55179605D01*
X97179762Y-55999843D01*
X91588072Y-55999843D01*
X91585000Y-55285750D01*
X91426250Y-55127000D01*
X90127000Y-55127000D01*
X89873000Y-55127000D01*
X89853000Y-55127000D01*
X89853000Y-55070115D01*
X96549702Y-55070115D01*
X96591248Y-55351706D01*
X96686932Y-55619783D01*
X96755168Y-55747444D01*
X97000157Y-55820238D01*
X97820395Y-55000000D01*
X98179605Y-55000000D01*
X98999843Y-55820238D01*
X99244832Y-55747444D01*
X99366733Y-55490227D01*
X99436110Y-55214171D01*
X99450298Y-54929885D01*
X99408752Y-54648294D01*
X99313068Y-54380217D01*
X99244832Y-54252556D01*
X98999843Y-54179762D01*
X98179605Y-55000000D01*
X97820395Y-55000000D01*
X97000157Y-54179762D01*
X96755168Y-54252556D01*
X96633267Y-54509773D01*
X96563890Y-54785829D01*
X96549702Y-55070115D01*
X89853000Y-55070115D01*
X89853000Y-54873000D01*
X89873000Y-54873000D01*
X89873000Y-53523750D01*
X90127000Y-53523750D01*
X90127000Y-54873000D01*
X91426250Y-54873000D01*
X91585000Y-54714250D01*
X91588071Y-54000157D01*
X97179762Y-54000157D01*
X98000000Y-54820395D01*
X98820238Y-54000157D01*
X98747444Y-53755168D01*
X98490227Y-53633267D01*
X98214171Y-53563890D01*
X97929885Y-53549702D01*
X97648294Y-53591248D01*
X97380217Y-53686932D01*
X97252556Y-53755168D01*
X97179762Y-54000157D01*
X91588071Y-54000157D01*
X91588072Y-54000000D01*
X91575812Y-53875518D01*
X91539502Y-53755820D01*
X91480537Y-53645506D01*
X91401185Y-53548815D01*
X91304494Y-53469463D01*
X91194180Y-53410498D01*
X91074482Y-53374188D01*
X90950000Y-53361928D01*
X90285750Y-53365000D01*
X90127000Y-53523750D01*
X89873000Y-53523750D01*
X89714250Y-53365000D01*
X89050000Y-53361928D01*
X88925518Y-53374188D01*
X88805820Y-53410498D01*
X88695506Y-53469463D01*
X88598815Y-53548815D01*
X88519463Y-53645506D01*
X88460498Y-53755820D01*
X88458877Y-53761164D01*
X88210779Y-53595391D01*
X87922327Y-53475911D01*
X87616109Y-53415000D01*
X87303891Y-53415000D01*
X86997673Y-53475911D01*
X86709221Y-53595391D01*
X86449621Y-53768850D01*
X86228850Y-53989621D01*
X86055391Y-54249221D01*
X85935911Y-54537673D01*
X85875000Y-54843891D01*
X82235000Y-54843891D01*
X82235000Y-54779872D01*
X82149110Y-54348075D01*
X81980631Y-53941331D01*
X81736038Y-53575271D01*
X81424729Y-53263962D01*
X81362919Y-53222662D01*
X81960582Y-52624999D01*
X101373421Y-52624999D01*
X108065002Y-59316581D01*
X108065002Y-59316581D01*
G37*
X108065002Y-59316581D02*
X108065002Y-72740418D01*
X107958669Y-72669369D01*
X107551925Y-72500890D01*
X107120128Y-72415000D01*
X106825225Y-72415000D01*
X107042252Y-72269987D01*
X107269987Y-72042252D01*
X107448918Y-71774463D01*
X107572168Y-71476912D01*
X107635000Y-71161033D01*
X107635000Y-70838967D01*
X107572168Y-70523088D01*
X107448918Y-70225537D01*
X107269987Y-69957748D01*
X107042252Y-69730013D01*
X106774463Y-69551082D01*
X106476912Y-69427832D01*
X106161033Y-69365000D01*
X105838967Y-69365000D01*
X105523088Y-69427832D01*
X105225537Y-69551082D01*
X104957748Y-69730013D01*
X104730013Y-69957748D01*
X104551082Y-70225537D01*
X104427832Y-70523088D01*
X104365000Y-70838967D01*
X104365000Y-71161033D01*
X104427832Y-71476912D01*
X104551082Y-71774463D01*
X104730013Y-72042252D01*
X104957748Y-72269987D01*
X105225537Y-72448918D01*
X105523088Y-72572168D01*
X105838967Y-72635000D01*
X105924305Y-72635000D01*
X105841331Y-72669369D01*
X105475271Y-72913962D01*
X105163962Y-73225271D01*
X104919369Y-73591331D01*
X104750890Y-73998075D01*
X104665000Y-74429872D01*
X104665000Y-74870128D01*
X104732980Y-75211888D01*
X99736862Y-80208007D01*
X99736856Y-80208012D01*
X91736860Y-88208009D01*
X91693552Y-88243551D01*
X91551717Y-88416377D01*
X91541208Y-88436038D01*
X91446324Y-88613554D01*
X91381423Y-88827502D01*
X91359509Y-89050000D01*
X91365001Y-89105761D01*
X91365000Y-91569868D01*
X89997864Y-92937004D01*
X90065009Y-92836515D01*
X90198134Y-92515123D01*
X90266000Y-92173936D01*
X90266000Y-91826064D01*
X90198134Y-91484877D01*
X90065009Y-91163485D01*
X89871742Y-90874241D01*
X89625759Y-90628258D01*
X89336515Y-90434991D01*
X89015123Y-90301866D01*
X88673936Y-90234000D01*
X88326064Y-90234000D01*
X87984877Y-90301866D01*
X87663485Y-90434991D01*
X87374241Y-90628258D01*
X87128258Y-90874241D01*
X86934991Y-91163485D01*
X86801866Y-91484877D01*
X86734000Y-91826064D01*
X86734000Y-92173936D01*
X86801866Y-92515123D01*
X86934991Y-92836515D01*
X87128258Y-93125759D01*
X87374241Y-93371742D01*
X87663485Y-93565009D01*
X87984877Y-93698134D01*
X88326064Y-93766000D01*
X88673936Y-93766000D01*
X89015123Y-93698134D01*
X89336515Y-93565009D01*
X89437004Y-93497864D01*
X86414714Y-96520155D01*
X86248889Y-96536487D01*
X85968966Y-96621401D01*
X85710986Y-96759294D01*
X85484866Y-96944866D01*
X85299294Y-97170986D01*
X85270000Y-97225791D01*
X85240706Y-97170986D01*
X85135000Y-97042183D01*
X85135000Y-74970131D01*
X86263140Y-73841992D01*
X86306449Y-73806449D01*
X86448284Y-73633623D01*
X86553676Y-73436447D01*
X86618577Y-73222499D01*
X86635000Y-73055752D01*
X86635000Y-73055743D01*
X86640490Y-73000001D01*
X86635000Y-72944259D01*
X86635000Y-70838967D01*
X94365000Y-70838967D01*
X94365000Y-71161033D01*
X94427832Y-71476912D01*
X94551082Y-71774463D01*
X94730013Y-72042252D01*
X94957748Y-72269987D01*
X95225537Y-72448918D01*
X95523088Y-72572168D01*
X95838967Y-72635000D01*
X96161033Y-72635000D01*
X96476912Y-72572168D01*
X96774463Y-72448918D01*
X97042252Y-72269987D01*
X97269987Y-72042252D01*
X97448918Y-71774463D01*
X97572168Y-71476912D01*
X97635000Y-71161033D01*
X97635000Y-70838967D01*
X99365000Y-70838967D01*
X99365000Y-71161033D01*
X99427832Y-71476912D01*
X99551082Y-71774463D01*
X99730013Y-72042252D01*
X99957748Y-72269987D01*
X100225537Y-72448918D01*
X100523088Y-72572168D01*
X100838967Y-72635000D01*
X101161033Y-72635000D01*
X101476912Y-72572168D01*
X101774463Y-72448918D01*
X102042252Y-72269987D01*
X102269987Y-72042252D01*
X102448918Y-71774463D01*
X102572168Y-71476912D01*
X102635000Y-71161033D01*
X102635000Y-70838967D01*
X102572168Y-70523088D01*
X102448918Y-70225537D01*
X102269987Y-69957748D01*
X102042252Y-69730013D01*
X101774463Y-69551082D01*
X101476912Y-69427832D01*
X101161033Y-69365000D01*
X100838967Y-69365000D01*
X100523088Y-69427832D01*
X100225537Y-69551082D01*
X99957748Y-69730013D01*
X99730013Y-69957748D01*
X99551082Y-70225537D01*
X99427832Y-70523088D01*
X99365000Y-70838967D01*
X97635000Y-70838967D01*
X97572168Y-70523088D01*
X97448918Y-70225537D01*
X97269987Y-69957748D01*
X97042252Y-69730013D01*
X96774463Y-69551082D01*
X96476912Y-69427832D01*
X96161033Y-69365000D01*
X95838967Y-69365000D01*
X95523088Y-69427832D01*
X95225537Y-69551082D01*
X94957748Y-69730013D01*
X94730013Y-69957748D01*
X94551082Y-70225537D01*
X94427832Y-70523088D01*
X94365000Y-70838967D01*
X86635000Y-70838967D01*
X86635000Y-65255752D01*
X86637653Y-65228807D01*
X87450798Y-65228807D01*
X87562369Y-65506605D01*
X87874309Y-65660579D01*
X88210294Y-65750737D01*
X88557413Y-65773616D01*
X88902325Y-65728336D01*
X89231776Y-65616637D01*
X89437631Y-65506605D01*
X89549202Y-65228807D01*
X88500000Y-64179605D01*
X87450798Y-65228807D01*
X86637653Y-65228807D01*
X86640491Y-65200000D01*
X86618577Y-64977501D01*
X86553676Y-64763553D01*
X86448284Y-64566377D01*
X86341989Y-64436856D01*
X86341987Y-64436854D01*
X86306449Y-64393551D01*
X86263146Y-64358013D01*
X85962546Y-64057413D01*
X86726384Y-64057413D01*
X86771664Y-64402325D01*
X86883363Y-64731776D01*
X86993395Y-64937631D01*
X87271193Y-65049202D01*
X88320395Y-64000000D01*
X88679605Y-64000000D01*
X89728807Y-65049202D01*
X90006605Y-64937631D01*
X90160579Y-64625691D01*
X90250737Y-64289706D01*
X90273616Y-63942587D01*
X90228336Y-63597675D01*
X90116637Y-63268224D01*
X90006605Y-63062369D01*
X89728807Y-62950798D01*
X88679605Y-64000000D01*
X88320395Y-64000000D01*
X87271193Y-62950798D01*
X86993395Y-63062369D01*
X86839421Y-63374309D01*
X86749263Y-63710294D01*
X86726384Y-64057413D01*
X85962546Y-64057413D01*
X84676326Y-62771193D01*
X87450798Y-62771193D01*
X88500000Y-63820395D01*
X89549202Y-62771193D01*
X89437631Y-62493395D01*
X89125691Y-62339421D01*
X88789706Y-62249263D01*
X88442587Y-62226384D01*
X88097675Y-62271664D01*
X87768224Y-62383363D01*
X87562369Y-62493395D01*
X87450798Y-62771193D01*
X84676326Y-62771193D01*
X82167020Y-60261888D01*
X82235000Y-59920128D01*
X82235000Y-59857680D01*
X96555000Y-59857680D01*
X96555000Y-60142320D01*
X96610530Y-60421491D01*
X96719457Y-60684464D01*
X96877595Y-60921134D01*
X97078866Y-61122405D01*
X97315536Y-61280543D01*
X97578509Y-61389470D01*
X97857680Y-61445000D01*
X98142320Y-61445000D01*
X98421491Y-61389470D01*
X98684464Y-61280543D01*
X98921134Y-61122405D01*
X99122405Y-60921134D01*
X99280543Y-60684464D01*
X99389470Y-60421491D01*
X99445000Y-60142320D01*
X99445000Y-59857680D01*
X99389470Y-59578509D01*
X99280543Y-59315536D01*
X99122405Y-59078866D01*
X98921134Y-58877595D01*
X98684464Y-58719457D01*
X98421491Y-58610530D01*
X98142320Y-58555000D01*
X97857680Y-58555000D01*
X97578509Y-58610530D01*
X97315536Y-58719457D01*
X97078866Y-58877595D01*
X96877595Y-59078866D01*
X96719457Y-59315536D01*
X96610530Y-59578509D01*
X96555000Y-59857680D01*
X82235000Y-59857680D01*
X82235000Y-59479872D01*
X82149110Y-59048075D01*
X81980631Y-58641331D01*
X81886092Y-58499843D01*
X102179762Y-58499843D01*
X102252556Y-58744832D01*
X102509773Y-58866733D01*
X102785829Y-58936110D01*
X103070115Y-58950298D01*
X103351706Y-58908752D01*
X103619783Y-58813068D01*
X103747444Y-58744832D01*
X103820238Y-58499843D01*
X103000000Y-57679605D01*
X102179762Y-58499843D01*
X81886092Y-58499843D01*
X81736038Y-58275271D01*
X81424729Y-57963962D01*
X81058669Y-57719369D01*
X80698339Y-57570115D01*
X101549702Y-57570115D01*
X101591248Y-57851706D01*
X101686932Y-58119783D01*
X101755168Y-58247444D01*
X102000157Y-58320238D01*
X102820395Y-57500000D01*
X103179605Y-57500000D01*
X103999843Y-58320238D01*
X104244832Y-58247444D01*
X104366733Y-57990227D01*
X104436110Y-57714171D01*
X104450298Y-57429885D01*
X104408752Y-57148294D01*
X104313068Y-56880217D01*
X104244832Y-56752556D01*
X103999843Y-56679762D01*
X103179605Y-57500000D01*
X102820395Y-57500000D01*
X102000157Y-56679762D01*
X101755168Y-56752556D01*
X101633267Y-57009773D01*
X101563890Y-57285829D01*
X101549702Y-57570115D01*
X80698339Y-57570115D01*
X80651925Y-57550890D01*
X80220128Y-57465000D01*
X79779872Y-57465000D01*
X79348075Y-57550890D01*
X78941331Y-57719369D01*
X78575271Y-57963962D01*
X78263962Y-58275271D01*
X78019369Y-58641331D01*
X77850890Y-59048075D01*
X77765000Y-59479872D01*
X77765000Y-59920128D01*
X77850890Y-60351925D01*
X78019369Y-60758669D01*
X78263962Y-61124729D01*
X78575271Y-61436038D01*
X78941331Y-61680631D01*
X79348075Y-61849110D01*
X79779872Y-61935000D01*
X80220128Y-61935000D01*
X80561888Y-61867020D01*
X84365001Y-65670134D01*
X84365000Y-72529868D01*
X83236860Y-73658009D01*
X83193552Y-73693551D01*
X83051717Y-73866377D01*
X83029517Y-73907911D01*
X82946324Y-74063554D01*
X82881423Y-74277502D01*
X82859509Y-74500000D01*
X82865001Y-74555762D01*
X82865000Y-96841272D01*
X82840537Y-96795506D01*
X82761185Y-96698815D01*
X82664494Y-96619463D01*
X82554180Y-96560498D01*
X82434482Y-96524188D01*
X82310000Y-96511928D01*
X81745750Y-96515000D01*
X81587000Y-96673750D01*
X81587000Y-97873000D01*
X81607000Y-97873000D01*
X81607000Y-98127000D01*
X81587000Y-98127000D01*
X81587000Y-98147000D01*
X81333000Y-98147000D01*
X81333000Y-98127000D01*
X81313000Y-98127000D01*
X81313000Y-97873000D01*
X81333000Y-97873000D01*
X81333000Y-96673750D01*
X81174250Y-96515000D01*
X80610000Y-96511928D01*
X80485518Y-96524188D01*
X80365820Y-96560498D01*
X80255506Y-96619463D01*
X80158815Y-96698815D01*
X80079463Y-96795506D01*
X80020498Y-96905820D01*
X79984188Y-97025518D01*
X79971928Y-97150000D01*
X79974449Y-97613079D01*
X79918599Y-97428966D01*
X79780706Y-97170986D01*
X79595134Y-96944866D01*
X79369014Y-96759294D01*
X79111034Y-96621401D01*
X78831111Y-96536487D01*
X78612950Y-96515000D01*
X78467050Y-96515000D01*
X78248889Y-96536487D01*
X77968966Y-96621401D01*
X77710986Y-96759294D01*
X77484866Y-96944866D01*
X77460393Y-96974687D01*
X77439502Y-96905820D01*
X77380537Y-96795506D01*
X77301185Y-96698815D01*
X77204494Y-96619463D01*
X77094180Y-96560498D01*
X76974482Y-96524188D01*
X76850000Y-96511928D01*
X76285750Y-96515000D01*
X76127000Y-96673750D01*
X76127000Y-97873000D01*
X76147000Y-97873000D01*
X76147000Y-98127000D01*
X76127000Y-98127000D01*
X76127000Y-98147000D01*
X75873000Y-98147000D01*
X75873000Y-98127000D01*
X74673750Y-98127000D01*
X74515000Y-98285750D01*
X74514683Y-98343940D01*
X74400814Y-98127000D01*
X73207000Y-98127000D01*
X73207000Y-98147000D01*
X72953000Y-98147000D01*
X72953000Y-98127000D01*
X72933000Y-98127000D01*
X72933000Y-97873000D01*
X72953000Y-97873000D01*
X72953000Y-96679845D01*
X73207000Y-96679845D01*
X73207000Y-97873000D01*
X74400814Y-97873000D01*
X74514683Y-97656060D01*
X74515000Y-97714250D01*
X74673750Y-97873000D01*
X75873000Y-97873000D01*
X75873000Y-96673750D01*
X75714250Y-96515000D01*
X75150000Y-96511928D01*
X75025518Y-96524188D01*
X74905820Y-96560498D01*
X74795506Y-96619463D01*
X74698815Y-96698815D01*
X74619463Y-96795506D01*
X74560498Y-96905820D01*
X74524188Y-97025518D01*
X74511928Y-97150000D01*
X74514506Y-97623445D01*
X74424157Y-97368748D01*
X74275178Y-97118645D01*
X74080269Y-96902412D01*
X73846920Y-96728359D01*
X73584099Y-96603175D01*
X73436890Y-96558524D01*
X73207000Y-96679845D01*
X72953000Y-96679845D01*
X72723110Y-96558524D01*
X72575901Y-96603175D01*
X72313080Y-96728359D01*
X72079731Y-96902412D01*
X71884822Y-97118645D01*
X71815201Y-97235523D01*
X71780706Y-97170986D01*
X71595134Y-96944866D01*
X71369014Y-96759294D01*
X71111034Y-96621401D01*
X70831111Y-96536487D01*
X70612950Y-96515000D01*
X70467050Y-96515000D01*
X70248889Y-96536487D01*
X69968966Y-96621401D01*
X69710986Y-96759294D01*
X69484866Y-96944866D01*
X69460393Y-96974687D01*
X69439502Y-96905820D01*
X69380537Y-96795506D01*
X69301185Y-96698815D01*
X69204494Y-96619463D01*
X69094180Y-96560498D01*
X68974482Y-96524188D01*
X68850000Y-96511928D01*
X67150000Y-96511928D01*
X67025518Y-96524188D01*
X66905820Y-96560498D01*
X66795506Y-96619463D01*
X66698815Y-96698815D01*
X66619463Y-96795506D01*
X66560498Y-96905820D01*
X66524188Y-97025518D01*
X66511928Y-97150000D01*
X66511928Y-98850000D01*
X66524188Y-98974482D01*
X66560498Y-99094180D01*
X66619463Y-99204494D01*
X66689636Y-99290000D01*
X65012300Y-99290000D01*
X65042252Y-99269987D01*
X65269987Y-99042252D01*
X65448918Y-98774463D01*
X65572168Y-98476912D01*
X65635000Y-98161033D01*
X65635000Y-97838967D01*
X65572168Y-97523088D01*
X65448918Y-97225537D01*
X65269987Y-96957748D01*
X65042252Y-96730013D01*
X64774463Y-96551082D01*
X64476912Y-96427832D01*
X64161033Y-96365000D01*
X63838967Y-96365000D01*
X63523088Y-96427832D01*
X63225537Y-96551082D01*
X62957748Y-96730013D01*
X62730013Y-96957748D01*
X62551082Y-97225537D01*
X62427832Y-97523088D01*
X62365000Y-97838967D01*
X62365000Y-98161033D01*
X62427832Y-98476912D01*
X62551082Y-98774463D01*
X62730013Y-99042252D01*
X62957748Y-99269987D01*
X62987700Y-99290000D01*
X60012300Y-99290000D01*
X60042252Y-99269987D01*
X60269987Y-99042252D01*
X60448918Y-98774463D01*
X60572168Y-98476912D01*
X60635000Y-98161033D01*
X60635000Y-97838967D01*
X60572168Y-97523088D01*
X60448918Y-97225537D01*
X60269987Y-96957748D01*
X60042252Y-96730013D01*
X59774463Y-96551082D01*
X59476912Y-96427832D01*
X59161033Y-96365000D01*
X58838967Y-96365000D01*
X58523088Y-96427832D01*
X58225537Y-96551082D01*
X57957748Y-96730013D01*
X57730013Y-96957748D01*
X57551082Y-97225537D01*
X57427832Y-97523088D01*
X57365000Y-97838967D01*
X57365000Y-98161033D01*
X57427832Y-98476912D01*
X57551082Y-98774463D01*
X57730013Y-99042252D01*
X57957748Y-99269987D01*
X57987700Y-99290000D01*
X55012300Y-99290000D01*
X55042252Y-99269987D01*
X55269987Y-99042252D01*
X55448918Y-98774463D01*
X55572168Y-98476912D01*
X55635000Y-98161033D01*
X55635000Y-97838967D01*
X55572168Y-97523088D01*
X55448918Y-97225537D01*
X55269987Y-96957748D01*
X55042252Y-96730013D01*
X54885000Y-96624941D01*
X54885000Y-91904495D01*
X66015000Y-91904495D01*
X66015000Y-92295505D01*
X66091282Y-92679003D01*
X66240915Y-93040250D01*
X66458149Y-93365364D01*
X66734636Y-93641851D01*
X67059750Y-93859085D01*
X67420997Y-94008718D01*
X67804495Y-94085000D01*
X68195505Y-94085000D01*
X68579003Y-94008718D01*
X68940250Y-93859085D01*
X69265364Y-93641851D01*
X69541851Y-93365364D01*
X69759085Y-93040250D01*
X69908718Y-92679003D01*
X69985000Y-92295505D01*
X69985000Y-91904495D01*
X69908718Y-91520997D01*
X69759085Y-91159750D01*
X69541851Y-90834636D01*
X69265364Y-90558149D01*
X68940250Y-90340915D01*
X68579003Y-90191282D01*
X68195505Y-90115000D01*
X67804495Y-90115000D01*
X67420997Y-90191282D01*
X67059750Y-90340915D01*
X66734636Y-90558149D01*
X66458149Y-90834636D01*
X66240915Y-91159750D01*
X66091282Y-91520997D01*
X66015000Y-91904495D01*
X54885000Y-91904495D01*
X54885000Y-79000000D01*
X65236324Y-79000000D01*
X65240001Y-79037332D01*
X65240000Y-85712677D01*
X65236324Y-85750000D01*
X65240000Y-85787322D01*
X65240000Y-85787332D01*
X65250997Y-85898985D01*
X65277491Y-85986324D01*
X65294454Y-86042246D01*
X65365026Y-86174276D01*
X65404871Y-86222826D01*
X65459999Y-86290001D01*
X65489002Y-86313804D01*
X66201847Y-87026649D01*
X66225932Y-87147729D01*
X66296414Y-87317889D01*
X66398738Y-87471028D01*
X66528972Y-87601262D01*
X66682111Y-87703586D01*
X66852271Y-87774068D01*
X67032911Y-87810000D01*
X67217089Y-87810000D01*
X67397729Y-87774068D01*
X67567889Y-87703586D01*
X67721028Y-87601262D01*
X67851262Y-87471028D01*
X67953586Y-87317889D01*
X68024068Y-87147729D01*
X68060000Y-86967089D01*
X68060000Y-86782911D01*
X68024068Y-86602271D01*
X67953586Y-86432111D01*
X67851262Y-86278972D01*
X67721028Y-86148738D01*
X67567889Y-86046414D01*
X67397729Y-85975932D01*
X67276649Y-85951847D01*
X66760000Y-85435199D01*
X66760000Y-79314801D01*
X67151649Y-78923153D01*
X67272729Y-78899068D01*
X67442889Y-78828586D01*
X67596028Y-78726262D01*
X67726262Y-78596028D01*
X67828586Y-78442889D01*
X67899068Y-78272729D01*
X67935000Y-78092089D01*
X67935000Y-77907911D01*
X67899068Y-77727271D01*
X67828586Y-77557111D01*
X67726262Y-77403972D01*
X67596028Y-77273738D01*
X67442889Y-77171414D01*
X67272729Y-77100932D01*
X67092089Y-77065000D01*
X66907911Y-77065000D01*
X66727271Y-77100932D01*
X66557111Y-77171414D01*
X66403972Y-77273738D01*
X66273738Y-77403972D01*
X66171414Y-77557111D01*
X66100932Y-77727271D01*
X66076847Y-77848351D01*
X65488998Y-78436201D01*
X65460000Y-78459999D01*
X65436202Y-78488997D01*
X65436201Y-78488998D01*
X65365026Y-78575724D01*
X65294454Y-78707754D01*
X65250998Y-78851015D01*
X65236324Y-79000000D01*
X54885000Y-79000000D01*
X54885000Y-78897467D01*
X54889281Y-78853998D01*
X54885000Y-78810529D01*
X54885000Y-78810521D01*
X54872195Y-78680508D01*
X54821589Y-78513685D01*
X54739411Y-78359939D01*
X54690219Y-78299999D01*
X54656532Y-78258951D01*
X54656530Y-78258949D01*
X54628817Y-78225181D01*
X54595050Y-78197469D01*
X52385000Y-75987420D01*
X52385000Y-73907911D01*
X71565000Y-73907911D01*
X71565000Y-74092089D01*
X71600932Y-74272729D01*
X71671414Y-74442889D01*
X71740001Y-74545537D01*
X71740000Y-87954465D01*
X71671414Y-88057111D01*
X71600932Y-88227271D01*
X71565000Y-88407911D01*
X71565000Y-88592089D01*
X71600932Y-88772729D01*
X71671414Y-88942889D01*
X71773738Y-89096028D01*
X71903972Y-89226262D01*
X72057111Y-89328586D01*
X72227271Y-89399068D01*
X72407911Y-89435000D01*
X72592089Y-89435000D01*
X72772729Y-89399068D01*
X72942889Y-89328586D01*
X73096028Y-89226262D01*
X73226262Y-89096028D01*
X73328586Y-88942889D01*
X73399068Y-88772729D01*
X73435000Y-88592089D01*
X73435000Y-88407911D01*
X73399068Y-88227271D01*
X73328586Y-88057111D01*
X73260000Y-87954465D01*
X73260000Y-74545535D01*
X73328586Y-74442889D01*
X73399068Y-74272729D01*
X73435000Y-74092089D01*
X73435000Y-73907911D01*
X73399068Y-73727271D01*
X73328586Y-73557111D01*
X73226262Y-73403972D01*
X73096028Y-73273738D01*
X72942889Y-73171414D01*
X72772729Y-73100932D01*
X72592089Y-73065000D01*
X72407911Y-73065000D01*
X72227271Y-73100932D01*
X72057111Y-73171414D01*
X71903972Y-73273738D01*
X71773738Y-73403972D01*
X71671414Y-73557111D01*
X71600932Y-73727271D01*
X71565000Y-73907911D01*
X52385000Y-73907911D01*
X52385000Y-72135413D01*
X53044192Y-72135413D01*
X53139956Y-72399814D01*
X53429571Y-72540704D01*
X53741108Y-72622384D01*
X54062595Y-72641718D01*
X54381675Y-72597961D01*
X54686088Y-72492795D01*
X54860044Y-72399814D01*
X54955808Y-72135413D01*
X54000000Y-71179605D01*
X53044192Y-72135413D01*
X52385000Y-72135413D01*
X52385000Y-71257425D01*
X52402039Y-71381675D01*
X52507205Y-71686088D01*
X52600186Y-71860044D01*
X52864587Y-71955808D01*
X53820395Y-71000000D01*
X54179605Y-71000000D01*
X55135413Y-71955808D01*
X55399814Y-71860044D01*
X55540704Y-71570429D01*
X55622384Y-71258892D01*
X55641718Y-70937405D01*
X55628219Y-70838967D01*
X57365000Y-70838967D01*
X57365000Y-71161033D01*
X57427832Y-71476912D01*
X57551082Y-71774463D01*
X57730013Y-72042252D01*
X57957748Y-72269987D01*
X58225537Y-72448918D01*
X58523088Y-72572168D01*
X58838967Y-72635000D01*
X59161033Y-72635000D01*
X59476912Y-72572168D01*
X59774463Y-72448918D01*
X60042252Y-72269987D01*
X60269987Y-72042252D01*
X60448918Y-71774463D01*
X60572168Y-71476912D01*
X60635000Y-71161033D01*
X60635000Y-70838967D01*
X62365000Y-70838967D01*
X62365000Y-71161033D01*
X62427832Y-71476912D01*
X62551082Y-71774463D01*
X62730013Y-72042252D01*
X62957748Y-72269987D01*
X63225537Y-72448918D01*
X63523088Y-72572168D01*
X63838967Y-72635000D01*
X64161033Y-72635000D01*
X64476912Y-72572168D01*
X64774463Y-72448918D01*
X65042252Y-72269987D01*
X65269987Y-72042252D01*
X65448918Y-71774463D01*
X65572168Y-71476912D01*
X65635000Y-71161033D01*
X65635000Y-70838967D01*
X65572168Y-70523088D01*
X65448918Y-70225537D01*
X65269987Y-69957748D01*
X65042252Y-69730013D01*
X64774463Y-69551082D01*
X64476912Y-69427832D01*
X64161033Y-69365000D01*
X63838967Y-69365000D01*
X63523088Y-69427832D01*
X63225537Y-69551082D01*
X62957748Y-69730013D01*
X62730013Y-69957748D01*
X62551082Y-70225537D01*
X62427832Y-70523088D01*
X62365000Y-70838967D01*
X60635000Y-70838967D01*
X60572168Y-70523088D01*
X60448918Y-70225537D01*
X60269987Y-69957748D01*
X60042252Y-69730013D01*
X59774463Y-69551082D01*
X59476912Y-69427832D01*
X59161033Y-69365000D01*
X58838967Y-69365000D01*
X58523088Y-69427832D01*
X58225537Y-69551082D01*
X57957748Y-69730013D01*
X57730013Y-69957748D01*
X57551082Y-70225537D01*
X57427832Y-70523088D01*
X57365000Y-70838967D01*
X55628219Y-70838967D01*
X55597961Y-70618325D01*
X55492795Y-70313912D01*
X55399814Y-70139956D01*
X55135413Y-70044192D01*
X54179605Y-71000000D01*
X53820395Y-71000000D01*
X52864587Y-70044192D01*
X52600186Y-70139956D01*
X52459296Y-70429571D01*
X52385000Y-70712945D01*
X52385000Y-69864587D01*
X53044192Y-69864587D01*
X54000000Y-70820395D01*
X54955808Y-69864587D01*
X54860044Y-69600186D01*
X54570429Y-69459296D01*
X54258892Y-69377616D01*
X53937405Y-69358282D01*
X53618325Y-69402039D01*
X53313912Y-69507205D01*
X53139956Y-69600186D01*
X53044192Y-69864587D01*
X52385000Y-69864587D01*
X52385000Y-61080000D01*
X53357319Y-61080000D01*
X53387970Y-61391204D01*
X53478745Y-61690449D01*
X53626155Y-61966235D01*
X53824537Y-62207963D01*
X54066265Y-62406345D01*
X54342051Y-62553755D01*
X54641296Y-62644530D01*
X54874514Y-62667500D01*
X55125486Y-62667500D01*
X55358704Y-62644530D01*
X55657949Y-62553755D01*
X55933735Y-62406345D01*
X56166888Y-62215000D01*
X60833112Y-62215000D01*
X61066265Y-62406345D01*
X61342051Y-62553755D01*
X61641296Y-62644530D01*
X61874514Y-62667500D01*
X62125486Y-62667500D01*
X62358704Y-62644530D01*
X62657949Y-62553755D01*
X62933735Y-62406345D01*
X63175463Y-62207963D01*
X63373845Y-61966235D01*
X63521255Y-61690449D01*
X63612030Y-61391204D01*
X63642681Y-61080000D01*
X63612030Y-60768796D01*
X63521255Y-60469551D01*
X63373845Y-60193765D01*
X63175463Y-59952037D01*
X63002391Y-59810000D01*
X63175463Y-59667963D01*
X63373845Y-59426235D01*
X63521255Y-59150449D01*
X63612030Y-58851204D01*
X63642681Y-58540000D01*
X63612030Y-58228796D01*
X63521255Y-57929551D01*
X63373845Y-57653765D01*
X63270554Y-57527905D01*
X63354494Y-57483037D01*
X63451185Y-57403685D01*
X63530537Y-57306994D01*
X63589502Y-57196680D01*
X63625812Y-57076982D01*
X63638072Y-56952500D01*
X63638072Y-56200000D01*
X66061928Y-56200000D01*
X66061928Y-57800000D01*
X66074188Y-57924482D01*
X66110498Y-58044180D01*
X66169463Y-58154494D01*
X66248815Y-58251185D01*
X66345506Y-58330537D01*
X66455820Y-58389502D01*
X66551943Y-58418661D01*
X66385363Y-58585241D01*
X66228320Y-58820273D01*
X66120147Y-59081426D01*
X66065000Y-59358665D01*
X66065000Y-59641335D01*
X66120147Y-59918574D01*
X66228320Y-60179727D01*
X66365001Y-60384285D01*
X66365000Y-64694248D01*
X66359509Y-64750000D01*
X66365000Y-64805751D01*
X66381423Y-64972498D01*
X66446324Y-65186446D01*
X66551716Y-65383623D01*
X66693551Y-65556449D01*
X66736865Y-65591996D01*
X74115001Y-72970133D01*
X74115000Y-77194248D01*
X74109509Y-77250000D01*
X74115000Y-77305751D01*
X74131423Y-77472498D01*
X74196324Y-77686446D01*
X74301716Y-77883623D01*
X74443551Y-78056449D01*
X74486865Y-78091996D01*
X77832980Y-81438112D01*
X77765000Y-81779872D01*
X77765000Y-82220128D01*
X77850890Y-82651925D01*
X78019369Y-83058669D01*
X78263962Y-83424729D01*
X78575271Y-83736038D01*
X78941331Y-83980631D01*
X79348075Y-84149110D01*
X79779872Y-84235000D01*
X80220128Y-84235000D01*
X80651925Y-84149110D01*
X81058669Y-83980631D01*
X81165001Y-83909582D01*
X81165002Y-84790418D01*
X81058669Y-84719369D01*
X80651925Y-84550890D01*
X80220128Y-84465000D01*
X79779872Y-84465000D01*
X79348075Y-84550890D01*
X78941331Y-84719369D01*
X78575271Y-84963962D01*
X78263962Y-85275271D01*
X78019369Y-85641331D01*
X77850890Y-86048075D01*
X77765000Y-86479872D01*
X77765000Y-86920128D01*
X77850890Y-87351925D01*
X78019369Y-87758669D01*
X78263962Y-88124729D01*
X78575271Y-88436038D01*
X78941331Y-88680631D01*
X79348075Y-88849110D01*
X79607222Y-88900658D01*
X79557111Y-88921414D01*
X79403972Y-89023738D01*
X79273738Y-89153972D01*
X79171414Y-89307111D01*
X79100932Y-89477271D01*
X79065000Y-89657911D01*
X79065000Y-89842089D01*
X79100932Y-90022729D01*
X79171414Y-90192889D01*
X79273738Y-90346028D01*
X79403972Y-90476262D01*
X79557111Y-90578586D01*
X79727271Y-90649068D01*
X79907911Y-90685000D01*
X80092089Y-90685000D01*
X80272729Y-90649068D01*
X80442889Y-90578586D01*
X80596028Y-90476262D01*
X80726262Y-90346028D01*
X80828586Y-90192889D01*
X80899068Y-90022729D01*
X80923153Y-89901648D01*
X82436004Y-88388798D01*
X82465002Y-88365000D01*
X82559975Y-88249275D01*
X82630547Y-88117246D01*
X82674004Y-87973985D01*
X82685001Y-87862332D01*
X82685001Y-87862322D01*
X82688677Y-87824999D01*
X82685001Y-87787676D01*
X82685001Y-81113324D01*
X82688677Y-81075999D01*
X82685001Y-81038674D01*
X82685001Y-81038666D01*
X82674004Y-80927013D01*
X82630547Y-80783752D01*
X82559975Y-80651723D01*
X82465002Y-80535998D01*
X82436005Y-80512201D01*
X81162806Y-79239003D01*
X81147989Y-79220949D01*
X81424729Y-79036038D01*
X81736038Y-78724729D01*
X81980631Y-78358669D01*
X82149110Y-77951925D01*
X82235000Y-77520128D01*
X82235000Y-77079872D01*
X82149110Y-76648075D01*
X81980631Y-76241331D01*
X81736038Y-75875271D01*
X81424729Y-75563962D01*
X81058669Y-75319369D01*
X80651925Y-75150890D01*
X80220128Y-75065000D01*
X79779872Y-75065000D01*
X79348075Y-75150890D01*
X78941331Y-75319369D01*
X78575271Y-75563962D01*
X78263962Y-75875271D01*
X78019369Y-76241331D01*
X77850890Y-76648075D01*
X77804930Y-76879131D01*
X77510000Y-76584201D01*
X77510000Y-72870585D01*
X77513676Y-72833260D01*
X77510000Y-72795935D01*
X77510000Y-72795927D01*
X77499003Y-72684274D01*
X77455546Y-72541013D01*
X77384974Y-72408984D01*
X77290001Y-72293259D01*
X77261004Y-72269462D01*
X74696037Y-69704495D01*
X80015000Y-69704495D01*
X80015000Y-70095505D01*
X80091282Y-70479003D01*
X80240915Y-70840250D01*
X80458149Y-71165364D01*
X80734636Y-71441851D01*
X81059750Y-71659085D01*
X81420997Y-71808718D01*
X81804495Y-71885000D01*
X82195505Y-71885000D01*
X82579003Y-71808718D01*
X82940250Y-71659085D01*
X83265364Y-71441851D01*
X83541851Y-71165364D01*
X83759085Y-70840250D01*
X83908718Y-70479003D01*
X83985000Y-70095505D01*
X83985000Y-69704495D01*
X83908718Y-69320997D01*
X83759085Y-68959750D01*
X83541851Y-68634636D01*
X83265364Y-68358149D01*
X82940250Y-68140915D01*
X82579003Y-67991282D01*
X82195505Y-67915000D01*
X81804495Y-67915000D01*
X81420997Y-67991282D01*
X81059750Y-68140915D01*
X80734636Y-68358149D01*
X80458149Y-68634636D01*
X80240915Y-68959750D01*
X80091282Y-69320997D01*
X80015000Y-69704495D01*
X74696037Y-69704495D01*
X73079331Y-68087790D01*
X73227271Y-68149068D01*
X73407911Y-68185000D01*
X73592089Y-68185000D01*
X73772729Y-68149068D01*
X73942889Y-68078586D01*
X74045535Y-68010000D01*
X78954465Y-68010000D01*
X79057111Y-68078586D01*
X79227271Y-68149068D01*
X79407911Y-68185000D01*
X79592089Y-68185000D01*
X79772729Y-68149068D01*
X79942889Y-68078586D01*
X80096028Y-67976262D01*
X80226262Y-67846028D01*
X80328586Y-67692889D01*
X80399068Y-67522729D01*
X80435000Y-67342089D01*
X80435000Y-67157911D01*
X80399068Y-66977271D01*
X80328586Y-66807111D01*
X80226262Y-66653972D01*
X80096028Y-66523738D01*
X79942889Y-66421414D01*
X79772729Y-66350932D01*
X79592089Y-66315000D01*
X79407911Y-66315000D01*
X79227271Y-66350932D01*
X79057111Y-66421414D01*
X78954465Y-66490000D01*
X74045535Y-66490000D01*
X73942889Y-66421414D01*
X73772729Y-66350932D01*
X73592089Y-66315000D01*
X73407911Y-66315000D01*
X73227271Y-66350932D01*
X73057111Y-66421414D01*
X72903972Y-66523738D01*
X72773738Y-66653972D01*
X72671414Y-66807111D01*
X72600932Y-66977271D01*
X72565000Y-67157911D01*
X72565000Y-67342089D01*
X72600932Y-67522729D01*
X72662210Y-67670669D01*
X71260000Y-66268459D01*
X71260000Y-65795535D01*
X71328586Y-65692889D01*
X71399068Y-65522729D01*
X71435000Y-65342089D01*
X71435000Y-65157911D01*
X71399068Y-64977271D01*
X71328586Y-64807111D01*
X71226262Y-64653972D01*
X71096028Y-64523738D01*
X70942889Y-64421414D01*
X70772729Y-64350932D01*
X70592089Y-64315000D01*
X70407911Y-64315000D01*
X70227271Y-64350932D01*
X70057111Y-64421414D01*
X69903972Y-64523738D01*
X69773738Y-64653972D01*
X69671414Y-64807111D01*
X69600932Y-64977271D01*
X69565000Y-65157911D01*
X69565000Y-65209869D01*
X68635000Y-64279869D01*
X68635000Y-60384284D01*
X68771680Y-60179727D01*
X68879853Y-59918574D01*
X68935000Y-59641335D01*
X68935000Y-59358665D01*
X68879853Y-59081426D01*
X68771680Y-58820273D01*
X68614637Y-58585241D01*
X68448057Y-58418661D01*
X68544180Y-58389502D01*
X68654494Y-58330537D01*
X68751185Y-58251185D01*
X68830537Y-58154494D01*
X68889502Y-58044180D01*
X68925812Y-57924482D01*
X68938072Y-57800000D01*
X68938072Y-56400000D01*
X72261928Y-56400000D01*
X72261928Y-58600000D01*
X72274188Y-58724482D01*
X72310498Y-58844180D01*
X72369463Y-58954494D01*
X72448815Y-59051185D01*
X72545506Y-59130537D01*
X72655820Y-59189502D01*
X72775518Y-59225812D01*
X72900000Y-59238072D01*
X75100000Y-59238072D01*
X75224482Y-59225812D01*
X75344180Y-59189502D01*
X75454494Y-59130537D01*
X75551185Y-59051185D01*
X75630537Y-58954494D01*
X75689502Y-58844180D01*
X75725812Y-58724482D01*
X75738072Y-58600000D01*
X75738072Y-56400000D01*
X75725812Y-56275518D01*
X75689502Y-56155820D01*
X75630537Y-56045506D01*
X75551185Y-55948815D01*
X75454494Y-55869463D01*
X75344180Y-55810498D01*
X75224482Y-55774188D01*
X75100000Y-55761928D01*
X72900000Y-55761928D01*
X72775518Y-55774188D01*
X72655820Y-55810498D01*
X72545506Y-55869463D01*
X72448815Y-55948815D01*
X72369463Y-56045506D01*
X72310498Y-56155820D01*
X72274188Y-56275518D01*
X72261928Y-56400000D01*
X68938072Y-56400000D01*
X68938072Y-56200000D01*
X68925812Y-56075518D01*
X68889502Y-55955820D01*
X68830537Y-55845506D01*
X68751185Y-55748815D01*
X68654494Y-55669463D01*
X68544180Y-55610498D01*
X68424482Y-55574188D01*
X68300000Y-55561928D01*
X66700000Y-55561928D01*
X66575518Y-55574188D01*
X66455820Y-55610498D01*
X66345506Y-55669463D01*
X66248815Y-55748815D01*
X66169463Y-55845506D01*
X66110498Y-55955820D01*
X66074188Y-56075518D01*
X66061928Y-56200000D01*
X63638072Y-56200000D01*
X63638072Y-55047500D01*
X63625812Y-54923018D01*
X63589502Y-54803320D01*
X63530537Y-54693006D01*
X63451185Y-54596315D01*
X63354494Y-54516963D01*
X63244180Y-54457998D01*
X63124482Y-54421688D01*
X63000000Y-54409428D01*
X61000000Y-54409428D01*
X60875518Y-54421688D01*
X60755820Y-54457998D01*
X60645506Y-54516963D01*
X60548815Y-54596315D01*
X60469463Y-54693006D01*
X60410498Y-54803320D01*
X60374188Y-54923018D01*
X60361928Y-55047500D01*
X60361928Y-56952500D01*
X60374188Y-57076982D01*
X60410498Y-57196680D01*
X60469463Y-57306994D01*
X60548815Y-57403685D01*
X60645506Y-57483037D01*
X60729446Y-57527905D01*
X60626155Y-57653765D01*
X60478745Y-57929551D01*
X60387970Y-58228796D01*
X60357319Y-58540000D01*
X60387970Y-58851204D01*
X60478745Y-59150449D01*
X60626155Y-59426235D01*
X60824537Y-59667963D01*
X60997609Y-59810000D01*
X60833112Y-59945000D01*
X56166888Y-59945000D01*
X55996101Y-59804837D01*
X56181315Y-59649437D01*
X56375969Y-59406923D01*
X56519571Y-59131094D01*
X56590563Y-58912980D01*
X56470594Y-58667000D01*
X55127000Y-58667000D01*
X55127000Y-58687000D01*
X54873000Y-58687000D01*
X54873000Y-58667000D01*
X53529406Y-58667000D01*
X53409437Y-58912980D01*
X53480429Y-59131094D01*
X53624031Y-59406923D01*
X53818685Y-59649437D01*
X54003899Y-59804837D01*
X53824537Y-59952037D01*
X53626155Y-60193765D01*
X53478745Y-60469551D01*
X53387970Y-60768796D01*
X53357319Y-61080000D01*
X52385000Y-61080000D01*
X52385000Y-55866578D01*
X53394056Y-54857523D01*
X53374188Y-54923018D01*
X53361928Y-55047500D01*
X53361928Y-56952500D01*
X53374188Y-57076982D01*
X53410498Y-57196680D01*
X53469463Y-57306994D01*
X53548815Y-57403685D01*
X53645506Y-57483037D01*
X53737219Y-57532059D01*
X53624031Y-57673077D01*
X53480429Y-57948906D01*
X53409437Y-58167020D01*
X53529406Y-58413000D01*
X54873000Y-58413000D01*
X54873000Y-58393000D01*
X55127000Y-58393000D01*
X55127000Y-58413000D01*
X56470594Y-58413000D01*
X56590563Y-58167020D01*
X56519571Y-57948906D01*
X56375969Y-57673077D01*
X56262781Y-57532059D01*
X56354494Y-57483037D01*
X56451185Y-57403685D01*
X56530537Y-57306994D01*
X56589502Y-57196680D01*
X56625812Y-57076982D01*
X56638072Y-56952500D01*
X56638072Y-55047500D01*
X56625812Y-54923018D01*
X56589502Y-54803320D01*
X56530537Y-54693006D01*
X56451185Y-54596315D01*
X56354494Y-54516963D01*
X56244180Y-54457998D01*
X56124482Y-54421688D01*
X56000000Y-54409428D01*
X54000000Y-54409428D01*
X53875518Y-54421688D01*
X53810023Y-54441556D01*
X54366579Y-53885000D01*
X55194029Y-53885000D01*
X55237498Y-53889281D01*
X55280967Y-53885000D01*
X55280975Y-53885000D01*
X55410988Y-53872195D01*
X55533605Y-53834999D01*
X78090418Y-53834999D01*
X78019369Y-53941331D01*
X77850890Y-54348075D01*
X77765000Y-54779872D01*
X77765000Y-55220128D01*
X77850890Y-55651925D01*
X78019369Y-56058669D01*
X78263962Y-56424729D01*
X78575271Y-56736038D01*
X78941331Y-56980631D01*
X79348075Y-57149110D01*
X79779872Y-57235000D01*
X80220128Y-57235000D01*
X80651925Y-57149110D01*
X81058669Y-56980631D01*
X81424729Y-56736038D01*
X81736038Y-56424729D01*
X81980631Y-56058669D01*
X82149110Y-55651925D01*
X82235000Y-55220128D01*
X82235000Y-54843891D01*
X85875000Y-54843891D01*
X85875000Y-55156109D01*
X85935911Y-55462327D01*
X86055391Y-55750779D01*
X86228850Y-56010379D01*
X86449621Y-56231150D01*
X86709221Y-56404609D01*
X86997673Y-56524089D01*
X87303891Y-56585000D01*
X87616109Y-56585000D01*
X87922327Y-56524089D01*
X88210779Y-56404609D01*
X88458877Y-56238836D01*
X88460498Y-56244180D01*
X88519463Y-56354494D01*
X88598815Y-56451185D01*
X88695506Y-56530537D01*
X88805820Y-56589502D01*
X88925518Y-56625812D01*
X89050000Y-56638072D01*
X89714250Y-56635000D01*
X89873000Y-56476250D01*
X89873000Y-55127000D01*
X90127000Y-55127000D01*
X90127000Y-56476250D01*
X90285750Y-56635000D01*
X90950000Y-56638072D01*
X91074482Y-56625812D01*
X91194180Y-56589502D01*
X91304494Y-56530537D01*
X91341512Y-56500157D01*
X102179762Y-56500157D01*
X103000000Y-57320395D01*
X103820238Y-56500157D01*
X103747444Y-56255168D01*
X103490227Y-56133267D01*
X103214171Y-56063890D01*
X102929885Y-56049702D01*
X102648294Y-56091248D01*
X102380217Y-56186932D01*
X102252556Y-56255168D01*
X102179762Y-56500157D01*
X91341512Y-56500157D01*
X91401185Y-56451185D01*
X91480537Y-56354494D01*
X91539502Y-56244180D01*
X91575812Y-56124482D01*
X91588072Y-56000000D01*
X91588072Y-55999843D01*
X97179762Y-55999843D01*
X97252556Y-56244832D01*
X97509773Y-56366733D01*
X97785829Y-56436110D01*
X98070115Y-56450298D01*
X98351706Y-56408752D01*
X98619783Y-56313068D01*
X98747444Y-56244832D01*
X98820238Y-55999843D01*
X98000000Y-55179605D01*
X97179762Y-55999843D01*
X91588072Y-55999843D01*
X91585000Y-55285750D01*
X91426250Y-55127000D01*
X90127000Y-55127000D01*
X89873000Y-55127000D01*
X89853000Y-55127000D01*
X89853000Y-55070115D01*
X96549702Y-55070115D01*
X96591248Y-55351706D01*
X96686932Y-55619783D01*
X96755168Y-55747444D01*
X97000157Y-55820238D01*
X97820395Y-55000000D01*
X98179605Y-55000000D01*
X98999843Y-55820238D01*
X99244832Y-55747444D01*
X99366733Y-55490227D01*
X99436110Y-55214171D01*
X99450298Y-54929885D01*
X99408752Y-54648294D01*
X99313068Y-54380217D01*
X99244832Y-54252556D01*
X98999843Y-54179762D01*
X98179605Y-55000000D01*
X97820395Y-55000000D01*
X97000157Y-54179762D01*
X96755168Y-54252556D01*
X96633267Y-54509773D01*
X96563890Y-54785829D01*
X96549702Y-55070115D01*
X89853000Y-55070115D01*
X89853000Y-54873000D01*
X89873000Y-54873000D01*
X89873000Y-53523750D01*
X90127000Y-53523750D01*
X90127000Y-54873000D01*
X91426250Y-54873000D01*
X91585000Y-54714250D01*
X91588071Y-54000157D01*
X97179762Y-54000157D01*
X98000000Y-54820395D01*
X98820238Y-54000157D01*
X98747444Y-53755168D01*
X98490227Y-53633267D01*
X98214171Y-53563890D01*
X97929885Y-53549702D01*
X97648294Y-53591248D01*
X97380217Y-53686932D01*
X97252556Y-53755168D01*
X97179762Y-54000157D01*
X91588071Y-54000157D01*
X91588072Y-54000000D01*
X91575812Y-53875518D01*
X91539502Y-53755820D01*
X91480537Y-53645506D01*
X91401185Y-53548815D01*
X91304494Y-53469463D01*
X91194180Y-53410498D01*
X91074482Y-53374188D01*
X90950000Y-53361928D01*
X90285750Y-53365000D01*
X90127000Y-53523750D01*
X89873000Y-53523750D01*
X89714250Y-53365000D01*
X89050000Y-53361928D01*
X88925518Y-53374188D01*
X88805820Y-53410498D01*
X88695506Y-53469463D01*
X88598815Y-53548815D01*
X88519463Y-53645506D01*
X88460498Y-53755820D01*
X88458877Y-53761164D01*
X88210779Y-53595391D01*
X87922327Y-53475911D01*
X87616109Y-53415000D01*
X87303891Y-53415000D01*
X86997673Y-53475911D01*
X86709221Y-53595391D01*
X86449621Y-53768850D01*
X86228850Y-53989621D01*
X86055391Y-54249221D01*
X85935911Y-54537673D01*
X85875000Y-54843891D01*
X82235000Y-54843891D01*
X82235000Y-54779872D01*
X82149110Y-54348075D01*
X81980631Y-53941331D01*
X81736038Y-53575271D01*
X81424729Y-53263962D01*
X81362919Y-53222662D01*
X81960582Y-52624999D01*
X101373421Y-52624999D01*
X108065002Y-59316581D01*
M02*
