G04 #@! TF.GenerationSoftware,KiCad,Pcbnew,(5.0.1-3-g963ef8bb5)*
G04 #@! TF.CreationDate,2019-04-18T21:55:15-06:00*
G04 #@! TF.ProjectId,NuisanceEngine,4E756973616E6365456E67696E652E6B,rev?*
G04 #@! TF.SameCoordinates,Original*
G04 #@! TF.FileFunction,Paste,Top*
G04 #@! TF.FilePolarity,Positive*
%FSLAX46Y46*%
G04 Gerber Fmt 4.6, Leading zero omitted, Abs format (unit mm)*
G04 Created by KiCad (PCBNEW (5.0.1-3-g963ef8bb5)) date Thursday, 18 April 2019 at 21:55:15*
%MOMM*%
%LPD*%
G01*
G04 APERTURE LIST*
%ADD10R,0.600000X1.500000*%
%ADD11C,0.100000*%
%ADD12C,0.950000*%
%ADD13C,1.150000*%
%ADD14R,0.800000X1.900000*%
G04 APERTURE END LIST*
D10*
G04 #@! TO.C,U1*
X67190000Y-70300000D03*
X68460000Y-70300000D03*
X69730000Y-70300000D03*
X71000000Y-70300000D03*
X72270000Y-70300000D03*
X73540000Y-70300000D03*
X74810000Y-70300000D03*
X74810000Y-75700000D03*
X73540000Y-75700000D03*
X72270000Y-75700000D03*
X71000000Y-75700000D03*
X69730000Y-75700000D03*
X68460000Y-75700000D03*
X67190000Y-75700000D03*
G04 #@! TD*
D11*
G04 #@! TO.C,C1*
G36*
X77260779Y-70351144D02*
X77283834Y-70354563D01*
X77306443Y-70360227D01*
X77328387Y-70368079D01*
X77349457Y-70378044D01*
X77369448Y-70390026D01*
X77388168Y-70403910D01*
X77405438Y-70419562D01*
X77421090Y-70436832D01*
X77434974Y-70455552D01*
X77446956Y-70475543D01*
X77456921Y-70496613D01*
X77464773Y-70518557D01*
X77470437Y-70541166D01*
X77473856Y-70564221D01*
X77475000Y-70587500D01*
X77475000Y-71162500D01*
X77473856Y-71185779D01*
X77470437Y-71208834D01*
X77464773Y-71231443D01*
X77456921Y-71253387D01*
X77446956Y-71274457D01*
X77434974Y-71294448D01*
X77421090Y-71313168D01*
X77405438Y-71330438D01*
X77388168Y-71346090D01*
X77369448Y-71359974D01*
X77349457Y-71371956D01*
X77328387Y-71381921D01*
X77306443Y-71389773D01*
X77283834Y-71395437D01*
X77260779Y-71398856D01*
X77237500Y-71400000D01*
X76762500Y-71400000D01*
X76739221Y-71398856D01*
X76716166Y-71395437D01*
X76693557Y-71389773D01*
X76671613Y-71381921D01*
X76650543Y-71371956D01*
X76630552Y-71359974D01*
X76611832Y-71346090D01*
X76594562Y-71330438D01*
X76578910Y-71313168D01*
X76565026Y-71294448D01*
X76553044Y-71274457D01*
X76543079Y-71253387D01*
X76535227Y-71231443D01*
X76529563Y-71208834D01*
X76526144Y-71185779D01*
X76525000Y-71162500D01*
X76525000Y-70587500D01*
X76526144Y-70564221D01*
X76529563Y-70541166D01*
X76535227Y-70518557D01*
X76543079Y-70496613D01*
X76553044Y-70475543D01*
X76565026Y-70455552D01*
X76578910Y-70436832D01*
X76594562Y-70419562D01*
X76611832Y-70403910D01*
X76630552Y-70390026D01*
X76650543Y-70378044D01*
X76671613Y-70368079D01*
X76693557Y-70360227D01*
X76716166Y-70354563D01*
X76739221Y-70351144D01*
X76762500Y-70350000D01*
X77237500Y-70350000D01*
X77260779Y-70351144D01*
X77260779Y-70351144D01*
G37*
D12*
X77000000Y-70875000D03*
D11*
G36*
X77260779Y-68601144D02*
X77283834Y-68604563D01*
X77306443Y-68610227D01*
X77328387Y-68618079D01*
X77349457Y-68628044D01*
X77369448Y-68640026D01*
X77388168Y-68653910D01*
X77405438Y-68669562D01*
X77421090Y-68686832D01*
X77434974Y-68705552D01*
X77446956Y-68725543D01*
X77456921Y-68746613D01*
X77464773Y-68768557D01*
X77470437Y-68791166D01*
X77473856Y-68814221D01*
X77475000Y-68837500D01*
X77475000Y-69412500D01*
X77473856Y-69435779D01*
X77470437Y-69458834D01*
X77464773Y-69481443D01*
X77456921Y-69503387D01*
X77446956Y-69524457D01*
X77434974Y-69544448D01*
X77421090Y-69563168D01*
X77405438Y-69580438D01*
X77388168Y-69596090D01*
X77369448Y-69609974D01*
X77349457Y-69621956D01*
X77328387Y-69631921D01*
X77306443Y-69639773D01*
X77283834Y-69645437D01*
X77260779Y-69648856D01*
X77237500Y-69650000D01*
X76762500Y-69650000D01*
X76739221Y-69648856D01*
X76716166Y-69645437D01*
X76693557Y-69639773D01*
X76671613Y-69631921D01*
X76650543Y-69621956D01*
X76630552Y-69609974D01*
X76611832Y-69596090D01*
X76594562Y-69580438D01*
X76578910Y-69563168D01*
X76565026Y-69544448D01*
X76553044Y-69524457D01*
X76543079Y-69503387D01*
X76535227Y-69481443D01*
X76529563Y-69458834D01*
X76526144Y-69435779D01*
X76525000Y-69412500D01*
X76525000Y-68837500D01*
X76526144Y-68814221D01*
X76529563Y-68791166D01*
X76535227Y-68768557D01*
X76543079Y-68746613D01*
X76553044Y-68725543D01*
X76565026Y-68705552D01*
X76578910Y-68686832D01*
X76594562Y-68669562D01*
X76611832Y-68653910D01*
X76630552Y-68640026D01*
X76650543Y-68628044D01*
X76671613Y-68618079D01*
X76693557Y-68610227D01*
X76716166Y-68604563D01*
X76739221Y-68601144D01*
X76762500Y-68600000D01*
X77237500Y-68600000D01*
X77260779Y-68601144D01*
X77260779Y-68601144D01*
G37*
D12*
X77000000Y-69125000D03*
G04 #@! TD*
D11*
G04 #@! TO.C,C2*
G36*
X88760779Y-60351144D02*
X88783834Y-60354563D01*
X88806443Y-60360227D01*
X88828387Y-60368079D01*
X88849457Y-60378044D01*
X88869448Y-60390026D01*
X88888168Y-60403910D01*
X88905438Y-60419562D01*
X88921090Y-60436832D01*
X88934974Y-60455552D01*
X88946956Y-60475543D01*
X88956921Y-60496613D01*
X88964773Y-60518557D01*
X88970437Y-60541166D01*
X88973856Y-60564221D01*
X88975000Y-60587500D01*
X88975000Y-61162500D01*
X88973856Y-61185779D01*
X88970437Y-61208834D01*
X88964773Y-61231443D01*
X88956921Y-61253387D01*
X88946956Y-61274457D01*
X88934974Y-61294448D01*
X88921090Y-61313168D01*
X88905438Y-61330438D01*
X88888168Y-61346090D01*
X88869448Y-61359974D01*
X88849457Y-61371956D01*
X88828387Y-61381921D01*
X88806443Y-61389773D01*
X88783834Y-61395437D01*
X88760779Y-61398856D01*
X88737500Y-61400000D01*
X88262500Y-61400000D01*
X88239221Y-61398856D01*
X88216166Y-61395437D01*
X88193557Y-61389773D01*
X88171613Y-61381921D01*
X88150543Y-61371956D01*
X88130552Y-61359974D01*
X88111832Y-61346090D01*
X88094562Y-61330438D01*
X88078910Y-61313168D01*
X88065026Y-61294448D01*
X88053044Y-61274457D01*
X88043079Y-61253387D01*
X88035227Y-61231443D01*
X88029563Y-61208834D01*
X88026144Y-61185779D01*
X88025000Y-61162500D01*
X88025000Y-60587500D01*
X88026144Y-60564221D01*
X88029563Y-60541166D01*
X88035227Y-60518557D01*
X88043079Y-60496613D01*
X88053044Y-60475543D01*
X88065026Y-60455552D01*
X88078910Y-60436832D01*
X88094562Y-60419562D01*
X88111832Y-60403910D01*
X88130552Y-60390026D01*
X88150543Y-60378044D01*
X88171613Y-60368079D01*
X88193557Y-60360227D01*
X88216166Y-60354563D01*
X88239221Y-60351144D01*
X88262500Y-60350000D01*
X88737500Y-60350000D01*
X88760779Y-60351144D01*
X88760779Y-60351144D01*
G37*
D12*
X88500000Y-60875000D03*
D11*
G36*
X88760779Y-58601144D02*
X88783834Y-58604563D01*
X88806443Y-58610227D01*
X88828387Y-58618079D01*
X88849457Y-58628044D01*
X88869448Y-58640026D01*
X88888168Y-58653910D01*
X88905438Y-58669562D01*
X88921090Y-58686832D01*
X88934974Y-58705552D01*
X88946956Y-58725543D01*
X88956921Y-58746613D01*
X88964773Y-58768557D01*
X88970437Y-58791166D01*
X88973856Y-58814221D01*
X88975000Y-58837500D01*
X88975000Y-59412500D01*
X88973856Y-59435779D01*
X88970437Y-59458834D01*
X88964773Y-59481443D01*
X88956921Y-59503387D01*
X88946956Y-59524457D01*
X88934974Y-59544448D01*
X88921090Y-59563168D01*
X88905438Y-59580438D01*
X88888168Y-59596090D01*
X88869448Y-59609974D01*
X88849457Y-59621956D01*
X88828387Y-59631921D01*
X88806443Y-59639773D01*
X88783834Y-59645437D01*
X88760779Y-59648856D01*
X88737500Y-59650000D01*
X88262500Y-59650000D01*
X88239221Y-59648856D01*
X88216166Y-59645437D01*
X88193557Y-59639773D01*
X88171613Y-59631921D01*
X88150543Y-59621956D01*
X88130552Y-59609974D01*
X88111832Y-59596090D01*
X88094562Y-59580438D01*
X88078910Y-59563168D01*
X88065026Y-59544448D01*
X88053044Y-59524457D01*
X88043079Y-59503387D01*
X88035227Y-59481443D01*
X88029563Y-59458834D01*
X88026144Y-59435779D01*
X88025000Y-59412500D01*
X88025000Y-58837500D01*
X88026144Y-58814221D01*
X88029563Y-58791166D01*
X88035227Y-58768557D01*
X88043079Y-58746613D01*
X88053044Y-58725543D01*
X88065026Y-58705552D01*
X88078910Y-58686832D01*
X88094562Y-58669562D01*
X88111832Y-58653910D01*
X88130552Y-58640026D01*
X88150543Y-58628044D01*
X88171613Y-58618079D01*
X88193557Y-58610227D01*
X88216166Y-58604563D01*
X88239221Y-58601144D01*
X88262500Y-58600000D01*
X88737500Y-58600000D01*
X88760779Y-58601144D01*
X88760779Y-58601144D01*
G37*
D12*
X88500000Y-59125000D03*
G04 #@! TD*
D11*
G04 #@! TO.C,C3*
G36*
X79185779Y-73526144D02*
X79208834Y-73529563D01*
X79231443Y-73535227D01*
X79253387Y-73543079D01*
X79274457Y-73553044D01*
X79294448Y-73565026D01*
X79313168Y-73578910D01*
X79330438Y-73594562D01*
X79346090Y-73611832D01*
X79359974Y-73630552D01*
X79371956Y-73650543D01*
X79381921Y-73671613D01*
X79389773Y-73693557D01*
X79395437Y-73716166D01*
X79398856Y-73739221D01*
X79400000Y-73762500D01*
X79400000Y-74237500D01*
X79398856Y-74260779D01*
X79395437Y-74283834D01*
X79389773Y-74306443D01*
X79381921Y-74328387D01*
X79371956Y-74349457D01*
X79359974Y-74369448D01*
X79346090Y-74388168D01*
X79330438Y-74405438D01*
X79313168Y-74421090D01*
X79294448Y-74434974D01*
X79274457Y-74446956D01*
X79253387Y-74456921D01*
X79231443Y-74464773D01*
X79208834Y-74470437D01*
X79185779Y-74473856D01*
X79162500Y-74475000D01*
X78587500Y-74475000D01*
X78564221Y-74473856D01*
X78541166Y-74470437D01*
X78518557Y-74464773D01*
X78496613Y-74456921D01*
X78475543Y-74446956D01*
X78455552Y-74434974D01*
X78436832Y-74421090D01*
X78419562Y-74405438D01*
X78403910Y-74388168D01*
X78390026Y-74369448D01*
X78378044Y-74349457D01*
X78368079Y-74328387D01*
X78360227Y-74306443D01*
X78354563Y-74283834D01*
X78351144Y-74260779D01*
X78350000Y-74237500D01*
X78350000Y-73762500D01*
X78351144Y-73739221D01*
X78354563Y-73716166D01*
X78360227Y-73693557D01*
X78368079Y-73671613D01*
X78378044Y-73650543D01*
X78390026Y-73630552D01*
X78403910Y-73611832D01*
X78419562Y-73594562D01*
X78436832Y-73578910D01*
X78455552Y-73565026D01*
X78475543Y-73553044D01*
X78496613Y-73543079D01*
X78518557Y-73535227D01*
X78541166Y-73529563D01*
X78564221Y-73526144D01*
X78587500Y-73525000D01*
X79162500Y-73525000D01*
X79185779Y-73526144D01*
X79185779Y-73526144D01*
G37*
D12*
X78875000Y-74000000D03*
D11*
G36*
X77435779Y-73526144D02*
X77458834Y-73529563D01*
X77481443Y-73535227D01*
X77503387Y-73543079D01*
X77524457Y-73553044D01*
X77544448Y-73565026D01*
X77563168Y-73578910D01*
X77580438Y-73594562D01*
X77596090Y-73611832D01*
X77609974Y-73630552D01*
X77621956Y-73650543D01*
X77631921Y-73671613D01*
X77639773Y-73693557D01*
X77645437Y-73716166D01*
X77648856Y-73739221D01*
X77650000Y-73762500D01*
X77650000Y-74237500D01*
X77648856Y-74260779D01*
X77645437Y-74283834D01*
X77639773Y-74306443D01*
X77631921Y-74328387D01*
X77621956Y-74349457D01*
X77609974Y-74369448D01*
X77596090Y-74388168D01*
X77580438Y-74405438D01*
X77563168Y-74421090D01*
X77544448Y-74434974D01*
X77524457Y-74446956D01*
X77503387Y-74456921D01*
X77481443Y-74464773D01*
X77458834Y-74470437D01*
X77435779Y-74473856D01*
X77412500Y-74475000D01*
X76837500Y-74475000D01*
X76814221Y-74473856D01*
X76791166Y-74470437D01*
X76768557Y-74464773D01*
X76746613Y-74456921D01*
X76725543Y-74446956D01*
X76705552Y-74434974D01*
X76686832Y-74421090D01*
X76669562Y-74405438D01*
X76653910Y-74388168D01*
X76640026Y-74369448D01*
X76628044Y-74349457D01*
X76618079Y-74328387D01*
X76610227Y-74306443D01*
X76604563Y-74283834D01*
X76601144Y-74260779D01*
X76600000Y-74237500D01*
X76600000Y-73762500D01*
X76601144Y-73739221D01*
X76604563Y-73716166D01*
X76610227Y-73693557D01*
X76618079Y-73671613D01*
X76628044Y-73650543D01*
X76640026Y-73630552D01*
X76653910Y-73611832D01*
X76669562Y-73594562D01*
X76686832Y-73578910D01*
X76705552Y-73565026D01*
X76725543Y-73553044D01*
X76746613Y-73543079D01*
X76768557Y-73535227D01*
X76791166Y-73529563D01*
X76814221Y-73526144D01*
X76837500Y-73525000D01*
X77412500Y-73525000D01*
X77435779Y-73526144D01*
X77435779Y-73526144D01*
G37*
D12*
X77125000Y-74000000D03*
G04 #@! TD*
D11*
G04 #@! TO.C,C4*
G36*
X65260779Y-66351144D02*
X65283834Y-66354563D01*
X65306443Y-66360227D01*
X65328387Y-66368079D01*
X65349457Y-66378044D01*
X65369448Y-66390026D01*
X65388168Y-66403910D01*
X65405438Y-66419562D01*
X65421090Y-66436832D01*
X65434974Y-66455552D01*
X65446956Y-66475543D01*
X65456921Y-66496613D01*
X65464773Y-66518557D01*
X65470437Y-66541166D01*
X65473856Y-66564221D01*
X65475000Y-66587500D01*
X65475000Y-67162500D01*
X65473856Y-67185779D01*
X65470437Y-67208834D01*
X65464773Y-67231443D01*
X65456921Y-67253387D01*
X65446956Y-67274457D01*
X65434974Y-67294448D01*
X65421090Y-67313168D01*
X65405438Y-67330438D01*
X65388168Y-67346090D01*
X65369448Y-67359974D01*
X65349457Y-67371956D01*
X65328387Y-67381921D01*
X65306443Y-67389773D01*
X65283834Y-67395437D01*
X65260779Y-67398856D01*
X65237500Y-67400000D01*
X64762500Y-67400000D01*
X64739221Y-67398856D01*
X64716166Y-67395437D01*
X64693557Y-67389773D01*
X64671613Y-67381921D01*
X64650543Y-67371956D01*
X64630552Y-67359974D01*
X64611832Y-67346090D01*
X64594562Y-67330438D01*
X64578910Y-67313168D01*
X64565026Y-67294448D01*
X64553044Y-67274457D01*
X64543079Y-67253387D01*
X64535227Y-67231443D01*
X64529563Y-67208834D01*
X64526144Y-67185779D01*
X64525000Y-67162500D01*
X64525000Y-66587500D01*
X64526144Y-66564221D01*
X64529563Y-66541166D01*
X64535227Y-66518557D01*
X64543079Y-66496613D01*
X64553044Y-66475543D01*
X64565026Y-66455552D01*
X64578910Y-66436832D01*
X64594562Y-66419562D01*
X64611832Y-66403910D01*
X64630552Y-66390026D01*
X64650543Y-66378044D01*
X64671613Y-66368079D01*
X64693557Y-66360227D01*
X64716166Y-66354563D01*
X64739221Y-66351144D01*
X64762500Y-66350000D01*
X65237500Y-66350000D01*
X65260779Y-66351144D01*
X65260779Y-66351144D01*
G37*
D12*
X65000000Y-66875000D03*
D11*
G36*
X65260779Y-64601144D02*
X65283834Y-64604563D01*
X65306443Y-64610227D01*
X65328387Y-64618079D01*
X65349457Y-64628044D01*
X65369448Y-64640026D01*
X65388168Y-64653910D01*
X65405438Y-64669562D01*
X65421090Y-64686832D01*
X65434974Y-64705552D01*
X65446956Y-64725543D01*
X65456921Y-64746613D01*
X65464773Y-64768557D01*
X65470437Y-64791166D01*
X65473856Y-64814221D01*
X65475000Y-64837500D01*
X65475000Y-65412500D01*
X65473856Y-65435779D01*
X65470437Y-65458834D01*
X65464773Y-65481443D01*
X65456921Y-65503387D01*
X65446956Y-65524457D01*
X65434974Y-65544448D01*
X65421090Y-65563168D01*
X65405438Y-65580438D01*
X65388168Y-65596090D01*
X65369448Y-65609974D01*
X65349457Y-65621956D01*
X65328387Y-65631921D01*
X65306443Y-65639773D01*
X65283834Y-65645437D01*
X65260779Y-65648856D01*
X65237500Y-65650000D01*
X64762500Y-65650000D01*
X64739221Y-65648856D01*
X64716166Y-65645437D01*
X64693557Y-65639773D01*
X64671613Y-65631921D01*
X64650543Y-65621956D01*
X64630552Y-65609974D01*
X64611832Y-65596090D01*
X64594562Y-65580438D01*
X64578910Y-65563168D01*
X64565026Y-65544448D01*
X64553044Y-65524457D01*
X64543079Y-65503387D01*
X64535227Y-65481443D01*
X64529563Y-65458834D01*
X64526144Y-65435779D01*
X64525000Y-65412500D01*
X64525000Y-64837500D01*
X64526144Y-64814221D01*
X64529563Y-64791166D01*
X64535227Y-64768557D01*
X64543079Y-64746613D01*
X64553044Y-64725543D01*
X64565026Y-64705552D01*
X64578910Y-64686832D01*
X64594562Y-64669562D01*
X64611832Y-64653910D01*
X64630552Y-64640026D01*
X64650543Y-64628044D01*
X64671613Y-64618079D01*
X64693557Y-64610227D01*
X64716166Y-64604563D01*
X64739221Y-64601144D01*
X64762500Y-64600000D01*
X65237500Y-64600000D01*
X65260779Y-64601144D01*
X65260779Y-64601144D01*
G37*
D12*
X65000000Y-65125000D03*
G04 #@! TD*
D11*
G04 #@! TO.C,C5*
G36*
X74760779Y-84601144D02*
X74783834Y-84604563D01*
X74806443Y-84610227D01*
X74828387Y-84618079D01*
X74849457Y-84628044D01*
X74869448Y-84640026D01*
X74888168Y-84653910D01*
X74905438Y-84669562D01*
X74921090Y-84686832D01*
X74934974Y-84705552D01*
X74946956Y-84725543D01*
X74956921Y-84746613D01*
X74964773Y-84768557D01*
X74970437Y-84791166D01*
X74973856Y-84814221D01*
X74975000Y-84837500D01*
X74975000Y-85412500D01*
X74973856Y-85435779D01*
X74970437Y-85458834D01*
X74964773Y-85481443D01*
X74956921Y-85503387D01*
X74946956Y-85524457D01*
X74934974Y-85544448D01*
X74921090Y-85563168D01*
X74905438Y-85580438D01*
X74888168Y-85596090D01*
X74869448Y-85609974D01*
X74849457Y-85621956D01*
X74828387Y-85631921D01*
X74806443Y-85639773D01*
X74783834Y-85645437D01*
X74760779Y-85648856D01*
X74737500Y-85650000D01*
X74262500Y-85650000D01*
X74239221Y-85648856D01*
X74216166Y-85645437D01*
X74193557Y-85639773D01*
X74171613Y-85631921D01*
X74150543Y-85621956D01*
X74130552Y-85609974D01*
X74111832Y-85596090D01*
X74094562Y-85580438D01*
X74078910Y-85563168D01*
X74065026Y-85544448D01*
X74053044Y-85524457D01*
X74043079Y-85503387D01*
X74035227Y-85481443D01*
X74029563Y-85458834D01*
X74026144Y-85435779D01*
X74025000Y-85412500D01*
X74025000Y-84837500D01*
X74026144Y-84814221D01*
X74029563Y-84791166D01*
X74035227Y-84768557D01*
X74043079Y-84746613D01*
X74053044Y-84725543D01*
X74065026Y-84705552D01*
X74078910Y-84686832D01*
X74094562Y-84669562D01*
X74111832Y-84653910D01*
X74130552Y-84640026D01*
X74150543Y-84628044D01*
X74171613Y-84618079D01*
X74193557Y-84610227D01*
X74216166Y-84604563D01*
X74239221Y-84601144D01*
X74262500Y-84600000D01*
X74737500Y-84600000D01*
X74760779Y-84601144D01*
X74760779Y-84601144D01*
G37*
D12*
X74500000Y-85125000D03*
D11*
G36*
X74760779Y-86351144D02*
X74783834Y-86354563D01*
X74806443Y-86360227D01*
X74828387Y-86368079D01*
X74849457Y-86378044D01*
X74869448Y-86390026D01*
X74888168Y-86403910D01*
X74905438Y-86419562D01*
X74921090Y-86436832D01*
X74934974Y-86455552D01*
X74946956Y-86475543D01*
X74956921Y-86496613D01*
X74964773Y-86518557D01*
X74970437Y-86541166D01*
X74973856Y-86564221D01*
X74975000Y-86587500D01*
X74975000Y-87162500D01*
X74973856Y-87185779D01*
X74970437Y-87208834D01*
X74964773Y-87231443D01*
X74956921Y-87253387D01*
X74946956Y-87274457D01*
X74934974Y-87294448D01*
X74921090Y-87313168D01*
X74905438Y-87330438D01*
X74888168Y-87346090D01*
X74869448Y-87359974D01*
X74849457Y-87371956D01*
X74828387Y-87381921D01*
X74806443Y-87389773D01*
X74783834Y-87395437D01*
X74760779Y-87398856D01*
X74737500Y-87400000D01*
X74262500Y-87400000D01*
X74239221Y-87398856D01*
X74216166Y-87395437D01*
X74193557Y-87389773D01*
X74171613Y-87381921D01*
X74150543Y-87371956D01*
X74130552Y-87359974D01*
X74111832Y-87346090D01*
X74094562Y-87330438D01*
X74078910Y-87313168D01*
X74065026Y-87294448D01*
X74053044Y-87274457D01*
X74043079Y-87253387D01*
X74035227Y-87231443D01*
X74029563Y-87208834D01*
X74026144Y-87185779D01*
X74025000Y-87162500D01*
X74025000Y-86587500D01*
X74026144Y-86564221D01*
X74029563Y-86541166D01*
X74035227Y-86518557D01*
X74043079Y-86496613D01*
X74053044Y-86475543D01*
X74065026Y-86455552D01*
X74078910Y-86436832D01*
X74094562Y-86419562D01*
X74111832Y-86403910D01*
X74130552Y-86390026D01*
X74150543Y-86378044D01*
X74171613Y-86368079D01*
X74193557Y-86360227D01*
X74216166Y-86354563D01*
X74239221Y-86351144D01*
X74262500Y-86350000D01*
X74737500Y-86350000D01*
X74760779Y-86351144D01*
X74760779Y-86351144D01*
G37*
D12*
X74500000Y-86875000D03*
G04 #@! TD*
D11*
G04 #@! TO.C,C6*
G36*
X68760779Y-84601144D02*
X68783834Y-84604563D01*
X68806443Y-84610227D01*
X68828387Y-84618079D01*
X68849457Y-84628044D01*
X68869448Y-84640026D01*
X68888168Y-84653910D01*
X68905438Y-84669562D01*
X68921090Y-84686832D01*
X68934974Y-84705552D01*
X68946956Y-84725543D01*
X68956921Y-84746613D01*
X68964773Y-84768557D01*
X68970437Y-84791166D01*
X68973856Y-84814221D01*
X68975000Y-84837500D01*
X68975000Y-85412500D01*
X68973856Y-85435779D01*
X68970437Y-85458834D01*
X68964773Y-85481443D01*
X68956921Y-85503387D01*
X68946956Y-85524457D01*
X68934974Y-85544448D01*
X68921090Y-85563168D01*
X68905438Y-85580438D01*
X68888168Y-85596090D01*
X68869448Y-85609974D01*
X68849457Y-85621956D01*
X68828387Y-85631921D01*
X68806443Y-85639773D01*
X68783834Y-85645437D01*
X68760779Y-85648856D01*
X68737500Y-85650000D01*
X68262500Y-85650000D01*
X68239221Y-85648856D01*
X68216166Y-85645437D01*
X68193557Y-85639773D01*
X68171613Y-85631921D01*
X68150543Y-85621956D01*
X68130552Y-85609974D01*
X68111832Y-85596090D01*
X68094562Y-85580438D01*
X68078910Y-85563168D01*
X68065026Y-85544448D01*
X68053044Y-85524457D01*
X68043079Y-85503387D01*
X68035227Y-85481443D01*
X68029563Y-85458834D01*
X68026144Y-85435779D01*
X68025000Y-85412500D01*
X68025000Y-84837500D01*
X68026144Y-84814221D01*
X68029563Y-84791166D01*
X68035227Y-84768557D01*
X68043079Y-84746613D01*
X68053044Y-84725543D01*
X68065026Y-84705552D01*
X68078910Y-84686832D01*
X68094562Y-84669562D01*
X68111832Y-84653910D01*
X68130552Y-84640026D01*
X68150543Y-84628044D01*
X68171613Y-84618079D01*
X68193557Y-84610227D01*
X68216166Y-84604563D01*
X68239221Y-84601144D01*
X68262500Y-84600000D01*
X68737500Y-84600000D01*
X68760779Y-84601144D01*
X68760779Y-84601144D01*
G37*
D12*
X68500000Y-85125000D03*
D11*
G36*
X68760779Y-86351144D02*
X68783834Y-86354563D01*
X68806443Y-86360227D01*
X68828387Y-86368079D01*
X68849457Y-86378044D01*
X68869448Y-86390026D01*
X68888168Y-86403910D01*
X68905438Y-86419562D01*
X68921090Y-86436832D01*
X68934974Y-86455552D01*
X68946956Y-86475543D01*
X68956921Y-86496613D01*
X68964773Y-86518557D01*
X68970437Y-86541166D01*
X68973856Y-86564221D01*
X68975000Y-86587500D01*
X68975000Y-87162500D01*
X68973856Y-87185779D01*
X68970437Y-87208834D01*
X68964773Y-87231443D01*
X68956921Y-87253387D01*
X68946956Y-87274457D01*
X68934974Y-87294448D01*
X68921090Y-87313168D01*
X68905438Y-87330438D01*
X68888168Y-87346090D01*
X68869448Y-87359974D01*
X68849457Y-87371956D01*
X68828387Y-87381921D01*
X68806443Y-87389773D01*
X68783834Y-87395437D01*
X68760779Y-87398856D01*
X68737500Y-87400000D01*
X68262500Y-87400000D01*
X68239221Y-87398856D01*
X68216166Y-87395437D01*
X68193557Y-87389773D01*
X68171613Y-87381921D01*
X68150543Y-87371956D01*
X68130552Y-87359974D01*
X68111832Y-87346090D01*
X68094562Y-87330438D01*
X68078910Y-87313168D01*
X68065026Y-87294448D01*
X68053044Y-87274457D01*
X68043079Y-87253387D01*
X68035227Y-87231443D01*
X68029563Y-87208834D01*
X68026144Y-87185779D01*
X68025000Y-87162500D01*
X68025000Y-86587500D01*
X68026144Y-86564221D01*
X68029563Y-86541166D01*
X68035227Y-86518557D01*
X68043079Y-86496613D01*
X68053044Y-86475543D01*
X68065026Y-86455552D01*
X68078910Y-86436832D01*
X68094562Y-86419562D01*
X68111832Y-86403910D01*
X68130552Y-86390026D01*
X68150543Y-86378044D01*
X68171613Y-86368079D01*
X68193557Y-86360227D01*
X68216166Y-86354563D01*
X68239221Y-86351144D01*
X68262500Y-86350000D01*
X68737500Y-86350000D01*
X68760779Y-86351144D01*
X68760779Y-86351144D01*
G37*
D12*
X68500000Y-86875000D03*
G04 #@! TD*
D11*
G04 #@! TO.C,C7*
G36*
X71474505Y-50951204D02*
X71498773Y-50954804D01*
X71522572Y-50960765D01*
X71545671Y-50969030D01*
X71567850Y-50979520D01*
X71588893Y-50992132D01*
X71608599Y-51006747D01*
X71626777Y-51023223D01*
X71643253Y-51041401D01*
X71657868Y-51061107D01*
X71670480Y-51082150D01*
X71680970Y-51104329D01*
X71689235Y-51127428D01*
X71695196Y-51151227D01*
X71698796Y-51175495D01*
X71700000Y-51199999D01*
X71700000Y-51850001D01*
X71698796Y-51874505D01*
X71695196Y-51898773D01*
X71689235Y-51922572D01*
X71680970Y-51945671D01*
X71670480Y-51967850D01*
X71657868Y-51988893D01*
X71643253Y-52008599D01*
X71626777Y-52026777D01*
X71608599Y-52043253D01*
X71588893Y-52057868D01*
X71567850Y-52070480D01*
X71545671Y-52080970D01*
X71522572Y-52089235D01*
X71498773Y-52095196D01*
X71474505Y-52098796D01*
X71450001Y-52100000D01*
X70549999Y-52100000D01*
X70525495Y-52098796D01*
X70501227Y-52095196D01*
X70477428Y-52089235D01*
X70454329Y-52080970D01*
X70432150Y-52070480D01*
X70411107Y-52057868D01*
X70391401Y-52043253D01*
X70373223Y-52026777D01*
X70356747Y-52008599D01*
X70342132Y-51988893D01*
X70329520Y-51967850D01*
X70319030Y-51945671D01*
X70310765Y-51922572D01*
X70304804Y-51898773D01*
X70301204Y-51874505D01*
X70300000Y-51850001D01*
X70300000Y-51199999D01*
X70301204Y-51175495D01*
X70304804Y-51151227D01*
X70310765Y-51127428D01*
X70319030Y-51104329D01*
X70329520Y-51082150D01*
X70342132Y-51061107D01*
X70356747Y-51041401D01*
X70373223Y-51023223D01*
X70391401Y-51006747D01*
X70411107Y-50992132D01*
X70432150Y-50979520D01*
X70454329Y-50969030D01*
X70477428Y-50960765D01*
X70501227Y-50954804D01*
X70525495Y-50951204D01*
X70549999Y-50950000D01*
X71450001Y-50950000D01*
X71474505Y-50951204D01*
X71474505Y-50951204D01*
G37*
D13*
X71000000Y-51525000D03*
D11*
G36*
X71474505Y-48901204D02*
X71498773Y-48904804D01*
X71522572Y-48910765D01*
X71545671Y-48919030D01*
X71567850Y-48929520D01*
X71588893Y-48942132D01*
X71608599Y-48956747D01*
X71626777Y-48973223D01*
X71643253Y-48991401D01*
X71657868Y-49011107D01*
X71670480Y-49032150D01*
X71680970Y-49054329D01*
X71689235Y-49077428D01*
X71695196Y-49101227D01*
X71698796Y-49125495D01*
X71700000Y-49149999D01*
X71700000Y-49800001D01*
X71698796Y-49824505D01*
X71695196Y-49848773D01*
X71689235Y-49872572D01*
X71680970Y-49895671D01*
X71670480Y-49917850D01*
X71657868Y-49938893D01*
X71643253Y-49958599D01*
X71626777Y-49976777D01*
X71608599Y-49993253D01*
X71588893Y-50007868D01*
X71567850Y-50020480D01*
X71545671Y-50030970D01*
X71522572Y-50039235D01*
X71498773Y-50045196D01*
X71474505Y-50048796D01*
X71450001Y-50050000D01*
X70549999Y-50050000D01*
X70525495Y-50048796D01*
X70501227Y-50045196D01*
X70477428Y-50039235D01*
X70454329Y-50030970D01*
X70432150Y-50020480D01*
X70411107Y-50007868D01*
X70391401Y-49993253D01*
X70373223Y-49976777D01*
X70356747Y-49958599D01*
X70342132Y-49938893D01*
X70329520Y-49917850D01*
X70319030Y-49895671D01*
X70310765Y-49872572D01*
X70304804Y-49848773D01*
X70301204Y-49824505D01*
X70300000Y-49800001D01*
X70300000Y-49149999D01*
X70301204Y-49125495D01*
X70304804Y-49101227D01*
X70310765Y-49077428D01*
X70319030Y-49054329D01*
X70329520Y-49032150D01*
X70342132Y-49011107D01*
X70356747Y-48991401D01*
X70373223Y-48973223D01*
X70391401Y-48956747D01*
X70411107Y-48942132D01*
X70432150Y-48929520D01*
X70454329Y-48919030D01*
X70477428Y-48910765D01*
X70501227Y-48904804D01*
X70525495Y-48901204D01*
X70549999Y-48900000D01*
X71450001Y-48900000D01*
X71474505Y-48901204D01*
X71474505Y-48901204D01*
G37*
D13*
X71000000Y-49475000D03*
G04 #@! TD*
D11*
G04 #@! TO.C,C9*
G36*
X71474505Y-52901204D02*
X71498773Y-52904804D01*
X71522572Y-52910765D01*
X71545671Y-52919030D01*
X71567850Y-52929520D01*
X71588893Y-52942132D01*
X71608599Y-52956747D01*
X71626777Y-52973223D01*
X71643253Y-52991401D01*
X71657868Y-53011107D01*
X71670480Y-53032150D01*
X71680970Y-53054329D01*
X71689235Y-53077428D01*
X71695196Y-53101227D01*
X71698796Y-53125495D01*
X71700000Y-53149999D01*
X71700000Y-53800001D01*
X71698796Y-53824505D01*
X71695196Y-53848773D01*
X71689235Y-53872572D01*
X71680970Y-53895671D01*
X71670480Y-53917850D01*
X71657868Y-53938893D01*
X71643253Y-53958599D01*
X71626777Y-53976777D01*
X71608599Y-53993253D01*
X71588893Y-54007868D01*
X71567850Y-54020480D01*
X71545671Y-54030970D01*
X71522572Y-54039235D01*
X71498773Y-54045196D01*
X71474505Y-54048796D01*
X71450001Y-54050000D01*
X70549999Y-54050000D01*
X70525495Y-54048796D01*
X70501227Y-54045196D01*
X70477428Y-54039235D01*
X70454329Y-54030970D01*
X70432150Y-54020480D01*
X70411107Y-54007868D01*
X70391401Y-53993253D01*
X70373223Y-53976777D01*
X70356747Y-53958599D01*
X70342132Y-53938893D01*
X70329520Y-53917850D01*
X70319030Y-53895671D01*
X70310765Y-53872572D01*
X70304804Y-53848773D01*
X70301204Y-53824505D01*
X70300000Y-53800001D01*
X70300000Y-53149999D01*
X70301204Y-53125495D01*
X70304804Y-53101227D01*
X70310765Y-53077428D01*
X70319030Y-53054329D01*
X70329520Y-53032150D01*
X70342132Y-53011107D01*
X70356747Y-52991401D01*
X70373223Y-52973223D01*
X70391401Y-52956747D01*
X70411107Y-52942132D01*
X70432150Y-52929520D01*
X70454329Y-52919030D01*
X70477428Y-52910765D01*
X70501227Y-52904804D01*
X70525495Y-52901204D01*
X70549999Y-52900000D01*
X71450001Y-52900000D01*
X71474505Y-52901204D01*
X71474505Y-52901204D01*
G37*
D13*
X71000000Y-53475000D03*
D11*
G36*
X71474505Y-54951204D02*
X71498773Y-54954804D01*
X71522572Y-54960765D01*
X71545671Y-54969030D01*
X71567850Y-54979520D01*
X71588893Y-54992132D01*
X71608599Y-55006747D01*
X71626777Y-55023223D01*
X71643253Y-55041401D01*
X71657868Y-55061107D01*
X71670480Y-55082150D01*
X71680970Y-55104329D01*
X71689235Y-55127428D01*
X71695196Y-55151227D01*
X71698796Y-55175495D01*
X71700000Y-55199999D01*
X71700000Y-55850001D01*
X71698796Y-55874505D01*
X71695196Y-55898773D01*
X71689235Y-55922572D01*
X71680970Y-55945671D01*
X71670480Y-55967850D01*
X71657868Y-55988893D01*
X71643253Y-56008599D01*
X71626777Y-56026777D01*
X71608599Y-56043253D01*
X71588893Y-56057868D01*
X71567850Y-56070480D01*
X71545671Y-56080970D01*
X71522572Y-56089235D01*
X71498773Y-56095196D01*
X71474505Y-56098796D01*
X71450001Y-56100000D01*
X70549999Y-56100000D01*
X70525495Y-56098796D01*
X70501227Y-56095196D01*
X70477428Y-56089235D01*
X70454329Y-56080970D01*
X70432150Y-56070480D01*
X70411107Y-56057868D01*
X70391401Y-56043253D01*
X70373223Y-56026777D01*
X70356747Y-56008599D01*
X70342132Y-55988893D01*
X70329520Y-55967850D01*
X70319030Y-55945671D01*
X70310765Y-55922572D01*
X70304804Y-55898773D01*
X70301204Y-55874505D01*
X70300000Y-55850001D01*
X70300000Y-55199999D01*
X70301204Y-55175495D01*
X70304804Y-55151227D01*
X70310765Y-55127428D01*
X70319030Y-55104329D01*
X70329520Y-55082150D01*
X70342132Y-55061107D01*
X70356747Y-55041401D01*
X70373223Y-55023223D01*
X70391401Y-55006747D01*
X70411107Y-54992132D01*
X70432150Y-54979520D01*
X70454329Y-54969030D01*
X70477428Y-54960765D01*
X70501227Y-54954804D01*
X70525495Y-54951204D01*
X70549999Y-54950000D01*
X71450001Y-54950000D01*
X71474505Y-54951204D01*
X71474505Y-54951204D01*
G37*
D13*
X71000000Y-55525000D03*
G04 #@! TD*
D11*
G04 #@! TO.C,C10*
G36*
X78874505Y-93301204D02*
X78898773Y-93304804D01*
X78922572Y-93310765D01*
X78945671Y-93319030D01*
X78967850Y-93329520D01*
X78988893Y-93342132D01*
X79008599Y-93356747D01*
X79026777Y-93373223D01*
X79043253Y-93391401D01*
X79057868Y-93411107D01*
X79070480Y-93432150D01*
X79080970Y-93454329D01*
X79089235Y-93477428D01*
X79095196Y-93501227D01*
X79098796Y-93525495D01*
X79100000Y-93549999D01*
X79100000Y-94450001D01*
X79098796Y-94474505D01*
X79095196Y-94498773D01*
X79089235Y-94522572D01*
X79080970Y-94545671D01*
X79070480Y-94567850D01*
X79057868Y-94588893D01*
X79043253Y-94608599D01*
X79026777Y-94626777D01*
X79008599Y-94643253D01*
X78988893Y-94657868D01*
X78967850Y-94670480D01*
X78945671Y-94680970D01*
X78922572Y-94689235D01*
X78898773Y-94695196D01*
X78874505Y-94698796D01*
X78850001Y-94700000D01*
X78199999Y-94700000D01*
X78175495Y-94698796D01*
X78151227Y-94695196D01*
X78127428Y-94689235D01*
X78104329Y-94680970D01*
X78082150Y-94670480D01*
X78061107Y-94657868D01*
X78041401Y-94643253D01*
X78023223Y-94626777D01*
X78006747Y-94608599D01*
X77992132Y-94588893D01*
X77979520Y-94567850D01*
X77969030Y-94545671D01*
X77960765Y-94522572D01*
X77954804Y-94498773D01*
X77951204Y-94474505D01*
X77950000Y-94450001D01*
X77950000Y-93549999D01*
X77951204Y-93525495D01*
X77954804Y-93501227D01*
X77960765Y-93477428D01*
X77969030Y-93454329D01*
X77979520Y-93432150D01*
X77992132Y-93411107D01*
X78006747Y-93391401D01*
X78023223Y-93373223D01*
X78041401Y-93356747D01*
X78061107Y-93342132D01*
X78082150Y-93329520D01*
X78104329Y-93319030D01*
X78127428Y-93310765D01*
X78151227Y-93304804D01*
X78175495Y-93301204D01*
X78199999Y-93300000D01*
X78850001Y-93300000D01*
X78874505Y-93301204D01*
X78874505Y-93301204D01*
G37*
D13*
X78525000Y-94000000D03*
D11*
G36*
X76824505Y-93301204D02*
X76848773Y-93304804D01*
X76872572Y-93310765D01*
X76895671Y-93319030D01*
X76917850Y-93329520D01*
X76938893Y-93342132D01*
X76958599Y-93356747D01*
X76976777Y-93373223D01*
X76993253Y-93391401D01*
X77007868Y-93411107D01*
X77020480Y-93432150D01*
X77030970Y-93454329D01*
X77039235Y-93477428D01*
X77045196Y-93501227D01*
X77048796Y-93525495D01*
X77050000Y-93549999D01*
X77050000Y-94450001D01*
X77048796Y-94474505D01*
X77045196Y-94498773D01*
X77039235Y-94522572D01*
X77030970Y-94545671D01*
X77020480Y-94567850D01*
X77007868Y-94588893D01*
X76993253Y-94608599D01*
X76976777Y-94626777D01*
X76958599Y-94643253D01*
X76938893Y-94657868D01*
X76917850Y-94670480D01*
X76895671Y-94680970D01*
X76872572Y-94689235D01*
X76848773Y-94695196D01*
X76824505Y-94698796D01*
X76800001Y-94700000D01*
X76149999Y-94700000D01*
X76125495Y-94698796D01*
X76101227Y-94695196D01*
X76077428Y-94689235D01*
X76054329Y-94680970D01*
X76032150Y-94670480D01*
X76011107Y-94657868D01*
X75991401Y-94643253D01*
X75973223Y-94626777D01*
X75956747Y-94608599D01*
X75942132Y-94588893D01*
X75929520Y-94567850D01*
X75919030Y-94545671D01*
X75910765Y-94522572D01*
X75904804Y-94498773D01*
X75901204Y-94474505D01*
X75900000Y-94450001D01*
X75900000Y-93549999D01*
X75901204Y-93525495D01*
X75904804Y-93501227D01*
X75910765Y-93477428D01*
X75919030Y-93454329D01*
X75929520Y-93432150D01*
X75942132Y-93411107D01*
X75956747Y-93391401D01*
X75973223Y-93373223D01*
X75991401Y-93356747D01*
X76011107Y-93342132D01*
X76032150Y-93329520D01*
X76054329Y-93319030D01*
X76077428Y-93310765D01*
X76101227Y-93304804D01*
X76125495Y-93301204D01*
X76149999Y-93300000D01*
X76800001Y-93300000D01*
X76824505Y-93301204D01*
X76824505Y-93301204D01*
G37*
D13*
X76475000Y-94000000D03*
G04 #@! TD*
D11*
G04 #@! TO.C,C11*
G36*
X81324505Y-93301204D02*
X81348773Y-93304804D01*
X81372572Y-93310765D01*
X81395671Y-93319030D01*
X81417850Y-93329520D01*
X81438893Y-93342132D01*
X81458599Y-93356747D01*
X81476777Y-93373223D01*
X81493253Y-93391401D01*
X81507868Y-93411107D01*
X81520480Y-93432150D01*
X81530970Y-93454329D01*
X81539235Y-93477428D01*
X81545196Y-93501227D01*
X81548796Y-93525495D01*
X81550000Y-93549999D01*
X81550000Y-94450001D01*
X81548796Y-94474505D01*
X81545196Y-94498773D01*
X81539235Y-94522572D01*
X81530970Y-94545671D01*
X81520480Y-94567850D01*
X81507868Y-94588893D01*
X81493253Y-94608599D01*
X81476777Y-94626777D01*
X81458599Y-94643253D01*
X81438893Y-94657868D01*
X81417850Y-94670480D01*
X81395671Y-94680970D01*
X81372572Y-94689235D01*
X81348773Y-94695196D01*
X81324505Y-94698796D01*
X81300001Y-94700000D01*
X80649999Y-94700000D01*
X80625495Y-94698796D01*
X80601227Y-94695196D01*
X80577428Y-94689235D01*
X80554329Y-94680970D01*
X80532150Y-94670480D01*
X80511107Y-94657868D01*
X80491401Y-94643253D01*
X80473223Y-94626777D01*
X80456747Y-94608599D01*
X80442132Y-94588893D01*
X80429520Y-94567850D01*
X80419030Y-94545671D01*
X80410765Y-94522572D01*
X80404804Y-94498773D01*
X80401204Y-94474505D01*
X80400000Y-94450001D01*
X80400000Y-93549999D01*
X80401204Y-93525495D01*
X80404804Y-93501227D01*
X80410765Y-93477428D01*
X80419030Y-93454329D01*
X80429520Y-93432150D01*
X80442132Y-93411107D01*
X80456747Y-93391401D01*
X80473223Y-93373223D01*
X80491401Y-93356747D01*
X80511107Y-93342132D01*
X80532150Y-93329520D01*
X80554329Y-93319030D01*
X80577428Y-93310765D01*
X80601227Y-93304804D01*
X80625495Y-93301204D01*
X80649999Y-93300000D01*
X81300001Y-93300000D01*
X81324505Y-93301204D01*
X81324505Y-93301204D01*
G37*
D13*
X80975000Y-94000000D03*
D11*
G36*
X83374505Y-93301204D02*
X83398773Y-93304804D01*
X83422572Y-93310765D01*
X83445671Y-93319030D01*
X83467850Y-93329520D01*
X83488893Y-93342132D01*
X83508599Y-93356747D01*
X83526777Y-93373223D01*
X83543253Y-93391401D01*
X83557868Y-93411107D01*
X83570480Y-93432150D01*
X83580970Y-93454329D01*
X83589235Y-93477428D01*
X83595196Y-93501227D01*
X83598796Y-93525495D01*
X83600000Y-93549999D01*
X83600000Y-94450001D01*
X83598796Y-94474505D01*
X83595196Y-94498773D01*
X83589235Y-94522572D01*
X83580970Y-94545671D01*
X83570480Y-94567850D01*
X83557868Y-94588893D01*
X83543253Y-94608599D01*
X83526777Y-94626777D01*
X83508599Y-94643253D01*
X83488893Y-94657868D01*
X83467850Y-94670480D01*
X83445671Y-94680970D01*
X83422572Y-94689235D01*
X83398773Y-94695196D01*
X83374505Y-94698796D01*
X83350001Y-94700000D01*
X82699999Y-94700000D01*
X82675495Y-94698796D01*
X82651227Y-94695196D01*
X82627428Y-94689235D01*
X82604329Y-94680970D01*
X82582150Y-94670480D01*
X82561107Y-94657868D01*
X82541401Y-94643253D01*
X82523223Y-94626777D01*
X82506747Y-94608599D01*
X82492132Y-94588893D01*
X82479520Y-94567850D01*
X82469030Y-94545671D01*
X82460765Y-94522572D01*
X82454804Y-94498773D01*
X82451204Y-94474505D01*
X82450000Y-94450001D01*
X82450000Y-93549999D01*
X82451204Y-93525495D01*
X82454804Y-93501227D01*
X82460765Y-93477428D01*
X82469030Y-93454329D01*
X82479520Y-93432150D01*
X82492132Y-93411107D01*
X82506747Y-93391401D01*
X82523223Y-93373223D01*
X82541401Y-93356747D01*
X82561107Y-93342132D01*
X82582150Y-93329520D01*
X82604329Y-93319030D01*
X82627428Y-93310765D01*
X82651227Y-93304804D01*
X82675495Y-93301204D01*
X82699999Y-93300000D01*
X83350001Y-93300000D01*
X83374505Y-93301204D01*
X83374505Y-93301204D01*
G37*
D13*
X83025000Y-94000000D03*
G04 #@! TD*
D14*
G04 #@! TO.C,Q1*
X73500000Y-63500000D03*
X72550000Y-60500000D03*
X74450000Y-60500000D03*
G04 #@! TD*
G04 #@! TO.C,Q2*
X72550000Y-82500000D03*
X74450000Y-82500000D03*
X73500000Y-79500000D03*
G04 #@! TD*
D11*
G04 #@! TO.C,R1*
G36*
X85260779Y-93851144D02*
X85283834Y-93854563D01*
X85306443Y-93860227D01*
X85328387Y-93868079D01*
X85349457Y-93878044D01*
X85369448Y-93890026D01*
X85388168Y-93903910D01*
X85405438Y-93919562D01*
X85421090Y-93936832D01*
X85434974Y-93955552D01*
X85446956Y-93975543D01*
X85456921Y-93996613D01*
X85464773Y-94018557D01*
X85470437Y-94041166D01*
X85473856Y-94064221D01*
X85475000Y-94087500D01*
X85475000Y-94662500D01*
X85473856Y-94685779D01*
X85470437Y-94708834D01*
X85464773Y-94731443D01*
X85456921Y-94753387D01*
X85446956Y-94774457D01*
X85434974Y-94794448D01*
X85421090Y-94813168D01*
X85405438Y-94830438D01*
X85388168Y-94846090D01*
X85369448Y-94859974D01*
X85349457Y-94871956D01*
X85328387Y-94881921D01*
X85306443Y-94889773D01*
X85283834Y-94895437D01*
X85260779Y-94898856D01*
X85237500Y-94900000D01*
X84762500Y-94900000D01*
X84739221Y-94898856D01*
X84716166Y-94895437D01*
X84693557Y-94889773D01*
X84671613Y-94881921D01*
X84650543Y-94871956D01*
X84630552Y-94859974D01*
X84611832Y-94846090D01*
X84594562Y-94830438D01*
X84578910Y-94813168D01*
X84565026Y-94794448D01*
X84553044Y-94774457D01*
X84543079Y-94753387D01*
X84535227Y-94731443D01*
X84529563Y-94708834D01*
X84526144Y-94685779D01*
X84525000Y-94662500D01*
X84525000Y-94087500D01*
X84526144Y-94064221D01*
X84529563Y-94041166D01*
X84535227Y-94018557D01*
X84543079Y-93996613D01*
X84553044Y-93975543D01*
X84565026Y-93955552D01*
X84578910Y-93936832D01*
X84594562Y-93919562D01*
X84611832Y-93903910D01*
X84630552Y-93890026D01*
X84650543Y-93878044D01*
X84671613Y-93868079D01*
X84693557Y-93860227D01*
X84716166Y-93854563D01*
X84739221Y-93851144D01*
X84762500Y-93850000D01*
X85237500Y-93850000D01*
X85260779Y-93851144D01*
X85260779Y-93851144D01*
G37*
D12*
X85000000Y-94375000D03*
D11*
G36*
X85260779Y-92101144D02*
X85283834Y-92104563D01*
X85306443Y-92110227D01*
X85328387Y-92118079D01*
X85349457Y-92128044D01*
X85369448Y-92140026D01*
X85388168Y-92153910D01*
X85405438Y-92169562D01*
X85421090Y-92186832D01*
X85434974Y-92205552D01*
X85446956Y-92225543D01*
X85456921Y-92246613D01*
X85464773Y-92268557D01*
X85470437Y-92291166D01*
X85473856Y-92314221D01*
X85475000Y-92337500D01*
X85475000Y-92912500D01*
X85473856Y-92935779D01*
X85470437Y-92958834D01*
X85464773Y-92981443D01*
X85456921Y-93003387D01*
X85446956Y-93024457D01*
X85434974Y-93044448D01*
X85421090Y-93063168D01*
X85405438Y-93080438D01*
X85388168Y-93096090D01*
X85369448Y-93109974D01*
X85349457Y-93121956D01*
X85328387Y-93131921D01*
X85306443Y-93139773D01*
X85283834Y-93145437D01*
X85260779Y-93148856D01*
X85237500Y-93150000D01*
X84762500Y-93150000D01*
X84739221Y-93148856D01*
X84716166Y-93145437D01*
X84693557Y-93139773D01*
X84671613Y-93131921D01*
X84650543Y-93121956D01*
X84630552Y-93109974D01*
X84611832Y-93096090D01*
X84594562Y-93080438D01*
X84578910Y-93063168D01*
X84565026Y-93044448D01*
X84553044Y-93024457D01*
X84543079Y-93003387D01*
X84535227Y-92981443D01*
X84529563Y-92958834D01*
X84526144Y-92935779D01*
X84525000Y-92912500D01*
X84525000Y-92337500D01*
X84526144Y-92314221D01*
X84529563Y-92291166D01*
X84535227Y-92268557D01*
X84543079Y-92246613D01*
X84553044Y-92225543D01*
X84565026Y-92205552D01*
X84578910Y-92186832D01*
X84594562Y-92169562D01*
X84611832Y-92153910D01*
X84630552Y-92140026D01*
X84650543Y-92128044D01*
X84671613Y-92118079D01*
X84693557Y-92110227D01*
X84716166Y-92104563D01*
X84739221Y-92101144D01*
X84762500Y-92100000D01*
X85237500Y-92100000D01*
X85260779Y-92101144D01*
X85260779Y-92101144D01*
G37*
D12*
X85000000Y-92625000D03*
G04 #@! TD*
D11*
G04 #@! TO.C,R2*
G36*
X65435779Y-62526144D02*
X65458834Y-62529563D01*
X65481443Y-62535227D01*
X65503387Y-62543079D01*
X65524457Y-62553044D01*
X65544448Y-62565026D01*
X65563168Y-62578910D01*
X65580438Y-62594562D01*
X65596090Y-62611832D01*
X65609974Y-62630552D01*
X65621956Y-62650543D01*
X65631921Y-62671613D01*
X65639773Y-62693557D01*
X65645437Y-62716166D01*
X65648856Y-62739221D01*
X65650000Y-62762500D01*
X65650000Y-63237500D01*
X65648856Y-63260779D01*
X65645437Y-63283834D01*
X65639773Y-63306443D01*
X65631921Y-63328387D01*
X65621956Y-63349457D01*
X65609974Y-63369448D01*
X65596090Y-63388168D01*
X65580438Y-63405438D01*
X65563168Y-63421090D01*
X65544448Y-63434974D01*
X65524457Y-63446956D01*
X65503387Y-63456921D01*
X65481443Y-63464773D01*
X65458834Y-63470437D01*
X65435779Y-63473856D01*
X65412500Y-63475000D01*
X64837500Y-63475000D01*
X64814221Y-63473856D01*
X64791166Y-63470437D01*
X64768557Y-63464773D01*
X64746613Y-63456921D01*
X64725543Y-63446956D01*
X64705552Y-63434974D01*
X64686832Y-63421090D01*
X64669562Y-63405438D01*
X64653910Y-63388168D01*
X64640026Y-63369448D01*
X64628044Y-63349457D01*
X64618079Y-63328387D01*
X64610227Y-63306443D01*
X64604563Y-63283834D01*
X64601144Y-63260779D01*
X64600000Y-63237500D01*
X64600000Y-62762500D01*
X64601144Y-62739221D01*
X64604563Y-62716166D01*
X64610227Y-62693557D01*
X64618079Y-62671613D01*
X64628044Y-62650543D01*
X64640026Y-62630552D01*
X64653910Y-62611832D01*
X64669562Y-62594562D01*
X64686832Y-62578910D01*
X64705552Y-62565026D01*
X64725543Y-62553044D01*
X64746613Y-62543079D01*
X64768557Y-62535227D01*
X64791166Y-62529563D01*
X64814221Y-62526144D01*
X64837500Y-62525000D01*
X65412500Y-62525000D01*
X65435779Y-62526144D01*
X65435779Y-62526144D01*
G37*
D12*
X65125000Y-63000000D03*
D11*
G36*
X67185779Y-62526144D02*
X67208834Y-62529563D01*
X67231443Y-62535227D01*
X67253387Y-62543079D01*
X67274457Y-62553044D01*
X67294448Y-62565026D01*
X67313168Y-62578910D01*
X67330438Y-62594562D01*
X67346090Y-62611832D01*
X67359974Y-62630552D01*
X67371956Y-62650543D01*
X67381921Y-62671613D01*
X67389773Y-62693557D01*
X67395437Y-62716166D01*
X67398856Y-62739221D01*
X67400000Y-62762500D01*
X67400000Y-63237500D01*
X67398856Y-63260779D01*
X67395437Y-63283834D01*
X67389773Y-63306443D01*
X67381921Y-63328387D01*
X67371956Y-63349457D01*
X67359974Y-63369448D01*
X67346090Y-63388168D01*
X67330438Y-63405438D01*
X67313168Y-63421090D01*
X67294448Y-63434974D01*
X67274457Y-63446956D01*
X67253387Y-63456921D01*
X67231443Y-63464773D01*
X67208834Y-63470437D01*
X67185779Y-63473856D01*
X67162500Y-63475000D01*
X66587500Y-63475000D01*
X66564221Y-63473856D01*
X66541166Y-63470437D01*
X66518557Y-63464773D01*
X66496613Y-63456921D01*
X66475543Y-63446956D01*
X66455552Y-63434974D01*
X66436832Y-63421090D01*
X66419562Y-63405438D01*
X66403910Y-63388168D01*
X66390026Y-63369448D01*
X66378044Y-63349457D01*
X66368079Y-63328387D01*
X66360227Y-63306443D01*
X66354563Y-63283834D01*
X66351144Y-63260779D01*
X66350000Y-63237500D01*
X66350000Y-62762500D01*
X66351144Y-62739221D01*
X66354563Y-62716166D01*
X66360227Y-62693557D01*
X66368079Y-62671613D01*
X66378044Y-62650543D01*
X66390026Y-62630552D01*
X66403910Y-62611832D01*
X66419562Y-62594562D01*
X66436832Y-62578910D01*
X66455552Y-62565026D01*
X66475543Y-62553044D01*
X66496613Y-62543079D01*
X66518557Y-62535227D01*
X66541166Y-62529563D01*
X66564221Y-62526144D01*
X66587500Y-62525000D01*
X67162500Y-62525000D01*
X67185779Y-62526144D01*
X67185779Y-62526144D01*
G37*
D12*
X66875000Y-63000000D03*
G04 #@! TD*
D11*
G04 #@! TO.C,R3*
G36*
X70760779Y-85601144D02*
X70783834Y-85604563D01*
X70806443Y-85610227D01*
X70828387Y-85618079D01*
X70849457Y-85628044D01*
X70869448Y-85640026D01*
X70888168Y-85653910D01*
X70905438Y-85669562D01*
X70921090Y-85686832D01*
X70934974Y-85705552D01*
X70946956Y-85725543D01*
X70956921Y-85746613D01*
X70964773Y-85768557D01*
X70970437Y-85791166D01*
X70973856Y-85814221D01*
X70975000Y-85837500D01*
X70975000Y-86412500D01*
X70973856Y-86435779D01*
X70970437Y-86458834D01*
X70964773Y-86481443D01*
X70956921Y-86503387D01*
X70946956Y-86524457D01*
X70934974Y-86544448D01*
X70921090Y-86563168D01*
X70905438Y-86580438D01*
X70888168Y-86596090D01*
X70869448Y-86609974D01*
X70849457Y-86621956D01*
X70828387Y-86631921D01*
X70806443Y-86639773D01*
X70783834Y-86645437D01*
X70760779Y-86648856D01*
X70737500Y-86650000D01*
X70262500Y-86650000D01*
X70239221Y-86648856D01*
X70216166Y-86645437D01*
X70193557Y-86639773D01*
X70171613Y-86631921D01*
X70150543Y-86621956D01*
X70130552Y-86609974D01*
X70111832Y-86596090D01*
X70094562Y-86580438D01*
X70078910Y-86563168D01*
X70065026Y-86544448D01*
X70053044Y-86524457D01*
X70043079Y-86503387D01*
X70035227Y-86481443D01*
X70029563Y-86458834D01*
X70026144Y-86435779D01*
X70025000Y-86412500D01*
X70025000Y-85837500D01*
X70026144Y-85814221D01*
X70029563Y-85791166D01*
X70035227Y-85768557D01*
X70043079Y-85746613D01*
X70053044Y-85725543D01*
X70065026Y-85705552D01*
X70078910Y-85686832D01*
X70094562Y-85669562D01*
X70111832Y-85653910D01*
X70130552Y-85640026D01*
X70150543Y-85628044D01*
X70171613Y-85618079D01*
X70193557Y-85610227D01*
X70216166Y-85604563D01*
X70239221Y-85601144D01*
X70262500Y-85600000D01*
X70737500Y-85600000D01*
X70760779Y-85601144D01*
X70760779Y-85601144D01*
G37*
D12*
X70500000Y-86125000D03*
D11*
G36*
X70760779Y-87351144D02*
X70783834Y-87354563D01*
X70806443Y-87360227D01*
X70828387Y-87368079D01*
X70849457Y-87378044D01*
X70869448Y-87390026D01*
X70888168Y-87403910D01*
X70905438Y-87419562D01*
X70921090Y-87436832D01*
X70934974Y-87455552D01*
X70946956Y-87475543D01*
X70956921Y-87496613D01*
X70964773Y-87518557D01*
X70970437Y-87541166D01*
X70973856Y-87564221D01*
X70975000Y-87587500D01*
X70975000Y-88162500D01*
X70973856Y-88185779D01*
X70970437Y-88208834D01*
X70964773Y-88231443D01*
X70956921Y-88253387D01*
X70946956Y-88274457D01*
X70934974Y-88294448D01*
X70921090Y-88313168D01*
X70905438Y-88330438D01*
X70888168Y-88346090D01*
X70869448Y-88359974D01*
X70849457Y-88371956D01*
X70828387Y-88381921D01*
X70806443Y-88389773D01*
X70783834Y-88395437D01*
X70760779Y-88398856D01*
X70737500Y-88400000D01*
X70262500Y-88400000D01*
X70239221Y-88398856D01*
X70216166Y-88395437D01*
X70193557Y-88389773D01*
X70171613Y-88381921D01*
X70150543Y-88371956D01*
X70130552Y-88359974D01*
X70111832Y-88346090D01*
X70094562Y-88330438D01*
X70078910Y-88313168D01*
X70065026Y-88294448D01*
X70053044Y-88274457D01*
X70043079Y-88253387D01*
X70035227Y-88231443D01*
X70029563Y-88208834D01*
X70026144Y-88185779D01*
X70025000Y-88162500D01*
X70025000Y-87587500D01*
X70026144Y-87564221D01*
X70029563Y-87541166D01*
X70035227Y-87518557D01*
X70043079Y-87496613D01*
X70053044Y-87475543D01*
X70065026Y-87455552D01*
X70078910Y-87436832D01*
X70094562Y-87419562D01*
X70111832Y-87403910D01*
X70130552Y-87390026D01*
X70150543Y-87378044D01*
X70171613Y-87368079D01*
X70193557Y-87360227D01*
X70216166Y-87354563D01*
X70239221Y-87351144D01*
X70262500Y-87350000D01*
X70737500Y-87350000D01*
X70760779Y-87351144D01*
X70760779Y-87351144D01*
G37*
D12*
X70500000Y-87875000D03*
G04 #@! TD*
D11*
G04 #@! TO.C,R4*
G36*
X67260779Y-64601144D02*
X67283834Y-64604563D01*
X67306443Y-64610227D01*
X67328387Y-64618079D01*
X67349457Y-64628044D01*
X67369448Y-64640026D01*
X67388168Y-64653910D01*
X67405438Y-64669562D01*
X67421090Y-64686832D01*
X67434974Y-64705552D01*
X67446956Y-64725543D01*
X67456921Y-64746613D01*
X67464773Y-64768557D01*
X67470437Y-64791166D01*
X67473856Y-64814221D01*
X67475000Y-64837500D01*
X67475000Y-65412500D01*
X67473856Y-65435779D01*
X67470437Y-65458834D01*
X67464773Y-65481443D01*
X67456921Y-65503387D01*
X67446956Y-65524457D01*
X67434974Y-65544448D01*
X67421090Y-65563168D01*
X67405438Y-65580438D01*
X67388168Y-65596090D01*
X67369448Y-65609974D01*
X67349457Y-65621956D01*
X67328387Y-65631921D01*
X67306443Y-65639773D01*
X67283834Y-65645437D01*
X67260779Y-65648856D01*
X67237500Y-65650000D01*
X66762500Y-65650000D01*
X66739221Y-65648856D01*
X66716166Y-65645437D01*
X66693557Y-65639773D01*
X66671613Y-65631921D01*
X66650543Y-65621956D01*
X66630552Y-65609974D01*
X66611832Y-65596090D01*
X66594562Y-65580438D01*
X66578910Y-65563168D01*
X66565026Y-65544448D01*
X66553044Y-65524457D01*
X66543079Y-65503387D01*
X66535227Y-65481443D01*
X66529563Y-65458834D01*
X66526144Y-65435779D01*
X66525000Y-65412500D01*
X66525000Y-64837500D01*
X66526144Y-64814221D01*
X66529563Y-64791166D01*
X66535227Y-64768557D01*
X66543079Y-64746613D01*
X66553044Y-64725543D01*
X66565026Y-64705552D01*
X66578910Y-64686832D01*
X66594562Y-64669562D01*
X66611832Y-64653910D01*
X66630552Y-64640026D01*
X66650543Y-64628044D01*
X66671613Y-64618079D01*
X66693557Y-64610227D01*
X66716166Y-64604563D01*
X66739221Y-64601144D01*
X66762500Y-64600000D01*
X67237500Y-64600000D01*
X67260779Y-64601144D01*
X67260779Y-64601144D01*
G37*
D12*
X67000000Y-65125000D03*
D11*
G36*
X67260779Y-66351144D02*
X67283834Y-66354563D01*
X67306443Y-66360227D01*
X67328387Y-66368079D01*
X67349457Y-66378044D01*
X67369448Y-66390026D01*
X67388168Y-66403910D01*
X67405438Y-66419562D01*
X67421090Y-66436832D01*
X67434974Y-66455552D01*
X67446956Y-66475543D01*
X67456921Y-66496613D01*
X67464773Y-66518557D01*
X67470437Y-66541166D01*
X67473856Y-66564221D01*
X67475000Y-66587500D01*
X67475000Y-67162500D01*
X67473856Y-67185779D01*
X67470437Y-67208834D01*
X67464773Y-67231443D01*
X67456921Y-67253387D01*
X67446956Y-67274457D01*
X67434974Y-67294448D01*
X67421090Y-67313168D01*
X67405438Y-67330438D01*
X67388168Y-67346090D01*
X67369448Y-67359974D01*
X67349457Y-67371956D01*
X67328387Y-67381921D01*
X67306443Y-67389773D01*
X67283834Y-67395437D01*
X67260779Y-67398856D01*
X67237500Y-67400000D01*
X66762500Y-67400000D01*
X66739221Y-67398856D01*
X66716166Y-67395437D01*
X66693557Y-67389773D01*
X66671613Y-67381921D01*
X66650543Y-67371956D01*
X66630552Y-67359974D01*
X66611832Y-67346090D01*
X66594562Y-67330438D01*
X66578910Y-67313168D01*
X66565026Y-67294448D01*
X66553044Y-67274457D01*
X66543079Y-67253387D01*
X66535227Y-67231443D01*
X66529563Y-67208834D01*
X66526144Y-67185779D01*
X66525000Y-67162500D01*
X66525000Y-66587500D01*
X66526144Y-66564221D01*
X66529563Y-66541166D01*
X66535227Y-66518557D01*
X66543079Y-66496613D01*
X66553044Y-66475543D01*
X66565026Y-66455552D01*
X66578910Y-66436832D01*
X66594562Y-66419562D01*
X66611832Y-66403910D01*
X66630552Y-66390026D01*
X66650543Y-66378044D01*
X66671613Y-66368079D01*
X66693557Y-66360227D01*
X66716166Y-66354563D01*
X66739221Y-66351144D01*
X66762500Y-66350000D01*
X67237500Y-66350000D01*
X67260779Y-66351144D01*
X67260779Y-66351144D01*
G37*
D12*
X67000000Y-66875000D03*
G04 #@! TD*
D11*
G04 #@! TO.C,R5*
G36*
X69260779Y-64601144D02*
X69283834Y-64604563D01*
X69306443Y-64610227D01*
X69328387Y-64618079D01*
X69349457Y-64628044D01*
X69369448Y-64640026D01*
X69388168Y-64653910D01*
X69405438Y-64669562D01*
X69421090Y-64686832D01*
X69434974Y-64705552D01*
X69446956Y-64725543D01*
X69456921Y-64746613D01*
X69464773Y-64768557D01*
X69470437Y-64791166D01*
X69473856Y-64814221D01*
X69475000Y-64837500D01*
X69475000Y-65412500D01*
X69473856Y-65435779D01*
X69470437Y-65458834D01*
X69464773Y-65481443D01*
X69456921Y-65503387D01*
X69446956Y-65524457D01*
X69434974Y-65544448D01*
X69421090Y-65563168D01*
X69405438Y-65580438D01*
X69388168Y-65596090D01*
X69369448Y-65609974D01*
X69349457Y-65621956D01*
X69328387Y-65631921D01*
X69306443Y-65639773D01*
X69283834Y-65645437D01*
X69260779Y-65648856D01*
X69237500Y-65650000D01*
X68762500Y-65650000D01*
X68739221Y-65648856D01*
X68716166Y-65645437D01*
X68693557Y-65639773D01*
X68671613Y-65631921D01*
X68650543Y-65621956D01*
X68630552Y-65609974D01*
X68611832Y-65596090D01*
X68594562Y-65580438D01*
X68578910Y-65563168D01*
X68565026Y-65544448D01*
X68553044Y-65524457D01*
X68543079Y-65503387D01*
X68535227Y-65481443D01*
X68529563Y-65458834D01*
X68526144Y-65435779D01*
X68525000Y-65412500D01*
X68525000Y-64837500D01*
X68526144Y-64814221D01*
X68529563Y-64791166D01*
X68535227Y-64768557D01*
X68543079Y-64746613D01*
X68553044Y-64725543D01*
X68565026Y-64705552D01*
X68578910Y-64686832D01*
X68594562Y-64669562D01*
X68611832Y-64653910D01*
X68630552Y-64640026D01*
X68650543Y-64628044D01*
X68671613Y-64618079D01*
X68693557Y-64610227D01*
X68716166Y-64604563D01*
X68739221Y-64601144D01*
X68762500Y-64600000D01*
X69237500Y-64600000D01*
X69260779Y-64601144D01*
X69260779Y-64601144D01*
G37*
D12*
X69000000Y-65125000D03*
D11*
G36*
X69260779Y-66351144D02*
X69283834Y-66354563D01*
X69306443Y-66360227D01*
X69328387Y-66368079D01*
X69349457Y-66378044D01*
X69369448Y-66390026D01*
X69388168Y-66403910D01*
X69405438Y-66419562D01*
X69421090Y-66436832D01*
X69434974Y-66455552D01*
X69446956Y-66475543D01*
X69456921Y-66496613D01*
X69464773Y-66518557D01*
X69470437Y-66541166D01*
X69473856Y-66564221D01*
X69475000Y-66587500D01*
X69475000Y-67162500D01*
X69473856Y-67185779D01*
X69470437Y-67208834D01*
X69464773Y-67231443D01*
X69456921Y-67253387D01*
X69446956Y-67274457D01*
X69434974Y-67294448D01*
X69421090Y-67313168D01*
X69405438Y-67330438D01*
X69388168Y-67346090D01*
X69369448Y-67359974D01*
X69349457Y-67371956D01*
X69328387Y-67381921D01*
X69306443Y-67389773D01*
X69283834Y-67395437D01*
X69260779Y-67398856D01*
X69237500Y-67400000D01*
X68762500Y-67400000D01*
X68739221Y-67398856D01*
X68716166Y-67395437D01*
X68693557Y-67389773D01*
X68671613Y-67381921D01*
X68650543Y-67371956D01*
X68630552Y-67359974D01*
X68611832Y-67346090D01*
X68594562Y-67330438D01*
X68578910Y-67313168D01*
X68565026Y-67294448D01*
X68553044Y-67274457D01*
X68543079Y-67253387D01*
X68535227Y-67231443D01*
X68529563Y-67208834D01*
X68526144Y-67185779D01*
X68525000Y-67162500D01*
X68525000Y-66587500D01*
X68526144Y-66564221D01*
X68529563Y-66541166D01*
X68535227Y-66518557D01*
X68543079Y-66496613D01*
X68553044Y-66475543D01*
X68565026Y-66455552D01*
X68578910Y-66436832D01*
X68594562Y-66419562D01*
X68611832Y-66403910D01*
X68630552Y-66390026D01*
X68650543Y-66378044D01*
X68671613Y-66368079D01*
X68693557Y-66360227D01*
X68716166Y-66354563D01*
X68739221Y-66351144D01*
X68762500Y-66350000D01*
X69237500Y-66350000D01*
X69260779Y-66351144D01*
X69260779Y-66351144D01*
G37*
D12*
X69000000Y-66875000D03*
G04 #@! TD*
D11*
G04 #@! TO.C,R6*
G36*
X72760779Y-92351144D02*
X72783834Y-92354563D01*
X72806443Y-92360227D01*
X72828387Y-92368079D01*
X72849457Y-92378044D01*
X72869448Y-92390026D01*
X72888168Y-92403910D01*
X72905438Y-92419562D01*
X72921090Y-92436832D01*
X72934974Y-92455552D01*
X72946956Y-92475543D01*
X72956921Y-92496613D01*
X72964773Y-92518557D01*
X72970437Y-92541166D01*
X72973856Y-92564221D01*
X72975000Y-92587500D01*
X72975000Y-93162500D01*
X72973856Y-93185779D01*
X72970437Y-93208834D01*
X72964773Y-93231443D01*
X72956921Y-93253387D01*
X72946956Y-93274457D01*
X72934974Y-93294448D01*
X72921090Y-93313168D01*
X72905438Y-93330438D01*
X72888168Y-93346090D01*
X72869448Y-93359974D01*
X72849457Y-93371956D01*
X72828387Y-93381921D01*
X72806443Y-93389773D01*
X72783834Y-93395437D01*
X72760779Y-93398856D01*
X72737500Y-93400000D01*
X72262500Y-93400000D01*
X72239221Y-93398856D01*
X72216166Y-93395437D01*
X72193557Y-93389773D01*
X72171613Y-93381921D01*
X72150543Y-93371956D01*
X72130552Y-93359974D01*
X72111832Y-93346090D01*
X72094562Y-93330438D01*
X72078910Y-93313168D01*
X72065026Y-93294448D01*
X72053044Y-93274457D01*
X72043079Y-93253387D01*
X72035227Y-93231443D01*
X72029563Y-93208834D01*
X72026144Y-93185779D01*
X72025000Y-93162500D01*
X72025000Y-92587500D01*
X72026144Y-92564221D01*
X72029563Y-92541166D01*
X72035227Y-92518557D01*
X72043079Y-92496613D01*
X72053044Y-92475543D01*
X72065026Y-92455552D01*
X72078910Y-92436832D01*
X72094562Y-92419562D01*
X72111832Y-92403910D01*
X72130552Y-92390026D01*
X72150543Y-92378044D01*
X72171613Y-92368079D01*
X72193557Y-92360227D01*
X72216166Y-92354563D01*
X72239221Y-92351144D01*
X72262500Y-92350000D01*
X72737500Y-92350000D01*
X72760779Y-92351144D01*
X72760779Y-92351144D01*
G37*
D12*
X72500000Y-92875000D03*
D11*
G36*
X72760779Y-90601144D02*
X72783834Y-90604563D01*
X72806443Y-90610227D01*
X72828387Y-90618079D01*
X72849457Y-90628044D01*
X72869448Y-90640026D01*
X72888168Y-90653910D01*
X72905438Y-90669562D01*
X72921090Y-90686832D01*
X72934974Y-90705552D01*
X72946956Y-90725543D01*
X72956921Y-90746613D01*
X72964773Y-90768557D01*
X72970437Y-90791166D01*
X72973856Y-90814221D01*
X72975000Y-90837500D01*
X72975000Y-91412500D01*
X72973856Y-91435779D01*
X72970437Y-91458834D01*
X72964773Y-91481443D01*
X72956921Y-91503387D01*
X72946956Y-91524457D01*
X72934974Y-91544448D01*
X72921090Y-91563168D01*
X72905438Y-91580438D01*
X72888168Y-91596090D01*
X72869448Y-91609974D01*
X72849457Y-91621956D01*
X72828387Y-91631921D01*
X72806443Y-91639773D01*
X72783834Y-91645437D01*
X72760779Y-91648856D01*
X72737500Y-91650000D01*
X72262500Y-91650000D01*
X72239221Y-91648856D01*
X72216166Y-91645437D01*
X72193557Y-91639773D01*
X72171613Y-91631921D01*
X72150543Y-91621956D01*
X72130552Y-91609974D01*
X72111832Y-91596090D01*
X72094562Y-91580438D01*
X72078910Y-91563168D01*
X72065026Y-91544448D01*
X72053044Y-91524457D01*
X72043079Y-91503387D01*
X72035227Y-91481443D01*
X72029563Y-91458834D01*
X72026144Y-91435779D01*
X72025000Y-91412500D01*
X72025000Y-90837500D01*
X72026144Y-90814221D01*
X72029563Y-90791166D01*
X72035227Y-90768557D01*
X72043079Y-90746613D01*
X72053044Y-90725543D01*
X72065026Y-90705552D01*
X72078910Y-90686832D01*
X72094562Y-90669562D01*
X72111832Y-90653910D01*
X72130552Y-90640026D01*
X72150543Y-90628044D01*
X72171613Y-90618079D01*
X72193557Y-90610227D01*
X72216166Y-90604563D01*
X72239221Y-90601144D01*
X72262500Y-90600000D01*
X72737500Y-90600000D01*
X72760779Y-90601144D01*
X72760779Y-90601144D01*
G37*
D12*
X72500000Y-91125000D03*
G04 #@! TD*
D11*
G04 #@! TO.C,R7*
G36*
X70760779Y-81601144D02*
X70783834Y-81604563D01*
X70806443Y-81610227D01*
X70828387Y-81618079D01*
X70849457Y-81628044D01*
X70869448Y-81640026D01*
X70888168Y-81653910D01*
X70905438Y-81669562D01*
X70921090Y-81686832D01*
X70934974Y-81705552D01*
X70946956Y-81725543D01*
X70956921Y-81746613D01*
X70964773Y-81768557D01*
X70970437Y-81791166D01*
X70973856Y-81814221D01*
X70975000Y-81837500D01*
X70975000Y-82412500D01*
X70973856Y-82435779D01*
X70970437Y-82458834D01*
X70964773Y-82481443D01*
X70956921Y-82503387D01*
X70946956Y-82524457D01*
X70934974Y-82544448D01*
X70921090Y-82563168D01*
X70905438Y-82580438D01*
X70888168Y-82596090D01*
X70869448Y-82609974D01*
X70849457Y-82621956D01*
X70828387Y-82631921D01*
X70806443Y-82639773D01*
X70783834Y-82645437D01*
X70760779Y-82648856D01*
X70737500Y-82650000D01*
X70262500Y-82650000D01*
X70239221Y-82648856D01*
X70216166Y-82645437D01*
X70193557Y-82639773D01*
X70171613Y-82631921D01*
X70150543Y-82621956D01*
X70130552Y-82609974D01*
X70111832Y-82596090D01*
X70094562Y-82580438D01*
X70078910Y-82563168D01*
X70065026Y-82544448D01*
X70053044Y-82524457D01*
X70043079Y-82503387D01*
X70035227Y-82481443D01*
X70029563Y-82458834D01*
X70026144Y-82435779D01*
X70025000Y-82412500D01*
X70025000Y-81837500D01*
X70026144Y-81814221D01*
X70029563Y-81791166D01*
X70035227Y-81768557D01*
X70043079Y-81746613D01*
X70053044Y-81725543D01*
X70065026Y-81705552D01*
X70078910Y-81686832D01*
X70094562Y-81669562D01*
X70111832Y-81653910D01*
X70130552Y-81640026D01*
X70150543Y-81628044D01*
X70171613Y-81618079D01*
X70193557Y-81610227D01*
X70216166Y-81604563D01*
X70239221Y-81601144D01*
X70262500Y-81600000D01*
X70737500Y-81600000D01*
X70760779Y-81601144D01*
X70760779Y-81601144D01*
G37*
D12*
X70500000Y-82125000D03*
D11*
G36*
X70760779Y-83351144D02*
X70783834Y-83354563D01*
X70806443Y-83360227D01*
X70828387Y-83368079D01*
X70849457Y-83378044D01*
X70869448Y-83390026D01*
X70888168Y-83403910D01*
X70905438Y-83419562D01*
X70921090Y-83436832D01*
X70934974Y-83455552D01*
X70946956Y-83475543D01*
X70956921Y-83496613D01*
X70964773Y-83518557D01*
X70970437Y-83541166D01*
X70973856Y-83564221D01*
X70975000Y-83587500D01*
X70975000Y-84162500D01*
X70973856Y-84185779D01*
X70970437Y-84208834D01*
X70964773Y-84231443D01*
X70956921Y-84253387D01*
X70946956Y-84274457D01*
X70934974Y-84294448D01*
X70921090Y-84313168D01*
X70905438Y-84330438D01*
X70888168Y-84346090D01*
X70869448Y-84359974D01*
X70849457Y-84371956D01*
X70828387Y-84381921D01*
X70806443Y-84389773D01*
X70783834Y-84395437D01*
X70760779Y-84398856D01*
X70737500Y-84400000D01*
X70262500Y-84400000D01*
X70239221Y-84398856D01*
X70216166Y-84395437D01*
X70193557Y-84389773D01*
X70171613Y-84381921D01*
X70150543Y-84371956D01*
X70130552Y-84359974D01*
X70111832Y-84346090D01*
X70094562Y-84330438D01*
X70078910Y-84313168D01*
X70065026Y-84294448D01*
X70053044Y-84274457D01*
X70043079Y-84253387D01*
X70035227Y-84231443D01*
X70029563Y-84208834D01*
X70026144Y-84185779D01*
X70025000Y-84162500D01*
X70025000Y-83587500D01*
X70026144Y-83564221D01*
X70029563Y-83541166D01*
X70035227Y-83518557D01*
X70043079Y-83496613D01*
X70053044Y-83475543D01*
X70065026Y-83455552D01*
X70078910Y-83436832D01*
X70094562Y-83419562D01*
X70111832Y-83403910D01*
X70130552Y-83390026D01*
X70150543Y-83378044D01*
X70171613Y-83368079D01*
X70193557Y-83360227D01*
X70216166Y-83354563D01*
X70239221Y-83351144D01*
X70262500Y-83350000D01*
X70737500Y-83350000D01*
X70760779Y-83351144D01*
X70760779Y-83351144D01*
G37*
D12*
X70500000Y-83875000D03*
G04 #@! TD*
D11*
G04 #@! TO.C,R8*
G36*
X71185779Y-62526144D02*
X71208834Y-62529563D01*
X71231443Y-62535227D01*
X71253387Y-62543079D01*
X71274457Y-62553044D01*
X71294448Y-62565026D01*
X71313168Y-62578910D01*
X71330438Y-62594562D01*
X71346090Y-62611832D01*
X71359974Y-62630552D01*
X71371956Y-62650543D01*
X71381921Y-62671613D01*
X71389773Y-62693557D01*
X71395437Y-62716166D01*
X71398856Y-62739221D01*
X71400000Y-62762500D01*
X71400000Y-63237500D01*
X71398856Y-63260779D01*
X71395437Y-63283834D01*
X71389773Y-63306443D01*
X71381921Y-63328387D01*
X71371956Y-63349457D01*
X71359974Y-63369448D01*
X71346090Y-63388168D01*
X71330438Y-63405438D01*
X71313168Y-63421090D01*
X71294448Y-63434974D01*
X71274457Y-63446956D01*
X71253387Y-63456921D01*
X71231443Y-63464773D01*
X71208834Y-63470437D01*
X71185779Y-63473856D01*
X71162500Y-63475000D01*
X70587500Y-63475000D01*
X70564221Y-63473856D01*
X70541166Y-63470437D01*
X70518557Y-63464773D01*
X70496613Y-63456921D01*
X70475543Y-63446956D01*
X70455552Y-63434974D01*
X70436832Y-63421090D01*
X70419562Y-63405438D01*
X70403910Y-63388168D01*
X70390026Y-63369448D01*
X70378044Y-63349457D01*
X70368079Y-63328387D01*
X70360227Y-63306443D01*
X70354563Y-63283834D01*
X70351144Y-63260779D01*
X70350000Y-63237500D01*
X70350000Y-62762500D01*
X70351144Y-62739221D01*
X70354563Y-62716166D01*
X70360227Y-62693557D01*
X70368079Y-62671613D01*
X70378044Y-62650543D01*
X70390026Y-62630552D01*
X70403910Y-62611832D01*
X70419562Y-62594562D01*
X70436832Y-62578910D01*
X70455552Y-62565026D01*
X70475543Y-62553044D01*
X70496613Y-62543079D01*
X70518557Y-62535227D01*
X70541166Y-62529563D01*
X70564221Y-62526144D01*
X70587500Y-62525000D01*
X71162500Y-62525000D01*
X71185779Y-62526144D01*
X71185779Y-62526144D01*
G37*
D12*
X70875000Y-63000000D03*
D11*
G36*
X69435779Y-62526144D02*
X69458834Y-62529563D01*
X69481443Y-62535227D01*
X69503387Y-62543079D01*
X69524457Y-62553044D01*
X69544448Y-62565026D01*
X69563168Y-62578910D01*
X69580438Y-62594562D01*
X69596090Y-62611832D01*
X69609974Y-62630552D01*
X69621956Y-62650543D01*
X69631921Y-62671613D01*
X69639773Y-62693557D01*
X69645437Y-62716166D01*
X69648856Y-62739221D01*
X69650000Y-62762500D01*
X69650000Y-63237500D01*
X69648856Y-63260779D01*
X69645437Y-63283834D01*
X69639773Y-63306443D01*
X69631921Y-63328387D01*
X69621956Y-63349457D01*
X69609974Y-63369448D01*
X69596090Y-63388168D01*
X69580438Y-63405438D01*
X69563168Y-63421090D01*
X69544448Y-63434974D01*
X69524457Y-63446956D01*
X69503387Y-63456921D01*
X69481443Y-63464773D01*
X69458834Y-63470437D01*
X69435779Y-63473856D01*
X69412500Y-63475000D01*
X68837500Y-63475000D01*
X68814221Y-63473856D01*
X68791166Y-63470437D01*
X68768557Y-63464773D01*
X68746613Y-63456921D01*
X68725543Y-63446956D01*
X68705552Y-63434974D01*
X68686832Y-63421090D01*
X68669562Y-63405438D01*
X68653910Y-63388168D01*
X68640026Y-63369448D01*
X68628044Y-63349457D01*
X68618079Y-63328387D01*
X68610227Y-63306443D01*
X68604563Y-63283834D01*
X68601144Y-63260779D01*
X68600000Y-63237500D01*
X68600000Y-62762500D01*
X68601144Y-62739221D01*
X68604563Y-62716166D01*
X68610227Y-62693557D01*
X68618079Y-62671613D01*
X68628044Y-62650543D01*
X68640026Y-62630552D01*
X68653910Y-62611832D01*
X68669562Y-62594562D01*
X68686832Y-62578910D01*
X68705552Y-62565026D01*
X68725543Y-62553044D01*
X68746613Y-62543079D01*
X68768557Y-62535227D01*
X68791166Y-62529563D01*
X68814221Y-62526144D01*
X68837500Y-62525000D01*
X69412500Y-62525000D01*
X69435779Y-62526144D01*
X69435779Y-62526144D01*
G37*
D12*
X69125000Y-63000000D03*
G04 #@! TD*
D11*
G04 #@! TO.C,R9*
G36*
X85760779Y-60351144D02*
X85783834Y-60354563D01*
X85806443Y-60360227D01*
X85828387Y-60368079D01*
X85849457Y-60378044D01*
X85869448Y-60390026D01*
X85888168Y-60403910D01*
X85905438Y-60419562D01*
X85921090Y-60436832D01*
X85934974Y-60455552D01*
X85946956Y-60475543D01*
X85956921Y-60496613D01*
X85964773Y-60518557D01*
X85970437Y-60541166D01*
X85973856Y-60564221D01*
X85975000Y-60587500D01*
X85975000Y-61162500D01*
X85973856Y-61185779D01*
X85970437Y-61208834D01*
X85964773Y-61231443D01*
X85956921Y-61253387D01*
X85946956Y-61274457D01*
X85934974Y-61294448D01*
X85921090Y-61313168D01*
X85905438Y-61330438D01*
X85888168Y-61346090D01*
X85869448Y-61359974D01*
X85849457Y-61371956D01*
X85828387Y-61381921D01*
X85806443Y-61389773D01*
X85783834Y-61395437D01*
X85760779Y-61398856D01*
X85737500Y-61400000D01*
X85262500Y-61400000D01*
X85239221Y-61398856D01*
X85216166Y-61395437D01*
X85193557Y-61389773D01*
X85171613Y-61381921D01*
X85150543Y-61371956D01*
X85130552Y-61359974D01*
X85111832Y-61346090D01*
X85094562Y-61330438D01*
X85078910Y-61313168D01*
X85065026Y-61294448D01*
X85053044Y-61274457D01*
X85043079Y-61253387D01*
X85035227Y-61231443D01*
X85029563Y-61208834D01*
X85026144Y-61185779D01*
X85025000Y-61162500D01*
X85025000Y-60587500D01*
X85026144Y-60564221D01*
X85029563Y-60541166D01*
X85035227Y-60518557D01*
X85043079Y-60496613D01*
X85053044Y-60475543D01*
X85065026Y-60455552D01*
X85078910Y-60436832D01*
X85094562Y-60419562D01*
X85111832Y-60403910D01*
X85130552Y-60390026D01*
X85150543Y-60378044D01*
X85171613Y-60368079D01*
X85193557Y-60360227D01*
X85216166Y-60354563D01*
X85239221Y-60351144D01*
X85262500Y-60350000D01*
X85737500Y-60350000D01*
X85760779Y-60351144D01*
X85760779Y-60351144D01*
G37*
D12*
X85500000Y-60875000D03*
D11*
G36*
X85760779Y-58601144D02*
X85783834Y-58604563D01*
X85806443Y-58610227D01*
X85828387Y-58618079D01*
X85849457Y-58628044D01*
X85869448Y-58640026D01*
X85888168Y-58653910D01*
X85905438Y-58669562D01*
X85921090Y-58686832D01*
X85934974Y-58705552D01*
X85946956Y-58725543D01*
X85956921Y-58746613D01*
X85964773Y-58768557D01*
X85970437Y-58791166D01*
X85973856Y-58814221D01*
X85975000Y-58837500D01*
X85975000Y-59412500D01*
X85973856Y-59435779D01*
X85970437Y-59458834D01*
X85964773Y-59481443D01*
X85956921Y-59503387D01*
X85946956Y-59524457D01*
X85934974Y-59544448D01*
X85921090Y-59563168D01*
X85905438Y-59580438D01*
X85888168Y-59596090D01*
X85869448Y-59609974D01*
X85849457Y-59621956D01*
X85828387Y-59631921D01*
X85806443Y-59639773D01*
X85783834Y-59645437D01*
X85760779Y-59648856D01*
X85737500Y-59650000D01*
X85262500Y-59650000D01*
X85239221Y-59648856D01*
X85216166Y-59645437D01*
X85193557Y-59639773D01*
X85171613Y-59631921D01*
X85150543Y-59621956D01*
X85130552Y-59609974D01*
X85111832Y-59596090D01*
X85094562Y-59580438D01*
X85078910Y-59563168D01*
X85065026Y-59544448D01*
X85053044Y-59524457D01*
X85043079Y-59503387D01*
X85035227Y-59481443D01*
X85029563Y-59458834D01*
X85026144Y-59435779D01*
X85025000Y-59412500D01*
X85025000Y-58837500D01*
X85026144Y-58814221D01*
X85029563Y-58791166D01*
X85035227Y-58768557D01*
X85043079Y-58746613D01*
X85053044Y-58725543D01*
X85065026Y-58705552D01*
X85078910Y-58686832D01*
X85094562Y-58669562D01*
X85111832Y-58653910D01*
X85130552Y-58640026D01*
X85150543Y-58628044D01*
X85171613Y-58618079D01*
X85193557Y-58610227D01*
X85216166Y-58604563D01*
X85239221Y-58601144D01*
X85262500Y-58600000D01*
X85737500Y-58600000D01*
X85760779Y-58601144D01*
X85760779Y-58601144D01*
G37*
D12*
X85500000Y-59125000D03*
G04 #@! TD*
D11*
G04 #@! TO.C,R10*
G36*
X93685779Y-62526144D02*
X93708834Y-62529563D01*
X93731443Y-62535227D01*
X93753387Y-62543079D01*
X93774457Y-62553044D01*
X93794448Y-62565026D01*
X93813168Y-62578910D01*
X93830438Y-62594562D01*
X93846090Y-62611832D01*
X93859974Y-62630552D01*
X93871956Y-62650543D01*
X93881921Y-62671613D01*
X93889773Y-62693557D01*
X93895437Y-62716166D01*
X93898856Y-62739221D01*
X93900000Y-62762500D01*
X93900000Y-63237500D01*
X93898856Y-63260779D01*
X93895437Y-63283834D01*
X93889773Y-63306443D01*
X93881921Y-63328387D01*
X93871956Y-63349457D01*
X93859974Y-63369448D01*
X93846090Y-63388168D01*
X93830438Y-63405438D01*
X93813168Y-63421090D01*
X93794448Y-63434974D01*
X93774457Y-63446956D01*
X93753387Y-63456921D01*
X93731443Y-63464773D01*
X93708834Y-63470437D01*
X93685779Y-63473856D01*
X93662500Y-63475000D01*
X93087500Y-63475000D01*
X93064221Y-63473856D01*
X93041166Y-63470437D01*
X93018557Y-63464773D01*
X92996613Y-63456921D01*
X92975543Y-63446956D01*
X92955552Y-63434974D01*
X92936832Y-63421090D01*
X92919562Y-63405438D01*
X92903910Y-63388168D01*
X92890026Y-63369448D01*
X92878044Y-63349457D01*
X92868079Y-63328387D01*
X92860227Y-63306443D01*
X92854563Y-63283834D01*
X92851144Y-63260779D01*
X92850000Y-63237500D01*
X92850000Y-62762500D01*
X92851144Y-62739221D01*
X92854563Y-62716166D01*
X92860227Y-62693557D01*
X92868079Y-62671613D01*
X92878044Y-62650543D01*
X92890026Y-62630552D01*
X92903910Y-62611832D01*
X92919562Y-62594562D01*
X92936832Y-62578910D01*
X92955552Y-62565026D01*
X92975543Y-62553044D01*
X92996613Y-62543079D01*
X93018557Y-62535227D01*
X93041166Y-62529563D01*
X93064221Y-62526144D01*
X93087500Y-62525000D01*
X93662500Y-62525000D01*
X93685779Y-62526144D01*
X93685779Y-62526144D01*
G37*
D12*
X93375000Y-63000000D03*
D11*
G36*
X91935779Y-62526144D02*
X91958834Y-62529563D01*
X91981443Y-62535227D01*
X92003387Y-62543079D01*
X92024457Y-62553044D01*
X92044448Y-62565026D01*
X92063168Y-62578910D01*
X92080438Y-62594562D01*
X92096090Y-62611832D01*
X92109974Y-62630552D01*
X92121956Y-62650543D01*
X92131921Y-62671613D01*
X92139773Y-62693557D01*
X92145437Y-62716166D01*
X92148856Y-62739221D01*
X92150000Y-62762500D01*
X92150000Y-63237500D01*
X92148856Y-63260779D01*
X92145437Y-63283834D01*
X92139773Y-63306443D01*
X92131921Y-63328387D01*
X92121956Y-63349457D01*
X92109974Y-63369448D01*
X92096090Y-63388168D01*
X92080438Y-63405438D01*
X92063168Y-63421090D01*
X92044448Y-63434974D01*
X92024457Y-63446956D01*
X92003387Y-63456921D01*
X91981443Y-63464773D01*
X91958834Y-63470437D01*
X91935779Y-63473856D01*
X91912500Y-63475000D01*
X91337500Y-63475000D01*
X91314221Y-63473856D01*
X91291166Y-63470437D01*
X91268557Y-63464773D01*
X91246613Y-63456921D01*
X91225543Y-63446956D01*
X91205552Y-63434974D01*
X91186832Y-63421090D01*
X91169562Y-63405438D01*
X91153910Y-63388168D01*
X91140026Y-63369448D01*
X91128044Y-63349457D01*
X91118079Y-63328387D01*
X91110227Y-63306443D01*
X91104563Y-63283834D01*
X91101144Y-63260779D01*
X91100000Y-63237500D01*
X91100000Y-62762500D01*
X91101144Y-62739221D01*
X91104563Y-62716166D01*
X91110227Y-62693557D01*
X91118079Y-62671613D01*
X91128044Y-62650543D01*
X91140026Y-62630552D01*
X91153910Y-62611832D01*
X91169562Y-62594562D01*
X91186832Y-62578910D01*
X91205552Y-62565026D01*
X91225543Y-62553044D01*
X91246613Y-62543079D01*
X91268557Y-62535227D01*
X91291166Y-62529563D01*
X91314221Y-62526144D01*
X91337500Y-62525000D01*
X91912500Y-62525000D01*
X91935779Y-62526144D01*
X91935779Y-62526144D01*
G37*
D12*
X91625000Y-63000000D03*
G04 #@! TD*
D11*
G04 #@! TO.C,R11*
G36*
X83060779Y-73526144D02*
X83083834Y-73529563D01*
X83106443Y-73535227D01*
X83128387Y-73543079D01*
X83149457Y-73553044D01*
X83169448Y-73565026D01*
X83188168Y-73578910D01*
X83205438Y-73594562D01*
X83221090Y-73611832D01*
X83234974Y-73630552D01*
X83246956Y-73650543D01*
X83256921Y-73671613D01*
X83264773Y-73693557D01*
X83270437Y-73716166D01*
X83273856Y-73739221D01*
X83275000Y-73762500D01*
X83275000Y-74237500D01*
X83273856Y-74260779D01*
X83270437Y-74283834D01*
X83264773Y-74306443D01*
X83256921Y-74328387D01*
X83246956Y-74349457D01*
X83234974Y-74369448D01*
X83221090Y-74388168D01*
X83205438Y-74405438D01*
X83188168Y-74421090D01*
X83169448Y-74434974D01*
X83149457Y-74446956D01*
X83128387Y-74456921D01*
X83106443Y-74464773D01*
X83083834Y-74470437D01*
X83060779Y-74473856D01*
X83037500Y-74475000D01*
X82462500Y-74475000D01*
X82439221Y-74473856D01*
X82416166Y-74470437D01*
X82393557Y-74464773D01*
X82371613Y-74456921D01*
X82350543Y-74446956D01*
X82330552Y-74434974D01*
X82311832Y-74421090D01*
X82294562Y-74405438D01*
X82278910Y-74388168D01*
X82265026Y-74369448D01*
X82253044Y-74349457D01*
X82243079Y-74328387D01*
X82235227Y-74306443D01*
X82229563Y-74283834D01*
X82226144Y-74260779D01*
X82225000Y-74237500D01*
X82225000Y-73762500D01*
X82226144Y-73739221D01*
X82229563Y-73716166D01*
X82235227Y-73693557D01*
X82243079Y-73671613D01*
X82253044Y-73650543D01*
X82265026Y-73630552D01*
X82278910Y-73611832D01*
X82294562Y-73594562D01*
X82311832Y-73578910D01*
X82330552Y-73565026D01*
X82350543Y-73553044D01*
X82371613Y-73543079D01*
X82393557Y-73535227D01*
X82416166Y-73529563D01*
X82439221Y-73526144D01*
X82462500Y-73525000D01*
X83037500Y-73525000D01*
X83060779Y-73526144D01*
X83060779Y-73526144D01*
G37*
D12*
X82750000Y-74000000D03*
D11*
G36*
X81310779Y-73526144D02*
X81333834Y-73529563D01*
X81356443Y-73535227D01*
X81378387Y-73543079D01*
X81399457Y-73553044D01*
X81419448Y-73565026D01*
X81438168Y-73578910D01*
X81455438Y-73594562D01*
X81471090Y-73611832D01*
X81484974Y-73630552D01*
X81496956Y-73650543D01*
X81506921Y-73671613D01*
X81514773Y-73693557D01*
X81520437Y-73716166D01*
X81523856Y-73739221D01*
X81525000Y-73762500D01*
X81525000Y-74237500D01*
X81523856Y-74260779D01*
X81520437Y-74283834D01*
X81514773Y-74306443D01*
X81506921Y-74328387D01*
X81496956Y-74349457D01*
X81484974Y-74369448D01*
X81471090Y-74388168D01*
X81455438Y-74405438D01*
X81438168Y-74421090D01*
X81419448Y-74434974D01*
X81399457Y-74446956D01*
X81378387Y-74456921D01*
X81356443Y-74464773D01*
X81333834Y-74470437D01*
X81310779Y-74473856D01*
X81287500Y-74475000D01*
X80712500Y-74475000D01*
X80689221Y-74473856D01*
X80666166Y-74470437D01*
X80643557Y-74464773D01*
X80621613Y-74456921D01*
X80600543Y-74446956D01*
X80580552Y-74434974D01*
X80561832Y-74421090D01*
X80544562Y-74405438D01*
X80528910Y-74388168D01*
X80515026Y-74369448D01*
X80503044Y-74349457D01*
X80493079Y-74328387D01*
X80485227Y-74306443D01*
X80479563Y-74283834D01*
X80476144Y-74260779D01*
X80475000Y-74237500D01*
X80475000Y-73762500D01*
X80476144Y-73739221D01*
X80479563Y-73716166D01*
X80485227Y-73693557D01*
X80493079Y-73671613D01*
X80503044Y-73650543D01*
X80515026Y-73630552D01*
X80528910Y-73611832D01*
X80544562Y-73594562D01*
X80561832Y-73578910D01*
X80580552Y-73565026D01*
X80600543Y-73553044D01*
X80621613Y-73543079D01*
X80643557Y-73535227D01*
X80666166Y-73529563D01*
X80689221Y-73526144D01*
X80712500Y-73525000D01*
X81287500Y-73525000D01*
X81310779Y-73526144D01*
X81310779Y-73526144D01*
G37*
D12*
X81000000Y-74000000D03*
G04 #@! TD*
D11*
G04 #@! TO.C,R12*
G36*
X72260779Y-65601144D02*
X72283834Y-65604563D01*
X72306443Y-65610227D01*
X72328387Y-65618079D01*
X72349457Y-65628044D01*
X72369448Y-65640026D01*
X72388168Y-65653910D01*
X72405438Y-65669562D01*
X72421090Y-65686832D01*
X72434974Y-65705552D01*
X72446956Y-65725543D01*
X72456921Y-65746613D01*
X72464773Y-65768557D01*
X72470437Y-65791166D01*
X72473856Y-65814221D01*
X72475000Y-65837500D01*
X72475000Y-66412500D01*
X72473856Y-66435779D01*
X72470437Y-66458834D01*
X72464773Y-66481443D01*
X72456921Y-66503387D01*
X72446956Y-66524457D01*
X72434974Y-66544448D01*
X72421090Y-66563168D01*
X72405438Y-66580438D01*
X72388168Y-66596090D01*
X72369448Y-66609974D01*
X72349457Y-66621956D01*
X72328387Y-66631921D01*
X72306443Y-66639773D01*
X72283834Y-66645437D01*
X72260779Y-66648856D01*
X72237500Y-66650000D01*
X71762500Y-66650000D01*
X71739221Y-66648856D01*
X71716166Y-66645437D01*
X71693557Y-66639773D01*
X71671613Y-66631921D01*
X71650543Y-66621956D01*
X71630552Y-66609974D01*
X71611832Y-66596090D01*
X71594562Y-66580438D01*
X71578910Y-66563168D01*
X71565026Y-66544448D01*
X71553044Y-66524457D01*
X71543079Y-66503387D01*
X71535227Y-66481443D01*
X71529563Y-66458834D01*
X71526144Y-66435779D01*
X71525000Y-66412500D01*
X71525000Y-65837500D01*
X71526144Y-65814221D01*
X71529563Y-65791166D01*
X71535227Y-65768557D01*
X71543079Y-65746613D01*
X71553044Y-65725543D01*
X71565026Y-65705552D01*
X71578910Y-65686832D01*
X71594562Y-65669562D01*
X71611832Y-65653910D01*
X71630552Y-65640026D01*
X71650543Y-65628044D01*
X71671613Y-65618079D01*
X71693557Y-65610227D01*
X71716166Y-65604563D01*
X71739221Y-65601144D01*
X71762500Y-65600000D01*
X72237500Y-65600000D01*
X72260779Y-65601144D01*
X72260779Y-65601144D01*
G37*
D12*
X72000000Y-66125000D03*
D11*
G36*
X72260779Y-67351144D02*
X72283834Y-67354563D01*
X72306443Y-67360227D01*
X72328387Y-67368079D01*
X72349457Y-67378044D01*
X72369448Y-67390026D01*
X72388168Y-67403910D01*
X72405438Y-67419562D01*
X72421090Y-67436832D01*
X72434974Y-67455552D01*
X72446956Y-67475543D01*
X72456921Y-67496613D01*
X72464773Y-67518557D01*
X72470437Y-67541166D01*
X72473856Y-67564221D01*
X72475000Y-67587500D01*
X72475000Y-68162500D01*
X72473856Y-68185779D01*
X72470437Y-68208834D01*
X72464773Y-68231443D01*
X72456921Y-68253387D01*
X72446956Y-68274457D01*
X72434974Y-68294448D01*
X72421090Y-68313168D01*
X72405438Y-68330438D01*
X72388168Y-68346090D01*
X72369448Y-68359974D01*
X72349457Y-68371956D01*
X72328387Y-68381921D01*
X72306443Y-68389773D01*
X72283834Y-68395437D01*
X72260779Y-68398856D01*
X72237500Y-68400000D01*
X71762500Y-68400000D01*
X71739221Y-68398856D01*
X71716166Y-68395437D01*
X71693557Y-68389773D01*
X71671613Y-68381921D01*
X71650543Y-68371956D01*
X71630552Y-68359974D01*
X71611832Y-68346090D01*
X71594562Y-68330438D01*
X71578910Y-68313168D01*
X71565026Y-68294448D01*
X71553044Y-68274457D01*
X71543079Y-68253387D01*
X71535227Y-68231443D01*
X71529563Y-68208834D01*
X71526144Y-68185779D01*
X71525000Y-68162500D01*
X71525000Y-67587500D01*
X71526144Y-67564221D01*
X71529563Y-67541166D01*
X71535227Y-67518557D01*
X71543079Y-67496613D01*
X71553044Y-67475543D01*
X71565026Y-67455552D01*
X71578910Y-67436832D01*
X71594562Y-67419562D01*
X71611832Y-67403910D01*
X71630552Y-67390026D01*
X71650543Y-67378044D01*
X71671613Y-67368079D01*
X71693557Y-67360227D01*
X71716166Y-67354563D01*
X71739221Y-67351144D01*
X71762500Y-67350000D01*
X72237500Y-67350000D01*
X72260779Y-67351144D01*
X72260779Y-67351144D01*
G37*
D12*
X72000000Y-67875000D03*
G04 #@! TD*
D11*
G04 #@! TO.C,R13*
G36*
X91760779Y-60351144D02*
X91783834Y-60354563D01*
X91806443Y-60360227D01*
X91828387Y-60368079D01*
X91849457Y-60378044D01*
X91869448Y-60390026D01*
X91888168Y-60403910D01*
X91905438Y-60419562D01*
X91921090Y-60436832D01*
X91934974Y-60455552D01*
X91946956Y-60475543D01*
X91956921Y-60496613D01*
X91964773Y-60518557D01*
X91970437Y-60541166D01*
X91973856Y-60564221D01*
X91975000Y-60587500D01*
X91975000Y-61162500D01*
X91973856Y-61185779D01*
X91970437Y-61208834D01*
X91964773Y-61231443D01*
X91956921Y-61253387D01*
X91946956Y-61274457D01*
X91934974Y-61294448D01*
X91921090Y-61313168D01*
X91905438Y-61330438D01*
X91888168Y-61346090D01*
X91869448Y-61359974D01*
X91849457Y-61371956D01*
X91828387Y-61381921D01*
X91806443Y-61389773D01*
X91783834Y-61395437D01*
X91760779Y-61398856D01*
X91737500Y-61400000D01*
X91262500Y-61400000D01*
X91239221Y-61398856D01*
X91216166Y-61395437D01*
X91193557Y-61389773D01*
X91171613Y-61381921D01*
X91150543Y-61371956D01*
X91130552Y-61359974D01*
X91111832Y-61346090D01*
X91094562Y-61330438D01*
X91078910Y-61313168D01*
X91065026Y-61294448D01*
X91053044Y-61274457D01*
X91043079Y-61253387D01*
X91035227Y-61231443D01*
X91029563Y-61208834D01*
X91026144Y-61185779D01*
X91025000Y-61162500D01*
X91025000Y-60587500D01*
X91026144Y-60564221D01*
X91029563Y-60541166D01*
X91035227Y-60518557D01*
X91043079Y-60496613D01*
X91053044Y-60475543D01*
X91065026Y-60455552D01*
X91078910Y-60436832D01*
X91094562Y-60419562D01*
X91111832Y-60403910D01*
X91130552Y-60390026D01*
X91150543Y-60378044D01*
X91171613Y-60368079D01*
X91193557Y-60360227D01*
X91216166Y-60354563D01*
X91239221Y-60351144D01*
X91262500Y-60350000D01*
X91737500Y-60350000D01*
X91760779Y-60351144D01*
X91760779Y-60351144D01*
G37*
D12*
X91500000Y-60875000D03*
D11*
G36*
X91760779Y-58601144D02*
X91783834Y-58604563D01*
X91806443Y-58610227D01*
X91828387Y-58618079D01*
X91849457Y-58628044D01*
X91869448Y-58640026D01*
X91888168Y-58653910D01*
X91905438Y-58669562D01*
X91921090Y-58686832D01*
X91934974Y-58705552D01*
X91946956Y-58725543D01*
X91956921Y-58746613D01*
X91964773Y-58768557D01*
X91970437Y-58791166D01*
X91973856Y-58814221D01*
X91975000Y-58837500D01*
X91975000Y-59412500D01*
X91973856Y-59435779D01*
X91970437Y-59458834D01*
X91964773Y-59481443D01*
X91956921Y-59503387D01*
X91946956Y-59524457D01*
X91934974Y-59544448D01*
X91921090Y-59563168D01*
X91905438Y-59580438D01*
X91888168Y-59596090D01*
X91869448Y-59609974D01*
X91849457Y-59621956D01*
X91828387Y-59631921D01*
X91806443Y-59639773D01*
X91783834Y-59645437D01*
X91760779Y-59648856D01*
X91737500Y-59650000D01*
X91262500Y-59650000D01*
X91239221Y-59648856D01*
X91216166Y-59645437D01*
X91193557Y-59639773D01*
X91171613Y-59631921D01*
X91150543Y-59621956D01*
X91130552Y-59609974D01*
X91111832Y-59596090D01*
X91094562Y-59580438D01*
X91078910Y-59563168D01*
X91065026Y-59544448D01*
X91053044Y-59524457D01*
X91043079Y-59503387D01*
X91035227Y-59481443D01*
X91029563Y-59458834D01*
X91026144Y-59435779D01*
X91025000Y-59412500D01*
X91025000Y-58837500D01*
X91026144Y-58814221D01*
X91029563Y-58791166D01*
X91035227Y-58768557D01*
X91043079Y-58746613D01*
X91053044Y-58725543D01*
X91065026Y-58705552D01*
X91078910Y-58686832D01*
X91094562Y-58669562D01*
X91111832Y-58653910D01*
X91130552Y-58640026D01*
X91150543Y-58628044D01*
X91171613Y-58618079D01*
X91193557Y-58610227D01*
X91216166Y-58604563D01*
X91239221Y-58601144D01*
X91262500Y-58600000D01*
X91737500Y-58600000D01*
X91760779Y-58601144D01*
X91760779Y-58601144D01*
G37*
D12*
X91500000Y-59125000D03*
G04 #@! TD*
D11*
G04 #@! TO.C,R14*
G36*
X75260779Y-65601144D02*
X75283834Y-65604563D01*
X75306443Y-65610227D01*
X75328387Y-65618079D01*
X75349457Y-65628044D01*
X75369448Y-65640026D01*
X75388168Y-65653910D01*
X75405438Y-65669562D01*
X75421090Y-65686832D01*
X75434974Y-65705552D01*
X75446956Y-65725543D01*
X75456921Y-65746613D01*
X75464773Y-65768557D01*
X75470437Y-65791166D01*
X75473856Y-65814221D01*
X75475000Y-65837500D01*
X75475000Y-66412500D01*
X75473856Y-66435779D01*
X75470437Y-66458834D01*
X75464773Y-66481443D01*
X75456921Y-66503387D01*
X75446956Y-66524457D01*
X75434974Y-66544448D01*
X75421090Y-66563168D01*
X75405438Y-66580438D01*
X75388168Y-66596090D01*
X75369448Y-66609974D01*
X75349457Y-66621956D01*
X75328387Y-66631921D01*
X75306443Y-66639773D01*
X75283834Y-66645437D01*
X75260779Y-66648856D01*
X75237500Y-66650000D01*
X74762500Y-66650000D01*
X74739221Y-66648856D01*
X74716166Y-66645437D01*
X74693557Y-66639773D01*
X74671613Y-66631921D01*
X74650543Y-66621956D01*
X74630552Y-66609974D01*
X74611832Y-66596090D01*
X74594562Y-66580438D01*
X74578910Y-66563168D01*
X74565026Y-66544448D01*
X74553044Y-66524457D01*
X74543079Y-66503387D01*
X74535227Y-66481443D01*
X74529563Y-66458834D01*
X74526144Y-66435779D01*
X74525000Y-66412500D01*
X74525000Y-65837500D01*
X74526144Y-65814221D01*
X74529563Y-65791166D01*
X74535227Y-65768557D01*
X74543079Y-65746613D01*
X74553044Y-65725543D01*
X74565026Y-65705552D01*
X74578910Y-65686832D01*
X74594562Y-65669562D01*
X74611832Y-65653910D01*
X74630552Y-65640026D01*
X74650543Y-65628044D01*
X74671613Y-65618079D01*
X74693557Y-65610227D01*
X74716166Y-65604563D01*
X74739221Y-65601144D01*
X74762500Y-65600000D01*
X75237500Y-65600000D01*
X75260779Y-65601144D01*
X75260779Y-65601144D01*
G37*
D12*
X75000000Y-66125000D03*
D11*
G36*
X75260779Y-67351144D02*
X75283834Y-67354563D01*
X75306443Y-67360227D01*
X75328387Y-67368079D01*
X75349457Y-67378044D01*
X75369448Y-67390026D01*
X75388168Y-67403910D01*
X75405438Y-67419562D01*
X75421090Y-67436832D01*
X75434974Y-67455552D01*
X75446956Y-67475543D01*
X75456921Y-67496613D01*
X75464773Y-67518557D01*
X75470437Y-67541166D01*
X75473856Y-67564221D01*
X75475000Y-67587500D01*
X75475000Y-68162500D01*
X75473856Y-68185779D01*
X75470437Y-68208834D01*
X75464773Y-68231443D01*
X75456921Y-68253387D01*
X75446956Y-68274457D01*
X75434974Y-68294448D01*
X75421090Y-68313168D01*
X75405438Y-68330438D01*
X75388168Y-68346090D01*
X75369448Y-68359974D01*
X75349457Y-68371956D01*
X75328387Y-68381921D01*
X75306443Y-68389773D01*
X75283834Y-68395437D01*
X75260779Y-68398856D01*
X75237500Y-68400000D01*
X74762500Y-68400000D01*
X74739221Y-68398856D01*
X74716166Y-68395437D01*
X74693557Y-68389773D01*
X74671613Y-68381921D01*
X74650543Y-68371956D01*
X74630552Y-68359974D01*
X74611832Y-68346090D01*
X74594562Y-68330438D01*
X74578910Y-68313168D01*
X74565026Y-68294448D01*
X74553044Y-68274457D01*
X74543079Y-68253387D01*
X74535227Y-68231443D01*
X74529563Y-68208834D01*
X74526144Y-68185779D01*
X74525000Y-68162500D01*
X74525000Y-67587500D01*
X74526144Y-67564221D01*
X74529563Y-67541166D01*
X74535227Y-67518557D01*
X74543079Y-67496613D01*
X74553044Y-67475543D01*
X74565026Y-67455552D01*
X74578910Y-67436832D01*
X74594562Y-67419562D01*
X74611832Y-67403910D01*
X74630552Y-67390026D01*
X74650543Y-67378044D01*
X74671613Y-67368079D01*
X74693557Y-67360227D01*
X74716166Y-67354563D01*
X74739221Y-67351144D01*
X74762500Y-67350000D01*
X75237500Y-67350000D01*
X75260779Y-67351144D01*
X75260779Y-67351144D01*
G37*
D12*
X75000000Y-67875000D03*
G04 #@! TD*
D11*
G04 #@! TO.C,R15*
G36*
X68760779Y-80601144D02*
X68783834Y-80604563D01*
X68806443Y-80610227D01*
X68828387Y-80618079D01*
X68849457Y-80628044D01*
X68869448Y-80640026D01*
X68888168Y-80653910D01*
X68905438Y-80669562D01*
X68921090Y-80686832D01*
X68934974Y-80705552D01*
X68946956Y-80725543D01*
X68956921Y-80746613D01*
X68964773Y-80768557D01*
X68970437Y-80791166D01*
X68973856Y-80814221D01*
X68975000Y-80837500D01*
X68975000Y-81412500D01*
X68973856Y-81435779D01*
X68970437Y-81458834D01*
X68964773Y-81481443D01*
X68956921Y-81503387D01*
X68946956Y-81524457D01*
X68934974Y-81544448D01*
X68921090Y-81563168D01*
X68905438Y-81580438D01*
X68888168Y-81596090D01*
X68869448Y-81609974D01*
X68849457Y-81621956D01*
X68828387Y-81631921D01*
X68806443Y-81639773D01*
X68783834Y-81645437D01*
X68760779Y-81648856D01*
X68737500Y-81650000D01*
X68262500Y-81650000D01*
X68239221Y-81648856D01*
X68216166Y-81645437D01*
X68193557Y-81639773D01*
X68171613Y-81631921D01*
X68150543Y-81621956D01*
X68130552Y-81609974D01*
X68111832Y-81596090D01*
X68094562Y-81580438D01*
X68078910Y-81563168D01*
X68065026Y-81544448D01*
X68053044Y-81524457D01*
X68043079Y-81503387D01*
X68035227Y-81481443D01*
X68029563Y-81458834D01*
X68026144Y-81435779D01*
X68025000Y-81412500D01*
X68025000Y-80837500D01*
X68026144Y-80814221D01*
X68029563Y-80791166D01*
X68035227Y-80768557D01*
X68043079Y-80746613D01*
X68053044Y-80725543D01*
X68065026Y-80705552D01*
X68078910Y-80686832D01*
X68094562Y-80669562D01*
X68111832Y-80653910D01*
X68130552Y-80640026D01*
X68150543Y-80628044D01*
X68171613Y-80618079D01*
X68193557Y-80610227D01*
X68216166Y-80604563D01*
X68239221Y-80601144D01*
X68262500Y-80600000D01*
X68737500Y-80600000D01*
X68760779Y-80601144D01*
X68760779Y-80601144D01*
G37*
D12*
X68500000Y-81125000D03*
D11*
G36*
X68760779Y-82351144D02*
X68783834Y-82354563D01*
X68806443Y-82360227D01*
X68828387Y-82368079D01*
X68849457Y-82378044D01*
X68869448Y-82390026D01*
X68888168Y-82403910D01*
X68905438Y-82419562D01*
X68921090Y-82436832D01*
X68934974Y-82455552D01*
X68946956Y-82475543D01*
X68956921Y-82496613D01*
X68964773Y-82518557D01*
X68970437Y-82541166D01*
X68973856Y-82564221D01*
X68975000Y-82587500D01*
X68975000Y-83162500D01*
X68973856Y-83185779D01*
X68970437Y-83208834D01*
X68964773Y-83231443D01*
X68956921Y-83253387D01*
X68946956Y-83274457D01*
X68934974Y-83294448D01*
X68921090Y-83313168D01*
X68905438Y-83330438D01*
X68888168Y-83346090D01*
X68869448Y-83359974D01*
X68849457Y-83371956D01*
X68828387Y-83381921D01*
X68806443Y-83389773D01*
X68783834Y-83395437D01*
X68760779Y-83398856D01*
X68737500Y-83400000D01*
X68262500Y-83400000D01*
X68239221Y-83398856D01*
X68216166Y-83395437D01*
X68193557Y-83389773D01*
X68171613Y-83381921D01*
X68150543Y-83371956D01*
X68130552Y-83359974D01*
X68111832Y-83346090D01*
X68094562Y-83330438D01*
X68078910Y-83313168D01*
X68065026Y-83294448D01*
X68053044Y-83274457D01*
X68043079Y-83253387D01*
X68035227Y-83231443D01*
X68029563Y-83208834D01*
X68026144Y-83185779D01*
X68025000Y-83162500D01*
X68025000Y-82587500D01*
X68026144Y-82564221D01*
X68029563Y-82541166D01*
X68035227Y-82518557D01*
X68043079Y-82496613D01*
X68053044Y-82475543D01*
X68065026Y-82455552D01*
X68078910Y-82436832D01*
X68094562Y-82419562D01*
X68111832Y-82403910D01*
X68130552Y-82390026D01*
X68150543Y-82378044D01*
X68171613Y-82368079D01*
X68193557Y-82360227D01*
X68216166Y-82354563D01*
X68239221Y-82351144D01*
X68262500Y-82350000D01*
X68737500Y-82350000D01*
X68760779Y-82351144D01*
X68760779Y-82351144D01*
G37*
D12*
X68500000Y-82875000D03*
G04 #@! TD*
D11*
G04 #@! TO.C,R16*
G36*
X74760779Y-91351144D02*
X74783834Y-91354563D01*
X74806443Y-91360227D01*
X74828387Y-91368079D01*
X74849457Y-91378044D01*
X74869448Y-91390026D01*
X74888168Y-91403910D01*
X74905438Y-91419562D01*
X74921090Y-91436832D01*
X74934974Y-91455552D01*
X74946956Y-91475543D01*
X74956921Y-91496613D01*
X74964773Y-91518557D01*
X74970437Y-91541166D01*
X74973856Y-91564221D01*
X74975000Y-91587500D01*
X74975000Y-92162500D01*
X74973856Y-92185779D01*
X74970437Y-92208834D01*
X74964773Y-92231443D01*
X74956921Y-92253387D01*
X74946956Y-92274457D01*
X74934974Y-92294448D01*
X74921090Y-92313168D01*
X74905438Y-92330438D01*
X74888168Y-92346090D01*
X74869448Y-92359974D01*
X74849457Y-92371956D01*
X74828387Y-92381921D01*
X74806443Y-92389773D01*
X74783834Y-92395437D01*
X74760779Y-92398856D01*
X74737500Y-92400000D01*
X74262500Y-92400000D01*
X74239221Y-92398856D01*
X74216166Y-92395437D01*
X74193557Y-92389773D01*
X74171613Y-92381921D01*
X74150543Y-92371956D01*
X74130552Y-92359974D01*
X74111832Y-92346090D01*
X74094562Y-92330438D01*
X74078910Y-92313168D01*
X74065026Y-92294448D01*
X74053044Y-92274457D01*
X74043079Y-92253387D01*
X74035227Y-92231443D01*
X74029563Y-92208834D01*
X74026144Y-92185779D01*
X74025000Y-92162500D01*
X74025000Y-91587500D01*
X74026144Y-91564221D01*
X74029563Y-91541166D01*
X74035227Y-91518557D01*
X74043079Y-91496613D01*
X74053044Y-91475543D01*
X74065026Y-91455552D01*
X74078910Y-91436832D01*
X74094562Y-91419562D01*
X74111832Y-91403910D01*
X74130552Y-91390026D01*
X74150543Y-91378044D01*
X74171613Y-91368079D01*
X74193557Y-91360227D01*
X74216166Y-91354563D01*
X74239221Y-91351144D01*
X74262500Y-91350000D01*
X74737500Y-91350000D01*
X74760779Y-91351144D01*
X74760779Y-91351144D01*
G37*
D12*
X74500000Y-91875000D03*
D11*
G36*
X74760779Y-89601144D02*
X74783834Y-89604563D01*
X74806443Y-89610227D01*
X74828387Y-89618079D01*
X74849457Y-89628044D01*
X74869448Y-89640026D01*
X74888168Y-89653910D01*
X74905438Y-89669562D01*
X74921090Y-89686832D01*
X74934974Y-89705552D01*
X74946956Y-89725543D01*
X74956921Y-89746613D01*
X74964773Y-89768557D01*
X74970437Y-89791166D01*
X74973856Y-89814221D01*
X74975000Y-89837500D01*
X74975000Y-90412500D01*
X74973856Y-90435779D01*
X74970437Y-90458834D01*
X74964773Y-90481443D01*
X74956921Y-90503387D01*
X74946956Y-90524457D01*
X74934974Y-90544448D01*
X74921090Y-90563168D01*
X74905438Y-90580438D01*
X74888168Y-90596090D01*
X74869448Y-90609974D01*
X74849457Y-90621956D01*
X74828387Y-90631921D01*
X74806443Y-90639773D01*
X74783834Y-90645437D01*
X74760779Y-90648856D01*
X74737500Y-90650000D01*
X74262500Y-90650000D01*
X74239221Y-90648856D01*
X74216166Y-90645437D01*
X74193557Y-90639773D01*
X74171613Y-90631921D01*
X74150543Y-90621956D01*
X74130552Y-90609974D01*
X74111832Y-90596090D01*
X74094562Y-90580438D01*
X74078910Y-90563168D01*
X74065026Y-90544448D01*
X74053044Y-90524457D01*
X74043079Y-90503387D01*
X74035227Y-90481443D01*
X74029563Y-90458834D01*
X74026144Y-90435779D01*
X74025000Y-90412500D01*
X74025000Y-89837500D01*
X74026144Y-89814221D01*
X74029563Y-89791166D01*
X74035227Y-89768557D01*
X74043079Y-89746613D01*
X74053044Y-89725543D01*
X74065026Y-89705552D01*
X74078910Y-89686832D01*
X74094562Y-89669562D01*
X74111832Y-89653910D01*
X74130552Y-89640026D01*
X74150543Y-89628044D01*
X74171613Y-89618079D01*
X74193557Y-89610227D01*
X74216166Y-89604563D01*
X74239221Y-89601144D01*
X74262500Y-89600000D01*
X74737500Y-89600000D01*
X74760779Y-89601144D01*
X74760779Y-89601144D01*
G37*
D12*
X74500000Y-90125000D03*
G04 #@! TD*
D11*
G04 #@! TO.C,R17*
G36*
X79185779Y-62526144D02*
X79208834Y-62529563D01*
X79231443Y-62535227D01*
X79253387Y-62543079D01*
X79274457Y-62553044D01*
X79294448Y-62565026D01*
X79313168Y-62578910D01*
X79330438Y-62594562D01*
X79346090Y-62611832D01*
X79359974Y-62630552D01*
X79371956Y-62650543D01*
X79381921Y-62671613D01*
X79389773Y-62693557D01*
X79395437Y-62716166D01*
X79398856Y-62739221D01*
X79400000Y-62762500D01*
X79400000Y-63237500D01*
X79398856Y-63260779D01*
X79395437Y-63283834D01*
X79389773Y-63306443D01*
X79381921Y-63328387D01*
X79371956Y-63349457D01*
X79359974Y-63369448D01*
X79346090Y-63388168D01*
X79330438Y-63405438D01*
X79313168Y-63421090D01*
X79294448Y-63434974D01*
X79274457Y-63446956D01*
X79253387Y-63456921D01*
X79231443Y-63464773D01*
X79208834Y-63470437D01*
X79185779Y-63473856D01*
X79162500Y-63475000D01*
X78587500Y-63475000D01*
X78564221Y-63473856D01*
X78541166Y-63470437D01*
X78518557Y-63464773D01*
X78496613Y-63456921D01*
X78475543Y-63446956D01*
X78455552Y-63434974D01*
X78436832Y-63421090D01*
X78419562Y-63405438D01*
X78403910Y-63388168D01*
X78390026Y-63369448D01*
X78378044Y-63349457D01*
X78368079Y-63328387D01*
X78360227Y-63306443D01*
X78354563Y-63283834D01*
X78351144Y-63260779D01*
X78350000Y-63237500D01*
X78350000Y-62762500D01*
X78351144Y-62739221D01*
X78354563Y-62716166D01*
X78360227Y-62693557D01*
X78368079Y-62671613D01*
X78378044Y-62650543D01*
X78390026Y-62630552D01*
X78403910Y-62611832D01*
X78419562Y-62594562D01*
X78436832Y-62578910D01*
X78455552Y-62565026D01*
X78475543Y-62553044D01*
X78496613Y-62543079D01*
X78518557Y-62535227D01*
X78541166Y-62529563D01*
X78564221Y-62526144D01*
X78587500Y-62525000D01*
X79162500Y-62525000D01*
X79185779Y-62526144D01*
X79185779Y-62526144D01*
G37*
D12*
X78875000Y-63000000D03*
D11*
G36*
X77435779Y-62526144D02*
X77458834Y-62529563D01*
X77481443Y-62535227D01*
X77503387Y-62543079D01*
X77524457Y-62553044D01*
X77544448Y-62565026D01*
X77563168Y-62578910D01*
X77580438Y-62594562D01*
X77596090Y-62611832D01*
X77609974Y-62630552D01*
X77621956Y-62650543D01*
X77631921Y-62671613D01*
X77639773Y-62693557D01*
X77645437Y-62716166D01*
X77648856Y-62739221D01*
X77650000Y-62762500D01*
X77650000Y-63237500D01*
X77648856Y-63260779D01*
X77645437Y-63283834D01*
X77639773Y-63306443D01*
X77631921Y-63328387D01*
X77621956Y-63349457D01*
X77609974Y-63369448D01*
X77596090Y-63388168D01*
X77580438Y-63405438D01*
X77563168Y-63421090D01*
X77544448Y-63434974D01*
X77524457Y-63446956D01*
X77503387Y-63456921D01*
X77481443Y-63464773D01*
X77458834Y-63470437D01*
X77435779Y-63473856D01*
X77412500Y-63475000D01*
X76837500Y-63475000D01*
X76814221Y-63473856D01*
X76791166Y-63470437D01*
X76768557Y-63464773D01*
X76746613Y-63456921D01*
X76725543Y-63446956D01*
X76705552Y-63434974D01*
X76686832Y-63421090D01*
X76669562Y-63405438D01*
X76653910Y-63388168D01*
X76640026Y-63369448D01*
X76628044Y-63349457D01*
X76618079Y-63328387D01*
X76610227Y-63306443D01*
X76604563Y-63283834D01*
X76601144Y-63260779D01*
X76600000Y-63237500D01*
X76600000Y-62762500D01*
X76601144Y-62739221D01*
X76604563Y-62716166D01*
X76610227Y-62693557D01*
X76618079Y-62671613D01*
X76628044Y-62650543D01*
X76640026Y-62630552D01*
X76653910Y-62611832D01*
X76669562Y-62594562D01*
X76686832Y-62578910D01*
X76705552Y-62565026D01*
X76725543Y-62553044D01*
X76746613Y-62543079D01*
X76768557Y-62535227D01*
X76791166Y-62529563D01*
X76814221Y-62526144D01*
X76837500Y-62525000D01*
X77412500Y-62525000D01*
X77435779Y-62526144D01*
X77435779Y-62526144D01*
G37*
D12*
X77125000Y-63000000D03*
G04 #@! TD*
D11*
G04 #@! TO.C,R18*
G36*
X70685779Y-78526144D02*
X70708834Y-78529563D01*
X70731443Y-78535227D01*
X70753387Y-78543079D01*
X70774457Y-78553044D01*
X70794448Y-78565026D01*
X70813168Y-78578910D01*
X70830438Y-78594562D01*
X70846090Y-78611832D01*
X70859974Y-78630552D01*
X70871956Y-78650543D01*
X70881921Y-78671613D01*
X70889773Y-78693557D01*
X70895437Y-78716166D01*
X70898856Y-78739221D01*
X70900000Y-78762500D01*
X70900000Y-79237500D01*
X70898856Y-79260779D01*
X70895437Y-79283834D01*
X70889773Y-79306443D01*
X70881921Y-79328387D01*
X70871956Y-79349457D01*
X70859974Y-79369448D01*
X70846090Y-79388168D01*
X70830438Y-79405438D01*
X70813168Y-79421090D01*
X70794448Y-79434974D01*
X70774457Y-79446956D01*
X70753387Y-79456921D01*
X70731443Y-79464773D01*
X70708834Y-79470437D01*
X70685779Y-79473856D01*
X70662500Y-79475000D01*
X70087500Y-79475000D01*
X70064221Y-79473856D01*
X70041166Y-79470437D01*
X70018557Y-79464773D01*
X69996613Y-79456921D01*
X69975543Y-79446956D01*
X69955552Y-79434974D01*
X69936832Y-79421090D01*
X69919562Y-79405438D01*
X69903910Y-79388168D01*
X69890026Y-79369448D01*
X69878044Y-79349457D01*
X69868079Y-79328387D01*
X69860227Y-79306443D01*
X69854563Y-79283834D01*
X69851144Y-79260779D01*
X69850000Y-79237500D01*
X69850000Y-78762500D01*
X69851144Y-78739221D01*
X69854563Y-78716166D01*
X69860227Y-78693557D01*
X69868079Y-78671613D01*
X69878044Y-78650543D01*
X69890026Y-78630552D01*
X69903910Y-78611832D01*
X69919562Y-78594562D01*
X69936832Y-78578910D01*
X69955552Y-78565026D01*
X69975543Y-78553044D01*
X69996613Y-78543079D01*
X70018557Y-78535227D01*
X70041166Y-78529563D01*
X70064221Y-78526144D01*
X70087500Y-78525000D01*
X70662500Y-78525000D01*
X70685779Y-78526144D01*
X70685779Y-78526144D01*
G37*
D12*
X70375000Y-79000000D03*
D11*
G36*
X68935779Y-78526144D02*
X68958834Y-78529563D01*
X68981443Y-78535227D01*
X69003387Y-78543079D01*
X69024457Y-78553044D01*
X69044448Y-78565026D01*
X69063168Y-78578910D01*
X69080438Y-78594562D01*
X69096090Y-78611832D01*
X69109974Y-78630552D01*
X69121956Y-78650543D01*
X69131921Y-78671613D01*
X69139773Y-78693557D01*
X69145437Y-78716166D01*
X69148856Y-78739221D01*
X69150000Y-78762500D01*
X69150000Y-79237500D01*
X69148856Y-79260779D01*
X69145437Y-79283834D01*
X69139773Y-79306443D01*
X69131921Y-79328387D01*
X69121956Y-79349457D01*
X69109974Y-79369448D01*
X69096090Y-79388168D01*
X69080438Y-79405438D01*
X69063168Y-79421090D01*
X69044448Y-79434974D01*
X69024457Y-79446956D01*
X69003387Y-79456921D01*
X68981443Y-79464773D01*
X68958834Y-79470437D01*
X68935779Y-79473856D01*
X68912500Y-79475000D01*
X68337500Y-79475000D01*
X68314221Y-79473856D01*
X68291166Y-79470437D01*
X68268557Y-79464773D01*
X68246613Y-79456921D01*
X68225543Y-79446956D01*
X68205552Y-79434974D01*
X68186832Y-79421090D01*
X68169562Y-79405438D01*
X68153910Y-79388168D01*
X68140026Y-79369448D01*
X68128044Y-79349457D01*
X68118079Y-79328387D01*
X68110227Y-79306443D01*
X68104563Y-79283834D01*
X68101144Y-79260779D01*
X68100000Y-79237500D01*
X68100000Y-78762500D01*
X68101144Y-78739221D01*
X68104563Y-78716166D01*
X68110227Y-78693557D01*
X68118079Y-78671613D01*
X68128044Y-78650543D01*
X68140026Y-78630552D01*
X68153910Y-78611832D01*
X68169562Y-78594562D01*
X68186832Y-78578910D01*
X68205552Y-78565026D01*
X68225543Y-78553044D01*
X68246613Y-78543079D01*
X68268557Y-78535227D01*
X68291166Y-78529563D01*
X68314221Y-78526144D01*
X68337500Y-78525000D01*
X68912500Y-78525000D01*
X68935779Y-78526144D01*
X68935779Y-78526144D01*
G37*
D12*
X68625000Y-79000000D03*
G04 #@! TD*
D11*
G04 #@! TO.C,R19*
G36*
X79185779Y-65526144D02*
X79208834Y-65529563D01*
X79231443Y-65535227D01*
X79253387Y-65543079D01*
X79274457Y-65553044D01*
X79294448Y-65565026D01*
X79313168Y-65578910D01*
X79330438Y-65594562D01*
X79346090Y-65611832D01*
X79359974Y-65630552D01*
X79371956Y-65650543D01*
X79381921Y-65671613D01*
X79389773Y-65693557D01*
X79395437Y-65716166D01*
X79398856Y-65739221D01*
X79400000Y-65762500D01*
X79400000Y-66237500D01*
X79398856Y-66260779D01*
X79395437Y-66283834D01*
X79389773Y-66306443D01*
X79381921Y-66328387D01*
X79371956Y-66349457D01*
X79359974Y-66369448D01*
X79346090Y-66388168D01*
X79330438Y-66405438D01*
X79313168Y-66421090D01*
X79294448Y-66434974D01*
X79274457Y-66446956D01*
X79253387Y-66456921D01*
X79231443Y-66464773D01*
X79208834Y-66470437D01*
X79185779Y-66473856D01*
X79162500Y-66475000D01*
X78587500Y-66475000D01*
X78564221Y-66473856D01*
X78541166Y-66470437D01*
X78518557Y-66464773D01*
X78496613Y-66456921D01*
X78475543Y-66446956D01*
X78455552Y-66434974D01*
X78436832Y-66421090D01*
X78419562Y-66405438D01*
X78403910Y-66388168D01*
X78390026Y-66369448D01*
X78378044Y-66349457D01*
X78368079Y-66328387D01*
X78360227Y-66306443D01*
X78354563Y-66283834D01*
X78351144Y-66260779D01*
X78350000Y-66237500D01*
X78350000Y-65762500D01*
X78351144Y-65739221D01*
X78354563Y-65716166D01*
X78360227Y-65693557D01*
X78368079Y-65671613D01*
X78378044Y-65650543D01*
X78390026Y-65630552D01*
X78403910Y-65611832D01*
X78419562Y-65594562D01*
X78436832Y-65578910D01*
X78455552Y-65565026D01*
X78475543Y-65553044D01*
X78496613Y-65543079D01*
X78518557Y-65535227D01*
X78541166Y-65529563D01*
X78564221Y-65526144D01*
X78587500Y-65525000D01*
X79162500Y-65525000D01*
X79185779Y-65526144D01*
X79185779Y-65526144D01*
G37*
D12*
X78875000Y-66000000D03*
D11*
G36*
X77435779Y-65526144D02*
X77458834Y-65529563D01*
X77481443Y-65535227D01*
X77503387Y-65543079D01*
X77524457Y-65553044D01*
X77544448Y-65565026D01*
X77563168Y-65578910D01*
X77580438Y-65594562D01*
X77596090Y-65611832D01*
X77609974Y-65630552D01*
X77621956Y-65650543D01*
X77631921Y-65671613D01*
X77639773Y-65693557D01*
X77645437Y-65716166D01*
X77648856Y-65739221D01*
X77650000Y-65762500D01*
X77650000Y-66237500D01*
X77648856Y-66260779D01*
X77645437Y-66283834D01*
X77639773Y-66306443D01*
X77631921Y-66328387D01*
X77621956Y-66349457D01*
X77609974Y-66369448D01*
X77596090Y-66388168D01*
X77580438Y-66405438D01*
X77563168Y-66421090D01*
X77544448Y-66434974D01*
X77524457Y-66446956D01*
X77503387Y-66456921D01*
X77481443Y-66464773D01*
X77458834Y-66470437D01*
X77435779Y-66473856D01*
X77412500Y-66475000D01*
X76837500Y-66475000D01*
X76814221Y-66473856D01*
X76791166Y-66470437D01*
X76768557Y-66464773D01*
X76746613Y-66456921D01*
X76725543Y-66446956D01*
X76705552Y-66434974D01*
X76686832Y-66421090D01*
X76669562Y-66405438D01*
X76653910Y-66388168D01*
X76640026Y-66369448D01*
X76628044Y-66349457D01*
X76618079Y-66328387D01*
X76610227Y-66306443D01*
X76604563Y-66283834D01*
X76601144Y-66260779D01*
X76600000Y-66237500D01*
X76600000Y-65762500D01*
X76601144Y-65739221D01*
X76604563Y-65716166D01*
X76610227Y-65693557D01*
X76618079Y-65671613D01*
X76628044Y-65650543D01*
X76640026Y-65630552D01*
X76653910Y-65611832D01*
X76669562Y-65594562D01*
X76686832Y-65578910D01*
X76705552Y-65565026D01*
X76725543Y-65553044D01*
X76746613Y-65543079D01*
X76768557Y-65535227D01*
X76791166Y-65529563D01*
X76814221Y-65526144D01*
X76837500Y-65525000D01*
X77412500Y-65525000D01*
X77435779Y-65526144D01*
X77435779Y-65526144D01*
G37*
D12*
X77125000Y-66000000D03*
G04 #@! TD*
D11*
G04 #@! TO.C,R20*
G36*
X83185779Y-62526144D02*
X83208834Y-62529563D01*
X83231443Y-62535227D01*
X83253387Y-62543079D01*
X83274457Y-62553044D01*
X83294448Y-62565026D01*
X83313168Y-62578910D01*
X83330438Y-62594562D01*
X83346090Y-62611832D01*
X83359974Y-62630552D01*
X83371956Y-62650543D01*
X83381921Y-62671613D01*
X83389773Y-62693557D01*
X83395437Y-62716166D01*
X83398856Y-62739221D01*
X83400000Y-62762500D01*
X83400000Y-63237500D01*
X83398856Y-63260779D01*
X83395437Y-63283834D01*
X83389773Y-63306443D01*
X83381921Y-63328387D01*
X83371956Y-63349457D01*
X83359974Y-63369448D01*
X83346090Y-63388168D01*
X83330438Y-63405438D01*
X83313168Y-63421090D01*
X83294448Y-63434974D01*
X83274457Y-63446956D01*
X83253387Y-63456921D01*
X83231443Y-63464773D01*
X83208834Y-63470437D01*
X83185779Y-63473856D01*
X83162500Y-63475000D01*
X82587500Y-63475000D01*
X82564221Y-63473856D01*
X82541166Y-63470437D01*
X82518557Y-63464773D01*
X82496613Y-63456921D01*
X82475543Y-63446956D01*
X82455552Y-63434974D01*
X82436832Y-63421090D01*
X82419562Y-63405438D01*
X82403910Y-63388168D01*
X82390026Y-63369448D01*
X82378044Y-63349457D01*
X82368079Y-63328387D01*
X82360227Y-63306443D01*
X82354563Y-63283834D01*
X82351144Y-63260779D01*
X82350000Y-63237500D01*
X82350000Y-62762500D01*
X82351144Y-62739221D01*
X82354563Y-62716166D01*
X82360227Y-62693557D01*
X82368079Y-62671613D01*
X82378044Y-62650543D01*
X82390026Y-62630552D01*
X82403910Y-62611832D01*
X82419562Y-62594562D01*
X82436832Y-62578910D01*
X82455552Y-62565026D01*
X82475543Y-62553044D01*
X82496613Y-62543079D01*
X82518557Y-62535227D01*
X82541166Y-62529563D01*
X82564221Y-62526144D01*
X82587500Y-62525000D01*
X83162500Y-62525000D01*
X83185779Y-62526144D01*
X83185779Y-62526144D01*
G37*
D12*
X82875000Y-63000000D03*
D11*
G36*
X81435779Y-62526144D02*
X81458834Y-62529563D01*
X81481443Y-62535227D01*
X81503387Y-62543079D01*
X81524457Y-62553044D01*
X81544448Y-62565026D01*
X81563168Y-62578910D01*
X81580438Y-62594562D01*
X81596090Y-62611832D01*
X81609974Y-62630552D01*
X81621956Y-62650543D01*
X81631921Y-62671613D01*
X81639773Y-62693557D01*
X81645437Y-62716166D01*
X81648856Y-62739221D01*
X81650000Y-62762500D01*
X81650000Y-63237500D01*
X81648856Y-63260779D01*
X81645437Y-63283834D01*
X81639773Y-63306443D01*
X81631921Y-63328387D01*
X81621956Y-63349457D01*
X81609974Y-63369448D01*
X81596090Y-63388168D01*
X81580438Y-63405438D01*
X81563168Y-63421090D01*
X81544448Y-63434974D01*
X81524457Y-63446956D01*
X81503387Y-63456921D01*
X81481443Y-63464773D01*
X81458834Y-63470437D01*
X81435779Y-63473856D01*
X81412500Y-63475000D01*
X80837500Y-63475000D01*
X80814221Y-63473856D01*
X80791166Y-63470437D01*
X80768557Y-63464773D01*
X80746613Y-63456921D01*
X80725543Y-63446956D01*
X80705552Y-63434974D01*
X80686832Y-63421090D01*
X80669562Y-63405438D01*
X80653910Y-63388168D01*
X80640026Y-63369448D01*
X80628044Y-63349457D01*
X80618079Y-63328387D01*
X80610227Y-63306443D01*
X80604563Y-63283834D01*
X80601144Y-63260779D01*
X80600000Y-63237500D01*
X80600000Y-62762500D01*
X80601144Y-62739221D01*
X80604563Y-62716166D01*
X80610227Y-62693557D01*
X80618079Y-62671613D01*
X80628044Y-62650543D01*
X80640026Y-62630552D01*
X80653910Y-62611832D01*
X80669562Y-62594562D01*
X80686832Y-62578910D01*
X80705552Y-62565026D01*
X80725543Y-62553044D01*
X80746613Y-62543079D01*
X80768557Y-62535227D01*
X80791166Y-62529563D01*
X80814221Y-62526144D01*
X80837500Y-62525000D01*
X81412500Y-62525000D01*
X81435779Y-62526144D01*
X81435779Y-62526144D01*
G37*
D12*
X81125000Y-63000000D03*
G04 #@! TD*
D11*
G04 #@! TO.C,R21*
G36*
X83185779Y-65526144D02*
X83208834Y-65529563D01*
X83231443Y-65535227D01*
X83253387Y-65543079D01*
X83274457Y-65553044D01*
X83294448Y-65565026D01*
X83313168Y-65578910D01*
X83330438Y-65594562D01*
X83346090Y-65611832D01*
X83359974Y-65630552D01*
X83371956Y-65650543D01*
X83381921Y-65671613D01*
X83389773Y-65693557D01*
X83395437Y-65716166D01*
X83398856Y-65739221D01*
X83400000Y-65762500D01*
X83400000Y-66237500D01*
X83398856Y-66260779D01*
X83395437Y-66283834D01*
X83389773Y-66306443D01*
X83381921Y-66328387D01*
X83371956Y-66349457D01*
X83359974Y-66369448D01*
X83346090Y-66388168D01*
X83330438Y-66405438D01*
X83313168Y-66421090D01*
X83294448Y-66434974D01*
X83274457Y-66446956D01*
X83253387Y-66456921D01*
X83231443Y-66464773D01*
X83208834Y-66470437D01*
X83185779Y-66473856D01*
X83162500Y-66475000D01*
X82587500Y-66475000D01*
X82564221Y-66473856D01*
X82541166Y-66470437D01*
X82518557Y-66464773D01*
X82496613Y-66456921D01*
X82475543Y-66446956D01*
X82455552Y-66434974D01*
X82436832Y-66421090D01*
X82419562Y-66405438D01*
X82403910Y-66388168D01*
X82390026Y-66369448D01*
X82378044Y-66349457D01*
X82368079Y-66328387D01*
X82360227Y-66306443D01*
X82354563Y-66283834D01*
X82351144Y-66260779D01*
X82350000Y-66237500D01*
X82350000Y-65762500D01*
X82351144Y-65739221D01*
X82354563Y-65716166D01*
X82360227Y-65693557D01*
X82368079Y-65671613D01*
X82378044Y-65650543D01*
X82390026Y-65630552D01*
X82403910Y-65611832D01*
X82419562Y-65594562D01*
X82436832Y-65578910D01*
X82455552Y-65565026D01*
X82475543Y-65553044D01*
X82496613Y-65543079D01*
X82518557Y-65535227D01*
X82541166Y-65529563D01*
X82564221Y-65526144D01*
X82587500Y-65525000D01*
X83162500Y-65525000D01*
X83185779Y-65526144D01*
X83185779Y-65526144D01*
G37*
D12*
X82875000Y-66000000D03*
D11*
G36*
X81435779Y-65526144D02*
X81458834Y-65529563D01*
X81481443Y-65535227D01*
X81503387Y-65543079D01*
X81524457Y-65553044D01*
X81544448Y-65565026D01*
X81563168Y-65578910D01*
X81580438Y-65594562D01*
X81596090Y-65611832D01*
X81609974Y-65630552D01*
X81621956Y-65650543D01*
X81631921Y-65671613D01*
X81639773Y-65693557D01*
X81645437Y-65716166D01*
X81648856Y-65739221D01*
X81650000Y-65762500D01*
X81650000Y-66237500D01*
X81648856Y-66260779D01*
X81645437Y-66283834D01*
X81639773Y-66306443D01*
X81631921Y-66328387D01*
X81621956Y-66349457D01*
X81609974Y-66369448D01*
X81596090Y-66388168D01*
X81580438Y-66405438D01*
X81563168Y-66421090D01*
X81544448Y-66434974D01*
X81524457Y-66446956D01*
X81503387Y-66456921D01*
X81481443Y-66464773D01*
X81458834Y-66470437D01*
X81435779Y-66473856D01*
X81412500Y-66475000D01*
X80837500Y-66475000D01*
X80814221Y-66473856D01*
X80791166Y-66470437D01*
X80768557Y-66464773D01*
X80746613Y-66456921D01*
X80725543Y-66446956D01*
X80705552Y-66434974D01*
X80686832Y-66421090D01*
X80669562Y-66405438D01*
X80653910Y-66388168D01*
X80640026Y-66369448D01*
X80628044Y-66349457D01*
X80618079Y-66328387D01*
X80610227Y-66306443D01*
X80604563Y-66283834D01*
X80601144Y-66260779D01*
X80600000Y-66237500D01*
X80600000Y-65762500D01*
X80601144Y-65739221D01*
X80604563Y-65716166D01*
X80610227Y-65693557D01*
X80618079Y-65671613D01*
X80628044Y-65650543D01*
X80640026Y-65630552D01*
X80653910Y-65611832D01*
X80669562Y-65594562D01*
X80686832Y-65578910D01*
X80705552Y-65565026D01*
X80725543Y-65553044D01*
X80746613Y-65543079D01*
X80768557Y-65535227D01*
X80791166Y-65529563D01*
X80814221Y-65526144D01*
X80837500Y-65525000D01*
X81412500Y-65525000D01*
X81435779Y-65526144D01*
X81435779Y-65526144D01*
G37*
D12*
X81125000Y-66000000D03*
G04 #@! TD*
D11*
G04 #@! TO.C,R23*
G36*
X72760779Y-84601144D02*
X72783834Y-84604563D01*
X72806443Y-84610227D01*
X72828387Y-84618079D01*
X72849457Y-84628044D01*
X72869448Y-84640026D01*
X72888168Y-84653910D01*
X72905438Y-84669562D01*
X72921090Y-84686832D01*
X72934974Y-84705552D01*
X72946956Y-84725543D01*
X72956921Y-84746613D01*
X72964773Y-84768557D01*
X72970437Y-84791166D01*
X72973856Y-84814221D01*
X72975000Y-84837500D01*
X72975000Y-85412500D01*
X72973856Y-85435779D01*
X72970437Y-85458834D01*
X72964773Y-85481443D01*
X72956921Y-85503387D01*
X72946956Y-85524457D01*
X72934974Y-85544448D01*
X72921090Y-85563168D01*
X72905438Y-85580438D01*
X72888168Y-85596090D01*
X72869448Y-85609974D01*
X72849457Y-85621956D01*
X72828387Y-85631921D01*
X72806443Y-85639773D01*
X72783834Y-85645437D01*
X72760779Y-85648856D01*
X72737500Y-85650000D01*
X72262500Y-85650000D01*
X72239221Y-85648856D01*
X72216166Y-85645437D01*
X72193557Y-85639773D01*
X72171613Y-85631921D01*
X72150543Y-85621956D01*
X72130552Y-85609974D01*
X72111832Y-85596090D01*
X72094562Y-85580438D01*
X72078910Y-85563168D01*
X72065026Y-85544448D01*
X72053044Y-85524457D01*
X72043079Y-85503387D01*
X72035227Y-85481443D01*
X72029563Y-85458834D01*
X72026144Y-85435779D01*
X72025000Y-85412500D01*
X72025000Y-84837500D01*
X72026144Y-84814221D01*
X72029563Y-84791166D01*
X72035227Y-84768557D01*
X72043079Y-84746613D01*
X72053044Y-84725543D01*
X72065026Y-84705552D01*
X72078910Y-84686832D01*
X72094562Y-84669562D01*
X72111832Y-84653910D01*
X72130552Y-84640026D01*
X72150543Y-84628044D01*
X72171613Y-84618079D01*
X72193557Y-84610227D01*
X72216166Y-84604563D01*
X72239221Y-84601144D01*
X72262500Y-84600000D01*
X72737500Y-84600000D01*
X72760779Y-84601144D01*
X72760779Y-84601144D01*
G37*
D12*
X72500000Y-85125000D03*
D11*
G36*
X72760779Y-86351144D02*
X72783834Y-86354563D01*
X72806443Y-86360227D01*
X72828387Y-86368079D01*
X72849457Y-86378044D01*
X72869448Y-86390026D01*
X72888168Y-86403910D01*
X72905438Y-86419562D01*
X72921090Y-86436832D01*
X72934974Y-86455552D01*
X72946956Y-86475543D01*
X72956921Y-86496613D01*
X72964773Y-86518557D01*
X72970437Y-86541166D01*
X72973856Y-86564221D01*
X72975000Y-86587500D01*
X72975000Y-87162500D01*
X72973856Y-87185779D01*
X72970437Y-87208834D01*
X72964773Y-87231443D01*
X72956921Y-87253387D01*
X72946956Y-87274457D01*
X72934974Y-87294448D01*
X72921090Y-87313168D01*
X72905438Y-87330438D01*
X72888168Y-87346090D01*
X72869448Y-87359974D01*
X72849457Y-87371956D01*
X72828387Y-87381921D01*
X72806443Y-87389773D01*
X72783834Y-87395437D01*
X72760779Y-87398856D01*
X72737500Y-87400000D01*
X72262500Y-87400000D01*
X72239221Y-87398856D01*
X72216166Y-87395437D01*
X72193557Y-87389773D01*
X72171613Y-87381921D01*
X72150543Y-87371956D01*
X72130552Y-87359974D01*
X72111832Y-87346090D01*
X72094562Y-87330438D01*
X72078910Y-87313168D01*
X72065026Y-87294448D01*
X72053044Y-87274457D01*
X72043079Y-87253387D01*
X72035227Y-87231443D01*
X72029563Y-87208834D01*
X72026144Y-87185779D01*
X72025000Y-87162500D01*
X72025000Y-86587500D01*
X72026144Y-86564221D01*
X72029563Y-86541166D01*
X72035227Y-86518557D01*
X72043079Y-86496613D01*
X72053044Y-86475543D01*
X72065026Y-86455552D01*
X72078910Y-86436832D01*
X72094562Y-86419562D01*
X72111832Y-86403910D01*
X72130552Y-86390026D01*
X72150543Y-86378044D01*
X72171613Y-86368079D01*
X72193557Y-86360227D01*
X72216166Y-86354563D01*
X72239221Y-86351144D01*
X72262500Y-86350000D01*
X72737500Y-86350000D01*
X72760779Y-86351144D01*
X72760779Y-86351144D01*
G37*
D12*
X72500000Y-86875000D03*
G04 #@! TD*
D11*
G04 #@! TO.C,R24*
G36*
X69260779Y-53851144D02*
X69283834Y-53854563D01*
X69306443Y-53860227D01*
X69328387Y-53868079D01*
X69349457Y-53878044D01*
X69369448Y-53890026D01*
X69388168Y-53903910D01*
X69405438Y-53919562D01*
X69421090Y-53936832D01*
X69434974Y-53955552D01*
X69446956Y-53975543D01*
X69456921Y-53996613D01*
X69464773Y-54018557D01*
X69470437Y-54041166D01*
X69473856Y-54064221D01*
X69475000Y-54087500D01*
X69475000Y-54662500D01*
X69473856Y-54685779D01*
X69470437Y-54708834D01*
X69464773Y-54731443D01*
X69456921Y-54753387D01*
X69446956Y-54774457D01*
X69434974Y-54794448D01*
X69421090Y-54813168D01*
X69405438Y-54830438D01*
X69388168Y-54846090D01*
X69369448Y-54859974D01*
X69349457Y-54871956D01*
X69328387Y-54881921D01*
X69306443Y-54889773D01*
X69283834Y-54895437D01*
X69260779Y-54898856D01*
X69237500Y-54900000D01*
X68762500Y-54900000D01*
X68739221Y-54898856D01*
X68716166Y-54895437D01*
X68693557Y-54889773D01*
X68671613Y-54881921D01*
X68650543Y-54871956D01*
X68630552Y-54859974D01*
X68611832Y-54846090D01*
X68594562Y-54830438D01*
X68578910Y-54813168D01*
X68565026Y-54794448D01*
X68553044Y-54774457D01*
X68543079Y-54753387D01*
X68535227Y-54731443D01*
X68529563Y-54708834D01*
X68526144Y-54685779D01*
X68525000Y-54662500D01*
X68525000Y-54087500D01*
X68526144Y-54064221D01*
X68529563Y-54041166D01*
X68535227Y-54018557D01*
X68543079Y-53996613D01*
X68553044Y-53975543D01*
X68565026Y-53955552D01*
X68578910Y-53936832D01*
X68594562Y-53919562D01*
X68611832Y-53903910D01*
X68630552Y-53890026D01*
X68650543Y-53878044D01*
X68671613Y-53868079D01*
X68693557Y-53860227D01*
X68716166Y-53854563D01*
X68739221Y-53851144D01*
X68762500Y-53850000D01*
X69237500Y-53850000D01*
X69260779Y-53851144D01*
X69260779Y-53851144D01*
G37*
D12*
X69000000Y-54375000D03*
D11*
G36*
X69260779Y-52101144D02*
X69283834Y-52104563D01*
X69306443Y-52110227D01*
X69328387Y-52118079D01*
X69349457Y-52128044D01*
X69369448Y-52140026D01*
X69388168Y-52153910D01*
X69405438Y-52169562D01*
X69421090Y-52186832D01*
X69434974Y-52205552D01*
X69446956Y-52225543D01*
X69456921Y-52246613D01*
X69464773Y-52268557D01*
X69470437Y-52291166D01*
X69473856Y-52314221D01*
X69475000Y-52337500D01*
X69475000Y-52912500D01*
X69473856Y-52935779D01*
X69470437Y-52958834D01*
X69464773Y-52981443D01*
X69456921Y-53003387D01*
X69446956Y-53024457D01*
X69434974Y-53044448D01*
X69421090Y-53063168D01*
X69405438Y-53080438D01*
X69388168Y-53096090D01*
X69369448Y-53109974D01*
X69349457Y-53121956D01*
X69328387Y-53131921D01*
X69306443Y-53139773D01*
X69283834Y-53145437D01*
X69260779Y-53148856D01*
X69237500Y-53150000D01*
X68762500Y-53150000D01*
X68739221Y-53148856D01*
X68716166Y-53145437D01*
X68693557Y-53139773D01*
X68671613Y-53131921D01*
X68650543Y-53121956D01*
X68630552Y-53109974D01*
X68611832Y-53096090D01*
X68594562Y-53080438D01*
X68578910Y-53063168D01*
X68565026Y-53044448D01*
X68553044Y-53024457D01*
X68543079Y-53003387D01*
X68535227Y-52981443D01*
X68529563Y-52958834D01*
X68526144Y-52935779D01*
X68525000Y-52912500D01*
X68525000Y-52337500D01*
X68526144Y-52314221D01*
X68529563Y-52291166D01*
X68535227Y-52268557D01*
X68543079Y-52246613D01*
X68553044Y-52225543D01*
X68565026Y-52205552D01*
X68578910Y-52186832D01*
X68594562Y-52169562D01*
X68611832Y-52153910D01*
X68630552Y-52140026D01*
X68650543Y-52128044D01*
X68671613Y-52118079D01*
X68693557Y-52110227D01*
X68716166Y-52104563D01*
X68739221Y-52101144D01*
X68762500Y-52100000D01*
X69237500Y-52100000D01*
X69260779Y-52101144D01*
X69260779Y-52101144D01*
G37*
D12*
X69000000Y-52625000D03*
G04 #@! TD*
D11*
G04 #@! TO.C,R25*
G36*
X69185779Y-49026144D02*
X69208834Y-49029563D01*
X69231443Y-49035227D01*
X69253387Y-49043079D01*
X69274457Y-49053044D01*
X69294448Y-49065026D01*
X69313168Y-49078910D01*
X69330438Y-49094562D01*
X69346090Y-49111832D01*
X69359974Y-49130552D01*
X69371956Y-49150543D01*
X69381921Y-49171613D01*
X69389773Y-49193557D01*
X69395437Y-49216166D01*
X69398856Y-49239221D01*
X69400000Y-49262500D01*
X69400000Y-49737500D01*
X69398856Y-49760779D01*
X69395437Y-49783834D01*
X69389773Y-49806443D01*
X69381921Y-49828387D01*
X69371956Y-49849457D01*
X69359974Y-49869448D01*
X69346090Y-49888168D01*
X69330438Y-49905438D01*
X69313168Y-49921090D01*
X69294448Y-49934974D01*
X69274457Y-49946956D01*
X69253387Y-49956921D01*
X69231443Y-49964773D01*
X69208834Y-49970437D01*
X69185779Y-49973856D01*
X69162500Y-49975000D01*
X68587500Y-49975000D01*
X68564221Y-49973856D01*
X68541166Y-49970437D01*
X68518557Y-49964773D01*
X68496613Y-49956921D01*
X68475543Y-49946956D01*
X68455552Y-49934974D01*
X68436832Y-49921090D01*
X68419562Y-49905438D01*
X68403910Y-49888168D01*
X68390026Y-49869448D01*
X68378044Y-49849457D01*
X68368079Y-49828387D01*
X68360227Y-49806443D01*
X68354563Y-49783834D01*
X68351144Y-49760779D01*
X68350000Y-49737500D01*
X68350000Y-49262500D01*
X68351144Y-49239221D01*
X68354563Y-49216166D01*
X68360227Y-49193557D01*
X68368079Y-49171613D01*
X68378044Y-49150543D01*
X68390026Y-49130552D01*
X68403910Y-49111832D01*
X68419562Y-49094562D01*
X68436832Y-49078910D01*
X68455552Y-49065026D01*
X68475543Y-49053044D01*
X68496613Y-49043079D01*
X68518557Y-49035227D01*
X68541166Y-49029563D01*
X68564221Y-49026144D01*
X68587500Y-49025000D01*
X69162500Y-49025000D01*
X69185779Y-49026144D01*
X69185779Y-49026144D01*
G37*
D12*
X68875000Y-49500000D03*
D11*
G36*
X67435779Y-49026144D02*
X67458834Y-49029563D01*
X67481443Y-49035227D01*
X67503387Y-49043079D01*
X67524457Y-49053044D01*
X67544448Y-49065026D01*
X67563168Y-49078910D01*
X67580438Y-49094562D01*
X67596090Y-49111832D01*
X67609974Y-49130552D01*
X67621956Y-49150543D01*
X67631921Y-49171613D01*
X67639773Y-49193557D01*
X67645437Y-49216166D01*
X67648856Y-49239221D01*
X67650000Y-49262500D01*
X67650000Y-49737500D01*
X67648856Y-49760779D01*
X67645437Y-49783834D01*
X67639773Y-49806443D01*
X67631921Y-49828387D01*
X67621956Y-49849457D01*
X67609974Y-49869448D01*
X67596090Y-49888168D01*
X67580438Y-49905438D01*
X67563168Y-49921090D01*
X67544448Y-49934974D01*
X67524457Y-49946956D01*
X67503387Y-49956921D01*
X67481443Y-49964773D01*
X67458834Y-49970437D01*
X67435779Y-49973856D01*
X67412500Y-49975000D01*
X66837500Y-49975000D01*
X66814221Y-49973856D01*
X66791166Y-49970437D01*
X66768557Y-49964773D01*
X66746613Y-49956921D01*
X66725543Y-49946956D01*
X66705552Y-49934974D01*
X66686832Y-49921090D01*
X66669562Y-49905438D01*
X66653910Y-49888168D01*
X66640026Y-49869448D01*
X66628044Y-49849457D01*
X66618079Y-49828387D01*
X66610227Y-49806443D01*
X66604563Y-49783834D01*
X66601144Y-49760779D01*
X66600000Y-49737500D01*
X66600000Y-49262500D01*
X66601144Y-49239221D01*
X66604563Y-49216166D01*
X66610227Y-49193557D01*
X66618079Y-49171613D01*
X66628044Y-49150543D01*
X66640026Y-49130552D01*
X66653910Y-49111832D01*
X66669562Y-49094562D01*
X66686832Y-49078910D01*
X66705552Y-49065026D01*
X66725543Y-49053044D01*
X66746613Y-49043079D01*
X66768557Y-49035227D01*
X66791166Y-49029563D01*
X66814221Y-49026144D01*
X66837500Y-49025000D01*
X67412500Y-49025000D01*
X67435779Y-49026144D01*
X67435779Y-49026144D01*
G37*
D12*
X67125000Y-49500000D03*
G04 #@! TD*
D11*
G04 #@! TO.C,R26*
G36*
X76935779Y-90526144D02*
X76958834Y-90529563D01*
X76981443Y-90535227D01*
X77003387Y-90543079D01*
X77024457Y-90553044D01*
X77044448Y-90565026D01*
X77063168Y-90578910D01*
X77080438Y-90594562D01*
X77096090Y-90611832D01*
X77109974Y-90630552D01*
X77121956Y-90650543D01*
X77131921Y-90671613D01*
X77139773Y-90693557D01*
X77145437Y-90716166D01*
X77148856Y-90739221D01*
X77150000Y-90762500D01*
X77150000Y-91237500D01*
X77148856Y-91260779D01*
X77145437Y-91283834D01*
X77139773Y-91306443D01*
X77131921Y-91328387D01*
X77121956Y-91349457D01*
X77109974Y-91369448D01*
X77096090Y-91388168D01*
X77080438Y-91405438D01*
X77063168Y-91421090D01*
X77044448Y-91434974D01*
X77024457Y-91446956D01*
X77003387Y-91456921D01*
X76981443Y-91464773D01*
X76958834Y-91470437D01*
X76935779Y-91473856D01*
X76912500Y-91475000D01*
X76337500Y-91475000D01*
X76314221Y-91473856D01*
X76291166Y-91470437D01*
X76268557Y-91464773D01*
X76246613Y-91456921D01*
X76225543Y-91446956D01*
X76205552Y-91434974D01*
X76186832Y-91421090D01*
X76169562Y-91405438D01*
X76153910Y-91388168D01*
X76140026Y-91369448D01*
X76128044Y-91349457D01*
X76118079Y-91328387D01*
X76110227Y-91306443D01*
X76104563Y-91283834D01*
X76101144Y-91260779D01*
X76100000Y-91237500D01*
X76100000Y-90762500D01*
X76101144Y-90739221D01*
X76104563Y-90716166D01*
X76110227Y-90693557D01*
X76118079Y-90671613D01*
X76128044Y-90650543D01*
X76140026Y-90630552D01*
X76153910Y-90611832D01*
X76169562Y-90594562D01*
X76186832Y-90578910D01*
X76205552Y-90565026D01*
X76225543Y-90553044D01*
X76246613Y-90543079D01*
X76268557Y-90535227D01*
X76291166Y-90529563D01*
X76314221Y-90526144D01*
X76337500Y-90525000D01*
X76912500Y-90525000D01*
X76935779Y-90526144D01*
X76935779Y-90526144D01*
G37*
D12*
X76625000Y-91000000D03*
D11*
G36*
X78685779Y-90526144D02*
X78708834Y-90529563D01*
X78731443Y-90535227D01*
X78753387Y-90543079D01*
X78774457Y-90553044D01*
X78794448Y-90565026D01*
X78813168Y-90578910D01*
X78830438Y-90594562D01*
X78846090Y-90611832D01*
X78859974Y-90630552D01*
X78871956Y-90650543D01*
X78881921Y-90671613D01*
X78889773Y-90693557D01*
X78895437Y-90716166D01*
X78898856Y-90739221D01*
X78900000Y-90762500D01*
X78900000Y-91237500D01*
X78898856Y-91260779D01*
X78895437Y-91283834D01*
X78889773Y-91306443D01*
X78881921Y-91328387D01*
X78871956Y-91349457D01*
X78859974Y-91369448D01*
X78846090Y-91388168D01*
X78830438Y-91405438D01*
X78813168Y-91421090D01*
X78794448Y-91434974D01*
X78774457Y-91446956D01*
X78753387Y-91456921D01*
X78731443Y-91464773D01*
X78708834Y-91470437D01*
X78685779Y-91473856D01*
X78662500Y-91475000D01*
X78087500Y-91475000D01*
X78064221Y-91473856D01*
X78041166Y-91470437D01*
X78018557Y-91464773D01*
X77996613Y-91456921D01*
X77975543Y-91446956D01*
X77955552Y-91434974D01*
X77936832Y-91421090D01*
X77919562Y-91405438D01*
X77903910Y-91388168D01*
X77890026Y-91369448D01*
X77878044Y-91349457D01*
X77868079Y-91328387D01*
X77860227Y-91306443D01*
X77854563Y-91283834D01*
X77851144Y-91260779D01*
X77850000Y-91237500D01*
X77850000Y-90762500D01*
X77851144Y-90739221D01*
X77854563Y-90716166D01*
X77860227Y-90693557D01*
X77868079Y-90671613D01*
X77878044Y-90650543D01*
X77890026Y-90630552D01*
X77903910Y-90611832D01*
X77919562Y-90594562D01*
X77936832Y-90578910D01*
X77955552Y-90565026D01*
X77975543Y-90553044D01*
X77996613Y-90543079D01*
X78018557Y-90535227D01*
X78041166Y-90529563D01*
X78064221Y-90526144D01*
X78087500Y-90525000D01*
X78662500Y-90525000D01*
X78685779Y-90526144D01*
X78685779Y-90526144D01*
G37*
D12*
X78375000Y-91000000D03*
G04 #@! TD*
D11*
G04 #@! TO.C,R27*
G36*
X83185779Y-90526144D02*
X83208834Y-90529563D01*
X83231443Y-90535227D01*
X83253387Y-90543079D01*
X83274457Y-90553044D01*
X83294448Y-90565026D01*
X83313168Y-90578910D01*
X83330438Y-90594562D01*
X83346090Y-90611832D01*
X83359974Y-90630552D01*
X83371956Y-90650543D01*
X83381921Y-90671613D01*
X83389773Y-90693557D01*
X83395437Y-90716166D01*
X83398856Y-90739221D01*
X83400000Y-90762500D01*
X83400000Y-91237500D01*
X83398856Y-91260779D01*
X83395437Y-91283834D01*
X83389773Y-91306443D01*
X83381921Y-91328387D01*
X83371956Y-91349457D01*
X83359974Y-91369448D01*
X83346090Y-91388168D01*
X83330438Y-91405438D01*
X83313168Y-91421090D01*
X83294448Y-91434974D01*
X83274457Y-91446956D01*
X83253387Y-91456921D01*
X83231443Y-91464773D01*
X83208834Y-91470437D01*
X83185779Y-91473856D01*
X83162500Y-91475000D01*
X82587500Y-91475000D01*
X82564221Y-91473856D01*
X82541166Y-91470437D01*
X82518557Y-91464773D01*
X82496613Y-91456921D01*
X82475543Y-91446956D01*
X82455552Y-91434974D01*
X82436832Y-91421090D01*
X82419562Y-91405438D01*
X82403910Y-91388168D01*
X82390026Y-91369448D01*
X82378044Y-91349457D01*
X82368079Y-91328387D01*
X82360227Y-91306443D01*
X82354563Y-91283834D01*
X82351144Y-91260779D01*
X82350000Y-91237500D01*
X82350000Y-90762500D01*
X82351144Y-90739221D01*
X82354563Y-90716166D01*
X82360227Y-90693557D01*
X82368079Y-90671613D01*
X82378044Y-90650543D01*
X82390026Y-90630552D01*
X82403910Y-90611832D01*
X82419562Y-90594562D01*
X82436832Y-90578910D01*
X82455552Y-90565026D01*
X82475543Y-90553044D01*
X82496613Y-90543079D01*
X82518557Y-90535227D01*
X82541166Y-90529563D01*
X82564221Y-90526144D01*
X82587500Y-90525000D01*
X83162500Y-90525000D01*
X83185779Y-90526144D01*
X83185779Y-90526144D01*
G37*
D12*
X82875000Y-91000000D03*
D11*
G36*
X81435779Y-90526144D02*
X81458834Y-90529563D01*
X81481443Y-90535227D01*
X81503387Y-90543079D01*
X81524457Y-90553044D01*
X81544448Y-90565026D01*
X81563168Y-90578910D01*
X81580438Y-90594562D01*
X81596090Y-90611832D01*
X81609974Y-90630552D01*
X81621956Y-90650543D01*
X81631921Y-90671613D01*
X81639773Y-90693557D01*
X81645437Y-90716166D01*
X81648856Y-90739221D01*
X81650000Y-90762500D01*
X81650000Y-91237500D01*
X81648856Y-91260779D01*
X81645437Y-91283834D01*
X81639773Y-91306443D01*
X81631921Y-91328387D01*
X81621956Y-91349457D01*
X81609974Y-91369448D01*
X81596090Y-91388168D01*
X81580438Y-91405438D01*
X81563168Y-91421090D01*
X81544448Y-91434974D01*
X81524457Y-91446956D01*
X81503387Y-91456921D01*
X81481443Y-91464773D01*
X81458834Y-91470437D01*
X81435779Y-91473856D01*
X81412500Y-91475000D01*
X80837500Y-91475000D01*
X80814221Y-91473856D01*
X80791166Y-91470437D01*
X80768557Y-91464773D01*
X80746613Y-91456921D01*
X80725543Y-91446956D01*
X80705552Y-91434974D01*
X80686832Y-91421090D01*
X80669562Y-91405438D01*
X80653910Y-91388168D01*
X80640026Y-91369448D01*
X80628044Y-91349457D01*
X80618079Y-91328387D01*
X80610227Y-91306443D01*
X80604563Y-91283834D01*
X80601144Y-91260779D01*
X80600000Y-91237500D01*
X80600000Y-90762500D01*
X80601144Y-90739221D01*
X80604563Y-90716166D01*
X80610227Y-90693557D01*
X80618079Y-90671613D01*
X80628044Y-90650543D01*
X80640026Y-90630552D01*
X80653910Y-90611832D01*
X80669562Y-90594562D01*
X80686832Y-90578910D01*
X80705552Y-90565026D01*
X80725543Y-90553044D01*
X80746613Y-90543079D01*
X80768557Y-90535227D01*
X80791166Y-90529563D01*
X80814221Y-90526144D01*
X80837500Y-90525000D01*
X81412500Y-90525000D01*
X81435779Y-90526144D01*
X81435779Y-90526144D01*
G37*
D12*
X81125000Y-91000000D03*
G04 #@! TD*
D11*
G04 #@! TO.C,R29*
G36*
X85435779Y-48526144D02*
X85458834Y-48529563D01*
X85481443Y-48535227D01*
X85503387Y-48543079D01*
X85524457Y-48553044D01*
X85544448Y-48565026D01*
X85563168Y-48578910D01*
X85580438Y-48594562D01*
X85596090Y-48611832D01*
X85609974Y-48630552D01*
X85621956Y-48650543D01*
X85631921Y-48671613D01*
X85639773Y-48693557D01*
X85645437Y-48716166D01*
X85648856Y-48739221D01*
X85650000Y-48762500D01*
X85650000Y-49237500D01*
X85648856Y-49260779D01*
X85645437Y-49283834D01*
X85639773Y-49306443D01*
X85631921Y-49328387D01*
X85621956Y-49349457D01*
X85609974Y-49369448D01*
X85596090Y-49388168D01*
X85580438Y-49405438D01*
X85563168Y-49421090D01*
X85544448Y-49434974D01*
X85524457Y-49446956D01*
X85503387Y-49456921D01*
X85481443Y-49464773D01*
X85458834Y-49470437D01*
X85435779Y-49473856D01*
X85412500Y-49475000D01*
X84837500Y-49475000D01*
X84814221Y-49473856D01*
X84791166Y-49470437D01*
X84768557Y-49464773D01*
X84746613Y-49456921D01*
X84725543Y-49446956D01*
X84705552Y-49434974D01*
X84686832Y-49421090D01*
X84669562Y-49405438D01*
X84653910Y-49388168D01*
X84640026Y-49369448D01*
X84628044Y-49349457D01*
X84618079Y-49328387D01*
X84610227Y-49306443D01*
X84604563Y-49283834D01*
X84601144Y-49260779D01*
X84600000Y-49237500D01*
X84600000Y-48762500D01*
X84601144Y-48739221D01*
X84604563Y-48716166D01*
X84610227Y-48693557D01*
X84618079Y-48671613D01*
X84628044Y-48650543D01*
X84640026Y-48630552D01*
X84653910Y-48611832D01*
X84669562Y-48594562D01*
X84686832Y-48578910D01*
X84705552Y-48565026D01*
X84725543Y-48553044D01*
X84746613Y-48543079D01*
X84768557Y-48535227D01*
X84791166Y-48529563D01*
X84814221Y-48526144D01*
X84837500Y-48525000D01*
X85412500Y-48525000D01*
X85435779Y-48526144D01*
X85435779Y-48526144D01*
G37*
D12*
X85125000Y-49000000D03*
D11*
G36*
X87185779Y-48526144D02*
X87208834Y-48529563D01*
X87231443Y-48535227D01*
X87253387Y-48543079D01*
X87274457Y-48553044D01*
X87294448Y-48565026D01*
X87313168Y-48578910D01*
X87330438Y-48594562D01*
X87346090Y-48611832D01*
X87359974Y-48630552D01*
X87371956Y-48650543D01*
X87381921Y-48671613D01*
X87389773Y-48693557D01*
X87395437Y-48716166D01*
X87398856Y-48739221D01*
X87400000Y-48762500D01*
X87400000Y-49237500D01*
X87398856Y-49260779D01*
X87395437Y-49283834D01*
X87389773Y-49306443D01*
X87381921Y-49328387D01*
X87371956Y-49349457D01*
X87359974Y-49369448D01*
X87346090Y-49388168D01*
X87330438Y-49405438D01*
X87313168Y-49421090D01*
X87294448Y-49434974D01*
X87274457Y-49446956D01*
X87253387Y-49456921D01*
X87231443Y-49464773D01*
X87208834Y-49470437D01*
X87185779Y-49473856D01*
X87162500Y-49475000D01*
X86587500Y-49475000D01*
X86564221Y-49473856D01*
X86541166Y-49470437D01*
X86518557Y-49464773D01*
X86496613Y-49456921D01*
X86475543Y-49446956D01*
X86455552Y-49434974D01*
X86436832Y-49421090D01*
X86419562Y-49405438D01*
X86403910Y-49388168D01*
X86390026Y-49369448D01*
X86378044Y-49349457D01*
X86368079Y-49328387D01*
X86360227Y-49306443D01*
X86354563Y-49283834D01*
X86351144Y-49260779D01*
X86350000Y-49237500D01*
X86350000Y-48762500D01*
X86351144Y-48739221D01*
X86354563Y-48716166D01*
X86360227Y-48693557D01*
X86368079Y-48671613D01*
X86378044Y-48650543D01*
X86390026Y-48630552D01*
X86403910Y-48611832D01*
X86419562Y-48594562D01*
X86436832Y-48578910D01*
X86455552Y-48565026D01*
X86475543Y-48553044D01*
X86496613Y-48543079D01*
X86518557Y-48535227D01*
X86541166Y-48529563D01*
X86564221Y-48526144D01*
X86587500Y-48525000D01*
X87162500Y-48525000D01*
X87185779Y-48526144D01*
X87185779Y-48526144D01*
G37*
D12*
X86875000Y-49000000D03*
G04 #@! TD*
M02*
