G04 #@! TF.GenerationSoftware,KiCad,Pcbnew,(5.0.1-3-g963ef8bb5)*
G04 #@! TF.CreationDate,2019-04-18T21:55:15-06:00*
G04 #@! TF.ProjectId,NuisanceEngine,4E756973616E6365456E67696E652E6B,rev?*
G04 #@! TF.SameCoordinates,Original*
G04 #@! TF.FileFunction,Soldermask,Bot*
G04 #@! TF.FilePolarity,Negative*
%FSLAX46Y46*%
G04 Gerber Fmt 4.6, Leading zero omitted, Abs format (unit mm)*
G04 Created by KiCad (PCBNEW (5.0.1-3-g963ef8bb5)) date Thursday, 18 April 2019 at 21:55:15*
%MOMM*%
%LPD*%
G01*
G04 APERTURE LIST*
%ADD10C,0.100000*%
G04 APERTURE END LIST*
D10*
G36*
X106350026Y-96846115D02*
X106568412Y-96936573D01*
X106764958Y-97067901D01*
X106932099Y-97235042D01*
X107063427Y-97431588D01*
X107153885Y-97649974D01*
X107200000Y-97881809D01*
X107200000Y-98118191D01*
X107153885Y-98350026D01*
X107063427Y-98568412D01*
X106932099Y-98764958D01*
X106764958Y-98932099D01*
X106568412Y-99063427D01*
X106350026Y-99153885D01*
X106118191Y-99200000D01*
X105881809Y-99200000D01*
X105649974Y-99153885D01*
X105431588Y-99063427D01*
X105235042Y-98932099D01*
X105067901Y-98764958D01*
X104936573Y-98568412D01*
X104846115Y-98350026D01*
X104800000Y-98118191D01*
X104800000Y-97881809D01*
X104846115Y-97649974D01*
X104936573Y-97431588D01*
X105067901Y-97235042D01*
X105235042Y-97067901D01*
X105431588Y-96936573D01*
X105649974Y-96846115D01*
X105881809Y-96800000D01*
X106118191Y-96800000D01*
X106350026Y-96846115D01*
X106350026Y-96846115D01*
G37*
G36*
X101350026Y-96846115D02*
X101568412Y-96936573D01*
X101764958Y-97067901D01*
X101932099Y-97235042D01*
X102063427Y-97431588D01*
X102153885Y-97649974D01*
X102200000Y-97881809D01*
X102200000Y-98118191D01*
X102153885Y-98350026D01*
X102063427Y-98568412D01*
X101932099Y-98764958D01*
X101764958Y-98932099D01*
X101568412Y-99063427D01*
X101350026Y-99153885D01*
X101118191Y-99200000D01*
X100881809Y-99200000D01*
X100649974Y-99153885D01*
X100431588Y-99063427D01*
X100235042Y-98932099D01*
X100067901Y-98764958D01*
X99936573Y-98568412D01*
X99846115Y-98350026D01*
X99800000Y-98118191D01*
X99800000Y-97881809D01*
X99846115Y-97649974D01*
X99936573Y-97431588D01*
X100067901Y-97235042D01*
X100235042Y-97067901D01*
X100431588Y-96936573D01*
X100649974Y-96846115D01*
X100881809Y-96800000D01*
X101118191Y-96800000D01*
X101350026Y-96846115D01*
X101350026Y-96846115D01*
G37*
G36*
X96350026Y-96846115D02*
X96568412Y-96936573D01*
X96764958Y-97067901D01*
X96932099Y-97235042D01*
X97063427Y-97431588D01*
X97153885Y-97649974D01*
X97200000Y-97881809D01*
X97200000Y-98118191D01*
X97153885Y-98350026D01*
X97063427Y-98568412D01*
X96932099Y-98764958D01*
X96764958Y-98932099D01*
X96568412Y-99063427D01*
X96350026Y-99153885D01*
X96118191Y-99200000D01*
X95881809Y-99200000D01*
X95649974Y-99153885D01*
X95431588Y-99063427D01*
X95235042Y-98932099D01*
X95067901Y-98764958D01*
X94936573Y-98568412D01*
X94846115Y-98350026D01*
X94800000Y-98118191D01*
X94800000Y-97881809D01*
X94846115Y-97649974D01*
X94936573Y-97431588D01*
X95067901Y-97235042D01*
X95235042Y-97067901D01*
X95431588Y-96936573D01*
X95649974Y-96846115D01*
X95881809Y-96800000D01*
X96118191Y-96800000D01*
X96350026Y-96846115D01*
X96350026Y-96846115D01*
G37*
G36*
X64350026Y-96846115D02*
X64568412Y-96936573D01*
X64764958Y-97067901D01*
X64932099Y-97235042D01*
X65063427Y-97431588D01*
X65153885Y-97649974D01*
X65200000Y-97881809D01*
X65200000Y-98118191D01*
X65153885Y-98350026D01*
X65063427Y-98568412D01*
X64932099Y-98764958D01*
X64764958Y-98932099D01*
X64568412Y-99063427D01*
X64350026Y-99153885D01*
X64118191Y-99200000D01*
X63881809Y-99200000D01*
X63649974Y-99153885D01*
X63431588Y-99063427D01*
X63235042Y-98932099D01*
X63067901Y-98764958D01*
X62936573Y-98568412D01*
X62846115Y-98350026D01*
X62800000Y-98118191D01*
X62800000Y-97881809D01*
X62846115Y-97649974D01*
X62936573Y-97431588D01*
X63067901Y-97235042D01*
X63235042Y-97067901D01*
X63431588Y-96936573D01*
X63649974Y-96846115D01*
X63881809Y-96800000D01*
X64118191Y-96800000D01*
X64350026Y-96846115D01*
X64350026Y-96846115D01*
G37*
G36*
X59350026Y-96846115D02*
X59568412Y-96936573D01*
X59764958Y-97067901D01*
X59932099Y-97235042D01*
X60063427Y-97431588D01*
X60153885Y-97649974D01*
X60200000Y-97881809D01*
X60200000Y-98118191D01*
X60153885Y-98350026D01*
X60063427Y-98568412D01*
X59932099Y-98764958D01*
X59764958Y-98932099D01*
X59568412Y-99063427D01*
X59350026Y-99153885D01*
X59118191Y-99200000D01*
X58881809Y-99200000D01*
X58649974Y-99153885D01*
X58431588Y-99063427D01*
X58235042Y-98932099D01*
X58067901Y-98764958D01*
X57936573Y-98568412D01*
X57846115Y-98350026D01*
X57800000Y-98118191D01*
X57800000Y-97881809D01*
X57846115Y-97649974D01*
X57936573Y-97431588D01*
X58067901Y-97235042D01*
X58235042Y-97067901D01*
X58431588Y-96936573D01*
X58649974Y-96846115D01*
X58881809Y-96800000D01*
X59118191Y-96800000D01*
X59350026Y-96846115D01*
X59350026Y-96846115D01*
G37*
G36*
X54350026Y-96846115D02*
X54568412Y-96936573D01*
X54764958Y-97067901D01*
X54932099Y-97235042D01*
X55063427Y-97431588D01*
X55153885Y-97649974D01*
X55200000Y-97881809D01*
X55200000Y-98118191D01*
X55153885Y-98350026D01*
X55063427Y-98568412D01*
X54932099Y-98764958D01*
X54764958Y-98932099D01*
X54568412Y-99063427D01*
X54350026Y-99153885D01*
X54118191Y-99200000D01*
X53881809Y-99200000D01*
X53649974Y-99153885D01*
X53431588Y-99063427D01*
X53235042Y-98932099D01*
X53067901Y-98764958D01*
X52936573Y-98568412D01*
X52846115Y-98350026D01*
X52800000Y-98118191D01*
X52800000Y-97881809D01*
X52846115Y-97649974D01*
X52936573Y-97431588D01*
X53067901Y-97235042D01*
X53235042Y-97067901D01*
X53431588Y-96936573D01*
X53649974Y-96846115D01*
X53881809Y-96800000D01*
X54118191Y-96800000D01*
X54350026Y-96846115D01*
X54350026Y-96846115D01*
G37*
G36*
X77050000Y-99050000D02*
X74950000Y-99050000D01*
X74950000Y-96950000D01*
X77050000Y-96950000D01*
X77050000Y-99050000D01*
X77050000Y-99050000D01*
G37*
G36*
X73208707Y-96957596D02*
X73285836Y-96965193D01*
X73417787Y-97005220D01*
X73483763Y-97025233D01*
X73666172Y-97122733D01*
X73826054Y-97253946D01*
X73957267Y-97413828D01*
X74054767Y-97596237D01*
X74054767Y-97596238D01*
X74114807Y-97794164D01*
X74135080Y-98000000D01*
X74114807Y-98205836D01*
X74074780Y-98337787D01*
X74054767Y-98403763D01*
X73957267Y-98586172D01*
X73826054Y-98746054D01*
X73666172Y-98877267D01*
X73483763Y-98974767D01*
X73417787Y-98994780D01*
X73285836Y-99034807D01*
X73208707Y-99042403D01*
X73131580Y-99050000D01*
X73028420Y-99050000D01*
X72951293Y-99042403D01*
X72874164Y-99034807D01*
X72742213Y-98994780D01*
X72676237Y-98974767D01*
X72493828Y-98877267D01*
X72333946Y-98746054D01*
X72202733Y-98586172D01*
X72105233Y-98403763D01*
X72085220Y-98337787D01*
X72045193Y-98205836D01*
X72024920Y-98000000D01*
X72045193Y-97794164D01*
X72105233Y-97596238D01*
X72105233Y-97596237D01*
X72202733Y-97413828D01*
X72333946Y-97253946D01*
X72493828Y-97122733D01*
X72676237Y-97025233D01*
X72742213Y-97005220D01*
X72874164Y-96965193D01*
X72951293Y-96957596D01*
X73028420Y-96950000D01*
X73131580Y-96950000D01*
X73208707Y-96957596D01*
X73208707Y-96957596D01*
G37*
G36*
X70668707Y-96957596D02*
X70745836Y-96965193D01*
X70877787Y-97005220D01*
X70943763Y-97025233D01*
X71126172Y-97122733D01*
X71286054Y-97253946D01*
X71417267Y-97413828D01*
X71514767Y-97596237D01*
X71514767Y-97596238D01*
X71574807Y-97794164D01*
X71595080Y-98000000D01*
X71574807Y-98205836D01*
X71534780Y-98337787D01*
X71514767Y-98403763D01*
X71417267Y-98586172D01*
X71286054Y-98746054D01*
X71126172Y-98877267D01*
X70943763Y-98974767D01*
X70877787Y-98994780D01*
X70745836Y-99034807D01*
X70668707Y-99042403D01*
X70591580Y-99050000D01*
X70488420Y-99050000D01*
X70411293Y-99042403D01*
X70334164Y-99034807D01*
X70202213Y-98994780D01*
X70136237Y-98974767D01*
X69953828Y-98877267D01*
X69793946Y-98746054D01*
X69662733Y-98586172D01*
X69565233Y-98403763D01*
X69545220Y-98337787D01*
X69505193Y-98205836D01*
X69484920Y-98000000D01*
X69505193Y-97794164D01*
X69565233Y-97596238D01*
X69565233Y-97596237D01*
X69662733Y-97413828D01*
X69793946Y-97253946D01*
X69953828Y-97122733D01*
X70136237Y-97025233D01*
X70202213Y-97005220D01*
X70334164Y-96965193D01*
X70411293Y-96957596D01*
X70488420Y-96950000D01*
X70591580Y-96950000D01*
X70668707Y-96957596D01*
X70668707Y-96957596D01*
G37*
G36*
X69050000Y-99050000D02*
X66950000Y-99050000D01*
X66950000Y-96950000D01*
X69050000Y-96950000D01*
X69050000Y-99050000D01*
X69050000Y-99050000D01*
G37*
G36*
X92168707Y-96957596D02*
X92245836Y-96965193D01*
X92377787Y-97005220D01*
X92443763Y-97025233D01*
X92626172Y-97122733D01*
X92786054Y-97253946D01*
X92917267Y-97413828D01*
X93014767Y-97596237D01*
X93014767Y-97596238D01*
X93074807Y-97794164D01*
X93095080Y-98000000D01*
X93074807Y-98205836D01*
X93034780Y-98337787D01*
X93014767Y-98403763D01*
X92917267Y-98586172D01*
X92786054Y-98746054D01*
X92626172Y-98877267D01*
X92443763Y-98974767D01*
X92377787Y-98994780D01*
X92245836Y-99034807D01*
X92168707Y-99042403D01*
X92091580Y-99050000D01*
X91988420Y-99050000D01*
X91911293Y-99042403D01*
X91834164Y-99034807D01*
X91702213Y-98994780D01*
X91636237Y-98974767D01*
X91453828Y-98877267D01*
X91293946Y-98746054D01*
X91162733Y-98586172D01*
X91065233Y-98403763D01*
X91045220Y-98337787D01*
X91005193Y-98205836D01*
X90984920Y-98000000D01*
X91005193Y-97794164D01*
X91065233Y-97596238D01*
X91065233Y-97596237D01*
X91162733Y-97413828D01*
X91293946Y-97253946D01*
X91453828Y-97122733D01*
X91636237Y-97025233D01*
X91702213Y-97005220D01*
X91834164Y-96965193D01*
X91911293Y-96957596D01*
X91988420Y-96950000D01*
X92091580Y-96950000D01*
X92168707Y-96957596D01*
X92168707Y-96957596D01*
G37*
G36*
X90550000Y-99050000D02*
X88450000Y-99050000D01*
X88450000Y-96950000D01*
X90550000Y-96950000D01*
X90550000Y-99050000D01*
X90550000Y-99050000D01*
G37*
G36*
X81208707Y-96957596D02*
X81285836Y-96965193D01*
X81417787Y-97005220D01*
X81483763Y-97025233D01*
X81666172Y-97122733D01*
X81826054Y-97253946D01*
X81957267Y-97413828D01*
X82054767Y-97596237D01*
X82054767Y-97596238D01*
X82114807Y-97794164D01*
X82135080Y-98000000D01*
X82114807Y-98205836D01*
X82074780Y-98337787D01*
X82054767Y-98403763D01*
X81957267Y-98586172D01*
X81826054Y-98746054D01*
X81666172Y-98877267D01*
X81483763Y-98974767D01*
X81417787Y-98994780D01*
X81285836Y-99034807D01*
X81208707Y-99042403D01*
X81131580Y-99050000D01*
X81028420Y-99050000D01*
X80951293Y-99042403D01*
X80874164Y-99034807D01*
X80742213Y-98994780D01*
X80676237Y-98974767D01*
X80493828Y-98877267D01*
X80333946Y-98746054D01*
X80202733Y-98586172D01*
X80105233Y-98403763D01*
X80085220Y-98337787D01*
X80045193Y-98205836D01*
X80024920Y-98000000D01*
X80045193Y-97794164D01*
X80105233Y-97596238D01*
X80105233Y-97596237D01*
X80202733Y-97413828D01*
X80333946Y-97253946D01*
X80493828Y-97122733D01*
X80676237Y-97025233D01*
X80742213Y-97005220D01*
X80874164Y-96965193D01*
X80951293Y-96957596D01*
X81028420Y-96950000D01*
X81131580Y-96950000D01*
X81208707Y-96957596D01*
X81208707Y-96957596D01*
G37*
G36*
X78668707Y-96957596D02*
X78745836Y-96965193D01*
X78877787Y-97005220D01*
X78943763Y-97025233D01*
X79126172Y-97122733D01*
X79286054Y-97253946D01*
X79417267Y-97413828D01*
X79514767Y-97596237D01*
X79514767Y-97596238D01*
X79574807Y-97794164D01*
X79595080Y-98000000D01*
X79574807Y-98205836D01*
X79534780Y-98337787D01*
X79514767Y-98403763D01*
X79417267Y-98586172D01*
X79286054Y-98746054D01*
X79126172Y-98877267D01*
X78943763Y-98974767D01*
X78877787Y-98994780D01*
X78745836Y-99034807D01*
X78668707Y-99042403D01*
X78591580Y-99050000D01*
X78488420Y-99050000D01*
X78411293Y-99042403D01*
X78334164Y-99034807D01*
X78202213Y-98994780D01*
X78136237Y-98974767D01*
X77953828Y-98877267D01*
X77793946Y-98746054D01*
X77662733Y-98586172D01*
X77565233Y-98403763D01*
X77545220Y-98337787D01*
X77505193Y-98205836D01*
X77484920Y-98000000D01*
X77505193Y-97794164D01*
X77565233Y-97596238D01*
X77565233Y-97596237D01*
X77662733Y-97413828D01*
X77793946Y-97253946D01*
X77953828Y-97122733D01*
X78136237Y-97025233D01*
X78202213Y-97005220D01*
X78334164Y-96965193D01*
X78411293Y-96957596D01*
X78488420Y-96950000D01*
X78591580Y-96950000D01*
X78668707Y-96957596D01*
X78668707Y-96957596D01*
G37*
G36*
X85050000Y-99050000D02*
X82950000Y-99050000D01*
X82950000Y-96950000D01*
X85050000Y-96950000D01*
X85050000Y-99050000D01*
X85050000Y-99050000D01*
G37*
G36*
X86668707Y-96957596D02*
X86745836Y-96965193D01*
X86877787Y-97005220D01*
X86943763Y-97025233D01*
X87126172Y-97122733D01*
X87286054Y-97253946D01*
X87417267Y-97413828D01*
X87514767Y-97596237D01*
X87514767Y-97596238D01*
X87574807Y-97794164D01*
X87595080Y-98000000D01*
X87574807Y-98205836D01*
X87534780Y-98337787D01*
X87514767Y-98403763D01*
X87417267Y-98586172D01*
X87286054Y-98746054D01*
X87126172Y-98877267D01*
X86943763Y-98974767D01*
X86877787Y-98994780D01*
X86745836Y-99034807D01*
X86668707Y-99042403D01*
X86591580Y-99050000D01*
X86488420Y-99050000D01*
X86411293Y-99042403D01*
X86334164Y-99034807D01*
X86202213Y-98994780D01*
X86136237Y-98974767D01*
X85953828Y-98877267D01*
X85793946Y-98746054D01*
X85662733Y-98586172D01*
X85565233Y-98403763D01*
X85545220Y-98337787D01*
X85505193Y-98205836D01*
X85484920Y-98000000D01*
X85505193Y-97794164D01*
X85565233Y-97596238D01*
X85565233Y-97596237D01*
X85662733Y-97413828D01*
X85793946Y-97253946D01*
X85953828Y-97122733D01*
X86136237Y-97025233D01*
X86202213Y-97005220D01*
X86334164Y-96965193D01*
X86411293Y-96957596D01*
X86488420Y-96950000D01*
X86591580Y-96950000D01*
X86668707Y-96957596D01*
X86668707Y-96957596D01*
G37*
G36*
X96252481Y-90569855D02*
X96452118Y-90609565D01*
X96640173Y-90687460D01*
X96734201Y-90726408D01*
X96988071Y-90896038D01*
X97203962Y-91111929D01*
X97373592Y-91365799D01*
X97373592Y-91365800D01*
X97490435Y-91647882D01*
X97550000Y-91947338D01*
X97550000Y-92252662D01*
X97490435Y-92552118D01*
X97412540Y-92740173D01*
X97373592Y-92834201D01*
X97203962Y-93088071D01*
X96988071Y-93303962D01*
X96734201Y-93473592D01*
X96640173Y-93512540D01*
X96452118Y-93590435D01*
X96252481Y-93630145D01*
X96152663Y-93650000D01*
X95847337Y-93650000D01*
X95747519Y-93630145D01*
X95547882Y-93590435D01*
X95359827Y-93512540D01*
X95265799Y-93473592D01*
X95011929Y-93303962D01*
X94796038Y-93088071D01*
X94626408Y-92834201D01*
X94587460Y-92740173D01*
X94509565Y-92552118D01*
X94450000Y-92252662D01*
X94450000Y-91947338D01*
X94509565Y-91647882D01*
X94626408Y-91365800D01*
X94626408Y-91365799D01*
X94796038Y-91111929D01*
X95011929Y-90896038D01*
X95265799Y-90726408D01*
X95359827Y-90687460D01*
X95547882Y-90609565D01*
X95747519Y-90569855D01*
X95847337Y-90550000D01*
X96152663Y-90550000D01*
X96252481Y-90569855D01*
X96252481Y-90569855D01*
G37*
G36*
X68252481Y-90569855D02*
X68452118Y-90609565D01*
X68640173Y-90687460D01*
X68734201Y-90726408D01*
X68988071Y-90896038D01*
X69203962Y-91111929D01*
X69373592Y-91365799D01*
X69373592Y-91365800D01*
X69490435Y-91647882D01*
X69550000Y-91947338D01*
X69550000Y-92252662D01*
X69490435Y-92552118D01*
X69412540Y-92740173D01*
X69373592Y-92834201D01*
X69203962Y-93088071D01*
X68988071Y-93303962D01*
X68734201Y-93473592D01*
X68640173Y-93512540D01*
X68452118Y-93590435D01*
X68252481Y-93630145D01*
X68152663Y-93650000D01*
X67847337Y-93650000D01*
X67747519Y-93630145D01*
X67547882Y-93590435D01*
X67359827Y-93512540D01*
X67265799Y-93473592D01*
X67011929Y-93303962D01*
X66796038Y-93088071D01*
X66626408Y-92834201D01*
X66587460Y-92740173D01*
X66509565Y-92552118D01*
X66450000Y-92252662D01*
X66450000Y-91947338D01*
X66509565Y-91647882D01*
X66626408Y-91365800D01*
X66626408Y-91365799D01*
X66796038Y-91111929D01*
X67011929Y-90896038D01*
X67265799Y-90726408D01*
X67359827Y-90687460D01*
X67547882Y-90609565D01*
X67747519Y-90569855D01*
X67847337Y-90550000D01*
X68152663Y-90550000D01*
X68252481Y-90569855D01*
X68252481Y-90569855D01*
G37*
G36*
X88888236Y-90720149D02*
X88943112Y-90742879D01*
X89130465Y-90820483D01*
X89130466Y-90820484D01*
X89348466Y-90966147D01*
X89533853Y-91151534D01*
X89533855Y-91151537D01*
X89679517Y-91369535D01*
X89757121Y-91556888D01*
X89779851Y-91611764D01*
X89831000Y-91868907D01*
X89831000Y-92131093D01*
X89779851Y-92388236D01*
X89779850Y-92388238D01*
X89679517Y-92630465D01*
X89679516Y-92630466D01*
X89533853Y-92848466D01*
X89348466Y-93033853D01*
X89348463Y-93033855D01*
X89130465Y-93179517D01*
X88943112Y-93257121D01*
X88888236Y-93279851D01*
X88631093Y-93331000D01*
X88368907Y-93331000D01*
X88111764Y-93279851D01*
X88056888Y-93257121D01*
X87869535Y-93179517D01*
X87651537Y-93033855D01*
X87651534Y-93033853D01*
X87466147Y-92848466D01*
X87320484Y-92630466D01*
X87320483Y-92630465D01*
X87220150Y-92388238D01*
X87220149Y-92388236D01*
X87169000Y-92131093D01*
X87169000Y-91868907D01*
X87220149Y-91611764D01*
X87242879Y-91556888D01*
X87320483Y-91369535D01*
X87466145Y-91151537D01*
X87466147Y-91151534D01*
X87651534Y-90966147D01*
X87869534Y-90820484D01*
X87869535Y-90820483D01*
X88056888Y-90742879D01*
X88111764Y-90720149D01*
X88368907Y-90669000D01*
X88631093Y-90669000D01*
X88888236Y-90720149D01*
X88888236Y-90720149D01*
G37*
G36*
X107309122Y-85596115D02*
X107425041Y-85619173D01*
X107752620Y-85754861D01*
X107891084Y-85847380D01*
X108047436Y-85951851D01*
X108298149Y-86202564D01*
X108495140Y-86497382D01*
X108630827Y-86824960D01*
X108700000Y-87172714D01*
X108700000Y-87527286D01*
X108653885Y-87759122D01*
X108630827Y-87875041D01*
X108495139Y-88202620D01*
X108433319Y-88295140D01*
X108298149Y-88497436D01*
X108047436Y-88748149D01*
X108047433Y-88748151D01*
X107752620Y-88945139D01*
X107425041Y-89080827D01*
X107309122Y-89103885D01*
X107077286Y-89150000D01*
X106722714Y-89150000D01*
X106490878Y-89103885D01*
X106374959Y-89080827D01*
X106047380Y-88945139D01*
X105752567Y-88748151D01*
X105752564Y-88748149D01*
X105501851Y-88497436D01*
X105366681Y-88295140D01*
X105304861Y-88202620D01*
X105169173Y-87875041D01*
X105146115Y-87759122D01*
X105100000Y-87527286D01*
X105100000Y-87172714D01*
X105169173Y-86824960D01*
X105304860Y-86497382D01*
X105501851Y-86202564D01*
X105752564Y-85951851D01*
X105908916Y-85847380D01*
X106047380Y-85754861D01*
X106374959Y-85619173D01*
X106490878Y-85596115D01*
X106722714Y-85550000D01*
X107077286Y-85550000D01*
X107309122Y-85596115D01*
X107309122Y-85596115D01*
G37*
G36*
X80409122Y-84946115D02*
X80525041Y-84969173D01*
X80852620Y-85104861D01*
X81143511Y-85299228D01*
X81147436Y-85301851D01*
X81398149Y-85552564D01*
X81398151Y-85552567D01*
X81595139Y-85847380D01*
X81730827Y-86174959D01*
X81753885Y-86290878D01*
X81800000Y-86522714D01*
X81800000Y-86877286D01*
X81730827Y-87225040D01*
X81595140Y-87552618D01*
X81398149Y-87847436D01*
X81147436Y-88098149D01*
X81147433Y-88098151D01*
X80852620Y-88295139D01*
X80525041Y-88430827D01*
X80409122Y-88453885D01*
X80177286Y-88500000D01*
X79822714Y-88500000D01*
X79590878Y-88453885D01*
X79474959Y-88430827D01*
X79147380Y-88295139D01*
X78852567Y-88098151D01*
X78852564Y-88098149D01*
X78601851Y-87847436D01*
X78404860Y-87552618D01*
X78269173Y-87225040D01*
X78200000Y-86877286D01*
X78200000Y-86522714D01*
X78246115Y-86290878D01*
X78269173Y-86174959D01*
X78404861Y-85847380D01*
X78601849Y-85552567D01*
X78601851Y-85552564D01*
X78852564Y-85301851D01*
X78856489Y-85299228D01*
X79147380Y-85104861D01*
X79474959Y-84969173D01*
X79590878Y-84946115D01*
X79822714Y-84900000D01*
X80177286Y-84900000D01*
X80409122Y-84946115D01*
X80409122Y-84946115D01*
G37*
G36*
X80409122Y-80246115D02*
X80525041Y-80269173D01*
X80852620Y-80404861D01*
X81143511Y-80599228D01*
X81147436Y-80601851D01*
X81398149Y-80852564D01*
X81595140Y-81147382D01*
X81730827Y-81474960D01*
X81800000Y-81822714D01*
X81800000Y-82177286D01*
X81730827Y-82525040D01*
X81595140Y-82852618D01*
X81398149Y-83147436D01*
X81147436Y-83398149D01*
X81147433Y-83398151D01*
X80852620Y-83595139D01*
X80525041Y-83730827D01*
X80409122Y-83753885D01*
X80177286Y-83800000D01*
X79822714Y-83800000D01*
X79590878Y-83753885D01*
X79474959Y-83730827D01*
X79147380Y-83595139D01*
X78852567Y-83398151D01*
X78852564Y-83398149D01*
X78601851Y-83147436D01*
X78404860Y-82852618D01*
X78269173Y-82525040D01*
X78200000Y-82177286D01*
X78200000Y-81822714D01*
X78269173Y-81474960D01*
X78404860Y-81147382D01*
X78601851Y-80852564D01*
X78852564Y-80601851D01*
X78856489Y-80599228D01*
X79147380Y-80404861D01*
X79474959Y-80269173D01*
X79590878Y-80246115D01*
X79822714Y-80200000D01*
X80177286Y-80200000D01*
X80409122Y-80246115D01*
X80409122Y-80246115D01*
G37*
G36*
X80409122Y-75546115D02*
X80525041Y-75569173D01*
X80852620Y-75704861D01*
X80991168Y-75797436D01*
X81147436Y-75901851D01*
X81398149Y-76152564D01*
X81398151Y-76152567D01*
X81550670Y-76380827D01*
X81595140Y-76447382D01*
X81730827Y-76774960D01*
X81800000Y-77122714D01*
X81800000Y-77477286D01*
X81730827Y-77825040D01*
X81595140Y-78152618D01*
X81398149Y-78447436D01*
X81147436Y-78698149D01*
X81147433Y-78698151D01*
X80852620Y-78895139D01*
X80525041Y-79030827D01*
X80409122Y-79053885D01*
X80177286Y-79100000D01*
X79822714Y-79100000D01*
X79590878Y-79053885D01*
X79474959Y-79030827D01*
X79147380Y-78895139D01*
X78852567Y-78698151D01*
X78852564Y-78698149D01*
X78601851Y-78447436D01*
X78404860Y-78152618D01*
X78269173Y-77825040D01*
X78200000Y-77477286D01*
X78200000Y-77122714D01*
X78269173Y-76774960D01*
X78404860Y-76447382D01*
X78449331Y-76380827D01*
X78601849Y-76152567D01*
X78601851Y-76152564D01*
X78852564Y-75901851D01*
X79008832Y-75797436D01*
X79147380Y-75704861D01*
X79474959Y-75569173D01*
X79590878Y-75546115D01*
X79822714Y-75500000D01*
X80177286Y-75500000D01*
X80409122Y-75546115D01*
X80409122Y-75546115D01*
G37*
G36*
X107309122Y-72896115D02*
X107425041Y-72919173D01*
X107752620Y-73054861D01*
X108043511Y-73249228D01*
X108047436Y-73251851D01*
X108298149Y-73502564D01*
X108298151Y-73502567D01*
X108495139Y-73797380D01*
X108630827Y-74124959D01*
X108700000Y-74472716D01*
X108700000Y-74827284D01*
X108630827Y-75175041D01*
X108495139Y-75502620D01*
X108360006Y-75704860D01*
X108298149Y-75797436D01*
X108047436Y-76048149D01*
X108047433Y-76048151D01*
X107752620Y-76245139D01*
X107425041Y-76380827D01*
X107309122Y-76403885D01*
X107077286Y-76450000D01*
X106722714Y-76450000D01*
X106490878Y-76403885D01*
X106374959Y-76380827D01*
X106047380Y-76245139D01*
X105752567Y-76048151D01*
X105752564Y-76048149D01*
X105501851Y-75797436D01*
X105439994Y-75704860D01*
X105304861Y-75502620D01*
X105169173Y-75175041D01*
X105100000Y-74827284D01*
X105100000Y-74472716D01*
X105169173Y-74124959D01*
X105304861Y-73797380D01*
X105501849Y-73502567D01*
X105501851Y-73502564D01*
X105752564Y-73251851D01*
X105756489Y-73249228D01*
X106047380Y-73054861D01*
X106374959Y-72919173D01*
X106490878Y-72896115D01*
X106722714Y-72850000D01*
X107077286Y-72850000D01*
X107309122Y-72896115D01*
X107309122Y-72896115D01*
G37*
G36*
X106350026Y-69846115D02*
X106568412Y-69936573D01*
X106764958Y-70067901D01*
X106932099Y-70235042D01*
X107063427Y-70431588D01*
X107153885Y-70649974D01*
X107200000Y-70881809D01*
X107200000Y-71118191D01*
X107153885Y-71350026D01*
X107063427Y-71568412D01*
X106932099Y-71764958D01*
X106764958Y-71932099D01*
X106568412Y-72063427D01*
X106350026Y-72153885D01*
X106118191Y-72200000D01*
X105881809Y-72200000D01*
X105649974Y-72153885D01*
X105431588Y-72063427D01*
X105235042Y-71932099D01*
X105067901Y-71764958D01*
X104936573Y-71568412D01*
X104846115Y-71350026D01*
X104800000Y-71118191D01*
X104800000Y-70881809D01*
X104846115Y-70649974D01*
X104936573Y-70431588D01*
X105067901Y-70235042D01*
X105235042Y-70067901D01*
X105431588Y-69936573D01*
X105649974Y-69846115D01*
X105881809Y-69800000D01*
X106118191Y-69800000D01*
X106350026Y-69846115D01*
X106350026Y-69846115D01*
G37*
G36*
X101350026Y-69846115D02*
X101568412Y-69936573D01*
X101764958Y-70067901D01*
X101932099Y-70235042D01*
X102063427Y-70431588D01*
X102153885Y-70649974D01*
X102200000Y-70881809D01*
X102200000Y-71118191D01*
X102153885Y-71350026D01*
X102063427Y-71568412D01*
X101932099Y-71764958D01*
X101764958Y-71932099D01*
X101568412Y-72063427D01*
X101350026Y-72153885D01*
X101118191Y-72200000D01*
X100881809Y-72200000D01*
X100649974Y-72153885D01*
X100431588Y-72063427D01*
X100235042Y-71932099D01*
X100067901Y-71764958D01*
X99936573Y-71568412D01*
X99846115Y-71350026D01*
X99800000Y-71118191D01*
X99800000Y-70881809D01*
X99846115Y-70649974D01*
X99936573Y-70431588D01*
X100067901Y-70235042D01*
X100235042Y-70067901D01*
X100431588Y-69936573D01*
X100649974Y-69846115D01*
X100881809Y-69800000D01*
X101118191Y-69800000D01*
X101350026Y-69846115D01*
X101350026Y-69846115D01*
G37*
G36*
X96350026Y-69846115D02*
X96568412Y-69936573D01*
X96764958Y-70067901D01*
X96932099Y-70235042D01*
X97063427Y-70431588D01*
X97153885Y-70649974D01*
X97200000Y-70881809D01*
X97200000Y-71118191D01*
X97153885Y-71350026D01*
X97063427Y-71568412D01*
X96932099Y-71764958D01*
X96764958Y-71932099D01*
X96568412Y-72063427D01*
X96350026Y-72153885D01*
X96118191Y-72200000D01*
X95881809Y-72200000D01*
X95649974Y-72153885D01*
X95431588Y-72063427D01*
X95235042Y-71932099D01*
X95067901Y-71764958D01*
X94936573Y-71568412D01*
X94846115Y-71350026D01*
X94800000Y-71118191D01*
X94800000Y-70881809D01*
X94846115Y-70649974D01*
X94936573Y-70431588D01*
X95067901Y-70235042D01*
X95235042Y-70067901D01*
X95431588Y-69936573D01*
X95649974Y-69846115D01*
X95881809Y-69800000D01*
X96118191Y-69800000D01*
X96350026Y-69846115D01*
X96350026Y-69846115D01*
G37*
G36*
X64350026Y-69846115D02*
X64568412Y-69936573D01*
X64764958Y-70067901D01*
X64932099Y-70235042D01*
X65063427Y-70431588D01*
X65153885Y-70649974D01*
X65200000Y-70881809D01*
X65200000Y-71118191D01*
X65153885Y-71350026D01*
X65063427Y-71568412D01*
X64932099Y-71764958D01*
X64764958Y-71932099D01*
X64568412Y-72063427D01*
X64350026Y-72153885D01*
X64118191Y-72200000D01*
X63881809Y-72200000D01*
X63649974Y-72153885D01*
X63431588Y-72063427D01*
X63235042Y-71932099D01*
X63067901Y-71764958D01*
X62936573Y-71568412D01*
X62846115Y-71350026D01*
X62800000Y-71118191D01*
X62800000Y-70881809D01*
X62846115Y-70649974D01*
X62936573Y-70431588D01*
X63067901Y-70235042D01*
X63235042Y-70067901D01*
X63431588Y-69936573D01*
X63649974Y-69846115D01*
X63881809Y-69800000D01*
X64118191Y-69800000D01*
X64350026Y-69846115D01*
X64350026Y-69846115D01*
G37*
G36*
X59350026Y-69846115D02*
X59568412Y-69936573D01*
X59764958Y-70067901D01*
X59932099Y-70235042D01*
X60063427Y-70431588D01*
X60153885Y-70649974D01*
X60200000Y-70881809D01*
X60200000Y-71118191D01*
X60153885Y-71350026D01*
X60063427Y-71568412D01*
X59932099Y-71764958D01*
X59764958Y-71932099D01*
X59568412Y-72063427D01*
X59350026Y-72153885D01*
X59118191Y-72200000D01*
X58881809Y-72200000D01*
X58649974Y-72153885D01*
X58431588Y-72063427D01*
X58235042Y-71932099D01*
X58067901Y-71764958D01*
X57936573Y-71568412D01*
X57846115Y-71350026D01*
X57800000Y-71118191D01*
X57800000Y-70881809D01*
X57846115Y-70649974D01*
X57936573Y-70431588D01*
X58067901Y-70235042D01*
X58235042Y-70067901D01*
X58431588Y-69936573D01*
X58649974Y-69846115D01*
X58881809Y-69800000D01*
X59118191Y-69800000D01*
X59350026Y-69846115D01*
X59350026Y-69846115D01*
G37*
G36*
X54350026Y-69846115D02*
X54568412Y-69936573D01*
X54764958Y-70067901D01*
X54932099Y-70235042D01*
X55063427Y-70431588D01*
X55153885Y-70649974D01*
X55200000Y-70881809D01*
X55200000Y-71118191D01*
X55153885Y-71350026D01*
X55063427Y-71568412D01*
X54932099Y-71764958D01*
X54764958Y-71932099D01*
X54568412Y-72063427D01*
X54350026Y-72153885D01*
X54118191Y-72200000D01*
X53881809Y-72200000D01*
X53649974Y-72153885D01*
X53431588Y-72063427D01*
X53235042Y-71932099D01*
X53067901Y-71764958D01*
X52936573Y-71568412D01*
X52846115Y-71350026D01*
X52800000Y-71118191D01*
X52800000Y-70881809D01*
X52846115Y-70649974D01*
X52936573Y-70431588D01*
X53067901Y-70235042D01*
X53235042Y-70067901D01*
X53431588Y-69936573D01*
X53649974Y-69846115D01*
X53881809Y-69800000D01*
X54118191Y-69800000D01*
X54350026Y-69846115D01*
X54350026Y-69846115D01*
G37*
G36*
X82252481Y-68369855D02*
X82452118Y-68409565D01*
X82640173Y-68487460D01*
X82734201Y-68526408D01*
X82988071Y-68696038D01*
X83203962Y-68911929D01*
X83373592Y-69165799D01*
X83373592Y-69165800D01*
X83490435Y-69447882D01*
X83550000Y-69747338D01*
X83550000Y-70052662D01*
X83490435Y-70352118D01*
X83457517Y-70431588D01*
X83373592Y-70634201D01*
X83203962Y-70888071D01*
X82988071Y-71103962D01*
X82734201Y-71273592D01*
X82640173Y-71312540D01*
X82452118Y-71390435D01*
X82252481Y-71430145D01*
X82152663Y-71450000D01*
X81847337Y-71450000D01*
X81747519Y-71430145D01*
X81547882Y-71390435D01*
X81359827Y-71312540D01*
X81265799Y-71273592D01*
X81011929Y-71103962D01*
X80796038Y-70888071D01*
X80626408Y-70634201D01*
X80542483Y-70431588D01*
X80509565Y-70352118D01*
X80450000Y-70052662D01*
X80450000Y-69747338D01*
X80509565Y-69447882D01*
X80626408Y-69165800D01*
X80626408Y-69165799D01*
X80796038Y-68911929D01*
X81011929Y-68696038D01*
X81265799Y-68526408D01*
X81359827Y-68487460D01*
X81547882Y-68409565D01*
X81747519Y-68369855D01*
X81847337Y-68350000D01*
X82152663Y-68350000D01*
X82252481Y-68369855D01*
X82252481Y-68369855D01*
G37*
G36*
X88888236Y-62720149D02*
X88888239Y-62720150D01*
X88888238Y-62720150D01*
X89130465Y-62820483D01*
X89130466Y-62820484D01*
X89348466Y-62966147D01*
X89533853Y-63151534D01*
X89533855Y-63151537D01*
X89679517Y-63369535D01*
X89757121Y-63556888D01*
X89779851Y-63611764D01*
X89831000Y-63868907D01*
X89831000Y-64131093D01*
X89779851Y-64388236D01*
X89779850Y-64388238D01*
X89679517Y-64630465D01*
X89679516Y-64630466D01*
X89533853Y-64848466D01*
X89348466Y-65033853D01*
X89348463Y-65033855D01*
X89130465Y-65179517D01*
X88943112Y-65257121D01*
X88888236Y-65279851D01*
X88631093Y-65331000D01*
X88368907Y-65331000D01*
X88111764Y-65279851D01*
X88056888Y-65257121D01*
X87869535Y-65179517D01*
X87651537Y-65033855D01*
X87651534Y-65033853D01*
X87466147Y-64848466D01*
X87320484Y-64630466D01*
X87320483Y-64630465D01*
X87220150Y-64388238D01*
X87220149Y-64388236D01*
X87169000Y-64131093D01*
X87169000Y-63868907D01*
X87220149Y-63611764D01*
X87242879Y-63556888D01*
X87320483Y-63369535D01*
X87466145Y-63151537D01*
X87466147Y-63151534D01*
X87651534Y-62966147D01*
X87869534Y-62820484D01*
X87869535Y-62820483D01*
X88111762Y-62720150D01*
X88111761Y-62720150D01*
X88111764Y-62720149D01*
X88368907Y-62669000D01*
X88631093Y-62669000D01*
X88888236Y-62720149D01*
X88888236Y-62720149D01*
G37*
G36*
X56200000Y-57152500D02*
X55262551Y-57152500D01*
X55238165Y-57154902D01*
X55214716Y-57162015D01*
X55193105Y-57173566D01*
X55174163Y-57189112D01*
X55158617Y-57208054D01*
X55147066Y-57229665D01*
X55139953Y-57253114D01*
X55137551Y-57277500D01*
X55139953Y-57301886D01*
X55147066Y-57325335D01*
X55158617Y-57346946D01*
X55174163Y-57365888D01*
X55193105Y-57381434D01*
X55214716Y-57392985D01*
X55250298Y-57401898D01*
X55273429Y-57404176D01*
X55382052Y-57437126D01*
X55490677Y-57470077D01*
X55690895Y-57577096D01*
X55866384Y-57721116D01*
X56010404Y-57896605D01*
X56117423Y-58096823D01*
X56117423Y-58096824D01*
X56183324Y-58314071D01*
X56205576Y-58540000D01*
X56183324Y-58765929D01*
X56154019Y-58862534D01*
X56117423Y-58983177D01*
X56010404Y-59183395D01*
X55866384Y-59358884D01*
X55690895Y-59502904D01*
X55490677Y-59609923D01*
X55382053Y-59642873D01*
X55273429Y-59675824D01*
X55185451Y-59684489D01*
X55174151Y-59685602D01*
X55150117Y-59690383D01*
X55127478Y-59699760D01*
X55107104Y-59713374D01*
X55089777Y-59730701D01*
X55076163Y-59751076D01*
X55066785Y-59773715D01*
X55062005Y-59797748D01*
X55062005Y-59822252D01*
X55066786Y-59846286D01*
X55076163Y-59868925D01*
X55089777Y-59889299D01*
X55107104Y-59906626D01*
X55127479Y-59920240D01*
X55150118Y-59929618D01*
X55174151Y-59934398D01*
X55273429Y-59944176D01*
X55370674Y-59973675D01*
X55490677Y-60010077D01*
X55690895Y-60117096D01*
X55866384Y-60261116D01*
X56010404Y-60436605D01*
X56117423Y-60636823D01*
X56183324Y-60854072D01*
X56205576Y-61080000D01*
X56183324Y-61305928D01*
X56117423Y-61523177D01*
X56010404Y-61723395D01*
X55866384Y-61898884D01*
X55690895Y-62042904D01*
X55490677Y-62149923D01*
X55382052Y-62182874D01*
X55273429Y-62215824D01*
X55216991Y-62221383D01*
X55104116Y-62232500D01*
X54895884Y-62232500D01*
X54783009Y-62221383D01*
X54726571Y-62215824D01*
X54617948Y-62182874D01*
X54509323Y-62149923D01*
X54309105Y-62042904D01*
X54133616Y-61898884D01*
X53989596Y-61723395D01*
X53882577Y-61523177D01*
X53816676Y-61305928D01*
X53794424Y-61080000D01*
X53816676Y-60854072D01*
X53882577Y-60636823D01*
X53989596Y-60436605D01*
X54133616Y-60261116D01*
X54309105Y-60117096D01*
X54509323Y-60010077D01*
X54629326Y-59973675D01*
X54726571Y-59944176D01*
X54825849Y-59934398D01*
X54849883Y-59929617D01*
X54872522Y-59920240D01*
X54892896Y-59906626D01*
X54910223Y-59889299D01*
X54923837Y-59868924D01*
X54933215Y-59846285D01*
X54937995Y-59822252D01*
X54937995Y-59797748D01*
X54933214Y-59773714D01*
X54923837Y-59751075D01*
X54910223Y-59730701D01*
X54892896Y-59713374D01*
X54872521Y-59699760D01*
X54849882Y-59690382D01*
X54825849Y-59685602D01*
X54814549Y-59684489D01*
X54726571Y-59675824D01*
X54617947Y-59642873D01*
X54509323Y-59609923D01*
X54309105Y-59502904D01*
X54133616Y-59358884D01*
X53989596Y-59183395D01*
X53882577Y-58983177D01*
X53845981Y-58862534D01*
X53816676Y-58765929D01*
X53794424Y-58540000D01*
X53816676Y-58314071D01*
X53882577Y-58096824D01*
X53882577Y-58096823D01*
X53989596Y-57896605D01*
X54133616Y-57721116D01*
X54309105Y-57577096D01*
X54509323Y-57470077D01*
X54617948Y-57437126D01*
X54726571Y-57404176D01*
X54749702Y-57401898D01*
X54773735Y-57397117D01*
X54796374Y-57387740D01*
X54816748Y-57374126D01*
X54834075Y-57356799D01*
X54847689Y-57336424D01*
X54857067Y-57313785D01*
X54861847Y-57289752D01*
X54861847Y-57265248D01*
X54857066Y-57241214D01*
X54847689Y-57218575D01*
X54834075Y-57198201D01*
X54816748Y-57180874D01*
X54796373Y-57167260D01*
X54773734Y-57157882D01*
X54737449Y-57152500D01*
X53800000Y-57152500D01*
X53800000Y-54847500D01*
X56200000Y-54847500D01*
X56200000Y-57152500D01*
X56200000Y-57152500D01*
G37*
G36*
X63200000Y-57152500D02*
X62262551Y-57152500D01*
X62238165Y-57154902D01*
X62214716Y-57162015D01*
X62193105Y-57173566D01*
X62174163Y-57189112D01*
X62158617Y-57208054D01*
X62147066Y-57229665D01*
X62139953Y-57253114D01*
X62137551Y-57277500D01*
X62139953Y-57301886D01*
X62147066Y-57325335D01*
X62158617Y-57346946D01*
X62174163Y-57365888D01*
X62193105Y-57381434D01*
X62214716Y-57392985D01*
X62250298Y-57401898D01*
X62273429Y-57404176D01*
X62382052Y-57437126D01*
X62490677Y-57470077D01*
X62690895Y-57577096D01*
X62866384Y-57721116D01*
X63010404Y-57896605D01*
X63117423Y-58096823D01*
X63117423Y-58096824D01*
X63183324Y-58314071D01*
X63205576Y-58540000D01*
X63183324Y-58765929D01*
X63154019Y-58862534D01*
X63117423Y-58983177D01*
X63010404Y-59183395D01*
X62866384Y-59358884D01*
X62690895Y-59502904D01*
X62490677Y-59609923D01*
X62382053Y-59642873D01*
X62273429Y-59675824D01*
X62185451Y-59684489D01*
X62174151Y-59685602D01*
X62150117Y-59690383D01*
X62127478Y-59699760D01*
X62107104Y-59713374D01*
X62089777Y-59730701D01*
X62076163Y-59751076D01*
X62066785Y-59773715D01*
X62062005Y-59797748D01*
X62062005Y-59822252D01*
X62066786Y-59846286D01*
X62076163Y-59868925D01*
X62089777Y-59889299D01*
X62107104Y-59906626D01*
X62127479Y-59920240D01*
X62150118Y-59929618D01*
X62174151Y-59934398D01*
X62273429Y-59944176D01*
X62370674Y-59973675D01*
X62490677Y-60010077D01*
X62690895Y-60117096D01*
X62866384Y-60261116D01*
X63010404Y-60436605D01*
X63117423Y-60636823D01*
X63183324Y-60854072D01*
X63205576Y-61080000D01*
X63183324Y-61305928D01*
X63117423Y-61523177D01*
X63010404Y-61723395D01*
X62866384Y-61898884D01*
X62690895Y-62042904D01*
X62490677Y-62149923D01*
X62382052Y-62182874D01*
X62273429Y-62215824D01*
X62216991Y-62221383D01*
X62104116Y-62232500D01*
X61895884Y-62232500D01*
X61783009Y-62221383D01*
X61726571Y-62215824D01*
X61617948Y-62182874D01*
X61509323Y-62149923D01*
X61309105Y-62042904D01*
X61133616Y-61898884D01*
X60989596Y-61723395D01*
X60882577Y-61523177D01*
X60816676Y-61305928D01*
X60794424Y-61080000D01*
X60816676Y-60854072D01*
X60882577Y-60636823D01*
X60989596Y-60436605D01*
X61133616Y-60261116D01*
X61309105Y-60117096D01*
X61509323Y-60010077D01*
X61629326Y-59973675D01*
X61726571Y-59944176D01*
X61825849Y-59934398D01*
X61849883Y-59929617D01*
X61872522Y-59920240D01*
X61892896Y-59906626D01*
X61910223Y-59889299D01*
X61923837Y-59868924D01*
X61933215Y-59846285D01*
X61937995Y-59822252D01*
X61937995Y-59797748D01*
X61933214Y-59773714D01*
X61923837Y-59751075D01*
X61910223Y-59730701D01*
X61892896Y-59713374D01*
X61872521Y-59699760D01*
X61849882Y-59690382D01*
X61825849Y-59685602D01*
X61814549Y-59684489D01*
X61726571Y-59675824D01*
X61617947Y-59642873D01*
X61509323Y-59609923D01*
X61309105Y-59502904D01*
X61133616Y-59358884D01*
X60989596Y-59183395D01*
X60882577Y-58983177D01*
X60845981Y-58862534D01*
X60816676Y-58765929D01*
X60794424Y-58540000D01*
X60816676Y-58314071D01*
X60882577Y-58096824D01*
X60882577Y-58096823D01*
X60989596Y-57896605D01*
X61133616Y-57721116D01*
X61309105Y-57577096D01*
X61509323Y-57470077D01*
X61617948Y-57437126D01*
X61726571Y-57404176D01*
X61749702Y-57401898D01*
X61773735Y-57397117D01*
X61796374Y-57387740D01*
X61816748Y-57374126D01*
X61834075Y-57356799D01*
X61847689Y-57336424D01*
X61857067Y-57313785D01*
X61861847Y-57289752D01*
X61861847Y-57265248D01*
X61857066Y-57241214D01*
X61847689Y-57218575D01*
X61834075Y-57198201D01*
X61816748Y-57180874D01*
X61796373Y-57167260D01*
X61773734Y-57157882D01*
X61737449Y-57152500D01*
X60800000Y-57152500D01*
X60800000Y-54847500D01*
X63200000Y-54847500D01*
X63200000Y-57152500D01*
X63200000Y-57152500D01*
G37*
G36*
X80409122Y-57946115D02*
X80525041Y-57969173D01*
X80852620Y-58104861D01*
X80910956Y-58143840D01*
X81147436Y-58301851D01*
X81398149Y-58552564D01*
X81398151Y-58552567D01*
X81595139Y-58847380D01*
X81730827Y-59174959D01*
X81738888Y-59215484D01*
X81800000Y-59522714D01*
X81800000Y-59877286D01*
X81780827Y-59973675D01*
X81730827Y-60225041D01*
X81595139Y-60552620D01*
X81400772Y-60843511D01*
X81398149Y-60847436D01*
X81147436Y-61098149D01*
X81147433Y-61098151D01*
X80852620Y-61295139D01*
X80525041Y-61430827D01*
X80409122Y-61453885D01*
X80177286Y-61500000D01*
X79822714Y-61500000D01*
X79590878Y-61453885D01*
X79474959Y-61430827D01*
X79147380Y-61295139D01*
X78852567Y-61098151D01*
X78852564Y-61098149D01*
X78601851Y-60847436D01*
X78599228Y-60843511D01*
X78404861Y-60552620D01*
X78269173Y-60225041D01*
X78219173Y-59973675D01*
X78200000Y-59877286D01*
X78200000Y-59522714D01*
X78261112Y-59215484D01*
X78269173Y-59174959D01*
X78404861Y-58847380D01*
X78601849Y-58552567D01*
X78601851Y-58552564D01*
X78852564Y-58301851D01*
X79089044Y-58143840D01*
X79147380Y-58104861D01*
X79474959Y-57969173D01*
X79590878Y-57946115D01*
X79822714Y-57900000D01*
X80177286Y-57900000D01*
X80409122Y-57946115D01*
X80409122Y-57946115D01*
G37*
G36*
X98294603Y-59028813D02*
X98294605Y-59028814D01*
X98294606Y-59028814D01*
X98362503Y-59056938D01*
X98478415Y-59104950D01*
X98643840Y-59215484D01*
X98784516Y-59356160D01*
X98895050Y-59521585D01*
X98971187Y-59705397D01*
X99010000Y-59900522D01*
X99010000Y-60099478D01*
X98971187Y-60294603D01*
X98895050Y-60478415D01*
X98784516Y-60643840D01*
X98643840Y-60784516D01*
X98478415Y-60895050D01*
X98362503Y-60943062D01*
X98294606Y-60971186D01*
X98294605Y-60971186D01*
X98294603Y-60971187D01*
X98099478Y-61010000D01*
X97900522Y-61010000D01*
X97705397Y-60971187D01*
X97705395Y-60971186D01*
X97705394Y-60971186D01*
X97637497Y-60943062D01*
X97521585Y-60895050D01*
X97356160Y-60784516D01*
X97215484Y-60643840D01*
X97104950Y-60478415D01*
X97028813Y-60294603D01*
X96990000Y-60099478D01*
X96990000Y-59900522D01*
X97028813Y-59705397D01*
X97104950Y-59521585D01*
X97215484Y-59356160D01*
X97356160Y-59215484D01*
X97521585Y-59104950D01*
X97637497Y-59056938D01*
X97705394Y-59028814D01*
X97705395Y-59028814D01*
X97705397Y-59028813D01*
X97900522Y-58990000D01*
X98099478Y-58990000D01*
X98294603Y-59028813D01*
X98294603Y-59028813D01*
G37*
G36*
X67675770Y-58515372D02*
X67791689Y-58538429D01*
X67973678Y-58613811D01*
X68137463Y-58723249D01*
X68276751Y-58862537D01*
X68386189Y-59026322D01*
X68461571Y-59208311D01*
X68484628Y-59324230D01*
X68491522Y-59358884D01*
X68500000Y-59401509D01*
X68500000Y-59598491D01*
X68461571Y-59791689D01*
X68386189Y-59973678D01*
X68276751Y-60137463D01*
X68137463Y-60276751D01*
X67973678Y-60386189D01*
X67791689Y-60461571D01*
X67707012Y-60478414D01*
X67598493Y-60500000D01*
X67401507Y-60500000D01*
X67292988Y-60478414D01*
X67208311Y-60461571D01*
X67026322Y-60386189D01*
X66862537Y-60276751D01*
X66723249Y-60137463D01*
X66613811Y-59973678D01*
X66538429Y-59791689D01*
X66500000Y-59598491D01*
X66500000Y-59401509D01*
X66508479Y-59358884D01*
X66515372Y-59324230D01*
X66538429Y-59208311D01*
X66613811Y-59026322D01*
X66723249Y-58862537D01*
X66862537Y-58723249D01*
X67026322Y-58613811D01*
X67208311Y-58538429D01*
X67324230Y-58515372D01*
X67401507Y-58500000D01*
X67598493Y-58500000D01*
X67675770Y-58515372D01*
X67675770Y-58515372D01*
G37*
G36*
X75300000Y-58800000D02*
X72700000Y-58800000D01*
X72700000Y-56200000D01*
X75300000Y-56200000D01*
X75300000Y-58800000D01*
X75300000Y-58800000D01*
G37*
G36*
X103294603Y-56528813D02*
X103294605Y-56528814D01*
X103294606Y-56528814D01*
X103362503Y-56556938D01*
X103478415Y-56604950D01*
X103643840Y-56715484D01*
X103784516Y-56856160D01*
X103895050Y-57021585D01*
X103895050Y-57021586D01*
X103968207Y-57198201D01*
X103971187Y-57205397D01*
X104010000Y-57400522D01*
X104010000Y-57599478D01*
X103971187Y-57794603D01*
X103895050Y-57978415D01*
X103784516Y-58143840D01*
X103643840Y-58284516D01*
X103478415Y-58395050D01*
X103362503Y-58443062D01*
X103294606Y-58471186D01*
X103294605Y-58471186D01*
X103294603Y-58471187D01*
X103099478Y-58510000D01*
X102900522Y-58510000D01*
X102705397Y-58471187D01*
X102705395Y-58471186D01*
X102705394Y-58471186D01*
X102637497Y-58443062D01*
X102521585Y-58395050D01*
X102356160Y-58284516D01*
X102215484Y-58143840D01*
X102104950Y-57978415D01*
X102028813Y-57794603D01*
X101990000Y-57599478D01*
X101990000Y-57400522D01*
X102028813Y-57205397D01*
X102031794Y-57198201D01*
X102104950Y-57021586D01*
X102104950Y-57021585D01*
X102215484Y-56856160D01*
X102356160Y-56715484D01*
X102521585Y-56604950D01*
X102637497Y-56556938D01*
X102705394Y-56528814D01*
X102705395Y-56528814D01*
X102705397Y-56528813D01*
X102900522Y-56490000D01*
X103099478Y-56490000D01*
X103294603Y-56528813D01*
X103294603Y-56528813D01*
G37*
G36*
X68500000Y-58000000D02*
X66500000Y-58000000D01*
X66500000Y-56000000D01*
X68500000Y-56000000D01*
X68500000Y-58000000D01*
X68500000Y-58000000D01*
G37*
G36*
X80409122Y-53246115D02*
X80525041Y-53269173D01*
X80852620Y-53404861D01*
X81143511Y-53599228D01*
X81147436Y-53601851D01*
X81398149Y-53852564D01*
X81398151Y-53852567D01*
X81595139Y-54147380D01*
X81730827Y-54474959D01*
X81800000Y-54822716D01*
X81800000Y-55177284D01*
X81730827Y-55525041D01*
X81595139Y-55852620D01*
X81515915Y-55971187D01*
X81398149Y-56147436D01*
X81147436Y-56398149D01*
X81147433Y-56398151D01*
X80852620Y-56595139D01*
X80852619Y-56595140D01*
X80852618Y-56595140D01*
X80756674Y-56634881D01*
X80525041Y-56730827D01*
X80409122Y-56753885D01*
X80177286Y-56800000D01*
X79822714Y-56800000D01*
X79590878Y-56753885D01*
X79474959Y-56730827D01*
X79243326Y-56634881D01*
X79147382Y-56595140D01*
X79147381Y-56595140D01*
X79147380Y-56595139D01*
X78852567Y-56398151D01*
X78852564Y-56398149D01*
X78601851Y-56147436D01*
X78484085Y-55971187D01*
X78404861Y-55852620D01*
X78269173Y-55525041D01*
X78200000Y-55177284D01*
X78200000Y-54822716D01*
X78269173Y-54474959D01*
X78404861Y-54147380D01*
X78601849Y-53852567D01*
X78601851Y-53852564D01*
X78852564Y-53601851D01*
X78856489Y-53599228D01*
X79147380Y-53404861D01*
X79474959Y-53269173D01*
X79590878Y-53246115D01*
X79822714Y-53200000D01*
X80177286Y-53200000D01*
X80409122Y-53246115D01*
X80409122Y-53246115D01*
G37*
G36*
X91150000Y-56200000D02*
X88850000Y-56200000D01*
X88850000Y-55175850D01*
X88847598Y-55151464D01*
X88840485Y-55128015D01*
X88828934Y-55106404D01*
X88813388Y-55087462D01*
X88794446Y-55071916D01*
X88772835Y-55060365D01*
X88749386Y-55053252D01*
X88725000Y-55050850D01*
X88700614Y-55053252D01*
X88677165Y-55060365D01*
X88655554Y-55071916D01*
X88636612Y-55087462D01*
X88621066Y-55106404D01*
X88609515Y-55128015D01*
X88602402Y-55151463D01*
X88565806Y-55335443D01*
X88479117Y-55544728D01*
X88353261Y-55733085D01*
X88193085Y-55893261D01*
X88004728Y-56019117D01*
X87795443Y-56105806D01*
X87573266Y-56150000D01*
X87346734Y-56150000D01*
X87124557Y-56105806D01*
X86915272Y-56019117D01*
X86726915Y-55893261D01*
X86566739Y-55733085D01*
X86440883Y-55544728D01*
X86354194Y-55335443D01*
X86310000Y-55113266D01*
X86310000Y-54886734D01*
X86354194Y-54664557D01*
X86440883Y-54455272D01*
X86566739Y-54266915D01*
X86726915Y-54106739D01*
X86915272Y-53980883D01*
X87124557Y-53894194D01*
X87346734Y-53850000D01*
X87573266Y-53850000D01*
X87795443Y-53894194D01*
X88004728Y-53980883D01*
X88193085Y-54106739D01*
X88353261Y-54266915D01*
X88479117Y-54455272D01*
X88565806Y-54664557D01*
X88602402Y-54848537D01*
X88609515Y-54871986D01*
X88621066Y-54893597D01*
X88636612Y-54912539D01*
X88655554Y-54928084D01*
X88677165Y-54939635D01*
X88700614Y-54946748D01*
X88725000Y-54949150D01*
X88749387Y-54946748D01*
X88772836Y-54939635D01*
X88794447Y-54928084D01*
X88813389Y-54912538D01*
X88828934Y-54893596D01*
X88840485Y-54871985D01*
X88847598Y-54848536D01*
X88850000Y-54824150D01*
X88850000Y-53800000D01*
X91150000Y-53800000D01*
X91150000Y-56200000D01*
X91150000Y-56200000D01*
G37*
G36*
X98294603Y-54028813D02*
X98294605Y-54028814D01*
X98294606Y-54028814D01*
X98362503Y-54056938D01*
X98478415Y-54104950D01*
X98643840Y-54215484D01*
X98784516Y-54356160D01*
X98895050Y-54521585D01*
X98971187Y-54705397D01*
X99010000Y-54900522D01*
X99010000Y-55099478D01*
X98971187Y-55294603D01*
X98895050Y-55478415D01*
X98784516Y-55643840D01*
X98643840Y-55784516D01*
X98478415Y-55895050D01*
X98362503Y-55943062D01*
X98294606Y-55971186D01*
X98294605Y-55971186D01*
X98294603Y-55971187D01*
X98099478Y-56010000D01*
X97900522Y-56010000D01*
X97705397Y-55971187D01*
X97705395Y-55971186D01*
X97705394Y-55971186D01*
X97637497Y-55943062D01*
X97521585Y-55895050D01*
X97356160Y-55784516D01*
X97215484Y-55643840D01*
X97104950Y-55478415D01*
X97028813Y-55294603D01*
X96990000Y-55099478D01*
X96990000Y-54900522D01*
X97028813Y-54705397D01*
X97104950Y-54521585D01*
X97215484Y-54356160D01*
X97356160Y-54215484D01*
X97521585Y-54104950D01*
X97637497Y-54056938D01*
X97705394Y-54028814D01*
X97705395Y-54028814D01*
X97705397Y-54028813D01*
X97900522Y-53990000D01*
X98099478Y-53990000D01*
X98294603Y-54028813D01*
X98294603Y-54028813D01*
G37*
G36*
X80409122Y-48546115D02*
X80525041Y-48569173D01*
X80852620Y-48704861D01*
X80985816Y-48793860D01*
X81147436Y-48901851D01*
X81398149Y-49152564D01*
X81398151Y-49152567D01*
X81550187Y-49380104D01*
X81595140Y-49447382D01*
X81730827Y-49774960D01*
X81800000Y-50122714D01*
X81800000Y-50477286D01*
X81774449Y-50605737D01*
X81730827Y-50825041D01*
X81595139Y-51152620D01*
X81576844Y-51180000D01*
X81398149Y-51447436D01*
X81147436Y-51698149D01*
X81147433Y-51698151D01*
X80852620Y-51895139D01*
X80525041Y-52030827D01*
X80409122Y-52053885D01*
X80177286Y-52100000D01*
X79822714Y-52100000D01*
X79590878Y-52053885D01*
X79474959Y-52030827D01*
X79147380Y-51895139D01*
X78852567Y-51698151D01*
X78852564Y-51698149D01*
X78601851Y-51447436D01*
X78423156Y-51180000D01*
X78404861Y-51152620D01*
X78269173Y-50825041D01*
X78225551Y-50605737D01*
X78200000Y-50477286D01*
X78200000Y-50122714D01*
X78269173Y-49774960D01*
X78404860Y-49447382D01*
X78449814Y-49380104D01*
X78601849Y-49152567D01*
X78601851Y-49152564D01*
X78852564Y-48901851D01*
X79014184Y-48793860D01*
X79147380Y-48704861D01*
X79474959Y-48569173D01*
X79590878Y-48546115D01*
X79822714Y-48500000D01*
X80177286Y-48500000D01*
X80409122Y-48546115D01*
X80409122Y-48546115D01*
G37*
G36*
X74254845Y-48598810D02*
X74499896Y-48673145D01*
X74725736Y-48793860D01*
X74923687Y-48956313D01*
X75086140Y-49154264D01*
X75206855Y-49380104D01*
X75281190Y-49625155D01*
X75306290Y-49880000D01*
X75281190Y-50134845D01*
X75206855Y-50379896D01*
X75086140Y-50605736D01*
X74923687Y-50803687D01*
X74725736Y-50966140D01*
X74499896Y-51086855D01*
X74254845Y-51161190D01*
X74063864Y-51180000D01*
X73936136Y-51180000D01*
X73745155Y-51161190D01*
X73500104Y-51086855D01*
X73274264Y-50966140D01*
X73076313Y-50803687D01*
X72913860Y-50605736D01*
X72793145Y-50379896D01*
X72718810Y-50134845D01*
X72693710Y-49880000D01*
X72718810Y-49625155D01*
X72793145Y-49380104D01*
X72913860Y-49154264D01*
X73076313Y-48956313D01*
X73274264Y-48793860D01*
X73500104Y-48673145D01*
X73745155Y-48598810D01*
X73936136Y-48580000D01*
X74063864Y-48580000D01*
X74254845Y-48598810D01*
X74254845Y-48598810D01*
G37*
M02*
