M48
;DRILL file {KiCad (5.0.1-3-g963ef8bb5)} date Thursday, 18 April 2019 at 21:54:57
;FORMAT={-:-/ absolute / metric / decimal}
FMAT,2
METRIC,TZ
T1C0.400
T2C0.800
T3C0.900
T4C1.000
T5C1.001
T6C1.100
T7C1.150
T8C1.500
T9C2.500
%
G90
G05
M71
T1
X67.Y-78.
X67.Y-80.5
X67.Y-82.
X67.125Y-86.875
X70.25Y-71.75
X70.5Y-65.25
X71.Y-57.
X71.Y-57.75
X71.Y-71.75
X71.25Y-92.25
X71.25Y-93.
X72.Y-64.
X72.Y-64.75
X72.5Y-74.
X72.5Y-88.5
X73.5Y-67.25
X75.75Y-60.5
X77.25Y-64.75
X79.5Y-67.25
X80.Y-89.75
X81.75Y-72.75
X82.75Y-72.75
X87.25Y-76.
X87.25Y-77.
X88.25Y-76.
X88.25Y-77.
X89.25Y-76.
X89.25Y-77.
X90.25Y-76.
X90.25Y-77.
T2
X67.5Y-57.
X67.5Y-59.5
T3
X98.Y-55.
X98.Y-60.
X103.Y-57.5
T4
X92.04Y-98.
X76.Y-98.
X78.54Y-98.
X68.Y-98.
X70.54Y-98.
X73.08Y-98.
X84.Y-98.
X86.54Y-98.
X89.5Y-98.
X81.08Y-98.
T5
X87.46Y-55.
X90.Y-55.
T6
X74.Y-49.88
X74.Y-57.5
X62.Y-56.
X62.Y-58.54
X62.Y-61.08
X55.Y-56.
X55.Y-58.54
X55.Y-61.08
T7
X54.Y-98.
X59.Y-98.
X64.Y-98.
X59.Y-71.
X64.Y-71.
X96.Y-98.
X101.Y-98.
X106.Y-98.
X96.Y-71.
X101.Y-71.
X106.Y-71.
X54.Y-71.
T8
X88.5Y-64.
X88.5Y-92.
T9
X80.Y-50.3
X80.Y-55.
X80.Y-59.7
X106.9Y-74.65
X106.9Y-87.35
X80.Y-77.3
X80.Y-82.
X80.Y-86.7
T0
M30
