G04 #@! TF.GenerationSoftware,KiCad,Pcbnew,(5.0.1-3-g963ef8bb5)*
G04 #@! TF.CreationDate,2019-04-18T21:55:15-06:00*
G04 #@! TF.ProjectId,NuisanceEngine,4E756973616E6365456E67696E652E6B,rev?*
G04 #@! TF.SameCoordinates,Original*
G04 #@! TF.FileFunction,Legend,Top*
G04 #@! TF.FilePolarity,Positive*
%FSLAX46Y46*%
G04 Gerber Fmt 4.6, Leading zero omitted, Abs format (unit mm)*
G04 Created by KiCad (PCBNEW (5.0.1-3-g963ef8bb5)) date Thursday, 18 April 2019 at 21:55:15*
%MOMM*%
%LPD*%
G01*
G04 APERTURE LIST*
%ADD10C,0.187500*%
%ADD11C,0.150000*%
%ADD12C,0.120000*%
G04 APERTURE END LIST*
D10*
X67732142Y-95589285D02*
X67732142Y-96125000D01*
X67696428Y-96232142D01*
X67625000Y-96303571D01*
X67517857Y-96339285D01*
X67446428Y-96339285D01*
X68517857Y-96339285D02*
X68267857Y-95982142D01*
X68089285Y-96339285D02*
X68089285Y-95589285D01*
X68375000Y-95589285D01*
X68446428Y-95625000D01*
X68482142Y-95660714D01*
X68517857Y-95732142D01*
X68517857Y-95839285D01*
X68482142Y-95910714D01*
X68446428Y-95946428D01*
X68375000Y-95982142D01*
X68089285Y-95982142D01*
X70303571Y-95589285D02*
X70303571Y-96125000D01*
X70267857Y-96232142D01*
X70196428Y-96303571D01*
X70089285Y-96339285D01*
X70017857Y-96339285D01*
X71017857Y-96339285D02*
X70660714Y-96339285D01*
X70660714Y-95589285D01*
X72428571Y-95625000D02*
X72357142Y-95589285D01*
X72250000Y-95589285D01*
X72142857Y-95625000D01*
X72071428Y-95696428D01*
X72035714Y-95767857D01*
X72000000Y-95910714D01*
X72000000Y-96017857D01*
X72035714Y-96160714D01*
X72071428Y-96232142D01*
X72142857Y-96303571D01*
X72250000Y-96339285D01*
X72321428Y-96339285D01*
X72428571Y-96303571D01*
X72464285Y-96267857D01*
X72464285Y-96017857D01*
X72321428Y-96017857D01*
X72785714Y-96339285D02*
X72785714Y-95589285D01*
X73214285Y-96339285D01*
X73214285Y-95589285D01*
X73571428Y-96339285D02*
X73571428Y-95589285D01*
X73750000Y-95589285D01*
X73857142Y-95625000D01*
X73928571Y-95696428D01*
X73964285Y-95767857D01*
X74000000Y-95910714D01*
X74000000Y-96017857D01*
X73964285Y-96160714D01*
X73928571Y-96232142D01*
X73857142Y-96303571D01*
X73750000Y-96339285D01*
X73571428Y-96339285D01*
X75428571Y-95625000D02*
X75357142Y-95589285D01*
X75250000Y-95589285D01*
X75142857Y-95625000D01*
X75071428Y-95696428D01*
X75035714Y-95767857D01*
X75000000Y-95910714D01*
X75000000Y-96017857D01*
X75035714Y-96160714D01*
X75071428Y-96232142D01*
X75142857Y-96303571D01*
X75250000Y-96339285D01*
X75321428Y-96339285D01*
X75428571Y-96303571D01*
X75464285Y-96267857D01*
X75464285Y-96017857D01*
X75321428Y-96017857D01*
X75785714Y-96339285D02*
X75785714Y-95589285D01*
X76214285Y-96339285D01*
X76214285Y-95589285D01*
X76571428Y-96339285D02*
X76571428Y-95589285D01*
X76750000Y-95589285D01*
X76857142Y-95625000D01*
X76928571Y-95696428D01*
X76964285Y-95767857D01*
X77000000Y-95910714D01*
X77000000Y-96017857D01*
X76964285Y-96160714D01*
X76928571Y-96232142D01*
X76857142Y-96303571D01*
X76750000Y-96339285D01*
X76571428Y-96339285D01*
X78035714Y-96339285D02*
X78178571Y-96339285D01*
X78250000Y-96303571D01*
X78285714Y-96267857D01*
X78357142Y-96160714D01*
X78392857Y-96017857D01*
X78392857Y-95732142D01*
X78357142Y-95660714D01*
X78321428Y-95625000D01*
X78250000Y-95589285D01*
X78107142Y-95589285D01*
X78035714Y-95625000D01*
X78000000Y-95660714D01*
X77964285Y-95732142D01*
X77964285Y-95910714D01*
X78000000Y-95982142D01*
X78035714Y-96017857D01*
X78107142Y-96053571D01*
X78250000Y-96053571D01*
X78321428Y-96017857D01*
X78357142Y-95982142D01*
X78392857Y-95910714D01*
X78607142Y-95589285D02*
X78857142Y-96339285D01*
X79107142Y-95589285D01*
X80446428Y-95946428D02*
X80553571Y-95982142D01*
X80589285Y-96017857D01*
X80625000Y-96089285D01*
X80625000Y-96196428D01*
X80589285Y-96267857D01*
X80553571Y-96303571D01*
X80482142Y-96339285D01*
X80196428Y-96339285D01*
X80196428Y-95589285D01*
X80446428Y-95589285D01*
X80517857Y-95625000D01*
X80553571Y-95660714D01*
X80589285Y-95732142D01*
X80589285Y-95803571D01*
X80553571Y-95875000D01*
X80517857Y-95910714D01*
X80446428Y-95946428D01*
X80196428Y-95946428D01*
X80910714Y-96125000D02*
X81267857Y-96125000D01*
X80839285Y-96339285D02*
X81089285Y-95589285D01*
X81339285Y-96339285D01*
X81482142Y-95589285D02*
X81910714Y-95589285D01*
X81696428Y-96339285D02*
X81696428Y-95589285D01*
X86410714Y-96267857D02*
X86375000Y-96303571D01*
X86267857Y-96339285D01*
X86196428Y-96339285D01*
X86089285Y-96303571D01*
X86017857Y-96232142D01*
X85982142Y-96160714D01*
X85946428Y-96017857D01*
X85946428Y-95910714D01*
X85982142Y-95767857D01*
X86017857Y-95696428D01*
X86089285Y-95625000D01*
X86196428Y-95589285D01*
X86267857Y-95589285D01*
X86375000Y-95625000D01*
X86410714Y-95660714D01*
X86625000Y-95589285D02*
X86875000Y-96339285D01*
X87125000Y-95589285D01*
X83428571Y-95625000D02*
X83357142Y-95589285D01*
X83250000Y-95589285D01*
X83142857Y-95625000D01*
X83071428Y-95696428D01*
X83035714Y-95767857D01*
X83000000Y-95910714D01*
X83000000Y-96017857D01*
X83035714Y-96160714D01*
X83071428Y-96232142D01*
X83142857Y-96303571D01*
X83250000Y-96339285D01*
X83321428Y-96339285D01*
X83428571Y-96303571D01*
X83464285Y-96267857D01*
X83464285Y-96017857D01*
X83321428Y-96017857D01*
X83785714Y-96339285D02*
X83785714Y-95589285D01*
X84214285Y-96339285D01*
X84214285Y-95589285D01*
X84571428Y-96339285D02*
X84571428Y-95589285D01*
X84750000Y-95589285D01*
X84857142Y-95625000D01*
X84928571Y-95696428D01*
X84964285Y-95767857D01*
X85000000Y-95910714D01*
X85000000Y-96017857D01*
X84964285Y-96160714D01*
X84928571Y-96232142D01*
X84857142Y-96303571D01*
X84750000Y-96339285D01*
X84571428Y-96339285D01*
X88535714Y-96303571D02*
X88642857Y-96339285D01*
X88821428Y-96339285D01*
X88892857Y-96303571D01*
X88928571Y-96267857D01*
X88964285Y-96196428D01*
X88964285Y-96125000D01*
X88928571Y-96053571D01*
X88892857Y-96017857D01*
X88821428Y-95982142D01*
X88678571Y-95946428D01*
X88607142Y-95910714D01*
X88571428Y-95875000D01*
X88535714Y-95803571D01*
X88535714Y-95732142D01*
X88571428Y-95660714D01*
X88607142Y-95625000D01*
X88678571Y-95589285D01*
X88857142Y-95589285D01*
X88964285Y-95625000D01*
X89285714Y-96339285D02*
X89285714Y-95589285D01*
X89571428Y-95589285D01*
X89642857Y-95625000D01*
X89678571Y-95660714D01*
X89714285Y-95732142D01*
X89714285Y-95839285D01*
X89678571Y-95910714D01*
X89642857Y-95946428D01*
X89571428Y-95982142D01*
X89285714Y-95982142D01*
X90035714Y-96339285D02*
X90035714Y-95589285D01*
X90464285Y-96339285D02*
X90142857Y-95910714D01*
X90464285Y-95589285D02*
X90035714Y-96017857D01*
X91428571Y-95625000D02*
X91357142Y-95589285D01*
X91250000Y-95589285D01*
X91142857Y-95625000D01*
X91071428Y-95696428D01*
X91035714Y-95767857D01*
X91000000Y-95910714D01*
X91000000Y-96017857D01*
X91035714Y-96160714D01*
X91071428Y-96232142D01*
X91142857Y-96303571D01*
X91250000Y-96339285D01*
X91321428Y-96339285D01*
X91428571Y-96303571D01*
X91464285Y-96267857D01*
X91464285Y-96017857D01*
X91321428Y-96017857D01*
X91785714Y-96339285D02*
X91785714Y-95589285D01*
X92214285Y-96339285D01*
X92214285Y-95589285D01*
X92571428Y-96339285D02*
X92571428Y-95589285D01*
X92750000Y-95589285D01*
X92857142Y-95625000D01*
X92928571Y-95696428D01*
X92964285Y-95767857D01*
X93000000Y-95910714D01*
X93000000Y-96017857D01*
X92964285Y-96160714D01*
X92928571Y-96232142D01*
X92857142Y-96303571D01*
X92750000Y-96339285D01*
X92571428Y-96339285D01*
D11*
G04 #@! TO.C,SW1*
X83000000Y-82000000D02*
G75*
G03X83000000Y-82000000I-3000000J0D01*
G01*
X84000000Y-88600000D02*
X84000000Y-75400000D01*
X76000000Y-75400000D02*
X76000000Y-88600000D01*
X80000000Y-75400000D02*
X76000000Y-75400000D01*
X80000000Y-75400000D02*
X84000000Y-75400000D01*
X80000000Y-88600000D02*
X84000000Y-88600000D01*
X80000000Y-88600000D02*
X76000000Y-88600000D01*
D12*
G04 #@! TO.C,D1*
X72530000Y-55630000D02*
X75470000Y-55630000D01*
X72530000Y-55390000D02*
X75470000Y-55390000D01*
X72530000Y-55510000D02*
X75470000Y-55510000D01*
X75470000Y-50970000D02*
X75340000Y-50970000D01*
X75470000Y-56410000D02*
X75470000Y-50970000D01*
X75340000Y-56410000D02*
X75470000Y-56410000D01*
X72530000Y-50970000D02*
X72660000Y-50970000D01*
X72530000Y-56410000D02*
X72530000Y-50970000D01*
X72660000Y-56410000D02*
X72530000Y-56410000D01*
D11*
G04 #@! TO.C,U1*
X66575000Y-75075000D02*
X66575000Y-76450000D01*
X75450000Y-75075000D02*
X75450000Y-70925000D01*
X66550000Y-75075000D02*
X66550000Y-70925000D01*
X75450000Y-75075000D02*
X75335000Y-75075000D01*
X75450000Y-70925000D02*
X75335000Y-70925000D01*
X66550000Y-70925000D02*
X66665000Y-70925000D01*
X66550000Y-75075000D02*
X66575000Y-75075000D01*
G04 #@! TO.C,RV2*
X104500000Y-55000000D02*
G75*
G03X104500000Y-55000000I-3500000J0D01*
G01*
X109500000Y-55000000D02*
G75*
G03X109500000Y-55000000I-8500000J0D01*
G01*
X96000000Y-71000000D02*
X96000000Y-61900000D01*
X101000000Y-71000000D02*
X101000000Y-63500000D01*
X106000000Y-71000000D02*
X106000000Y-61900000D01*
G04 #@! TO.C,RV5*
X104500000Y-82000000D02*
G75*
G03X104500000Y-82000000I-3500000J0D01*
G01*
X109500000Y-82000000D02*
G75*
G03X109500000Y-82000000I-8500000J0D01*
G01*
X96000000Y-98000000D02*
X96000000Y-88900000D01*
X101000000Y-98000000D02*
X101000000Y-90500000D01*
X106000000Y-98000000D02*
X106000000Y-88900000D01*
G04 #@! TO.C,RV4*
X62500000Y-82000000D02*
G75*
G03X62500000Y-82000000I-3500000J0D01*
G01*
X67500000Y-82000000D02*
G75*
G03X67500000Y-82000000I-8500000J0D01*
G01*
X54000000Y-98000000D02*
X54000000Y-88900000D01*
X59000000Y-98000000D02*
X59000000Y-90500000D01*
X64000000Y-98000000D02*
X64000000Y-88900000D01*
G04 #@! TO.C,RV1*
X62500000Y-55000000D02*
G75*
G03X62500000Y-55000000I-3500000J0D01*
G01*
X67500000Y-55000000D02*
G75*
G03X67500000Y-55000000I-8500000J0D01*
G01*
X54000000Y-71000000D02*
X54000000Y-61900000D01*
X59000000Y-71000000D02*
X59000000Y-63500000D01*
X64000000Y-71000000D02*
X64000000Y-61900000D01*
G04 #@! TO.C,D2*
X91214888Y-53475096D02*
G75*
G03X91230000Y-56500000I-2484888J-1524904D01*
G01*
X91230000Y-53500000D02*
X91230000Y-56500000D01*
X91247936Y-55000000D02*
G75*
G03X91247936Y-55000000I-2517936J0D01*
G01*
G04 #@! TO.C,R22*
X84500000Y-65000000D02*
X84500000Y-77000000D01*
X92500000Y-65000000D02*
X84500000Y-65000000D01*
X92500000Y-91000000D02*
X92500000Y-65000000D01*
X84500000Y-91000000D02*
X92500000Y-91000000D01*
X84500000Y-77000000D02*
X84500000Y-91000000D01*
G04 #@! TO.C,SW2*
X83000000Y-55000000D02*
G75*
G03X83000000Y-55000000I-3000000J0D01*
G01*
X84000000Y-61600000D02*
X84000000Y-48400000D01*
X76000000Y-48400000D02*
X76000000Y-61600000D01*
X80000000Y-48400000D02*
X76000000Y-48400000D01*
X80000000Y-48400000D02*
X84000000Y-48400000D01*
X80000000Y-61600000D02*
X84000000Y-61600000D01*
X80000000Y-61600000D02*
X76000000Y-61600000D01*
D12*
G04 #@! TO.C,J1*
X82670000Y-99330000D02*
X82670000Y-98000000D01*
X84000000Y-99330000D02*
X82670000Y-99330000D01*
X85270000Y-99330000D02*
X85270000Y-96670000D01*
X85270000Y-96670000D02*
X87870000Y-96670000D01*
X85270000Y-99330000D02*
X87870000Y-99330000D01*
X87870000Y-99330000D02*
X87870000Y-96670000D01*
G04 #@! TO.C,J2*
X66670000Y-99330000D02*
X66670000Y-98000000D01*
X68000000Y-99330000D02*
X66670000Y-99330000D01*
X69270000Y-99330000D02*
X69270000Y-96670000D01*
X69270000Y-96670000D02*
X74410000Y-96670000D01*
X69270000Y-99330000D02*
X74410000Y-99330000D01*
X74410000Y-99330000D02*
X74410000Y-96670000D01*
G04 #@! TO.C,J3*
X82410000Y-99330000D02*
X82410000Y-96670000D01*
X77270000Y-99330000D02*
X82410000Y-99330000D01*
X77270000Y-96670000D02*
X82410000Y-96670000D01*
X77270000Y-99330000D02*
X77270000Y-96670000D01*
X76000000Y-99330000D02*
X74670000Y-99330000D01*
X74670000Y-99330000D02*
X74670000Y-98000000D01*
G04 #@! TO.C,LS1*
X93370000Y-99330000D02*
X93370000Y-96670000D01*
X90770000Y-99330000D02*
X93370000Y-99330000D01*
X90770000Y-96670000D02*
X93370000Y-96670000D01*
X90770000Y-99330000D02*
X90770000Y-96670000D01*
X89500000Y-99330000D02*
X88170000Y-99330000D01*
X88170000Y-99330000D02*
X88170000Y-98000000D01*
G04 #@! TO.C,C1*
X76490000Y-70171267D02*
X76490000Y-69828733D01*
X77510000Y-70171267D02*
X77510000Y-69828733D01*
G04 #@! TO.C,C2*
X87990000Y-60171267D02*
X87990000Y-59828733D01*
X89010000Y-60171267D02*
X89010000Y-59828733D01*
G04 #@! TO.C,C3*
X77828733Y-74510000D02*
X78171267Y-74510000D01*
X77828733Y-73490000D02*
X78171267Y-73490000D01*
G04 #@! TO.C,C4*
X64490000Y-65828733D02*
X64490000Y-66171267D01*
X65510000Y-65828733D02*
X65510000Y-66171267D01*
G04 #@! TO.C,C5*
X75010000Y-86171267D02*
X75010000Y-85828733D01*
X73990000Y-86171267D02*
X73990000Y-85828733D01*
G04 #@! TO.C,C6*
X69010000Y-85828733D02*
X69010000Y-86171267D01*
X67990000Y-85828733D02*
X67990000Y-86171267D01*
G04 #@! TO.C,C7*
X70290000Y-50761252D02*
X70290000Y-50238748D01*
X71710000Y-50761252D02*
X71710000Y-50238748D01*
G04 #@! TO.C,C9*
X71710000Y-54238748D02*
X71710000Y-54761252D01*
X70290000Y-54238748D02*
X70290000Y-54761252D01*
G04 #@! TO.C,C10*
X77238748Y-94710000D02*
X77761252Y-94710000D01*
X77238748Y-93290000D02*
X77761252Y-93290000D01*
G04 #@! TO.C,C11*
X81738748Y-93290000D02*
X82261252Y-93290000D01*
X81738748Y-94710000D02*
X82261252Y-94710000D01*
G04 #@! TO.C,Q1*
X71920000Y-62760000D02*
X71920000Y-61300000D01*
X75080000Y-62760000D02*
X75080000Y-59600000D01*
X75080000Y-62760000D02*
X74150000Y-62760000D01*
X71920000Y-62760000D02*
X72850000Y-62760000D01*
G04 #@! TO.C,Q2*
X75080000Y-80240000D02*
X74150000Y-80240000D01*
X71920000Y-80240000D02*
X72850000Y-80240000D01*
X71920000Y-80240000D02*
X71920000Y-83400000D01*
X75080000Y-80240000D02*
X75080000Y-81700000D01*
G04 #@! TO.C,R1*
X84490000Y-93671267D02*
X84490000Y-93328733D01*
X85510000Y-93671267D02*
X85510000Y-93328733D01*
G04 #@! TO.C,R2*
X65828733Y-62490000D02*
X66171267Y-62490000D01*
X65828733Y-63510000D02*
X66171267Y-63510000D01*
G04 #@! TO.C,R3*
X71010000Y-86828733D02*
X71010000Y-87171267D01*
X69990000Y-86828733D02*
X69990000Y-87171267D01*
G04 #@! TO.C,R4*
X67510000Y-65828733D02*
X67510000Y-66171267D01*
X66490000Y-65828733D02*
X66490000Y-66171267D01*
G04 #@! TO.C,R5*
X69510000Y-65828733D02*
X69510000Y-66171267D01*
X68490000Y-65828733D02*
X68490000Y-66171267D01*
G04 #@! TO.C,R6*
X71990000Y-91828733D02*
X71990000Y-92171267D01*
X73010000Y-91828733D02*
X73010000Y-92171267D01*
G04 #@! TO.C,R7*
X71010000Y-82828733D02*
X71010000Y-83171267D01*
X69990000Y-82828733D02*
X69990000Y-83171267D01*
G04 #@! TO.C,R8*
X70171267Y-63510000D02*
X69828733Y-63510000D01*
X70171267Y-62490000D02*
X69828733Y-62490000D01*
G04 #@! TO.C,R9*
X84990000Y-60171267D02*
X84990000Y-59828733D01*
X86010000Y-60171267D02*
X86010000Y-59828733D01*
G04 #@! TO.C,R10*
X92328733Y-63510000D02*
X92671267Y-63510000D01*
X92328733Y-62490000D02*
X92671267Y-62490000D01*
G04 #@! TO.C,R11*
X81703733Y-74510000D02*
X82046267Y-74510000D01*
X81703733Y-73490000D02*
X82046267Y-73490000D01*
G04 #@! TO.C,R12*
X72510000Y-67171267D02*
X72510000Y-66828733D01*
X71490000Y-67171267D02*
X71490000Y-66828733D01*
G04 #@! TO.C,R13*
X90990000Y-59828733D02*
X90990000Y-60171267D01*
X92010000Y-59828733D02*
X92010000Y-60171267D01*
G04 #@! TO.C,R14*
X75510000Y-66828733D02*
X75510000Y-67171267D01*
X74490000Y-66828733D02*
X74490000Y-67171267D01*
G04 #@! TO.C,R15*
X69010000Y-82171267D02*
X69010000Y-81828733D01*
X67990000Y-82171267D02*
X67990000Y-81828733D01*
G04 #@! TO.C,R16*
X73990000Y-90828733D02*
X73990000Y-91171267D01*
X75010000Y-90828733D02*
X75010000Y-91171267D01*
G04 #@! TO.C,R17*
X77828733Y-63510000D02*
X78171267Y-63510000D01*
X77828733Y-62490000D02*
X78171267Y-62490000D01*
G04 #@! TO.C,R18*
X69671267Y-79510000D02*
X69328733Y-79510000D01*
X69671267Y-78490000D02*
X69328733Y-78490000D01*
G04 #@! TO.C,R19*
X78171267Y-66510000D02*
X77828733Y-66510000D01*
X78171267Y-65490000D02*
X77828733Y-65490000D01*
G04 #@! TO.C,R20*
X82171267Y-63510000D02*
X81828733Y-63510000D01*
X82171267Y-62490000D02*
X81828733Y-62490000D01*
G04 #@! TO.C,R21*
X81828733Y-66510000D02*
X82171267Y-66510000D01*
X81828733Y-65490000D02*
X82171267Y-65490000D01*
G04 #@! TO.C,R23*
X73010000Y-86171267D02*
X73010000Y-85828733D01*
X71990000Y-86171267D02*
X71990000Y-85828733D01*
G04 #@! TO.C,R24*
X68490000Y-53328733D02*
X68490000Y-53671267D01*
X69510000Y-53328733D02*
X69510000Y-53671267D01*
G04 #@! TO.C,R25*
X68171267Y-50010000D02*
X67828733Y-50010000D01*
X68171267Y-48990000D02*
X67828733Y-48990000D01*
G04 #@! TO.C,R26*
X77671267Y-90490000D02*
X77328733Y-90490000D01*
X77671267Y-91510000D02*
X77328733Y-91510000D01*
G04 #@! TO.C,R27*
X81828733Y-91510000D02*
X82171267Y-91510000D01*
X81828733Y-90490000D02*
X82171267Y-90490000D01*
G04 #@! TO.C,R29*
X85828733Y-48490000D02*
X86171267Y-48490000D01*
X85828733Y-49510000D02*
X86171267Y-49510000D01*
G04 #@! TO.C,SW1*
D11*
X83404761Y-87833333D02*
X83452380Y-87690476D01*
X83452380Y-87452380D01*
X83404761Y-87357142D01*
X83357142Y-87309523D01*
X83261904Y-87261904D01*
X83166666Y-87261904D01*
X83071428Y-87309523D01*
X83023809Y-87357142D01*
X82976190Y-87452380D01*
X82928571Y-87642857D01*
X82880952Y-87738095D01*
X82833333Y-87785714D01*
X82738095Y-87833333D01*
X82642857Y-87833333D01*
X82547619Y-87785714D01*
X82500000Y-87738095D01*
X82452380Y-87642857D01*
X82452380Y-87404761D01*
X82500000Y-87261904D01*
X82452380Y-86928571D02*
X83452380Y-86690476D01*
X82738095Y-86500000D01*
X83452380Y-86309523D01*
X82452380Y-86071428D01*
X83452380Y-85166666D02*
X83452380Y-85738095D01*
X83452380Y-85452380D02*
X82452380Y-85452380D01*
X82595238Y-85547619D01*
X82690476Y-85642857D01*
X82738095Y-85738095D01*
G04 #@! TO.C,D1*
X74452380Y-54238095D02*
X73452380Y-54238095D01*
X73452380Y-54000000D01*
X73500000Y-53857142D01*
X73595238Y-53761904D01*
X73690476Y-53714285D01*
X73880952Y-53666666D01*
X74023809Y-53666666D01*
X74214285Y-53714285D01*
X74309523Y-53761904D01*
X74404761Y-53857142D01*
X74452380Y-54000000D01*
X74452380Y-54238095D01*
X74452380Y-52714285D02*
X74452380Y-53285714D01*
X74452380Y-53000000D02*
X73452380Y-53000000D01*
X73595238Y-53095238D01*
X73690476Y-53190476D01*
X73738095Y-53285714D01*
X74452380Y-57761904D02*
X73452380Y-57761904D01*
X74452380Y-57190476D02*
X73880952Y-57619047D01*
X73452380Y-57190476D02*
X74023809Y-57761904D01*
G04 #@! TO.C,U1*
X66952380Y-73761904D02*
X67761904Y-73761904D01*
X67857142Y-73714285D01*
X67904761Y-73666666D01*
X67952380Y-73571428D01*
X67952380Y-73380952D01*
X67904761Y-73285714D01*
X67857142Y-73238095D01*
X67761904Y-73190476D01*
X66952380Y-73190476D01*
X67952380Y-72190476D02*
X67952380Y-72761904D01*
X67952380Y-72476190D02*
X66952380Y-72476190D01*
X67095238Y-72571428D01*
X67190476Y-72666666D01*
X67238095Y-72761904D01*
G04 #@! TO.C,RV2*
X100404761Y-55952380D02*
X100071428Y-55476190D01*
X99833333Y-55952380D02*
X99833333Y-54952380D01*
X100214285Y-54952380D01*
X100309523Y-55000000D01*
X100357142Y-55047619D01*
X100404761Y-55142857D01*
X100404761Y-55285714D01*
X100357142Y-55380952D01*
X100309523Y-55428571D01*
X100214285Y-55476190D01*
X99833333Y-55476190D01*
X100690476Y-54952380D02*
X101023809Y-55952380D01*
X101357142Y-54952380D01*
X101642857Y-55047619D02*
X101690476Y-55000000D01*
X101785714Y-54952380D01*
X102023809Y-54952380D01*
X102119047Y-55000000D01*
X102166666Y-55047619D01*
X102214285Y-55142857D01*
X102214285Y-55238095D01*
X102166666Y-55380952D01*
X101595238Y-55952380D01*
X102214285Y-55952380D01*
G04 #@! TO.C,RV5*
X100404761Y-82952380D02*
X100071428Y-82476190D01*
X99833333Y-82952380D02*
X99833333Y-81952380D01*
X100214285Y-81952380D01*
X100309523Y-82000000D01*
X100357142Y-82047619D01*
X100404761Y-82142857D01*
X100404761Y-82285714D01*
X100357142Y-82380952D01*
X100309523Y-82428571D01*
X100214285Y-82476190D01*
X99833333Y-82476190D01*
X100690476Y-81952380D02*
X101023809Y-82952380D01*
X101357142Y-81952380D01*
X102166666Y-81952380D02*
X101690476Y-81952380D01*
X101642857Y-82428571D01*
X101690476Y-82380952D01*
X101785714Y-82333333D01*
X102023809Y-82333333D01*
X102119047Y-82380952D01*
X102166666Y-82428571D01*
X102214285Y-82523809D01*
X102214285Y-82761904D01*
X102166666Y-82857142D01*
X102119047Y-82904761D01*
X102023809Y-82952380D01*
X101785714Y-82952380D01*
X101690476Y-82904761D01*
X101642857Y-82857142D01*
G04 #@! TO.C,RV4*
X58404761Y-82952380D02*
X58071428Y-82476190D01*
X57833333Y-82952380D02*
X57833333Y-81952380D01*
X58214285Y-81952380D01*
X58309523Y-82000000D01*
X58357142Y-82047619D01*
X58404761Y-82142857D01*
X58404761Y-82285714D01*
X58357142Y-82380952D01*
X58309523Y-82428571D01*
X58214285Y-82476190D01*
X57833333Y-82476190D01*
X58690476Y-81952380D02*
X59023809Y-82952380D01*
X59357142Y-81952380D01*
X60119047Y-82285714D02*
X60119047Y-82952380D01*
X59880952Y-81904761D02*
X59642857Y-82619047D01*
X60261904Y-82619047D01*
G04 #@! TO.C,RV1*
X58404761Y-55952380D02*
X58071428Y-55476190D01*
X57833333Y-55952380D02*
X57833333Y-54952380D01*
X58214285Y-54952380D01*
X58309523Y-55000000D01*
X58357142Y-55047619D01*
X58404761Y-55142857D01*
X58404761Y-55285714D01*
X58357142Y-55380952D01*
X58309523Y-55428571D01*
X58214285Y-55476190D01*
X57833333Y-55476190D01*
X58690476Y-54952380D02*
X59023809Y-55952380D01*
X59357142Y-54952380D01*
X60214285Y-55952380D02*
X59642857Y-55952380D01*
X59928571Y-55952380D02*
X59928571Y-54952380D01*
X59833333Y-55095238D01*
X59738095Y-55190476D01*
X59642857Y-55238095D01*
G04 #@! TO.C,D2*
X87761904Y-51452380D02*
X87761904Y-50452380D01*
X88000000Y-50452380D01*
X88142857Y-50500000D01*
X88238095Y-50595238D01*
X88285714Y-50690476D01*
X88333333Y-50880952D01*
X88333333Y-51023809D01*
X88285714Y-51214285D01*
X88238095Y-51309523D01*
X88142857Y-51404761D01*
X88000000Y-51452380D01*
X87761904Y-51452380D01*
X88714285Y-50547619D02*
X88761904Y-50500000D01*
X88857142Y-50452380D01*
X89095238Y-50452380D01*
X89190476Y-50500000D01*
X89238095Y-50547619D01*
X89285714Y-50642857D01*
X89285714Y-50738095D01*
X89238095Y-50880952D01*
X88666666Y-51452380D01*
X89285714Y-51452380D01*
G04 #@! TO.C,R22*
X89452380Y-78642857D02*
X88976190Y-78976190D01*
X89452380Y-79214285D02*
X88452380Y-79214285D01*
X88452380Y-78833333D01*
X88500000Y-78738095D01*
X88547619Y-78690476D01*
X88642857Y-78642857D01*
X88785714Y-78642857D01*
X88880952Y-78690476D01*
X88928571Y-78738095D01*
X88976190Y-78833333D01*
X88976190Y-79214285D01*
X88547619Y-78261904D02*
X88500000Y-78214285D01*
X88452380Y-78119047D01*
X88452380Y-77880952D01*
X88500000Y-77785714D01*
X88547619Y-77738095D01*
X88642857Y-77690476D01*
X88738095Y-77690476D01*
X88880952Y-77738095D01*
X89452380Y-78309523D01*
X89452380Y-77690476D01*
X88547619Y-77309523D02*
X88500000Y-77261904D01*
X88452380Y-77166666D01*
X88452380Y-76928571D01*
X88500000Y-76833333D01*
X88547619Y-76785714D01*
X88642857Y-76738095D01*
X88738095Y-76738095D01*
X88880952Y-76785714D01*
X89452380Y-77357142D01*
X89452380Y-76738095D01*
G04 #@! TO.C,SW2*
X83404761Y-60833333D02*
X83452380Y-60690476D01*
X83452380Y-60452380D01*
X83404761Y-60357142D01*
X83357142Y-60309523D01*
X83261904Y-60261904D01*
X83166666Y-60261904D01*
X83071428Y-60309523D01*
X83023809Y-60357142D01*
X82976190Y-60452380D01*
X82928571Y-60642857D01*
X82880952Y-60738095D01*
X82833333Y-60785714D01*
X82738095Y-60833333D01*
X82642857Y-60833333D01*
X82547619Y-60785714D01*
X82500000Y-60738095D01*
X82452380Y-60642857D01*
X82452380Y-60404761D01*
X82500000Y-60261904D01*
X82452380Y-59928571D02*
X83452380Y-59690476D01*
X82738095Y-59500000D01*
X83452380Y-59309523D01*
X82452380Y-59071428D01*
X82547619Y-58738095D02*
X82500000Y-58690476D01*
X82452380Y-58595238D01*
X82452380Y-58357142D01*
X82500000Y-58261904D01*
X82547619Y-58214285D01*
X82642857Y-58166666D01*
X82738095Y-58166666D01*
X82880952Y-58214285D01*
X83452380Y-58785714D01*
X83452380Y-58166666D01*
G04 #@! TO.C,J1*
X83666666Y-97452380D02*
X83666666Y-98166666D01*
X83619047Y-98309523D01*
X83523809Y-98404761D01*
X83380952Y-98452380D01*
X83285714Y-98452380D01*
X84666666Y-98452380D02*
X84095238Y-98452380D01*
X84380952Y-98452380D02*
X84380952Y-97452380D01*
X84285714Y-97595238D01*
X84190476Y-97690476D01*
X84095238Y-97738095D01*
G04 #@! TO.C,J2*
X67666666Y-97452380D02*
X67666666Y-98166666D01*
X67619047Y-98309523D01*
X67523809Y-98404761D01*
X67380952Y-98452380D01*
X67285714Y-98452380D01*
X68095238Y-97547619D02*
X68142857Y-97500000D01*
X68238095Y-97452380D01*
X68476190Y-97452380D01*
X68571428Y-97500000D01*
X68619047Y-97547619D01*
X68666666Y-97642857D01*
X68666666Y-97738095D01*
X68619047Y-97880952D01*
X68047619Y-98452380D01*
X68666666Y-98452380D01*
G04 #@! TO.C,J3*
X75666666Y-97452380D02*
X75666666Y-98166666D01*
X75619047Y-98309523D01*
X75523809Y-98404761D01*
X75380952Y-98452380D01*
X75285714Y-98452380D01*
X76047619Y-97452380D02*
X76666666Y-97452380D01*
X76333333Y-97833333D01*
X76476190Y-97833333D01*
X76571428Y-97880952D01*
X76619047Y-97928571D01*
X76666666Y-98023809D01*
X76666666Y-98261904D01*
X76619047Y-98357142D01*
X76571428Y-98404761D01*
X76476190Y-98452380D01*
X76190476Y-98452380D01*
X76095238Y-98404761D01*
X76047619Y-98357142D01*
G04 #@! TO.C,LS1*
X88857142Y-98452380D02*
X88380952Y-98452380D01*
X88380952Y-97452380D01*
X89142857Y-98404761D02*
X89285714Y-98452380D01*
X89523809Y-98452380D01*
X89619047Y-98404761D01*
X89666666Y-98357142D01*
X89714285Y-98261904D01*
X89714285Y-98166666D01*
X89666666Y-98071428D01*
X89619047Y-98023809D01*
X89523809Y-97976190D01*
X89333333Y-97928571D01*
X89238095Y-97880952D01*
X89190476Y-97833333D01*
X89142857Y-97738095D01*
X89142857Y-97642857D01*
X89190476Y-97547619D01*
X89238095Y-97500000D01*
X89333333Y-97452380D01*
X89571428Y-97452380D01*
X89714285Y-97500000D01*
X90666666Y-98452380D02*
X90095238Y-98452380D01*
X90380952Y-98452380D02*
X90380952Y-97452380D01*
X90285714Y-97595238D01*
X90190476Y-97690476D01*
X90095238Y-97738095D01*
G04 #@! TO.C,C1*
X78857142Y-70166666D02*
X78904761Y-70214285D01*
X78952380Y-70357142D01*
X78952380Y-70452380D01*
X78904761Y-70595238D01*
X78809523Y-70690476D01*
X78714285Y-70738095D01*
X78523809Y-70785714D01*
X78380952Y-70785714D01*
X78190476Y-70738095D01*
X78095238Y-70690476D01*
X78000000Y-70595238D01*
X77952380Y-70452380D01*
X77952380Y-70357142D01*
X78000000Y-70214285D01*
X78047619Y-70166666D01*
X78952380Y-69214285D02*
X78952380Y-69785714D01*
X78952380Y-69500000D02*
X77952380Y-69500000D01*
X78095238Y-69595238D01*
X78190476Y-69690476D01*
X78238095Y-69785714D01*
G04 #@! TO.C,C2*
X90357142Y-60166666D02*
X90404761Y-60214285D01*
X90452380Y-60357142D01*
X90452380Y-60452380D01*
X90404761Y-60595238D01*
X90309523Y-60690476D01*
X90214285Y-60738095D01*
X90023809Y-60785714D01*
X89880952Y-60785714D01*
X89690476Y-60738095D01*
X89595238Y-60690476D01*
X89500000Y-60595238D01*
X89452380Y-60452380D01*
X89452380Y-60357142D01*
X89500000Y-60214285D01*
X89547619Y-60166666D01*
X89547619Y-59785714D02*
X89500000Y-59738095D01*
X89452380Y-59642857D01*
X89452380Y-59404761D01*
X89500000Y-59309523D01*
X89547619Y-59261904D01*
X89642857Y-59214285D01*
X89738095Y-59214285D01*
X89880952Y-59261904D01*
X90452380Y-59833333D01*
X90452380Y-59214285D01*
G04 #@! TO.C,C3*
X77833333Y-72857142D02*
X77785714Y-72904761D01*
X77642857Y-72952380D01*
X77547619Y-72952380D01*
X77404761Y-72904761D01*
X77309523Y-72809523D01*
X77261904Y-72714285D01*
X77214285Y-72523809D01*
X77214285Y-72380952D01*
X77261904Y-72190476D01*
X77309523Y-72095238D01*
X77404761Y-72000000D01*
X77547619Y-71952380D01*
X77642857Y-71952380D01*
X77785714Y-72000000D01*
X77833333Y-72047619D01*
X78166666Y-71952380D02*
X78785714Y-71952380D01*
X78452380Y-72333333D01*
X78595238Y-72333333D01*
X78690476Y-72380952D01*
X78738095Y-72428571D01*
X78785714Y-72523809D01*
X78785714Y-72761904D01*
X78738095Y-72857142D01*
X78690476Y-72904761D01*
X78595238Y-72952380D01*
X78309523Y-72952380D01*
X78214285Y-72904761D01*
X78166666Y-72857142D01*
G04 #@! TO.C,C4*
X64833333Y-68857142D02*
X64785714Y-68904761D01*
X64642857Y-68952380D01*
X64547619Y-68952380D01*
X64404761Y-68904761D01*
X64309523Y-68809523D01*
X64261904Y-68714285D01*
X64214285Y-68523809D01*
X64214285Y-68380952D01*
X64261904Y-68190476D01*
X64309523Y-68095238D01*
X64404761Y-68000000D01*
X64547619Y-67952380D01*
X64642857Y-67952380D01*
X64785714Y-68000000D01*
X64833333Y-68047619D01*
X65690476Y-68285714D02*
X65690476Y-68952380D01*
X65452380Y-67904761D02*
X65214285Y-68619047D01*
X65833333Y-68619047D01*
G04 #@! TO.C,C5*
X74333333Y-88857142D02*
X74285714Y-88904761D01*
X74142857Y-88952380D01*
X74047619Y-88952380D01*
X73904761Y-88904761D01*
X73809523Y-88809523D01*
X73761904Y-88714285D01*
X73714285Y-88523809D01*
X73714285Y-88380952D01*
X73761904Y-88190476D01*
X73809523Y-88095238D01*
X73904761Y-88000000D01*
X74047619Y-87952380D01*
X74142857Y-87952380D01*
X74285714Y-88000000D01*
X74333333Y-88047619D01*
X75238095Y-87952380D02*
X74761904Y-87952380D01*
X74714285Y-88428571D01*
X74761904Y-88380952D01*
X74857142Y-88333333D01*
X75095238Y-88333333D01*
X75190476Y-88380952D01*
X75238095Y-88428571D01*
X75285714Y-88523809D01*
X75285714Y-88761904D01*
X75238095Y-88857142D01*
X75190476Y-88904761D01*
X75095238Y-88952380D01*
X74857142Y-88952380D01*
X74761904Y-88904761D01*
X74714285Y-88857142D01*
G04 #@! TO.C,C6*
X68333333Y-88732142D02*
X68285714Y-88779761D01*
X68142857Y-88827380D01*
X68047619Y-88827380D01*
X67904761Y-88779761D01*
X67809523Y-88684523D01*
X67761904Y-88589285D01*
X67714285Y-88398809D01*
X67714285Y-88255952D01*
X67761904Y-88065476D01*
X67809523Y-87970238D01*
X67904761Y-87875000D01*
X68047619Y-87827380D01*
X68142857Y-87827380D01*
X68285714Y-87875000D01*
X68333333Y-87922619D01*
X69190476Y-87827380D02*
X69000000Y-87827380D01*
X68904761Y-87875000D01*
X68857142Y-87922619D01*
X68761904Y-88065476D01*
X68714285Y-88255952D01*
X68714285Y-88636904D01*
X68761904Y-88732142D01*
X68809523Y-88779761D01*
X68904761Y-88827380D01*
X69095238Y-88827380D01*
X69190476Y-88779761D01*
X69238095Y-88732142D01*
X69285714Y-88636904D01*
X69285714Y-88398809D01*
X69238095Y-88303571D01*
X69190476Y-88255952D01*
X69095238Y-88208333D01*
X68904761Y-88208333D01*
X68809523Y-88255952D01*
X68761904Y-88303571D01*
X68714285Y-88398809D01*
G04 #@! TO.C,C7*
X70833333Y-48357142D02*
X70785714Y-48404761D01*
X70642857Y-48452380D01*
X70547619Y-48452380D01*
X70404761Y-48404761D01*
X70309523Y-48309523D01*
X70261904Y-48214285D01*
X70214285Y-48023809D01*
X70214285Y-47880952D01*
X70261904Y-47690476D01*
X70309523Y-47595238D01*
X70404761Y-47500000D01*
X70547619Y-47452380D01*
X70642857Y-47452380D01*
X70785714Y-47500000D01*
X70833333Y-47547619D01*
X71166666Y-47452380D02*
X71833333Y-47452380D01*
X71404761Y-48452380D01*
G04 #@! TO.C,C9*
X70833333Y-57357142D02*
X70785714Y-57404761D01*
X70642857Y-57452380D01*
X70547619Y-57452380D01*
X70404761Y-57404761D01*
X70309523Y-57309523D01*
X70261904Y-57214285D01*
X70214285Y-57023809D01*
X70214285Y-56880952D01*
X70261904Y-56690476D01*
X70309523Y-56595238D01*
X70404761Y-56500000D01*
X70547619Y-56452380D01*
X70642857Y-56452380D01*
X70785714Y-56500000D01*
X70833333Y-56547619D01*
X71309523Y-57452380D02*
X71500000Y-57452380D01*
X71595238Y-57404761D01*
X71642857Y-57357142D01*
X71738095Y-57214285D01*
X71785714Y-57023809D01*
X71785714Y-56642857D01*
X71738095Y-56547619D01*
X71690476Y-56500000D01*
X71595238Y-56452380D01*
X71404761Y-56452380D01*
X71309523Y-56500000D01*
X71261904Y-56547619D01*
X71214285Y-56642857D01*
X71214285Y-56880952D01*
X71261904Y-56976190D01*
X71309523Y-57023809D01*
X71404761Y-57071428D01*
X71595238Y-57071428D01*
X71690476Y-57023809D01*
X71738095Y-56976190D01*
X71785714Y-56880952D01*
G04 #@! TO.C,C10*
X76857142Y-92707142D02*
X76809523Y-92754761D01*
X76666666Y-92802380D01*
X76571428Y-92802380D01*
X76428571Y-92754761D01*
X76333333Y-92659523D01*
X76285714Y-92564285D01*
X76238095Y-92373809D01*
X76238095Y-92230952D01*
X76285714Y-92040476D01*
X76333333Y-91945238D01*
X76428571Y-91850000D01*
X76571428Y-91802380D01*
X76666666Y-91802380D01*
X76809523Y-91850000D01*
X76857142Y-91897619D01*
X77809523Y-92802380D02*
X77238095Y-92802380D01*
X77523809Y-92802380D02*
X77523809Y-91802380D01*
X77428571Y-91945238D01*
X77333333Y-92040476D01*
X77238095Y-92088095D01*
X78428571Y-91802380D02*
X78523809Y-91802380D01*
X78619047Y-91850000D01*
X78666666Y-91897619D01*
X78714285Y-91992857D01*
X78761904Y-92183333D01*
X78761904Y-92421428D01*
X78714285Y-92611904D01*
X78666666Y-92707142D01*
X78619047Y-92754761D01*
X78523809Y-92802380D01*
X78428571Y-92802380D01*
X78333333Y-92754761D01*
X78285714Y-92707142D01*
X78238095Y-92611904D01*
X78190476Y-92421428D01*
X78190476Y-92183333D01*
X78238095Y-91992857D01*
X78285714Y-91897619D01*
X78333333Y-91850000D01*
X78428571Y-91802380D01*
G04 #@! TO.C,C11*
X81357142Y-92707142D02*
X81309523Y-92754761D01*
X81166666Y-92802380D01*
X81071428Y-92802380D01*
X80928571Y-92754761D01*
X80833333Y-92659523D01*
X80785714Y-92564285D01*
X80738095Y-92373809D01*
X80738095Y-92230952D01*
X80785714Y-92040476D01*
X80833333Y-91945238D01*
X80928571Y-91850000D01*
X81071428Y-91802380D01*
X81166666Y-91802380D01*
X81309523Y-91850000D01*
X81357142Y-91897619D01*
X82309523Y-92802380D02*
X81738095Y-92802380D01*
X82023809Y-92802380D02*
X82023809Y-91802380D01*
X81928571Y-91945238D01*
X81833333Y-92040476D01*
X81738095Y-92088095D01*
X83261904Y-92802380D02*
X82690476Y-92802380D01*
X82976190Y-92802380D02*
X82976190Y-91802380D01*
X82880952Y-91945238D01*
X82785714Y-92040476D01*
X82690476Y-92088095D01*
G04 #@! TO.C,Q1*
X75404761Y-64547619D02*
X75309523Y-64500000D01*
X75214285Y-64404761D01*
X75071428Y-64261904D01*
X74976190Y-64214285D01*
X74880952Y-64214285D01*
X74928571Y-64452380D02*
X74833333Y-64404761D01*
X74738095Y-64309523D01*
X74690476Y-64119047D01*
X74690476Y-63785714D01*
X74738095Y-63595238D01*
X74833333Y-63500000D01*
X74928571Y-63452380D01*
X75119047Y-63452380D01*
X75214285Y-63500000D01*
X75309523Y-63595238D01*
X75357142Y-63785714D01*
X75357142Y-64119047D01*
X75309523Y-64309523D01*
X75214285Y-64404761D01*
X75119047Y-64452380D01*
X74928571Y-64452380D01*
X76309523Y-64452380D02*
X75738095Y-64452380D01*
X76023809Y-64452380D02*
X76023809Y-63452380D01*
X75928571Y-63595238D01*
X75833333Y-63690476D01*
X75738095Y-63738095D01*
G04 #@! TO.C,Q2*
X73404761Y-78047619D02*
X73309523Y-78000000D01*
X73214285Y-77904761D01*
X73071428Y-77761904D01*
X72976190Y-77714285D01*
X72880952Y-77714285D01*
X72928571Y-77952380D02*
X72833333Y-77904761D01*
X72738095Y-77809523D01*
X72690476Y-77619047D01*
X72690476Y-77285714D01*
X72738095Y-77095238D01*
X72833333Y-77000000D01*
X72928571Y-76952380D01*
X73119047Y-76952380D01*
X73214285Y-77000000D01*
X73309523Y-77095238D01*
X73357142Y-77285714D01*
X73357142Y-77619047D01*
X73309523Y-77809523D01*
X73214285Y-77904761D01*
X73119047Y-77952380D01*
X72928571Y-77952380D01*
X73738095Y-77047619D02*
X73785714Y-77000000D01*
X73880952Y-76952380D01*
X74119047Y-76952380D01*
X74214285Y-77000000D01*
X74261904Y-77047619D01*
X74309523Y-77142857D01*
X74309523Y-77238095D01*
X74261904Y-77380952D01*
X73690476Y-77952380D01*
X74309523Y-77952380D01*
G04 #@! TO.C,R1*
X86952380Y-93666666D02*
X86476190Y-94000000D01*
X86952380Y-94238095D02*
X85952380Y-94238095D01*
X85952380Y-93857142D01*
X86000000Y-93761904D01*
X86047619Y-93714285D01*
X86142857Y-93666666D01*
X86285714Y-93666666D01*
X86380952Y-93714285D01*
X86428571Y-93761904D01*
X86476190Y-93857142D01*
X86476190Y-94238095D01*
X86952380Y-92714285D02*
X86952380Y-93285714D01*
X86952380Y-93000000D02*
X85952380Y-93000000D01*
X86095238Y-93095238D01*
X86190476Y-93190476D01*
X86238095Y-93285714D01*
G04 #@! TO.C,R2*
X65833333Y-61952380D02*
X65500000Y-61476190D01*
X65261904Y-61952380D02*
X65261904Y-60952380D01*
X65642857Y-60952380D01*
X65738095Y-61000000D01*
X65785714Y-61047619D01*
X65833333Y-61142857D01*
X65833333Y-61285714D01*
X65785714Y-61380952D01*
X65738095Y-61428571D01*
X65642857Y-61476190D01*
X65261904Y-61476190D01*
X66214285Y-61047619D02*
X66261904Y-61000000D01*
X66357142Y-60952380D01*
X66595238Y-60952380D01*
X66690476Y-61000000D01*
X66738095Y-61047619D01*
X66785714Y-61142857D01*
X66785714Y-61238095D01*
X66738095Y-61380952D01*
X66166666Y-61952380D01*
X66785714Y-61952380D01*
G04 #@! TO.C,R3*
X70333333Y-89952380D02*
X70000000Y-89476190D01*
X69761904Y-89952380D02*
X69761904Y-88952380D01*
X70142857Y-88952380D01*
X70238095Y-89000000D01*
X70285714Y-89047619D01*
X70333333Y-89142857D01*
X70333333Y-89285714D01*
X70285714Y-89380952D01*
X70238095Y-89428571D01*
X70142857Y-89476190D01*
X69761904Y-89476190D01*
X70666666Y-88952380D02*
X71285714Y-88952380D01*
X70952380Y-89333333D01*
X71095238Y-89333333D01*
X71190476Y-89380952D01*
X71238095Y-89428571D01*
X71285714Y-89523809D01*
X71285714Y-89761904D01*
X71238095Y-89857142D01*
X71190476Y-89904761D01*
X71095238Y-89952380D01*
X70809523Y-89952380D01*
X70714285Y-89904761D01*
X70666666Y-89857142D01*
G04 #@! TO.C,R4*
X66833333Y-68952380D02*
X66500000Y-68476190D01*
X66261904Y-68952380D02*
X66261904Y-67952380D01*
X66642857Y-67952380D01*
X66738095Y-68000000D01*
X66785714Y-68047619D01*
X66833333Y-68142857D01*
X66833333Y-68285714D01*
X66785714Y-68380952D01*
X66738095Y-68428571D01*
X66642857Y-68476190D01*
X66261904Y-68476190D01*
X67690476Y-68285714D02*
X67690476Y-68952380D01*
X67452380Y-67904761D02*
X67214285Y-68619047D01*
X67833333Y-68619047D01*
G04 #@! TO.C,R5*
X68833333Y-68952380D02*
X68500000Y-68476190D01*
X68261904Y-68952380D02*
X68261904Y-67952380D01*
X68642857Y-67952380D01*
X68738095Y-68000000D01*
X68785714Y-68047619D01*
X68833333Y-68142857D01*
X68833333Y-68285714D01*
X68785714Y-68380952D01*
X68738095Y-68428571D01*
X68642857Y-68476190D01*
X68261904Y-68476190D01*
X69738095Y-67952380D02*
X69261904Y-67952380D01*
X69214285Y-68428571D01*
X69261904Y-68380952D01*
X69357142Y-68333333D01*
X69595238Y-68333333D01*
X69690476Y-68380952D01*
X69738095Y-68428571D01*
X69785714Y-68523809D01*
X69785714Y-68761904D01*
X69738095Y-68857142D01*
X69690476Y-68904761D01*
X69595238Y-68952380D01*
X69357142Y-68952380D01*
X69261904Y-68904761D01*
X69214285Y-68857142D01*
G04 #@! TO.C,R6*
X72333333Y-94952380D02*
X72000000Y-94476190D01*
X71761904Y-94952380D02*
X71761904Y-93952380D01*
X72142857Y-93952380D01*
X72238095Y-94000000D01*
X72285714Y-94047619D01*
X72333333Y-94142857D01*
X72333333Y-94285714D01*
X72285714Y-94380952D01*
X72238095Y-94428571D01*
X72142857Y-94476190D01*
X71761904Y-94476190D01*
X73190476Y-93952380D02*
X73000000Y-93952380D01*
X72904761Y-94000000D01*
X72857142Y-94047619D01*
X72761904Y-94190476D01*
X72714285Y-94380952D01*
X72714285Y-94761904D01*
X72761904Y-94857142D01*
X72809523Y-94904761D01*
X72904761Y-94952380D01*
X73095238Y-94952380D01*
X73190476Y-94904761D01*
X73238095Y-94857142D01*
X73285714Y-94761904D01*
X73285714Y-94523809D01*
X73238095Y-94428571D01*
X73190476Y-94380952D01*
X73095238Y-94333333D01*
X72904761Y-94333333D01*
X72809523Y-94380952D01*
X72761904Y-94428571D01*
X72714285Y-94523809D01*
G04 #@! TO.C,R7*
X70333333Y-81202380D02*
X70000000Y-80726190D01*
X69761904Y-81202380D02*
X69761904Y-80202380D01*
X70142857Y-80202380D01*
X70238095Y-80250000D01*
X70285714Y-80297619D01*
X70333333Y-80392857D01*
X70333333Y-80535714D01*
X70285714Y-80630952D01*
X70238095Y-80678571D01*
X70142857Y-80726190D01*
X69761904Y-80726190D01*
X70666666Y-80202380D02*
X71333333Y-80202380D01*
X70904761Y-81202380D01*
G04 #@! TO.C,R8*
X69833333Y-61952380D02*
X69500000Y-61476190D01*
X69261904Y-61952380D02*
X69261904Y-60952380D01*
X69642857Y-60952380D01*
X69738095Y-61000000D01*
X69785714Y-61047619D01*
X69833333Y-61142857D01*
X69833333Y-61285714D01*
X69785714Y-61380952D01*
X69738095Y-61428571D01*
X69642857Y-61476190D01*
X69261904Y-61476190D01*
X70404761Y-61380952D02*
X70309523Y-61333333D01*
X70261904Y-61285714D01*
X70214285Y-61190476D01*
X70214285Y-61142857D01*
X70261904Y-61047619D01*
X70309523Y-61000000D01*
X70404761Y-60952380D01*
X70595238Y-60952380D01*
X70690476Y-61000000D01*
X70738095Y-61047619D01*
X70785714Y-61142857D01*
X70785714Y-61190476D01*
X70738095Y-61285714D01*
X70690476Y-61333333D01*
X70595238Y-61380952D01*
X70404761Y-61380952D01*
X70309523Y-61428571D01*
X70261904Y-61476190D01*
X70214285Y-61571428D01*
X70214285Y-61761904D01*
X70261904Y-61857142D01*
X70309523Y-61904761D01*
X70404761Y-61952380D01*
X70595238Y-61952380D01*
X70690476Y-61904761D01*
X70738095Y-61857142D01*
X70785714Y-61761904D01*
X70785714Y-61571428D01*
X70738095Y-61476190D01*
X70690476Y-61428571D01*
X70595238Y-61380952D01*
G04 #@! TO.C,R9*
X87452380Y-60166666D02*
X86976190Y-60500000D01*
X87452380Y-60738095D02*
X86452380Y-60738095D01*
X86452380Y-60357142D01*
X86500000Y-60261904D01*
X86547619Y-60214285D01*
X86642857Y-60166666D01*
X86785714Y-60166666D01*
X86880952Y-60214285D01*
X86928571Y-60261904D01*
X86976190Y-60357142D01*
X86976190Y-60738095D01*
X87452380Y-59690476D02*
X87452380Y-59500000D01*
X87404761Y-59404761D01*
X87357142Y-59357142D01*
X87214285Y-59261904D01*
X87023809Y-59214285D01*
X86642857Y-59214285D01*
X86547619Y-59261904D01*
X86500000Y-59309523D01*
X86452380Y-59404761D01*
X86452380Y-59595238D01*
X86500000Y-59690476D01*
X86547619Y-59738095D01*
X86642857Y-59785714D01*
X86880952Y-59785714D01*
X86976190Y-59738095D01*
X87023809Y-59690476D01*
X87071428Y-59595238D01*
X87071428Y-59404761D01*
X87023809Y-59309523D01*
X86976190Y-59261904D01*
X86880952Y-59214285D01*
G04 #@! TO.C,R10*
X93357142Y-64952380D02*
X93023809Y-64476190D01*
X92785714Y-64952380D02*
X92785714Y-63952380D01*
X93166666Y-63952380D01*
X93261904Y-64000000D01*
X93309523Y-64047619D01*
X93357142Y-64142857D01*
X93357142Y-64285714D01*
X93309523Y-64380952D01*
X93261904Y-64428571D01*
X93166666Y-64476190D01*
X92785714Y-64476190D01*
X94309523Y-64952380D02*
X93738095Y-64952380D01*
X94023809Y-64952380D02*
X94023809Y-63952380D01*
X93928571Y-64095238D01*
X93833333Y-64190476D01*
X93738095Y-64238095D01*
X94928571Y-63952380D02*
X95023809Y-63952380D01*
X95119047Y-64000000D01*
X95166666Y-64047619D01*
X95214285Y-64142857D01*
X95261904Y-64333333D01*
X95261904Y-64571428D01*
X95214285Y-64761904D01*
X95166666Y-64857142D01*
X95119047Y-64904761D01*
X95023809Y-64952380D01*
X94928571Y-64952380D01*
X94833333Y-64904761D01*
X94785714Y-64857142D01*
X94738095Y-64761904D01*
X94690476Y-64571428D01*
X94690476Y-64333333D01*
X94738095Y-64142857D01*
X94785714Y-64047619D01*
X94833333Y-64000000D01*
X94928571Y-63952380D01*
G04 #@! TO.C,R11*
X81232142Y-73022380D02*
X80898809Y-72546190D01*
X80660714Y-73022380D02*
X80660714Y-72022380D01*
X81041666Y-72022380D01*
X81136904Y-72070000D01*
X81184523Y-72117619D01*
X81232142Y-72212857D01*
X81232142Y-72355714D01*
X81184523Y-72450952D01*
X81136904Y-72498571D01*
X81041666Y-72546190D01*
X80660714Y-72546190D01*
X82184523Y-73022380D02*
X81613095Y-73022380D01*
X81898809Y-73022380D02*
X81898809Y-72022380D01*
X81803571Y-72165238D01*
X81708333Y-72260476D01*
X81613095Y-72308095D01*
X83136904Y-73022380D02*
X82565476Y-73022380D01*
X82851190Y-73022380D02*
X82851190Y-72022380D01*
X82755952Y-72165238D01*
X82660714Y-72260476D01*
X82565476Y-72308095D01*
G04 #@! TO.C,R12*
X70952380Y-67642857D02*
X70476190Y-67976190D01*
X70952380Y-68214285D02*
X69952380Y-68214285D01*
X69952380Y-67833333D01*
X70000000Y-67738095D01*
X70047619Y-67690476D01*
X70142857Y-67642857D01*
X70285714Y-67642857D01*
X70380952Y-67690476D01*
X70428571Y-67738095D01*
X70476190Y-67833333D01*
X70476190Y-68214285D01*
X70952380Y-66690476D02*
X70952380Y-67261904D01*
X70952380Y-66976190D02*
X69952380Y-66976190D01*
X70095238Y-67071428D01*
X70190476Y-67166666D01*
X70238095Y-67261904D01*
X70047619Y-66309523D02*
X70000000Y-66261904D01*
X69952380Y-66166666D01*
X69952380Y-65928571D01*
X70000000Y-65833333D01*
X70047619Y-65785714D01*
X70142857Y-65738095D01*
X70238095Y-65738095D01*
X70380952Y-65785714D01*
X70952380Y-66357142D01*
X70952380Y-65738095D01*
G04 #@! TO.C,R13*
X93382380Y-60642857D02*
X92906190Y-60976190D01*
X93382380Y-61214285D02*
X92382380Y-61214285D01*
X92382380Y-60833333D01*
X92430000Y-60738095D01*
X92477619Y-60690476D01*
X92572857Y-60642857D01*
X92715714Y-60642857D01*
X92810952Y-60690476D01*
X92858571Y-60738095D01*
X92906190Y-60833333D01*
X92906190Y-61214285D01*
X93382380Y-59690476D02*
X93382380Y-60261904D01*
X93382380Y-59976190D02*
X92382380Y-59976190D01*
X92525238Y-60071428D01*
X92620476Y-60166666D01*
X92668095Y-60261904D01*
X92382380Y-59357142D02*
X92382380Y-58738095D01*
X92763333Y-59071428D01*
X92763333Y-58928571D01*
X92810952Y-58833333D01*
X92858571Y-58785714D01*
X92953809Y-58738095D01*
X93191904Y-58738095D01*
X93287142Y-58785714D01*
X93334761Y-58833333D01*
X93382380Y-58928571D01*
X93382380Y-59214285D01*
X93334761Y-59309523D01*
X93287142Y-59357142D01*
G04 #@! TO.C,R14*
X73952380Y-67642857D02*
X73476190Y-67976190D01*
X73952380Y-68214285D02*
X72952380Y-68214285D01*
X72952380Y-67833333D01*
X73000000Y-67738095D01*
X73047619Y-67690476D01*
X73142857Y-67642857D01*
X73285714Y-67642857D01*
X73380952Y-67690476D01*
X73428571Y-67738095D01*
X73476190Y-67833333D01*
X73476190Y-68214285D01*
X73952380Y-66690476D02*
X73952380Y-67261904D01*
X73952380Y-66976190D02*
X72952380Y-66976190D01*
X73095238Y-67071428D01*
X73190476Y-67166666D01*
X73238095Y-67261904D01*
X73285714Y-65833333D02*
X73952380Y-65833333D01*
X72904761Y-66071428D02*
X73619047Y-66309523D01*
X73619047Y-65690476D01*
G04 #@! TO.C,R15*
X65357142Y-82452380D02*
X65023809Y-81976190D01*
X64785714Y-82452380D02*
X64785714Y-81452380D01*
X65166666Y-81452380D01*
X65261904Y-81500000D01*
X65309523Y-81547619D01*
X65357142Y-81642857D01*
X65357142Y-81785714D01*
X65309523Y-81880952D01*
X65261904Y-81928571D01*
X65166666Y-81976190D01*
X64785714Y-81976190D01*
X66309523Y-82452380D02*
X65738095Y-82452380D01*
X66023809Y-82452380D02*
X66023809Y-81452380D01*
X65928571Y-81595238D01*
X65833333Y-81690476D01*
X65738095Y-81738095D01*
X67214285Y-81452380D02*
X66738095Y-81452380D01*
X66690476Y-81928571D01*
X66738095Y-81880952D01*
X66833333Y-81833333D01*
X67071428Y-81833333D01*
X67166666Y-81880952D01*
X67214285Y-81928571D01*
X67261904Y-82023809D01*
X67261904Y-82261904D01*
X67214285Y-82357142D01*
X67166666Y-82404761D01*
X67071428Y-82452380D01*
X66833333Y-82452380D01*
X66738095Y-82404761D01*
X66690476Y-82357142D01*
G04 #@! TO.C,R16*
X74952380Y-94642857D02*
X74476190Y-94976190D01*
X74952380Y-95214285D02*
X73952380Y-95214285D01*
X73952380Y-94833333D01*
X74000000Y-94738095D01*
X74047619Y-94690476D01*
X74142857Y-94642857D01*
X74285714Y-94642857D01*
X74380952Y-94690476D01*
X74428571Y-94738095D01*
X74476190Y-94833333D01*
X74476190Y-95214285D01*
X74952380Y-93690476D02*
X74952380Y-94261904D01*
X74952380Y-93976190D02*
X73952380Y-93976190D01*
X74095238Y-94071428D01*
X74190476Y-94166666D01*
X74238095Y-94261904D01*
X73952380Y-92833333D02*
X73952380Y-93023809D01*
X74000000Y-93119047D01*
X74047619Y-93166666D01*
X74190476Y-93261904D01*
X74380952Y-93309523D01*
X74761904Y-93309523D01*
X74857142Y-93261904D01*
X74904761Y-93214285D01*
X74952380Y-93119047D01*
X74952380Y-92928571D01*
X74904761Y-92833333D01*
X74857142Y-92785714D01*
X74761904Y-92738095D01*
X74523809Y-92738095D01*
X74428571Y-92785714D01*
X74380952Y-92833333D01*
X74333333Y-92928571D01*
X74333333Y-93119047D01*
X74380952Y-93214285D01*
X74428571Y-93261904D01*
X74523809Y-93309523D01*
G04 #@! TO.C,R17*
X77357142Y-64952380D02*
X77023809Y-64476190D01*
X76785714Y-64952380D02*
X76785714Y-63952380D01*
X77166666Y-63952380D01*
X77261904Y-64000000D01*
X77309523Y-64047619D01*
X77357142Y-64142857D01*
X77357142Y-64285714D01*
X77309523Y-64380952D01*
X77261904Y-64428571D01*
X77166666Y-64476190D01*
X76785714Y-64476190D01*
X78309523Y-64952380D02*
X77738095Y-64952380D01*
X78023809Y-64952380D02*
X78023809Y-63952380D01*
X77928571Y-64095238D01*
X77833333Y-64190476D01*
X77738095Y-64238095D01*
X78642857Y-63952380D02*
X79309523Y-63952380D01*
X78880952Y-64952380D01*
G04 #@! TO.C,R18*
X68857142Y-77952380D02*
X68523809Y-77476190D01*
X68285714Y-77952380D02*
X68285714Y-76952380D01*
X68666666Y-76952380D01*
X68761904Y-77000000D01*
X68809523Y-77047619D01*
X68857142Y-77142857D01*
X68857142Y-77285714D01*
X68809523Y-77380952D01*
X68761904Y-77428571D01*
X68666666Y-77476190D01*
X68285714Y-77476190D01*
X69809523Y-77952380D02*
X69238095Y-77952380D01*
X69523809Y-77952380D02*
X69523809Y-76952380D01*
X69428571Y-77095238D01*
X69333333Y-77190476D01*
X69238095Y-77238095D01*
X70380952Y-77380952D02*
X70285714Y-77333333D01*
X70238095Y-77285714D01*
X70190476Y-77190476D01*
X70190476Y-77142857D01*
X70238095Y-77047619D01*
X70285714Y-77000000D01*
X70380952Y-76952380D01*
X70571428Y-76952380D01*
X70666666Y-77000000D01*
X70714285Y-77047619D01*
X70761904Y-77142857D01*
X70761904Y-77190476D01*
X70714285Y-77285714D01*
X70666666Y-77333333D01*
X70571428Y-77380952D01*
X70380952Y-77380952D01*
X70285714Y-77428571D01*
X70238095Y-77476190D01*
X70190476Y-77571428D01*
X70190476Y-77761904D01*
X70238095Y-77857142D01*
X70285714Y-77904761D01*
X70380952Y-77952380D01*
X70571428Y-77952380D01*
X70666666Y-77904761D01*
X70714285Y-77857142D01*
X70761904Y-77761904D01*
X70761904Y-77571428D01*
X70714285Y-77476190D01*
X70666666Y-77428571D01*
X70571428Y-77380952D01*
G04 #@! TO.C,R19*
X77357142Y-67952380D02*
X77023809Y-67476190D01*
X76785714Y-67952380D02*
X76785714Y-66952380D01*
X77166666Y-66952380D01*
X77261904Y-67000000D01*
X77309523Y-67047619D01*
X77357142Y-67142857D01*
X77357142Y-67285714D01*
X77309523Y-67380952D01*
X77261904Y-67428571D01*
X77166666Y-67476190D01*
X76785714Y-67476190D01*
X78309523Y-67952380D02*
X77738095Y-67952380D01*
X78023809Y-67952380D02*
X78023809Y-66952380D01*
X77928571Y-67095238D01*
X77833333Y-67190476D01*
X77738095Y-67238095D01*
X78785714Y-67952380D02*
X78976190Y-67952380D01*
X79071428Y-67904761D01*
X79119047Y-67857142D01*
X79214285Y-67714285D01*
X79261904Y-67523809D01*
X79261904Y-67142857D01*
X79214285Y-67047619D01*
X79166666Y-67000000D01*
X79071428Y-66952380D01*
X78880952Y-66952380D01*
X78785714Y-67000000D01*
X78738095Y-67047619D01*
X78690476Y-67142857D01*
X78690476Y-67380952D01*
X78738095Y-67476190D01*
X78785714Y-67523809D01*
X78880952Y-67571428D01*
X79071428Y-67571428D01*
X79166666Y-67523809D01*
X79214285Y-67476190D01*
X79261904Y-67380952D01*
G04 #@! TO.C,R20*
X81357142Y-64882380D02*
X81023809Y-64406190D01*
X80785714Y-64882380D02*
X80785714Y-63882380D01*
X81166666Y-63882380D01*
X81261904Y-63930000D01*
X81309523Y-63977619D01*
X81357142Y-64072857D01*
X81357142Y-64215714D01*
X81309523Y-64310952D01*
X81261904Y-64358571D01*
X81166666Y-64406190D01*
X80785714Y-64406190D01*
X81738095Y-63977619D02*
X81785714Y-63930000D01*
X81880952Y-63882380D01*
X82119047Y-63882380D01*
X82214285Y-63930000D01*
X82261904Y-63977619D01*
X82309523Y-64072857D01*
X82309523Y-64168095D01*
X82261904Y-64310952D01*
X81690476Y-64882380D01*
X82309523Y-64882380D01*
X82928571Y-63882380D02*
X83023809Y-63882380D01*
X83119047Y-63930000D01*
X83166666Y-63977619D01*
X83214285Y-64072857D01*
X83261904Y-64263333D01*
X83261904Y-64501428D01*
X83214285Y-64691904D01*
X83166666Y-64787142D01*
X83119047Y-64834761D01*
X83023809Y-64882380D01*
X82928571Y-64882380D01*
X82833333Y-64834761D01*
X82785714Y-64787142D01*
X82738095Y-64691904D01*
X82690476Y-64501428D01*
X82690476Y-64263333D01*
X82738095Y-64072857D01*
X82785714Y-63977619D01*
X82833333Y-63930000D01*
X82928571Y-63882380D01*
G04 #@! TO.C,R21*
X81357142Y-67952380D02*
X81023809Y-67476190D01*
X80785714Y-67952380D02*
X80785714Y-66952380D01*
X81166666Y-66952380D01*
X81261904Y-67000000D01*
X81309523Y-67047619D01*
X81357142Y-67142857D01*
X81357142Y-67285714D01*
X81309523Y-67380952D01*
X81261904Y-67428571D01*
X81166666Y-67476190D01*
X80785714Y-67476190D01*
X81738095Y-67047619D02*
X81785714Y-67000000D01*
X81880952Y-66952380D01*
X82119047Y-66952380D01*
X82214285Y-67000000D01*
X82261904Y-67047619D01*
X82309523Y-67142857D01*
X82309523Y-67238095D01*
X82261904Y-67380952D01*
X81690476Y-67952380D01*
X82309523Y-67952380D01*
X83261904Y-67952380D02*
X82690476Y-67952380D01*
X82976190Y-67952380D02*
X82976190Y-66952380D01*
X82880952Y-67095238D01*
X82785714Y-67190476D01*
X82690476Y-67238095D01*
G04 #@! TO.C,R23*
X72952380Y-89642857D02*
X72476190Y-89976190D01*
X72952380Y-90214285D02*
X71952380Y-90214285D01*
X71952380Y-89833333D01*
X72000000Y-89738095D01*
X72047619Y-89690476D01*
X72142857Y-89642857D01*
X72285714Y-89642857D01*
X72380952Y-89690476D01*
X72428571Y-89738095D01*
X72476190Y-89833333D01*
X72476190Y-90214285D01*
X72047619Y-89261904D02*
X72000000Y-89214285D01*
X71952380Y-89119047D01*
X71952380Y-88880952D01*
X72000000Y-88785714D01*
X72047619Y-88738095D01*
X72142857Y-88690476D01*
X72238095Y-88690476D01*
X72380952Y-88738095D01*
X72952380Y-89309523D01*
X72952380Y-88690476D01*
X71952380Y-88357142D02*
X71952380Y-87738095D01*
X72333333Y-88071428D01*
X72333333Y-87928571D01*
X72380952Y-87833333D01*
X72428571Y-87785714D01*
X72523809Y-87738095D01*
X72761904Y-87738095D01*
X72857142Y-87785714D01*
X72904761Y-87833333D01*
X72952380Y-87928571D01*
X72952380Y-88214285D01*
X72904761Y-88309523D01*
X72857142Y-88357142D01*
G04 #@! TO.C,R24*
X67857142Y-51522380D02*
X67523809Y-51046190D01*
X67285714Y-51522380D02*
X67285714Y-50522380D01*
X67666666Y-50522380D01*
X67761904Y-50570000D01*
X67809523Y-50617619D01*
X67857142Y-50712857D01*
X67857142Y-50855714D01*
X67809523Y-50950952D01*
X67761904Y-50998571D01*
X67666666Y-51046190D01*
X67285714Y-51046190D01*
X68238095Y-50617619D02*
X68285714Y-50570000D01*
X68380952Y-50522380D01*
X68619047Y-50522380D01*
X68714285Y-50570000D01*
X68761904Y-50617619D01*
X68809523Y-50712857D01*
X68809523Y-50808095D01*
X68761904Y-50950952D01*
X68190476Y-51522380D01*
X68809523Y-51522380D01*
X69666666Y-50855714D02*
X69666666Y-51522380D01*
X69428571Y-50474761D02*
X69190476Y-51189047D01*
X69809523Y-51189047D01*
G04 #@! TO.C,R25*
X67357142Y-48522380D02*
X67023809Y-48046190D01*
X66785714Y-48522380D02*
X66785714Y-47522380D01*
X67166666Y-47522380D01*
X67261904Y-47570000D01*
X67309523Y-47617619D01*
X67357142Y-47712857D01*
X67357142Y-47855714D01*
X67309523Y-47950952D01*
X67261904Y-47998571D01*
X67166666Y-48046190D01*
X66785714Y-48046190D01*
X67738095Y-47617619D02*
X67785714Y-47570000D01*
X67880952Y-47522380D01*
X68119047Y-47522380D01*
X68214285Y-47570000D01*
X68261904Y-47617619D01*
X68309523Y-47712857D01*
X68309523Y-47808095D01*
X68261904Y-47950952D01*
X67690476Y-48522380D01*
X68309523Y-48522380D01*
X69214285Y-47522380D02*
X68738095Y-47522380D01*
X68690476Y-47998571D01*
X68738095Y-47950952D01*
X68833333Y-47903333D01*
X69071428Y-47903333D01*
X69166666Y-47950952D01*
X69214285Y-47998571D01*
X69261904Y-48093809D01*
X69261904Y-48331904D01*
X69214285Y-48427142D01*
X69166666Y-48474761D01*
X69071428Y-48522380D01*
X68833333Y-48522380D01*
X68738095Y-48474761D01*
X68690476Y-48427142D01*
G04 #@! TO.C,R26*
X76857142Y-89952380D02*
X76523809Y-89476190D01*
X76285714Y-89952380D02*
X76285714Y-88952380D01*
X76666666Y-88952380D01*
X76761904Y-89000000D01*
X76809523Y-89047619D01*
X76857142Y-89142857D01*
X76857142Y-89285714D01*
X76809523Y-89380952D01*
X76761904Y-89428571D01*
X76666666Y-89476190D01*
X76285714Y-89476190D01*
X77238095Y-89047619D02*
X77285714Y-89000000D01*
X77380952Y-88952380D01*
X77619047Y-88952380D01*
X77714285Y-89000000D01*
X77761904Y-89047619D01*
X77809523Y-89142857D01*
X77809523Y-89238095D01*
X77761904Y-89380952D01*
X77190476Y-89952380D01*
X77809523Y-89952380D01*
X78666666Y-88952380D02*
X78476190Y-88952380D01*
X78380952Y-89000000D01*
X78333333Y-89047619D01*
X78238095Y-89190476D01*
X78190476Y-89380952D01*
X78190476Y-89761904D01*
X78238095Y-89857142D01*
X78285714Y-89904761D01*
X78380952Y-89952380D01*
X78571428Y-89952380D01*
X78666666Y-89904761D01*
X78714285Y-89857142D01*
X78761904Y-89761904D01*
X78761904Y-89523809D01*
X78714285Y-89428571D01*
X78666666Y-89380952D01*
X78571428Y-89333333D01*
X78380952Y-89333333D01*
X78285714Y-89380952D01*
X78238095Y-89428571D01*
X78190476Y-89523809D01*
G04 #@! TO.C,R27*
X81357142Y-89952380D02*
X81023809Y-89476190D01*
X80785714Y-89952380D02*
X80785714Y-88952380D01*
X81166666Y-88952380D01*
X81261904Y-89000000D01*
X81309523Y-89047619D01*
X81357142Y-89142857D01*
X81357142Y-89285714D01*
X81309523Y-89380952D01*
X81261904Y-89428571D01*
X81166666Y-89476190D01*
X80785714Y-89476190D01*
X81738095Y-89047619D02*
X81785714Y-89000000D01*
X81880952Y-88952380D01*
X82119047Y-88952380D01*
X82214285Y-89000000D01*
X82261904Y-89047619D01*
X82309523Y-89142857D01*
X82309523Y-89238095D01*
X82261904Y-89380952D01*
X81690476Y-89952380D01*
X82309523Y-89952380D01*
X82642857Y-88952380D02*
X83309523Y-88952380D01*
X82880952Y-89952380D01*
G04 #@! TO.C,R29*
X85357142Y-50952380D02*
X85023809Y-50476190D01*
X84785714Y-50952380D02*
X84785714Y-49952380D01*
X85166666Y-49952380D01*
X85261904Y-50000000D01*
X85309523Y-50047619D01*
X85357142Y-50142857D01*
X85357142Y-50285714D01*
X85309523Y-50380952D01*
X85261904Y-50428571D01*
X85166666Y-50476190D01*
X84785714Y-50476190D01*
X85738095Y-50047619D02*
X85785714Y-50000000D01*
X85880952Y-49952380D01*
X86119047Y-49952380D01*
X86214285Y-50000000D01*
X86261904Y-50047619D01*
X86309523Y-50142857D01*
X86309523Y-50238095D01*
X86261904Y-50380952D01*
X85690476Y-50952380D01*
X86309523Y-50952380D01*
X86785714Y-50952380D02*
X86976190Y-50952380D01*
X87071428Y-50904761D01*
X87119047Y-50857142D01*
X87214285Y-50714285D01*
X87261904Y-50523809D01*
X87261904Y-50142857D01*
X87214285Y-50047619D01*
X87166666Y-50000000D01*
X87071428Y-49952380D01*
X86880952Y-49952380D01*
X86785714Y-50000000D01*
X86738095Y-50047619D01*
X86690476Y-50142857D01*
X86690476Y-50380952D01*
X86738095Y-50476190D01*
X86785714Y-50523809D01*
X86880952Y-50571428D01*
X87071428Y-50571428D01*
X87166666Y-50523809D01*
X87214285Y-50476190D01*
X87261904Y-50380952D01*
G04 #@! TD*
M02*
