G04 #@! TF.GenerationSoftware,KiCad,Pcbnew,(5.1.2-1)-1*
G04 #@! TF.CreationDate,2019-12-27T23:22:22-07:00*
G04 #@! TF.ProjectId,NuisanceEngine,4e756973-616e-4636-9545-6e67696e652e,rev?*
G04 #@! TF.SameCoordinates,Original*
G04 #@! TF.FileFunction,Copper,L2,Bot*
G04 #@! TF.FilePolarity,Positive*
%FSLAX46Y46*%
G04 Gerber Fmt 4.6, Leading zero omitted, Abs format (unit mm)*
G04 Created by KiCad (PCBNEW (5.1.2-1)-1) date 2019-12-27 23:22:22*
%MOMM*%
%LPD*%
G04 APERTURE LIST*
%ADD10C,3.000000*%
%ADD11C,1.800000*%
%ADD12C,3.200000*%
%ADD13O,2.200000X2.200000*%
%ADD14R,2.200000X2.200000*%
%ADD15O,2.000000X1.905000*%
%ADD16R,2.000000X1.905000*%
%ADD17R,1.900000X2.000000*%
%ADD18C,1.900000*%
%ADD19C,2.262000*%
%ADD20C,1.620000*%
%ADD21O,1.700000X1.700000*%
%ADD22R,1.700000X1.700000*%
%ADD23R,1.600000X1.600000*%
%ADD24C,1.600000*%
%ADD25C,0.600000*%
%ADD26C,1.000000*%
%ADD27C,0.500000*%
%ADD28C,0.250000*%
%ADD29C,0.254000*%
G04 APERTURE END LIST*
D10*
X63400000Y-55500000D03*
X54600000Y-55500000D03*
D11*
X61500000Y-62500000D03*
X59000000Y-62500000D03*
X56500000Y-62500000D03*
D10*
X63400000Y-82500000D03*
X54600000Y-82500000D03*
D11*
X61500000Y-89500000D03*
X59000000Y-89500000D03*
X56500000Y-89500000D03*
D10*
X105400000Y-82500000D03*
X96600000Y-82500000D03*
D11*
X103500000Y-89500000D03*
X101000000Y-89500000D03*
X98500000Y-89500000D03*
D10*
X105400000Y-55500000D03*
X96600000Y-55500000D03*
D11*
X103500000Y-62500000D03*
X101000000Y-62500000D03*
X98500000Y-62500000D03*
D12*
X80000000Y-86700000D03*
X80000000Y-82000000D03*
X80000000Y-77300000D03*
D13*
X83120000Y-63500000D03*
D14*
X75500000Y-63500000D03*
D15*
X68500000Y-55580000D03*
X68500000Y-53040000D03*
D16*
X68500000Y-50500000D03*
D15*
X74000000Y-55580000D03*
X74000000Y-53040000D03*
D16*
X74000000Y-50500000D03*
D12*
X106150000Y-87350000D03*
X106150000Y-74650000D03*
D17*
X90000000Y-55000000D03*
D18*
X87460000Y-55000000D03*
D19*
X88500000Y-92000000D03*
X88500000Y-64000000D03*
D20*
X103500000Y-59500000D03*
X101000000Y-54500000D03*
X98500000Y-59500000D03*
D12*
X80000000Y-59700000D03*
X80000000Y-55000000D03*
X80000000Y-50300000D03*
D21*
X78540000Y-98000000D03*
D22*
X76000000Y-98000000D03*
D21*
X73080000Y-98000000D03*
X70540000Y-98000000D03*
D22*
X68000000Y-98000000D03*
X81460000Y-98000000D03*
D21*
X84000000Y-98000000D03*
X86540000Y-98000000D03*
D22*
X89500000Y-98000000D03*
D21*
X92040000Y-98000000D03*
D23*
X69500000Y-60750000D03*
D24*
X69500000Y-63250000D03*
D25*
X67250000Y-80250000D03*
X67250000Y-83750000D03*
X71000000Y-71750000D03*
X70250000Y-71750000D03*
X71250000Y-93000000D03*
X71250000Y-92250000D03*
X84000000Y-72250000D03*
X84000000Y-71500000D03*
X87000000Y-76000000D03*
X88000000Y-76000000D03*
X89000000Y-76000000D03*
X90000000Y-76000000D03*
X89000000Y-77000000D03*
X90000000Y-77000000D03*
X87000000Y-77000000D03*
X88000000Y-77000000D03*
X87000000Y-78000000D03*
X88000000Y-78000000D03*
X89000000Y-78000000D03*
X90000000Y-78000000D03*
X86000000Y-95750000D03*
X86250000Y-95000000D03*
X60000000Y-64250000D03*
X64000000Y-62250000D03*
X71750000Y-67250000D03*
X67125000Y-86875000D03*
X67000000Y-78000000D03*
X72500000Y-74000000D03*
X71400000Y-85000000D03*
X58400000Y-70150000D03*
D26*
X92500000Y-81000000D02*
X98850000Y-74650000D01*
X98850000Y-74650000D02*
X106900000Y-74650000D01*
X92500000Y-92040000D02*
X92500000Y-81000000D01*
X86540000Y-98000000D02*
X92500000Y-92040000D01*
D27*
X103449999Y-88177207D02*
X103500000Y-88227208D01*
X103500000Y-88227208D02*
X103500000Y-89500000D01*
X103449999Y-81563999D02*
X103449999Y-88177207D01*
X104786002Y-52000000D02*
X106500000Y-52000000D01*
X100786002Y-48000000D02*
X104786002Y-52000000D01*
X59500000Y-48000000D02*
X100786002Y-48000000D01*
X56500000Y-51000000D02*
X59500000Y-48000000D01*
X55000000Y-51000000D02*
X56500000Y-51000000D01*
X108200001Y-76813997D02*
X103449999Y-81563999D01*
X108200001Y-53700001D02*
X108200001Y-76813997D01*
X106500000Y-52000000D02*
X108200001Y-53700001D01*
X55000000Y-51000000D02*
X52000000Y-54000000D01*
X52000000Y-85000000D02*
X56500000Y-89500000D01*
X52000000Y-54000000D02*
X52000000Y-85000000D01*
D28*
X67000000Y-86750000D02*
X67125000Y-86875000D01*
X66000000Y-85750000D02*
X66000000Y-79000000D01*
X66700001Y-78299999D02*
X67000000Y-78000000D01*
X66000000Y-79000000D02*
X66700001Y-78299999D01*
X67125000Y-86875000D02*
X66000000Y-85750000D01*
D26*
X74000000Y-50500000D02*
X68500000Y-50500000D01*
X74000000Y-55580000D02*
X68500000Y-55580000D01*
X68500000Y-59750000D02*
X69500000Y-60750000D01*
X68500000Y-55580000D02*
X68500000Y-59750000D01*
X75250000Y-77250000D02*
X75250000Y-72500000D01*
X75250000Y-77250000D02*
X80000000Y-82000000D01*
X69500000Y-63250000D02*
X69500000Y-66750000D01*
X75250000Y-72500000D02*
X69500000Y-66750000D01*
X76049990Y-55042490D02*
X76049990Y-60350010D01*
X74047500Y-53040000D02*
X76049990Y-55042490D01*
X75000000Y-61400000D02*
X75000000Y-63500000D01*
X76049990Y-60350010D02*
X75000000Y-61400000D01*
X74000000Y-53040000D02*
X74047500Y-53040000D01*
D28*
X72500000Y-83900000D02*
X72500000Y-83700000D01*
X71400000Y-85000000D02*
X72500000Y-83900000D01*
X72500000Y-83700000D02*
X72500000Y-74000000D01*
X69800000Y-89260000D02*
X69800000Y-76600000D01*
X71740000Y-91200000D02*
X69800000Y-89260000D01*
X74000000Y-91200000D02*
X71740000Y-91200000D01*
X78540000Y-95740000D02*
X74000000Y-91200000D01*
X78540000Y-98000000D02*
X78540000Y-95740000D01*
X63350000Y-70150000D02*
X58400000Y-70150000D01*
X69800000Y-76600000D02*
X63350000Y-70150000D01*
D26*
X82450000Y-59700000D02*
X80000000Y-59700000D01*
X85500000Y-73000000D02*
X85500000Y-62750000D01*
X84000000Y-74500000D02*
X85500000Y-73000000D01*
X85500000Y-62750000D02*
X82450000Y-59700000D01*
X84000000Y-98000000D02*
X84000000Y-74500000D01*
D29*
G36*
X78019369Y-49241331D02*
G01*
X77850890Y-49648075D01*
X77765000Y-50079872D01*
X77765000Y-50520128D01*
X77850890Y-50951925D01*
X78019369Y-51358669D01*
X78263962Y-51724729D01*
X78575271Y-52036038D01*
X78941331Y-52280631D01*
X79348075Y-52449110D01*
X79779872Y-52535000D01*
X80220128Y-52535000D01*
X80651925Y-52449110D01*
X81058669Y-52280631D01*
X81424729Y-52036038D01*
X81736038Y-51724729D01*
X81980631Y-51358669D01*
X82149110Y-50951925D01*
X82235000Y-50520128D01*
X82235000Y-50079872D01*
X82149110Y-49648075D01*
X81980631Y-49241331D01*
X81742539Y-48885000D01*
X100419424Y-48885000D01*
X104129472Y-52595049D01*
X104157185Y-52628817D01*
X104190953Y-52656530D01*
X104190955Y-52656532D01*
X104203735Y-52667020D01*
X104291943Y-52739411D01*
X104445689Y-52821589D01*
X104612512Y-52872195D01*
X104742525Y-52885000D01*
X104742535Y-52885000D01*
X104786001Y-52889281D01*
X104829467Y-52885000D01*
X106133422Y-52885000D01*
X107315001Y-54066580D01*
X107315001Y-54544198D01*
X107292012Y-54488698D01*
X107058363Y-54139017D01*
X106760983Y-53841637D01*
X106411302Y-53607988D01*
X106022756Y-53447047D01*
X105610279Y-53365000D01*
X105189721Y-53365000D01*
X104777244Y-53447047D01*
X104388698Y-53607988D01*
X104039017Y-53841637D01*
X103741637Y-54139017D01*
X103507988Y-54488698D01*
X103347047Y-54877244D01*
X103265000Y-55289721D01*
X103265000Y-55710279D01*
X103347047Y-56122756D01*
X103507988Y-56511302D01*
X103741637Y-56860983D01*
X104039017Y-57158363D01*
X104388698Y-57392012D01*
X104777244Y-57552953D01*
X105189721Y-57635000D01*
X105610279Y-57635000D01*
X106022756Y-57552953D01*
X106411302Y-57392012D01*
X106760983Y-57158363D01*
X107058363Y-56860983D01*
X107292012Y-56511302D01*
X107315001Y-56455801D01*
X107315002Y-72740418D01*
X107208669Y-72669369D01*
X106801925Y-72500890D01*
X106370128Y-72415000D01*
X105929872Y-72415000D01*
X105498075Y-72500890D01*
X105091331Y-72669369D01*
X104725271Y-72913962D01*
X104413962Y-73225271D01*
X104220372Y-73515000D01*
X98905751Y-73515000D01*
X98849999Y-73509509D01*
X98627500Y-73531423D01*
X98577705Y-73546529D01*
X98413553Y-73596324D01*
X98216377Y-73701716D01*
X98043551Y-73843551D01*
X98008009Y-73886859D01*
X91736860Y-80158009D01*
X91693552Y-80193551D01*
X91551717Y-80366377D01*
X91508598Y-80447047D01*
X91446324Y-80563554D01*
X91381423Y-80777502D01*
X91359509Y-81000000D01*
X91365001Y-81055761D01*
X91365000Y-91569868D01*
X89997864Y-92937004D01*
X90065009Y-92836515D01*
X90198134Y-92515123D01*
X90266000Y-92173936D01*
X90266000Y-91826064D01*
X90198134Y-91484877D01*
X90065009Y-91163485D01*
X89871742Y-90874241D01*
X89625759Y-90628258D01*
X89336515Y-90434991D01*
X89015123Y-90301866D01*
X88673936Y-90234000D01*
X88326064Y-90234000D01*
X87984877Y-90301866D01*
X87663485Y-90434991D01*
X87374241Y-90628258D01*
X87128258Y-90874241D01*
X86934991Y-91163485D01*
X86801866Y-91484877D01*
X86734000Y-91826064D01*
X86734000Y-92173936D01*
X86801866Y-92515123D01*
X86934991Y-92836515D01*
X87128258Y-93125759D01*
X87374241Y-93371742D01*
X87663485Y-93565009D01*
X87984877Y-93698134D01*
X88326064Y-93766000D01*
X88673936Y-93766000D01*
X89015123Y-93698134D01*
X89336515Y-93565009D01*
X89437004Y-93497864D01*
X86414714Y-96520155D01*
X86248889Y-96536487D01*
X85968966Y-96621401D01*
X85710986Y-96759294D01*
X85484866Y-96944866D01*
X85299294Y-97170986D01*
X85270000Y-97225791D01*
X85240706Y-97170986D01*
X85135000Y-97042183D01*
X85135000Y-74970131D01*
X86263140Y-73841992D01*
X86306449Y-73806449D01*
X86448284Y-73633623D01*
X86553676Y-73436447D01*
X86618577Y-73222499D01*
X86635000Y-73055752D01*
X86635000Y-73055743D01*
X86640490Y-73000001D01*
X86635000Y-72944259D01*
X86635000Y-65228807D01*
X87450798Y-65228807D01*
X87562369Y-65506605D01*
X87874309Y-65660579D01*
X88210294Y-65750737D01*
X88557413Y-65773616D01*
X88902325Y-65728336D01*
X89231776Y-65616637D01*
X89437631Y-65506605D01*
X89549202Y-65228807D01*
X88500000Y-64179605D01*
X87450798Y-65228807D01*
X86635000Y-65228807D01*
X86635000Y-64057413D01*
X86726384Y-64057413D01*
X86771664Y-64402325D01*
X86883363Y-64731776D01*
X86993395Y-64937631D01*
X87271193Y-65049202D01*
X88320395Y-64000000D01*
X88679605Y-64000000D01*
X89728807Y-65049202D01*
X90006605Y-64937631D01*
X90160579Y-64625691D01*
X90250737Y-64289706D01*
X90273616Y-63942587D01*
X90228336Y-63597675D01*
X90116637Y-63268224D01*
X90006605Y-63062369D01*
X89728807Y-62950798D01*
X88679605Y-64000000D01*
X88320395Y-64000000D01*
X87271193Y-62950798D01*
X86993395Y-63062369D01*
X86839421Y-63374309D01*
X86749263Y-63710294D01*
X86726384Y-64057413D01*
X86635000Y-64057413D01*
X86635000Y-62805741D01*
X86638402Y-62771193D01*
X87450798Y-62771193D01*
X88500000Y-63820395D01*
X89549202Y-62771193D01*
X89437631Y-62493395D01*
X89144725Y-62348816D01*
X96965000Y-62348816D01*
X96965000Y-62651184D01*
X97023989Y-62947743D01*
X97139701Y-63227095D01*
X97307688Y-63478505D01*
X97521495Y-63692312D01*
X97772905Y-63860299D01*
X98052257Y-63976011D01*
X98348816Y-64035000D01*
X98651184Y-64035000D01*
X98947743Y-63976011D01*
X99227095Y-63860299D01*
X99478505Y-63692312D01*
X99692312Y-63478505D01*
X99750000Y-63392169D01*
X99807688Y-63478505D01*
X100021495Y-63692312D01*
X100272905Y-63860299D01*
X100552257Y-63976011D01*
X100848816Y-64035000D01*
X101151184Y-64035000D01*
X101447743Y-63976011D01*
X101727095Y-63860299D01*
X101978505Y-63692312D01*
X102192312Y-63478505D01*
X102250000Y-63392169D01*
X102307688Y-63478505D01*
X102521495Y-63692312D01*
X102772905Y-63860299D01*
X103052257Y-63976011D01*
X103348816Y-64035000D01*
X103651184Y-64035000D01*
X103947743Y-63976011D01*
X104227095Y-63860299D01*
X104478505Y-63692312D01*
X104692312Y-63478505D01*
X104860299Y-63227095D01*
X104976011Y-62947743D01*
X105035000Y-62651184D01*
X105035000Y-62348816D01*
X104976011Y-62052257D01*
X104860299Y-61772905D01*
X104692312Y-61521495D01*
X104478505Y-61307688D01*
X104227095Y-61139701D01*
X103947743Y-61023989D01*
X103651184Y-60965000D01*
X103348816Y-60965000D01*
X103052257Y-61023989D01*
X102772905Y-61139701D01*
X102521495Y-61307688D01*
X102307688Y-61521495D01*
X102250000Y-61607831D01*
X102192312Y-61521495D01*
X101978505Y-61307688D01*
X101727095Y-61139701D01*
X101447743Y-61023989D01*
X101151184Y-60965000D01*
X100848816Y-60965000D01*
X100552257Y-61023989D01*
X100272905Y-61139701D01*
X100021495Y-61307688D01*
X99807688Y-61521495D01*
X99750000Y-61607831D01*
X99692312Y-61521495D01*
X99478505Y-61307688D01*
X99227095Y-61139701D01*
X98947743Y-61023989D01*
X98651184Y-60965000D01*
X98348816Y-60965000D01*
X98052257Y-61023989D01*
X97772905Y-61139701D01*
X97521495Y-61307688D01*
X97307688Y-61521495D01*
X97139701Y-61772905D01*
X97023989Y-62052257D01*
X96965000Y-62348816D01*
X89144725Y-62348816D01*
X89125691Y-62339421D01*
X88789706Y-62249263D01*
X88442587Y-62226384D01*
X88097675Y-62271664D01*
X87768224Y-62383363D01*
X87562369Y-62493395D01*
X87450798Y-62771193D01*
X86638402Y-62771193D01*
X86640490Y-62749999D01*
X86635000Y-62694257D01*
X86635000Y-62694248D01*
X86618577Y-62527501D01*
X86553676Y-62313553D01*
X86448284Y-62116377D01*
X86306449Y-61943551D01*
X86263141Y-61908009D01*
X84854975Y-60499843D01*
X97679762Y-60499843D01*
X97752556Y-60744832D01*
X98009773Y-60866733D01*
X98285829Y-60936110D01*
X98570115Y-60950298D01*
X98851706Y-60908752D01*
X99119783Y-60813068D01*
X99247444Y-60744832D01*
X99320238Y-60499843D01*
X98500000Y-59679605D01*
X97679762Y-60499843D01*
X84854975Y-60499843D01*
X83925247Y-59570115D01*
X97049702Y-59570115D01*
X97091248Y-59851706D01*
X97186932Y-60119783D01*
X97255168Y-60247444D01*
X97500157Y-60320238D01*
X98320395Y-59500000D01*
X98679605Y-59500000D01*
X99499843Y-60320238D01*
X99744832Y-60247444D01*
X99866733Y-59990227D01*
X99936110Y-59714171D01*
X99950298Y-59429885D01*
X99939645Y-59357680D01*
X102055000Y-59357680D01*
X102055000Y-59642320D01*
X102110530Y-59921491D01*
X102219457Y-60184464D01*
X102377595Y-60421134D01*
X102578866Y-60622405D01*
X102815536Y-60780543D01*
X103078509Y-60889470D01*
X103357680Y-60945000D01*
X103642320Y-60945000D01*
X103921491Y-60889470D01*
X104184464Y-60780543D01*
X104421134Y-60622405D01*
X104622405Y-60421134D01*
X104780543Y-60184464D01*
X104889470Y-59921491D01*
X104945000Y-59642320D01*
X104945000Y-59357680D01*
X104889470Y-59078509D01*
X104780543Y-58815536D01*
X104622405Y-58578866D01*
X104421134Y-58377595D01*
X104184464Y-58219457D01*
X103921491Y-58110530D01*
X103642320Y-58055000D01*
X103357680Y-58055000D01*
X103078509Y-58110530D01*
X102815536Y-58219457D01*
X102578866Y-58377595D01*
X102377595Y-58578866D01*
X102219457Y-58815536D01*
X102110530Y-59078509D01*
X102055000Y-59357680D01*
X99939645Y-59357680D01*
X99908752Y-59148294D01*
X99813068Y-58880217D01*
X99744832Y-58752556D01*
X99499843Y-58679762D01*
X98679605Y-59500000D01*
X98320395Y-59500000D01*
X97500157Y-58679762D01*
X97255168Y-58752556D01*
X97133267Y-59009773D01*
X97063890Y-59285829D01*
X97049702Y-59570115D01*
X83925247Y-59570115D01*
X83291996Y-58936865D01*
X83256449Y-58893551D01*
X83083623Y-58751716D01*
X82886447Y-58646324D01*
X82672499Y-58581423D01*
X82505752Y-58565000D01*
X82505751Y-58565000D01*
X82450000Y-58559509D01*
X82394249Y-58565000D01*
X81929628Y-58565000D01*
X81886302Y-58500157D01*
X97679762Y-58500157D01*
X98500000Y-59320395D01*
X99320238Y-58500157D01*
X99247444Y-58255168D01*
X98990227Y-58133267D01*
X98714171Y-58063890D01*
X98429885Y-58049702D01*
X98148294Y-58091248D01*
X97880217Y-58186932D01*
X97752556Y-58255168D01*
X97679762Y-58500157D01*
X81886302Y-58500157D01*
X81736038Y-58275271D01*
X81424729Y-57963962D01*
X81058669Y-57719369D01*
X80651925Y-57550890D01*
X80220128Y-57465000D01*
X79779872Y-57465000D01*
X79348075Y-57550890D01*
X78941331Y-57719369D01*
X78575271Y-57963962D01*
X78263962Y-58275271D01*
X78019369Y-58641331D01*
X77850890Y-59048075D01*
X77765000Y-59479872D01*
X77765000Y-59920128D01*
X77850890Y-60351925D01*
X78019369Y-60758669D01*
X78263962Y-61124729D01*
X78575271Y-61436038D01*
X78941331Y-61680631D01*
X79348075Y-61849110D01*
X79779872Y-61935000D01*
X80220128Y-61935000D01*
X80651925Y-61849110D01*
X81058669Y-61680631D01*
X81424729Y-61436038D01*
X81736038Y-61124729D01*
X81929628Y-60835000D01*
X81979869Y-60835000D01*
X82921068Y-61776199D01*
X82779881Y-61790105D01*
X82452832Y-61889314D01*
X82151422Y-62050421D01*
X81887234Y-62267234D01*
X81670421Y-62531422D01*
X81509314Y-62832832D01*
X81410105Y-63159881D01*
X81376606Y-63500000D01*
X81410105Y-63840119D01*
X81509314Y-64167168D01*
X81670421Y-64468578D01*
X81887234Y-64732766D01*
X82151422Y-64949579D01*
X82452832Y-65110686D01*
X82779881Y-65209895D01*
X83034775Y-65235000D01*
X83205225Y-65235000D01*
X83460119Y-65209895D01*
X83787168Y-65110686D01*
X84088578Y-64949579D01*
X84352766Y-64732766D01*
X84365001Y-64717858D01*
X84365000Y-72529868D01*
X83236860Y-73658009D01*
X83193552Y-73693551D01*
X83051717Y-73866377D01*
X83029517Y-73907911D01*
X82946324Y-74063554D01*
X82881423Y-74277502D01*
X82859509Y-74500000D01*
X82865001Y-74555762D01*
X82865000Y-96841272D01*
X82840537Y-96795506D01*
X82761185Y-96698815D01*
X82664494Y-96619463D01*
X82554180Y-96560498D01*
X82434482Y-96524188D01*
X82310000Y-96511928D01*
X81745750Y-96515000D01*
X81587000Y-96673750D01*
X81587000Y-97873000D01*
X81607000Y-97873000D01*
X81607000Y-98127000D01*
X81587000Y-98127000D01*
X81587000Y-98147000D01*
X81333000Y-98147000D01*
X81333000Y-98127000D01*
X81313000Y-98127000D01*
X81313000Y-97873000D01*
X81333000Y-97873000D01*
X81333000Y-96673750D01*
X81174250Y-96515000D01*
X80610000Y-96511928D01*
X80485518Y-96524188D01*
X80365820Y-96560498D01*
X80255506Y-96619463D01*
X80158815Y-96698815D01*
X80079463Y-96795506D01*
X80020498Y-96905820D01*
X79984188Y-97025518D01*
X79971928Y-97150000D01*
X79974449Y-97613079D01*
X79918599Y-97428966D01*
X79780706Y-97170986D01*
X79595134Y-96944866D01*
X79369014Y-96759294D01*
X79300000Y-96722405D01*
X79300000Y-95777333D01*
X79303677Y-95740000D01*
X79289003Y-95591014D01*
X79245546Y-95447753D01*
X79174974Y-95315724D01*
X79103799Y-95228997D01*
X79080001Y-95199999D01*
X79051003Y-95176201D01*
X74563804Y-90689003D01*
X74540001Y-90659999D01*
X74424276Y-90565026D01*
X74292247Y-90494454D01*
X74148986Y-90450997D01*
X74037333Y-90440000D01*
X74037322Y-90440000D01*
X74000000Y-90436324D01*
X73962678Y-90440000D01*
X72054802Y-90440000D01*
X70560000Y-88945199D01*
X70560000Y-86479872D01*
X77765000Y-86479872D01*
X77765000Y-86920128D01*
X77850890Y-87351925D01*
X78019369Y-87758669D01*
X78263962Y-88124729D01*
X78575271Y-88436038D01*
X78941331Y-88680631D01*
X79348075Y-88849110D01*
X79779872Y-88935000D01*
X80220128Y-88935000D01*
X80651925Y-88849110D01*
X81058669Y-88680631D01*
X81424729Y-88436038D01*
X81736038Y-88124729D01*
X81980631Y-87758669D01*
X82149110Y-87351925D01*
X82235000Y-86920128D01*
X82235000Y-86479872D01*
X82149110Y-86048075D01*
X81980631Y-85641331D01*
X81736038Y-85275271D01*
X81424729Y-84963962D01*
X81058669Y-84719369D01*
X80651925Y-84550890D01*
X80220128Y-84465000D01*
X79779872Y-84465000D01*
X79348075Y-84550890D01*
X78941331Y-84719369D01*
X78575271Y-84963962D01*
X78263962Y-85275271D01*
X78019369Y-85641331D01*
X77850890Y-86048075D01*
X77765000Y-86479872D01*
X70560000Y-86479872D01*
X70560000Y-85415333D01*
X70571414Y-85442889D01*
X70673738Y-85596028D01*
X70803972Y-85726262D01*
X70957111Y-85828586D01*
X71127271Y-85899068D01*
X71307911Y-85935000D01*
X71492089Y-85935000D01*
X71672729Y-85899068D01*
X71842889Y-85828586D01*
X71996028Y-85726262D01*
X72126262Y-85596028D01*
X72228586Y-85442889D01*
X72299068Y-85272729D01*
X72323153Y-85151649D01*
X73011004Y-84463798D01*
X73040001Y-84440001D01*
X73079385Y-84392012D01*
X73134974Y-84324277D01*
X73205546Y-84192247D01*
X73209743Y-84178412D01*
X73249003Y-84048986D01*
X73260000Y-83937333D01*
X73260000Y-83937323D01*
X73263676Y-83900000D01*
X73260000Y-83862677D01*
X73260000Y-74545535D01*
X73328586Y-74442889D01*
X73399068Y-74272729D01*
X73435000Y-74092089D01*
X73435000Y-73907911D01*
X73399068Y-73727271D01*
X73328586Y-73557111D01*
X73226262Y-73403972D01*
X73096028Y-73273738D01*
X72942889Y-73171414D01*
X72772729Y-73100932D01*
X72592089Y-73065000D01*
X72407911Y-73065000D01*
X72227271Y-73100932D01*
X72057111Y-73171414D01*
X71903972Y-73273738D01*
X71773738Y-73403972D01*
X71671414Y-73557111D01*
X71600932Y-73727271D01*
X71565000Y-73907911D01*
X71565000Y-74092089D01*
X71600932Y-74272729D01*
X71671414Y-74442889D01*
X71740001Y-74545537D01*
X71740000Y-83585198D01*
X71248351Y-84076847D01*
X71127271Y-84100932D01*
X70957111Y-84171414D01*
X70803972Y-84273738D01*
X70673738Y-84403972D01*
X70571414Y-84557111D01*
X70560000Y-84584667D01*
X70560000Y-76637322D01*
X70563676Y-76599999D01*
X70560000Y-76562676D01*
X70560000Y-76562667D01*
X70549003Y-76451014D01*
X70505546Y-76307753D01*
X70434974Y-76175724D01*
X70380633Y-76109509D01*
X70363799Y-76088996D01*
X70363795Y-76088992D01*
X70340001Y-76059999D01*
X70311008Y-76036205D01*
X63913804Y-69639003D01*
X63890001Y-69609999D01*
X63774276Y-69515026D01*
X63642247Y-69444454D01*
X63498986Y-69400997D01*
X63387333Y-69390000D01*
X63387322Y-69390000D01*
X63350000Y-69386324D01*
X63312678Y-69390000D01*
X58945535Y-69390000D01*
X58842889Y-69321414D01*
X58672729Y-69250932D01*
X58492089Y-69215000D01*
X58307911Y-69215000D01*
X58127271Y-69250932D01*
X57957111Y-69321414D01*
X57803972Y-69423738D01*
X57673738Y-69553972D01*
X57571414Y-69707111D01*
X57500932Y-69877271D01*
X57465000Y-70057911D01*
X57465000Y-70242089D01*
X57500932Y-70422729D01*
X57571414Y-70592889D01*
X57673738Y-70746028D01*
X57803972Y-70876262D01*
X57957111Y-70978586D01*
X58127271Y-71049068D01*
X58307911Y-71085000D01*
X58492089Y-71085000D01*
X58672729Y-71049068D01*
X58842889Y-70978586D01*
X58945535Y-70910000D01*
X63035199Y-70910000D01*
X69040001Y-76914804D01*
X69040000Y-89222678D01*
X69036324Y-89260000D01*
X69040000Y-89297322D01*
X69040000Y-89297332D01*
X69050997Y-89408985D01*
X69078606Y-89500000D01*
X69094454Y-89552246D01*
X69165026Y-89684276D01*
X69204871Y-89732826D01*
X69259999Y-89800001D01*
X69289003Y-89823804D01*
X71176200Y-91711002D01*
X71199999Y-91740001D01*
X71315724Y-91834974D01*
X71447753Y-91905546D01*
X71591014Y-91949003D01*
X71702667Y-91960000D01*
X71702676Y-91960000D01*
X71739999Y-91963676D01*
X71777322Y-91960000D01*
X73685199Y-91960000D01*
X77780001Y-96054803D01*
X77780001Y-96722405D01*
X77710986Y-96759294D01*
X77484866Y-96944866D01*
X77460393Y-96974687D01*
X77439502Y-96905820D01*
X77380537Y-96795506D01*
X77301185Y-96698815D01*
X77204494Y-96619463D01*
X77094180Y-96560498D01*
X76974482Y-96524188D01*
X76850000Y-96511928D01*
X76285750Y-96515000D01*
X76127000Y-96673750D01*
X76127000Y-97873000D01*
X76147000Y-97873000D01*
X76147000Y-98127000D01*
X76127000Y-98127000D01*
X76127000Y-98147000D01*
X75873000Y-98147000D01*
X75873000Y-98127000D01*
X74673750Y-98127000D01*
X74515000Y-98285750D01*
X74514683Y-98343940D01*
X74400814Y-98127000D01*
X73207000Y-98127000D01*
X73207000Y-98147000D01*
X72953000Y-98147000D01*
X72953000Y-98127000D01*
X72933000Y-98127000D01*
X72933000Y-97873000D01*
X72953000Y-97873000D01*
X72953000Y-96679845D01*
X73207000Y-96679845D01*
X73207000Y-97873000D01*
X74400814Y-97873000D01*
X74514683Y-97656060D01*
X74515000Y-97714250D01*
X74673750Y-97873000D01*
X75873000Y-97873000D01*
X75873000Y-96673750D01*
X75714250Y-96515000D01*
X75150000Y-96511928D01*
X75025518Y-96524188D01*
X74905820Y-96560498D01*
X74795506Y-96619463D01*
X74698815Y-96698815D01*
X74619463Y-96795506D01*
X74560498Y-96905820D01*
X74524188Y-97025518D01*
X74511928Y-97150000D01*
X74514506Y-97623445D01*
X74424157Y-97368748D01*
X74275178Y-97118645D01*
X74080269Y-96902412D01*
X73846920Y-96728359D01*
X73584099Y-96603175D01*
X73436890Y-96558524D01*
X73207000Y-96679845D01*
X72953000Y-96679845D01*
X72723110Y-96558524D01*
X72575901Y-96603175D01*
X72313080Y-96728359D01*
X72079731Y-96902412D01*
X71884822Y-97118645D01*
X71815201Y-97235523D01*
X71780706Y-97170986D01*
X71595134Y-96944866D01*
X71369014Y-96759294D01*
X71111034Y-96621401D01*
X70831111Y-96536487D01*
X70612950Y-96515000D01*
X70467050Y-96515000D01*
X70248889Y-96536487D01*
X69968966Y-96621401D01*
X69710986Y-96759294D01*
X69484866Y-96944866D01*
X69460393Y-96974687D01*
X69439502Y-96905820D01*
X69380537Y-96795506D01*
X69301185Y-96698815D01*
X69204494Y-96619463D01*
X69094180Y-96560498D01*
X68974482Y-96524188D01*
X68850000Y-96511928D01*
X67150000Y-96511928D01*
X67025518Y-96524188D01*
X66905820Y-96560498D01*
X66795506Y-96619463D01*
X66698815Y-96698815D01*
X66619463Y-96795506D01*
X66560498Y-96905820D01*
X66524188Y-97025518D01*
X66511928Y-97150000D01*
X66511928Y-98850000D01*
X66524188Y-98974482D01*
X66560498Y-99094180D01*
X66619463Y-99204494D01*
X66689636Y-99290000D01*
X51710000Y-99290000D01*
X51710000Y-91904495D01*
X65265000Y-91904495D01*
X65265000Y-92295505D01*
X65341282Y-92679003D01*
X65490915Y-93040250D01*
X65708149Y-93365364D01*
X65984636Y-93641851D01*
X66309750Y-93859085D01*
X66670997Y-94008718D01*
X67054495Y-94085000D01*
X67445505Y-94085000D01*
X67829003Y-94008718D01*
X68190250Y-93859085D01*
X68515364Y-93641851D01*
X68791851Y-93365364D01*
X69009085Y-93040250D01*
X69158718Y-92679003D01*
X69235000Y-92295505D01*
X69235000Y-91904495D01*
X69158718Y-91520997D01*
X69009085Y-91159750D01*
X68791851Y-90834636D01*
X68515364Y-90558149D01*
X68190250Y-90340915D01*
X67829003Y-90191282D01*
X67445505Y-90115000D01*
X67054495Y-90115000D01*
X66670997Y-90191282D01*
X66309750Y-90340915D01*
X65984636Y-90558149D01*
X65708149Y-90834636D01*
X65490915Y-91159750D01*
X65341282Y-91520997D01*
X65265000Y-91904495D01*
X51710000Y-91904495D01*
X51710000Y-85961578D01*
X54986939Y-89238518D01*
X54965000Y-89348816D01*
X54965000Y-89651184D01*
X55023989Y-89947743D01*
X55139701Y-90227095D01*
X55307688Y-90478505D01*
X55521495Y-90692312D01*
X55772905Y-90860299D01*
X56052257Y-90976011D01*
X56348816Y-91035000D01*
X56651184Y-91035000D01*
X56947743Y-90976011D01*
X57227095Y-90860299D01*
X57478505Y-90692312D01*
X57692312Y-90478505D01*
X57750000Y-90392169D01*
X57807688Y-90478505D01*
X58021495Y-90692312D01*
X58272905Y-90860299D01*
X58552257Y-90976011D01*
X58848816Y-91035000D01*
X59151184Y-91035000D01*
X59447743Y-90976011D01*
X59727095Y-90860299D01*
X59978505Y-90692312D01*
X60192312Y-90478505D01*
X60250000Y-90392169D01*
X60307688Y-90478505D01*
X60521495Y-90692312D01*
X60772905Y-90860299D01*
X61052257Y-90976011D01*
X61348816Y-91035000D01*
X61651184Y-91035000D01*
X61947743Y-90976011D01*
X62227095Y-90860299D01*
X62478505Y-90692312D01*
X62692312Y-90478505D01*
X62860299Y-90227095D01*
X62976011Y-89947743D01*
X63035000Y-89651184D01*
X63035000Y-89348816D01*
X62976011Y-89052257D01*
X62860299Y-88772905D01*
X62692312Y-88521495D01*
X62478505Y-88307688D01*
X62227095Y-88139701D01*
X61947743Y-88023989D01*
X61651184Y-87965000D01*
X61348816Y-87965000D01*
X61052257Y-88023989D01*
X60772905Y-88139701D01*
X60521495Y-88307688D01*
X60307688Y-88521495D01*
X60250000Y-88607831D01*
X60192312Y-88521495D01*
X59978505Y-88307688D01*
X59727095Y-88139701D01*
X59447743Y-88023989D01*
X59151184Y-87965000D01*
X58848816Y-87965000D01*
X58552257Y-88023989D01*
X58272905Y-88139701D01*
X58021495Y-88307688D01*
X57807688Y-88521495D01*
X57750000Y-88607831D01*
X57692312Y-88521495D01*
X57478505Y-88307688D01*
X57227095Y-88139701D01*
X56947743Y-88023989D01*
X56651184Y-87965000D01*
X56348816Y-87965000D01*
X56238518Y-87986939D01*
X52885000Y-84633422D01*
X52885000Y-83776220D01*
X52941637Y-83860983D01*
X53239017Y-84158363D01*
X53588698Y-84392012D01*
X53977244Y-84552953D01*
X54389721Y-84635000D01*
X54810279Y-84635000D01*
X55222756Y-84552953D01*
X55611302Y-84392012D01*
X55960983Y-84158363D01*
X56258363Y-83860983D01*
X56492012Y-83511302D01*
X56652953Y-83122756D01*
X56735000Y-82710279D01*
X56735000Y-82289721D01*
X61265000Y-82289721D01*
X61265000Y-82710279D01*
X61347047Y-83122756D01*
X61507988Y-83511302D01*
X61741637Y-83860983D01*
X62039017Y-84158363D01*
X62388698Y-84392012D01*
X62777244Y-84552953D01*
X63189721Y-84635000D01*
X63610279Y-84635000D01*
X64022756Y-84552953D01*
X64411302Y-84392012D01*
X64760983Y-84158363D01*
X65058363Y-83860983D01*
X65240000Y-83589143D01*
X65240000Y-85712677D01*
X65236324Y-85750000D01*
X65240000Y-85787322D01*
X65240000Y-85787332D01*
X65250997Y-85898985D01*
X65277491Y-85986324D01*
X65294454Y-86042246D01*
X65365026Y-86174276D01*
X65404871Y-86222826D01*
X65459999Y-86290001D01*
X65489002Y-86313804D01*
X66201847Y-87026649D01*
X66225932Y-87147729D01*
X66296414Y-87317889D01*
X66398738Y-87471028D01*
X66528972Y-87601262D01*
X66682111Y-87703586D01*
X66852271Y-87774068D01*
X67032911Y-87810000D01*
X67217089Y-87810000D01*
X67397729Y-87774068D01*
X67567889Y-87703586D01*
X67721028Y-87601262D01*
X67851262Y-87471028D01*
X67953586Y-87317889D01*
X68024068Y-87147729D01*
X68060000Y-86967089D01*
X68060000Y-86782911D01*
X68024068Y-86602271D01*
X67953586Y-86432111D01*
X67851262Y-86278972D01*
X67721028Y-86148738D01*
X67567889Y-86046414D01*
X67397729Y-85975932D01*
X67276649Y-85951847D01*
X66760000Y-85435199D01*
X66760000Y-79314801D01*
X67151649Y-78923153D01*
X67272729Y-78899068D01*
X67442889Y-78828586D01*
X67596028Y-78726262D01*
X67726262Y-78596028D01*
X67828586Y-78442889D01*
X67899068Y-78272729D01*
X67935000Y-78092089D01*
X67935000Y-77907911D01*
X67899068Y-77727271D01*
X67828586Y-77557111D01*
X67726262Y-77403972D01*
X67596028Y-77273738D01*
X67442889Y-77171414D01*
X67272729Y-77100932D01*
X67092089Y-77065000D01*
X66907911Y-77065000D01*
X66727271Y-77100932D01*
X66557111Y-77171414D01*
X66403972Y-77273738D01*
X66273738Y-77403972D01*
X66171414Y-77557111D01*
X66100932Y-77727271D01*
X66076847Y-77848351D01*
X65488998Y-78436201D01*
X65460000Y-78459999D01*
X65436202Y-78488997D01*
X65436201Y-78488998D01*
X65365026Y-78575724D01*
X65294454Y-78707754D01*
X65250998Y-78851015D01*
X65236324Y-79000000D01*
X65240001Y-79037332D01*
X65240001Y-81410857D01*
X65058363Y-81139017D01*
X64760983Y-80841637D01*
X64411302Y-80607988D01*
X64022756Y-80447047D01*
X63610279Y-80365000D01*
X63189721Y-80365000D01*
X62777244Y-80447047D01*
X62388698Y-80607988D01*
X62039017Y-80841637D01*
X61741637Y-81139017D01*
X61507988Y-81488698D01*
X61347047Y-81877244D01*
X61265000Y-82289721D01*
X56735000Y-82289721D01*
X56652953Y-81877244D01*
X56492012Y-81488698D01*
X56258363Y-81139017D01*
X55960983Y-80841637D01*
X55611302Y-80607988D01*
X55222756Y-80447047D01*
X54810279Y-80365000D01*
X54389721Y-80365000D01*
X53977244Y-80447047D01*
X53588698Y-80607988D01*
X53239017Y-80841637D01*
X52941637Y-81139017D01*
X52885000Y-81223780D01*
X52885000Y-63564080D01*
X55615525Y-63564080D01*
X55699208Y-63818261D01*
X55971775Y-63949158D01*
X56264642Y-64024365D01*
X56566553Y-64040991D01*
X56865907Y-63998397D01*
X57151199Y-63898222D01*
X57300792Y-63818261D01*
X57384475Y-63564080D01*
X56500000Y-62679605D01*
X55615525Y-63564080D01*
X52885000Y-63564080D01*
X52885000Y-62566553D01*
X54959009Y-62566553D01*
X55001603Y-62865907D01*
X55101778Y-63151199D01*
X55181739Y-63300792D01*
X55435920Y-63384475D01*
X56320395Y-62500000D01*
X56679605Y-62500000D01*
X57564080Y-63384475D01*
X57712262Y-63335690D01*
X57807688Y-63478505D01*
X58021495Y-63692312D01*
X58272905Y-63860299D01*
X58552257Y-63976011D01*
X58848816Y-64035000D01*
X59151184Y-64035000D01*
X59447743Y-63976011D01*
X59727095Y-63860299D01*
X59978505Y-63692312D01*
X60192312Y-63478505D01*
X60250000Y-63392169D01*
X60307688Y-63478505D01*
X60521495Y-63692312D01*
X60772905Y-63860299D01*
X61052257Y-63976011D01*
X61348816Y-64035000D01*
X61651184Y-64035000D01*
X61947743Y-63976011D01*
X62227095Y-63860299D01*
X62478505Y-63692312D01*
X62692312Y-63478505D01*
X62860299Y-63227095D01*
X62976011Y-62947743D01*
X63035000Y-62651184D01*
X63035000Y-62348816D01*
X62976011Y-62052257D01*
X62860299Y-61772905D01*
X62692312Y-61521495D01*
X62478505Y-61307688D01*
X62227095Y-61139701D01*
X61947743Y-61023989D01*
X61651184Y-60965000D01*
X61348816Y-60965000D01*
X61052257Y-61023989D01*
X60772905Y-61139701D01*
X60521495Y-61307688D01*
X60307688Y-61521495D01*
X60250000Y-61607831D01*
X60192312Y-61521495D01*
X59978505Y-61307688D01*
X59727095Y-61139701D01*
X59447743Y-61023989D01*
X59151184Y-60965000D01*
X58848816Y-60965000D01*
X58552257Y-61023989D01*
X58272905Y-61139701D01*
X58021495Y-61307688D01*
X57807688Y-61521495D01*
X57712262Y-61664310D01*
X57564080Y-61615525D01*
X56679605Y-62500000D01*
X56320395Y-62500000D01*
X55435920Y-61615525D01*
X55181739Y-61699208D01*
X55050842Y-61971775D01*
X54975635Y-62264642D01*
X54959009Y-62566553D01*
X52885000Y-62566553D01*
X52885000Y-61435920D01*
X55615525Y-61435920D01*
X56500000Y-62320395D01*
X57384475Y-61435920D01*
X57300792Y-61181739D01*
X57028225Y-61050842D01*
X56735358Y-60975635D01*
X56433447Y-60959009D01*
X56134093Y-61001603D01*
X55848801Y-61101778D01*
X55699208Y-61181739D01*
X55615525Y-61435920D01*
X52885000Y-61435920D01*
X52885000Y-56776220D01*
X52941637Y-56860983D01*
X53239017Y-57158363D01*
X53588698Y-57392012D01*
X53977244Y-57552953D01*
X54389721Y-57635000D01*
X54810279Y-57635000D01*
X55222756Y-57552953D01*
X55611302Y-57392012D01*
X55960983Y-57158363D01*
X56258363Y-56860983D01*
X56492012Y-56511302D01*
X56652953Y-56122756D01*
X56735000Y-55710279D01*
X56735000Y-55289721D01*
X61265000Y-55289721D01*
X61265000Y-55710279D01*
X61347047Y-56122756D01*
X61507988Y-56511302D01*
X61741637Y-56860983D01*
X62039017Y-57158363D01*
X62388698Y-57392012D01*
X62777244Y-57552953D01*
X63189721Y-57635000D01*
X63610279Y-57635000D01*
X64022756Y-57552953D01*
X64411302Y-57392012D01*
X64760983Y-57158363D01*
X65058363Y-56860983D01*
X65292012Y-56511302D01*
X65452953Y-56122756D01*
X65535000Y-55710279D01*
X65535000Y-55580000D01*
X66857319Y-55580000D01*
X66887970Y-55891204D01*
X66978745Y-56190449D01*
X67126155Y-56466235D01*
X67324537Y-56707963D01*
X67365000Y-56741171D01*
X67365001Y-59694239D01*
X67359509Y-59750000D01*
X67381423Y-59972498D01*
X67446324Y-60186446D01*
X67446325Y-60186447D01*
X67551717Y-60383623D01*
X67693552Y-60556449D01*
X67736859Y-60591991D01*
X68061928Y-60917060D01*
X68061928Y-61550000D01*
X68074188Y-61674482D01*
X68110498Y-61794180D01*
X68169463Y-61904494D01*
X68248815Y-62001185D01*
X68345506Y-62080537D01*
X68455820Y-62139502D01*
X68551943Y-62168661D01*
X68385363Y-62335241D01*
X68228320Y-62570273D01*
X68120147Y-62831426D01*
X68065000Y-63108665D01*
X68065000Y-63391335D01*
X68120147Y-63668574D01*
X68228320Y-63929727D01*
X68365000Y-64134284D01*
X68365001Y-66694239D01*
X68359509Y-66750000D01*
X68381423Y-66972498D01*
X68446324Y-67186446D01*
X68446325Y-67186447D01*
X68551717Y-67383623D01*
X68693552Y-67556449D01*
X68736860Y-67591991D01*
X74115001Y-72970133D01*
X74115000Y-77194248D01*
X74109509Y-77250000D01*
X74115000Y-77305751D01*
X74131423Y-77472498D01*
X74196324Y-77686446D01*
X74301716Y-77883623D01*
X74443551Y-78056449D01*
X74486865Y-78091996D01*
X77832980Y-81438112D01*
X77765000Y-81779872D01*
X77765000Y-82220128D01*
X77850890Y-82651925D01*
X78019369Y-83058669D01*
X78263962Y-83424729D01*
X78575271Y-83736038D01*
X78941331Y-83980631D01*
X79348075Y-84149110D01*
X79779872Y-84235000D01*
X80220128Y-84235000D01*
X80651925Y-84149110D01*
X81058669Y-83980631D01*
X81424729Y-83736038D01*
X81736038Y-83424729D01*
X81980631Y-83058669D01*
X82149110Y-82651925D01*
X82235000Y-82220128D01*
X82235000Y-81779872D01*
X82149110Y-81348075D01*
X81980631Y-80941331D01*
X81736038Y-80575271D01*
X81424729Y-80263962D01*
X81058669Y-80019369D01*
X80651925Y-79850890D01*
X80220128Y-79765000D01*
X79779872Y-79765000D01*
X79438112Y-79832980D01*
X78773867Y-79168735D01*
X78941331Y-79280631D01*
X79348075Y-79449110D01*
X79779872Y-79535000D01*
X80220128Y-79535000D01*
X80651925Y-79449110D01*
X81058669Y-79280631D01*
X81424729Y-79036038D01*
X81736038Y-78724729D01*
X81980631Y-78358669D01*
X82149110Y-77951925D01*
X82235000Y-77520128D01*
X82235000Y-77079872D01*
X82149110Y-76648075D01*
X81980631Y-76241331D01*
X81736038Y-75875271D01*
X81424729Y-75563962D01*
X81058669Y-75319369D01*
X80651925Y-75150890D01*
X80220128Y-75065000D01*
X79779872Y-75065000D01*
X79348075Y-75150890D01*
X78941331Y-75319369D01*
X78575271Y-75563962D01*
X78263962Y-75875271D01*
X78019369Y-76241331D01*
X77850890Y-76648075D01*
X77765000Y-77079872D01*
X77765000Y-77520128D01*
X77850890Y-77951925D01*
X78019369Y-78358669D01*
X78131265Y-78526134D01*
X76385000Y-76779869D01*
X76385000Y-72555751D01*
X76390491Y-72500000D01*
X76368577Y-72277501D01*
X76303676Y-72063553D01*
X76297350Y-72051717D01*
X76198284Y-71866377D01*
X76056449Y-71693551D01*
X76013141Y-71658009D01*
X74059627Y-69704495D01*
X79265000Y-69704495D01*
X79265000Y-70095505D01*
X79341282Y-70479003D01*
X79490915Y-70840250D01*
X79708149Y-71165364D01*
X79984636Y-71441851D01*
X80309750Y-71659085D01*
X80670997Y-71808718D01*
X81054495Y-71885000D01*
X81445505Y-71885000D01*
X81829003Y-71808718D01*
X82190250Y-71659085D01*
X82515364Y-71441851D01*
X82791851Y-71165364D01*
X83009085Y-70840250D01*
X83158718Y-70479003D01*
X83235000Y-70095505D01*
X83235000Y-69704495D01*
X83158718Y-69320997D01*
X83009085Y-68959750D01*
X82791851Y-68634636D01*
X82515364Y-68358149D01*
X82190250Y-68140915D01*
X81829003Y-67991282D01*
X81445505Y-67915000D01*
X81054495Y-67915000D01*
X80670997Y-67991282D01*
X80309750Y-68140915D01*
X79984636Y-68358149D01*
X79708149Y-68634636D01*
X79490915Y-68959750D01*
X79341282Y-69320997D01*
X79265000Y-69704495D01*
X74059627Y-69704495D01*
X70635000Y-66279869D01*
X70635000Y-64134284D01*
X70771680Y-63929727D01*
X70879853Y-63668574D01*
X70935000Y-63391335D01*
X70935000Y-63108665D01*
X70879853Y-62831426D01*
X70771680Y-62570273D01*
X70614637Y-62335241D01*
X70448057Y-62168661D01*
X70544180Y-62139502D01*
X70654494Y-62080537D01*
X70751185Y-62001185D01*
X70830537Y-61904494D01*
X70889502Y-61794180D01*
X70925812Y-61674482D01*
X70938072Y-61550000D01*
X70938072Y-59950000D01*
X70925812Y-59825518D01*
X70889502Y-59705820D01*
X70830537Y-59595506D01*
X70751185Y-59498815D01*
X70654494Y-59419463D01*
X70544180Y-59360498D01*
X70424482Y-59324188D01*
X70300000Y-59311928D01*
X69667060Y-59311928D01*
X69635000Y-59279868D01*
X69635000Y-56741170D01*
X69666888Y-56715000D01*
X72833112Y-56715000D01*
X73066265Y-56906345D01*
X73342051Y-57053755D01*
X73641296Y-57144530D01*
X73874514Y-57167500D01*
X74125486Y-57167500D01*
X74358704Y-57144530D01*
X74657949Y-57053755D01*
X74914990Y-56916364D01*
X74914991Y-59879877D01*
X74236864Y-60558004D01*
X74193551Y-60593551D01*
X74051716Y-60766377D01*
X73985377Y-60890491D01*
X73946324Y-60963554D01*
X73881423Y-61177502D01*
X73859509Y-61400000D01*
X73865000Y-61455752D01*
X73865000Y-62053855D01*
X73810498Y-62155820D01*
X73774188Y-62275518D01*
X73761928Y-62400000D01*
X73761928Y-64600000D01*
X73774188Y-64724482D01*
X73810498Y-64844180D01*
X73869463Y-64954494D01*
X73948815Y-65051185D01*
X74045506Y-65130537D01*
X74155820Y-65189502D01*
X74275518Y-65225812D01*
X74400000Y-65238072D01*
X76600000Y-65238072D01*
X76724482Y-65225812D01*
X76844180Y-65189502D01*
X76954494Y-65130537D01*
X77051185Y-65051185D01*
X77130537Y-64954494D01*
X77189502Y-64844180D01*
X77225812Y-64724482D01*
X77238072Y-64600000D01*
X77238072Y-62400000D01*
X77225812Y-62275518D01*
X77189502Y-62155820D01*
X77130537Y-62045506D01*
X77051185Y-61948815D01*
X76954494Y-61869463D01*
X76844180Y-61810498D01*
X76724482Y-61774188D01*
X76600000Y-61761928D01*
X76243203Y-61761928D01*
X76813130Y-61192002D01*
X76856439Y-61156459D01*
X76998274Y-60983633D01*
X77103666Y-60786457D01*
X77168567Y-60572509D01*
X77184990Y-60405762D01*
X77190481Y-60350011D01*
X77184990Y-60294259D01*
X77184990Y-55098242D01*
X77190481Y-55042490D01*
X77168567Y-54819991D01*
X77156397Y-54779872D01*
X77765000Y-54779872D01*
X77765000Y-55220128D01*
X77850890Y-55651925D01*
X78019369Y-56058669D01*
X78263962Y-56424729D01*
X78575271Y-56736038D01*
X78941331Y-56980631D01*
X79348075Y-57149110D01*
X79779872Y-57235000D01*
X80220128Y-57235000D01*
X80651925Y-57149110D01*
X81058669Y-56980631D01*
X81424729Y-56736038D01*
X81736038Y-56424729D01*
X81980631Y-56058669D01*
X82149110Y-55651925D01*
X82235000Y-55220128D01*
X82235000Y-54843891D01*
X85875000Y-54843891D01*
X85875000Y-55156109D01*
X85935911Y-55462327D01*
X86055391Y-55750779D01*
X86228850Y-56010379D01*
X86449621Y-56231150D01*
X86709221Y-56404609D01*
X86997673Y-56524089D01*
X87303891Y-56585000D01*
X87616109Y-56585000D01*
X87922327Y-56524089D01*
X88210779Y-56404609D01*
X88458877Y-56238836D01*
X88460498Y-56244180D01*
X88519463Y-56354494D01*
X88598815Y-56451185D01*
X88695506Y-56530537D01*
X88805820Y-56589502D01*
X88925518Y-56625812D01*
X89050000Y-56638072D01*
X89714250Y-56635000D01*
X89873000Y-56476250D01*
X89873000Y-55127000D01*
X90127000Y-55127000D01*
X90127000Y-56476250D01*
X90285750Y-56635000D01*
X90950000Y-56638072D01*
X91074482Y-56625812D01*
X91194180Y-56589502D01*
X91304494Y-56530537D01*
X91401185Y-56451185D01*
X91480537Y-56354494D01*
X91539502Y-56244180D01*
X91575812Y-56124482D01*
X91588072Y-56000000D01*
X91585018Y-55289721D01*
X94465000Y-55289721D01*
X94465000Y-55710279D01*
X94547047Y-56122756D01*
X94707988Y-56511302D01*
X94941637Y-56860983D01*
X95239017Y-57158363D01*
X95588698Y-57392012D01*
X95977244Y-57552953D01*
X96389721Y-57635000D01*
X96810279Y-57635000D01*
X97222756Y-57552953D01*
X97611302Y-57392012D01*
X97960983Y-57158363D01*
X98258363Y-56860983D01*
X98492012Y-56511302D01*
X98652953Y-56122756D01*
X98735000Y-55710279D01*
X98735000Y-55499843D01*
X100179762Y-55499843D01*
X100252556Y-55744832D01*
X100509773Y-55866733D01*
X100785829Y-55936110D01*
X101070115Y-55950298D01*
X101351706Y-55908752D01*
X101619783Y-55813068D01*
X101747444Y-55744832D01*
X101820238Y-55499843D01*
X101000000Y-54679605D01*
X100179762Y-55499843D01*
X98735000Y-55499843D01*
X98735000Y-55289721D01*
X98652953Y-54877244D01*
X98525737Y-54570115D01*
X99549702Y-54570115D01*
X99591248Y-54851706D01*
X99686932Y-55119783D01*
X99755168Y-55247444D01*
X100000157Y-55320238D01*
X100820395Y-54500000D01*
X101179605Y-54500000D01*
X101999843Y-55320238D01*
X102244832Y-55247444D01*
X102366733Y-54990227D01*
X102436110Y-54714171D01*
X102450298Y-54429885D01*
X102408752Y-54148294D01*
X102313068Y-53880217D01*
X102244832Y-53752556D01*
X101999843Y-53679762D01*
X101179605Y-54500000D01*
X100820395Y-54500000D01*
X100000157Y-53679762D01*
X99755168Y-53752556D01*
X99633267Y-54009773D01*
X99563890Y-54285829D01*
X99549702Y-54570115D01*
X98525737Y-54570115D01*
X98492012Y-54488698D01*
X98258363Y-54139017D01*
X97960983Y-53841637D01*
X97611302Y-53607988D01*
X97350975Y-53500157D01*
X100179762Y-53500157D01*
X101000000Y-54320395D01*
X101820238Y-53500157D01*
X101747444Y-53255168D01*
X101490227Y-53133267D01*
X101214171Y-53063890D01*
X100929885Y-53049702D01*
X100648294Y-53091248D01*
X100380217Y-53186932D01*
X100252556Y-53255168D01*
X100179762Y-53500157D01*
X97350975Y-53500157D01*
X97222756Y-53447047D01*
X96810279Y-53365000D01*
X96389721Y-53365000D01*
X95977244Y-53447047D01*
X95588698Y-53607988D01*
X95239017Y-53841637D01*
X94941637Y-54139017D01*
X94707988Y-54488698D01*
X94547047Y-54877244D01*
X94465000Y-55289721D01*
X91585018Y-55289721D01*
X91585000Y-55285750D01*
X91426250Y-55127000D01*
X90127000Y-55127000D01*
X89873000Y-55127000D01*
X89853000Y-55127000D01*
X89853000Y-54873000D01*
X89873000Y-54873000D01*
X89873000Y-53523750D01*
X90127000Y-53523750D01*
X90127000Y-54873000D01*
X91426250Y-54873000D01*
X91585000Y-54714250D01*
X91588072Y-54000000D01*
X91575812Y-53875518D01*
X91539502Y-53755820D01*
X91480537Y-53645506D01*
X91401185Y-53548815D01*
X91304494Y-53469463D01*
X91194180Y-53410498D01*
X91074482Y-53374188D01*
X90950000Y-53361928D01*
X90285750Y-53365000D01*
X90127000Y-53523750D01*
X89873000Y-53523750D01*
X89714250Y-53365000D01*
X89050000Y-53361928D01*
X88925518Y-53374188D01*
X88805820Y-53410498D01*
X88695506Y-53469463D01*
X88598815Y-53548815D01*
X88519463Y-53645506D01*
X88460498Y-53755820D01*
X88458877Y-53761164D01*
X88210779Y-53595391D01*
X87922327Y-53475911D01*
X87616109Y-53415000D01*
X87303891Y-53415000D01*
X86997673Y-53475911D01*
X86709221Y-53595391D01*
X86449621Y-53768850D01*
X86228850Y-53989621D01*
X86055391Y-54249221D01*
X85935911Y-54537673D01*
X85875000Y-54843891D01*
X82235000Y-54843891D01*
X82235000Y-54779872D01*
X82149110Y-54348075D01*
X81980631Y-53941331D01*
X81736038Y-53575271D01*
X81424729Y-53263962D01*
X81058669Y-53019369D01*
X80651925Y-52850890D01*
X80220128Y-52765000D01*
X79779872Y-52765000D01*
X79348075Y-52850890D01*
X78941331Y-53019369D01*
X78575271Y-53263962D01*
X78263962Y-53575271D01*
X78019369Y-53941331D01*
X77850890Y-54348075D01*
X77765000Y-54779872D01*
X77156397Y-54779872D01*
X77103666Y-54606043D01*
X76998274Y-54408867D01*
X76891979Y-54279346D01*
X76891977Y-54279344D01*
X76856439Y-54236041D01*
X76813136Y-54200503D01*
X75641594Y-53028962D01*
X75612030Y-52728796D01*
X75521255Y-52429551D01*
X75373845Y-52153765D01*
X75270554Y-52027905D01*
X75354494Y-51983037D01*
X75451185Y-51903685D01*
X75530537Y-51806994D01*
X75589502Y-51696680D01*
X75625812Y-51576982D01*
X75638072Y-51452500D01*
X75638072Y-49547500D01*
X75625812Y-49423018D01*
X75589502Y-49303320D01*
X75530537Y-49193006D01*
X75451185Y-49096315D01*
X75354494Y-49016963D01*
X75244180Y-48957998D01*
X75124482Y-48921688D01*
X75000000Y-48909428D01*
X73000000Y-48909428D01*
X72875518Y-48921688D01*
X72755820Y-48957998D01*
X72645506Y-49016963D01*
X72548815Y-49096315D01*
X72469463Y-49193006D01*
X72410498Y-49303320D01*
X72391788Y-49365000D01*
X70108212Y-49365000D01*
X70089502Y-49303320D01*
X70030537Y-49193006D01*
X69951185Y-49096315D01*
X69854494Y-49016963D01*
X69744180Y-48957998D01*
X69624482Y-48921688D01*
X69500000Y-48909428D01*
X67500000Y-48909428D01*
X67375518Y-48921688D01*
X67255820Y-48957998D01*
X67145506Y-49016963D01*
X67048815Y-49096315D01*
X66969463Y-49193006D01*
X66910498Y-49303320D01*
X66874188Y-49423018D01*
X66861928Y-49547500D01*
X66861928Y-51452500D01*
X66874188Y-51576982D01*
X66910498Y-51696680D01*
X66969463Y-51806994D01*
X67048815Y-51903685D01*
X67145506Y-51983037D01*
X67237219Y-52032059D01*
X67124031Y-52173077D01*
X66980429Y-52448906D01*
X66909437Y-52667020D01*
X67029406Y-52913000D01*
X68373000Y-52913000D01*
X68373000Y-52893000D01*
X68627000Y-52893000D01*
X68627000Y-52913000D01*
X69970594Y-52913000D01*
X70090563Y-52667020D01*
X70019571Y-52448906D01*
X69875969Y-52173077D01*
X69762781Y-52032059D01*
X69854494Y-51983037D01*
X69951185Y-51903685D01*
X70030537Y-51806994D01*
X70089502Y-51696680D01*
X70108212Y-51635000D01*
X72391788Y-51635000D01*
X72410498Y-51696680D01*
X72469463Y-51806994D01*
X72548815Y-51903685D01*
X72645506Y-51983037D01*
X72729446Y-52027905D01*
X72626155Y-52153765D01*
X72478745Y-52429551D01*
X72387970Y-52728796D01*
X72357319Y-53040000D01*
X72387970Y-53351204D01*
X72478745Y-53650449D01*
X72626155Y-53926235D01*
X72824537Y-54167963D01*
X72997609Y-54310000D01*
X72833112Y-54445000D01*
X69666888Y-54445000D01*
X69496101Y-54304837D01*
X69681315Y-54149437D01*
X69875969Y-53906923D01*
X70019571Y-53631094D01*
X70090563Y-53412980D01*
X69970594Y-53167000D01*
X68627000Y-53167000D01*
X68627000Y-53187000D01*
X68373000Y-53187000D01*
X68373000Y-53167000D01*
X67029406Y-53167000D01*
X66909437Y-53412980D01*
X66980429Y-53631094D01*
X67124031Y-53906923D01*
X67318685Y-54149437D01*
X67503899Y-54304837D01*
X67324537Y-54452037D01*
X67126155Y-54693765D01*
X66978745Y-54969551D01*
X66887970Y-55268796D01*
X66857319Y-55580000D01*
X65535000Y-55580000D01*
X65535000Y-55289721D01*
X65452953Y-54877244D01*
X65292012Y-54488698D01*
X65058363Y-54139017D01*
X64760983Y-53841637D01*
X64411302Y-53607988D01*
X64022756Y-53447047D01*
X63610279Y-53365000D01*
X63189721Y-53365000D01*
X62777244Y-53447047D01*
X62388698Y-53607988D01*
X62039017Y-53841637D01*
X61741637Y-54139017D01*
X61507988Y-54488698D01*
X61347047Y-54877244D01*
X61265000Y-55289721D01*
X56735000Y-55289721D01*
X56652953Y-54877244D01*
X56492012Y-54488698D01*
X56258363Y-54139017D01*
X55960983Y-53841637D01*
X55611302Y-53607988D01*
X55222756Y-53447047D01*
X54810279Y-53365000D01*
X54389721Y-53365000D01*
X53977244Y-53447047D01*
X53682405Y-53569173D01*
X55366579Y-51885000D01*
X56456531Y-51885000D01*
X56500000Y-51889281D01*
X56543469Y-51885000D01*
X56543477Y-51885000D01*
X56673490Y-51872195D01*
X56840313Y-51821589D01*
X56994059Y-51739411D01*
X57128817Y-51628817D01*
X57156534Y-51595044D01*
X59866579Y-48885000D01*
X78257461Y-48885000D01*
X78019369Y-49241331D01*
X78019369Y-49241331D01*
G37*
X78019369Y-49241331D02*
X77850890Y-49648075D01*
X77765000Y-50079872D01*
X77765000Y-50520128D01*
X77850890Y-50951925D01*
X78019369Y-51358669D01*
X78263962Y-51724729D01*
X78575271Y-52036038D01*
X78941331Y-52280631D01*
X79348075Y-52449110D01*
X79779872Y-52535000D01*
X80220128Y-52535000D01*
X80651925Y-52449110D01*
X81058669Y-52280631D01*
X81424729Y-52036038D01*
X81736038Y-51724729D01*
X81980631Y-51358669D01*
X82149110Y-50951925D01*
X82235000Y-50520128D01*
X82235000Y-50079872D01*
X82149110Y-49648075D01*
X81980631Y-49241331D01*
X81742539Y-48885000D01*
X100419424Y-48885000D01*
X104129472Y-52595049D01*
X104157185Y-52628817D01*
X104190953Y-52656530D01*
X104190955Y-52656532D01*
X104203735Y-52667020D01*
X104291943Y-52739411D01*
X104445689Y-52821589D01*
X104612512Y-52872195D01*
X104742525Y-52885000D01*
X104742535Y-52885000D01*
X104786001Y-52889281D01*
X104829467Y-52885000D01*
X106133422Y-52885000D01*
X107315001Y-54066580D01*
X107315001Y-54544198D01*
X107292012Y-54488698D01*
X107058363Y-54139017D01*
X106760983Y-53841637D01*
X106411302Y-53607988D01*
X106022756Y-53447047D01*
X105610279Y-53365000D01*
X105189721Y-53365000D01*
X104777244Y-53447047D01*
X104388698Y-53607988D01*
X104039017Y-53841637D01*
X103741637Y-54139017D01*
X103507988Y-54488698D01*
X103347047Y-54877244D01*
X103265000Y-55289721D01*
X103265000Y-55710279D01*
X103347047Y-56122756D01*
X103507988Y-56511302D01*
X103741637Y-56860983D01*
X104039017Y-57158363D01*
X104388698Y-57392012D01*
X104777244Y-57552953D01*
X105189721Y-57635000D01*
X105610279Y-57635000D01*
X106022756Y-57552953D01*
X106411302Y-57392012D01*
X106760983Y-57158363D01*
X107058363Y-56860983D01*
X107292012Y-56511302D01*
X107315001Y-56455801D01*
X107315002Y-72740418D01*
X107208669Y-72669369D01*
X106801925Y-72500890D01*
X106370128Y-72415000D01*
X105929872Y-72415000D01*
X105498075Y-72500890D01*
X105091331Y-72669369D01*
X104725271Y-72913962D01*
X104413962Y-73225271D01*
X104220372Y-73515000D01*
X98905751Y-73515000D01*
X98849999Y-73509509D01*
X98627500Y-73531423D01*
X98577705Y-73546529D01*
X98413553Y-73596324D01*
X98216377Y-73701716D01*
X98043551Y-73843551D01*
X98008009Y-73886859D01*
X91736860Y-80158009D01*
X91693552Y-80193551D01*
X91551717Y-80366377D01*
X91508598Y-80447047D01*
X91446324Y-80563554D01*
X91381423Y-80777502D01*
X91359509Y-81000000D01*
X91365001Y-81055761D01*
X91365000Y-91569868D01*
X89997864Y-92937004D01*
X90065009Y-92836515D01*
X90198134Y-92515123D01*
X90266000Y-92173936D01*
X90266000Y-91826064D01*
X90198134Y-91484877D01*
X90065009Y-91163485D01*
X89871742Y-90874241D01*
X89625759Y-90628258D01*
X89336515Y-90434991D01*
X89015123Y-90301866D01*
X88673936Y-90234000D01*
X88326064Y-90234000D01*
X87984877Y-90301866D01*
X87663485Y-90434991D01*
X87374241Y-90628258D01*
X87128258Y-90874241D01*
X86934991Y-91163485D01*
X86801866Y-91484877D01*
X86734000Y-91826064D01*
X86734000Y-92173936D01*
X86801866Y-92515123D01*
X86934991Y-92836515D01*
X87128258Y-93125759D01*
X87374241Y-93371742D01*
X87663485Y-93565009D01*
X87984877Y-93698134D01*
X88326064Y-93766000D01*
X88673936Y-93766000D01*
X89015123Y-93698134D01*
X89336515Y-93565009D01*
X89437004Y-93497864D01*
X86414714Y-96520155D01*
X86248889Y-96536487D01*
X85968966Y-96621401D01*
X85710986Y-96759294D01*
X85484866Y-96944866D01*
X85299294Y-97170986D01*
X85270000Y-97225791D01*
X85240706Y-97170986D01*
X85135000Y-97042183D01*
X85135000Y-74970131D01*
X86263140Y-73841992D01*
X86306449Y-73806449D01*
X86448284Y-73633623D01*
X86553676Y-73436447D01*
X86618577Y-73222499D01*
X86635000Y-73055752D01*
X86635000Y-73055743D01*
X86640490Y-73000001D01*
X86635000Y-72944259D01*
X86635000Y-65228807D01*
X87450798Y-65228807D01*
X87562369Y-65506605D01*
X87874309Y-65660579D01*
X88210294Y-65750737D01*
X88557413Y-65773616D01*
X88902325Y-65728336D01*
X89231776Y-65616637D01*
X89437631Y-65506605D01*
X89549202Y-65228807D01*
X88500000Y-64179605D01*
X87450798Y-65228807D01*
X86635000Y-65228807D01*
X86635000Y-64057413D01*
X86726384Y-64057413D01*
X86771664Y-64402325D01*
X86883363Y-64731776D01*
X86993395Y-64937631D01*
X87271193Y-65049202D01*
X88320395Y-64000000D01*
X88679605Y-64000000D01*
X89728807Y-65049202D01*
X90006605Y-64937631D01*
X90160579Y-64625691D01*
X90250737Y-64289706D01*
X90273616Y-63942587D01*
X90228336Y-63597675D01*
X90116637Y-63268224D01*
X90006605Y-63062369D01*
X89728807Y-62950798D01*
X88679605Y-64000000D01*
X88320395Y-64000000D01*
X87271193Y-62950798D01*
X86993395Y-63062369D01*
X86839421Y-63374309D01*
X86749263Y-63710294D01*
X86726384Y-64057413D01*
X86635000Y-64057413D01*
X86635000Y-62805741D01*
X86638402Y-62771193D01*
X87450798Y-62771193D01*
X88500000Y-63820395D01*
X89549202Y-62771193D01*
X89437631Y-62493395D01*
X89144725Y-62348816D01*
X96965000Y-62348816D01*
X96965000Y-62651184D01*
X97023989Y-62947743D01*
X97139701Y-63227095D01*
X97307688Y-63478505D01*
X97521495Y-63692312D01*
X97772905Y-63860299D01*
X98052257Y-63976011D01*
X98348816Y-64035000D01*
X98651184Y-64035000D01*
X98947743Y-63976011D01*
X99227095Y-63860299D01*
X99478505Y-63692312D01*
X99692312Y-63478505D01*
X99750000Y-63392169D01*
X99807688Y-63478505D01*
X100021495Y-63692312D01*
X100272905Y-63860299D01*
X100552257Y-63976011D01*
X100848816Y-64035000D01*
X101151184Y-64035000D01*
X101447743Y-63976011D01*
X101727095Y-63860299D01*
X101978505Y-63692312D01*
X102192312Y-63478505D01*
X102250000Y-63392169D01*
X102307688Y-63478505D01*
X102521495Y-63692312D01*
X102772905Y-63860299D01*
X103052257Y-63976011D01*
X103348816Y-64035000D01*
X103651184Y-64035000D01*
X103947743Y-63976011D01*
X104227095Y-63860299D01*
X104478505Y-63692312D01*
X104692312Y-63478505D01*
X104860299Y-63227095D01*
X104976011Y-62947743D01*
X105035000Y-62651184D01*
X105035000Y-62348816D01*
X104976011Y-62052257D01*
X104860299Y-61772905D01*
X104692312Y-61521495D01*
X104478505Y-61307688D01*
X104227095Y-61139701D01*
X103947743Y-61023989D01*
X103651184Y-60965000D01*
X103348816Y-60965000D01*
X103052257Y-61023989D01*
X102772905Y-61139701D01*
X102521495Y-61307688D01*
X102307688Y-61521495D01*
X102250000Y-61607831D01*
X102192312Y-61521495D01*
X101978505Y-61307688D01*
X101727095Y-61139701D01*
X101447743Y-61023989D01*
X101151184Y-60965000D01*
X100848816Y-60965000D01*
X100552257Y-61023989D01*
X100272905Y-61139701D01*
X100021495Y-61307688D01*
X99807688Y-61521495D01*
X99750000Y-61607831D01*
X99692312Y-61521495D01*
X99478505Y-61307688D01*
X99227095Y-61139701D01*
X98947743Y-61023989D01*
X98651184Y-60965000D01*
X98348816Y-60965000D01*
X98052257Y-61023989D01*
X97772905Y-61139701D01*
X97521495Y-61307688D01*
X97307688Y-61521495D01*
X97139701Y-61772905D01*
X97023989Y-62052257D01*
X96965000Y-62348816D01*
X89144725Y-62348816D01*
X89125691Y-62339421D01*
X88789706Y-62249263D01*
X88442587Y-62226384D01*
X88097675Y-62271664D01*
X87768224Y-62383363D01*
X87562369Y-62493395D01*
X87450798Y-62771193D01*
X86638402Y-62771193D01*
X86640490Y-62749999D01*
X86635000Y-62694257D01*
X86635000Y-62694248D01*
X86618577Y-62527501D01*
X86553676Y-62313553D01*
X86448284Y-62116377D01*
X86306449Y-61943551D01*
X86263141Y-61908009D01*
X84854975Y-60499843D01*
X97679762Y-60499843D01*
X97752556Y-60744832D01*
X98009773Y-60866733D01*
X98285829Y-60936110D01*
X98570115Y-60950298D01*
X98851706Y-60908752D01*
X99119783Y-60813068D01*
X99247444Y-60744832D01*
X99320238Y-60499843D01*
X98500000Y-59679605D01*
X97679762Y-60499843D01*
X84854975Y-60499843D01*
X83925247Y-59570115D01*
X97049702Y-59570115D01*
X97091248Y-59851706D01*
X97186932Y-60119783D01*
X97255168Y-60247444D01*
X97500157Y-60320238D01*
X98320395Y-59500000D01*
X98679605Y-59500000D01*
X99499843Y-60320238D01*
X99744832Y-60247444D01*
X99866733Y-59990227D01*
X99936110Y-59714171D01*
X99950298Y-59429885D01*
X99939645Y-59357680D01*
X102055000Y-59357680D01*
X102055000Y-59642320D01*
X102110530Y-59921491D01*
X102219457Y-60184464D01*
X102377595Y-60421134D01*
X102578866Y-60622405D01*
X102815536Y-60780543D01*
X103078509Y-60889470D01*
X103357680Y-60945000D01*
X103642320Y-60945000D01*
X103921491Y-60889470D01*
X104184464Y-60780543D01*
X104421134Y-60622405D01*
X104622405Y-60421134D01*
X104780543Y-60184464D01*
X104889470Y-59921491D01*
X104945000Y-59642320D01*
X104945000Y-59357680D01*
X104889470Y-59078509D01*
X104780543Y-58815536D01*
X104622405Y-58578866D01*
X104421134Y-58377595D01*
X104184464Y-58219457D01*
X103921491Y-58110530D01*
X103642320Y-58055000D01*
X103357680Y-58055000D01*
X103078509Y-58110530D01*
X102815536Y-58219457D01*
X102578866Y-58377595D01*
X102377595Y-58578866D01*
X102219457Y-58815536D01*
X102110530Y-59078509D01*
X102055000Y-59357680D01*
X99939645Y-59357680D01*
X99908752Y-59148294D01*
X99813068Y-58880217D01*
X99744832Y-58752556D01*
X99499843Y-58679762D01*
X98679605Y-59500000D01*
X98320395Y-59500000D01*
X97500157Y-58679762D01*
X97255168Y-58752556D01*
X97133267Y-59009773D01*
X97063890Y-59285829D01*
X97049702Y-59570115D01*
X83925247Y-59570115D01*
X83291996Y-58936865D01*
X83256449Y-58893551D01*
X83083623Y-58751716D01*
X82886447Y-58646324D01*
X82672499Y-58581423D01*
X82505752Y-58565000D01*
X82505751Y-58565000D01*
X82450000Y-58559509D01*
X82394249Y-58565000D01*
X81929628Y-58565000D01*
X81886302Y-58500157D01*
X97679762Y-58500157D01*
X98500000Y-59320395D01*
X99320238Y-58500157D01*
X99247444Y-58255168D01*
X98990227Y-58133267D01*
X98714171Y-58063890D01*
X98429885Y-58049702D01*
X98148294Y-58091248D01*
X97880217Y-58186932D01*
X97752556Y-58255168D01*
X97679762Y-58500157D01*
X81886302Y-58500157D01*
X81736038Y-58275271D01*
X81424729Y-57963962D01*
X81058669Y-57719369D01*
X80651925Y-57550890D01*
X80220128Y-57465000D01*
X79779872Y-57465000D01*
X79348075Y-57550890D01*
X78941331Y-57719369D01*
X78575271Y-57963962D01*
X78263962Y-58275271D01*
X78019369Y-58641331D01*
X77850890Y-59048075D01*
X77765000Y-59479872D01*
X77765000Y-59920128D01*
X77850890Y-60351925D01*
X78019369Y-60758669D01*
X78263962Y-61124729D01*
X78575271Y-61436038D01*
X78941331Y-61680631D01*
X79348075Y-61849110D01*
X79779872Y-61935000D01*
X80220128Y-61935000D01*
X80651925Y-61849110D01*
X81058669Y-61680631D01*
X81424729Y-61436038D01*
X81736038Y-61124729D01*
X81929628Y-60835000D01*
X81979869Y-60835000D01*
X82921068Y-61776199D01*
X82779881Y-61790105D01*
X82452832Y-61889314D01*
X82151422Y-62050421D01*
X81887234Y-62267234D01*
X81670421Y-62531422D01*
X81509314Y-62832832D01*
X81410105Y-63159881D01*
X81376606Y-63500000D01*
X81410105Y-63840119D01*
X81509314Y-64167168D01*
X81670421Y-64468578D01*
X81887234Y-64732766D01*
X82151422Y-64949579D01*
X82452832Y-65110686D01*
X82779881Y-65209895D01*
X83034775Y-65235000D01*
X83205225Y-65235000D01*
X83460119Y-65209895D01*
X83787168Y-65110686D01*
X84088578Y-64949579D01*
X84352766Y-64732766D01*
X84365001Y-64717858D01*
X84365000Y-72529868D01*
X83236860Y-73658009D01*
X83193552Y-73693551D01*
X83051717Y-73866377D01*
X83029517Y-73907911D01*
X82946324Y-74063554D01*
X82881423Y-74277502D01*
X82859509Y-74500000D01*
X82865001Y-74555762D01*
X82865000Y-96841272D01*
X82840537Y-96795506D01*
X82761185Y-96698815D01*
X82664494Y-96619463D01*
X82554180Y-96560498D01*
X82434482Y-96524188D01*
X82310000Y-96511928D01*
X81745750Y-96515000D01*
X81587000Y-96673750D01*
X81587000Y-97873000D01*
X81607000Y-97873000D01*
X81607000Y-98127000D01*
X81587000Y-98127000D01*
X81587000Y-98147000D01*
X81333000Y-98147000D01*
X81333000Y-98127000D01*
X81313000Y-98127000D01*
X81313000Y-97873000D01*
X81333000Y-97873000D01*
X81333000Y-96673750D01*
X81174250Y-96515000D01*
X80610000Y-96511928D01*
X80485518Y-96524188D01*
X80365820Y-96560498D01*
X80255506Y-96619463D01*
X80158815Y-96698815D01*
X80079463Y-96795506D01*
X80020498Y-96905820D01*
X79984188Y-97025518D01*
X79971928Y-97150000D01*
X79974449Y-97613079D01*
X79918599Y-97428966D01*
X79780706Y-97170986D01*
X79595134Y-96944866D01*
X79369014Y-96759294D01*
X79300000Y-96722405D01*
X79300000Y-95777333D01*
X79303677Y-95740000D01*
X79289003Y-95591014D01*
X79245546Y-95447753D01*
X79174974Y-95315724D01*
X79103799Y-95228997D01*
X79080001Y-95199999D01*
X79051003Y-95176201D01*
X74563804Y-90689003D01*
X74540001Y-90659999D01*
X74424276Y-90565026D01*
X74292247Y-90494454D01*
X74148986Y-90450997D01*
X74037333Y-90440000D01*
X74037322Y-90440000D01*
X74000000Y-90436324D01*
X73962678Y-90440000D01*
X72054802Y-90440000D01*
X70560000Y-88945199D01*
X70560000Y-86479872D01*
X77765000Y-86479872D01*
X77765000Y-86920128D01*
X77850890Y-87351925D01*
X78019369Y-87758669D01*
X78263962Y-88124729D01*
X78575271Y-88436038D01*
X78941331Y-88680631D01*
X79348075Y-88849110D01*
X79779872Y-88935000D01*
X80220128Y-88935000D01*
X80651925Y-88849110D01*
X81058669Y-88680631D01*
X81424729Y-88436038D01*
X81736038Y-88124729D01*
X81980631Y-87758669D01*
X82149110Y-87351925D01*
X82235000Y-86920128D01*
X82235000Y-86479872D01*
X82149110Y-86048075D01*
X81980631Y-85641331D01*
X81736038Y-85275271D01*
X81424729Y-84963962D01*
X81058669Y-84719369D01*
X80651925Y-84550890D01*
X80220128Y-84465000D01*
X79779872Y-84465000D01*
X79348075Y-84550890D01*
X78941331Y-84719369D01*
X78575271Y-84963962D01*
X78263962Y-85275271D01*
X78019369Y-85641331D01*
X77850890Y-86048075D01*
X77765000Y-86479872D01*
X70560000Y-86479872D01*
X70560000Y-85415333D01*
X70571414Y-85442889D01*
X70673738Y-85596028D01*
X70803972Y-85726262D01*
X70957111Y-85828586D01*
X71127271Y-85899068D01*
X71307911Y-85935000D01*
X71492089Y-85935000D01*
X71672729Y-85899068D01*
X71842889Y-85828586D01*
X71996028Y-85726262D01*
X72126262Y-85596028D01*
X72228586Y-85442889D01*
X72299068Y-85272729D01*
X72323153Y-85151649D01*
X73011004Y-84463798D01*
X73040001Y-84440001D01*
X73079385Y-84392012D01*
X73134974Y-84324277D01*
X73205546Y-84192247D01*
X73209743Y-84178412D01*
X73249003Y-84048986D01*
X73260000Y-83937333D01*
X73260000Y-83937323D01*
X73263676Y-83900000D01*
X73260000Y-83862677D01*
X73260000Y-74545535D01*
X73328586Y-74442889D01*
X73399068Y-74272729D01*
X73435000Y-74092089D01*
X73435000Y-73907911D01*
X73399068Y-73727271D01*
X73328586Y-73557111D01*
X73226262Y-73403972D01*
X73096028Y-73273738D01*
X72942889Y-73171414D01*
X72772729Y-73100932D01*
X72592089Y-73065000D01*
X72407911Y-73065000D01*
X72227271Y-73100932D01*
X72057111Y-73171414D01*
X71903972Y-73273738D01*
X71773738Y-73403972D01*
X71671414Y-73557111D01*
X71600932Y-73727271D01*
X71565000Y-73907911D01*
X71565000Y-74092089D01*
X71600932Y-74272729D01*
X71671414Y-74442889D01*
X71740001Y-74545537D01*
X71740000Y-83585198D01*
X71248351Y-84076847D01*
X71127271Y-84100932D01*
X70957111Y-84171414D01*
X70803972Y-84273738D01*
X70673738Y-84403972D01*
X70571414Y-84557111D01*
X70560000Y-84584667D01*
X70560000Y-76637322D01*
X70563676Y-76599999D01*
X70560000Y-76562676D01*
X70560000Y-76562667D01*
X70549003Y-76451014D01*
X70505546Y-76307753D01*
X70434974Y-76175724D01*
X70380633Y-76109509D01*
X70363799Y-76088996D01*
X70363795Y-76088992D01*
X70340001Y-76059999D01*
X70311008Y-76036205D01*
X63913804Y-69639003D01*
X63890001Y-69609999D01*
X63774276Y-69515026D01*
X63642247Y-69444454D01*
X63498986Y-69400997D01*
X63387333Y-69390000D01*
X63387322Y-69390000D01*
X63350000Y-69386324D01*
X63312678Y-69390000D01*
X58945535Y-69390000D01*
X58842889Y-69321414D01*
X58672729Y-69250932D01*
X58492089Y-69215000D01*
X58307911Y-69215000D01*
X58127271Y-69250932D01*
X57957111Y-69321414D01*
X57803972Y-69423738D01*
X57673738Y-69553972D01*
X57571414Y-69707111D01*
X57500932Y-69877271D01*
X57465000Y-70057911D01*
X57465000Y-70242089D01*
X57500932Y-70422729D01*
X57571414Y-70592889D01*
X57673738Y-70746028D01*
X57803972Y-70876262D01*
X57957111Y-70978586D01*
X58127271Y-71049068D01*
X58307911Y-71085000D01*
X58492089Y-71085000D01*
X58672729Y-71049068D01*
X58842889Y-70978586D01*
X58945535Y-70910000D01*
X63035199Y-70910000D01*
X69040001Y-76914804D01*
X69040000Y-89222678D01*
X69036324Y-89260000D01*
X69040000Y-89297322D01*
X69040000Y-89297332D01*
X69050997Y-89408985D01*
X69078606Y-89500000D01*
X69094454Y-89552246D01*
X69165026Y-89684276D01*
X69204871Y-89732826D01*
X69259999Y-89800001D01*
X69289003Y-89823804D01*
X71176200Y-91711002D01*
X71199999Y-91740001D01*
X71315724Y-91834974D01*
X71447753Y-91905546D01*
X71591014Y-91949003D01*
X71702667Y-91960000D01*
X71702676Y-91960000D01*
X71739999Y-91963676D01*
X71777322Y-91960000D01*
X73685199Y-91960000D01*
X77780001Y-96054803D01*
X77780001Y-96722405D01*
X77710986Y-96759294D01*
X77484866Y-96944866D01*
X77460393Y-96974687D01*
X77439502Y-96905820D01*
X77380537Y-96795506D01*
X77301185Y-96698815D01*
X77204494Y-96619463D01*
X77094180Y-96560498D01*
X76974482Y-96524188D01*
X76850000Y-96511928D01*
X76285750Y-96515000D01*
X76127000Y-96673750D01*
X76127000Y-97873000D01*
X76147000Y-97873000D01*
X76147000Y-98127000D01*
X76127000Y-98127000D01*
X76127000Y-98147000D01*
X75873000Y-98147000D01*
X75873000Y-98127000D01*
X74673750Y-98127000D01*
X74515000Y-98285750D01*
X74514683Y-98343940D01*
X74400814Y-98127000D01*
X73207000Y-98127000D01*
X73207000Y-98147000D01*
X72953000Y-98147000D01*
X72953000Y-98127000D01*
X72933000Y-98127000D01*
X72933000Y-97873000D01*
X72953000Y-97873000D01*
X72953000Y-96679845D01*
X73207000Y-96679845D01*
X73207000Y-97873000D01*
X74400814Y-97873000D01*
X74514683Y-97656060D01*
X74515000Y-97714250D01*
X74673750Y-97873000D01*
X75873000Y-97873000D01*
X75873000Y-96673750D01*
X75714250Y-96515000D01*
X75150000Y-96511928D01*
X75025518Y-96524188D01*
X74905820Y-96560498D01*
X74795506Y-96619463D01*
X74698815Y-96698815D01*
X74619463Y-96795506D01*
X74560498Y-96905820D01*
X74524188Y-97025518D01*
X74511928Y-97150000D01*
X74514506Y-97623445D01*
X74424157Y-97368748D01*
X74275178Y-97118645D01*
X74080269Y-96902412D01*
X73846920Y-96728359D01*
X73584099Y-96603175D01*
X73436890Y-96558524D01*
X73207000Y-96679845D01*
X72953000Y-96679845D01*
X72723110Y-96558524D01*
X72575901Y-96603175D01*
X72313080Y-96728359D01*
X72079731Y-96902412D01*
X71884822Y-97118645D01*
X71815201Y-97235523D01*
X71780706Y-97170986D01*
X71595134Y-96944866D01*
X71369014Y-96759294D01*
X71111034Y-96621401D01*
X70831111Y-96536487D01*
X70612950Y-96515000D01*
X70467050Y-96515000D01*
X70248889Y-96536487D01*
X69968966Y-96621401D01*
X69710986Y-96759294D01*
X69484866Y-96944866D01*
X69460393Y-96974687D01*
X69439502Y-96905820D01*
X69380537Y-96795506D01*
X69301185Y-96698815D01*
X69204494Y-96619463D01*
X69094180Y-96560498D01*
X68974482Y-96524188D01*
X68850000Y-96511928D01*
X67150000Y-96511928D01*
X67025518Y-96524188D01*
X66905820Y-96560498D01*
X66795506Y-96619463D01*
X66698815Y-96698815D01*
X66619463Y-96795506D01*
X66560498Y-96905820D01*
X66524188Y-97025518D01*
X66511928Y-97150000D01*
X66511928Y-98850000D01*
X66524188Y-98974482D01*
X66560498Y-99094180D01*
X66619463Y-99204494D01*
X66689636Y-99290000D01*
X51710000Y-99290000D01*
X51710000Y-91904495D01*
X65265000Y-91904495D01*
X65265000Y-92295505D01*
X65341282Y-92679003D01*
X65490915Y-93040250D01*
X65708149Y-93365364D01*
X65984636Y-93641851D01*
X66309750Y-93859085D01*
X66670997Y-94008718D01*
X67054495Y-94085000D01*
X67445505Y-94085000D01*
X67829003Y-94008718D01*
X68190250Y-93859085D01*
X68515364Y-93641851D01*
X68791851Y-93365364D01*
X69009085Y-93040250D01*
X69158718Y-92679003D01*
X69235000Y-92295505D01*
X69235000Y-91904495D01*
X69158718Y-91520997D01*
X69009085Y-91159750D01*
X68791851Y-90834636D01*
X68515364Y-90558149D01*
X68190250Y-90340915D01*
X67829003Y-90191282D01*
X67445505Y-90115000D01*
X67054495Y-90115000D01*
X66670997Y-90191282D01*
X66309750Y-90340915D01*
X65984636Y-90558149D01*
X65708149Y-90834636D01*
X65490915Y-91159750D01*
X65341282Y-91520997D01*
X65265000Y-91904495D01*
X51710000Y-91904495D01*
X51710000Y-85961578D01*
X54986939Y-89238518D01*
X54965000Y-89348816D01*
X54965000Y-89651184D01*
X55023989Y-89947743D01*
X55139701Y-90227095D01*
X55307688Y-90478505D01*
X55521495Y-90692312D01*
X55772905Y-90860299D01*
X56052257Y-90976011D01*
X56348816Y-91035000D01*
X56651184Y-91035000D01*
X56947743Y-90976011D01*
X57227095Y-90860299D01*
X57478505Y-90692312D01*
X57692312Y-90478505D01*
X57750000Y-90392169D01*
X57807688Y-90478505D01*
X58021495Y-90692312D01*
X58272905Y-90860299D01*
X58552257Y-90976011D01*
X58848816Y-91035000D01*
X59151184Y-91035000D01*
X59447743Y-90976011D01*
X59727095Y-90860299D01*
X59978505Y-90692312D01*
X60192312Y-90478505D01*
X60250000Y-90392169D01*
X60307688Y-90478505D01*
X60521495Y-90692312D01*
X60772905Y-90860299D01*
X61052257Y-90976011D01*
X61348816Y-91035000D01*
X61651184Y-91035000D01*
X61947743Y-90976011D01*
X62227095Y-90860299D01*
X62478505Y-90692312D01*
X62692312Y-90478505D01*
X62860299Y-90227095D01*
X62976011Y-89947743D01*
X63035000Y-89651184D01*
X63035000Y-89348816D01*
X62976011Y-89052257D01*
X62860299Y-88772905D01*
X62692312Y-88521495D01*
X62478505Y-88307688D01*
X62227095Y-88139701D01*
X61947743Y-88023989D01*
X61651184Y-87965000D01*
X61348816Y-87965000D01*
X61052257Y-88023989D01*
X60772905Y-88139701D01*
X60521495Y-88307688D01*
X60307688Y-88521495D01*
X60250000Y-88607831D01*
X60192312Y-88521495D01*
X59978505Y-88307688D01*
X59727095Y-88139701D01*
X59447743Y-88023989D01*
X59151184Y-87965000D01*
X58848816Y-87965000D01*
X58552257Y-88023989D01*
X58272905Y-88139701D01*
X58021495Y-88307688D01*
X57807688Y-88521495D01*
X57750000Y-88607831D01*
X57692312Y-88521495D01*
X57478505Y-88307688D01*
X57227095Y-88139701D01*
X56947743Y-88023989D01*
X56651184Y-87965000D01*
X56348816Y-87965000D01*
X56238518Y-87986939D01*
X52885000Y-84633422D01*
X52885000Y-83776220D01*
X52941637Y-83860983D01*
X53239017Y-84158363D01*
X53588698Y-84392012D01*
X53977244Y-84552953D01*
X54389721Y-84635000D01*
X54810279Y-84635000D01*
X55222756Y-84552953D01*
X55611302Y-84392012D01*
X55960983Y-84158363D01*
X56258363Y-83860983D01*
X56492012Y-83511302D01*
X56652953Y-83122756D01*
X56735000Y-82710279D01*
X56735000Y-82289721D01*
X61265000Y-82289721D01*
X61265000Y-82710279D01*
X61347047Y-83122756D01*
X61507988Y-83511302D01*
X61741637Y-83860983D01*
X62039017Y-84158363D01*
X62388698Y-84392012D01*
X62777244Y-84552953D01*
X63189721Y-84635000D01*
X63610279Y-84635000D01*
X64022756Y-84552953D01*
X64411302Y-84392012D01*
X64760983Y-84158363D01*
X65058363Y-83860983D01*
X65240000Y-83589143D01*
X65240000Y-85712677D01*
X65236324Y-85750000D01*
X65240000Y-85787322D01*
X65240000Y-85787332D01*
X65250997Y-85898985D01*
X65277491Y-85986324D01*
X65294454Y-86042246D01*
X65365026Y-86174276D01*
X65404871Y-86222826D01*
X65459999Y-86290001D01*
X65489002Y-86313804D01*
X66201847Y-87026649D01*
X66225932Y-87147729D01*
X66296414Y-87317889D01*
X66398738Y-87471028D01*
X66528972Y-87601262D01*
X66682111Y-87703586D01*
X66852271Y-87774068D01*
X67032911Y-87810000D01*
X67217089Y-87810000D01*
X67397729Y-87774068D01*
X67567889Y-87703586D01*
X67721028Y-87601262D01*
X67851262Y-87471028D01*
X67953586Y-87317889D01*
X68024068Y-87147729D01*
X68060000Y-86967089D01*
X68060000Y-86782911D01*
X68024068Y-86602271D01*
X67953586Y-86432111D01*
X67851262Y-86278972D01*
X67721028Y-86148738D01*
X67567889Y-86046414D01*
X67397729Y-85975932D01*
X67276649Y-85951847D01*
X66760000Y-85435199D01*
X66760000Y-79314801D01*
X67151649Y-78923153D01*
X67272729Y-78899068D01*
X67442889Y-78828586D01*
X67596028Y-78726262D01*
X67726262Y-78596028D01*
X67828586Y-78442889D01*
X67899068Y-78272729D01*
X67935000Y-78092089D01*
X67935000Y-77907911D01*
X67899068Y-77727271D01*
X67828586Y-77557111D01*
X67726262Y-77403972D01*
X67596028Y-77273738D01*
X67442889Y-77171414D01*
X67272729Y-77100932D01*
X67092089Y-77065000D01*
X66907911Y-77065000D01*
X66727271Y-77100932D01*
X66557111Y-77171414D01*
X66403972Y-77273738D01*
X66273738Y-77403972D01*
X66171414Y-77557111D01*
X66100932Y-77727271D01*
X66076847Y-77848351D01*
X65488998Y-78436201D01*
X65460000Y-78459999D01*
X65436202Y-78488997D01*
X65436201Y-78488998D01*
X65365026Y-78575724D01*
X65294454Y-78707754D01*
X65250998Y-78851015D01*
X65236324Y-79000000D01*
X65240001Y-79037332D01*
X65240001Y-81410857D01*
X65058363Y-81139017D01*
X64760983Y-80841637D01*
X64411302Y-80607988D01*
X64022756Y-80447047D01*
X63610279Y-80365000D01*
X63189721Y-80365000D01*
X62777244Y-80447047D01*
X62388698Y-80607988D01*
X62039017Y-80841637D01*
X61741637Y-81139017D01*
X61507988Y-81488698D01*
X61347047Y-81877244D01*
X61265000Y-82289721D01*
X56735000Y-82289721D01*
X56652953Y-81877244D01*
X56492012Y-81488698D01*
X56258363Y-81139017D01*
X55960983Y-80841637D01*
X55611302Y-80607988D01*
X55222756Y-80447047D01*
X54810279Y-80365000D01*
X54389721Y-80365000D01*
X53977244Y-80447047D01*
X53588698Y-80607988D01*
X53239017Y-80841637D01*
X52941637Y-81139017D01*
X52885000Y-81223780D01*
X52885000Y-63564080D01*
X55615525Y-63564080D01*
X55699208Y-63818261D01*
X55971775Y-63949158D01*
X56264642Y-64024365D01*
X56566553Y-64040991D01*
X56865907Y-63998397D01*
X57151199Y-63898222D01*
X57300792Y-63818261D01*
X57384475Y-63564080D01*
X56500000Y-62679605D01*
X55615525Y-63564080D01*
X52885000Y-63564080D01*
X52885000Y-62566553D01*
X54959009Y-62566553D01*
X55001603Y-62865907D01*
X55101778Y-63151199D01*
X55181739Y-63300792D01*
X55435920Y-63384475D01*
X56320395Y-62500000D01*
X56679605Y-62500000D01*
X57564080Y-63384475D01*
X57712262Y-63335690D01*
X57807688Y-63478505D01*
X58021495Y-63692312D01*
X58272905Y-63860299D01*
X58552257Y-63976011D01*
X58848816Y-64035000D01*
X59151184Y-64035000D01*
X59447743Y-63976011D01*
X59727095Y-63860299D01*
X59978505Y-63692312D01*
X60192312Y-63478505D01*
X60250000Y-63392169D01*
X60307688Y-63478505D01*
X60521495Y-63692312D01*
X60772905Y-63860299D01*
X61052257Y-63976011D01*
X61348816Y-64035000D01*
X61651184Y-64035000D01*
X61947743Y-63976011D01*
X62227095Y-63860299D01*
X62478505Y-63692312D01*
X62692312Y-63478505D01*
X62860299Y-63227095D01*
X62976011Y-62947743D01*
X63035000Y-62651184D01*
X63035000Y-62348816D01*
X62976011Y-62052257D01*
X62860299Y-61772905D01*
X62692312Y-61521495D01*
X62478505Y-61307688D01*
X62227095Y-61139701D01*
X61947743Y-61023989D01*
X61651184Y-60965000D01*
X61348816Y-60965000D01*
X61052257Y-61023989D01*
X60772905Y-61139701D01*
X60521495Y-61307688D01*
X60307688Y-61521495D01*
X60250000Y-61607831D01*
X60192312Y-61521495D01*
X59978505Y-61307688D01*
X59727095Y-61139701D01*
X59447743Y-61023989D01*
X59151184Y-60965000D01*
X58848816Y-60965000D01*
X58552257Y-61023989D01*
X58272905Y-61139701D01*
X58021495Y-61307688D01*
X57807688Y-61521495D01*
X57712262Y-61664310D01*
X57564080Y-61615525D01*
X56679605Y-62500000D01*
X56320395Y-62500000D01*
X55435920Y-61615525D01*
X55181739Y-61699208D01*
X55050842Y-61971775D01*
X54975635Y-62264642D01*
X54959009Y-62566553D01*
X52885000Y-62566553D01*
X52885000Y-61435920D01*
X55615525Y-61435920D01*
X56500000Y-62320395D01*
X57384475Y-61435920D01*
X57300792Y-61181739D01*
X57028225Y-61050842D01*
X56735358Y-60975635D01*
X56433447Y-60959009D01*
X56134093Y-61001603D01*
X55848801Y-61101778D01*
X55699208Y-61181739D01*
X55615525Y-61435920D01*
X52885000Y-61435920D01*
X52885000Y-56776220D01*
X52941637Y-56860983D01*
X53239017Y-57158363D01*
X53588698Y-57392012D01*
X53977244Y-57552953D01*
X54389721Y-57635000D01*
X54810279Y-57635000D01*
X55222756Y-57552953D01*
X55611302Y-57392012D01*
X55960983Y-57158363D01*
X56258363Y-56860983D01*
X56492012Y-56511302D01*
X56652953Y-56122756D01*
X56735000Y-55710279D01*
X56735000Y-55289721D01*
X61265000Y-55289721D01*
X61265000Y-55710279D01*
X61347047Y-56122756D01*
X61507988Y-56511302D01*
X61741637Y-56860983D01*
X62039017Y-57158363D01*
X62388698Y-57392012D01*
X62777244Y-57552953D01*
X63189721Y-57635000D01*
X63610279Y-57635000D01*
X64022756Y-57552953D01*
X64411302Y-57392012D01*
X64760983Y-57158363D01*
X65058363Y-56860983D01*
X65292012Y-56511302D01*
X65452953Y-56122756D01*
X65535000Y-55710279D01*
X65535000Y-55580000D01*
X66857319Y-55580000D01*
X66887970Y-55891204D01*
X66978745Y-56190449D01*
X67126155Y-56466235D01*
X67324537Y-56707963D01*
X67365000Y-56741171D01*
X67365001Y-59694239D01*
X67359509Y-59750000D01*
X67381423Y-59972498D01*
X67446324Y-60186446D01*
X67446325Y-60186447D01*
X67551717Y-60383623D01*
X67693552Y-60556449D01*
X67736859Y-60591991D01*
X68061928Y-60917060D01*
X68061928Y-61550000D01*
X68074188Y-61674482D01*
X68110498Y-61794180D01*
X68169463Y-61904494D01*
X68248815Y-62001185D01*
X68345506Y-62080537D01*
X68455820Y-62139502D01*
X68551943Y-62168661D01*
X68385363Y-62335241D01*
X68228320Y-62570273D01*
X68120147Y-62831426D01*
X68065000Y-63108665D01*
X68065000Y-63391335D01*
X68120147Y-63668574D01*
X68228320Y-63929727D01*
X68365000Y-64134284D01*
X68365001Y-66694239D01*
X68359509Y-66750000D01*
X68381423Y-66972498D01*
X68446324Y-67186446D01*
X68446325Y-67186447D01*
X68551717Y-67383623D01*
X68693552Y-67556449D01*
X68736860Y-67591991D01*
X74115001Y-72970133D01*
X74115000Y-77194248D01*
X74109509Y-77250000D01*
X74115000Y-77305751D01*
X74131423Y-77472498D01*
X74196324Y-77686446D01*
X74301716Y-77883623D01*
X74443551Y-78056449D01*
X74486865Y-78091996D01*
X77832980Y-81438112D01*
X77765000Y-81779872D01*
X77765000Y-82220128D01*
X77850890Y-82651925D01*
X78019369Y-83058669D01*
X78263962Y-83424729D01*
X78575271Y-83736038D01*
X78941331Y-83980631D01*
X79348075Y-84149110D01*
X79779872Y-84235000D01*
X80220128Y-84235000D01*
X80651925Y-84149110D01*
X81058669Y-83980631D01*
X81424729Y-83736038D01*
X81736038Y-83424729D01*
X81980631Y-83058669D01*
X82149110Y-82651925D01*
X82235000Y-82220128D01*
X82235000Y-81779872D01*
X82149110Y-81348075D01*
X81980631Y-80941331D01*
X81736038Y-80575271D01*
X81424729Y-80263962D01*
X81058669Y-80019369D01*
X80651925Y-79850890D01*
X80220128Y-79765000D01*
X79779872Y-79765000D01*
X79438112Y-79832980D01*
X78773867Y-79168735D01*
X78941331Y-79280631D01*
X79348075Y-79449110D01*
X79779872Y-79535000D01*
X80220128Y-79535000D01*
X80651925Y-79449110D01*
X81058669Y-79280631D01*
X81424729Y-79036038D01*
X81736038Y-78724729D01*
X81980631Y-78358669D01*
X82149110Y-77951925D01*
X82235000Y-77520128D01*
X82235000Y-77079872D01*
X82149110Y-76648075D01*
X81980631Y-76241331D01*
X81736038Y-75875271D01*
X81424729Y-75563962D01*
X81058669Y-75319369D01*
X80651925Y-75150890D01*
X80220128Y-75065000D01*
X79779872Y-75065000D01*
X79348075Y-75150890D01*
X78941331Y-75319369D01*
X78575271Y-75563962D01*
X78263962Y-75875271D01*
X78019369Y-76241331D01*
X77850890Y-76648075D01*
X77765000Y-77079872D01*
X77765000Y-77520128D01*
X77850890Y-77951925D01*
X78019369Y-78358669D01*
X78131265Y-78526134D01*
X76385000Y-76779869D01*
X76385000Y-72555751D01*
X76390491Y-72500000D01*
X76368577Y-72277501D01*
X76303676Y-72063553D01*
X76297350Y-72051717D01*
X76198284Y-71866377D01*
X76056449Y-71693551D01*
X76013141Y-71658009D01*
X74059627Y-69704495D01*
X79265000Y-69704495D01*
X79265000Y-70095505D01*
X79341282Y-70479003D01*
X79490915Y-70840250D01*
X79708149Y-71165364D01*
X79984636Y-71441851D01*
X80309750Y-71659085D01*
X80670997Y-71808718D01*
X81054495Y-71885000D01*
X81445505Y-71885000D01*
X81829003Y-71808718D01*
X82190250Y-71659085D01*
X82515364Y-71441851D01*
X82791851Y-71165364D01*
X83009085Y-70840250D01*
X83158718Y-70479003D01*
X83235000Y-70095505D01*
X83235000Y-69704495D01*
X83158718Y-69320997D01*
X83009085Y-68959750D01*
X82791851Y-68634636D01*
X82515364Y-68358149D01*
X82190250Y-68140915D01*
X81829003Y-67991282D01*
X81445505Y-67915000D01*
X81054495Y-67915000D01*
X80670997Y-67991282D01*
X80309750Y-68140915D01*
X79984636Y-68358149D01*
X79708149Y-68634636D01*
X79490915Y-68959750D01*
X79341282Y-69320997D01*
X79265000Y-69704495D01*
X74059627Y-69704495D01*
X70635000Y-66279869D01*
X70635000Y-64134284D01*
X70771680Y-63929727D01*
X70879853Y-63668574D01*
X70935000Y-63391335D01*
X70935000Y-63108665D01*
X70879853Y-62831426D01*
X70771680Y-62570273D01*
X70614637Y-62335241D01*
X70448057Y-62168661D01*
X70544180Y-62139502D01*
X70654494Y-62080537D01*
X70751185Y-62001185D01*
X70830537Y-61904494D01*
X70889502Y-61794180D01*
X70925812Y-61674482D01*
X70938072Y-61550000D01*
X70938072Y-59950000D01*
X70925812Y-59825518D01*
X70889502Y-59705820D01*
X70830537Y-59595506D01*
X70751185Y-59498815D01*
X70654494Y-59419463D01*
X70544180Y-59360498D01*
X70424482Y-59324188D01*
X70300000Y-59311928D01*
X69667060Y-59311928D01*
X69635000Y-59279868D01*
X69635000Y-56741170D01*
X69666888Y-56715000D01*
X72833112Y-56715000D01*
X73066265Y-56906345D01*
X73342051Y-57053755D01*
X73641296Y-57144530D01*
X73874514Y-57167500D01*
X74125486Y-57167500D01*
X74358704Y-57144530D01*
X74657949Y-57053755D01*
X74914990Y-56916364D01*
X74914991Y-59879877D01*
X74236864Y-60558004D01*
X74193551Y-60593551D01*
X74051716Y-60766377D01*
X73985377Y-60890491D01*
X73946324Y-60963554D01*
X73881423Y-61177502D01*
X73859509Y-61400000D01*
X73865000Y-61455752D01*
X73865000Y-62053855D01*
X73810498Y-62155820D01*
X73774188Y-62275518D01*
X73761928Y-62400000D01*
X73761928Y-64600000D01*
X73774188Y-64724482D01*
X73810498Y-64844180D01*
X73869463Y-64954494D01*
X73948815Y-65051185D01*
X74045506Y-65130537D01*
X74155820Y-65189502D01*
X74275518Y-65225812D01*
X74400000Y-65238072D01*
X76600000Y-65238072D01*
X76724482Y-65225812D01*
X76844180Y-65189502D01*
X76954494Y-65130537D01*
X77051185Y-65051185D01*
X77130537Y-64954494D01*
X77189502Y-64844180D01*
X77225812Y-64724482D01*
X77238072Y-64600000D01*
X77238072Y-62400000D01*
X77225812Y-62275518D01*
X77189502Y-62155820D01*
X77130537Y-62045506D01*
X77051185Y-61948815D01*
X76954494Y-61869463D01*
X76844180Y-61810498D01*
X76724482Y-61774188D01*
X76600000Y-61761928D01*
X76243203Y-61761928D01*
X76813130Y-61192002D01*
X76856439Y-61156459D01*
X76998274Y-60983633D01*
X77103666Y-60786457D01*
X77168567Y-60572509D01*
X77184990Y-60405762D01*
X77190481Y-60350011D01*
X77184990Y-60294259D01*
X77184990Y-55098242D01*
X77190481Y-55042490D01*
X77168567Y-54819991D01*
X77156397Y-54779872D01*
X77765000Y-54779872D01*
X77765000Y-55220128D01*
X77850890Y-55651925D01*
X78019369Y-56058669D01*
X78263962Y-56424729D01*
X78575271Y-56736038D01*
X78941331Y-56980631D01*
X79348075Y-57149110D01*
X79779872Y-57235000D01*
X80220128Y-57235000D01*
X80651925Y-57149110D01*
X81058669Y-56980631D01*
X81424729Y-56736038D01*
X81736038Y-56424729D01*
X81980631Y-56058669D01*
X82149110Y-55651925D01*
X82235000Y-55220128D01*
X82235000Y-54843891D01*
X85875000Y-54843891D01*
X85875000Y-55156109D01*
X85935911Y-55462327D01*
X86055391Y-55750779D01*
X86228850Y-56010379D01*
X86449621Y-56231150D01*
X86709221Y-56404609D01*
X86997673Y-56524089D01*
X87303891Y-56585000D01*
X87616109Y-56585000D01*
X87922327Y-56524089D01*
X88210779Y-56404609D01*
X88458877Y-56238836D01*
X88460498Y-56244180D01*
X88519463Y-56354494D01*
X88598815Y-56451185D01*
X88695506Y-56530537D01*
X88805820Y-56589502D01*
X88925518Y-56625812D01*
X89050000Y-56638072D01*
X89714250Y-56635000D01*
X89873000Y-56476250D01*
X89873000Y-55127000D01*
X90127000Y-55127000D01*
X90127000Y-56476250D01*
X90285750Y-56635000D01*
X90950000Y-56638072D01*
X91074482Y-56625812D01*
X91194180Y-56589502D01*
X91304494Y-56530537D01*
X91401185Y-56451185D01*
X91480537Y-56354494D01*
X91539502Y-56244180D01*
X91575812Y-56124482D01*
X91588072Y-56000000D01*
X91585018Y-55289721D01*
X94465000Y-55289721D01*
X94465000Y-55710279D01*
X94547047Y-56122756D01*
X94707988Y-56511302D01*
X94941637Y-56860983D01*
X95239017Y-57158363D01*
X95588698Y-57392012D01*
X95977244Y-57552953D01*
X96389721Y-57635000D01*
X96810279Y-57635000D01*
X97222756Y-57552953D01*
X97611302Y-57392012D01*
X97960983Y-57158363D01*
X98258363Y-56860983D01*
X98492012Y-56511302D01*
X98652953Y-56122756D01*
X98735000Y-55710279D01*
X98735000Y-55499843D01*
X100179762Y-55499843D01*
X100252556Y-55744832D01*
X100509773Y-55866733D01*
X100785829Y-55936110D01*
X101070115Y-55950298D01*
X101351706Y-55908752D01*
X101619783Y-55813068D01*
X101747444Y-55744832D01*
X101820238Y-55499843D01*
X101000000Y-54679605D01*
X100179762Y-55499843D01*
X98735000Y-55499843D01*
X98735000Y-55289721D01*
X98652953Y-54877244D01*
X98525737Y-54570115D01*
X99549702Y-54570115D01*
X99591248Y-54851706D01*
X99686932Y-55119783D01*
X99755168Y-55247444D01*
X100000157Y-55320238D01*
X100820395Y-54500000D01*
X101179605Y-54500000D01*
X101999843Y-55320238D01*
X102244832Y-55247444D01*
X102366733Y-54990227D01*
X102436110Y-54714171D01*
X102450298Y-54429885D01*
X102408752Y-54148294D01*
X102313068Y-53880217D01*
X102244832Y-53752556D01*
X101999843Y-53679762D01*
X101179605Y-54500000D01*
X100820395Y-54500000D01*
X100000157Y-53679762D01*
X99755168Y-53752556D01*
X99633267Y-54009773D01*
X99563890Y-54285829D01*
X99549702Y-54570115D01*
X98525737Y-54570115D01*
X98492012Y-54488698D01*
X98258363Y-54139017D01*
X97960983Y-53841637D01*
X97611302Y-53607988D01*
X97350975Y-53500157D01*
X100179762Y-53500157D01*
X101000000Y-54320395D01*
X101820238Y-53500157D01*
X101747444Y-53255168D01*
X101490227Y-53133267D01*
X101214171Y-53063890D01*
X100929885Y-53049702D01*
X100648294Y-53091248D01*
X100380217Y-53186932D01*
X100252556Y-53255168D01*
X100179762Y-53500157D01*
X97350975Y-53500157D01*
X97222756Y-53447047D01*
X96810279Y-53365000D01*
X96389721Y-53365000D01*
X95977244Y-53447047D01*
X95588698Y-53607988D01*
X95239017Y-53841637D01*
X94941637Y-54139017D01*
X94707988Y-54488698D01*
X94547047Y-54877244D01*
X94465000Y-55289721D01*
X91585018Y-55289721D01*
X91585000Y-55285750D01*
X91426250Y-55127000D01*
X90127000Y-55127000D01*
X89873000Y-55127000D01*
X89853000Y-55127000D01*
X89853000Y-54873000D01*
X89873000Y-54873000D01*
X89873000Y-53523750D01*
X90127000Y-53523750D01*
X90127000Y-54873000D01*
X91426250Y-54873000D01*
X91585000Y-54714250D01*
X91588072Y-54000000D01*
X91575812Y-53875518D01*
X91539502Y-53755820D01*
X91480537Y-53645506D01*
X91401185Y-53548815D01*
X91304494Y-53469463D01*
X91194180Y-53410498D01*
X91074482Y-53374188D01*
X90950000Y-53361928D01*
X90285750Y-53365000D01*
X90127000Y-53523750D01*
X89873000Y-53523750D01*
X89714250Y-53365000D01*
X89050000Y-53361928D01*
X88925518Y-53374188D01*
X88805820Y-53410498D01*
X88695506Y-53469463D01*
X88598815Y-53548815D01*
X88519463Y-53645506D01*
X88460498Y-53755820D01*
X88458877Y-53761164D01*
X88210779Y-53595391D01*
X87922327Y-53475911D01*
X87616109Y-53415000D01*
X87303891Y-53415000D01*
X86997673Y-53475911D01*
X86709221Y-53595391D01*
X86449621Y-53768850D01*
X86228850Y-53989621D01*
X86055391Y-54249221D01*
X85935911Y-54537673D01*
X85875000Y-54843891D01*
X82235000Y-54843891D01*
X82235000Y-54779872D01*
X82149110Y-54348075D01*
X81980631Y-53941331D01*
X81736038Y-53575271D01*
X81424729Y-53263962D01*
X81058669Y-53019369D01*
X80651925Y-52850890D01*
X80220128Y-52765000D01*
X79779872Y-52765000D01*
X79348075Y-52850890D01*
X78941331Y-53019369D01*
X78575271Y-53263962D01*
X78263962Y-53575271D01*
X78019369Y-53941331D01*
X77850890Y-54348075D01*
X77765000Y-54779872D01*
X77156397Y-54779872D01*
X77103666Y-54606043D01*
X76998274Y-54408867D01*
X76891979Y-54279346D01*
X76891977Y-54279344D01*
X76856439Y-54236041D01*
X76813136Y-54200503D01*
X75641594Y-53028962D01*
X75612030Y-52728796D01*
X75521255Y-52429551D01*
X75373845Y-52153765D01*
X75270554Y-52027905D01*
X75354494Y-51983037D01*
X75451185Y-51903685D01*
X75530537Y-51806994D01*
X75589502Y-51696680D01*
X75625812Y-51576982D01*
X75638072Y-51452500D01*
X75638072Y-49547500D01*
X75625812Y-49423018D01*
X75589502Y-49303320D01*
X75530537Y-49193006D01*
X75451185Y-49096315D01*
X75354494Y-49016963D01*
X75244180Y-48957998D01*
X75124482Y-48921688D01*
X75000000Y-48909428D01*
X73000000Y-48909428D01*
X72875518Y-48921688D01*
X72755820Y-48957998D01*
X72645506Y-49016963D01*
X72548815Y-49096315D01*
X72469463Y-49193006D01*
X72410498Y-49303320D01*
X72391788Y-49365000D01*
X70108212Y-49365000D01*
X70089502Y-49303320D01*
X70030537Y-49193006D01*
X69951185Y-49096315D01*
X69854494Y-49016963D01*
X69744180Y-48957998D01*
X69624482Y-48921688D01*
X69500000Y-48909428D01*
X67500000Y-48909428D01*
X67375518Y-48921688D01*
X67255820Y-48957998D01*
X67145506Y-49016963D01*
X67048815Y-49096315D01*
X66969463Y-49193006D01*
X66910498Y-49303320D01*
X66874188Y-49423018D01*
X66861928Y-49547500D01*
X66861928Y-51452500D01*
X66874188Y-51576982D01*
X66910498Y-51696680D01*
X66969463Y-51806994D01*
X67048815Y-51903685D01*
X67145506Y-51983037D01*
X67237219Y-52032059D01*
X67124031Y-52173077D01*
X66980429Y-52448906D01*
X66909437Y-52667020D01*
X67029406Y-52913000D01*
X68373000Y-52913000D01*
X68373000Y-52893000D01*
X68627000Y-52893000D01*
X68627000Y-52913000D01*
X69970594Y-52913000D01*
X70090563Y-52667020D01*
X70019571Y-52448906D01*
X69875969Y-52173077D01*
X69762781Y-52032059D01*
X69854494Y-51983037D01*
X69951185Y-51903685D01*
X70030537Y-51806994D01*
X70089502Y-51696680D01*
X70108212Y-51635000D01*
X72391788Y-51635000D01*
X72410498Y-51696680D01*
X72469463Y-51806994D01*
X72548815Y-51903685D01*
X72645506Y-51983037D01*
X72729446Y-52027905D01*
X72626155Y-52153765D01*
X72478745Y-52429551D01*
X72387970Y-52728796D01*
X72357319Y-53040000D01*
X72387970Y-53351204D01*
X72478745Y-53650449D01*
X72626155Y-53926235D01*
X72824537Y-54167963D01*
X72997609Y-54310000D01*
X72833112Y-54445000D01*
X69666888Y-54445000D01*
X69496101Y-54304837D01*
X69681315Y-54149437D01*
X69875969Y-53906923D01*
X70019571Y-53631094D01*
X70090563Y-53412980D01*
X69970594Y-53167000D01*
X68627000Y-53167000D01*
X68627000Y-53187000D01*
X68373000Y-53187000D01*
X68373000Y-53167000D01*
X67029406Y-53167000D01*
X66909437Y-53412980D01*
X66980429Y-53631094D01*
X67124031Y-53906923D01*
X67318685Y-54149437D01*
X67503899Y-54304837D01*
X67324537Y-54452037D01*
X67126155Y-54693765D01*
X66978745Y-54969551D01*
X66887970Y-55268796D01*
X66857319Y-55580000D01*
X65535000Y-55580000D01*
X65535000Y-55289721D01*
X65452953Y-54877244D01*
X65292012Y-54488698D01*
X65058363Y-54139017D01*
X64760983Y-53841637D01*
X64411302Y-53607988D01*
X64022756Y-53447047D01*
X63610279Y-53365000D01*
X63189721Y-53365000D01*
X62777244Y-53447047D01*
X62388698Y-53607988D01*
X62039017Y-53841637D01*
X61741637Y-54139017D01*
X61507988Y-54488698D01*
X61347047Y-54877244D01*
X61265000Y-55289721D01*
X56735000Y-55289721D01*
X56652953Y-54877244D01*
X56492012Y-54488698D01*
X56258363Y-54139017D01*
X55960983Y-53841637D01*
X55611302Y-53607988D01*
X55222756Y-53447047D01*
X54810279Y-53365000D01*
X54389721Y-53365000D01*
X53977244Y-53447047D01*
X53682405Y-53569173D01*
X55366579Y-51885000D01*
X56456531Y-51885000D01*
X56500000Y-51889281D01*
X56543469Y-51885000D01*
X56543477Y-51885000D01*
X56673490Y-51872195D01*
X56840313Y-51821589D01*
X56994059Y-51739411D01*
X57128817Y-51628817D01*
X57156534Y-51595044D01*
X59866579Y-48885000D01*
X78257461Y-48885000D01*
X78019369Y-49241331D01*
G36*
X104413962Y-76074729D02*
G01*
X104725271Y-76386038D01*
X105091331Y-76630631D01*
X105498075Y-76799110D01*
X105929872Y-76885000D01*
X106370128Y-76885000D01*
X106801925Y-76799110D01*
X107077425Y-76684994D01*
X102854955Y-80907465D01*
X102821182Y-80935182D01*
X102710588Y-81069941D01*
X102628410Y-81223687D01*
X102577804Y-81390510D01*
X102564999Y-81520523D01*
X102564999Y-81520530D01*
X102560718Y-81563999D01*
X102564999Y-81607468D01*
X102565000Y-88133728D01*
X102560718Y-88177207D01*
X102570353Y-88275042D01*
X102521495Y-88307688D01*
X102307688Y-88521495D01*
X102250000Y-88607831D01*
X102192312Y-88521495D01*
X101978505Y-88307688D01*
X101727095Y-88139701D01*
X101447743Y-88023989D01*
X101151184Y-87965000D01*
X100848816Y-87965000D01*
X100552257Y-88023989D01*
X100272905Y-88139701D01*
X100021495Y-88307688D01*
X99807688Y-88521495D01*
X99712262Y-88664310D01*
X99564080Y-88615525D01*
X98679605Y-89500000D01*
X99564080Y-90384475D01*
X99712262Y-90335690D01*
X99807688Y-90478505D01*
X100021495Y-90692312D01*
X100272905Y-90860299D01*
X100552257Y-90976011D01*
X100848816Y-91035000D01*
X101151184Y-91035000D01*
X101447743Y-90976011D01*
X101727095Y-90860299D01*
X101978505Y-90692312D01*
X102192312Y-90478505D01*
X102250000Y-90392169D01*
X102307688Y-90478505D01*
X102521495Y-90692312D01*
X102772905Y-90860299D01*
X103052257Y-90976011D01*
X103348816Y-91035000D01*
X103651184Y-91035000D01*
X103947743Y-90976011D01*
X104227095Y-90860299D01*
X104478505Y-90692312D01*
X104692312Y-90478505D01*
X104860299Y-90227095D01*
X104976011Y-89947743D01*
X105035000Y-89651184D01*
X105035000Y-89348816D01*
X105021971Y-89283313D01*
X105326607Y-89439426D01*
X105750055Y-89559914D01*
X106188873Y-89595476D01*
X106626197Y-89544746D01*
X107045221Y-89409674D01*
X107365198Y-89238643D01*
X107533239Y-88912845D01*
X106150000Y-87529605D01*
X106135858Y-87543748D01*
X105956252Y-87364142D01*
X105970395Y-87350000D01*
X104587155Y-85966761D01*
X104334999Y-86096819D01*
X104334999Y-85787155D01*
X104766761Y-85787155D01*
X106150000Y-87170395D01*
X107533239Y-85787155D01*
X107365198Y-85461357D01*
X106973393Y-85260574D01*
X106549945Y-85140086D01*
X106111127Y-85104524D01*
X105673803Y-85155254D01*
X105254779Y-85290326D01*
X104934802Y-85461357D01*
X104766761Y-85787155D01*
X104334999Y-85787155D01*
X104334999Y-84356132D01*
X104388698Y-84392012D01*
X104777244Y-84552953D01*
X105189721Y-84635000D01*
X105610279Y-84635000D01*
X106022756Y-84552953D01*
X106411302Y-84392012D01*
X106760983Y-84158363D01*
X107058363Y-83860983D01*
X107292012Y-83511302D01*
X107452953Y-83122756D01*
X107535000Y-82710279D01*
X107535000Y-82289721D01*
X107452953Y-81877244D01*
X107292012Y-81488698D01*
X107058363Y-81139017D01*
X106760983Y-80841637D01*
X106411302Y-80607988D01*
X106022756Y-80447047D01*
X105852413Y-80413164D01*
X108290000Y-77975576D01*
X108290000Y-86703969D01*
X108209674Y-86454779D01*
X108038643Y-86134802D01*
X107712845Y-85966761D01*
X106329605Y-87350000D01*
X107712845Y-88733239D01*
X108038643Y-88565198D01*
X108239426Y-88173393D01*
X108290000Y-87995653D01*
X108290000Y-99290000D01*
X92768376Y-99290000D01*
X92806920Y-99271641D01*
X93040269Y-99097588D01*
X93235178Y-98881355D01*
X93384157Y-98631252D01*
X93481481Y-98356891D01*
X93360814Y-98127000D01*
X92167000Y-98127000D01*
X92167000Y-98147000D01*
X91913000Y-98147000D01*
X91913000Y-98127000D01*
X91893000Y-98127000D01*
X91893000Y-97873000D01*
X91913000Y-97873000D01*
X91913000Y-96679845D01*
X92167000Y-96679845D01*
X92167000Y-97873000D01*
X93360814Y-97873000D01*
X93481481Y-97643109D01*
X93384157Y-97368748D01*
X93235178Y-97118645D01*
X93040269Y-96902412D01*
X92806920Y-96728359D01*
X92544099Y-96603175D01*
X92396890Y-96558524D01*
X92167000Y-96679845D01*
X91913000Y-96679845D01*
X91683110Y-96558524D01*
X91535901Y-96603175D01*
X91273080Y-96728359D01*
X91039731Y-96902412D01*
X90963966Y-96986466D01*
X90939502Y-96905820D01*
X90880537Y-96795506D01*
X90801185Y-96698815D01*
X90704494Y-96619463D01*
X90594180Y-96560498D01*
X90474482Y-96524188D01*
X90350000Y-96511928D01*
X89633203Y-96511928D01*
X93263141Y-92881991D01*
X93306449Y-92846449D01*
X93375692Y-92762076D01*
X93490915Y-93040250D01*
X93708149Y-93365364D01*
X93984636Y-93641851D01*
X94309750Y-93859085D01*
X94670997Y-94008718D01*
X95054495Y-94085000D01*
X95445505Y-94085000D01*
X95829003Y-94008718D01*
X96190250Y-93859085D01*
X96515364Y-93641851D01*
X96791851Y-93365364D01*
X97009085Y-93040250D01*
X97158718Y-92679003D01*
X97235000Y-92295505D01*
X97235000Y-91904495D01*
X97158718Y-91520997D01*
X97009085Y-91159750D01*
X96791851Y-90834636D01*
X96521295Y-90564080D01*
X97615525Y-90564080D01*
X97699208Y-90818261D01*
X97971775Y-90949158D01*
X98264642Y-91024365D01*
X98566553Y-91040991D01*
X98865907Y-90998397D01*
X99151199Y-90898222D01*
X99300792Y-90818261D01*
X99384475Y-90564080D01*
X98500000Y-89679605D01*
X97615525Y-90564080D01*
X96521295Y-90564080D01*
X96515364Y-90558149D01*
X96190250Y-90340915D01*
X95829003Y-90191282D01*
X95445505Y-90115000D01*
X95054495Y-90115000D01*
X94670997Y-90191282D01*
X94309750Y-90340915D01*
X93984636Y-90558149D01*
X93708149Y-90834636D01*
X93635000Y-90944111D01*
X93635000Y-89566553D01*
X96959009Y-89566553D01*
X97001603Y-89865907D01*
X97101778Y-90151199D01*
X97181739Y-90300792D01*
X97435920Y-90384475D01*
X98320395Y-89500000D01*
X97435920Y-88615525D01*
X97181739Y-88699208D01*
X97050842Y-88971775D01*
X96975635Y-89264642D01*
X96959009Y-89566553D01*
X93635000Y-89566553D01*
X93635000Y-88435920D01*
X97615525Y-88435920D01*
X98500000Y-89320395D01*
X99384475Y-88435920D01*
X99300792Y-88181739D01*
X99028225Y-88050842D01*
X98735358Y-87975635D01*
X98433447Y-87959009D01*
X98134093Y-88001603D01*
X97848801Y-88101778D01*
X97699208Y-88181739D01*
X97615525Y-88435920D01*
X93635000Y-88435920D01*
X93635000Y-82289721D01*
X94465000Y-82289721D01*
X94465000Y-82710279D01*
X94547047Y-83122756D01*
X94707988Y-83511302D01*
X94941637Y-83860983D01*
X95239017Y-84158363D01*
X95588698Y-84392012D01*
X95977244Y-84552953D01*
X96389721Y-84635000D01*
X96810279Y-84635000D01*
X97222756Y-84552953D01*
X97611302Y-84392012D01*
X97960983Y-84158363D01*
X98258363Y-83860983D01*
X98492012Y-83511302D01*
X98652953Y-83122756D01*
X98735000Y-82710279D01*
X98735000Y-82289721D01*
X98652953Y-81877244D01*
X98492012Y-81488698D01*
X98258363Y-81139017D01*
X97960983Y-80841637D01*
X97611302Y-80607988D01*
X97222756Y-80447047D01*
X96810279Y-80365000D01*
X96389721Y-80365000D01*
X95977244Y-80447047D01*
X95588698Y-80607988D01*
X95239017Y-80841637D01*
X94941637Y-81139017D01*
X94707988Y-81488698D01*
X94547047Y-81877244D01*
X94465000Y-82289721D01*
X93635000Y-82289721D01*
X93635000Y-81470131D01*
X99320132Y-75785000D01*
X104220372Y-75785000D01*
X104413962Y-76074729D01*
X104413962Y-76074729D01*
G37*
X104413962Y-76074729D02*
X104725271Y-76386038D01*
X105091331Y-76630631D01*
X105498075Y-76799110D01*
X105929872Y-76885000D01*
X106370128Y-76885000D01*
X106801925Y-76799110D01*
X107077425Y-76684994D01*
X102854955Y-80907465D01*
X102821182Y-80935182D01*
X102710588Y-81069941D01*
X102628410Y-81223687D01*
X102577804Y-81390510D01*
X102564999Y-81520523D01*
X102564999Y-81520530D01*
X102560718Y-81563999D01*
X102564999Y-81607468D01*
X102565000Y-88133728D01*
X102560718Y-88177207D01*
X102570353Y-88275042D01*
X102521495Y-88307688D01*
X102307688Y-88521495D01*
X102250000Y-88607831D01*
X102192312Y-88521495D01*
X101978505Y-88307688D01*
X101727095Y-88139701D01*
X101447743Y-88023989D01*
X101151184Y-87965000D01*
X100848816Y-87965000D01*
X100552257Y-88023989D01*
X100272905Y-88139701D01*
X100021495Y-88307688D01*
X99807688Y-88521495D01*
X99712262Y-88664310D01*
X99564080Y-88615525D01*
X98679605Y-89500000D01*
X99564080Y-90384475D01*
X99712262Y-90335690D01*
X99807688Y-90478505D01*
X100021495Y-90692312D01*
X100272905Y-90860299D01*
X100552257Y-90976011D01*
X100848816Y-91035000D01*
X101151184Y-91035000D01*
X101447743Y-90976011D01*
X101727095Y-90860299D01*
X101978505Y-90692312D01*
X102192312Y-90478505D01*
X102250000Y-90392169D01*
X102307688Y-90478505D01*
X102521495Y-90692312D01*
X102772905Y-90860299D01*
X103052257Y-90976011D01*
X103348816Y-91035000D01*
X103651184Y-91035000D01*
X103947743Y-90976011D01*
X104227095Y-90860299D01*
X104478505Y-90692312D01*
X104692312Y-90478505D01*
X104860299Y-90227095D01*
X104976011Y-89947743D01*
X105035000Y-89651184D01*
X105035000Y-89348816D01*
X105021971Y-89283313D01*
X105326607Y-89439426D01*
X105750055Y-89559914D01*
X106188873Y-89595476D01*
X106626197Y-89544746D01*
X107045221Y-89409674D01*
X107365198Y-89238643D01*
X107533239Y-88912845D01*
X106150000Y-87529605D01*
X106135858Y-87543748D01*
X105956252Y-87364142D01*
X105970395Y-87350000D01*
X104587155Y-85966761D01*
X104334999Y-86096819D01*
X104334999Y-85787155D01*
X104766761Y-85787155D01*
X106150000Y-87170395D01*
X107533239Y-85787155D01*
X107365198Y-85461357D01*
X106973393Y-85260574D01*
X106549945Y-85140086D01*
X106111127Y-85104524D01*
X105673803Y-85155254D01*
X105254779Y-85290326D01*
X104934802Y-85461357D01*
X104766761Y-85787155D01*
X104334999Y-85787155D01*
X104334999Y-84356132D01*
X104388698Y-84392012D01*
X104777244Y-84552953D01*
X105189721Y-84635000D01*
X105610279Y-84635000D01*
X106022756Y-84552953D01*
X106411302Y-84392012D01*
X106760983Y-84158363D01*
X107058363Y-83860983D01*
X107292012Y-83511302D01*
X107452953Y-83122756D01*
X107535000Y-82710279D01*
X107535000Y-82289721D01*
X107452953Y-81877244D01*
X107292012Y-81488698D01*
X107058363Y-81139017D01*
X106760983Y-80841637D01*
X106411302Y-80607988D01*
X106022756Y-80447047D01*
X105852413Y-80413164D01*
X108290000Y-77975576D01*
X108290000Y-86703969D01*
X108209674Y-86454779D01*
X108038643Y-86134802D01*
X107712845Y-85966761D01*
X106329605Y-87350000D01*
X107712845Y-88733239D01*
X108038643Y-88565198D01*
X108239426Y-88173393D01*
X108290000Y-87995653D01*
X108290000Y-99290000D01*
X92768376Y-99290000D01*
X92806920Y-99271641D01*
X93040269Y-99097588D01*
X93235178Y-98881355D01*
X93384157Y-98631252D01*
X93481481Y-98356891D01*
X93360814Y-98127000D01*
X92167000Y-98127000D01*
X92167000Y-98147000D01*
X91913000Y-98147000D01*
X91913000Y-98127000D01*
X91893000Y-98127000D01*
X91893000Y-97873000D01*
X91913000Y-97873000D01*
X91913000Y-96679845D01*
X92167000Y-96679845D01*
X92167000Y-97873000D01*
X93360814Y-97873000D01*
X93481481Y-97643109D01*
X93384157Y-97368748D01*
X93235178Y-97118645D01*
X93040269Y-96902412D01*
X92806920Y-96728359D01*
X92544099Y-96603175D01*
X92396890Y-96558524D01*
X92167000Y-96679845D01*
X91913000Y-96679845D01*
X91683110Y-96558524D01*
X91535901Y-96603175D01*
X91273080Y-96728359D01*
X91039731Y-96902412D01*
X90963966Y-96986466D01*
X90939502Y-96905820D01*
X90880537Y-96795506D01*
X90801185Y-96698815D01*
X90704494Y-96619463D01*
X90594180Y-96560498D01*
X90474482Y-96524188D01*
X90350000Y-96511928D01*
X89633203Y-96511928D01*
X93263141Y-92881991D01*
X93306449Y-92846449D01*
X93375692Y-92762076D01*
X93490915Y-93040250D01*
X93708149Y-93365364D01*
X93984636Y-93641851D01*
X94309750Y-93859085D01*
X94670997Y-94008718D01*
X95054495Y-94085000D01*
X95445505Y-94085000D01*
X95829003Y-94008718D01*
X96190250Y-93859085D01*
X96515364Y-93641851D01*
X96791851Y-93365364D01*
X97009085Y-93040250D01*
X97158718Y-92679003D01*
X97235000Y-92295505D01*
X97235000Y-91904495D01*
X97158718Y-91520997D01*
X97009085Y-91159750D01*
X96791851Y-90834636D01*
X96521295Y-90564080D01*
X97615525Y-90564080D01*
X97699208Y-90818261D01*
X97971775Y-90949158D01*
X98264642Y-91024365D01*
X98566553Y-91040991D01*
X98865907Y-90998397D01*
X99151199Y-90898222D01*
X99300792Y-90818261D01*
X99384475Y-90564080D01*
X98500000Y-89679605D01*
X97615525Y-90564080D01*
X96521295Y-90564080D01*
X96515364Y-90558149D01*
X96190250Y-90340915D01*
X95829003Y-90191282D01*
X95445505Y-90115000D01*
X95054495Y-90115000D01*
X94670997Y-90191282D01*
X94309750Y-90340915D01*
X93984636Y-90558149D01*
X93708149Y-90834636D01*
X93635000Y-90944111D01*
X93635000Y-89566553D01*
X96959009Y-89566553D01*
X97001603Y-89865907D01*
X97101778Y-90151199D01*
X97181739Y-90300792D01*
X97435920Y-90384475D01*
X98320395Y-89500000D01*
X97435920Y-88615525D01*
X97181739Y-88699208D01*
X97050842Y-88971775D01*
X96975635Y-89264642D01*
X96959009Y-89566553D01*
X93635000Y-89566553D01*
X93635000Y-88435920D01*
X97615525Y-88435920D01*
X98500000Y-89320395D01*
X99384475Y-88435920D01*
X99300792Y-88181739D01*
X99028225Y-88050842D01*
X98735358Y-87975635D01*
X98433447Y-87959009D01*
X98134093Y-88001603D01*
X97848801Y-88101778D01*
X97699208Y-88181739D01*
X97615525Y-88435920D01*
X93635000Y-88435920D01*
X93635000Y-82289721D01*
X94465000Y-82289721D01*
X94465000Y-82710279D01*
X94547047Y-83122756D01*
X94707988Y-83511302D01*
X94941637Y-83860983D01*
X95239017Y-84158363D01*
X95588698Y-84392012D01*
X95977244Y-84552953D01*
X96389721Y-84635000D01*
X96810279Y-84635000D01*
X97222756Y-84552953D01*
X97611302Y-84392012D01*
X97960983Y-84158363D01*
X98258363Y-83860983D01*
X98492012Y-83511302D01*
X98652953Y-83122756D01*
X98735000Y-82710279D01*
X98735000Y-82289721D01*
X98652953Y-81877244D01*
X98492012Y-81488698D01*
X98258363Y-81139017D01*
X97960983Y-80841637D01*
X97611302Y-80607988D01*
X97222756Y-80447047D01*
X96810279Y-80365000D01*
X96389721Y-80365000D01*
X95977244Y-80447047D01*
X95588698Y-80607988D01*
X95239017Y-80841637D01*
X94941637Y-81139017D01*
X94707988Y-81488698D01*
X94547047Y-81877244D01*
X94465000Y-82289721D01*
X93635000Y-82289721D01*
X93635000Y-81470131D01*
X99320132Y-75785000D01*
X104220372Y-75785000D01*
X104413962Y-76074729D01*
M02*
