M48
; DRILL file {KiCad (5.1.2-1)-1} date Friday, 27 December 2019 at 23:22:26
; FORMAT={-:-/ absolute / metric / decimal}
; #@! TF.CreationDate,2019-12-27T23:22:26-07:00
; #@! TF.GenerationSoftware,Kicad,Pcbnew,(5.1.2-1)-1
; #@! TF.FileFunction,Plated,1,2,PTH
FMAT,2
METRIC
T1C0.400
T2C0.800
T3C0.900
T4C1.000
T5C1.001
T6C1.100
T7C1.500
T8C2.200
T9C2.500
%
G90
G05
T1
X58.4Y-70.15
X60.0Y-64.25
X64.0Y-62.25
X67.0Y-78.0
X67.125Y-86.875
X67.25Y-80.25
X67.25Y-83.75
X70.25Y-71.75
X71.0Y-71.75
X71.25Y-92.25
X71.25Y-93.0
X71.4Y-85.0
X71.75Y-67.25
X72.5Y-74.0
X84.0Y-71.5
X84.0Y-72.25
X86.0Y-95.75
X86.25Y-95.0
X87.0Y-76.0
X87.0Y-77.0
X87.0Y-78.0
X88.0Y-76.0
X88.0Y-77.0
X88.0Y-78.0
X89.0Y-76.0
X89.0Y-77.0
X89.0Y-78.0
X90.0Y-76.0
X90.0Y-77.0
X90.0Y-78.0
T2
X69.5Y-60.75
X69.5Y-63.25
T3
X98.5Y-59.5
X101.0Y-54.5
X103.5Y-59.5
T4
X76.0Y-98.0
X78.54Y-98.0
X98.5Y-89.5
X101.0Y-89.5
X103.5Y-89.5
X89.5Y-98.0
X92.04Y-98.0
X98.5Y-62.5
X101.0Y-62.5
X103.5Y-62.5
X56.5Y-62.5
X59.0Y-62.5
X61.5Y-62.5
X81.46Y-98.0
X84.0Y-98.0
X86.54Y-98.0
X68.0Y-98.0
X70.54Y-98.0
X73.08Y-98.0
X56.5Y-89.5
X59.0Y-89.5
X61.5Y-89.5
T5
X87.46Y-55.0
X90.0Y-55.0
T6
X74.0Y-55.58
X75.5Y-63.5
X83.12Y-63.5
X68.5Y-50.5
X68.5Y-53.04
X68.5Y-55.58
X74.0Y-50.5
X74.0Y-53.04
T7
X88.5Y-64.0
X88.5Y-92.0
T8
X96.6Y-82.5
X105.4Y-82.5
X96.6Y-55.5
X54.6Y-55.5
X63.4Y-55.5
X54.6Y-82.5
X63.4Y-82.5
X105.4Y-55.5
T9
X80.0Y-50.3
X80.0Y-55.0
X80.0Y-59.7
X80.0Y-77.3
X80.0Y-82.0
X80.0Y-86.7
X106.15Y-74.65
X106.15Y-87.35
T0
M30
