G04 #@! TF.GenerationSoftware,KiCad,Pcbnew,(5.1.2-1)-1*
G04 #@! TF.CreationDate,2019-12-28T14:45:16-07:00*
G04 #@! TF.ProjectId,NuisanceEngine,4e756973-616e-4636-9545-6e67696e652e,rev?*
G04 #@! TF.SameCoordinates,Original*
G04 #@! TF.FileFunction,Legend,Top*
G04 #@! TF.FilePolarity,Positive*
%FSLAX46Y46*%
G04 Gerber Fmt 4.6, Leading zero omitted, Abs format (unit mm)*
G04 Created by KiCad (PCBNEW (5.1.2-1)-1) date 2019-12-28 14:45:16*
%MOMM*%
%LPD*%
G04 APERTURE LIST*
%ADD10C,0.187500*%
%ADD11C,0.120000*%
%ADD12C,0.150000*%
G04 APERTURE END LIST*
D10*
X67732142Y-95589285D02*
X67732142Y-96125000D01*
X67696428Y-96232142D01*
X67625000Y-96303571D01*
X67517857Y-96339285D01*
X67446428Y-96339285D01*
X68517857Y-96339285D02*
X68267857Y-95982142D01*
X68089285Y-96339285D02*
X68089285Y-95589285D01*
X68375000Y-95589285D01*
X68446428Y-95625000D01*
X68482142Y-95660714D01*
X68517857Y-95732142D01*
X68517857Y-95839285D01*
X68482142Y-95910714D01*
X68446428Y-95946428D01*
X68375000Y-95982142D01*
X68089285Y-95982142D01*
X70303571Y-95589285D02*
X70303571Y-96125000D01*
X70267857Y-96232142D01*
X70196428Y-96303571D01*
X70089285Y-96339285D01*
X70017857Y-96339285D01*
X71017857Y-96339285D02*
X70660714Y-96339285D01*
X70660714Y-95589285D01*
X72428571Y-95625000D02*
X72357142Y-95589285D01*
X72250000Y-95589285D01*
X72142857Y-95625000D01*
X72071428Y-95696428D01*
X72035714Y-95767857D01*
X72000000Y-95910714D01*
X72000000Y-96017857D01*
X72035714Y-96160714D01*
X72071428Y-96232142D01*
X72142857Y-96303571D01*
X72250000Y-96339285D01*
X72321428Y-96339285D01*
X72428571Y-96303571D01*
X72464285Y-96267857D01*
X72464285Y-96017857D01*
X72321428Y-96017857D01*
X72785714Y-96339285D02*
X72785714Y-95589285D01*
X73214285Y-96339285D01*
X73214285Y-95589285D01*
X73571428Y-96339285D02*
X73571428Y-95589285D01*
X73750000Y-95589285D01*
X73857142Y-95625000D01*
X73928571Y-95696428D01*
X73964285Y-95767857D01*
X74000000Y-95910714D01*
X74000000Y-96017857D01*
X73964285Y-96160714D01*
X73928571Y-96232142D01*
X73857142Y-96303571D01*
X73750000Y-96339285D01*
X73571428Y-96339285D01*
X75428571Y-95625000D02*
X75357142Y-95589285D01*
X75250000Y-95589285D01*
X75142857Y-95625000D01*
X75071428Y-95696428D01*
X75035714Y-95767857D01*
X75000000Y-95910714D01*
X75000000Y-96017857D01*
X75035714Y-96160714D01*
X75071428Y-96232142D01*
X75142857Y-96303571D01*
X75250000Y-96339285D01*
X75321428Y-96339285D01*
X75428571Y-96303571D01*
X75464285Y-96267857D01*
X75464285Y-96017857D01*
X75321428Y-96017857D01*
X75785714Y-96339285D02*
X75785714Y-95589285D01*
X76214285Y-96339285D01*
X76214285Y-95589285D01*
X76571428Y-96339285D02*
X76571428Y-95589285D01*
X76750000Y-95589285D01*
X76857142Y-95625000D01*
X76928571Y-95696428D01*
X76964285Y-95767857D01*
X77000000Y-95910714D01*
X77000000Y-96017857D01*
X76964285Y-96160714D01*
X76928571Y-96232142D01*
X76857142Y-96303571D01*
X76750000Y-96339285D01*
X76571428Y-96339285D01*
X83535714Y-96339285D02*
X83678571Y-96339285D01*
X83750000Y-96303571D01*
X83785714Y-96267857D01*
X83857142Y-96160714D01*
X83892857Y-96017857D01*
X83892857Y-95732142D01*
X83857142Y-95660714D01*
X83821428Y-95625000D01*
X83750000Y-95589285D01*
X83607142Y-95589285D01*
X83535714Y-95625000D01*
X83500000Y-95660714D01*
X83464285Y-95732142D01*
X83464285Y-95910714D01*
X83500000Y-95982142D01*
X83535714Y-96017857D01*
X83607142Y-96053571D01*
X83750000Y-96053571D01*
X83821428Y-96017857D01*
X83857142Y-95982142D01*
X83892857Y-95910714D01*
X84107142Y-95589285D02*
X84357142Y-96339285D01*
X84607142Y-95589285D01*
X85946428Y-95946428D02*
X86053571Y-95982142D01*
X86089285Y-96017857D01*
X86125000Y-96089285D01*
X86125000Y-96196428D01*
X86089285Y-96267857D01*
X86053571Y-96303571D01*
X85982142Y-96339285D01*
X85696428Y-96339285D01*
X85696428Y-95589285D01*
X85946428Y-95589285D01*
X86017857Y-95625000D01*
X86053571Y-95660714D01*
X86089285Y-95732142D01*
X86089285Y-95803571D01*
X86053571Y-95875000D01*
X86017857Y-95910714D01*
X85946428Y-95946428D01*
X85696428Y-95946428D01*
X86410714Y-96125000D02*
X86767857Y-96125000D01*
X86339285Y-96339285D02*
X86589285Y-95589285D01*
X86839285Y-96339285D01*
X86982142Y-95589285D02*
X87410714Y-95589285D01*
X87196428Y-96339285D02*
X87196428Y-95589285D01*
X78410714Y-96267857D02*
X78375000Y-96303571D01*
X78267857Y-96339285D01*
X78196428Y-96339285D01*
X78089285Y-96303571D01*
X78017857Y-96232142D01*
X77982142Y-96160714D01*
X77946428Y-96017857D01*
X77946428Y-95910714D01*
X77982142Y-95767857D01*
X78017857Y-95696428D01*
X78089285Y-95625000D01*
X78196428Y-95589285D01*
X78267857Y-95589285D01*
X78375000Y-95625000D01*
X78410714Y-95660714D01*
X78625000Y-95589285D02*
X78875000Y-96339285D01*
X79125000Y-95589285D01*
X80928571Y-95625000D02*
X80857142Y-95589285D01*
X80750000Y-95589285D01*
X80642857Y-95625000D01*
X80571428Y-95696428D01*
X80535714Y-95767857D01*
X80500000Y-95910714D01*
X80500000Y-96017857D01*
X80535714Y-96160714D01*
X80571428Y-96232142D01*
X80642857Y-96303571D01*
X80750000Y-96339285D01*
X80821428Y-96339285D01*
X80928571Y-96303571D01*
X80964285Y-96267857D01*
X80964285Y-96017857D01*
X80821428Y-96017857D01*
X81285714Y-96339285D02*
X81285714Y-95589285D01*
X81714285Y-96339285D01*
X81714285Y-95589285D01*
X82071428Y-96339285D02*
X82071428Y-95589285D01*
X82250000Y-95589285D01*
X82357142Y-95625000D01*
X82428571Y-95696428D01*
X82464285Y-95767857D01*
X82500000Y-95910714D01*
X82500000Y-96017857D01*
X82464285Y-96160714D01*
X82428571Y-96232142D01*
X82357142Y-96303571D01*
X82250000Y-96339285D01*
X82071428Y-96339285D01*
X88535714Y-96303571D02*
X88642857Y-96339285D01*
X88821428Y-96339285D01*
X88892857Y-96303571D01*
X88928571Y-96267857D01*
X88964285Y-96196428D01*
X88964285Y-96125000D01*
X88928571Y-96053571D01*
X88892857Y-96017857D01*
X88821428Y-95982142D01*
X88678571Y-95946428D01*
X88607142Y-95910714D01*
X88571428Y-95875000D01*
X88535714Y-95803571D01*
X88535714Y-95732142D01*
X88571428Y-95660714D01*
X88607142Y-95625000D01*
X88678571Y-95589285D01*
X88857142Y-95589285D01*
X88964285Y-95625000D01*
X89285714Y-96339285D02*
X89285714Y-95589285D01*
X89571428Y-95589285D01*
X89642857Y-95625000D01*
X89678571Y-95660714D01*
X89714285Y-95732142D01*
X89714285Y-95839285D01*
X89678571Y-95910714D01*
X89642857Y-95946428D01*
X89571428Y-95982142D01*
X89285714Y-95982142D01*
X90035714Y-96339285D02*
X90035714Y-95589285D01*
X90464285Y-96339285D02*
X90142857Y-95910714D01*
X90464285Y-95589285D02*
X90035714Y-96017857D01*
X91428571Y-95625000D02*
X91357142Y-95589285D01*
X91250000Y-95589285D01*
X91142857Y-95625000D01*
X91071428Y-95696428D01*
X91035714Y-95767857D01*
X91000000Y-95910714D01*
X91000000Y-96017857D01*
X91035714Y-96160714D01*
X91071428Y-96232142D01*
X91142857Y-96303571D01*
X91250000Y-96339285D01*
X91321428Y-96339285D01*
X91428571Y-96303571D01*
X91464285Y-96267857D01*
X91464285Y-96017857D01*
X91321428Y-96017857D01*
X91785714Y-96339285D02*
X91785714Y-95589285D01*
X92214285Y-96339285D01*
X92214285Y-95589285D01*
X92571428Y-96339285D02*
X92571428Y-95589285D01*
X92750000Y-95589285D01*
X92857142Y-95625000D01*
X92928571Y-95696428D01*
X92964285Y-95767857D01*
X93000000Y-95910714D01*
X93000000Y-96017857D01*
X92964285Y-96160714D01*
X92928571Y-96232142D01*
X92857142Y-96303571D01*
X92750000Y-96339285D01*
X92571428Y-96339285D01*
D11*
X53979000Y-49380000D02*
X64020000Y-49380000D01*
X62370000Y-61620000D02*
X64020000Y-61620000D01*
X59871000Y-61620000D02*
X60630000Y-61620000D01*
X57371000Y-61620000D02*
X58130000Y-61620000D01*
X53979000Y-61620000D02*
X55629000Y-61620000D01*
X64020000Y-53316000D02*
X64020000Y-49380000D01*
X64020000Y-61620000D02*
X64020000Y-57683000D01*
X53979000Y-53316000D02*
X53979000Y-49380000D01*
X53979000Y-61620000D02*
X53979000Y-57683000D01*
X53979000Y-76380000D02*
X64020000Y-76380000D01*
X62370000Y-88620000D02*
X64020000Y-88620000D01*
X59871000Y-88620000D02*
X60630000Y-88620000D01*
X57371000Y-88620000D02*
X58130000Y-88620000D01*
X53979000Y-88620000D02*
X55629000Y-88620000D01*
X64020000Y-80316000D02*
X64020000Y-76380000D01*
X64020000Y-88620000D02*
X64020000Y-84683000D01*
X53979000Y-80316000D02*
X53979000Y-76380000D01*
X53979000Y-88620000D02*
X53979000Y-84683000D01*
X95979000Y-76380000D02*
X106020000Y-76380000D01*
X104370000Y-88620000D02*
X106020000Y-88620000D01*
X101871000Y-88620000D02*
X102630000Y-88620000D01*
X99371000Y-88620000D02*
X100130000Y-88620000D01*
X95979000Y-88620000D02*
X97629000Y-88620000D01*
X106020000Y-80316000D02*
X106020000Y-76380000D01*
X106020000Y-88620000D02*
X106020000Y-84683000D01*
X95979000Y-80316000D02*
X95979000Y-76380000D01*
X95979000Y-88620000D02*
X95979000Y-84683000D01*
X95979000Y-49380000D02*
X106020000Y-49380000D01*
X104370000Y-61620000D02*
X106020000Y-61620000D01*
X101871000Y-61620000D02*
X102630000Y-61620000D01*
X99371000Y-61620000D02*
X100130000Y-61620000D01*
X95979000Y-61620000D02*
X97629000Y-61620000D01*
X106020000Y-53316000D02*
X106020000Y-49380000D01*
X106020000Y-61620000D02*
X106020000Y-57683000D01*
X95979000Y-53316000D02*
X95979000Y-49380000D01*
X95979000Y-61620000D02*
X95979000Y-57683000D01*
D12*
X83000000Y-82000000D02*
G75*
G03X83000000Y-82000000I-3000000J0D01*
G01*
X84000000Y-88600000D02*
X84000000Y-75400000D01*
X76000000Y-75400000D02*
X76000000Y-88600000D01*
X80000000Y-75400000D02*
X76000000Y-75400000D01*
X80000000Y-75400000D02*
X84000000Y-75400000D01*
X80000000Y-88600000D02*
X84000000Y-88600000D01*
X80000000Y-88600000D02*
X76000000Y-88600000D01*
X66575000Y-75075000D02*
X66575000Y-76450000D01*
X75450000Y-75075000D02*
X75450000Y-70925000D01*
X66550000Y-75075000D02*
X66550000Y-70925000D01*
X75450000Y-75075000D02*
X75335000Y-75075000D01*
X75450000Y-70925000D02*
X75335000Y-70925000D01*
X66550000Y-70925000D02*
X66665000Y-70925000D01*
X66550000Y-75075000D02*
X66575000Y-75075000D01*
X91214888Y-53475096D02*
G75*
G03X91230000Y-56500000I-2484888J-1524904D01*
G01*
X91230000Y-53500000D02*
X91230000Y-56500000D01*
X91247936Y-55000000D02*
G75*
G03X91247936Y-55000000I-2517936J0D01*
G01*
X84500000Y-65000000D02*
X84500000Y-77000000D01*
X92500000Y-65000000D02*
X84500000Y-65000000D01*
X92500000Y-91000000D02*
X92500000Y-65000000D01*
X84500000Y-91000000D02*
X92500000Y-91000000D01*
X84500000Y-77000000D02*
X84500000Y-91000000D01*
X83000000Y-55000000D02*
G75*
G03X83000000Y-55000000I-3000000J0D01*
G01*
X84000000Y-61600000D02*
X84000000Y-48400000D01*
X76000000Y-48400000D02*
X76000000Y-61600000D01*
X80000000Y-48400000D02*
X76000000Y-48400000D01*
X80000000Y-48400000D02*
X84000000Y-48400000D01*
X80000000Y-61600000D02*
X84000000Y-61600000D01*
X80000000Y-61600000D02*
X76000000Y-61600000D01*
D11*
X74670000Y-99330000D02*
X74670000Y-98000000D01*
X76000000Y-99330000D02*
X74670000Y-99330000D01*
X77270000Y-99330000D02*
X77270000Y-96670000D01*
X77270000Y-96670000D02*
X79870000Y-96670000D01*
X77270000Y-99330000D02*
X79870000Y-99330000D01*
X79870000Y-99330000D02*
X79870000Y-96670000D01*
X66670000Y-99330000D02*
X66670000Y-98000000D01*
X68000000Y-99330000D02*
X66670000Y-99330000D01*
X69270000Y-99330000D02*
X69270000Y-96670000D01*
X69270000Y-96670000D02*
X74410000Y-96670000D01*
X69270000Y-99330000D02*
X74410000Y-99330000D01*
X74410000Y-99330000D02*
X74410000Y-96670000D01*
X87870000Y-99330000D02*
X87870000Y-96670000D01*
X82730000Y-99330000D02*
X87870000Y-99330000D01*
X82730000Y-96670000D02*
X87870000Y-96670000D01*
X82730000Y-99330000D02*
X82730000Y-96670000D01*
X81460000Y-99330000D02*
X80130000Y-99330000D01*
X80130000Y-99330000D02*
X80130000Y-98000000D01*
X93370000Y-99330000D02*
X93370000Y-96670000D01*
X90770000Y-99330000D02*
X93370000Y-99330000D01*
X90770000Y-96670000D02*
X93370000Y-96670000D01*
X90770000Y-99330000D02*
X90770000Y-96670000D01*
X89500000Y-99330000D02*
X88170000Y-99330000D01*
X88170000Y-99330000D02*
X88170000Y-98000000D01*
X77671267Y-71510000D02*
X77328733Y-71510000D01*
X77671267Y-70490000D02*
X77328733Y-70490000D01*
X95990000Y-70171267D02*
X95990000Y-69828733D01*
X97010000Y-70171267D02*
X97010000Y-69828733D01*
X77828733Y-74510000D02*
X78171267Y-74510000D01*
X77828733Y-73490000D02*
X78171267Y-73490000D01*
X63078733Y-74510000D02*
X63421267Y-74510000D01*
X63078733Y-73490000D02*
X63421267Y-73490000D01*
X75010000Y-86171267D02*
X75010000Y-85828733D01*
X73990000Y-86171267D02*
X73990000Y-85828733D01*
X69010000Y-85828733D02*
X69010000Y-86171267D01*
X67990000Y-85828733D02*
X67990000Y-86171267D01*
X70540000Y-50786252D02*
X70540000Y-50263748D01*
X71960000Y-50786252D02*
X71960000Y-50263748D01*
X66460000Y-61488748D02*
X66460000Y-62011252D01*
X65040000Y-61488748D02*
X65040000Y-62011252D01*
X77238748Y-94710000D02*
X77761252Y-94710000D01*
X77238748Y-93290000D02*
X77761252Y-93290000D01*
X81738748Y-93290000D02*
X82261252Y-93290000D01*
X81738748Y-94710000D02*
X82261252Y-94710000D01*
X60920000Y-67760000D02*
X60920000Y-66300000D01*
X64080000Y-67760000D02*
X64080000Y-64600000D01*
X64080000Y-67760000D02*
X63150000Y-67760000D01*
X60920000Y-67760000D02*
X61850000Y-67760000D01*
X75080000Y-80240000D02*
X74150000Y-80240000D01*
X71920000Y-80240000D02*
X72850000Y-80240000D01*
X71920000Y-80240000D02*
X71920000Y-83400000D01*
X75080000Y-80240000D02*
X75080000Y-81700000D01*
X53490000Y-66421267D02*
X53490000Y-66078733D01*
X54510000Y-66421267D02*
X54510000Y-66078733D01*
X59510000Y-66078733D02*
X59510000Y-66421267D01*
X58490000Y-66078733D02*
X58490000Y-66421267D01*
X71010000Y-86828733D02*
X71010000Y-87171267D01*
X69990000Y-86828733D02*
X69990000Y-87171267D01*
X57010000Y-66078733D02*
X57010000Y-66421267D01*
X55990000Y-66078733D02*
X55990000Y-66421267D01*
X69328733Y-65740000D02*
X69671267Y-65740000D01*
X69328733Y-66760000D02*
X69671267Y-66760000D01*
X71990000Y-91828733D02*
X71990000Y-92171267D01*
X73010000Y-91828733D02*
X73010000Y-92171267D01*
X71010000Y-82828733D02*
X71010000Y-83171267D01*
X69990000Y-82828733D02*
X69990000Y-83171267D01*
X63078733Y-70490000D02*
X63421267Y-70490000D01*
X63078733Y-71510000D02*
X63421267Y-71510000D01*
X100510000Y-69828733D02*
X100510000Y-70171267D01*
X99490000Y-69828733D02*
X99490000Y-70171267D01*
X97010000Y-66171267D02*
X97010000Y-65828733D01*
X95990000Y-66171267D02*
X95990000Y-65828733D01*
X81703733Y-74510000D02*
X82046267Y-74510000D01*
X81703733Y-73490000D02*
X82046267Y-73490000D01*
X69328733Y-68760000D02*
X69671267Y-68760000D01*
X69328733Y-67740000D02*
X69671267Y-67740000D01*
X100510000Y-66296267D02*
X100510000Y-65953733D01*
X99490000Y-66296267D02*
X99490000Y-65953733D01*
X73260000Y-63328733D02*
X73260000Y-63671267D01*
X72240000Y-63328733D02*
X72240000Y-63671267D01*
X69010000Y-82171267D02*
X69010000Y-81828733D01*
X67990000Y-82171267D02*
X67990000Y-81828733D01*
X73990000Y-90828733D02*
X73990000Y-91171267D01*
X75010000Y-90828733D02*
X75010000Y-91171267D01*
X78828733Y-63760000D02*
X79171267Y-63760000D01*
X78828733Y-62740000D02*
X79171267Y-62740000D01*
X69671267Y-79510000D02*
X69328733Y-79510000D01*
X69671267Y-78490000D02*
X69328733Y-78490000D01*
X80828733Y-65740000D02*
X81171267Y-65740000D01*
X80828733Y-66760000D02*
X81171267Y-66760000D01*
X73921267Y-66760000D02*
X73578733Y-66760000D01*
X73921267Y-65740000D02*
X73578733Y-65740000D01*
X73578733Y-68760000D02*
X73921267Y-68760000D01*
X73578733Y-67740000D02*
X73921267Y-67740000D01*
X73010000Y-86171267D02*
X73010000Y-85828733D01*
X71990000Y-86171267D02*
X71990000Y-85828733D01*
X71240000Y-58828733D02*
X71240000Y-59171267D01*
X72260000Y-58828733D02*
X72260000Y-59171267D01*
X74240000Y-59171267D02*
X74240000Y-58828733D01*
X75260000Y-59171267D02*
X75260000Y-58828733D01*
X77671267Y-90490000D02*
X77328733Y-90490000D01*
X77671267Y-91510000D02*
X77328733Y-91510000D01*
X81828733Y-91510000D02*
X82171267Y-91510000D01*
X81828733Y-90490000D02*
X82171267Y-90490000D01*
X85828733Y-50240000D02*
X86171267Y-50240000D01*
X85828733Y-51260000D02*
X86171267Y-51260000D01*
D12*
X58404761Y-48952380D02*
X58071428Y-48476190D01*
X57833333Y-48952380D02*
X57833333Y-47952380D01*
X58214285Y-47952380D01*
X58309523Y-48000000D01*
X58357142Y-48047619D01*
X58404761Y-48142857D01*
X58404761Y-48285714D01*
X58357142Y-48380952D01*
X58309523Y-48428571D01*
X58214285Y-48476190D01*
X57833333Y-48476190D01*
X58690476Y-47952380D02*
X59023809Y-48952380D01*
X59357142Y-47952380D01*
X60214285Y-48952380D02*
X59642857Y-48952380D01*
X59928571Y-48952380D02*
X59928571Y-47952380D01*
X59833333Y-48095238D01*
X59738095Y-48190476D01*
X59642857Y-48238095D01*
X58404761Y-75952380D02*
X58071428Y-75476190D01*
X57833333Y-75952380D02*
X57833333Y-74952380D01*
X58214285Y-74952380D01*
X58309523Y-75000000D01*
X58357142Y-75047619D01*
X58404761Y-75142857D01*
X58404761Y-75285714D01*
X58357142Y-75380952D01*
X58309523Y-75428571D01*
X58214285Y-75476190D01*
X57833333Y-75476190D01*
X58690476Y-74952380D02*
X59023809Y-75952380D01*
X59357142Y-74952380D01*
X60119047Y-75285714D02*
X60119047Y-75952380D01*
X59880952Y-74904761D02*
X59642857Y-75619047D01*
X60261904Y-75619047D01*
X100404761Y-75952380D02*
X100071428Y-75476190D01*
X99833333Y-75952380D02*
X99833333Y-74952380D01*
X100214285Y-74952380D01*
X100309523Y-75000000D01*
X100357142Y-75047619D01*
X100404761Y-75142857D01*
X100404761Y-75285714D01*
X100357142Y-75380952D01*
X100309523Y-75428571D01*
X100214285Y-75476190D01*
X99833333Y-75476190D01*
X100690476Y-74952380D02*
X101023809Y-75952380D01*
X101357142Y-74952380D01*
X102166666Y-74952380D02*
X101690476Y-74952380D01*
X101642857Y-75428571D01*
X101690476Y-75380952D01*
X101785714Y-75333333D01*
X102023809Y-75333333D01*
X102119047Y-75380952D01*
X102166666Y-75428571D01*
X102214285Y-75523809D01*
X102214285Y-75761904D01*
X102166666Y-75857142D01*
X102119047Y-75904761D01*
X102023809Y-75952380D01*
X101785714Y-75952380D01*
X101690476Y-75904761D01*
X101642857Y-75857142D01*
X100404761Y-48952380D02*
X100071428Y-48476190D01*
X99833333Y-48952380D02*
X99833333Y-47952380D01*
X100214285Y-47952380D01*
X100309523Y-48000000D01*
X100357142Y-48047619D01*
X100404761Y-48142857D01*
X100404761Y-48285714D01*
X100357142Y-48380952D01*
X100309523Y-48428571D01*
X100214285Y-48476190D01*
X99833333Y-48476190D01*
X100690476Y-47952380D02*
X101023809Y-48952380D01*
X101357142Y-47952380D01*
X101642857Y-48047619D02*
X101690476Y-48000000D01*
X101785714Y-47952380D01*
X102023809Y-47952380D01*
X102119047Y-48000000D01*
X102166666Y-48047619D01*
X102214285Y-48142857D01*
X102214285Y-48238095D01*
X102166666Y-48380952D01*
X101595238Y-48952380D01*
X102214285Y-48952380D01*
X83404761Y-87833333D02*
X83452380Y-87690476D01*
X83452380Y-87452380D01*
X83404761Y-87357142D01*
X83357142Y-87309523D01*
X83261904Y-87261904D01*
X83166666Y-87261904D01*
X83071428Y-87309523D01*
X83023809Y-87357142D01*
X82976190Y-87452380D01*
X82928571Y-87642857D01*
X82880952Y-87738095D01*
X82833333Y-87785714D01*
X82738095Y-87833333D01*
X82642857Y-87833333D01*
X82547619Y-87785714D01*
X82500000Y-87738095D01*
X82452380Y-87642857D01*
X82452380Y-87404761D01*
X82500000Y-87261904D01*
X82452380Y-86928571D02*
X83452380Y-86690476D01*
X82738095Y-86500000D01*
X83452380Y-86309523D01*
X82452380Y-86071428D01*
X83452380Y-85166666D02*
X83452380Y-85738095D01*
X83452380Y-85452380D02*
X82452380Y-85452380D01*
X82595238Y-85547619D01*
X82690476Y-85642857D01*
X82738095Y-85738095D01*
X66952380Y-73761904D02*
X67761904Y-73761904D01*
X67857142Y-73714285D01*
X67904761Y-73666666D01*
X67952380Y-73571428D01*
X67952380Y-73380952D01*
X67904761Y-73285714D01*
X67857142Y-73238095D01*
X67761904Y-73190476D01*
X66952380Y-73190476D01*
X67952380Y-72190476D02*
X67952380Y-72761904D01*
X67952380Y-72476190D02*
X66952380Y-72476190D01*
X67095238Y-72571428D01*
X67190476Y-72666666D01*
X67238095Y-72761904D01*
X91761904Y-55452380D02*
X91761904Y-54452380D01*
X92000000Y-54452380D01*
X92142857Y-54500000D01*
X92238095Y-54595238D01*
X92285714Y-54690476D01*
X92333333Y-54880952D01*
X92333333Y-55023809D01*
X92285714Y-55214285D01*
X92238095Y-55309523D01*
X92142857Y-55404761D01*
X92000000Y-55452380D01*
X91761904Y-55452380D01*
X92714285Y-54547619D02*
X92761904Y-54500000D01*
X92857142Y-54452380D01*
X93095238Y-54452380D01*
X93190476Y-54500000D01*
X93238095Y-54547619D01*
X93285714Y-54642857D01*
X93285714Y-54738095D01*
X93238095Y-54880952D01*
X92666666Y-55452380D01*
X93285714Y-55452380D01*
X87857142Y-79952380D02*
X87523809Y-79476190D01*
X87285714Y-79952380D02*
X87285714Y-78952380D01*
X87666666Y-78952380D01*
X87761904Y-79000000D01*
X87809523Y-79047619D01*
X87857142Y-79142857D01*
X87857142Y-79285714D01*
X87809523Y-79380952D01*
X87761904Y-79428571D01*
X87666666Y-79476190D01*
X87285714Y-79476190D01*
X88238095Y-79047619D02*
X88285714Y-79000000D01*
X88380952Y-78952380D01*
X88619047Y-78952380D01*
X88714285Y-79000000D01*
X88761904Y-79047619D01*
X88809523Y-79142857D01*
X88809523Y-79238095D01*
X88761904Y-79380952D01*
X88190476Y-79952380D01*
X88809523Y-79952380D01*
X89190476Y-79047619D02*
X89238095Y-79000000D01*
X89333333Y-78952380D01*
X89571428Y-78952380D01*
X89666666Y-79000000D01*
X89714285Y-79047619D01*
X89761904Y-79142857D01*
X89761904Y-79238095D01*
X89714285Y-79380952D01*
X89142857Y-79952380D01*
X89761904Y-79952380D01*
X83404761Y-60833333D02*
X83452380Y-60690476D01*
X83452380Y-60452380D01*
X83404761Y-60357142D01*
X83357142Y-60309523D01*
X83261904Y-60261904D01*
X83166666Y-60261904D01*
X83071428Y-60309523D01*
X83023809Y-60357142D01*
X82976190Y-60452380D01*
X82928571Y-60642857D01*
X82880952Y-60738095D01*
X82833333Y-60785714D01*
X82738095Y-60833333D01*
X82642857Y-60833333D01*
X82547619Y-60785714D01*
X82500000Y-60738095D01*
X82452380Y-60642857D01*
X82452380Y-60404761D01*
X82500000Y-60261904D01*
X82452380Y-59928571D02*
X83452380Y-59690476D01*
X82738095Y-59500000D01*
X83452380Y-59309523D01*
X82452380Y-59071428D01*
X82547619Y-58738095D02*
X82500000Y-58690476D01*
X82452380Y-58595238D01*
X82452380Y-58357142D01*
X82500000Y-58261904D01*
X82547619Y-58214285D01*
X82642857Y-58166666D01*
X82738095Y-58166666D01*
X82880952Y-58214285D01*
X83452380Y-58785714D01*
X83452380Y-58166666D01*
X75666666Y-97452380D02*
X75666666Y-98166666D01*
X75619047Y-98309523D01*
X75523809Y-98404761D01*
X75380952Y-98452380D01*
X75285714Y-98452380D01*
X76666666Y-98452380D02*
X76095238Y-98452380D01*
X76380952Y-98452380D02*
X76380952Y-97452380D01*
X76285714Y-97595238D01*
X76190476Y-97690476D01*
X76095238Y-97738095D01*
X67666666Y-97452380D02*
X67666666Y-98166666D01*
X67619047Y-98309523D01*
X67523809Y-98404761D01*
X67380952Y-98452380D01*
X67285714Y-98452380D01*
X68095238Y-97547619D02*
X68142857Y-97500000D01*
X68238095Y-97452380D01*
X68476190Y-97452380D01*
X68571428Y-97500000D01*
X68619047Y-97547619D01*
X68666666Y-97642857D01*
X68666666Y-97738095D01*
X68619047Y-97880952D01*
X68047619Y-98452380D01*
X68666666Y-98452380D01*
X81126666Y-97452380D02*
X81126666Y-98166666D01*
X81079047Y-98309523D01*
X80983809Y-98404761D01*
X80840952Y-98452380D01*
X80745714Y-98452380D01*
X81507619Y-97452380D02*
X82126666Y-97452380D01*
X81793333Y-97833333D01*
X81936190Y-97833333D01*
X82031428Y-97880952D01*
X82079047Y-97928571D01*
X82126666Y-98023809D01*
X82126666Y-98261904D01*
X82079047Y-98357142D01*
X82031428Y-98404761D01*
X81936190Y-98452380D01*
X81650476Y-98452380D01*
X81555238Y-98404761D01*
X81507619Y-98357142D01*
X88857142Y-98452380D02*
X88380952Y-98452380D01*
X88380952Y-97452380D01*
X89142857Y-98404761D02*
X89285714Y-98452380D01*
X89523809Y-98452380D01*
X89619047Y-98404761D01*
X89666666Y-98357142D01*
X89714285Y-98261904D01*
X89714285Y-98166666D01*
X89666666Y-98071428D01*
X89619047Y-98023809D01*
X89523809Y-97976190D01*
X89333333Y-97928571D01*
X89238095Y-97880952D01*
X89190476Y-97833333D01*
X89142857Y-97738095D01*
X89142857Y-97642857D01*
X89190476Y-97547619D01*
X89238095Y-97500000D01*
X89333333Y-97452380D01*
X89571428Y-97452380D01*
X89714285Y-97500000D01*
X90666666Y-98452380D02*
X90095238Y-98452380D01*
X90380952Y-98452380D02*
X90380952Y-97452380D01*
X90285714Y-97595238D01*
X90190476Y-97690476D01*
X90095238Y-97738095D01*
X77333333Y-69857142D02*
X77285714Y-69904761D01*
X77142857Y-69952380D01*
X77047619Y-69952380D01*
X76904761Y-69904761D01*
X76809523Y-69809523D01*
X76761904Y-69714285D01*
X76714285Y-69523809D01*
X76714285Y-69380952D01*
X76761904Y-69190476D01*
X76809523Y-69095238D01*
X76904761Y-69000000D01*
X77047619Y-68952380D01*
X77142857Y-68952380D01*
X77285714Y-69000000D01*
X77333333Y-69047619D01*
X78285714Y-69952380D02*
X77714285Y-69952380D01*
X78000000Y-69952380D02*
X78000000Y-68952380D01*
X77904761Y-69095238D01*
X77809523Y-69190476D01*
X77714285Y-69238095D01*
X95107142Y-70166666D02*
X95154761Y-70214285D01*
X95202380Y-70357142D01*
X95202380Y-70452380D01*
X95154761Y-70595238D01*
X95059523Y-70690476D01*
X94964285Y-70738095D01*
X94773809Y-70785714D01*
X94630952Y-70785714D01*
X94440476Y-70738095D01*
X94345238Y-70690476D01*
X94250000Y-70595238D01*
X94202380Y-70452380D01*
X94202380Y-70357142D01*
X94250000Y-70214285D01*
X94297619Y-70166666D01*
X94297619Y-69785714D02*
X94250000Y-69738095D01*
X94202380Y-69642857D01*
X94202380Y-69404761D01*
X94250000Y-69309523D01*
X94297619Y-69261904D01*
X94392857Y-69214285D01*
X94488095Y-69214285D01*
X94630952Y-69261904D01*
X95202380Y-69833333D01*
X95202380Y-69214285D01*
X77833333Y-72857142D02*
X77785714Y-72904761D01*
X77642857Y-72952380D01*
X77547619Y-72952380D01*
X77404761Y-72904761D01*
X77309523Y-72809523D01*
X77261904Y-72714285D01*
X77214285Y-72523809D01*
X77214285Y-72380952D01*
X77261904Y-72190476D01*
X77309523Y-72095238D01*
X77404761Y-72000000D01*
X77547619Y-71952380D01*
X77642857Y-71952380D01*
X77785714Y-72000000D01*
X77833333Y-72047619D01*
X78166666Y-71952380D02*
X78785714Y-71952380D01*
X78452380Y-72333333D01*
X78595238Y-72333333D01*
X78690476Y-72380952D01*
X78738095Y-72428571D01*
X78785714Y-72523809D01*
X78785714Y-72761904D01*
X78738095Y-72857142D01*
X78690476Y-72904761D01*
X78595238Y-72952380D01*
X78309523Y-72952380D01*
X78214285Y-72904761D01*
X78166666Y-72857142D01*
X63083333Y-75857142D02*
X63035714Y-75904761D01*
X62892857Y-75952380D01*
X62797619Y-75952380D01*
X62654761Y-75904761D01*
X62559523Y-75809523D01*
X62511904Y-75714285D01*
X62464285Y-75523809D01*
X62464285Y-75380952D01*
X62511904Y-75190476D01*
X62559523Y-75095238D01*
X62654761Y-75000000D01*
X62797619Y-74952380D01*
X62892857Y-74952380D01*
X63035714Y-75000000D01*
X63083333Y-75047619D01*
X63940476Y-75285714D02*
X63940476Y-75952380D01*
X63702380Y-74904761D02*
X63464285Y-75619047D01*
X64083333Y-75619047D01*
X74333333Y-88857142D02*
X74285714Y-88904761D01*
X74142857Y-88952380D01*
X74047619Y-88952380D01*
X73904761Y-88904761D01*
X73809523Y-88809523D01*
X73761904Y-88714285D01*
X73714285Y-88523809D01*
X73714285Y-88380952D01*
X73761904Y-88190476D01*
X73809523Y-88095238D01*
X73904761Y-88000000D01*
X74047619Y-87952380D01*
X74142857Y-87952380D01*
X74285714Y-88000000D01*
X74333333Y-88047619D01*
X75238095Y-87952380D02*
X74761904Y-87952380D01*
X74714285Y-88428571D01*
X74761904Y-88380952D01*
X74857142Y-88333333D01*
X75095238Y-88333333D01*
X75190476Y-88380952D01*
X75238095Y-88428571D01*
X75285714Y-88523809D01*
X75285714Y-88761904D01*
X75238095Y-88857142D01*
X75190476Y-88904761D01*
X75095238Y-88952380D01*
X74857142Y-88952380D01*
X74761904Y-88904761D01*
X74714285Y-88857142D01*
X68333333Y-88732142D02*
X68285714Y-88779761D01*
X68142857Y-88827380D01*
X68047619Y-88827380D01*
X67904761Y-88779761D01*
X67809523Y-88684523D01*
X67761904Y-88589285D01*
X67714285Y-88398809D01*
X67714285Y-88255952D01*
X67761904Y-88065476D01*
X67809523Y-87970238D01*
X67904761Y-87875000D01*
X68047619Y-87827380D01*
X68142857Y-87827380D01*
X68285714Y-87875000D01*
X68333333Y-87922619D01*
X69190476Y-87827380D02*
X69000000Y-87827380D01*
X68904761Y-87875000D01*
X68857142Y-87922619D01*
X68761904Y-88065476D01*
X68714285Y-88255952D01*
X68714285Y-88636904D01*
X68761904Y-88732142D01*
X68809523Y-88779761D01*
X68904761Y-88827380D01*
X69095238Y-88827380D01*
X69190476Y-88779761D01*
X69238095Y-88732142D01*
X69285714Y-88636904D01*
X69285714Y-88398809D01*
X69238095Y-88303571D01*
X69190476Y-88255952D01*
X69095238Y-88208333D01*
X68904761Y-88208333D01*
X68809523Y-88255952D01*
X68761904Y-88303571D01*
X68714285Y-88398809D01*
X71083333Y-48382142D02*
X71035714Y-48429761D01*
X70892857Y-48477380D01*
X70797619Y-48477380D01*
X70654761Y-48429761D01*
X70559523Y-48334523D01*
X70511904Y-48239285D01*
X70464285Y-48048809D01*
X70464285Y-47905952D01*
X70511904Y-47715476D01*
X70559523Y-47620238D01*
X70654761Y-47525000D01*
X70797619Y-47477380D01*
X70892857Y-47477380D01*
X71035714Y-47525000D01*
X71083333Y-47572619D01*
X71416666Y-47477380D02*
X72083333Y-47477380D01*
X71654761Y-48477380D01*
X65583333Y-59582142D02*
X65535714Y-59629761D01*
X65392857Y-59677380D01*
X65297619Y-59677380D01*
X65154761Y-59629761D01*
X65059523Y-59534523D01*
X65011904Y-59439285D01*
X64964285Y-59248809D01*
X64964285Y-59105952D01*
X65011904Y-58915476D01*
X65059523Y-58820238D01*
X65154761Y-58725000D01*
X65297619Y-58677380D01*
X65392857Y-58677380D01*
X65535714Y-58725000D01*
X65583333Y-58772619D01*
X66059523Y-59677380D02*
X66250000Y-59677380D01*
X66345238Y-59629761D01*
X66392857Y-59582142D01*
X66488095Y-59439285D01*
X66535714Y-59248809D01*
X66535714Y-58867857D01*
X66488095Y-58772619D01*
X66440476Y-58725000D01*
X66345238Y-58677380D01*
X66154761Y-58677380D01*
X66059523Y-58725000D01*
X66011904Y-58772619D01*
X65964285Y-58867857D01*
X65964285Y-59105952D01*
X66011904Y-59201190D01*
X66059523Y-59248809D01*
X66154761Y-59296428D01*
X66345238Y-59296428D01*
X66440476Y-59248809D01*
X66488095Y-59201190D01*
X66535714Y-59105952D01*
X76857142Y-92707142D02*
X76809523Y-92754761D01*
X76666666Y-92802380D01*
X76571428Y-92802380D01*
X76428571Y-92754761D01*
X76333333Y-92659523D01*
X76285714Y-92564285D01*
X76238095Y-92373809D01*
X76238095Y-92230952D01*
X76285714Y-92040476D01*
X76333333Y-91945238D01*
X76428571Y-91850000D01*
X76571428Y-91802380D01*
X76666666Y-91802380D01*
X76809523Y-91850000D01*
X76857142Y-91897619D01*
X77809523Y-92802380D02*
X77238095Y-92802380D01*
X77523809Y-92802380D02*
X77523809Y-91802380D01*
X77428571Y-91945238D01*
X77333333Y-92040476D01*
X77238095Y-92088095D01*
X78428571Y-91802380D02*
X78523809Y-91802380D01*
X78619047Y-91850000D01*
X78666666Y-91897619D01*
X78714285Y-91992857D01*
X78761904Y-92183333D01*
X78761904Y-92421428D01*
X78714285Y-92611904D01*
X78666666Y-92707142D01*
X78619047Y-92754761D01*
X78523809Y-92802380D01*
X78428571Y-92802380D01*
X78333333Y-92754761D01*
X78285714Y-92707142D01*
X78238095Y-92611904D01*
X78190476Y-92421428D01*
X78190476Y-92183333D01*
X78238095Y-91992857D01*
X78285714Y-91897619D01*
X78333333Y-91850000D01*
X78428571Y-91802380D01*
X81357142Y-92707142D02*
X81309523Y-92754761D01*
X81166666Y-92802380D01*
X81071428Y-92802380D01*
X80928571Y-92754761D01*
X80833333Y-92659523D01*
X80785714Y-92564285D01*
X80738095Y-92373809D01*
X80738095Y-92230952D01*
X80785714Y-92040476D01*
X80833333Y-91945238D01*
X80928571Y-91850000D01*
X81071428Y-91802380D01*
X81166666Y-91802380D01*
X81309523Y-91850000D01*
X81357142Y-91897619D01*
X82309523Y-92802380D02*
X81738095Y-92802380D01*
X82023809Y-92802380D02*
X82023809Y-91802380D01*
X81928571Y-91945238D01*
X81833333Y-92040476D01*
X81738095Y-92088095D01*
X83261904Y-92802380D02*
X82690476Y-92802380D01*
X82976190Y-92802380D02*
X82976190Y-91802380D01*
X82880952Y-91945238D01*
X82785714Y-92040476D01*
X82690476Y-92088095D01*
X65154761Y-65297619D02*
X65059523Y-65250000D01*
X64964285Y-65154761D01*
X64821428Y-65011904D01*
X64726190Y-64964285D01*
X64630952Y-64964285D01*
X64678571Y-65202380D02*
X64583333Y-65154761D01*
X64488095Y-65059523D01*
X64440476Y-64869047D01*
X64440476Y-64535714D01*
X64488095Y-64345238D01*
X64583333Y-64250000D01*
X64678571Y-64202380D01*
X64869047Y-64202380D01*
X64964285Y-64250000D01*
X65059523Y-64345238D01*
X65107142Y-64535714D01*
X65107142Y-64869047D01*
X65059523Y-65059523D01*
X64964285Y-65154761D01*
X64869047Y-65202380D01*
X64678571Y-65202380D01*
X66059523Y-65202380D02*
X65488095Y-65202380D01*
X65773809Y-65202380D02*
X65773809Y-64202380D01*
X65678571Y-64345238D01*
X65583333Y-64440476D01*
X65488095Y-64488095D01*
X73404761Y-78047619D02*
X73309523Y-78000000D01*
X73214285Y-77904761D01*
X73071428Y-77761904D01*
X72976190Y-77714285D01*
X72880952Y-77714285D01*
X72928571Y-77952380D02*
X72833333Y-77904761D01*
X72738095Y-77809523D01*
X72690476Y-77619047D01*
X72690476Y-77285714D01*
X72738095Y-77095238D01*
X72833333Y-77000000D01*
X72928571Y-76952380D01*
X73119047Y-76952380D01*
X73214285Y-77000000D01*
X73309523Y-77095238D01*
X73357142Y-77285714D01*
X73357142Y-77619047D01*
X73309523Y-77809523D01*
X73214285Y-77904761D01*
X73119047Y-77952380D01*
X72928571Y-77952380D01*
X73738095Y-77047619D02*
X73785714Y-77000000D01*
X73880952Y-76952380D01*
X74119047Y-76952380D01*
X74214285Y-77000000D01*
X74261904Y-77047619D01*
X74309523Y-77142857D01*
X74309523Y-77238095D01*
X74261904Y-77380952D01*
X73690476Y-77952380D01*
X74309523Y-77952380D01*
X53833333Y-69202380D02*
X53500000Y-68726190D01*
X53261904Y-69202380D02*
X53261904Y-68202380D01*
X53642857Y-68202380D01*
X53738095Y-68250000D01*
X53785714Y-68297619D01*
X53833333Y-68392857D01*
X53833333Y-68535714D01*
X53785714Y-68630952D01*
X53738095Y-68678571D01*
X53642857Y-68726190D01*
X53261904Y-68726190D01*
X54785714Y-69202380D02*
X54214285Y-69202380D01*
X54500000Y-69202380D02*
X54500000Y-68202380D01*
X54404761Y-68345238D01*
X54309523Y-68440476D01*
X54214285Y-68488095D01*
X58833333Y-69202380D02*
X58500000Y-68726190D01*
X58261904Y-69202380D02*
X58261904Y-68202380D01*
X58642857Y-68202380D01*
X58738095Y-68250000D01*
X58785714Y-68297619D01*
X58833333Y-68392857D01*
X58833333Y-68535714D01*
X58785714Y-68630952D01*
X58738095Y-68678571D01*
X58642857Y-68726190D01*
X58261904Y-68726190D01*
X59214285Y-68297619D02*
X59261904Y-68250000D01*
X59357142Y-68202380D01*
X59595238Y-68202380D01*
X59690476Y-68250000D01*
X59738095Y-68297619D01*
X59785714Y-68392857D01*
X59785714Y-68488095D01*
X59738095Y-68630952D01*
X59166666Y-69202380D01*
X59785714Y-69202380D01*
X70333333Y-89952380D02*
X70000000Y-89476190D01*
X69761904Y-89952380D02*
X69761904Y-88952380D01*
X70142857Y-88952380D01*
X70238095Y-89000000D01*
X70285714Y-89047619D01*
X70333333Y-89142857D01*
X70333333Y-89285714D01*
X70285714Y-89380952D01*
X70238095Y-89428571D01*
X70142857Y-89476190D01*
X69761904Y-89476190D01*
X70666666Y-88952380D02*
X71285714Y-88952380D01*
X70952380Y-89333333D01*
X71095238Y-89333333D01*
X71190476Y-89380952D01*
X71238095Y-89428571D01*
X71285714Y-89523809D01*
X71285714Y-89761904D01*
X71238095Y-89857142D01*
X71190476Y-89904761D01*
X71095238Y-89952380D01*
X70809523Y-89952380D01*
X70714285Y-89904761D01*
X70666666Y-89857142D01*
X56333333Y-69202380D02*
X56000000Y-68726190D01*
X55761904Y-69202380D02*
X55761904Y-68202380D01*
X56142857Y-68202380D01*
X56238095Y-68250000D01*
X56285714Y-68297619D01*
X56333333Y-68392857D01*
X56333333Y-68535714D01*
X56285714Y-68630952D01*
X56238095Y-68678571D01*
X56142857Y-68726190D01*
X55761904Y-68726190D01*
X57190476Y-68535714D02*
X57190476Y-69202380D01*
X56952380Y-68154761D02*
X56714285Y-68869047D01*
X57333333Y-68869047D01*
X66333333Y-66702380D02*
X66000000Y-66226190D01*
X65761904Y-66702380D02*
X65761904Y-65702380D01*
X66142857Y-65702380D01*
X66238095Y-65750000D01*
X66285714Y-65797619D01*
X66333333Y-65892857D01*
X66333333Y-66035714D01*
X66285714Y-66130952D01*
X66238095Y-66178571D01*
X66142857Y-66226190D01*
X65761904Y-66226190D01*
X67238095Y-65702380D02*
X66761904Y-65702380D01*
X66714285Y-66178571D01*
X66761904Y-66130952D01*
X66857142Y-66083333D01*
X67095238Y-66083333D01*
X67190476Y-66130952D01*
X67238095Y-66178571D01*
X67285714Y-66273809D01*
X67285714Y-66511904D01*
X67238095Y-66607142D01*
X67190476Y-66654761D01*
X67095238Y-66702380D01*
X66857142Y-66702380D01*
X66761904Y-66654761D01*
X66714285Y-66607142D01*
X72333333Y-94952380D02*
X72000000Y-94476190D01*
X71761904Y-94952380D02*
X71761904Y-93952380D01*
X72142857Y-93952380D01*
X72238095Y-94000000D01*
X72285714Y-94047619D01*
X72333333Y-94142857D01*
X72333333Y-94285714D01*
X72285714Y-94380952D01*
X72238095Y-94428571D01*
X72142857Y-94476190D01*
X71761904Y-94476190D01*
X73190476Y-93952380D02*
X73000000Y-93952380D01*
X72904761Y-94000000D01*
X72857142Y-94047619D01*
X72761904Y-94190476D01*
X72714285Y-94380952D01*
X72714285Y-94761904D01*
X72761904Y-94857142D01*
X72809523Y-94904761D01*
X72904761Y-94952380D01*
X73095238Y-94952380D01*
X73190476Y-94904761D01*
X73238095Y-94857142D01*
X73285714Y-94761904D01*
X73285714Y-94523809D01*
X73238095Y-94428571D01*
X73190476Y-94380952D01*
X73095238Y-94333333D01*
X72904761Y-94333333D01*
X72809523Y-94380952D01*
X72761904Y-94428571D01*
X72714285Y-94523809D01*
X70333333Y-81202380D02*
X70000000Y-80726190D01*
X69761904Y-81202380D02*
X69761904Y-80202380D01*
X70142857Y-80202380D01*
X70238095Y-80250000D01*
X70285714Y-80297619D01*
X70333333Y-80392857D01*
X70333333Y-80535714D01*
X70285714Y-80630952D01*
X70238095Y-80678571D01*
X70142857Y-80726190D01*
X69761904Y-80726190D01*
X70666666Y-80202380D02*
X71333333Y-80202380D01*
X70904761Y-81202380D01*
X63083333Y-72952380D02*
X62750000Y-72476190D01*
X62511904Y-72952380D02*
X62511904Y-71952380D01*
X62892857Y-71952380D01*
X62988095Y-72000000D01*
X63035714Y-72047619D01*
X63083333Y-72142857D01*
X63083333Y-72285714D01*
X63035714Y-72380952D01*
X62988095Y-72428571D01*
X62892857Y-72476190D01*
X62511904Y-72476190D01*
X63654761Y-72380952D02*
X63559523Y-72333333D01*
X63511904Y-72285714D01*
X63464285Y-72190476D01*
X63464285Y-72142857D01*
X63511904Y-72047619D01*
X63559523Y-72000000D01*
X63654761Y-71952380D01*
X63845238Y-71952380D01*
X63940476Y-72000000D01*
X63988095Y-72047619D01*
X64035714Y-72142857D01*
X64035714Y-72190476D01*
X63988095Y-72285714D01*
X63940476Y-72333333D01*
X63845238Y-72380952D01*
X63654761Y-72380952D01*
X63559523Y-72428571D01*
X63511904Y-72476190D01*
X63464285Y-72571428D01*
X63464285Y-72761904D01*
X63511904Y-72857142D01*
X63559523Y-72904761D01*
X63654761Y-72952380D01*
X63845238Y-72952380D01*
X63940476Y-72904761D01*
X63988095Y-72857142D01*
X64035714Y-72761904D01*
X64035714Y-72571428D01*
X63988095Y-72476190D01*
X63940476Y-72428571D01*
X63845238Y-72380952D01*
X98952380Y-70166666D02*
X98476190Y-70500000D01*
X98952380Y-70738095D02*
X97952380Y-70738095D01*
X97952380Y-70357142D01*
X98000000Y-70261904D01*
X98047619Y-70214285D01*
X98142857Y-70166666D01*
X98285714Y-70166666D01*
X98380952Y-70214285D01*
X98428571Y-70261904D01*
X98476190Y-70357142D01*
X98476190Y-70738095D01*
X98952380Y-69690476D02*
X98952380Y-69500000D01*
X98904761Y-69404761D01*
X98857142Y-69357142D01*
X98714285Y-69261904D01*
X98523809Y-69214285D01*
X98142857Y-69214285D01*
X98047619Y-69261904D01*
X98000000Y-69309523D01*
X97952380Y-69404761D01*
X97952380Y-69595238D01*
X98000000Y-69690476D01*
X98047619Y-69738095D01*
X98142857Y-69785714D01*
X98380952Y-69785714D01*
X98476190Y-69738095D01*
X98523809Y-69690476D01*
X98571428Y-69595238D01*
X98571428Y-69404761D01*
X98523809Y-69309523D01*
X98476190Y-69261904D01*
X98380952Y-69214285D01*
X95452380Y-66642857D02*
X94976190Y-66976190D01*
X95452380Y-67214285D02*
X94452380Y-67214285D01*
X94452380Y-66833333D01*
X94500000Y-66738095D01*
X94547619Y-66690476D01*
X94642857Y-66642857D01*
X94785714Y-66642857D01*
X94880952Y-66690476D01*
X94928571Y-66738095D01*
X94976190Y-66833333D01*
X94976190Y-67214285D01*
X95452380Y-65690476D02*
X95452380Y-66261904D01*
X95452380Y-65976190D02*
X94452380Y-65976190D01*
X94595238Y-66071428D01*
X94690476Y-66166666D01*
X94738095Y-66261904D01*
X94452380Y-65071428D02*
X94452380Y-64976190D01*
X94500000Y-64880952D01*
X94547619Y-64833333D01*
X94642857Y-64785714D01*
X94833333Y-64738095D01*
X95071428Y-64738095D01*
X95261904Y-64785714D01*
X95357142Y-64833333D01*
X95404761Y-64880952D01*
X95452380Y-64976190D01*
X95452380Y-65071428D01*
X95404761Y-65166666D01*
X95357142Y-65214285D01*
X95261904Y-65261904D01*
X95071428Y-65309523D01*
X94833333Y-65309523D01*
X94642857Y-65261904D01*
X94547619Y-65214285D01*
X94500000Y-65166666D01*
X94452380Y-65071428D01*
X81232142Y-73022380D02*
X80898809Y-72546190D01*
X80660714Y-73022380D02*
X80660714Y-72022380D01*
X81041666Y-72022380D01*
X81136904Y-72070000D01*
X81184523Y-72117619D01*
X81232142Y-72212857D01*
X81232142Y-72355714D01*
X81184523Y-72450952D01*
X81136904Y-72498571D01*
X81041666Y-72546190D01*
X80660714Y-72546190D01*
X82184523Y-73022380D02*
X81613095Y-73022380D01*
X81898809Y-73022380D02*
X81898809Y-72022380D01*
X81803571Y-72165238D01*
X81708333Y-72260476D01*
X81613095Y-72308095D01*
X83136904Y-73022380D02*
X82565476Y-73022380D01*
X82851190Y-73022380D02*
X82851190Y-72022380D01*
X82755952Y-72165238D01*
X82660714Y-72260476D01*
X82565476Y-72308095D01*
X65357142Y-68702380D02*
X65023809Y-68226190D01*
X64785714Y-68702380D02*
X64785714Y-67702380D01*
X65166666Y-67702380D01*
X65261904Y-67750000D01*
X65309523Y-67797619D01*
X65357142Y-67892857D01*
X65357142Y-68035714D01*
X65309523Y-68130952D01*
X65261904Y-68178571D01*
X65166666Y-68226190D01*
X64785714Y-68226190D01*
X66309523Y-68702380D02*
X65738095Y-68702380D01*
X66023809Y-68702380D02*
X66023809Y-67702380D01*
X65928571Y-67845238D01*
X65833333Y-67940476D01*
X65738095Y-67988095D01*
X66690476Y-67797619D02*
X66738095Y-67750000D01*
X66833333Y-67702380D01*
X67071428Y-67702380D01*
X67166666Y-67750000D01*
X67214285Y-67797619D01*
X67261904Y-67892857D01*
X67261904Y-67988095D01*
X67214285Y-68130952D01*
X66642857Y-68702380D01*
X67261904Y-68702380D01*
X99022380Y-66767857D02*
X98546190Y-67101190D01*
X99022380Y-67339285D02*
X98022380Y-67339285D01*
X98022380Y-66958333D01*
X98070000Y-66863095D01*
X98117619Y-66815476D01*
X98212857Y-66767857D01*
X98355714Y-66767857D01*
X98450952Y-66815476D01*
X98498571Y-66863095D01*
X98546190Y-66958333D01*
X98546190Y-67339285D01*
X99022380Y-65815476D02*
X99022380Y-66386904D01*
X99022380Y-66101190D02*
X98022380Y-66101190D01*
X98165238Y-66196428D01*
X98260476Y-66291666D01*
X98308095Y-66386904D01*
X98022380Y-65482142D02*
X98022380Y-64863095D01*
X98403333Y-65196428D01*
X98403333Y-65053571D01*
X98450952Y-64958333D01*
X98498571Y-64910714D01*
X98593809Y-64863095D01*
X98831904Y-64863095D01*
X98927142Y-64910714D01*
X98974761Y-64958333D01*
X99022380Y-65053571D01*
X99022380Y-65339285D01*
X98974761Y-65434523D01*
X98927142Y-65482142D01*
X71702380Y-64142857D02*
X71226190Y-64476190D01*
X71702380Y-64714285D02*
X70702380Y-64714285D01*
X70702380Y-64333333D01*
X70750000Y-64238095D01*
X70797619Y-64190476D01*
X70892857Y-64142857D01*
X71035714Y-64142857D01*
X71130952Y-64190476D01*
X71178571Y-64238095D01*
X71226190Y-64333333D01*
X71226190Y-64714285D01*
X71702380Y-63190476D02*
X71702380Y-63761904D01*
X71702380Y-63476190D02*
X70702380Y-63476190D01*
X70845238Y-63571428D01*
X70940476Y-63666666D01*
X70988095Y-63761904D01*
X71035714Y-62333333D02*
X71702380Y-62333333D01*
X70654761Y-62571428D02*
X71369047Y-62809523D01*
X71369047Y-62190476D01*
X67452380Y-82642857D02*
X66976190Y-82976190D01*
X67452380Y-83214285D02*
X66452380Y-83214285D01*
X66452380Y-82833333D01*
X66500000Y-82738095D01*
X66547619Y-82690476D01*
X66642857Y-82642857D01*
X66785714Y-82642857D01*
X66880952Y-82690476D01*
X66928571Y-82738095D01*
X66976190Y-82833333D01*
X66976190Y-83214285D01*
X67452380Y-81690476D02*
X67452380Y-82261904D01*
X67452380Y-81976190D02*
X66452380Y-81976190D01*
X66595238Y-82071428D01*
X66690476Y-82166666D01*
X66738095Y-82261904D01*
X66452380Y-80785714D02*
X66452380Y-81261904D01*
X66928571Y-81309523D01*
X66880952Y-81261904D01*
X66833333Y-81166666D01*
X66833333Y-80928571D01*
X66880952Y-80833333D01*
X66928571Y-80785714D01*
X67023809Y-80738095D01*
X67261904Y-80738095D01*
X67357142Y-80785714D01*
X67404761Y-80833333D01*
X67452380Y-80928571D01*
X67452380Y-81166666D01*
X67404761Y-81261904D01*
X67357142Y-81309523D01*
X74952380Y-94642857D02*
X74476190Y-94976190D01*
X74952380Y-95214285D02*
X73952380Y-95214285D01*
X73952380Y-94833333D01*
X74000000Y-94738095D01*
X74047619Y-94690476D01*
X74142857Y-94642857D01*
X74285714Y-94642857D01*
X74380952Y-94690476D01*
X74428571Y-94738095D01*
X74476190Y-94833333D01*
X74476190Y-95214285D01*
X74952380Y-93690476D02*
X74952380Y-94261904D01*
X74952380Y-93976190D02*
X73952380Y-93976190D01*
X74095238Y-94071428D01*
X74190476Y-94166666D01*
X74238095Y-94261904D01*
X73952380Y-92833333D02*
X73952380Y-93023809D01*
X74000000Y-93119047D01*
X74047619Y-93166666D01*
X74190476Y-93261904D01*
X74380952Y-93309523D01*
X74761904Y-93309523D01*
X74857142Y-93261904D01*
X74904761Y-93214285D01*
X74952380Y-93119047D01*
X74952380Y-92928571D01*
X74904761Y-92833333D01*
X74857142Y-92785714D01*
X74761904Y-92738095D01*
X74523809Y-92738095D01*
X74428571Y-92785714D01*
X74380952Y-92833333D01*
X74333333Y-92928571D01*
X74333333Y-93119047D01*
X74380952Y-93214285D01*
X74428571Y-93261904D01*
X74523809Y-93309523D01*
X78357142Y-65202380D02*
X78023809Y-64726190D01*
X77785714Y-65202380D02*
X77785714Y-64202380D01*
X78166666Y-64202380D01*
X78261904Y-64250000D01*
X78309523Y-64297619D01*
X78357142Y-64392857D01*
X78357142Y-64535714D01*
X78309523Y-64630952D01*
X78261904Y-64678571D01*
X78166666Y-64726190D01*
X77785714Y-64726190D01*
X79309523Y-65202380D02*
X78738095Y-65202380D01*
X79023809Y-65202380D02*
X79023809Y-64202380D01*
X78928571Y-64345238D01*
X78833333Y-64440476D01*
X78738095Y-64488095D01*
X79642857Y-64202380D02*
X80309523Y-64202380D01*
X79880952Y-65202380D01*
X68857142Y-77952380D02*
X68523809Y-77476190D01*
X68285714Y-77952380D02*
X68285714Y-76952380D01*
X68666666Y-76952380D01*
X68761904Y-77000000D01*
X68809523Y-77047619D01*
X68857142Y-77142857D01*
X68857142Y-77285714D01*
X68809523Y-77380952D01*
X68761904Y-77428571D01*
X68666666Y-77476190D01*
X68285714Y-77476190D01*
X69809523Y-77952380D02*
X69238095Y-77952380D01*
X69523809Y-77952380D02*
X69523809Y-76952380D01*
X69428571Y-77095238D01*
X69333333Y-77190476D01*
X69238095Y-77238095D01*
X70380952Y-77380952D02*
X70285714Y-77333333D01*
X70238095Y-77285714D01*
X70190476Y-77190476D01*
X70190476Y-77142857D01*
X70238095Y-77047619D01*
X70285714Y-77000000D01*
X70380952Y-76952380D01*
X70571428Y-76952380D01*
X70666666Y-77000000D01*
X70714285Y-77047619D01*
X70761904Y-77142857D01*
X70761904Y-77190476D01*
X70714285Y-77285714D01*
X70666666Y-77333333D01*
X70571428Y-77380952D01*
X70380952Y-77380952D01*
X70285714Y-77428571D01*
X70238095Y-77476190D01*
X70190476Y-77571428D01*
X70190476Y-77761904D01*
X70238095Y-77857142D01*
X70285714Y-77904761D01*
X70380952Y-77952380D01*
X70571428Y-77952380D01*
X70666666Y-77904761D01*
X70714285Y-77857142D01*
X70761904Y-77761904D01*
X70761904Y-77571428D01*
X70714285Y-77476190D01*
X70666666Y-77428571D01*
X70571428Y-77380952D01*
X80357142Y-68202380D02*
X80023809Y-67726190D01*
X79785714Y-68202380D02*
X79785714Y-67202380D01*
X80166666Y-67202380D01*
X80261904Y-67250000D01*
X80309523Y-67297619D01*
X80357142Y-67392857D01*
X80357142Y-67535714D01*
X80309523Y-67630952D01*
X80261904Y-67678571D01*
X80166666Y-67726190D01*
X79785714Y-67726190D01*
X81309523Y-68202380D02*
X80738095Y-68202380D01*
X81023809Y-68202380D02*
X81023809Y-67202380D01*
X80928571Y-67345238D01*
X80833333Y-67440476D01*
X80738095Y-67488095D01*
X81785714Y-68202380D02*
X81976190Y-68202380D01*
X82071428Y-68154761D01*
X82119047Y-68107142D01*
X82214285Y-67964285D01*
X82261904Y-67773809D01*
X82261904Y-67392857D01*
X82214285Y-67297619D01*
X82166666Y-67250000D01*
X82071428Y-67202380D01*
X81880952Y-67202380D01*
X81785714Y-67250000D01*
X81738095Y-67297619D01*
X81690476Y-67392857D01*
X81690476Y-67630952D01*
X81738095Y-67726190D01*
X81785714Y-67773809D01*
X81880952Y-67821428D01*
X82071428Y-67821428D01*
X82166666Y-67773809D01*
X82214285Y-67726190D01*
X82261904Y-67630952D01*
X76357142Y-66702380D02*
X76023809Y-66226190D01*
X75785714Y-66702380D02*
X75785714Y-65702380D01*
X76166666Y-65702380D01*
X76261904Y-65750000D01*
X76309523Y-65797619D01*
X76357142Y-65892857D01*
X76357142Y-66035714D01*
X76309523Y-66130952D01*
X76261904Y-66178571D01*
X76166666Y-66226190D01*
X75785714Y-66226190D01*
X76738095Y-65797619D02*
X76785714Y-65750000D01*
X76880952Y-65702380D01*
X77119047Y-65702380D01*
X77214285Y-65750000D01*
X77261904Y-65797619D01*
X77309523Y-65892857D01*
X77309523Y-65988095D01*
X77261904Y-66130952D01*
X76690476Y-66702380D01*
X77309523Y-66702380D01*
X77928571Y-65702380D02*
X78023809Y-65702380D01*
X78119047Y-65750000D01*
X78166666Y-65797619D01*
X78214285Y-65892857D01*
X78261904Y-66083333D01*
X78261904Y-66321428D01*
X78214285Y-66511904D01*
X78166666Y-66607142D01*
X78119047Y-66654761D01*
X78023809Y-66702380D01*
X77928571Y-66702380D01*
X77833333Y-66654761D01*
X77785714Y-66607142D01*
X77738095Y-66511904D01*
X77690476Y-66321428D01*
X77690476Y-66083333D01*
X77738095Y-65892857D01*
X77785714Y-65797619D01*
X77833333Y-65750000D01*
X77928571Y-65702380D01*
X76357142Y-68452380D02*
X76023809Y-67976190D01*
X75785714Y-68452380D02*
X75785714Y-67452380D01*
X76166666Y-67452380D01*
X76261904Y-67500000D01*
X76309523Y-67547619D01*
X76357142Y-67642857D01*
X76357142Y-67785714D01*
X76309523Y-67880952D01*
X76261904Y-67928571D01*
X76166666Y-67976190D01*
X75785714Y-67976190D01*
X76738095Y-67547619D02*
X76785714Y-67500000D01*
X76880952Y-67452380D01*
X77119047Y-67452380D01*
X77214285Y-67500000D01*
X77261904Y-67547619D01*
X77309523Y-67642857D01*
X77309523Y-67738095D01*
X77261904Y-67880952D01*
X76690476Y-68452380D01*
X77309523Y-68452380D01*
X78261904Y-68452380D02*
X77690476Y-68452380D01*
X77976190Y-68452380D02*
X77976190Y-67452380D01*
X77880952Y-67595238D01*
X77785714Y-67690476D01*
X77690476Y-67738095D01*
X72952380Y-89642857D02*
X72476190Y-89976190D01*
X72952380Y-90214285D02*
X71952380Y-90214285D01*
X71952380Y-89833333D01*
X72000000Y-89738095D01*
X72047619Y-89690476D01*
X72142857Y-89642857D01*
X72285714Y-89642857D01*
X72380952Y-89690476D01*
X72428571Y-89738095D01*
X72476190Y-89833333D01*
X72476190Y-90214285D01*
X72047619Y-89261904D02*
X72000000Y-89214285D01*
X71952380Y-89119047D01*
X71952380Y-88880952D01*
X72000000Y-88785714D01*
X72047619Y-88738095D01*
X72142857Y-88690476D01*
X72238095Y-88690476D01*
X72380952Y-88738095D01*
X72952380Y-89309523D01*
X72952380Y-88690476D01*
X71952380Y-88357142D02*
X71952380Y-87738095D01*
X72333333Y-88071428D01*
X72333333Y-87928571D01*
X72380952Y-87833333D01*
X72428571Y-87785714D01*
X72523809Y-87738095D01*
X72761904Y-87738095D01*
X72857142Y-87785714D01*
X72904761Y-87833333D01*
X72952380Y-87928571D01*
X72952380Y-88214285D01*
X72904761Y-88309523D01*
X72857142Y-88357142D01*
X72202380Y-56442857D02*
X71726190Y-56776190D01*
X72202380Y-57014285D02*
X71202380Y-57014285D01*
X71202380Y-56633333D01*
X71250000Y-56538095D01*
X71297619Y-56490476D01*
X71392857Y-56442857D01*
X71535714Y-56442857D01*
X71630952Y-56490476D01*
X71678571Y-56538095D01*
X71726190Y-56633333D01*
X71726190Y-57014285D01*
X71297619Y-56061904D02*
X71250000Y-56014285D01*
X71202380Y-55919047D01*
X71202380Y-55680952D01*
X71250000Y-55585714D01*
X71297619Y-55538095D01*
X71392857Y-55490476D01*
X71488095Y-55490476D01*
X71630952Y-55538095D01*
X72202380Y-56109523D01*
X72202380Y-55490476D01*
X71535714Y-54633333D02*
X72202380Y-54633333D01*
X71154761Y-54871428D02*
X71869047Y-55109523D01*
X71869047Y-54490476D01*
X73702380Y-59642857D02*
X73226190Y-59976190D01*
X73702380Y-60214285D02*
X72702380Y-60214285D01*
X72702380Y-59833333D01*
X72750000Y-59738095D01*
X72797619Y-59690476D01*
X72892857Y-59642857D01*
X73035714Y-59642857D01*
X73130952Y-59690476D01*
X73178571Y-59738095D01*
X73226190Y-59833333D01*
X73226190Y-60214285D01*
X72797619Y-59261904D02*
X72750000Y-59214285D01*
X72702380Y-59119047D01*
X72702380Y-58880952D01*
X72750000Y-58785714D01*
X72797619Y-58738095D01*
X72892857Y-58690476D01*
X72988095Y-58690476D01*
X73130952Y-58738095D01*
X73702380Y-59309523D01*
X73702380Y-58690476D01*
X72702380Y-57785714D02*
X72702380Y-58261904D01*
X73178571Y-58309523D01*
X73130952Y-58261904D01*
X73083333Y-58166666D01*
X73083333Y-57928571D01*
X73130952Y-57833333D01*
X73178571Y-57785714D01*
X73273809Y-57738095D01*
X73511904Y-57738095D01*
X73607142Y-57785714D01*
X73654761Y-57833333D01*
X73702380Y-57928571D01*
X73702380Y-58166666D01*
X73654761Y-58261904D01*
X73607142Y-58309523D01*
X76857142Y-89952380D02*
X76523809Y-89476190D01*
X76285714Y-89952380D02*
X76285714Y-88952380D01*
X76666666Y-88952380D01*
X76761904Y-89000000D01*
X76809523Y-89047619D01*
X76857142Y-89142857D01*
X76857142Y-89285714D01*
X76809523Y-89380952D01*
X76761904Y-89428571D01*
X76666666Y-89476190D01*
X76285714Y-89476190D01*
X77238095Y-89047619D02*
X77285714Y-89000000D01*
X77380952Y-88952380D01*
X77619047Y-88952380D01*
X77714285Y-89000000D01*
X77761904Y-89047619D01*
X77809523Y-89142857D01*
X77809523Y-89238095D01*
X77761904Y-89380952D01*
X77190476Y-89952380D01*
X77809523Y-89952380D01*
X78666666Y-88952380D02*
X78476190Y-88952380D01*
X78380952Y-89000000D01*
X78333333Y-89047619D01*
X78238095Y-89190476D01*
X78190476Y-89380952D01*
X78190476Y-89761904D01*
X78238095Y-89857142D01*
X78285714Y-89904761D01*
X78380952Y-89952380D01*
X78571428Y-89952380D01*
X78666666Y-89904761D01*
X78714285Y-89857142D01*
X78761904Y-89761904D01*
X78761904Y-89523809D01*
X78714285Y-89428571D01*
X78666666Y-89380952D01*
X78571428Y-89333333D01*
X78380952Y-89333333D01*
X78285714Y-89380952D01*
X78238095Y-89428571D01*
X78190476Y-89523809D01*
X81357142Y-89952380D02*
X81023809Y-89476190D01*
X80785714Y-89952380D02*
X80785714Y-88952380D01*
X81166666Y-88952380D01*
X81261904Y-89000000D01*
X81309523Y-89047619D01*
X81357142Y-89142857D01*
X81357142Y-89285714D01*
X81309523Y-89380952D01*
X81261904Y-89428571D01*
X81166666Y-89476190D01*
X80785714Y-89476190D01*
X81738095Y-89047619D02*
X81785714Y-89000000D01*
X81880952Y-88952380D01*
X82119047Y-88952380D01*
X82214285Y-89000000D01*
X82261904Y-89047619D01*
X82309523Y-89142857D01*
X82309523Y-89238095D01*
X82261904Y-89380952D01*
X81690476Y-89952380D01*
X82309523Y-89952380D01*
X82642857Y-88952380D02*
X83309523Y-88952380D01*
X82880952Y-89952380D01*
X88857142Y-51202380D02*
X88523809Y-50726190D01*
X88285714Y-51202380D02*
X88285714Y-50202380D01*
X88666666Y-50202380D01*
X88761904Y-50250000D01*
X88809523Y-50297619D01*
X88857142Y-50392857D01*
X88857142Y-50535714D01*
X88809523Y-50630952D01*
X88761904Y-50678571D01*
X88666666Y-50726190D01*
X88285714Y-50726190D01*
X89238095Y-50297619D02*
X89285714Y-50250000D01*
X89380952Y-50202380D01*
X89619047Y-50202380D01*
X89714285Y-50250000D01*
X89761904Y-50297619D01*
X89809523Y-50392857D01*
X89809523Y-50488095D01*
X89761904Y-50630952D01*
X89190476Y-51202380D01*
X89809523Y-51202380D01*
X90285714Y-51202380D02*
X90476190Y-51202380D01*
X90571428Y-51154761D01*
X90619047Y-51107142D01*
X90714285Y-50964285D01*
X90761904Y-50773809D01*
X90761904Y-50392857D01*
X90714285Y-50297619D01*
X90666666Y-50250000D01*
X90571428Y-50202380D01*
X90380952Y-50202380D01*
X90285714Y-50250000D01*
X90238095Y-50297619D01*
X90190476Y-50392857D01*
X90190476Y-50630952D01*
X90238095Y-50726190D01*
X90285714Y-50773809D01*
X90380952Y-50821428D01*
X90571428Y-50821428D01*
X90666666Y-50773809D01*
X90714285Y-50726190D01*
X90761904Y-50630952D01*
M02*
