G04 #@! TF.GenerationSoftware,KiCad,Pcbnew,(5.1.2-1)-1*
G04 #@! TF.CreationDate,2019-12-28T14:45:16-07:00*
G04 #@! TF.ProjectId,NuisanceEngine,4e756973-616e-4636-9545-6e67696e652e,rev?*
G04 #@! TF.SameCoordinates,Original*
G04 #@! TF.FileFunction,Soldermask,Top*
G04 #@! TF.FilePolarity,Negative*
%FSLAX46Y46*%
G04 Gerber Fmt 4.6, Leading zero omitted, Abs format (unit mm)*
G04 Created by KiCad (PCBNEW (5.1.2-1)-1) date 2019-12-28 14:45:16*
%MOMM*%
%LPD*%
G04 APERTURE LIST*
%ADD10C,0.100000*%
G04 APERTURE END LIST*
D10*
G36*
X92168707Y-96957596D02*
G01*
X92245836Y-96965193D01*
X92443762Y-97025233D01*
X92443765Y-97025234D01*
X92626170Y-97122732D01*
X92786055Y-97253945D01*
X92917268Y-97413830D01*
X93014766Y-97596235D01*
X93014767Y-97596238D01*
X93074807Y-97794164D01*
X93095080Y-98000000D01*
X93074807Y-98205836D01*
X93014767Y-98403762D01*
X93014766Y-98403765D01*
X92917268Y-98586170D01*
X92786055Y-98746055D01*
X92626170Y-98877268D01*
X92443765Y-98974766D01*
X92443762Y-98974767D01*
X92245836Y-99034807D01*
X92168707Y-99042403D01*
X92091580Y-99050000D01*
X91988420Y-99050000D01*
X91911293Y-99042403D01*
X91834164Y-99034807D01*
X91636238Y-98974767D01*
X91636235Y-98974766D01*
X91453830Y-98877268D01*
X91293945Y-98746055D01*
X91162732Y-98586170D01*
X91065234Y-98403765D01*
X91065233Y-98403762D01*
X91005193Y-98205836D01*
X90984920Y-98000000D01*
X91005193Y-97794164D01*
X91065233Y-97596238D01*
X91065234Y-97596235D01*
X91162732Y-97413830D01*
X91293945Y-97253945D01*
X91453830Y-97122732D01*
X91636235Y-97025234D01*
X91636238Y-97025233D01*
X91834164Y-96965193D01*
X91911293Y-96957596D01*
X91988420Y-96950000D01*
X92091580Y-96950000D01*
X92168707Y-96957596D01*
X92168707Y-96957596D01*
G37*
G36*
X90550000Y-99050000D02*
G01*
X88450000Y-99050000D01*
X88450000Y-96950000D01*
X90550000Y-96950000D01*
X90550000Y-99050000D01*
X90550000Y-99050000D01*
G37*
G36*
X86668707Y-96957596D02*
G01*
X86745836Y-96965193D01*
X86943762Y-97025233D01*
X86943765Y-97025234D01*
X87126170Y-97122732D01*
X87286055Y-97253945D01*
X87417268Y-97413830D01*
X87514766Y-97596235D01*
X87514767Y-97596238D01*
X87574807Y-97794164D01*
X87595080Y-98000000D01*
X87574807Y-98205836D01*
X87514767Y-98403762D01*
X87514766Y-98403765D01*
X87417268Y-98586170D01*
X87286055Y-98746055D01*
X87126170Y-98877268D01*
X86943765Y-98974766D01*
X86943762Y-98974767D01*
X86745836Y-99034807D01*
X86668707Y-99042403D01*
X86591580Y-99050000D01*
X86488420Y-99050000D01*
X86411293Y-99042403D01*
X86334164Y-99034807D01*
X86136238Y-98974767D01*
X86136235Y-98974766D01*
X85953830Y-98877268D01*
X85793945Y-98746055D01*
X85662732Y-98586170D01*
X85565234Y-98403765D01*
X85565233Y-98403762D01*
X85505193Y-98205836D01*
X85484920Y-98000000D01*
X85505193Y-97794164D01*
X85565233Y-97596238D01*
X85565234Y-97596235D01*
X85662732Y-97413830D01*
X85793945Y-97253945D01*
X85953830Y-97122732D01*
X86136235Y-97025234D01*
X86136238Y-97025233D01*
X86334164Y-96965193D01*
X86411293Y-96957596D01*
X86488420Y-96950000D01*
X86591580Y-96950000D01*
X86668707Y-96957596D01*
X86668707Y-96957596D01*
G37*
G36*
X84128707Y-96957596D02*
G01*
X84205836Y-96965193D01*
X84403762Y-97025233D01*
X84403765Y-97025234D01*
X84586170Y-97122732D01*
X84746055Y-97253945D01*
X84877268Y-97413830D01*
X84974766Y-97596235D01*
X84974767Y-97596238D01*
X85034807Y-97794164D01*
X85055080Y-98000000D01*
X85034807Y-98205836D01*
X84974767Y-98403762D01*
X84974766Y-98403765D01*
X84877268Y-98586170D01*
X84746055Y-98746055D01*
X84586170Y-98877268D01*
X84403765Y-98974766D01*
X84403762Y-98974767D01*
X84205836Y-99034807D01*
X84128707Y-99042403D01*
X84051580Y-99050000D01*
X83948420Y-99050000D01*
X83871293Y-99042403D01*
X83794164Y-99034807D01*
X83596238Y-98974767D01*
X83596235Y-98974766D01*
X83413830Y-98877268D01*
X83253945Y-98746055D01*
X83122732Y-98586170D01*
X83025234Y-98403765D01*
X83025233Y-98403762D01*
X82965193Y-98205836D01*
X82944920Y-98000000D01*
X82965193Y-97794164D01*
X83025233Y-97596238D01*
X83025234Y-97596235D01*
X83122732Y-97413830D01*
X83253945Y-97253945D01*
X83413830Y-97122732D01*
X83596235Y-97025234D01*
X83596238Y-97025233D01*
X83794164Y-96965193D01*
X83871293Y-96957596D01*
X83948420Y-96950000D01*
X84051580Y-96950000D01*
X84128707Y-96957596D01*
X84128707Y-96957596D01*
G37*
G36*
X82510000Y-99050000D02*
G01*
X80410000Y-99050000D01*
X80410000Y-96950000D01*
X82510000Y-96950000D01*
X82510000Y-99050000D01*
X82510000Y-99050000D01*
G37*
G36*
X78668707Y-96957596D02*
G01*
X78745836Y-96965193D01*
X78943762Y-97025233D01*
X78943765Y-97025234D01*
X79126170Y-97122732D01*
X79286055Y-97253945D01*
X79417268Y-97413830D01*
X79514766Y-97596235D01*
X79514767Y-97596238D01*
X79574807Y-97794164D01*
X79595080Y-98000000D01*
X79574807Y-98205836D01*
X79514767Y-98403762D01*
X79514766Y-98403765D01*
X79417268Y-98586170D01*
X79286055Y-98746055D01*
X79126170Y-98877268D01*
X78943765Y-98974766D01*
X78943762Y-98974767D01*
X78745836Y-99034807D01*
X78668707Y-99042403D01*
X78591580Y-99050000D01*
X78488420Y-99050000D01*
X78411293Y-99042403D01*
X78334164Y-99034807D01*
X78136238Y-98974767D01*
X78136235Y-98974766D01*
X77953830Y-98877268D01*
X77793945Y-98746055D01*
X77662732Y-98586170D01*
X77565234Y-98403765D01*
X77565233Y-98403762D01*
X77505193Y-98205836D01*
X77484920Y-98000000D01*
X77505193Y-97794164D01*
X77565233Y-97596238D01*
X77565234Y-97596235D01*
X77662732Y-97413830D01*
X77793945Y-97253945D01*
X77953830Y-97122732D01*
X78136235Y-97025234D01*
X78136238Y-97025233D01*
X78334164Y-96965193D01*
X78411293Y-96957596D01*
X78488420Y-96950000D01*
X78591580Y-96950000D01*
X78668707Y-96957596D01*
X78668707Y-96957596D01*
G37*
G36*
X77050000Y-99050000D02*
G01*
X74950000Y-99050000D01*
X74950000Y-96950000D01*
X77050000Y-96950000D01*
X77050000Y-99050000D01*
X77050000Y-99050000D01*
G37*
G36*
X73208707Y-96957596D02*
G01*
X73285836Y-96965193D01*
X73483762Y-97025233D01*
X73483765Y-97025234D01*
X73666170Y-97122732D01*
X73826055Y-97253945D01*
X73957268Y-97413830D01*
X74054766Y-97596235D01*
X74054767Y-97596238D01*
X74114807Y-97794164D01*
X74135080Y-98000000D01*
X74114807Y-98205836D01*
X74054767Y-98403762D01*
X74054766Y-98403765D01*
X73957268Y-98586170D01*
X73826055Y-98746055D01*
X73666170Y-98877268D01*
X73483765Y-98974766D01*
X73483762Y-98974767D01*
X73285836Y-99034807D01*
X73208707Y-99042403D01*
X73131580Y-99050000D01*
X73028420Y-99050000D01*
X72951293Y-99042403D01*
X72874164Y-99034807D01*
X72676238Y-98974767D01*
X72676235Y-98974766D01*
X72493830Y-98877268D01*
X72333945Y-98746055D01*
X72202732Y-98586170D01*
X72105234Y-98403765D01*
X72105233Y-98403762D01*
X72045193Y-98205836D01*
X72024920Y-98000000D01*
X72045193Y-97794164D01*
X72105233Y-97596238D01*
X72105234Y-97596235D01*
X72202732Y-97413830D01*
X72333945Y-97253945D01*
X72493830Y-97122732D01*
X72676235Y-97025234D01*
X72676238Y-97025233D01*
X72874164Y-96965193D01*
X72951293Y-96957596D01*
X73028420Y-96950000D01*
X73131580Y-96950000D01*
X73208707Y-96957596D01*
X73208707Y-96957596D01*
G37*
G36*
X70668707Y-96957596D02*
G01*
X70745836Y-96965193D01*
X70943762Y-97025233D01*
X70943765Y-97025234D01*
X71126170Y-97122732D01*
X71286055Y-97253945D01*
X71417268Y-97413830D01*
X71514766Y-97596235D01*
X71514767Y-97596238D01*
X71574807Y-97794164D01*
X71595080Y-98000000D01*
X71574807Y-98205836D01*
X71514767Y-98403762D01*
X71514766Y-98403765D01*
X71417268Y-98586170D01*
X71286055Y-98746055D01*
X71126170Y-98877268D01*
X70943765Y-98974766D01*
X70943762Y-98974767D01*
X70745836Y-99034807D01*
X70668707Y-99042403D01*
X70591580Y-99050000D01*
X70488420Y-99050000D01*
X70411293Y-99042403D01*
X70334164Y-99034807D01*
X70136238Y-98974767D01*
X70136235Y-98974766D01*
X69953830Y-98877268D01*
X69793945Y-98746055D01*
X69662732Y-98586170D01*
X69565234Y-98403765D01*
X69565233Y-98403762D01*
X69505193Y-98205836D01*
X69484920Y-98000000D01*
X69505193Y-97794164D01*
X69565233Y-97596238D01*
X69565234Y-97596235D01*
X69662732Y-97413830D01*
X69793945Y-97253945D01*
X69953830Y-97122732D01*
X70136235Y-97025234D01*
X70136238Y-97025233D01*
X70334164Y-96965193D01*
X70411293Y-96957596D01*
X70488420Y-96950000D01*
X70591580Y-96950000D01*
X70668707Y-96957596D01*
X70668707Y-96957596D01*
G37*
G36*
X69050000Y-99050000D02*
G01*
X66950000Y-99050000D01*
X66950000Y-96950000D01*
X69050000Y-96950000D01*
X69050000Y-99050000D01*
X69050000Y-99050000D01*
G37*
G36*
X83585529Y-93105710D02*
G01*
X83635378Y-93120831D01*
X83681310Y-93145382D01*
X83721574Y-93178426D01*
X83754618Y-93218690D01*
X83779169Y-93264622D01*
X83794290Y-93314471D01*
X83800000Y-93372444D01*
X83800000Y-94627556D01*
X83794290Y-94685529D01*
X83779169Y-94735378D01*
X83754618Y-94781310D01*
X83721574Y-94821574D01*
X83681310Y-94854618D01*
X83635378Y-94879169D01*
X83585529Y-94894290D01*
X83527556Y-94900000D01*
X82522444Y-94900000D01*
X82464471Y-94894290D01*
X82414622Y-94879169D01*
X82368690Y-94854618D01*
X82328426Y-94821574D01*
X82295382Y-94781310D01*
X82270831Y-94735378D01*
X82255710Y-94685529D01*
X82250000Y-94627556D01*
X82250000Y-93372444D01*
X82255710Y-93314471D01*
X82270831Y-93264622D01*
X82295382Y-93218690D01*
X82328426Y-93178426D01*
X82368690Y-93145382D01*
X82414622Y-93120831D01*
X82464471Y-93105710D01*
X82522444Y-93100000D01*
X83527556Y-93100000D01*
X83585529Y-93105710D01*
X83585529Y-93105710D01*
G37*
G36*
X81535529Y-93105710D02*
G01*
X81585378Y-93120831D01*
X81631310Y-93145382D01*
X81671574Y-93178426D01*
X81704618Y-93218690D01*
X81729169Y-93264622D01*
X81744290Y-93314471D01*
X81750000Y-93372444D01*
X81750000Y-94627556D01*
X81744290Y-94685529D01*
X81729169Y-94735378D01*
X81704618Y-94781310D01*
X81671574Y-94821574D01*
X81631310Y-94854618D01*
X81585378Y-94879169D01*
X81535529Y-94894290D01*
X81477556Y-94900000D01*
X80472444Y-94900000D01*
X80414471Y-94894290D01*
X80364622Y-94879169D01*
X80318690Y-94854618D01*
X80278426Y-94821574D01*
X80245382Y-94781310D01*
X80220831Y-94735378D01*
X80205710Y-94685529D01*
X80200000Y-94627556D01*
X80200000Y-93372444D01*
X80205710Y-93314471D01*
X80220831Y-93264622D01*
X80245382Y-93218690D01*
X80278426Y-93178426D01*
X80318690Y-93145382D01*
X80364622Y-93120831D01*
X80414471Y-93105710D01*
X80472444Y-93100000D01*
X81477556Y-93100000D01*
X81535529Y-93105710D01*
X81535529Y-93105710D01*
G37*
G36*
X77035529Y-93105710D02*
G01*
X77085378Y-93120831D01*
X77131310Y-93145382D01*
X77171574Y-93178426D01*
X77204618Y-93218690D01*
X77229169Y-93264622D01*
X77244290Y-93314471D01*
X77250000Y-93372444D01*
X77250000Y-94627556D01*
X77244290Y-94685529D01*
X77229169Y-94735378D01*
X77204618Y-94781310D01*
X77171574Y-94821574D01*
X77131310Y-94854618D01*
X77085378Y-94879169D01*
X77035529Y-94894290D01*
X76977556Y-94900000D01*
X75972444Y-94900000D01*
X75914471Y-94894290D01*
X75864622Y-94879169D01*
X75818690Y-94854618D01*
X75778426Y-94821574D01*
X75745382Y-94781310D01*
X75720831Y-94735378D01*
X75705710Y-94685529D01*
X75700000Y-94627556D01*
X75700000Y-93372444D01*
X75705710Y-93314471D01*
X75720831Y-93264622D01*
X75745382Y-93218690D01*
X75778426Y-93178426D01*
X75818690Y-93145382D01*
X75864622Y-93120831D01*
X75914471Y-93105710D01*
X75972444Y-93100000D01*
X76977556Y-93100000D01*
X77035529Y-93105710D01*
X77035529Y-93105710D01*
G37*
G36*
X79085529Y-93105710D02*
G01*
X79135378Y-93120831D01*
X79181310Y-93145382D01*
X79221574Y-93178426D01*
X79254618Y-93218690D01*
X79279169Y-93264622D01*
X79294290Y-93314471D01*
X79300000Y-93372444D01*
X79300000Y-94627556D01*
X79294290Y-94685529D01*
X79279169Y-94735378D01*
X79254618Y-94781310D01*
X79221574Y-94821574D01*
X79181310Y-94854618D01*
X79135378Y-94879169D01*
X79085529Y-94894290D01*
X79027556Y-94900000D01*
X78022444Y-94900000D01*
X77964471Y-94894290D01*
X77914622Y-94879169D01*
X77868690Y-94854618D01*
X77828426Y-94821574D01*
X77795382Y-94781310D01*
X77770831Y-94735378D01*
X77755710Y-94685529D01*
X77750000Y-94627556D01*
X77750000Y-93372444D01*
X77755710Y-93314471D01*
X77770831Y-93264622D01*
X77795382Y-93218690D01*
X77828426Y-93178426D01*
X77868690Y-93145382D01*
X77914622Y-93120831D01*
X77964471Y-93105710D01*
X78022444Y-93100000D01*
X79027556Y-93100000D01*
X79085529Y-93105710D01*
X79085529Y-93105710D01*
G37*
G36*
X95545153Y-90578343D02*
G01*
X95702118Y-90609565D01*
X95747903Y-90628530D01*
X95984199Y-90726407D01*
X96021228Y-90751149D01*
X96238068Y-90896036D01*
X96453964Y-91111932D01*
X96517405Y-91206879D01*
X96623593Y-91365801D01*
X96625140Y-91369537D01*
X96740435Y-91647882D01*
X96750803Y-91700005D01*
X96800000Y-91947337D01*
X96800000Y-92252663D01*
X96772353Y-92391656D01*
X96740435Y-92552118D01*
X96723036Y-92594123D01*
X96623593Y-92834199D01*
X96623592Y-92834200D01*
X96453964Y-93088068D01*
X96238068Y-93303964D01*
X96126471Y-93378530D01*
X95984199Y-93473593D01*
X95874511Y-93519027D01*
X95702118Y-93590435D01*
X95552390Y-93620217D01*
X95402663Y-93650000D01*
X95097337Y-93650000D01*
X94947610Y-93620217D01*
X94797882Y-93590435D01*
X94625489Y-93519027D01*
X94515801Y-93473593D01*
X94373529Y-93378530D01*
X94261932Y-93303964D01*
X94046036Y-93088068D01*
X93876408Y-92834200D01*
X93876407Y-92834199D01*
X93776964Y-92594123D01*
X93759565Y-92552118D01*
X93727647Y-92391656D01*
X93700000Y-92252663D01*
X93700000Y-91947337D01*
X93749197Y-91700005D01*
X93759565Y-91647882D01*
X93874860Y-91369537D01*
X93876407Y-91365801D01*
X93982595Y-91206879D01*
X94046036Y-91111932D01*
X94261932Y-90896036D01*
X94478772Y-90751149D01*
X94515801Y-90726407D01*
X94752097Y-90628530D01*
X94797882Y-90609565D01*
X94954847Y-90578343D01*
X95097337Y-90550000D01*
X95402663Y-90550000D01*
X95545153Y-90578343D01*
X95545153Y-90578343D01*
G37*
G36*
X67545153Y-90578343D02*
G01*
X67702118Y-90609565D01*
X67747903Y-90628530D01*
X67984199Y-90726407D01*
X68021228Y-90751149D01*
X68238068Y-90896036D01*
X68453964Y-91111932D01*
X68517405Y-91206879D01*
X68623593Y-91365801D01*
X68625140Y-91369537D01*
X68740435Y-91647882D01*
X68750803Y-91700005D01*
X68800000Y-91947337D01*
X68800000Y-92252663D01*
X68772353Y-92391656D01*
X68740435Y-92552118D01*
X68723036Y-92594123D01*
X68623593Y-92834199D01*
X68623592Y-92834200D01*
X68453964Y-93088068D01*
X68238068Y-93303964D01*
X68126471Y-93378530D01*
X67984199Y-93473593D01*
X67874511Y-93519027D01*
X67702118Y-93590435D01*
X67552390Y-93620217D01*
X67402663Y-93650000D01*
X67097337Y-93650000D01*
X66947610Y-93620217D01*
X66797882Y-93590435D01*
X66625489Y-93519027D01*
X66515801Y-93473593D01*
X66373529Y-93378530D01*
X66261932Y-93303964D01*
X66046036Y-93088068D01*
X65876408Y-92834200D01*
X65876407Y-92834199D01*
X65776964Y-92594123D01*
X65759565Y-92552118D01*
X65727647Y-92391656D01*
X65700000Y-92252663D01*
X65700000Y-91947337D01*
X65749197Y-91700005D01*
X65759565Y-91647882D01*
X65874860Y-91369537D01*
X65876407Y-91365801D01*
X65982595Y-91206879D01*
X66046036Y-91111932D01*
X66261932Y-90896036D01*
X66478772Y-90751149D01*
X66515801Y-90726407D01*
X66752097Y-90628530D01*
X66797882Y-90609565D01*
X66954847Y-90578343D01*
X67097337Y-90550000D01*
X67402663Y-90550000D01*
X67545153Y-90578343D01*
X67545153Y-90578343D01*
G37*
G36*
X72953530Y-92155877D02*
G01*
X73005010Y-92171493D01*
X73052445Y-92196848D01*
X73094027Y-92230973D01*
X73128152Y-92272555D01*
X73153507Y-92319990D01*
X73169123Y-92371470D01*
X73175000Y-92431140D01*
X73175000Y-93318860D01*
X73169123Y-93378530D01*
X73153507Y-93430010D01*
X73128152Y-93477445D01*
X73094027Y-93519027D01*
X73052445Y-93553152D01*
X73005010Y-93578507D01*
X72953530Y-93594123D01*
X72893860Y-93600000D01*
X72106140Y-93600000D01*
X72046470Y-93594123D01*
X71994990Y-93578507D01*
X71947555Y-93553152D01*
X71905973Y-93519027D01*
X71871848Y-93477445D01*
X71846493Y-93430010D01*
X71830877Y-93378530D01*
X71825000Y-93318860D01*
X71825000Y-92431140D01*
X71830877Y-92371470D01*
X71846493Y-92319990D01*
X71871848Y-92272555D01*
X71905973Y-92230973D01*
X71947555Y-92196848D01*
X71994990Y-92171493D01*
X72046470Y-92155877D01*
X72106140Y-92150000D01*
X72893860Y-92150000D01*
X72953530Y-92155877D01*
X72953530Y-92155877D01*
G37*
G36*
X88888237Y-90720149D02*
G01*
X89130463Y-90820482D01*
X89130465Y-90820483D01*
X89348463Y-90966145D01*
X89533855Y-91151537D01*
X89646412Y-91319990D01*
X89679518Y-91369537D01*
X89779851Y-91611763D01*
X89831000Y-91868907D01*
X89831000Y-92131093D01*
X89779851Y-92388237D01*
X89701039Y-92578507D01*
X89679517Y-92630465D01*
X89533855Y-92848463D01*
X89348463Y-93033855D01*
X89130465Y-93179517D01*
X89130464Y-93179518D01*
X89130463Y-93179518D01*
X88888237Y-93279851D01*
X88631093Y-93331000D01*
X88368907Y-93331000D01*
X88111763Y-93279851D01*
X87869537Y-93179518D01*
X87869536Y-93179518D01*
X87869535Y-93179517D01*
X87651537Y-93033855D01*
X87466145Y-92848463D01*
X87320483Y-92630465D01*
X87298961Y-92578507D01*
X87220149Y-92388237D01*
X87169000Y-92131093D01*
X87169000Y-91868907D01*
X87220149Y-91611763D01*
X87320482Y-91369537D01*
X87353588Y-91319990D01*
X87466145Y-91151537D01*
X87651537Y-90966145D01*
X87869535Y-90820483D01*
X87869537Y-90820482D01*
X88111763Y-90720149D01*
X88368907Y-90669000D01*
X88631093Y-90669000D01*
X88888237Y-90720149D01*
X88888237Y-90720149D01*
G37*
G36*
X74953530Y-91155877D02*
G01*
X75005010Y-91171493D01*
X75052445Y-91196848D01*
X75094027Y-91230973D01*
X75128152Y-91272555D01*
X75153507Y-91319990D01*
X75169123Y-91371470D01*
X75175000Y-91431140D01*
X75175000Y-92318860D01*
X75169123Y-92378530D01*
X75153507Y-92430010D01*
X75128152Y-92477445D01*
X75094027Y-92519027D01*
X75052445Y-92553152D01*
X75005010Y-92578507D01*
X74953530Y-92594123D01*
X74893860Y-92600000D01*
X74106140Y-92600000D01*
X74046470Y-92594123D01*
X73994990Y-92578507D01*
X73947555Y-92553152D01*
X73905973Y-92519027D01*
X73871848Y-92477445D01*
X73846493Y-92430010D01*
X73830877Y-92378530D01*
X73825000Y-92318860D01*
X73825000Y-91431140D01*
X73830877Y-91371470D01*
X73846493Y-91319990D01*
X73871848Y-91272555D01*
X73905973Y-91230973D01*
X73947555Y-91196848D01*
X73994990Y-91171493D01*
X74046470Y-91155877D01*
X74106140Y-91150000D01*
X74893860Y-91150000D01*
X74953530Y-91155877D01*
X74953530Y-91155877D01*
G37*
G36*
X72953530Y-90405877D02*
G01*
X73005010Y-90421493D01*
X73052445Y-90446848D01*
X73094027Y-90480973D01*
X73128152Y-90522555D01*
X73153507Y-90569990D01*
X73169123Y-90621470D01*
X73175000Y-90681140D01*
X73175000Y-91568860D01*
X73169123Y-91628530D01*
X73153507Y-91680010D01*
X73128152Y-91727445D01*
X73094027Y-91769027D01*
X73052445Y-91803152D01*
X73005010Y-91828507D01*
X72953530Y-91844123D01*
X72893860Y-91850000D01*
X72106140Y-91850000D01*
X72046470Y-91844123D01*
X71994990Y-91828507D01*
X71947555Y-91803152D01*
X71905973Y-91769027D01*
X71871848Y-91727445D01*
X71846493Y-91680010D01*
X71830877Y-91628530D01*
X71825000Y-91568860D01*
X71825000Y-90681140D01*
X71830877Y-90621470D01*
X71846493Y-90569990D01*
X71871848Y-90522555D01*
X71905973Y-90480973D01*
X71947555Y-90446848D01*
X71994990Y-90421493D01*
X72046470Y-90405877D01*
X72106140Y-90400000D01*
X72893860Y-90400000D01*
X72953530Y-90405877D01*
X72953530Y-90405877D01*
G37*
G36*
X81628530Y-90330877D02*
G01*
X81680010Y-90346493D01*
X81727445Y-90371848D01*
X81769027Y-90405973D01*
X81803152Y-90447555D01*
X81828507Y-90494990D01*
X81844123Y-90546470D01*
X81850000Y-90606140D01*
X81850000Y-91393860D01*
X81844123Y-91453530D01*
X81828507Y-91505010D01*
X81803152Y-91552445D01*
X81769027Y-91594027D01*
X81727445Y-91628152D01*
X81680010Y-91653507D01*
X81628530Y-91669123D01*
X81568860Y-91675000D01*
X80681140Y-91675000D01*
X80621470Y-91669123D01*
X80569990Y-91653507D01*
X80522555Y-91628152D01*
X80480973Y-91594027D01*
X80446848Y-91552445D01*
X80421493Y-91505010D01*
X80405877Y-91453530D01*
X80400000Y-91393860D01*
X80400000Y-90606140D01*
X80405877Y-90546470D01*
X80421493Y-90494990D01*
X80446848Y-90447555D01*
X80480973Y-90405973D01*
X80522555Y-90371848D01*
X80569990Y-90346493D01*
X80621470Y-90330877D01*
X80681140Y-90325000D01*
X81568860Y-90325000D01*
X81628530Y-90330877D01*
X81628530Y-90330877D01*
G37*
G36*
X83378530Y-90330877D02*
G01*
X83430010Y-90346493D01*
X83477445Y-90371848D01*
X83519027Y-90405973D01*
X83553152Y-90447555D01*
X83578507Y-90494990D01*
X83594123Y-90546470D01*
X83600000Y-90606140D01*
X83600000Y-91393860D01*
X83594123Y-91453530D01*
X83578507Y-91505010D01*
X83553152Y-91552445D01*
X83519027Y-91594027D01*
X83477445Y-91628152D01*
X83430010Y-91653507D01*
X83378530Y-91669123D01*
X83318860Y-91675000D01*
X82431140Y-91675000D01*
X82371470Y-91669123D01*
X82319990Y-91653507D01*
X82272555Y-91628152D01*
X82230973Y-91594027D01*
X82196848Y-91552445D01*
X82171493Y-91505010D01*
X82155877Y-91453530D01*
X82150000Y-91393860D01*
X82150000Y-90606140D01*
X82155877Y-90546470D01*
X82171493Y-90494990D01*
X82196848Y-90447555D01*
X82230973Y-90405973D01*
X82272555Y-90371848D01*
X82319990Y-90346493D01*
X82371470Y-90330877D01*
X82431140Y-90325000D01*
X83318860Y-90325000D01*
X83378530Y-90330877D01*
X83378530Y-90330877D01*
G37*
G36*
X77128530Y-90330877D02*
G01*
X77180010Y-90346493D01*
X77227445Y-90371848D01*
X77269027Y-90405973D01*
X77303152Y-90447555D01*
X77328507Y-90494990D01*
X77344123Y-90546470D01*
X77350000Y-90606140D01*
X77350000Y-91393860D01*
X77344123Y-91453530D01*
X77328507Y-91505010D01*
X77303152Y-91552445D01*
X77269027Y-91594027D01*
X77227445Y-91628152D01*
X77180010Y-91653507D01*
X77128530Y-91669123D01*
X77068860Y-91675000D01*
X76181140Y-91675000D01*
X76121470Y-91669123D01*
X76069990Y-91653507D01*
X76022555Y-91628152D01*
X75980973Y-91594027D01*
X75946848Y-91552445D01*
X75921493Y-91505010D01*
X75905877Y-91453530D01*
X75900000Y-91393860D01*
X75900000Y-90606140D01*
X75905877Y-90546470D01*
X75921493Y-90494990D01*
X75946848Y-90447555D01*
X75980973Y-90405973D01*
X76022555Y-90371848D01*
X76069990Y-90346493D01*
X76121470Y-90330877D01*
X76181140Y-90325000D01*
X77068860Y-90325000D01*
X77128530Y-90330877D01*
X77128530Y-90330877D01*
G37*
G36*
X78878530Y-90330877D02*
G01*
X78930010Y-90346493D01*
X78977445Y-90371848D01*
X79019027Y-90405973D01*
X79053152Y-90447555D01*
X79078507Y-90494990D01*
X79094123Y-90546470D01*
X79100000Y-90606140D01*
X79100000Y-91393860D01*
X79094123Y-91453530D01*
X79078507Y-91505010D01*
X79053152Y-91552445D01*
X79019027Y-91594027D01*
X78977445Y-91628152D01*
X78930010Y-91653507D01*
X78878530Y-91669123D01*
X78818860Y-91675000D01*
X77931140Y-91675000D01*
X77871470Y-91669123D01*
X77819990Y-91653507D01*
X77772555Y-91628152D01*
X77730973Y-91594027D01*
X77696848Y-91552445D01*
X77671493Y-91505010D01*
X77655877Y-91453530D01*
X77650000Y-91393860D01*
X77650000Y-90606140D01*
X77655877Y-90546470D01*
X77671493Y-90494990D01*
X77696848Y-90447555D01*
X77730973Y-90405973D01*
X77772555Y-90371848D01*
X77819990Y-90346493D01*
X77871470Y-90330877D01*
X77931140Y-90325000D01*
X78818860Y-90325000D01*
X78878530Y-90330877D01*
X78878530Y-90330877D01*
G37*
G36*
X74953530Y-89405877D02*
G01*
X75005010Y-89421493D01*
X75052445Y-89446848D01*
X75094027Y-89480973D01*
X75128152Y-89522555D01*
X75153507Y-89569990D01*
X75169123Y-89621470D01*
X75175000Y-89681140D01*
X75175000Y-90568860D01*
X75169123Y-90628530D01*
X75153507Y-90680010D01*
X75128152Y-90727445D01*
X75094027Y-90769027D01*
X75052445Y-90803152D01*
X75005010Y-90828507D01*
X74953530Y-90844123D01*
X74893860Y-90850000D01*
X74106140Y-90850000D01*
X74046470Y-90844123D01*
X73994990Y-90828507D01*
X73947555Y-90803152D01*
X73905973Y-90769027D01*
X73871848Y-90727445D01*
X73846493Y-90680010D01*
X73830877Y-90628530D01*
X73825000Y-90568860D01*
X73825000Y-89681140D01*
X73830877Y-89621470D01*
X73846493Y-89569990D01*
X73871848Y-89522555D01*
X73905973Y-89480973D01*
X73947555Y-89446848D01*
X73994990Y-89421493D01*
X74046470Y-89405877D01*
X74106140Y-89400000D01*
X74893860Y-89400000D01*
X74953530Y-89405877D01*
X74953530Y-89405877D01*
G37*
G36*
X103820857Y-88442272D02*
G01*
X103960224Y-88500000D01*
X104021045Y-88525193D01*
X104094552Y-88574309D01*
X104201208Y-88645574D01*
X104354426Y-88798792D01*
X104474808Y-88978957D01*
X104557728Y-89179143D01*
X104600000Y-89391658D01*
X104600000Y-89608342D01*
X104557728Y-89820857D01*
X104474808Y-90021043D01*
X104354426Y-90201208D01*
X104201208Y-90354426D01*
X104133001Y-90400000D01*
X104021045Y-90474807D01*
X104021044Y-90474808D01*
X104021043Y-90474808D01*
X103820857Y-90557728D01*
X103608342Y-90600000D01*
X103391658Y-90600000D01*
X103179143Y-90557728D01*
X102978957Y-90474808D01*
X102978956Y-90474808D01*
X102978955Y-90474807D01*
X102866999Y-90400000D01*
X102798792Y-90354426D01*
X102645574Y-90201208D01*
X102525192Y-90021043D01*
X102442272Y-89820857D01*
X102400000Y-89608342D01*
X102400000Y-89391658D01*
X102442272Y-89179143D01*
X102525192Y-88978957D01*
X102645574Y-88798792D01*
X102798792Y-88645574D01*
X102905448Y-88574309D01*
X102978955Y-88525193D01*
X103039776Y-88500000D01*
X103179143Y-88442272D01*
X103391658Y-88400000D01*
X103608342Y-88400000D01*
X103820857Y-88442272D01*
X103820857Y-88442272D01*
G37*
G36*
X101320857Y-88442272D02*
G01*
X101460224Y-88500000D01*
X101521045Y-88525193D01*
X101594552Y-88574309D01*
X101701208Y-88645574D01*
X101854426Y-88798792D01*
X101974808Y-88978957D01*
X102057728Y-89179143D01*
X102100000Y-89391658D01*
X102100000Y-89608342D01*
X102057728Y-89820857D01*
X101974808Y-90021043D01*
X101854426Y-90201208D01*
X101701208Y-90354426D01*
X101633001Y-90400000D01*
X101521045Y-90474807D01*
X101521044Y-90474808D01*
X101521043Y-90474808D01*
X101320857Y-90557728D01*
X101108342Y-90600000D01*
X100891658Y-90600000D01*
X100679143Y-90557728D01*
X100478957Y-90474808D01*
X100478956Y-90474808D01*
X100478955Y-90474807D01*
X100366999Y-90400000D01*
X100298792Y-90354426D01*
X100145574Y-90201208D01*
X100025192Y-90021043D01*
X99942272Y-89820857D01*
X99900000Y-89608342D01*
X99900000Y-89391658D01*
X99942272Y-89179143D01*
X100025192Y-88978957D01*
X100145574Y-88798792D01*
X100298792Y-88645574D01*
X100405448Y-88574309D01*
X100478955Y-88525193D01*
X100539776Y-88500000D01*
X100679143Y-88442272D01*
X100891658Y-88400000D01*
X101108342Y-88400000D01*
X101320857Y-88442272D01*
X101320857Y-88442272D01*
G37*
G36*
X98820857Y-88442272D02*
G01*
X98960224Y-88500000D01*
X99021045Y-88525193D01*
X99094552Y-88574309D01*
X99201208Y-88645574D01*
X99354426Y-88798792D01*
X99474808Y-88978957D01*
X99557728Y-89179143D01*
X99600000Y-89391658D01*
X99600000Y-89608342D01*
X99557728Y-89820857D01*
X99474808Y-90021043D01*
X99354426Y-90201208D01*
X99201208Y-90354426D01*
X99133001Y-90400000D01*
X99021045Y-90474807D01*
X99021044Y-90474808D01*
X99021043Y-90474808D01*
X98820857Y-90557728D01*
X98608342Y-90600000D01*
X98391658Y-90600000D01*
X98179143Y-90557728D01*
X97978957Y-90474808D01*
X97978956Y-90474808D01*
X97978955Y-90474807D01*
X97866999Y-90400000D01*
X97798792Y-90354426D01*
X97645574Y-90201208D01*
X97525192Y-90021043D01*
X97442272Y-89820857D01*
X97400000Y-89608342D01*
X97400000Y-89391658D01*
X97442272Y-89179143D01*
X97525192Y-88978957D01*
X97645574Y-88798792D01*
X97798792Y-88645574D01*
X97905448Y-88574309D01*
X97978955Y-88525193D01*
X98039776Y-88500000D01*
X98179143Y-88442272D01*
X98391658Y-88400000D01*
X98608342Y-88400000D01*
X98820857Y-88442272D01*
X98820857Y-88442272D01*
G37*
G36*
X61820857Y-88442272D02*
G01*
X61960224Y-88500000D01*
X62021045Y-88525193D01*
X62094552Y-88574309D01*
X62201208Y-88645574D01*
X62354426Y-88798792D01*
X62474808Y-88978957D01*
X62557728Y-89179143D01*
X62600000Y-89391658D01*
X62600000Y-89608342D01*
X62557728Y-89820857D01*
X62474808Y-90021043D01*
X62354426Y-90201208D01*
X62201208Y-90354426D01*
X62133001Y-90400000D01*
X62021045Y-90474807D01*
X62021044Y-90474808D01*
X62021043Y-90474808D01*
X61820857Y-90557728D01*
X61608342Y-90600000D01*
X61391658Y-90600000D01*
X61179143Y-90557728D01*
X60978957Y-90474808D01*
X60978956Y-90474808D01*
X60978955Y-90474807D01*
X60866999Y-90400000D01*
X60798792Y-90354426D01*
X60645574Y-90201208D01*
X60525192Y-90021043D01*
X60442272Y-89820857D01*
X60400000Y-89608342D01*
X60400000Y-89391658D01*
X60442272Y-89179143D01*
X60525192Y-88978957D01*
X60645574Y-88798792D01*
X60798792Y-88645574D01*
X60905448Y-88574309D01*
X60978955Y-88525193D01*
X61039776Y-88500000D01*
X61179143Y-88442272D01*
X61391658Y-88400000D01*
X61608342Y-88400000D01*
X61820857Y-88442272D01*
X61820857Y-88442272D01*
G37*
G36*
X56820857Y-88442272D02*
G01*
X56960224Y-88500000D01*
X57021045Y-88525193D01*
X57094552Y-88574309D01*
X57201208Y-88645574D01*
X57354426Y-88798792D01*
X57474808Y-88978957D01*
X57557728Y-89179143D01*
X57600000Y-89391658D01*
X57600000Y-89608342D01*
X57557728Y-89820857D01*
X57474808Y-90021043D01*
X57354426Y-90201208D01*
X57201208Y-90354426D01*
X57133001Y-90400000D01*
X57021045Y-90474807D01*
X57021044Y-90474808D01*
X57021043Y-90474808D01*
X56820857Y-90557728D01*
X56608342Y-90600000D01*
X56391658Y-90600000D01*
X56179143Y-90557728D01*
X55978957Y-90474808D01*
X55978956Y-90474808D01*
X55978955Y-90474807D01*
X55866999Y-90400000D01*
X55798792Y-90354426D01*
X55645574Y-90201208D01*
X55525192Y-90021043D01*
X55442272Y-89820857D01*
X55400000Y-89608342D01*
X55400000Y-89391658D01*
X55442272Y-89179143D01*
X55525192Y-88978957D01*
X55645574Y-88798792D01*
X55798792Y-88645574D01*
X55905448Y-88574309D01*
X55978955Y-88525193D01*
X56039776Y-88500000D01*
X56179143Y-88442272D01*
X56391658Y-88400000D01*
X56608342Y-88400000D01*
X56820857Y-88442272D01*
X56820857Y-88442272D01*
G37*
G36*
X59320857Y-88442272D02*
G01*
X59460224Y-88500000D01*
X59521045Y-88525193D01*
X59594552Y-88574309D01*
X59701208Y-88645574D01*
X59854426Y-88798792D01*
X59974808Y-88978957D01*
X60057728Y-89179143D01*
X60100000Y-89391658D01*
X60100000Y-89608342D01*
X60057728Y-89820857D01*
X59974808Y-90021043D01*
X59854426Y-90201208D01*
X59701208Y-90354426D01*
X59633001Y-90400000D01*
X59521045Y-90474807D01*
X59521044Y-90474808D01*
X59521043Y-90474808D01*
X59320857Y-90557728D01*
X59108342Y-90600000D01*
X58891658Y-90600000D01*
X58679143Y-90557728D01*
X58478957Y-90474808D01*
X58478956Y-90474808D01*
X58478955Y-90474807D01*
X58366999Y-90400000D01*
X58298792Y-90354426D01*
X58145574Y-90201208D01*
X58025192Y-90021043D01*
X57942272Y-89820857D01*
X57900000Y-89608342D01*
X57900000Y-89391658D01*
X57942272Y-89179143D01*
X58025192Y-88978957D01*
X58145574Y-88798792D01*
X58298792Y-88645574D01*
X58405448Y-88574309D01*
X58478955Y-88525193D01*
X58539776Y-88500000D01*
X58679143Y-88442272D01*
X58891658Y-88400000D01*
X59108342Y-88400000D01*
X59320857Y-88442272D01*
X59320857Y-88442272D01*
G37*
G36*
X106501163Y-85584587D02*
G01*
X106675041Y-85619173D01*
X106870186Y-85700005D01*
X106993659Y-85751149D01*
X107002620Y-85754861D01*
X107297433Y-85951849D01*
X107548151Y-86202567D01*
X107745139Y-86497380D01*
X107880827Y-86824959D01*
X107884518Y-86843515D01*
X107950000Y-87172714D01*
X107950000Y-87527286D01*
X107944855Y-87553152D01*
X107880827Y-87875041D01*
X107745139Y-88202620D01*
X107548151Y-88497433D01*
X107297433Y-88748151D01*
X107002620Y-88945139D01*
X106675041Y-89080827D01*
X106501162Y-89115414D01*
X106327286Y-89150000D01*
X105972714Y-89150000D01*
X105798838Y-89115414D01*
X105624959Y-89080827D01*
X105297380Y-88945139D01*
X105002567Y-88748151D01*
X104751849Y-88497433D01*
X104554861Y-88202620D01*
X104419173Y-87875041D01*
X104355145Y-87553152D01*
X104350000Y-87527286D01*
X104350000Y-87172714D01*
X104415482Y-86843515D01*
X104419173Y-86824959D01*
X104554861Y-86497380D01*
X104751849Y-86202567D01*
X105002567Y-85951849D01*
X105297380Y-85754861D01*
X105306342Y-85751149D01*
X105429814Y-85700005D01*
X105624959Y-85619173D01*
X105798837Y-85584587D01*
X105972714Y-85550000D01*
X106327286Y-85550000D01*
X106501163Y-85584587D01*
X106501163Y-85584587D01*
G37*
G36*
X70953530Y-87155877D02*
G01*
X71005010Y-87171493D01*
X71052445Y-87196848D01*
X71094027Y-87230973D01*
X71128152Y-87272555D01*
X71153507Y-87319990D01*
X71169123Y-87371470D01*
X71175000Y-87431140D01*
X71175000Y-88318860D01*
X71169123Y-88378530D01*
X71153507Y-88430010D01*
X71128152Y-88477445D01*
X71094027Y-88519027D01*
X71052445Y-88553152D01*
X71005010Y-88578507D01*
X70953530Y-88594123D01*
X70893860Y-88600000D01*
X70106140Y-88600000D01*
X70046470Y-88594123D01*
X69994990Y-88578507D01*
X69947555Y-88553152D01*
X69905973Y-88519027D01*
X69871848Y-88477445D01*
X69846493Y-88430010D01*
X69830877Y-88378530D01*
X69825000Y-88318860D01*
X69825000Y-87431140D01*
X69830877Y-87371470D01*
X69846493Y-87319990D01*
X69871848Y-87272555D01*
X69905973Y-87230973D01*
X69947555Y-87196848D01*
X69994990Y-87171493D01*
X70046470Y-87155877D01*
X70106140Y-87150000D01*
X70893860Y-87150000D01*
X70953530Y-87155877D01*
X70953530Y-87155877D01*
G37*
G36*
X80351163Y-84934587D02*
G01*
X80525041Y-84969173D01*
X80852620Y-85104861D01*
X81147433Y-85301849D01*
X81398151Y-85552567D01*
X81595139Y-85847380D01*
X81730827Y-86174959D01*
X81737176Y-86206879D01*
X81794961Y-86497380D01*
X81800000Y-86522716D01*
X81800000Y-86877284D01*
X81730827Y-87225041D01*
X81595139Y-87552620D01*
X81398151Y-87847433D01*
X81147433Y-88098151D01*
X80852620Y-88295139D01*
X80525041Y-88430827D01*
X80428626Y-88450005D01*
X80177286Y-88500000D01*
X79822714Y-88500000D01*
X79571374Y-88450005D01*
X79474959Y-88430827D01*
X79147380Y-88295139D01*
X78852567Y-88098151D01*
X78601849Y-87847433D01*
X78404861Y-87552620D01*
X78269173Y-87225041D01*
X78200000Y-86877284D01*
X78200000Y-86522716D01*
X78205040Y-86497380D01*
X78262824Y-86206879D01*
X78269173Y-86174959D01*
X78404861Y-85847380D01*
X78601849Y-85552567D01*
X78852567Y-85301849D01*
X79147380Y-85104861D01*
X79474959Y-84969173D01*
X79648837Y-84934587D01*
X79822714Y-84900000D01*
X80177286Y-84900000D01*
X80351163Y-84934587D01*
X80351163Y-84934587D01*
G37*
G36*
X68953530Y-86155877D02*
G01*
X69005010Y-86171493D01*
X69052445Y-86196848D01*
X69094027Y-86230973D01*
X69128152Y-86272555D01*
X69153507Y-86319990D01*
X69169123Y-86371470D01*
X69175000Y-86431140D01*
X69175000Y-87318860D01*
X69169123Y-87378530D01*
X69153507Y-87430010D01*
X69128152Y-87477445D01*
X69094027Y-87519027D01*
X69052445Y-87553152D01*
X69005010Y-87578507D01*
X68953530Y-87594123D01*
X68893860Y-87600000D01*
X68106140Y-87600000D01*
X68046470Y-87594123D01*
X67994990Y-87578507D01*
X67947555Y-87553152D01*
X67905973Y-87519027D01*
X67871848Y-87477445D01*
X67846493Y-87430010D01*
X67830877Y-87378530D01*
X67825000Y-87318860D01*
X67825000Y-86431140D01*
X67830877Y-86371470D01*
X67846493Y-86319990D01*
X67871848Y-86272555D01*
X67905973Y-86230973D01*
X67947555Y-86196848D01*
X67994990Y-86171493D01*
X68046470Y-86155877D01*
X68106140Y-86150000D01*
X68893860Y-86150000D01*
X68953530Y-86155877D01*
X68953530Y-86155877D01*
G37*
G36*
X74953530Y-86155877D02*
G01*
X75005010Y-86171493D01*
X75052445Y-86196848D01*
X75094027Y-86230973D01*
X75128152Y-86272555D01*
X75153507Y-86319990D01*
X75169123Y-86371470D01*
X75175000Y-86431140D01*
X75175000Y-87318860D01*
X75169123Y-87378530D01*
X75153507Y-87430010D01*
X75128152Y-87477445D01*
X75094027Y-87519027D01*
X75052445Y-87553152D01*
X75005010Y-87578507D01*
X74953530Y-87594123D01*
X74893860Y-87600000D01*
X74106140Y-87600000D01*
X74046470Y-87594123D01*
X73994990Y-87578507D01*
X73947555Y-87553152D01*
X73905973Y-87519027D01*
X73871848Y-87477445D01*
X73846493Y-87430010D01*
X73830877Y-87378530D01*
X73825000Y-87318860D01*
X73825000Y-86431140D01*
X73830877Y-86371470D01*
X73846493Y-86319990D01*
X73871848Y-86272555D01*
X73905973Y-86230973D01*
X73947555Y-86196848D01*
X73994990Y-86171493D01*
X74046470Y-86155877D01*
X74106140Y-86150000D01*
X74893860Y-86150000D01*
X74953530Y-86155877D01*
X74953530Y-86155877D01*
G37*
G36*
X72953530Y-86155877D02*
G01*
X73005010Y-86171493D01*
X73052445Y-86196848D01*
X73094027Y-86230973D01*
X73128152Y-86272555D01*
X73153507Y-86319990D01*
X73169123Y-86371470D01*
X73175000Y-86431140D01*
X73175000Y-87318860D01*
X73169123Y-87378530D01*
X73153507Y-87430010D01*
X73128152Y-87477445D01*
X73094027Y-87519027D01*
X73052445Y-87553152D01*
X73005010Y-87578507D01*
X72953530Y-87594123D01*
X72893860Y-87600000D01*
X72106140Y-87600000D01*
X72046470Y-87594123D01*
X71994990Y-87578507D01*
X71947555Y-87553152D01*
X71905973Y-87519027D01*
X71871848Y-87477445D01*
X71846493Y-87430010D01*
X71830877Y-87378530D01*
X71825000Y-87318860D01*
X71825000Y-86431140D01*
X71830877Y-86371470D01*
X71846493Y-86319990D01*
X71871848Y-86272555D01*
X71905973Y-86230973D01*
X71947555Y-86196848D01*
X71994990Y-86171493D01*
X72046470Y-86155877D01*
X72106140Y-86150000D01*
X72893860Y-86150000D01*
X72953530Y-86155877D01*
X72953530Y-86155877D01*
G37*
G36*
X70953530Y-85405877D02*
G01*
X71005010Y-85421493D01*
X71052445Y-85446848D01*
X71094027Y-85480973D01*
X71128152Y-85522555D01*
X71153507Y-85569990D01*
X71169123Y-85621470D01*
X71175000Y-85681140D01*
X71175000Y-86568860D01*
X71169123Y-86628530D01*
X71153507Y-86680010D01*
X71128152Y-86727445D01*
X71094027Y-86769027D01*
X71052445Y-86803152D01*
X71005010Y-86828507D01*
X70953530Y-86844123D01*
X70893860Y-86850000D01*
X70106140Y-86850000D01*
X70046470Y-86844123D01*
X69994990Y-86828507D01*
X69947555Y-86803152D01*
X69905973Y-86769027D01*
X69871848Y-86727445D01*
X69846493Y-86680010D01*
X69830877Y-86628530D01*
X69825000Y-86568860D01*
X69825000Y-85681140D01*
X69830877Y-85621470D01*
X69846493Y-85569990D01*
X69871848Y-85522555D01*
X69905973Y-85480973D01*
X69947555Y-85446848D01*
X69994990Y-85421493D01*
X70046470Y-85405877D01*
X70106140Y-85400000D01*
X70893860Y-85400000D01*
X70953530Y-85405877D01*
X70953530Y-85405877D01*
G37*
G36*
X72953530Y-84405877D02*
G01*
X73005010Y-84421493D01*
X73052445Y-84446848D01*
X73094027Y-84480973D01*
X73128152Y-84522555D01*
X73153507Y-84569990D01*
X73169123Y-84621470D01*
X73175000Y-84681140D01*
X73175000Y-85568860D01*
X73169123Y-85628530D01*
X73153507Y-85680010D01*
X73128152Y-85727445D01*
X73094027Y-85769027D01*
X73052445Y-85803152D01*
X73005010Y-85828507D01*
X72953530Y-85844123D01*
X72893860Y-85850000D01*
X72106140Y-85850000D01*
X72046470Y-85844123D01*
X71994990Y-85828507D01*
X71947555Y-85803152D01*
X71905973Y-85769027D01*
X71871848Y-85727445D01*
X71846493Y-85680010D01*
X71830877Y-85628530D01*
X71825000Y-85568860D01*
X71825000Y-84681140D01*
X71830877Y-84621470D01*
X71846493Y-84569990D01*
X71871848Y-84522555D01*
X71905973Y-84480973D01*
X71947555Y-84446848D01*
X71994990Y-84421493D01*
X72046470Y-84405877D01*
X72106140Y-84400000D01*
X72893860Y-84400000D01*
X72953530Y-84405877D01*
X72953530Y-84405877D01*
G37*
G36*
X74953530Y-84405877D02*
G01*
X75005010Y-84421493D01*
X75052445Y-84446848D01*
X75094027Y-84480973D01*
X75128152Y-84522555D01*
X75153507Y-84569990D01*
X75169123Y-84621470D01*
X75175000Y-84681140D01*
X75175000Y-85568860D01*
X75169123Y-85628530D01*
X75153507Y-85680010D01*
X75128152Y-85727445D01*
X75094027Y-85769027D01*
X75052445Y-85803152D01*
X75005010Y-85828507D01*
X74953530Y-85844123D01*
X74893860Y-85850000D01*
X74106140Y-85850000D01*
X74046470Y-85844123D01*
X73994990Y-85828507D01*
X73947555Y-85803152D01*
X73905973Y-85769027D01*
X73871848Y-85727445D01*
X73846493Y-85680010D01*
X73830877Y-85628530D01*
X73825000Y-85568860D01*
X73825000Y-84681140D01*
X73830877Y-84621470D01*
X73846493Y-84569990D01*
X73871848Y-84522555D01*
X73905973Y-84480973D01*
X73947555Y-84446848D01*
X73994990Y-84421493D01*
X74046470Y-84405877D01*
X74106140Y-84400000D01*
X74893860Y-84400000D01*
X74953530Y-84405877D01*
X74953530Y-84405877D01*
G37*
G36*
X68953530Y-84405877D02*
G01*
X69005010Y-84421493D01*
X69052445Y-84446848D01*
X69094027Y-84480973D01*
X69128152Y-84522555D01*
X69153507Y-84569990D01*
X69169123Y-84621470D01*
X69175000Y-84681140D01*
X69175000Y-85568860D01*
X69169123Y-85628530D01*
X69153507Y-85680010D01*
X69128152Y-85727445D01*
X69094027Y-85769027D01*
X69052445Y-85803152D01*
X69005010Y-85828507D01*
X68953530Y-85844123D01*
X68893860Y-85850000D01*
X68106140Y-85850000D01*
X68046470Y-85844123D01*
X67994990Y-85828507D01*
X67947555Y-85803152D01*
X67905973Y-85769027D01*
X67871848Y-85727445D01*
X67846493Y-85680010D01*
X67830877Y-85628530D01*
X67825000Y-85568860D01*
X67825000Y-84681140D01*
X67830877Y-84621470D01*
X67846493Y-84569990D01*
X67871848Y-84522555D01*
X67905973Y-84480973D01*
X67947555Y-84446848D01*
X67994990Y-84421493D01*
X68046470Y-84405877D01*
X68106140Y-84400000D01*
X68893860Y-84400000D01*
X68953530Y-84405877D01*
X68953530Y-84405877D01*
G37*
G36*
X70953530Y-83155877D02*
G01*
X71005010Y-83171493D01*
X71052445Y-83196848D01*
X71094027Y-83230973D01*
X71128152Y-83272555D01*
X71153507Y-83319990D01*
X71169123Y-83371470D01*
X71175000Y-83431140D01*
X71175000Y-84318860D01*
X71169123Y-84378530D01*
X71153507Y-84430010D01*
X71128152Y-84477445D01*
X71094027Y-84519027D01*
X71052445Y-84553152D01*
X71005010Y-84578507D01*
X70953530Y-84594123D01*
X70893860Y-84600000D01*
X70106140Y-84600000D01*
X70046470Y-84594123D01*
X69994990Y-84578507D01*
X69947555Y-84553152D01*
X69905973Y-84519027D01*
X69871848Y-84477445D01*
X69846493Y-84430010D01*
X69830877Y-84378530D01*
X69825000Y-84318860D01*
X69825000Y-83431140D01*
X69830877Y-83371470D01*
X69846493Y-83319990D01*
X69871848Y-83272555D01*
X69905973Y-83230973D01*
X69947555Y-83196848D01*
X69994990Y-83171493D01*
X70046470Y-83155877D01*
X70106140Y-83150000D01*
X70893860Y-83150000D01*
X70953530Y-83155877D01*
X70953530Y-83155877D01*
G37*
G36*
X63731653Y-80832665D02*
G01*
X63895872Y-80865330D01*
X64205252Y-80993479D01*
X64483687Y-81179523D01*
X64720477Y-81416313D01*
X64906521Y-81694748D01*
X65034670Y-82004128D01*
X65034670Y-82004130D01*
X65100000Y-82332563D01*
X65100000Y-82667437D01*
X65083348Y-82751149D01*
X65034670Y-82995872D01*
X64906521Y-83305252D01*
X64720477Y-83583687D01*
X64483687Y-83820477D01*
X64205252Y-84006521D01*
X63895872Y-84134670D01*
X63731654Y-84167335D01*
X63567437Y-84200000D01*
X63232563Y-84200000D01*
X63068346Y-84167335D01*
X62904128Y-84134670D01*
X62594748Y-84006521D01*
X62316313Y-83820477D01*
X62079523Y-83583687D01*
X61893479Y-83305252D01*
X61765330Y-82995872D01*
X61716652Y-82751149D01*
X61700000Y-82667437D01*
X61700000Y-82332563D01*
X61765330Y-82004130D01*
X61765330Y-82004128D01*
X61893479Y-81694748D01*
X62079523Y-81416313D01*
X62316313Y-81179523D01*
X62594748Y-80993479D01*
X62904128Y-80865330D01*
X63068347Y-80832665D01*
X63232563Y-80800000D01*
X63567437Y-80800000D01*
X63731653Y-80832665D01*
X63731653Y-80832665D01*
G37*
G36*
X54931653Y-80832665D02*
G01*
X55095872Y-80865330D01*
X55405252Y-80993479D01*
X55683687Y-81179523D01*
X55920477Y-81416313D01*
X56106521Y-81694748D01*
X56234670Y-82004128D01*
X56234670Y-82004130D01*
X56300000Y-82332563D01*
X56300000Y-82667437D01*
X56283348Y-82751149D01*
X56234670Y-82995872D01*
X56106521Y-83305252D01*
X55920477Y-83583687D01*
X55683687Y-83820477D01*
X55405252Y-84006521D01*
X55095872Y-84134670D01*
X54931654Y-84167335D01*
X54767437Y-84200000D01*
X54432563Y-84200000D01*
X54268346Y-84167335D01*
X54104128Y-84134670D01*
X53794748Y-84006521D01*
X53516313Y-83820477D01*
X53279523Y-83583687D01*
X53093479Y-83305252D01*
X52965330Y-82995872D01*
X52916652Y-82751149D01*
X52900000Y-82667437D01*
X52900000Y-82332563D01*
X52965330Y-82004130D01*
X52965330Y-82004128D01*
X53093479Y-81694748D01*
X53279523Y-81416313D01*
X53516313Y-81179523D01*
X53794748Y-80993479D01*
X54104128Y-80865330D01*
X54268347Y-80832665D01*
X54432563Y-80800000D01*
X54767437Y-80800000D01*
X54931653Y-80832665D01*
X54931653Y-80832665D01*
G37*
G36*
X105731653Y-80832665D02*
G01*
X105895872Y-80865330D01*
X106205252Y-80993479D01*
X106483687Y-81179523D01*
X106720477Y-81416313D01*
X106906521Y-81694748D01*
X107034670Y-82004128D01*
X107034670Y-82004130D01*
X107100000Y-82332563D01*
X107100000Y-82667437D01*
X107083348Y-82751149D01*
X107034670Y-82995872D01*
X106906521Y-83305252D01*
X106720477Y-83583687D01*
X106483687Y-83820477D01*
X106205252Y-84006521D01*
X105895872Y-84134670D01*
X105731654Y-84167335D01*
X105567437Y-84200000D01*
X105232563Y-84200000D01*
X105068346Y-84167335D01*
X104904128Y-84134670D01*
X104594748Y-84006521D01*
X104316313Y-83820477D01*
X104079523Y-83583687D01*
X103893479Y-83305252D01*
X103765330Y-82995872D01*
X103716652Y-82751149D01*
X103700000Y-82667437D01*
X103700000Y-82332563D01*
X103765330Y-82004130D01*
X103765330Y-82004128D01*
X103893479Y-81694748D01*
X104079523Y-81416313D01*
X104316313Y-81179523D01*
X104594748Y-80993479D01*
X104904128Y-80865330D01*
X105068347Y-80832665D01*
X105232563Y-80800000D01*
X105567437Y-80800000D01*
X105731653Y-80832665D01*
X105731653Y-80832665D01*
G37*
G36*
X96931653Y-80832665D02*
G01*
X97095872Y-80865330D01*
X97405252Y-80993479D01*
X97683687Y-81179523D01*
X97920477Y-81416313D01*
X98106521Y-81694748D01*
X98234670Y-82004128D01*
X98234670Y-82004130D01*
X98300000Y-82332563D01*
X98300000Y-82667437D01*
X98283348Y-82751149D01*
X98234670Y-82995872D01*
X98106521Y-83305252D01*
X97920477Y-83583687D01*
X97683687Y-83820477D01*
X97405252Y-84006521D01*
X97095872Y-84134670D01*
X96931654Y-84167335D01*
X96767437Y-84200000D01*
X96432563Y-84200000D01*
X96268346Y-84167335D01*
X96104128Y-84134670D01*
X95794748Y-84006521D01*
X95516313Y-83820477D01*
X95279523Y-83583687D01*
X95093479Y-83305252D01*
X94965330Y-82995872D01*
X94916652Y-82751149D01*
X94900000Y-82667437D01*
X94900000Y-82332563D01*
X94965330Y-82004130D01*
X94965330Y-82004128D01*
X95093479Y-81694748D01*
X95279523Y-81416313D01*
X95516313Y-81179523D01*
X95794748Y-80993479D01*
X96104128Y-80865330D01*
X96268347Y-80832665D01*
X96432563Y-80800000D01*
X96767437Y-80800000D01*
X96931653Y-80832665D01*
X96931653Y-80832665D01*
G37*
G36*
X80351163Y-80234587D02*
G01*
X80525041Y-80269173D01*
X80852620Y-80404861D01*
X81147433Y-80601849D01*
X81398151Y-80852567D01*
X81595139Y-81147380D01*
X81730827Y-81474959D01*
X81749505Y-81568860D01*
X81800000Y-81822714D01*
X81800000Y-82177286D01*
X81775591Y-82299995D01*
X81730827Y-82525041D01*
X81658354Y-82700005D01*
X81598911Y-82843515D01*
X81595139Y-82852620D01*
X81398151Y-83147433D01*
X81147433Y-83398151D01*
X80852620Y-83595139D01*
X80525041Y-83730827D01*
X80351162Y-83765414D01*
X80177286Y-83800000D01*
X79822714Y-83800000D01*
X79648838Y-83765414D01*
X79474959Y-83730827D01*
X79147380Y-83595139D01*
X78852567Y-83398151D01*
X78601849Y-83147433D01*
X78404861Y-82852620D01*
X78401090Y-82843515D01*
X78341646Y-82700005D01*
X78269173Y-82525041D01*
X78224409Y-82299995D01*
X78200000Y-82177286D01*
X78200000Y-81822714D01*
X78250495Y-81568860D01*
X78269173Y-81474959D01*
X78404861Y-81147380D01*
X78601849Y-80852567D01*
X78852567Y-80601849D01*
X79147380Y-80404861D01*
X79474959Y-80269173D01*
X79648837Y-80234587D01*
X79822714Y-80200000D01*
X80177286Y-80200000D01*
X80351163Y-80234587D01*
X80351163Y-80234587D01*
G37*
G36*
X75050000Y-83650000D02*
G01*
X73850000Y-83650000D01*
X73850000Y-81350000D01*
X75050000Y-81350000D01*
X75050000Y-83650000D01*
X75050000Y-83650000D01*
G37*
G36*
X73150000Y-83650000D02*
G01*
X71950000Y-83650000D01*
X71950000Y-81350000D01*
X73150000Y-81350000D01*
X73150000Y-83650000D01*
X73150000Y-83650000D01*
G37*
G36*
X68953530Y-82155877D02*
G01*
X69005010Y-82171493D01*
X69052445Y-82196848D01*
X69094027Y-82230973D01*
X69128152Y-82272555D01*
X69153507Y-82319990D01*
X69169123Y-82371470D01*
X69175000Y-82431140D01*
X69175000Y-83318860D01*
X69169123Y-83378530D01*
X69153507Y-83430010D01*
X69128152Y-83477445D01*
X69094027Y-83519027D01*
X69052445Y-83553152D01*
X69005010Y-83578507D01*
X68953530Y-83594123D01*
X68893860Y-83600000D01*
X68106140Y-83600000D01*
X68046470Y-83594123D01*
X67994990Y-83578507D01*
X67947555Y-83553152D01*
X67905973Y-83519027D01*
X67871848Y-83477445D01*
X67846493Y-83430010D01*
X67830877Y-83378530D01*
X67825000Y-83318860D01*
X67825000Y-82431140D01*
X67830877Y-82371470D01*
X67846493Y-82319990D01*
X67871848Y-82272555D01*
X67905973Y-82230973D01*
X67947555Y-82196848D01*
X67994990Y-82171493D01*
X68046470Y-82155877D01*
X68106140Y-82150000D01*
X68893860Y-82150000D01*
X68953530Y-82155877D01*
X68953530Y-82155877D01*
G37*
G36*
X70953530Y-81405877D02*
G01*
X71005010Y-81421493D01*
X71052445Y-81446848D01*
X71094027Y-81480973D01*
X71128152Y-81522555D01*
X71153507Y-81569990D01*
X71169123Y-81621470D01*
X71175000Y-81681140D01*
X71175000Y-82568860D01*
X71169123Y-82628530D01*
X71153507Y-82680010D01*
X71128152Y-82727445D01*
X71094027Y-82769027D01*
X71052445Y-82803152D01*
X71005010Y-82828507D01*
X70953530Y-82844123D01*
X70893860Y-82850000D01*
X70106140Y-82850000D01*
X70046470Y-82844123D01*
X69994990Y-82828507D01*
X69947555Y-82803152D01*
X69905973Y-82769027D01*
X69871848Y-82727445D01*
X69846493Y-82680010D01*
X69830877Y-82628530D01*
X69825000Y-82568860D01*
X69825000Y-81681140D01*
X69830877Y-81621470D01*
X69846493Y-81569990D01*
X69871848Y-81522555D01*
X69905973Y-81480973D01*
X69947555Y-81446848D01*
X69994990Y-81421493D01*
X70046470Y-81405877D01*
X70106140Y-81400000D01*
X70893860Y-81400000D01*
X70953530Y-81405877D01*
X70953530Y-81405877D01*
G37*
G36*
X68953530Y-80405877D02*
G01*
X69005010Y-80421493D01*
X69052445Y-80446848D01*
X69094027Y-80480973D01*
X69128152Y-80522555D01*
X69153507Y-80569990D01*
X69169123Y-80621470D01*
X69175000Y-80681140D01*
X69175000Y-81568860D01*
X69169123Y-81628530D01*
X69153507Y-81680010D01*
X69128152Y-81727445D01*
X69094027Y-81769027D01*
X69052445Y-81803152D01*
X69005010Y-81828507D01*
X68953530Y-81844123D01*
X68893860Y-81850000D01*
X68106140Y-81850000D01*
X68046470Y-81844123D01*
X67994990Y-81828507D01*
X67947555Y-81803152D01*
X67905973Y-81769027D01*
X67871848Y-81727445D01*
X67846493Y-81680010D01*
X67830877Y-81628530D01*
X67825000Y-81568860D01*
X67825000Y-80681140D01*
X67830877Y-80621470D01*
X67846493Y-80569990D01*
X67871848Y-80522555D01*
X67905973Y-80480973D01*
X67947555Y-80446848D01*
X67994990Y-80421493D01*
X68046470Y-80405877D01*
X68106140Y-80400000D01*
X68893860Y-80400000D01*
X68953530Y-80405877D01*
X68953530Y-80405877D01*
G37*
G36*
X74100000Y-80650000D02*
G01*
X72900000Y-80650000D01*
X72900000Y-78350000D01*
X74100000Y-78350000D01*
X74100000Y-80650000D01*
X74100000Y-80650000D01*
G37*
G36*
X69128530Y-78330877D02*
G01*
X69180010Y-78346493D01*
X69227445Y-78371848D01*
X69269027Y-78405973D01*
X69303152Y-78447555D01*
X69328507Y-78494990D01*
X69344123Y-78546470D01*
X69350000Y-78606140D01*
X69350000Y-79393860D01*
X69344123Y-79453530D01*
X69328507Y-79505010D01*
X69303152Y-79552445D01*
X69269027Y-79594027D01*
X69227445Y-79628152D01*
X69180010Y-79653507D01*
X69128530Y-79669123D01*
X69068860Y-79675000D01*
X68181140Y-79675000D01*
X68121470Y-79669123D01*
X68069990Y-79653507D01*
X68022555Y-79628152D01*
X67980973Y-79594027D01*
X67946848Y-79552445D01*
X67921493Y-79505010D01*
X67905877Y-79453530D01*
X67900000Y-79393860D01*
X67900000Y-78606140D01*
X67905877Y-78546470D01*
X67921493Y-78494990D01*
X67946848Y-78447555D01*
X67980973Y-78405973D01*
X68022555Y-78371848D01*
X68069990Y-78346493D01*
X68121470Y-78330877D01*
X68181140Y-78325000D01*
X69068860Y-78325000D01*
X69128530Y-78330877D01*
X69128530Y-78330877D01*
G37*
G36*
X70878530Y-78330877D02*
G01*
X70930010Y-78346493D01*
X70977445Y-78371848D01*
X71019027Y-78405973D01*
X71053152Y-78447555D01*
X71078507Y-78494990D01*
X71094123Y-78546470D01*
X71100000Y-78606140D01*
X71100000Y-79393860D01*
X71094123Y-79453530D01*
X71078507Y-79505010D01*
X71053152Y-79552445D01*
X71019027Y-79594027D01*
X70977445Y-79628152D01*
X70930010Y-79653507D01*
X70878530Y-79669123D01*
X70818860Y-79675000D01*
X69931140Y-79675000D01*
X69871470Y-79669123D01*
X69819990Y-79653507D01*
X69772555Y-79628152D01*
X69730973Y-79594027D01*
X69696848Y-79552445D01*
X69671493Y-79505010D01*
X69655877Y-79453530D01*
X69650000Y-79393860D01*
X69650000Y-78606140D01*
X69655877Y-78546470D01*
X69671493Y-78494990D01*
X69696848Y-78447555D01*
X69730973Y-78405973D01*
X69772555Y-78371848D01*
X69819990Y-78346493D01*
X69871470Y-78330877D01*
X69931140Y-78325000D01*
X70818860Y-78325000D01*
X70878530Y-78330877D01*
X70878530Y-78330877D01*
G37*
G36*
X80351163Y-75534587D02*
G01*
X80525041Y-75569173D01*
X80852620Y-75704861D01*
X81147433Y-75901849D01*
X81398151Y-76152567D01*
X81595139Y-76447380D01*
X81730827Y-76774959D01*
X81800000Y-77122716D01*
X81800000Y-77477284D01*
X81730827Y-77825041D01*
X81595139Y-78152620D01*
X81398151Y-78447433D01*
X81147433Y-78698151D01*
X80852620Y-78895139D01*
X80525041Y-79030827D01*
X80351163Y-79065413D01*
X80177286Y-79100000D01*
X79822714Y-79100000D01*
X79648837Y-79065413D01*
X79474959Y-79030827D01*
X79147380Y-78895139D01*
X78852567Y-78698151D01*
X78601849Y-78447433D01*
X78404861Y-78152620D01*
X78269173Y-77825041D01*
X78200000Y-77477284D01*
X78200000Y-77122716D01*
X78269173Y-76774959D01*
X78404861Y-76447380D01*
X78601849Y-76152567D01*
X78852567Y-75901849D01*
X79147380Y-75704861D01*
X79474959Y-75569173D01*
X79648837Y-75534587D01*
X79822714Y-75500000D01*
X80177286Y-75500000D01*
X80351163Y-75534587D01*
X80351163Y-75534587D01*
G37*
G36*
X70230000Y-76650000D02*
G01*
X69230000Y-76650000D01*
X69230000Y-74750000D01*
X70230000Y-74750000D01*
X70230000Y-76650000D01*
X70230000Y-76650000D01*
G37*
G36*
X75310000Y-76650000D02*
G01*
X74310000Y-76650000D01*
X74310000Y-74750000D01*
X75310000Y-74750000D01*
X75310000Y-76650000D01*
X75310000Y-76650000D01*
G37*
G36*
X74040000Y-76650000D02*
G01*
X73040000Y-76650000D01*
X73040000Y-74750000D01*
X74040000Y-74750000D01*
X74040000Y-76650000D01*
X74040000Y-76650000D01*
G37*
G36*
X72770000Y-76650000D02*
G01*
X71770000Y-76650000D01*
X71770000Y-74750000D01*
X72770000Y-74750000D01*
X72770000Y-76650000D01*
X72770000Y-76650000D01*
G37*
G36*
X71500000Y-76650000D02*
G01*
X70500000Y-76650000D01*
X70500000Y-74750000D01*
X71500000Y-74750000D01*
X71500000Y-76650000D01*
X71500000Y-76650000D01*
G37*
G36*
X68960000Y-76650000D02*
G01*
X67960000Y-76650000D01*
X67960000Y-74750000D01*
X68960000Y-74750000D01*
X68960000Y-76650000D01*
X68960000Y-76650000D01*
G37*
G36*
X67690000Y-76650000D02*
G01*
X66690000Y-76650000D01*
X66690000Y-74750000D01*
X67690000Y-74750000D01*
X67690000Y-76650000D01*
X67690000Y-76650000D01*
G37*
G36*
X106501162Y-72884586D02*
G01*
X106675041Y-72919173D01*
X107002620Y-73054861D01*
X107297433Y-73251849D01*
X107548151Y-73502567D01*
X107745139Y-73797380D01*
X107880827Y-74124959D01*
X107950000Y-74472716D01*
X107950000Y-74827284D01*
X107880827Y-75175041D01*
X107745139Y-75502620D01*
X107548151Y-75797433D01*
X107297433Y-76048151D01*
X107002620Y-76245139D01*
X106675041Y-76380827D01*
X106501162Y-76415414D01*
X106327286Y-76450000D01*
X105972714Y-76450000D01*
X105798838Y-76415414D01*
X105624959Y-76380827D01*
X105297380Y-76245139D01*
X105002567Y-76048151D01*
X104751849Y-75797433D01*
X104554861Y-75502620D01*
X104419173Y-75175041D01*
X104350000Y-74827284D01*
X104350000Y-74472716D01*
X104419173Y-74124959D01*
X104554861Y-73797380D01*
X104751849Y-73502567D01*
X105002567Y-73251849D01*
X105297380Y-73054861D01*
X105624959Y-72919173D01*
X105798838Y-72884586D01*
X105972714Y-72850000D01*
X106327286Y-72850000D01*
X106501162Y-72884586D01*
X106501162Y-72884586D01*
G37*
G36*
X83253530Y-73330877D02*
G01*
X83305010Y-73346493D01*
X83352445Y-73371848D01*
X83394027Y-73405973D01*
X83428152Y-73447555D01*
X83453507Y-73494990D01*
X83469123Y-73546470D01*
X83475000Y-73606140D01*
X83475000Y-74393860D01*
X83469123Y-74453530D01*
X83453507Y-74505010D01*
X83428152Y-74552445D01*
X83394027Y-74594027D01*
X83352445Y-74628152D01*
X83305010Y-74653507D01*
X83253530Y-74669123D01*
X83193860Y-74675000D01*
X82306140Y-74675000D01*
X82246470Y-74669123D01*
X82194990Y-74653507D01*
X82147555Y-74628152D01*
X82105973Y-74594027D01*
X82071848Y-74552445D01*
X82046493Y-74505010D01*
X82030877Y-74453530D01*
X82025000Y-74393860D01*
X82025000Y-73606140D01*
X82030877Y-73546470D01*
X82046493Y-73494990D01*
X82071848Y-73447555D01*
X82105973Y-73405973D01*
X82147555Y-73371848D01*
X82194990Y-73346493D01*
X82246470Y-73330877D01*
X82306140Y-73325000D01*
X83193860Y-73325000D01*
X83253530Y-73330877D01*
X83253530Y-73330877D01*
G37*
G36*
X81503530Y-73330877D02*
G01*
X81555010Y-73346493D01*
X81602445Y-73371848D01*
X81644027Y-73405973D01*
X81678152Y-73447555D01*
X81703507Y-73494990D01*
X81719123Y-73546470D01*
X81725000Y-73606140D01*
X81725000Y-74393860D01*
X81719123Y-74453530D01*
X81703507Y-74505010D01*
X81678152Y-74552445D01*
X81644027Y-74594027D01*
X81602445Y-74628152D01*
X81555010Y-74653507D01*
X81503530Y-74669123D01*
X81443860Y-74675000D01*
X80556140Y-74675000D01*
X80496470Y-74669123D01*
X80444990Y-74653507D01*
X80397555Y-74628152D01*
X80355973Y-74594027D01*
X80321848Y-74552445D01*
X80296493Y-74505010D01*
X80280877Y-74453530D01*
X80275000Y-74393860D01*
X80275000Y-73606140D01*
X80280877Y-73546470D01*
X80296493Y-73494990D01*
X80321848Y-73447555D01*
X80355973Y-73405973D01*
X80397555Y-73371848D01*
X80444990Y-73346493D01*
X80496470Y-73330877D01*
X80556140Y-73325000D01*
X81443860Y-73325000D01*
X81503530Y-73330877D01*
X81503530Y-73330877D01*
G37*
G36*
X62878530Y-73330877D02*
G01*
X62930010Y-73346493D01*
X62977445Y-73371848D01*
X63019027Y-73405973D01*
X63053152Y-73447555D01*
X63078507Y-73494990D01*
X63094123Y-73546470D01*
X63100000Y-73606140D01*
X63100000Y-74393860D01*
X63094123Y-74453530D01*
X63078507Y-74505010D01*
X63053152Y-74552445D01*
X63019027Y-74594027D01*
X62977445Y-74628152D01*
X62930010Y-74653507D01*
X62878530Y-74669123D01*
X62818860Y-74675000D01*
X61931140Y-74675000D01*
X61871470Y-74669123D01*
X61819990Y-74653507D01*
X61772555Y-74628152D01*
X61730973Y-74594027D01*
X61696848Y-74552445D01*
X61671493Y-74505010D01*
X61655877Y-74453530D01*
X61650000Y-74393860D01*
X61650000Y-73606140D01*
X61655877Y-73546470D01*
X61671493Y-73494990D01*
X61696848Y-73447555D01*
X61730973Y-73405973D01*
X61772555Y-73371848D01*
X61819990Y-73346493D01*
X61871470Y-73330877D01*
X61931140Y-73325000D01*
X62818860Y-73325000D01*
X62878530Y-73330877D01*
X62878530Y-73330877D01*
G37*
G36*
X79378530Y-73330877D02*
G01*
X79430010Y-73346493D01*
X79477445Y-73371848D01*
X79519027Y-73405973D01*
X79553152Y-73447555D01*
X79578507Y-73494990D01*
X79594123Y-73546470D01*
X79600000Y-73606140D01*
X79600000Y-74393860D01*
X79594123Y-74453530D01*
X79578507Y-74505010D01*
X79553152Y-74552445D01*
X79519027Y-74594027D01*
X79477445Y-74628152D01*
X79430010Y-74653507D01*
X79378530Y-74669123D01*
X79318860Y-74675000D01*
X78431140Y-74675000D01*
X78371470Y-74669123D01*
X78319990Y-74653507D01*
X78272555Y-74628152D01*
X78230973Y-74594027D01*
X78196848Y-74552445D01*
X78171493Y-74505010D01*
X78155877Y-74453530D01*
X78150000Y-74393860D01*
X78150000Y-73606140D01*
X78155877Y-73546470D01*
X78171493Y-73494990D01*
X78196848Y-73447555D01*
X78230973Y-73405973D01*
X78272555Y-73371848D01*
X78319990Y-73346493D01*
X78371470Y-73330877D01*
X78431140Y-73325000D01*
X79318860Y-73325000D01*
X79378530Y-73330877D01*
X79378530Y-73330877D01*
G37*
G36*
X77628530Y-73330877D02*
G01*
X77680010Y-73346493D01*
X77727445Y-73371848D01*
X77769027Y-73405973D01*
X77803152Y-73447555D01*
X77828507Y-73494990D01*
X77844123Y-73546470D01*
X77850000Y-73606140D01*
X77850000Y-74393860D01*
X77844123Y-74453530D01*
X77828507Y-74505010D01*
X77803152Y-74552445D01*
X77769027Y-74594027D01*
X77727445Y-74628152D01*
X77680010Y-74653507D01*
X77628530Y-74669123D01*
X77568860Y-74675000D01*
X76681140Y-74675000D01*
X76621470Y-74669123D01*
X76569990Y-74653507D01*
X76522555Y-74628152D01*
X76480973Y-74594027D01*
X76446848Y-74552445D01*
X76421493Y-74505010D01*
X76405877Y-74453530D01*
X76400000Y-74393860D01*
X76400000Y-73606140D01*
X76405877Y-73546470D01*
X76421493Y-73494990D01*
X76446848Y-73447555D01*
X76480973Y-73405973D01*
X76522555Y-73371848D01*
X76569990Y-73346493D01*
X76621470Y-73330877D01*
X76681140Y-73325000D01*
X77568860Y-73325000D01*
X77628530Y-73330877D01*
X77628530Y-73330877D01*
G37*
G36*
X64628530Y-73330877D02*
G01*
X64680010Y-73346493D01*
X64727445Y-73371848D01*
X64769027Y-73405973D01*
X64803152Y-73447555D01*
X64828507Y-73494990D01*
X64844123Y-73546470D01*
X64850000Y-73606140D01*
X64850000Y-74393860D01*
X64844123Y-74453530D01*
X64828507Y-74505010D01*
X64803152Y-74552445D01*
X64769027Y-74594027D01*
X64727445Y-74628152D01*
X64680010Y-74653507D01*
X64628530Y-74669123D01*
X64568860Y-74675000D01*
X63681140Y-74675000D01*
X63621470Y-74669123D01*
X63569990Y-74653507D01*
X63522555Y-74628152D01*
X63480973Y-74594027D01*
X63446848Y-74552445D01*
X63421493Y-74505010D01*
X63405877Y-74453530D01*
X63400000Y-74393860D01*
X63400000Y-73606140D01*
X63405877Y-73546470D01*
X63421493Y-73494990D01*
X63446848Y-73447555D01*
X63480973Y-73405973D01*
X63522555Y-73371848D01*
X63569990Y-73346493D01*
X63621470Y-73330877D01*
X63681140Y-73325000D01*
X64568860Y-73325000D01*
X64628530Y-73330877D01*
X64628530Y-73330877D01*
G37*
G36*
X78878530Y-70330877D02*
G01*
X78930010Y-70346493D01*
X78977445Y-70371848D01*
X79019027Y-70405973D01*
X79053152Y-70447555D01*
X79078507Y-70494990D01*
X79094123Y-70546470D01*
X79100000Y-70606140D01*
X79100000Y-71393860D01*
X79094123Y-71453530D01*
X79078507Y-71505010D01*
X79053152Y-71552445D01*
X79019027Y-71594027D01*
X78977445Y-71628152D01*
X78930010Y-71653507D01*
X78878530Y-71669123D01*
X78818860Y-71675000D01*
X77931140Y-71675000D01*
X77871470Y-71669123D01*
X77819990Y-71653507D01*
X77772555Y-71628152D01*
X77730973Y-71594027D01*
X77696848Y-71552445D01*
X77671493Y-71505010D01*
X77655877Y-71453530D01*
X77650000Y-71393860D01*
X77650000Y-70606140D01*
X77655877Y-70546470D01*
X77671493Y-70494990D01*
X77696848Y-70447555D01*
X77730973Y-70405973D01*
X77772555Y-70371848D01*
X77819990Y-70346493D01*
X77871470Y-70330877D01*
X77931140Y-70325000D01*
X78818860Y-70325000D01*
X78878530Y-70330877D01*
X78878530Y-70330877D01*
G37*
G36*
X77128530Y-70330877D02*
G01*
X77180010Y-70346493D01*
X77227445Y-70371848D01*
X77269027Y-70405973D01*
X77303152Y-70447555D01*
X77328507Y-70494990D01*
X77344123Y-70546470D01*
X77350000Y-70606140D01*
X77350000Y-71393860D01*
X77344123Y-71453530D01*
X77328507Y-71505010D01*
X77303152Y-71552445D01*
X77269027Y-71594027D01*
X77227445Y-71628152D01*
X77180010Y-71653507D01*
X77128530Y-71669123D01*
X77068860Y-71675000D01*
X76181140Y-71675000D01*
X76121470Y-71669123D01*
X76069990Y-71653507D01*
X76022555Y-71628152D01*
X75980973Y-71594027D01*
X75946848Y-71552445D01*
X75921493Y-71505010D01*
X75905877Y-71453530D01*
X75900000Y-71393860D01*
X75900000Y-70606140D01*
X75905877Y-70546470D01*
X75921493Y-70494990D01*
X75946848Y-70447555D01*
X75980973Y-70405973D01*
X76022555Y-70371848D01*
X76069990Y-70346493D01*
X76121470Y-70330877D01*
X76181140Y-70325000D01*
X77068860Y-70325000D01*
X77128530Y-70330877D01*
X77128530Y-70330877D01*
G37*
G36*
X64628530Y-70330877D02*
G01*
X64680010Y-70346493D01*
X64727445Y-70371848D01*
X64769027Y-70405973D01*
X64803152Y-70447555D01*
X64828507Y-70494990D01*
X64844123Y-70546470D01*
X64850000Y-70606140D01*
X64850000Y-71393860D01*
X64844123Y-71453530D01*
X64828507Y-71505010D01*
X64803152Y-71552445D01*
X64769027Y-71594027D01*
X64727445Y-71628152D01*
X64680010Y-71653507D01*
X64628530Y-71669123D01*
X64568860Y-71675000D01*
X63681140Y-71675000D01*
X63621470Y-71669123D01*
X63569990Y-71653507D01*
X63522555Y-71628152D01*
X63480973Y-71594027D01*
X63446848Y-71552445D01*
X63421493Y-71505010D01*
X63405877Y-71453530D01*
X63400000Y-71393860D01*
X63400000Y-70606140D01*
X63405877Y-70546470D01*
X63421493Y-70494990D01*
X63446848Y-70447555D01*
X63480973Y-70405973D01*
X63522555Y-70371848D01*
X63569990Y-70346493D01*
X63621470Y-70330877D01*
X63681140Y-70325000D01*
X64568860Y-70325000D01*
X64628530Y-70330877D01*
X64628530Y-70330877D01*
G37*
G36*
X62878530Y-70330877D02*
G01*
X62930010Y-70346493D01*
X62977445Y-70371848D01*
X63019027Y-70405973D01*
X63053152Y-70447555D01*
X63078507Y-70494990D01*
X63094123Y-70546470D01*
X63100000Y-70606140D01*
X63100000Y-71393860D01*
X63094123Y-71453530D01*
X63078507Y-71505010D01*
X63053152Y-71552445D01*
X63019027Y-71594027D01*
X62977445Y-71628152D01*
X62930010Y-71653507D01*
X62878530Y-71669123D01*
X62818860Y-71675000D01*
X61931140Y-71675000D01*
X61871470Y-71669123D01*
X61819990Y-71653507D01*
X61772555Y-71628152D01*
X61730973Y-71594027D01*
X61696848Y-71552445D01*
X61671493Y-71505010D01*
X61655877Y-71453530D01*
X61650000Y-71393860D01*
X61650000Y-70606140D01*
X61655877Y-70546470D01*
X61671493Y-70494990D01*
X61696848Y-70447555D01*
X61730973Y-70405973D01*
X61772555Y-70371848D01*
X61819990Y-70346493D01*
X61871470Y-70330877D01*
X61931140Y-70325000D01*
X62818860Y-70325000D01*
X62878530Y-70330877D01*
X62878530Y-70330877D01*
G37*
G36*
X96953530Y-70155877D02*
G01*
X97005010Y-70171493D01*
X97052445Y-70196848D01*
X97094027Y-70230973D01*
X97128152Y-70272555D01*
X97153507Y-70319990D01*
X97169123Y-70371470D01*
X97175000Y-70431140D01*
X97175000Y-71318860D01*
X97169123Y-71378530D01*
X97153507Y-71430010D01*
X97128152Y-71477445D01*
X97094027Y-71519027D01*
X97052445Y-71553152D01*
X97005010Y-71578507D01*
X96953530Y-71594123D01*
X96893860Y-71600000D01*
X96106140Y-71600000D01*
X96046470Y-71594123D01*
X95994990Y-71578507D01*
X95947555Y-71553152D01*
X95905973Y-71519027D01*
X95871848Y-71477445D01*
X95846493Y-71430010D01*
X95830877Y-71378530D01*
X95825000Y-71318860D01*
X95825000Y-70431140D01*
X95830877Y-70371470D01*
X95846493Y-70319990D01*
X95871848Y-70272555D01*
X95905973Y-70230973D01*
X95947555Y-70196848D01*
X95994990Y-70171493D01*
X96046470Y-70155877D01*
X96106140Y-70150000D01*
X96893860Y-70150000D01*
X96953530Y-70155877D01*
X96953530Y-70155877D01*
G37*
G36*
X100453530Y-70155877D02*
G01*
X100505010Y-70171493D01*
X100552445Y-70196848D01*
X100594027Y-70230973D01*
X100628152Y-70272555D01*
X100653507Y-70319990D01*
X100669123Y-70371470D01*
X100675000Y-70431140D01*
X100675000Y-71318860D01*
X100669123Y-71378530D01*
X100653507Y-71430010D01*
X100628152Y-71477445D01*
X100594027Y-71519027D01*
X100552445Y-71553152D01*
X100505010Y-71578507D01*
X100453530Y-71594123D01*
X100393860Y-71600000D01*
X99606140Y-71600000D01*
X99546470Y-71594123D01*
X99494990Y-71578507D01*
X99447555Y-71553152D01*
X99405973Y-71519027D01*
X99371848Y-71477445D01*
X99346493Y-71430010D01*
X99330877Y-71378530D01*
X99325000Y-71318860D01*
X99325000Y-70431140D01*
X99330877Y-70371470D01*
X99346493Y-70319990D01*
X99371848Y-70272555D01*
X99405973Y-70230973D01*
X99447555Y-70196848D01*
X99494990Y-70171493D01*
X99546470Y-70155877D01*
X99606140Y-70150000D01*
X100393860Y-70150000D01*
X100453530Y-70155877D01*
X100453530Y-70155877D01*
G37*
G36*
X81552390Y-68379783D02*
G01*
X81702118Y-68409565D01*
X81816343Y-68456879D01*
X81984199Y-68526407D01*
X81984200Y-68526408D01*
X82238068Y-68696036D01*
X82453964Y-68911932D01*
X82567306Y-69081561D01*
X82623593Y-69165801D01*
X82740435Y-69447883D01*
X82800000Y-69747337D01*
X82800000Y-70052663D01*
X82776363Y-70171493D01*
X82740435Y-70352118D01*
X82718127Y-70405973D01*
X82623593Y-70634199D01*
X82623592Y-70634200D01*
X82453964Y-70888068D01*
X82238068Y-71103964D01*
X82068439Y-71217306D01*
X81984199Y-71273593D01*
X81829914Y-71337500D01*
X81702118Y-71390435D01*
X81552390Y-71420218D01*
X81402663Y-71450000D01*
X81097337Y-71450000D01*
X80947610Y-71420218D01*
X80797882Y-71390435D01*
X80670086Y-71337500D01*
X80515801Y-71273593D01*
X80431561Y-71217306D01*
X80261932Y-71103964D01*
X80046036Y-70888068D01*
X79876408Y-70634200D01*
X79876407Y-70634199D01*
X79781873Y-70405973D01*
X79759565Y-70352118D01*
X79723637Y-70171493D01*
X79700000Y-70052663D01*
X79700000Y-69747337D01*
X79759565Y-69447883D01*
X79876407Y-69165801D01*
X79932694Y-69081561D01*
X80046036Y-68911932D01*
X80261932Y-68696036D01*
X80515800Y-68526408D01*
X80515801Y-68526407D01*
X80683657Y-68456879D01*
X80797882Y-68409565D01*
X80947610Y-68379783D01*
X81097337Y-68350000D01*
X81402663Y-68350000D01*
X81552390Y-68379783D01*
X81552390Y-68379783D01*
G37*
G36*
X70230000Y-71250000D02*
G01*
X69230000Y-71250000D01*
X69230000Y-69350000D01*
X70230000Y-69350000D01*
X70230000Y-71250000D01*
X70230000Y-71250000D01*
G37*
G36*
X75310000Y-71250000D02*
G01*
X74310000Y-71250000D01*
X74310000Y-69350000D01*
X75310000Y-69350000D01*
X75310000Y-71250000D01*
X75310000Y-71250000D01*
G37*
G36*
X67690000Y-71250000D02*
G01*
X66690000Y-71250000D01*
X66690000Y-69350000D01*
X67690000Y-69350000D01*
X67690000Y-71250000D01*
X67690000Y-71250000D01*
G37*
G36*
X68960000Y-71250000D02*
G01*
X67960000Y-71250000D01*
X67960000Y-69350000D01*
X68960000Y-69350000D01*
X68960000Y-71250000D01*
X68960000Y-71250000D01*
G37*
G36*
X71500000Y-71250000D02*
G01*
X70500000Y-71250000D01*
X70500000Y-69350000D01*
X71500000Y-69350000D01*
X71500000Y-71250000D01*
X71500000Y-71250000D01*
G37*
G36*
X74040000Y-71250000D02*
G01*
X73040000Y-71250000D01*
X73040000Y-69350000D01*
X74040000Y-69350000D01*
X74040000Y-71250000D01*
X74040000Y-71250000D01*
G37*
G36*
X72770000Y-71250000D02*
G01*
X71770000Y-71250000D01*
X71770000Y-69350000D01*
X72770000Y-69350000D01*
X72770000Y-71250000D01*
X72770000Y-71250000D01*
G37*
G36*
X96953530Y-68405877D02*
G01*
X97005010Y-68421493D01*
X97052445Y-68446848D01*
X97094027Y-68480973D01*
X97128152Y-68522555D01*
X97153507Y-68569990D01*
X97169123Y-68621470D01*
X97175000Y-68681140D01*
X97175000Y-69568860D01*
X97169123Y-69628530D01*
X97153507Y-69680010D01*
X97128152Y-69727445D01*
X97094027Y-69769027D01*
X97052445Y-69803152D01*
X97005010Y-69828507D01*
X96953530Y-69844123D01*
X96893860Y-69850000D01*
X96106140Y-69850000D01*
X96046470Y-69844123D01*
X95994990Y-69828507D01*
X95947555Y-69803152D01*
X95905973Y-69769027D01*
X95871848Y-69727445D01*
X95846493Y-69680010D01*
X95830877Y-69628530D01*
X95825000Y-69568860D01*
X95825000Y-68681140D01*
X95830877Y-68621470D01*
X95846493Y-68569990D01*
X95871848Y-68522555D01*
X95905973Y-68480973D01*
X95947555Y-68446848D01*
X95994990Y-68421493D01*
X96046470Y-68405877D01*
X96106140Y-68400000D01*
X96893860Y-68400000D01*
X96953530Y-68405877D01*
X96953530Y-68405877D01*
G37*
G36*
X100453530Y-68405877D02*
G01*
X100505010Y-68421493D01*
X100552445Y-68446848D01*
X100594027Y-68480973D01*
X100628152Y-68522555D01*
X100653507Y-68569990D01*
X100669123Y-68621470D01*
X100675000Y-68681140D01*
X100675000Y-69568860D01*
X100669123Y-69628530D01*
X100653507Y-69680010D01*
X100628152Y-69727445D01*
X100594027Y-69769027D01*
X100552445Y-69803152D01*
X100505010Y-69828507D01*
X100453530Y-69844123D01*
X100393860Y-69850000D01*
X99606140Y-69850000D01*
X99546470Y-69844123D01*
X99494990Y-69828507D01*
X99447555Y-69803152D01*
X99405973Y-69769027D01*
X99371848Y-69727445D01*
X99346493Y-69680010D01*
X99330877Y-69628530D01*
X99325000Y-69568860D01*
X99325000Y-68681140D01*
X99330877Y-68621470D01*
X99346493Y-68569990D01*
X99371848Y-68522555D01*
X99405973Y-68480973D01*
X99447555Y-68446848D01*
X99494990Y-68421493D01*
X99546470Y-68405877D01*
X99606140Y-68400000D01*
X100393860Y-68400000D01*
X100453530Y-68405877D01*
X100453530Y-68405877D01*
G37*
G36*
X63100000Y-69650000D02*
G01*
X61900000Y-69650000D01*
X61900000Y-67350000D01*
X63100000Y-67350000D01*
X63100000Y-69650000D01*
X63100000Y-69650000D01*
G37*
G36*
X70878530Y-67580877D02*
G01*
X70930010Y-67596493D01*
X70977445Y-67621848D01*
X71019027Y-67655973D01*
X71053152Y-67697555D01*
X71078507Y-67744990D01*
X71094123Y-67796470D01*
X71100000Y-67856140D01*
X71100000Y-68643860D01*
X71094123Y-68703530D01*
X71078507Y-68755010D01*
X71053152Y-68802445D01*
X71019027Y-68844027D01*
X70977445Y-68878152D01*
X70930010Y-68903507D01*
X70878530Y-68919123D01*
X70818860Y-68925000D01*
X69931140Y-68925000D01*
X69871470Y-68919123D01*
X69819990Y-68903507D01*
X69772555Y-68878152D01*
X69730973Y-68844027D01*
X69696848Y-68802445D01*
X69671493Y-68755010D01*
X69655877Y-68703530D01*
X69650000Y-68643860D01*
X69650000Y-67856140D01*
X69655877Y-67796470D01*
X69671493Y-67744990D01*
X69696848Y-67697555D01*
X69730973Y-67655973D01*
X69772555Y-67621848D01*
X69819990Y-67596493D01*
X69871470Y-67580877D01*
X69931140Y-67575000D01*
X70818860Y-67575000D01*
X70878530Y-67580877D01*
X70878530Y-67580877D01*
G37*
G36*
X73378530Y-67580877D02*
G01*
X73430010Y-67596493D01*
X73477445Y-67621848D01*
X73519027Y-67655973D01*
X73553152Y-67697555D01*
X73578507Y-67744990D01*
X73594123Y-67796470D01*
X73600000Y-67856140D01*
X73600000Y-68643860D01*
X73594123Y-68703530D01*
X73578507Y-68755010D01*
X73553152Y-68802445D01*
X73519027Y-68844027D01*
X73477445Y-68878152D01*
X73430010Y-68903507D01*
X73378530Y-68919123D01*
X73318860Y-68925000D01*
X72431140Y-68925000D01*
X72371470Y-68919123D01*
X72319990Y-68903507D01*
X72272555Y-68878152D01*
X72230973Y-68844027D01*
X72196848Y-68802445D01*
X72171493Y-68755010D01*
X72155877Y-68703530D01*
X72150000Y-68643860D01*
X72150000Y-67856140D01*
X72155877Y-67796470D01*
X72171493Y-67744990D01*
X72196848Y-67697555D01*
X72230973Y-67655973D01*
X72272555Y-67621848D01*
X72319990Y-67596493D01*
X72371470Y-67580877D01*
X72431140Y-67575000D01*
X73318860Y-67575000D01*
X73378530Y-67580877D01*
X73378530Y-67580877D01*
G37*
G36*
X75128530Y-67580877D02*
G01*
X75180010Y-67596493D01*
X75227445Y-67621848D01*
X75269027Y-67655973D01*
X75303152Y-67697555D01*
X75328507Y-67744990D01*
X75344123Y-67796470D01*
X75350000Y-67856140D01*
X75350000Y-68643860D01*
X75344123Y-68703530D01*
X75328507Y-68755010D01*
X75303152Y-68802445D01*
X75269027Y-68844027D01*
X75227445Y-68878152D01*
X75180010Y-68903507D01*
X75128530Y-68919123D01*
X75068860Y-68925000D01*
X74181140Y-68925000D01*
X74121470Y-68919123D01*
X74069990Y-68903507D01*
X74022555Y-68878152D01*
X73980973Y-68844027D01*
X73946848Y-68802445D01*
X73921493Y-68755010D01*
X73905877Y-68703530D01*
X73900000Y-68643860D01*
X73900000Y-67856140D01*
X73905877Y-67796470D01*
X73921493Y-67744990D01*
X73946848Y-67697555D01*
X73980973Y-67655973D01*
X74022555Y-67621848D01*
X74069990Y-67596493D01*
X74121470Y-67580877D01*
X74181140Y-67575000D01*
X75068860Y-67575000D01*
X75128530Y-67580877D01*
X75128530Y-67580877D01*
G37*
G36*
X69128530Y-67580877D02*
G01*
X69180010Y-67596493D01*
X69227445Y-67621848D01*
X69269027Y-67655973D01*
X69303152Y-67697555D01*
X69328507Y-67744990D01*
X69344123Y-67796470D01*
X69350000Y-67856140D01*
X69350000Y-68643860D01*
X69344123Y-68703530D01*
X69328507Y-68755010D01*
X69303152Y-68802445D01*
X69269027Y-68844027D01*
X69227445Y-68878152D01*
X69180010Y-68903507D01*
X69128530Y-68919123D01*
X69068860Y-68925000D01*
X68181140Y-68925000D01*
X68121470Y-68919123D01*
X68069990Y-68903507D01*
X68022555Y-68878152D01*
X67980973Y-68844027D01*
X67946848Y-68802445D01*
X67921493Y-68755010D01*
X67905877Y-68703530D01*
X67900000Y-68643860D01*
X67900000Y-67856140D01*
X67905877Y-67796470D01*
X67921493Y-67744990D01*
X67946848Y-67697555D01*
X67980973Y-67655973D01*
X68022555Y-67621848D01*
X68069990Y-67596493D01*
X68121470Y-67580877D01*
X68181140Y-67575000D01*
X69068860Y-67575000D01*
X69128530Y-67580877D01*
X69128530Y-67580877D01*
G37*
G36*
X59453530Y-66405877D02*
G01*
X59505010Y-66421493D01*
X59552445Y-66446848D01*
X59594027Y-66480973D01*
X59628152Y-66522555D01*
X59653507Y-66569990D01*
X59669123Y-66621470D01*
X59675000Y-66681140D01*
X59675000Y-67568860D01*
X59669123Y-67628530D01*
X59653507Y-67680010D01*
X59628152Y-67727445D01*
X59594027Y-67769027D01*
X59552445Y-67803152D01*
X59505010Y-67828507D01*
X59453530Y-67844123D01*
X59393860Y-67850000D01*
X58606140Y-67850000D01*
X58546470Y-67844123D01*
X58494990Y-67828507D01*
X58447555Y-67803152D01*
X58405973Y-67769027D01*
X58371848Y-67727445D01*
X58346493Y-67680010D01*
X58330877Y-67628530D01*
X58325000Y-67568860D01*
X58325000Y-66681140D01*
X58330877Y-66621470D01*
X58346493Y-66569990D01*
X58371848Y-66522555D01*
X58405973Y-66480973D01*
X58447555Y-66446848D01*
X58494990Y-66421493D01*
X58546470Y-66405877D01*
X58606140Y-66400000D01*
X59393860Y-66400000D01*
X59453530Y-66405877D01*
X59453530Y-66405877D01*
G37*
G36*
X56953530Y-66405877D02*
G01*
X57005010Y-66421493D01*
X57052445Y-66446848D01*
X57094027Y-66480973D01*
X57128152Y-66522555D01*
X57153507Y-66569990D01*
X57169123Y-66621470D01*
X57175000Y-66681140D01*
X57175000Y-67568860D01*
X57169123Y-67628530D01*
X57153507Y-67680010D01*
X57128152Y-67727445D01*
X57094027Y-67769027D01*
X57052445Y-67803152D01*
X57005010Y-67828507D01*
X56953530Y-67844123D01*
X56893860Y-67850000D01*
X56106140Y-67850000D01*
X56046470Y-67844123D01*
X55994990Y-67828507D01*
X55947555Y-67803152D01*
X55905973Y-67769027D01*
X55871848Y-67727445D01*
X55846493Y-67680010D01*
X55830877Y-67628530D01*
X55825000Y-67568860D01*
X55825000Y-66681140D01*
X55830877Y-66621470D01*
X55846493Y-66569990D01*
X55871848Y-66522555D01*
X55905973Y-66480973D01*
X55947555Y-66446848D01*
X55994990Y-66421493D01*
X56046470Y-66405877D01*
X56106140Y-66400000D01*
X56893860Y-66400000D01*
X56953530Y-66405877D01*
X56953530Y-66405877D01*
G37*
G36*
X54453530Y-66405877D02*
G01*
X54505010Y-66421493D01*
X54552445Y-66446848D01*
X54594027Y-66480973D01*
X54628152Y-66522555D01*
X54653507Y-66569990D01*
X54669123Y-66621470D01*
X54675000Y-66681140D01*
X54675000Y-67568860D01*
X54669123Y-67628530D01*
X54653507Y-67680010D01*
X54628152Y-67727445D01*
X54594027Y-67769027D01*
X54552445Y-67803152D01*
X54505010Y-67828507D01*
X54453530Y-67844123D01*
X54393860Y-67850000D01*
X53606140Y-67850000D01*
X53546470Y-67844123D01*
X53494990Y-67828507D01*
X53447555Y-67803152D01*
X53405973Y-67769027D01*
X53371848Y-67727445D01*
X53346493Y-67680010D01*
X53330877Y-67628530D01*
X53325000Y-67568860D01*
X53325000Y-66681140D01*
X53330877Y-66621470D01*
X53346493Y-66569990D01*
X53371848Y-66522555D01*
X53405973Y-66480973D01*
X53447555Y-66446848D01*
X53494990Y-66421493D01*
X53546470Y-66405877D01*
X53606140Y-66400000D01*
X54393860Y-66400000D01*
X54453530Y-66405877D01*
X54453530Y-66405877D01*
G37*
G36*
X100453530Y-66280877D02*
G01*
X100505010Y-66296493D01*
X100552445Y-66321848D01*
X100594027Y-66355973D01*
X100628152Y-66397555D01*
X100653507Y-66444990D01*
X100669123Y-66496470D01*
X100675000Y-66556140D01*
X100675000Y-67443860D01*
X100669123Y-67503530D01*
X100653507Y-67555010D01*
X100628152Y-67602445D01*
X100594027Y-67644027D01*
X100552445Y-67678152D01*
X100505010Y-67703507D01*
X100453530Y-67719123D01*
X100393860Y-67725000D01*
X99606140Y-67725000D01*
X99546470Y-67719123D01*
X99494990Y-67703507D01*
X99447555Y-67678152D01*
X99405973Y-67644027D01*
X99371848Y-67602445D01*
X99346493Y-67555010D01*
X99330877Y-67503530D01*
X99325000Y-67443860D01*
X99325000Y-66556140D01*
X99330877Y-66496470D01*
X99346493Y-66444990D01*
X99371848Y-66397555D01*
X99405973Y-66355973D01*
X99447555Y-66321848D01*
X99494990Y-66296493D01*
X99546470Y-66280877D01*
X99606140Y-66275000D01*
X100393860Y-66275000D01*
X100453530Y-66280877D01*
X100453530Y-66280877D01*
G37*
G36*
X96953530Y-66155877D02*
G01*
X97005010Y-66171493D01*
X97052445Y-66196848D01*
X97094027Y-66230973D01*
X97128152Y-66272555D01*
X97153507Y-66319990D01*
X97169123Y-66371470D01*
X97175000Y-66431140D01*
X97175000Y-67318860D01*
X97169123Y-67378530D01*
X97153507Y-67430010D01*
X97128152Y-67477445D01*
X97094027Y-67519027D01*
X97052445Y-67553152D01*
X97005010Y-67578507D01*
X96953530Y-67594123D01*
X96893860Y-67600000D01*
X96106140Y-67600000D01*
X96046470Y-67594123D01*
X95994990Y-67578507D01*
X95947555Y-67553152D01*
X95905973Y-67519027D01*
X95871848Y-67477445D01*
X95846493Y-67430010D01*
X95830877Y-67378530D01*
X95825000Y-67318860D01*
X95825000Y-66431140D01*
X95830877Y-66371470D01*
X95846493Y-66319990D01*
X95871848Y-66272555D01*
X95905973Y-66230973D01*
X95947555Y-66196848D01*
X95994990Y-66171493D01*
X96046470Y-66155877D01*
X96106140Y-66150000D01*
X96893860Y-66150000D01*
X96953530Y-66155877D01*
X96953530Y-66155877D01*
G37*
G36*
X73378530Y-65580877D02*
G01*
X73430010Y-65596493D01*
X73477445Y-65621848D01*
X73519027Y-65655973D01*
X73553152Y-65697555D01*
X73578507Y-65744990D01*
X73594123Y-65796470D01*
X73600000Y-65856140D01*
X73600000Y-66643860D01*
X73594123Y-66703530D01*
X73578507Y-66755010D01*
X73553152Y-66802445D01*
X73519027Y-66844027D01*
X73477445Y-66878152D01*
X73430010Y-66903507D01*
X73378530Y-66919123D01*
X73318860Y-66925000D01*
X72431140Y-66925000D01*
X72371470Y-66919123D01*
X72319990Y-66903507D01*
X72272555Y-66878152D01*
X72230973Y-66844027D01*
X72196848Y-66802445D01*
X72171493Y-66755010D01*
X72155877Y-66703530D01*
X72150000Y-66643860D01*
X72150000Y-65856140D01*
X72155877Y-65796470D01*
X72171493Y-65744990D01*
X72196848Y-65697555D01*
X72230973Y-65655973D01*
X72272555Y-65621848D01*
X72319990Y-65596493D01*
X72371470Y-65580877D01*
X72431140Y-65575000D01*
X73318860Y-65575000D01*
X73378530Y-65580877D01*
X73378530Y-65580877D01*
G37*
G36*
X75128530Y-65580877D02*
G01*
X75180010Y-65596493D01*
X75227445Y-65621848D01*
X75269027Y-65655973D01*
X75303152Y-65697555D01*
X75328507Y-65744990D01*
X75344123Y-65796470D01*
X75350000Y-65856140D01*
X75350000Y-66643860D01*
X75344123Y-66703530D01*
X75328507Y-66755010D01*
X75303152Y-66802445D01*
X75269027Y-66844027D01*
X75227445Y-66878152D01*
X75180010Y-66903507D01*
X75128530Y-66919123D01*
X75068860Y-66925000D01*
X74181140Y-66925000D01*
X74121470Y-66919123D01*
X74069990Y-66903507D01*
X74022555Y-66878152D01*
X73980973Y-66844027D01*
X73946848Y-66802445D01*
X73921493Y-66755010D01*
X73905877Y-66703530D01*
X73900000Y-66643860D01*
X73900000Y-65856140D01*
X73905877Y-65796470D01*
X73921493Y-65744990D01*
X73946848Y-65697555D01*
X73980973Y-65655973D01*
X74022555Y-65621848D01*
X74069990Y-65596493D01*
X74121470Y-65580877D01*
X74181140Y-65575000D01*
X75068860Y-65575000D01*
X75128530Y-65580877D01*
X75128530Y-65580877D01*
G37*
G36*
X82378530Y-65580877D02*
G01*
X82430010Y-65596493D01*
X82477445Y-65621848D01*
X82519027Y-65655973D01*
X82553152Y-65697555D01*
X82578507Y-65744990D01*
X82594123Y-65796470D01*
X82600000Y-65856140D01*
X82600000Y-66643860D01*
X82594123Y-66703530D01*
X82578507Y-66755010D01*
X82553152Y-66802445D01*
X82519027Y-66844027D01*
X82477445Y-66878152D01*
X82430010Y-66903507D01*
X82378530Y-66919123D01*
X82318860Y-66925000D01*
X81431140Y-66925000D01*
X81371470Y-66919123D01*
X81319990Y-66903507D01*
X81272555Y-66878152D01*
X81230973Y-66844027D01*
X81196848Y-66802445D01*
X81171493Y-66755010D01*
X81155877Y-66703530D01*
X81150000Y-66643860D01*
X81150000Y-65856140D01*
X81155877Y-65796470D01*
X81171493Y-65744990D01*
X81196848Y-65697555D01*
X81230973Y-65655973D01*
X81272555Y-65621848D01*
X81319990Y-65596493D01*
X81371470Y-65580877D01*
X81431140Y-65575000D01*
X82318860Y-65575000D01*
X82378530Y-65580877D01*
X82378530Y-65580877D01*
G37*
G36*
X80628530Y-65580877D02*
G01*
X80680010Y-65596493D01*
X80727445Y-65621848D01*
X80769027Y-65655973D01*
X80803152Y-65697555D01*
X80828507Y-65744990D01*
X80844123Y-65796470D01*
X80850000Y-65856140D01*
X80850000Y-66643860D01*
X80844123Y-66703530D01*
X80828507Y-66755010D01*
X80803152Y-66802445D01*
X80769027Y-66844027D01*
X80727445Y-66878152D01*
X80680010Y-66903507D01*
X80628530Y-66919123D01*
X80568860Y-66925000D01*
X79681140Y-66925000D01*
X79621470Y-66919123D01*
X79569990Y-66903507D01*
X79522555Y-66878152D01*
X79480973Y-66844027D01*
X79446848Y-66802445D01*
X79421493Y-66755010D01*
X79405877Y-66703530D01*
X79400000Y-66643860D01*
X79400000Y-65856140D01*
X79405877Y-65796470D01*
X79421493Y-65744990D01*
X79446848Y-65697555D01*
X79480973Y-65655973D01*
X79522555Y-65621848D01*
X79569990Y-65596493D01*
X79621470Y-65580877D01*
X79681140Y-65575000D01*
X80568860Y-65575000D01*
X80628530Y-65580877D01*
X80628530Y-65580877D01*
G37*
G36*
X69128530Y-65580877D02*
G01*
X69180010Y-65596493D01*
X69227445Y-65621848D01*
X69269027Y-65655973D01*
X69303152Y-65697555D01*
X69328507Y-65744990D01*
X69344123Y-65796470D01*
X69350000Y-65856140D01*
X69350000Y-66643860D01*
X69344123Y-66703530D01*
X69328507Y-66755010D01*
X69303152Y-66802445D01*
X69269027Y-66844027D01*
X69227445Y-66878152D01*
X69180010Y-66903507D01*
X69128530Y-66919123D01*
X69068860Y-66925000D01*
X68181140Y-66925000D01*
X68121470Y-66919123D01*
X68069990Y-66903507D01*
X68022555Y-66878152D01*
X67980973Y-66844027D01*
X67946848Y-66802445D01*
X67921493Y-66755010D01*
X67905877Y-66703530D01*
X67900000Y-66643860D01*
X67900000Y-65856140D01*
X67905877Y-65796470D01*
X67921493Y-65744990D01*
X67946848Y-65697555D01*
X67980973Y-65655973D01*
X68022555Y-65621848D01*
X68069990Y-65596493D01*
X68121470Y-65580877D01*
X68181140Y-65575000D01*
X69068860Y-65575000D01*
X69128530Y-65580877D01*
X69128530Y-65580877D01*
G37*
G36*
X70878530Y-65580877D02*
G01*
X70930010Y-65596493D01*
X70977445Y-65621848D01*
X71019027Y-65655973D01*
X71053152Y-65697555D01*
X71078507Y-65744990D01*
X71094123Y-65796470D01*
X71100000Y-65856140D01*
X71100000Y-66643860D01*
X71094123Y-66703530D01*
X71078507Y-66755010D01*
X71053152Y-66802445D01*
X71019027Y-66844027D01*
X70977445Y-66878152D01*
X70930010Y-66903507D01*
X70878530Y-66919123D01*
X70818860Y-66925000D01*
X69931140Y-66925000D01*
X69871470Y-66919123D01*
X69819990Y-66903507D01*
X69772555Y-66878152D01*
X69730973Y-66844027D01*
X69696848Y-66802445D01*
X69671493Y-66755010D01*
X69655877Y-66703530D01*
X69650000Y-66643860D01*
X69650000Y-65856140D01*
X69655877Y-65796470D01*
X69671493Y-65744990D01*
X69696848Y-65697555D01*
X69730973Y-65655973D01*
X69772555Y-65621848D01*
X69819990Y-65596493D01*
X69871470Y-65580877D01*
X69931140Y-65575000D01*
X70818860Y-65575000D01*
X70878530Y-65580877D01*
X70878530Y-65580877D01*
G37*
G36*
X64050000Y-66650000D02*
G01*
X62850000Y-66650000D01*
X62850000Y-64350000D01*
X64050000Y-64350000D01*
X64050000Y-66650000D01*
X64050000Y-66650000D01*
G37*
G36*
X62150000Y-66650000D02*
G01*
X60950000Y-66650000D01*
X60950000Y-64350000D01*
X62150000Y-64350000D01*
X62150000Y-66650000D01*
X62150000Y-66650000D01*
G37*
G36*
X59453530Y-64655877D02*
G01*
X59505010Y-64671493D01*
X59552445Y-64696848D01*
X59594027Y-64730973D01*
X59628152Y-64772555D01*
X59653507Y-64819990D01*
X59669123Y-64871470D01*
X59675000Y-64931140D01*
X59675000Y-65818860D01*
X59669123Y-65878530D01*
X59653507Y-65930010D01*
X59628152Y-65977445D01*
X59594027Y-66019027D01*
X59552445Y-66053152D01*
X59505010Y-66078507D01*
X59453530Y-66094123D01*
X59393860Y-66100000D01*
X58606140Y-66100000D01*
X58546470Y-66094123D01*
X58494990Y-66078507D01*
X58447555Y-66053152D01*
X58405973Y-66019027D01*
X58371848Y-65977445D01*
X58346493Y-65930010D01*
X58330877Y-65878530D01*
X58325000Y-65818860D01*
X58325000Y-64931140D01*
X58330877Y-64871470D01*
X58346493Y-64819990D01*
X58371848Y-64772555D01*
X58405973Y-64730973D01*
X58447555Y-64696848D01*
X58494990Y-64671493D01*
X58546470Y-64655877D01*
X58606140Y-64650000D01*
X59393860Y-64650000D01*
X59453530Y-64655877D01*
X59453530Y-64655877D01*
G37*
G36*
X54453530Y-64655877D02*
G01*
X54505010Y-64671493D01*
X54552445Y-64696848D01*
X54594027Y-64730973D01*
X54628152Y-64772555D01*
X54653507Y-64819990D01*
X54669123Y-64871470D01*
X54675000Y-64931140D01*
X54675000Y-65818860D01*
X54669123Y-65878530D01*
X54653507Y-65930010D01*
X54628152Y-65977445D01*
X54594027Y-66019027D01*
X54552445Y-66053152D01*
X54505010Y-66078507D01*
X54453530Y-66094123D01*
X54393860Y-66100000D01*
X53606140Y-66100000D01*
X53546470Y-66094123D01*
X53494990Y-66078507D01*
X53447555Y-66053152D01*
X53405973Y-66019027D01*
X53371848Y-65977445D01*
X53346493Y-65930010D01*
X53330877Y-65878530D01*
X53325000Y-65818860D01*
X53325000Y-64931140D01*
X53330877Y-64871470D01*
X53346493Y-64819990D01*
X53371848Y-64772555D01*
X53405973Y-64730973D01*
X53447555Y-64696848D01*
X53494990Y-64671493D01*
X53546470Y-64655877D01*
X53606140Y-64650000D01*
X54393860Y-64650000D01*
X54453530Y-64655877D01*
X54453530Y-64655877D01*
G37*
G36*
X56953530Y-64655877D02*
G01*
X57005010Y-64671493D01*
X57052445Y-64696848D01*
X57094027Y-64730973D01*
X57128152Y-64772555D01*
X57153507Y-64819990D01*
X57169123Y-64871470D01*
X57175000Y-64931140D01*
X57175000Y-65818860D01*
X57169123Y-65878530D01*
X57153507Y-65930010D01*
X57128152Y-65977445D01*
X57094027Y-66019027D01*
X57052445Y-66053152D01*
X57005010Y-66078507D01*
X56953530Y-66094123D01*
X56893860Y-66100000D01*
X56106140Y-66100000D01*
X56046470Y-66094123D01*
X55994990Y-66078507D01*
X55947555Y-66053152D01*
X55905973Y-66019027D01*
X55871848Y-65977445D01*
X55846493Y-65930010D01*
X55830877Y-65878530D01*
X55825000Y-65818860D01*
X55825000Y-64931140D01*
X55830877Y-64871470D01*
X55846493Y-64819990D01*
X55871848Y-64772555D01*
X55905973Y-64730973D01*
X55947555Y-64696848D01*
X55994990Y-64671493D01*
X56046470Y-64655877D01*
X56106140Y-64650000D01*
X56893860Y-64650000D01*
X56953530Y-64655877D01*
X56953530Y-64655877D01*
G37*
G36*
X100453530Y-64530877D02*
G01*
X100505010Y-64546493D01*
X100552445Y-64571848D01*
X100594027Y-64605973D01*
X100628152Y-64647555D01*
X100653507Y-64694990D01*
X100669123Y-64746470D01*
X100675000Y-64806140D01*
X100675000Y-65693860D01*
X100669123Y-65753530D01*
X100653507Y-65805010D01*
X100628152Y-65852445D01*
X100594027Y-65894027D01*
X100552445Y-65928152D01*
X100505010Y-65953507D01*
X100453530Y-65969123D01*
X100393860Y-65975000D01*
X99606140Y-65975000D01*
X99546470Y-65969123D01*
X99494990Y-65953507D01*
X99447555Y-65928152D01*
X99405973Y-65894027D01*
X99371848Y-65852445D01*
X99346493Y-65805010D01*
X99330877Y-65753530D01*
X99325000Y-65693860D01*
X99325000Y-64806140D01*
X99330877Y-64746470D01*
X99346493Y-64694990D01*
X99371848Y-64647555D01*
X99405973Y-64605973D01*
X99447555Y-64571848D01*
X99494990Y-64546493D01*
X99546470Y-64530877D01*
X99606140Y-64525000D01*
X100393860Y-64525000D01*
X100453530Y-64530877D01*
X100453530Y-64530877D01*
G37*
G36*
X96953530Y-64405877D02*
G01*
X97005010Y-64421493D01*
X97052445Y-64446848D01*
X97094027Y-64480973D01*
X97128152Y-64522555D01*
X97153507Y-64569990D01*
X97169123Y-64621470D01*
X97175000Y-64681140D01*
X97175000Y-65568860D01*
X97169123Y-65628530D01*
X97153507Y-65680010D01*
X97128152Y-65727445D01*
X97094027Y-65769027D01*
X97052445Y-65803152D01*
X97005010Y-65828507D01*
X96953530Y-65844123D01*
X96893860Y-65850000D01*
X96106140Y-65850000D01*
X96046470Y-65844123D01*
X95994990Y-65828507D01*
X95947555Y-65803152D01*
X95905973Y-65769027D01*
X95871848Y-65727445D01*
X95846493Y-65680010D01*
X95830877Y-65628530D01*
X95825000Y-65568860D01*
X95825000Y-64681140D01*
X95830877Y-64621470D01*
X95846493Y-64569990D01*
X95871848Y-64522555D01*
X95905973Y-64480973D01*
X95947555Y-64446848D01*
X95994990Y-64421493D01*
X96046470Y-64405877D01*
X96106140Y-64400000D01*
X96893860Y-64400000D01*
X96953530Y-64405877D01*
X96953530Y-64405877D01*
G37*
G36*
X88888237Y-62720149D02*
G01*
X89130463Y-62820482D01*
X89130465Y-62820483D01*
X89348463Y-62966145D01*
X89533855Y-63151537D01*
X89669421Y-63354426D01*
X89679518Y-63369537D01*
X89779851Y-63611763D01*
X89831000Y-63868907D01*
X89831000Y-64131093D01*
X89779851Y-64388237D01*
X89689662Y-64605973D01*
X89679517Y-64630465D01*
X89533855Y-64848463D01*
X89348463Y-65033855D01*
X89130465Y-65179517D01*
X89130464Y-65179518D01*
X89130463Y-65179518D01*
X88888237Y-65279851D01*
X88631093Y-65331000D01*
X88368907Y-65331000D01*
X88111763Y-65279851D01*
X87869537Y-65179518D01*
X87869536Y-65179518D01*
X87869535Y-65179517D01*
X87651537Y-65033855D01*
X87466145Y-64848463D01*
X87320483Y-64630465D01*
X87310338Y-64605973D01*
X87220149Y-64388237D01*
X87169000Y-64131093D01*
X87169000Y-63868907D01*
X87220149Y-63611763D01*
X87320482Y-63369537D01*
X87330579Y-63354426D01*
X87466145Y-63151537D01*
X87651537Y-62966145D01*
X87869535Y-62820483D01*
X87869537Y-62820482D01*
X88111763Y-62720149D01*
X88368907Y-62669000D01*
X88631093Y-62669000D01*
X88888237Y-62720149D01*
X88888237Y-62720149D01*
G37*
G36*
X73203530Y-63655877D02*
G01*
X73255010Y-63671493D01*
X73302445Y-63696848D01*
X73344027Y-63730973D01*
X73378152Y-63772555D01*
X73403507Y-63819990D01*
X73419123Y-63871470D01*
X73425000Y-63931140D01*
X73425000Y-64818860D01*
X73419123Y-64878530D01*
X73403507Y-64930010D01*
X73378152Y-64977445D01*
X73344027Y-65019027D01*
X73302445Y-65053152D01*
X73255010Y-65078507D01*
X73203530Y-65094123D01*
X73143860Y-65100000D01*
X72356140Y-65100000D01*
X72296470Y-65094123D01*
X72244990Y-65078507D01*
X72197555Y-65053152D01*
X72155973Y-65019027D01*
X72121848Y-64977445D01*
X72096493Y-64930010D01*
X72080877Y-64878530D01*
X72075000Y-64818860D01*
X72075000Y-63931140D01*
X72080877Y-63871470D01*
X72096493Y-63819990D01*
X72121848Y-63772555D01*
X72155973Y-63730973D01*
X72197555Y-63696848D01*
X72244990Y-63671493D01*
X72296470Y-63655877D01*
X72356140Y-63650000D01*
X73143860Y-63650000D01*
X73203530Y-63655877D01*
X73203530Y-63655877D01*
G37*
G36*
X76800000Y-64800000D02*
G01*
X74200000Y-64800000D01*
X74200000Y-62200000D01*
X76800000Y-62200000D01*
X76800000Y-64800000D01*
X76800000Y-64800000D01*
G37*
G36*
X83374845Y-62218810D02*
G01*
X83619896Y-62293145D01*
X83845736Y-62413860D01*
X84043687Y-62576313D01*
X84206140Y-62774264D01*
X84326855Y-63000104D01*
X84401190Y-63245155D01*
X84426290Y-63500000D01*
X84401190Y-63754845D01*
X84326855Y-63999896D01*
X84206140Y-64225736D01*
X84043687Y-64423687D01*
X83845736Y-64586140D01*
X83619896Y-64706855D01*
X83374845Y-64781190D01*
X83183864Y-64800000D01*
X83056136Y-64800000D01*
X82865155Y-64781190D01*
X82620104Y-64706855D01*
X82394264Y-64586140D01*
X82196313Y-64423687D01*
X82033860Y-64225736D01*
X81913145Y-63999896D01*
X81838810Y-63754845D01*
X81813710Y-63500000D01*
X81838810Y-63245155D01*
X81913145Y-63000104D01*
X82033860Y-62774264D01*
X82196313Y-62576313D01*
X82394264Y-62413860D01*
X82620104Y-62293145D01*
X82865155Y-62218810D01*
X83056136Y-62200000D01*
X83183864Y-62200000D01*
X83374845Y-62218810D01*
X83374845Y-62218810D01*
G37*
G36*
X69711326Y-62272444D02*
G01*
X69791689Y-62288429D01*
X69973678Y-62363811D01*
X70137463Y-62473249D01*
X70276751Y-62612537D01*
X70386189Y-62776322D01*
X70461571Y-62958311D01*
X70461571Y-62958312D01*
X70500000Y-63151507D01*
X70500000Y-63348493D01*
X70474874Y-63474808D01*
X70461571Y-63541689D01*
X70386189Y-63723678D01*
X70276751Y-63887463D01*
X70137463Y-64026751D01*
X69973678Y-64136189D01*
X69791689Y-64211571D01*
X69727290Y-64224381D01*
X69598493Y-64250000D01*
X69401507Y-64250000D01*
X69272710Y-64224381D01*
X69208311Y-64211571D01*
X69026322Y-64136189D01*
X68862537Y-64026751D01*
X68723249Y-63887463D01*
X68613811Y-63723678D01*
X68538429Y-63541689D01*
X68525126Y-63474808D01*
X68500000Y-63348493D01*
X68500000Y-63151507D01*
X68538429Y-62958312D01*
X68538429Y-62958311D01*
X68613811Y-62776322D01*
X68723249Y-62612537D01*
X68862537Y-62473249D01*
X69026322Y-62363811D01*
X69208311Y-62288429D01*
X69288674Y-62272444D01*
X69401507Y-62250000D01*
X69598493Y-62250000D01*
X69711326Y-62272444D01*
X69711326Y-62272444D01*
G37*
G36*
X80378530Y-62580877D02*
G01*
X80430010Y-62596493D01*
X80477445Y-62621848D01*
X80519027Y-62655973D01*
X80553152Y-62697555D01*
X80578507Y-62744990D01*
X80594123Y-62796470D01*
X80600000Y-62856140D01*
X80600000Y-63643860D01*
X80594123Y-63703530D01*
X80578507Y-63755010D01*
X80553152Y-63802445D01*
X80519027Y-63844027D01*
X80477445Y-63878152D01*
X80430010Y-63903507D01*
X80378530Y-63919123D01*
X80318860Y-63925000D01*
X79431140Y-63925000D01*
X79371470Y-63919123D01*
X79319990Y-63903507D01*
X79272555Y-63878152D01*
X79230973Y-63844027D01*
X79196848Y-63802445D01*
X79171493Y-63755010D01*
X79155877Y-63703530D01*
X79150000Y-63643860D01*
X79150000Y-62856140D01*
X79155877Y-62796470D01*
X79171493Y-62744990D01*
X79196848Y-62697555D01*
X79230973Y-62655973D01*
X79272555Y-62621848D01*
X79319990Y-62596493D01*
X79371470Y-62580877D01*
X79431140Y-62575000D01*
X80318860Y-62575000D01*
X80378530Y-62580877D01*
X80378530Y-62580877D01*
G37*
G36*
X78628530Y-62580877D02*
G01*
X78680010Y-62596493D01*
X78727445Y-62621848D01*
X78769027Y-62655973D01*
X78803152Y-62697555D01*
X78828507Y-62744990D01*
X78844123Y-62796470D01*
X78850000Y-62856140D01*
X78850000Y-63643860D01*
X78844123Y-63703530D01*
X78828507Y-63755010D01*
X78803152Y-63802445D01*
X78769027Y-63844027D01*
X78727445Y-63878152D01*
X78680010Y-63903507D01*
X78628530Y-63919123D01*
X78568860Y-63925000D01*
X77681140Y-63925000D01*
X77621470Y-63919123D01*
X77569990Y-63903507D01*
X77522555Y-63878152D01*
X77480973Y-63844027D01*
X77446848Y-63802445D01*
X77421493Y-63755010D01*
X77405877Y-63703530D01*
X77400000Y-63643860D01*
X77400000Y-62856140D01*
X77405877Y-62796470D01*
X77421493Y-62744990D01*
X77446848Y-62697555D01*
X77480973Y-62655973D01*
X77522555Y-62621848D01*
X77569990Y-62596493D01*
X77621470Y-62580877D01*
X77681140Y-62575000D01*
X78568860Y-62575000D01*
X78628530Y-62580877D01*
X78628530Y-62580877D01*
G37*
G36*
X56820857Y-61442272D02*
G01*
X56960224Y-61500000D01*
X57021045Y-61525193D01*
X57026464Y-61528814D01*
X57201208Y-61645574D01*
X57354426Y-61798792D01*
X57474808Y-61978957D01*
X57557728Y-62179143D01*
X57600000Y-62391658D01*
X57600000Y-62608342D01*
X57557728Y-62820857D01*
X57474808Y-63021043D01*
X57474807Y-63021045D01*
X57414208Y-63111738D01*
X57354426Y-63201208D01*
X57201208Y-63354426D01*
X57154885Y-63385378D01*
X57021045Y-63474807D01*
X57021044Y-63474808D01*
X57021043Y-63474808D01*
X56820857Y-63557728D01*
X56608342Y-63600000D01*
X56391658Y-63600000D01*
X56179143Y-63557728D01*
X55978957Y-63474808D01*
X55978956Y-63474808D01*
X55978955Y-63474807D01*
X55845115Y-63385378D01*
X55798792Y-63354426D01*
X55645574Y-63201208D01*
X55585792Y-63111738D01*
X55525193Y-63021045D01*
X55525192Y-63021043D01*
X55442272Y-62820857D01*
X55400000Y-62608342D01*
X55400000Y-62391658D01*
X55442272Y-62179143D01*
X55525192Y-61978957D01*
X55645574Y-61798792D01*
X55798792Y-61645574D01*
X55973536Y-61528814D01*
X55978955Y-61525193D01*
X56039776Y-61500000D01*
X56179143Y-61442272D01*
X56391658Y-61400000D01*
X56608342Y-61400000D01*
X56820857Y-61442272D01*
X56820857Y-61442272D01*
G37*
G36*
X103820857Y-61442272D02*
G01*
X103960224Y-61500000D01*
X104021045Y-61525193D01*
X104026464Y-61528814D01*
X104201208Y-61645574D01*
X104354426Y-61798792D01*
X104474808Y-61978957D01*
X104557728Y-62179143D01*
X104600000Y-62391658D01*
X104600000Y-62608342D01*
X104557728Y-62820857D01*
X104474808Y-63021043D01*
X104474807Y-63021045D01*
X104414208Y-63111738D01*
X104354426Y-63201208D01*
X104201208Y-63354426D01*
X104154885Y-63385378D01*
X104021045Y-63474807D01*
X104021044Y-63474808D01*
X104021043Y-63474808D01*
X103820857Y-63557728D01*
X103608342Y-63600000D01*
X103391658Y-63600000D01*
X103179143Y-63557728D01*
X102978957Y-63474808D01*
X102978956Y-63474808D01*
X102978955Y-63474807D01*
X102845115Y-63385378D01*
X102798792Y-63354426D01*
X102645574Y-63201208D01*
X102585792Y-63111738D01*
X102525193Y-63021045D01*
X102525192Y-63021043D01*
X102442272Y-62820857D01*
X102400000Y-62608342D01*
X102400000Y-62391658D01*
X102442272Y-62179143D01*
X102525192Y-61978957D01*
X102645574Y-61798792D01*
X102798792Y-61645574D01*
X102973536Y-61528814D01*
X102978955Y-61525193D01*
X103039776Y-61500000D01*
X103179143Y-61442272D01*
X103391658Y-61400000D01*
X103608342Y-61400000D01*
X103820857Y-61442272D01*
X103820857Y-61442272D01*
G37*
G36*
X101320857Y-61442272D02*
G01*
X101460224Y-61500000D01*
X101521045Y-61525193D01*
X101526464Y-61528814D01*
X101701208Y-61645574D01*
X101854426Y-61798792D01*
X101974808Y-61978957D01*
X102057728Y-62179143D01*
X102100000Y-62391658D01*
X102100000Y-62608342D01*
X102057728Y-62820857D01*
X101974808Y-63021043D01*
X101974807Y-63021045D01*
X101914208Y-63111738D01*
X101854426Y-63201208D01*
X101701208Y-63354426D01*
X101654885Y-63385378D01*
X101521045Y-63474807D01*
X101521044Y-63474808D01*
X101521043Y-63474808D01*
X101320857Y-63557728D01*
X101108342Y-63600000D01*
X100891658Y-63600000D01*
X100679143Y-63557728D01*
X100478957Y-63474808D01*
X100478956Y-63474808D01*
X100478955Y-63474807D01*
X100345115Y-63385378D01*
X100298792Y-63354426D01*
X100145574Y-63201208D01*
X100085792Y-63111738D01*
X100025193Y-63021045D01*
X100025192Y-63021043D01*
X99942272Y-62820857D01*
X99900000Y-62608342D01*
X99900000Y-62391658D01*
X99942272Y-62179143D01*
X100025192Y-61978957D01*
X100145574Y-61798792D01*
X100298792Y-61645574D01*
X100473536Y-61528814D01*
X100478955Y-61525193D01*
X100539776Y-61500000D01*
X100679143Y-61442272D01*
X100891658Y-61400000D01*
X101108342Y-61400000D01*
X101320857Y-61442272D01*
X101320857Y-61442272D01*
G37*
G36*
X59320857Y-61442272D02*
G01*
X59460224Y-61500000D01*
X59521045Y-61525193D01*
X59526464Y-61528814D01*
X59701208Y-61645574D01*
X59854426Y-61798792D01*
X59974808Y-61978957D01*
X60057728Y-62179143D01*
X60100000Y-62391658D01*
X60100000Y-62608342D01*
X60057728Y-62820857D01*
X59974808Y-63021043D01*
X59974807Y-63021045D01*
X59914208Y-63111738D01*
X59854426Y-63201208D01*
X59701208Y-63354426D01*
X59654885Y-63385378D01*
X59521045Y-63474807D01*
X59521044Y-63474808D01*
X59521043Y-63474808D01*
X59320857Y-63557728D01*
X59108342Y-63600000D01*
X58891658Y-63600000D01*
X58679143Y-63557728D01*
X58478957Y-63474808D01*
X58478956Y-63474808D01*
X58478955Y-63474807D01*
X58345115Y-63385378D01*
X58298792Y-63354426D01*
X58145574Y-63201208D01*
X58085792Y-63111738D01*
X58025193Y-63021045D01*
X58025192Y-63021043D01*
X57942272Y-62820857D01*
X57900000Y-62608342D01*
X57900000Y-62391658D01*
X57942272Y-62179143D01*
X58025192Y-61978957D01*
X58145574Y-61798792D01*
X58298792Y-61645574D01*
X58473536Y-61528814D01*
X58478955Y-61525193D01*
X58539776Y-61500000D01*
X58679143Y-61442272D01*
X58891658Y-61400000D01*
X59108342Y-61400000D01*
X59320857Y-61442272D01*
X59320857Y-61442272D01*
G37*
G36*
X61820857Y-61442272D02*
G01*
X61960224Y-61500000D01*
X62021045Y-61525193D01*
X62026464Y-61528814D01*
X62201208Y-61645574D01*
X62354426Y-61798792D01*
X62474808Y-61978957D01*
X62557728Y-62179143D01*
X62600000Y-62391658D01*
X62600000Y-62608342D01*
X62557728Y-62820857D01*
X62474808Y-63021043D01*
X62474807Y-63021045D01*
X62414208Y-63111738D01*
X62354426Y-63201208D01*
X62201208Y-63354426D01*
X62154885Y-63385378D01*
X62021045Y-63474807D01*
X62021044Y-63474808D01*
X62021043Y-63474808D01*
X61820857Y-63557728D01*
X61608342Y-63600000D01*
X61391658Y-63600000D01*
X61179143Y-63557728D01*
X60978957Y-63474808D01*
X60978956Y-63474808D01*
X60978955Y-63474807D01*
X60845115Y-63385378D01*
X60798792Y-63354426D01*
X60645574Y-63201208D01*
X60585792Y-63111738D01*
X60525193Y-63021045D01*
X60525192Y-63021043D01*
X60442272Y-62820857D01*
X60400000Y-62608342D01*
X60400000Y-62391658D01*
X60442272Y-62179143D01*
X60525192Y-61978957D01*
X60645574Y-61798792D01*
X60798792Y-61645574D01*
X60973536Y-61528814D01*
X60978955Y-61525193D01*
X61039776Y-61500000D01*
X61179143Y-61442272D01*
X61391658Y-61400000D01*
X61608342Y-61400000D01*
X61820857Y-61442272D01*
X61820857Y-61442272D01*
G37*
G36*
X98820857Y-61442272D02*
G01*
X98960224Y-61500000D01*
X99021045Y-61525193D01*
X99026464Y-61528814D01*
X99201208Y-61645574D01*
X99354426Y-61798792D01*
X99474808Y-61978957D01*
X99557728Y-62179143D01*
X99600000Y-62391658D01*
X99600000Y-62608342D01*
X99557728Y-62820857D01*
X99474808Y-63021043D01*
X99474807Y-63021045D01*
X99414208Y-63111738D01*
X99354426Y-63201208D01*
X99201208Y-63354426D01*
X99154885Y-63385378D01*
X99021045Y-63474807D01*
X99021044Y-63474808D01*
X99021043Y-63474808D01*
X98820857Y-63557728D01*
X98608342Y-63600000D01*
X98391658Y-63600000D01*
X98179143Y-63557728D01*
X97978957Y-63474808D01*
X97978956Y-63474808D01*
X97978955Y-63474807D01*
X97845115Y-63385378D01*
X97798792Y-63354426D01*
X97645574Y-63201208D01*
X97585792Y-63111738D01*
X97525193Y-63021045D01*
X97525192Y-63021043D01*
X97442272Y-62820857D01*
X97400000Y-62608342D01*
X97400000Y-62391658D01*
X97442272Y-62179143D01*
X97525192Y-61978957D01*
X97645574Y-61798792D01*
X97798792Y-61645574D01*
X97973536Y-61528814D01*
X97978955Y-61525193D01*
X98039776Y-61500000D01*
X98179143Y-61442272D01*
X98391658Y-61400000D01*
X98608342Y-61400000D01*
X98820857Y-61442272D01*
X98820857Y-61442272D01*
G37*
G36*
X66435529Y-62005710D02*
G01*
X66485378Y-62020831D01*
X66531310Y-62045382D01*
X66571574Y-62078426D01*
X66604618Y-62118690D01*
X66629169Y-62164622D01*
X66644290Y-62214471D01*
X66650000Y-62272444D01*
X66650000Y-63277556D01*
X66644290Y-63335529D01*
X66629169Y-63385378D01*
X66604618Y-63431310D01*
X66571574Y-63471574D01*
X66531310Y-63504618D01*
X66485378Y-63529169D01*
X66435529Y-63544290D01*
X66377556Y-63550000D01*
X65122444Y-63550000D01*
X65064471Y-63544290D01*
X65014622Y-63529169D01*
X64968690Y-63504618D01*
X64928426Y-63471574D01*
X64895382Y-63431310D01*
X64870831Y-63385378D01*
X64855710Y-63335529D01*
X64850000Y-63277556D01*
X64850000Y-62272444D01*
X64855710Y-62214471D01*
X64870831Y-62164622D01*
X64895382Y-62118690D01*
X64928426Y-62078426D01*
X64968690Y-62045382D01*
X65014622Y-62020831D01*
X65064471Y-62005710D01*
X65122444Y-62000000D01*
X66377556Y-62000000D01*
X66435529Y-62005710D01*
X66435529Y-62005710D01*
G37*
G36*
X91044605Y-61528813D02*
G01*
X91228413Y-61604949D01*
X91393837Y-61715482D01*
X91534518Y-61856163D01*
X91645051Y-62021587D01*
X91721187Y-62205395D01*
X91760000Y-62400522D01*
X91760000Y-62599478D01*
X91721187Y-62794605D01*
X91645051Y-62978413D01*
X91534518Y-63143837D01*
X91393837Y-63284518D01*
X91228413Y-63395051D01*
X91044605Y-63471187D01*
X90849478Y-63510000D01*
X90650522Y-63510000D01*
X90455395Y-63471187D01*
X90271587Y-63395051D01*
X90106163Y-63284518D01*
X89965482Y-63143837D01*
X89854949Y-62978413D01*
X89778813Y-62794605D01*
X89740000Y-62599478D01*
X89740000Y-62400522D01*
X89778813Y-62205395D01*
X89854949Y-62021587D01*
X89965482Y-61856163D01*
X90106163Y-61715482D01*
X90271587Y-61604949D01*
X90455395Y-61528813D01*
X90650522Y-61490000D01*
X90849478Y-61490000D01*
X91044605Y-61528813D01*
X91044605Y-61528813D01*
G37*
G36*
X96044605Y-61528813D02*
G01*
X96228413Y-61604949D01*
X96393837Y-61715482D01*
X96534518Y-61856163D01*
X96645051Y-62021587D01*
X96721187Y-62205395D01*
X96760000Y-62400522D01*
X96760000Y-62599478D01*
X96721187Y-62794605D01*
X96645051Y-62978413D01*
X96534518Y-63143837D01*
X96393837Y-63284518D01*
X96228413Y-63395051D01*
X96044605Y-63471187D01*
X95849478Y-63510000D01*
X95650522Y-63510000D01*
X95455395Y-63471187D01*
X95271587Y-63395051D01*
X95106163Y-63284518D01*
X94965482Y-63143837D01*
X94854949Y-62978413D01*
X94778813Y-62794605D01*
X94740000Y-62599478D01*
X94740000Y-62400522D01*
X94778813Y-62205395D01*
X94854949Y-62021587D01*
X94965482Y-61856163D01*
X95106163Y-61715482D01*
X95271587Y-61604949D01*
X95455395Y-61528813D01*
X95650522Y-61490000D01*
X95849478Y-61490000D01*
X96044605Y-61528813D01*
X96044605Y-61528813D01*
G37*
G36*
X73203530Y-61905877D02*
G01*
X73255010Y-61921493D01*
X73302445Y-61946848D01*
X73344027Y-61980973D01*
X73378152Y-62022555D01*
X73403507Y-62069990D01*
X73419123Y-62121470D01*
X73425000Y-62181140D01*
X73425000Y-63068860D01*
X73419123Y-63128530D01*
X73403507Y-63180010D01*
X73378152Y-63227445D01*
X73344027Y-63269027D01*
X73302445Y-63303152D01*
X73255010Y-63328507D01*
X73203530Y-63344123D01*
X73143860Y-63350000D01*
X72356140Y-63350000D01*
X72296470Y-63344123D01*
X72244990Y-63328507D01*
X72197555Y-63303152D01*
X72155973Y-63269027D01*
X72121848Y-63227445D01*
X72096493Y-63180010D01*
X72080877Y-63128530D01*
X72075000Y-63068860D01*
X72075000Y-62181140D01*
X72080877Y-62121470D01*
X72096493Y-62069990D01*
X72121848Y-62022555D01*
X72155973Y-61980973D01*
X72197555Y-61946848D01*
X72244990Y-61921493D01*
X72296470Y-61905877D01*
X72356140Y-61900000D01*
X73143860Y-61900000D01*
X73203530Y-61905877D01*
X73203530Y-61905877D01*
G37*
G36*
X70500000Y-61750000D02*
G01*
X68500000Y-61750000D01*
X68500000Y-59750000D01*
X70500000Y-59750000D01*
X70500000Y-61750000D01*
X70500000Y-61750000D01*
G37*
G36*
X80351163Y-57934587D02*
G01*
X80525041Y-57969173D01*
X80852620Y-58104861D01*
X81147433Y-58301849D01*
X81398151Y-58552567D01*
X81595139Y-58847380D01*
X81730827Y-59174959D01*
X81735181Y-59196848D01*
X81800000Y-59522714D01*
X81800000Y-59877286D01*
X81780434Y-59975649D01*
X81730827Y-60225041D01*
X81595139Y-60552620D01*
X81398151Y-60847433D01*
X81147433Y-61098151D01*
X80852620Y-61295139D01*
X80525041Y-61430827D01*
X80405435Y-61454618D01*
X80177286Y-61500000D01*
X79822714Y-61500000D01*
X79594565Y-61454618D01*
X79474959Y-61430827D01*
X79147380Y-61295139D01*
X78852567Y-61098151D01*
X78601849Y-60847433D01*
X78404861Y-60552620D01*
X78269173Y-60225041D01*
X78219566Y-59975649D01*
X78200000Y-59877286D01*
X78200000Y-59522714D01*
X78264819Y-59196848D01*
X78269173Y-59174959D01*
X78404861Y-58847380D01*
X78601849Y-58552567D01*
X78852567Y-58301849D01*
X79147380Y-58104861D01*
X79474959Y-57969173D01*
X79648837Y-57934587D01*
X79822714Y-57900000D01*
X80177286Y-57900000D01*
X80351163Y-57934587D01*
X80351163Y-57934587D01*
G37*
G36*
X66435529Y-59955710D02*
G01*
X66485378Y-59970831D01*
X66531310Y-59995382D01*
X66571574Y-60028426D01*
X66604618Y-60068690D01*
X66629169Y-60114622D01*
X66644290Y-60164471D01*
X66650000Y-60222444D01*
X66650000Y-61227556D01*
X66644290Y-61285529D01*
X66629169Y-61335378D01*
X66604618Y-61381310D01*
X66571574Y-61421574D01*
X66531310Y-61454618D01*
X66485378Y-61479169D01*
X66435529Y-61494290D01*
X66377556Y-61500000D01*
X65122444Y-61500000D01*
X65064471Y-61494290D01*
X65014622Y-61479169D01*
X64968690Y-61454618D01*
X64928426Y-61421574D01*
X64895382Y-61381310D01*
X64870831Y-61335378D01*
X64855710Y-61285529D01*
X64850000Y-61227556D01*
X64850000Y-60222444D01*
X64855710Y-60164471D01*
X64870831Y-60114622D01*
X64895382Y-60068690D01*
X64928426Y-60028426D01*
X64968690Y-59995382D01*
X65014622Y-59970831D01*
X65064471Y-59955710D01*
X65122444Y-59950000D01*
X66377556Y-59950000D01*
X66435529Y-59955710D01*
X66435529Y-59955710D01*
G37*
G36*
X75203530Y-59155877D02*
G01*
X75255010Y-59171493D01*
X75302445Y-59196848D01*
X75344027Y-59230973D01*
X75378152Y-59272555D01*
X75403507Y-59319990D01*
X75419123Y-59371470D01*
X75425000Y-59431140D01*
X75425000Y-60318860D01*
X75419123Y-60378530D01*
X75403507Y-60430010D01*
X75378152Y-60477445D01*
X75344027Y-60519027D01*
X75302445Y-60553152D01*
X75255010Y-60578507D01*
X75203530Y-60594123D01*
X75143860Y-60600000D01*
X74356140Y-60600000D01*
X74296470Y-60594123D01*
X74244990Y-60578507D01*
X74197555Y-60553152D01*
X74155973Y-60519027D01*
X74121848Y-60477445D01*
X74096493Y-60430010D01*
X74080877Y-60378530D01*
X74075000Y-60318860D01*
X74075000Y-59431140D01*
X74080877Y-59371470D01*
X74096493Y-59319990D01*
X74121848Y-59272555D01*
X74155973Y-59230973D01*
X74197555Y-59196848D01*
X74244990Y-59171493D01*
X74296470Y-59155877D01*
X74356140Y-59150000D01*
X75143860Y-59150000D01*
X75203530Y-59155877D01*
X75203530Y-59155877D01*
G37*
G36*
X72203530Y-59155877D02*
G01*
X72255010Y-59171493D01*
X72302445Y-59196848D01*
X72344027Y-59230973D01*
X72378152Y-59272555D01*
X72403507Y-59319990D01*
X72419123Y-59371470D01*
X72425000Y-59431140D01*
X72425000Y-60318860D01*
X72419123Y-60378530D01*
X72403507Y-60430010D01*
X72378152Y-60477445D01*
X72344027Y-60519027D01*
X72302445Y-60553152D01*
X72255010Y-60578507D01*
X72203530Y-60594123D01*
X72143860Y-60600000D01*
X71356140Y-60600000D01*
X71296470Y-60594123D01*
X71244990Y-60578507D01*
X71197555Y-60553152D01*
X71155973Y-60519027D01*
X71121848Y-60477445D01*
X71096493Y-60430010D01*
X71080877Y-60378530D01*
X71075000Y-60318860D01*
X71075000Y-59431140D01*
X71080877Y-59371470D01*
X71096493Y-59319990D01*
X71121848Y-59272555D01*
X71155973Y-59230973D01*
X71197555Y-59196848D01*
X71244990Y-59171493D01*
X71296470Y-59155877D01*
X71356140Y-59150000D01*
X72143860Y-59150000D01*
X72203530Y-59155877D01*
X72203530Y-59155877D01*
G37*
G36*
X75203530Y-57405877D02*
G01*
X75255010Y-57421493D01*
X75302445Y-57446848D01*
X75344027Y-57480973D01*
X75378152Y-57522555D01*
X75403507Y-57569990D01*
X75419123Y-57621470D01*
X75425000Y-57681140D01*
X75425000Y-58568860D01*
X75419123Y-58628530D01*
X75403507Y-58680010D01*
X75378152Y-58727445D01*
X75344027Y-58769027D01*
X75302445Y-58803152D01*
X75255010Y-58828507D01*
X75203530Y-58844123D01*
X75143860Y-58850000D01*
X74356140Y-58850000D01*
X74296470Y-58844123D01*
X74244990Y-58828507D01*
X74197555Y-58803152D01*
X74155973Y-58769027D01*
X74121848Y-58727445D01*
X74096493Y-58680010D01*
X74080877Y-58628530D01*
X74075000Y-58568860D01*
X74075000Y-57681140D01*
X74080877Y-57621470D01*
X74096493Y-57569990D01*
X74121848Y-57522555D01*
X74155973Y-57480973D01*
X74197555Y-57446848D01*
X74244990Y-57421493D01*
X74296470Y-57405877D01*
X74356140Y-57400000D01*
X75143860Y-57400000D01*
X75203530Y-57405877D01*
X75203530Y-57405877D01*
G37*
G36*
X72203530Y-57405877D02*
G01*
X72255010Y-57421493D01*
X72302445Y-57446848D01*
X72344027Y-57480973D01*
X72378152Y-57522555D01*
X72403507Y-57569990D01*
X72419123Y-57621470D01*
X72425000Y-57681140D01*
X72425000Y-58568860D01*
X72419123Y-58628530D01*
X72403507Y-58680010D01*
X72378152Y-58727445D01*
X72344027Y-58769027D01*
X72302445Y-58803152D01*
X72255010Y-58828507D01*
X72203530Y-58844123D01*
X72143860Y-58850000D01*
X71356140Y-58850000D01*
X71296470Y-58844123D01*
X71244990Y-58828507D01*
X71197555Y-58803152D01*
X71155973Y-58769027D01*
X71121848Y-58727445D01*
X71096493Y-58680010D01*
X71080877Y-58628530D01*
X71075000Y-58568860D01*
X71075000Y-57681140D01*
X71080877Y-57621470D01*
X71096493Y-57569990D01*
X71121848Y-57522555D01*
X71155973Y-57480973D01*
X71197555Y-57446848D01*
X71244990Y-57421493D01*
X71296470Y-57405877D01*
X71356140Y-57400000D01*
X72143860Y-57400000D01*
X72203530Y-57405877D01*
X72203530Y-57405877D01*
G37*
G36*
X93544605Y-56528813D02*
G01*
X93728413Y-56604949D01*
X93893837Y-56715482D01*
X94034518Y-56856163D01*
X94145051Y-57021587D01*
X94221187Y-57205395D01*
X94260000Y-57400522D01*
X94260000Y-57599478D01*
X94221187Y-57794605D01*
X94145051Y-57978413D01*
X94034518Y-58143837D01*
X93893837Y-58284518D01*
X93728413Y-58395051D01*
X93544605Y-58471187D01*
X93349478Y-58510000D01*
X93150522Y-58510000D01*
X92955395Y-58471187D01*
X92771587Y-58395051D01*
X92606163Y-58284518D01*
X92465482Y-58143837D01*
X92354949Y-57978413D01*
X92278813Y-57794605D01*
X92240000Y-57599478D01*
X92240000Y-57400522D01*
X92278813Y-57205395D01*
X92354949Y-57021587D01*
X92465482Y-56856163D01*
X92606163Y-56715482D01*
X92771587Y-56604949D01*
X92955395Y-56528813D01*
X93150522Y-56490000D01*
X93349478Y-56490000D01*
X93544605Y-56528813D01*
X93544605Y-56528813D01*
G37*
G36*
X54931654Y-53832665D02*
G01*
X55095872Y-53865330D01*
X55405252Y-53993479D01*
X55683687Y-54179523D01*
X55920477Y-54416313D01*
X56106521Y-54694748D01*
X56234670Y-55004128D01*
X56300000Y-55332565D01*
X56300000Y-55667435D01*
X56234670Y-55995872D01*
X56106521Y-56305252D01*
X55920477Y-56583687D01*
X55683687Y-56820477D01*
X55405252Y-57006521D01*
X55095872Y-57134670D01*
X54931654Y-57167335D01*
X54767437Y-57200000D01*
X54432563Y-57200000D01*
X54268346Y-57167335D01*
X54104128Y-57134670D01*
X53794748Y-57006521D01*
X53516313Y-56820477D01*
X53279523Y-56583687D01*
X53093479Y-56305252D01*
X52965330Y-55995872D01*
X52900000Y-55667435D01*
X52900000Y-55332565D01*
X52965330Y-55004128D01*
X53093479Y-54694748D01*
X53279523Y-54416313D01*
X53516313Y-54179523D01*
X53794748Y-53993479D01*
X54104128Y-53865330D01*
X54268346Y-53832665D01*
X54432563Y-53800000D01*
X54767437Y-53800000D01*
X54931654Y-53832665D01*
X54931654Y-53832665D01*
G37*
G36*
X96931654Y-53832665D02*
G01*
X97095872Y-53865330D01*
X97405252Y-53993479D01*
X97683687Y-54179523D01*
X97920477Y-54416313D01*
X98106521Y-54694748D01*
X98234670Y-55004128D01*
X98300000Y-55332565D01*
X98300000Y-55667435D01*
X98234670Y-55995872D01*
X98106521Y-56305252D01*
X97920477Y-56583687D01*
X97683687Y-56820477D01*
X97405252Y-57006521D01*
X97095872Y-57134670D01*
X96931654Y-57167335D01*
X96767437Y-57200000D01*
X96432563Y-57200000D01*
X96268346Y-57167335D01*
X96104128Y-57134670D01*
X95794748Y-57006521D01*
X95516313Y-56820477D01*
X95279523Y-56583687D01*
X95093479Y-56305252D01*
X94965330Y-55995872D01*
X94900000Y-55667435D01*
X94900000Y-55332565D01*
X94965330Y-55004128D01*
X95093479Y-54694748D01*
X95279523Y-54416313D01*
X95516313Y-54179523D01*
X95794748Y-53993479D01*
X96104128Y-53865330D01*
X96268346Y-53832665D01*
X96432563Y-53800000D01*
X96767437Y-53800000D01*
X96931654Y-53832665D01*
X96931654Y-53832665D01*
G37*
G36*
X105731654Y-53832665D02*
G01*
X105895872Y-53865330D01*
X106205252Y-53993479D01*
X106483687Y-54179523D01*
X106720477Y-54416313D01*
X106906521Y-54694748D01*
X107034670Y-55004128D01*
X107100000Y-55332565D01*
X107100000Y-55667435D01*
X107034670Y-55995872D01*
X106906521Y-56305252D01*
X106720477Y-56583687D01*
X106483687Y-56820477D01*
X106205252Y-57006521D01*
X105895872Y-57134670D01*
X105731654Y-57167335D01*
X105567437Y-57200000D01*
X105232563Y-57200000D01*
X105068346Y-57167335D01*
X104904128Y-57134670D01*
X104594748Y-57006521D01*
X104316313Y-56820477D01*
X104079523Y-56583687D01*
X103893479Y-56305252D01*
X103765330Y-55995872D01*
X103700000Y-55667435D01*
X103700000Y-55332565D01*
X103765330Y-55004128D01*
X103893479Y-54694748D01*
X104079523Y-54416313D01*
X104316313Y-54179523D01*
X104594748Y-53993479D01*
X104904128Y-53865330D01*
X105068346Y-53832665D01*
X105232563Y-53800000D01*
X105567437Y-53800000D01*
X105731654Y-53832665D01*
X105731654Y-53832665D01*
G37*
G36*
X63731654Y-53832665D02*
G01*
X63895872Y-53865330D01*
X64205252Y-53993479D01*
X64483687Y-54179523D01*
X64720477Y-54416313D01*
X64906521Y-54694748D01*
X65034670Y-55004128D01*
X65100000Y-55332565D01*
X65100000Y-55667435D01*
X65034670Y-55995872D01*
X64906521Y-56305252D01*
X64720477Y-56583687D01*
X64483687Y-56820477D01*
X64205252Y-57006521D01*
X63895872Y-57134670D01*
X63731654Y-57167335D01*
X63567437Y-57200000D01*
X63232563Y-57200000D01*
X63068346Y-57167335D01*
X62904128Y-57134670D01*
X62594748Y-57006521D01*
X62316313Y-56820477D01*
X62079523Y-56583687D01*
X61893479Y-56305252D01*
X61765330Y-55995872D01*
X61700000Y-55667435D01*
X61700000Y-55332565D01*
X61765330Y-55004128D01*
X61893479Y-54694748D01*
X62079523Y-54416313D01*
X62316313Y-54179523D01*
X62594748Y-53993479D01*
X62904128Y-53865330D01*
X63068346Y-53832665D01*
X63232563Y-53800000D01*
X63567437Y-53800000D01*
X63731654Y-53832665D01*
X63731654Y-53832665D01*
G37*
G36*
X80351163Y-53234587D02*
G01*
X80525041Y-53269173D01*
X80852620Y-53404861D01*
X81147433Y-53601849D01*
X81398151Y-53852567D01*
X81498604Y-54002906D01*
X81595140Y-54147382D01*
X81613828Y-54192500D01*
X81730827Y-54474959D01*
X81800000Y-54822716D01*
X81800000Y-55177284D01*
X81730827Y-55525041D01*
X81595139Y-55852620D01*
X81398151Y-56147433D01*
X81147433Y-56398151D01*
X80852620Y-56595139D01*
X80525041Y-56730827D01*
X80351163Y-56765413D01*
X80177286Y-56800000D01*
X79822714Y-56800000D01*
X79648837Y-56765413D01*
X79474959Y-56730827D01*
X79147380Y-56595139D01*
X78852567Y-56398151D01*
X78601849Y-56147433D01*
X78404861Y-55852620D01*
X78269173Y-55525041D01*
X78200000Y-55177284D01*
X78200000Y-54822716D01*
X78269173Y-54474959D01*
X78386172Y-54192500D01*
X78404860Y-54147382D01*
X78501396Y-54002906D01*
X78601849Y-53852567D01*
X78852567Y-53601849D01*
X79147380Y-53404861D01*
X79474959Y-53269173D01*
X79648838Y-53234586D01*
X79822714Y-53200000D01*
X80177286Y-53200000D01*
X80351163Y-53234587D01*
X80351163Y-53234587D01*
G37*
G36*
X75200000Y-51652500D02*
G01*
X74262531Y-51652500D01*
X74238145Y-51654902D01*
X74214696Y-51662015D01*
X74193085Y-51673566D01*
X74174143Y-51689111D01*
X74158598Y-51708053D01*
X74147047Y-51729664D01*
X74139934Y-51753113D01*
X74137532Y-51777499D01*
X74139934Y-51801885D01*
X74147047Y-51825334D01*
X74158598Y-51846945D01*
X74174143Y-51865887D01*
X74193085Y-51881432D01*
X74214696Y-51892983D01*
X74250279Y-51901896D01*
X74273429Y-51904176D01*
X74490676Y-51970077D01*
X74490679Y-51970078D01*
X74670344Y-52066112D01*
X74690893Y-52077095D01*
X74731632Y-52110529D01*
X74866384Y-52221116D01*
X74972888Y-52350893D01*
X75010405Y-52396607D01*
X75010406Y-52396609D01*
X75117422Y-52596821D01*
X75117423Y-52596824D01*
X75183324Y-52814071D01*
X75205576Y-53040000D01*
X75183324Y-53265929D01*
X75117423Y-53483176D01*
X75117422Y-53483179D01*
X75053991Y-53601849D01*
X75010405Y-53683393D01*
X74972888Y-53729107D01*
X74866384Y-53858884D01*
X74736607Y-53965388D01*
X74690893Y-54002905D01*
X74690891Y-54002906D01*
X74490679Y-54109922D01*
X74490676Y-54109923D01*
X74273429Y-54175824D01*
X74235872Y-54179523D01*
X74174141Y-54185603D01*
X74150108Y-54190383D01*
X74127469Y-54199761D01*
X74107094Y-54213375D01*
X74089767Y-54230702D01*
X74076154Y-54251076D01*
X74066776Y-54273715D01*
X74061996Y-54297748D01*
X74061996Y-54322252D01*
X74066776Y-54346285D01*
X74076154Y-54368924D01*
X74089768Y-54389299D01*
X74107095Y-54406626D01*
X74127469Y-54420239D01*
X74150108Y-54429617D01*
X74174141Y-54434397D01*
X74273429Y-54444176D01*
X74490676Y-54510077D01*
X74490679Y-54510078D01*
X74670344Y-54606112D01*
X74690893Y-54617095D01*
X74736607Y-54654612D01*
X74866384Y-54761116D01*
X74957380Y-54871996D01*
X75010405Y-54936607D01*
X75010406Y-54936609D01*
X75117422Y-55136821D01*
X75117423Y-55136824D01*
X75183324Y-55354071D01*
X75205576Y-55580000D01*
X75183324Y-55805929D01*
X75118654Y-56019117D01*
X75117422Y-56023179D01*
X75049634Y-56150000D01*
X75010405Y-56223393D01*
X74972888Y-56269107D01*
X74866384Y-56398884D01*
X74736607Y-56505388D01*
X74690893Y-56542905D01*
X74690891Y-56542906D01*
X74490679Y-56649922D01*
X74490676Y-56649923D01*
X74273429Y-56715824D01*
X74216991Y-56721383D01*
X74104116Y-56732500D01*
X73895884Y-56732500D01*
X73783009Y-56721383D01*
X73726571Y-56715824D01*
X73509324Y-56649923D01*
X73509321Y-56649922D01*
X73309109Y-56542906D01*
X73309107Y-56542905D01*
X73263393Y-56505388D01*
X73133616Y-56398884D01*
X73027112Y-56269107D01*
X72989595Y-56223393D01*
X72950366Y-56150000D01*
X72882578Y-56023179D01*
X72881346Y-56019117D01*
X72816676Y-55805929D01*
X72794424Y-55580000D01*
X72816676Y-55354071D01*
X72882577Y-55136824D01*
X72882578Y-55136821D01*
X72989594Y-54936609D01*
X72989595Y-54936607D01*
X73042620Y-54871996D01*
X73133616Y-54761116D01*
X73263393Y-54654612D01*
X73309107Y-54617095D01*
X73329656Y-54606112D01*
X73509321Y-54510078D01*
X73509324Y-54510077D01*
X73726571Y-54444176D01*
X73825859Y-54434397D01*
X73849892Y-54429617D01*
X73872531Y-54420239D01*
X73892906Y-54406625D01*
X73910233Y-54389298D01*
X73923846Y-54368924D01*
X73933224Y-54346285D01*
X73938004Y-54322252D01*
X73938004Y-54297748D01*
X73933224Y-54273715D01*
X73923846Y-54251076D01*
X73910232Y-54230701D01*
X73892905Y-54213374D01*
X73872531Y-54199761D01*
X73849892Y-54190383D01*
X73825859Y-54185603D01*
X73764128Y-54179523D01*
X73726571Y-54175824D01*
X73509324Y-54109923D01*
X73509321Y-54109922D01*
X73309109Y-54002906D01*
X73309107Y-54002905D01*
X73263393Y-53965388D01*
X73133616Y-53858884D01*
X73027112Y-53729107D01*
X72989595Y-53683393D01*
X72946009Y-53601849D01*
X72882578Y-53483179D01*
X72882577Y-53483176D01*
X72816676Y-53265929D01*
X72794424Y-53040000D01*
X72816676Y-52814071D01*
X72882577Y-52596824D01*
X72882578Y-52596821D01*
X72989594Y-52396609D01*
X72989595Y-52396607D01*
X73027112Y-52350893D01*
X73133616Y-52221116D01*
X73268368Y-52110529D01*
X73309107Y-52077095D01*
X73329656Y-52066112D01*
X73509321Y-51970078D01*
X73509324Y-51970077D01*
X73726571Y-51904176D01*
X73749722Y-51901896D01*
X73773755Y-51897115D01*
X73796393Y-51887738D01*
X73816768Y-51874124D01*
X73834095Y-51856797D01*
X73847708Y-51836423D01*
X73857086Y-51813784D01*
X73861866Y-51789751D01*
X73861866Y-51765247D01*
X73857085Y-51741213D01*
X73847708Y-51718575D01*
X73834094Y-51698200D01*
X73816767Y-51680873D01*
X73796393Y-51667260D01*
X73773754Y-51657882D01*
X73737469Y-51652500D01*
X72800000Y-51652500D01*
X72800000Y-49347500D01*
X75200000Y-49347500D01*
X75200000Y-51652500D01*
X75200000Y-51652500D01*
G37*
G36*
X69700000Y-51652500D02*
G01*
X68762531Y-51652500D01*
X68738145Y-51654902D01*
X68714696Y-51662015D01*
X68693085Y-51673566D01*
X68674143Y-51689111D01*
X68658598Y-51708053D01*
X68647047Y-51729664D01*
X68639934Y-51753113D01*
X68637532Y-51777499D01*
X68639934Y-51801885D01*
X68647047Y-51825334D01*
X68658598Y-51846945D01*
X68674143Y-51865887D01*
X68693085Y-51881432D01*
X68714696Y-51892983D01*
X68750279Y-51901896D01*
X68773429Y-51904176D01*
X68990676Y-51970077D01*
X68990679Y-51970078D01*
X69170344Y-52066112D01*
X69190893Y-52077095D01*
X69231632Y-52110529D01*
X69366384Y-52221116D01*
X69472888Y-52350893D01*
X69510405Y-52396607D01*
X69510406Y-52396609D01*
X69617422Y-52596821D01*
X69617423Y-52596824D01*
X69683324Y-52814071D01*
X69705576Y-53040000D01*
X69683324Y-53265929D01*
X69617423Y-53483176D01*
X69617422Y-53483179D01*
X69553991Y-53601849D01*
X69510405Y-53683393D01*
X69472888Y-53729107D01*
X69366384Y-53858884D01*
X69236607Y-53965388D01*
X69190893Y-54002905D01*
X69190891Y-54002906D01*
X68990679Y-54109922D01*
X68990676Y-54109923D01*
X68773429Y-54175824D01*
X68735872Y-54179523D01*
X68674141Y-54185603D01*
X68650108Y-54190383D01*
X68627469Y-54199761D01*
X68607094Y-54213375D01*
X68589767Y-54230702D01*
X68576154Y-54251076D01*
X68566776Y-54273715D01*
X68561996Y-54297748D01*
X68561996Y-54322252D01*
X68566776Y-54346285D01*
X68576154Y-54368924D01*
X68589768Y-54389299D01*
X68607095Y-54406626D01*
X68627469Y-54420239D01*
X68650108Y-54429617D01*
X68674141Y-54434397D01*
X68773429Y-54444176D01*
X68990676Y-54510077D01*
X68990679Y-54510078D01*
X69170344Y-54606112D01*
X69190893Y-54617095D01*
X69236607Y-54654612D01*
X69366384Y-54761116D01*
X69457380Y-54871996D01*
X69510405Y-54936607D01*
X69510406Y-54936609D01*
X69617422Y-55136821D01*
X69617423Y-55136824D01*
X69683324Y-55354071D01*
X69705576Y-55580000D01*
X69683324Y-55805929D01*
X69618654Y-56019117D01*
X69617422Y-56023179D01*
X69549634Y-56150000D01*
X69510405Y-56223393D01*
X69472888Y-56269107D01*
X69366384Y-56398884D01*
X69236607Y-56505388D01*
X69190893Y-56542905D01*
X69190891Y-56542906D01*
X68990679Y-56649922D01*
X68990676Y-56649923D01*
X68773429Y-56715824D01*
X68716991Y-56721383D01*
X68604116Y-56732500D01*
X68395884Y-56732500D01*
X68283009Y-56721383D01*
X68226571Y-56715824D01*
X68009324Y-56649923D01*
X68009321Y-56649922D01*
X67809109Y-56542906D01*
X67809107Y-56542905D01*
X67763393Y-56505388D01*
X67633616Y-56398884D01*
X67527112Y-56269107D01*
X67489595Y-56223393D01*
X67450366Y-56150000D01*
X67382578Y-56023179D01*
X67381346Y-56019117D01*
X67316676Y-55805929D01*
X67294424Y-55580000D01*
X67316676Y-55354071D01*
X67382577Y-55136824D01*
X67382578Y-55136821D01*
X67489594Y-54936609D01*
X67489595Y-54936607D01*
X67542620Y-54871996D01*
X67633616Y-54761116D01*
X67763393Y-54654612D01*
X67809107Y-54617095D01*
X67829656Y-54606112D01*
X68009321Y-54510078D01*
X68009324Y-54510077D01*
X68226571Y-54444176D01*
X68325859Y-54434397D01*
X68349892Y-54429617D01*
X68372531Y-54420239D01*
X68392906Y-54406625D01*
X68410233Y-54389298D01*
X68423846Y-54368924D01*
X68433224Y-54346285D01*
X68438004Y-54322252D01*
X68438004Y-54297748D01*
X68433224Y-54273715D01*
X68423846Y-54251076D01*
X68410232Y-54230701D01*
X68392905Y-54213374D01*
X68372531Y-54199761D01*
X68349892Y-54190383D01*
X68325859Y-54185603D01*
X68264128Y-54179523D01*
X68226571Y-54175824D01*
X68009324Y-54109923D01*
X68009321Y-54109922D01*
X67809109Y-54002906D01*
X67809107Y-54002905D01*
X67763393Y-53965388D01*
X67633616Y-53858884D01*
X67527112Y-53729107D01*
X67489595Y-53683393D01*
X67446009Y-53601849D01*
X67382578Y-53483179D01*
X67382577Y-53483176D01*
X67316676Y-53265929D01*
X67294424Y-53040000D01*
X67316676Y-52814071D01*
X67382577Y-52596824D01*
X67382578Y-52596821D01*
X67489594Y-52396609D01*
X67489595Y-52396607D01*
X67527112Y-52350893D01*
X67633616Y-52221116D01*
X67768368Y-52110529D01*
X67809107Y-52077095D01*
X67829656Y-52066112D01*
X68009321Y-51970078D01*
X68009324Y-51970077D01*
X68226571Y-51904176D01*
X68249722Y-51901896D01*
X68273755Y-51897115D01*
X68296393Y-51887738D01*
X68316768Y-51874124D01*
X68334095Y-51856797D01*
X68347708Y-51836423D01*
X68357086Y-51813784D01*
X68361866Y-51789751D01*
X68361866Y-51765247D01*
X68357085Y-51741213D01*
X68347708Y-51718575D01*
X68334094Y-51698200D01*
X68316767Y-51680873D01*
X68296393Y-51667260D01*
X68273754Y-51657882D01*
X68237469Y-51652500D01*
X67300000Y-51652500D01*
X67300000Y-49347500D01*
X69700000Y-49347500D01*
X69700000Y-51652500D01*
X69700000Y-51652500D01*
G37*
G36*
X91150000Y-56200000D02*
G01*
X88850000Y-56200000D01*
X88850000Y-55175839D01*
X88847598Y-55151453D01*
X88840485Y-55128004D01*
X88828934Y-55106393D01*
X88813389Y-55087451D01*
X88794447Y-55071906D01*
X88772836Y-55060355D01*
X88749387Y-55053242D01*
X88725001Y-55050840D01*
X88700615Y-55053242D01*
X88677166Y-55060355D01*
X88655555Y-55071906D01*
X88636613Y-55087451D01*
X88621068Y-55106393D01*
X88609517Y-55128004D01*
X88602404Y-55151453D01*
X88565806Y-55335443D01*
X88479116Y-55544729D01*
X88353263Y-55733082D01*
X88193082Y-55893263D01*
X88004729Y-56019116D01*
X88004728Y-56019117D01*
X88004727Y-56019117D01*
X87994920Y-56023179D01*
X87795443Y-56105806D01*
X87647324Y-56135269D01*
X87573266Y-56150000D01*
X87346734Y-56150000D01*
X87272676Y-56135269D01*
X87124557Y-56105806D01*
X86925080Y-56023179D01*
X86915273Y-56019117D01*
X86915272Y-56019117D01*
X86915271Y-56019116D01*
X86726918Y-55893263D01*
X86566737Y-55733082D01*
X86440884Y-55544729D01*
X86354194Y-55335443D01*
X86314686Y-55136824D01*
X86310000Y-55113266D01*
X86310000Y-54886734D01*
X86334987Y-54761116D01*
X86354194Y-54664557D01*
X86440884Y-54455271D01*
X86566737Y-54266918D01*
X86726918Y-54106737D01*
X86915271Y-53980884D01*
X87124557Y-53894194D01*
X87302077Y-53858883D01*
X87346734Y-53850000D01*
X87573266Y-53850000D01*
X87617923Y-53858883D01*
X87795443Y-53894194D01*
X88004729Y-53980884D01*
X88193082Y-54106737D01*
X88353263Y-54266918D01*
X88479116Y-54455271D01*
X88565806Y-54664557D01*
X88585013Y-54761116D01*
X88602404Y-54848547D01*
X88609517Y-54871996D01*
X88621068Y-54893607D01*
X88636614Y-54912549D01*
X88655556Y-54928094D01*
X88677166Y-54939645D01*
X88700615Y-54946758D01*
X88725001Y-54949160D01*
X88749387Y-54946758D01*
X88772836Y-54939645D01*
X88794447Y-54928094D01*
X88813389Y-54912548D01*
X88828934Y-54893606D01*
X88840485Y-54871996D01*
X88847598Y-54848547D01*
X88850000Y-54824161D01*
X88850000Y-53800000D01*
X91150000Y-53800000D01*
X91150000Y-56200000D01*
X91150000Y-56200000D01*
G37*
G36*
X71935529Y-50780710D02*
G01*
X71985378Y-50795831D01*
X72031310Y-50820382D01*
X72071574Y-50853426D01*
X72104618Y-50893690D01*
X72129169Y-50939622D01*
X72144290Y-50989471D01*
X72150000Y-51047444D01*
X72150000Y-52052556D01*
X72144290Y-52110529D01*
X72129169Y-52160378D01*
X72104618Y-52206310D01*
X72071574Y-52246574D01*
X72031310Y-52279618D01*
X71985378Y-52304169D01*
X71935529Y-52319290D01*
X71877556Y-52325000D01*
X70622444Y-52325000D01*
X70564471Y-52319290D01*
X70514622Y-52304169D01*
X70468690Y-52279618D01*
X70428426Y-52246574D01*
X70395382Y-52206310D01*
X70370831Y-52160378D01*
X70355710Y-52110529D01*
X70350000Y-52052556D01*
X70350000Y-51047444D01*
X70355710Y-50989471D01*
X70370831Y-50939622D01*
X70395382Y-50893690D01*
X70428426Y-50853426D01*
X70468690Y-50820382D01*
X70514622Y-50795831D01*
X70564471Y-50780710D01*
X70622444Y-50775000D01*
X71877556Y-50775000D01*
X71935529Y-50780710D01*
X71935529Y-50780710D01*
G37*
G36*
X80351162Y-48534586D02*
G01*
X80525041Y-48569173D01*
X80852620Y-48704861D01*
X81147433Y-48901849D01*
X81398151Y-49152567D01*
X81595139Y-49447380D01*
X81730827Y-49774959D01*
X81730827Y-49774961D01*
X81799828Y-50121848D01*
X81800000Y-50122716D01*
X81800000Y-50477284D01*
X81730827Y-50825041D01*
X81595139Y-51152620D01*
X81398151Y-51447433D01*
X81147433Y-51698151D01*
X80852620Y-51895139D01*
X80525041Y-52030827D01*
X80351162Y-52065414D01*
X80177286Y-52100000D01*
X79822714Y-52100000D01*
X79648838Y-52065414D01*
X79474959Y-52030827D01*
X79147380Y-51895139D01*
X78852567Y-51698151D01*
X78601849Y-51447433D01*
X78404861Y-51152620D01*
X78269173Y-50825041D01*
X78200000Y-50477284D01*
X78200000Y-50122716D01*
X78200173Y-50121848D01*
X78269173Y-49774961D01*
X78269173Y-49774959D01*
X78404861Y-49447380D01*
X78601849Y-49152567D01*
X78852567Y-48901849D01*
X79147380Y-48704861D01*
X79474959Y-48569173D01*
X79648837Y-48534587D01*
X79822714Y-48500000D01*
X80177286Y-48500000D01*
X80351162Y-48534586D01*
X80351162Y-48534586D01*
G37*
G36*
X87378530Y-50080877D02*
G01*
X87430010Y-50096493D01*
X87477445Y-50121848D01*
X87519027Y-50155973D01*
X87553152Y-50197555D01*
X87578507Y-50244990D01*
X87594123Y-50296470D01*
X87600000Y-50356140D01*
X87600000Y-51143860D01*
X87594123Y-51203530D01*
X87578507Y-51255010D01*
X87553152Y-51302445D01*
X87519027Y-51344027D01*
X87477445Y-51378152D01*
X87430010Y-51403507D01*
X87378530Y-51419123D01*
X87318860Y-51425000D01*
X86431140Y-51425000D01*
X86371470Y-51419123D01*
X86319990Y-51403507D01*
X86272555Y-51378152D01*
X86230973Y-51344027D01*
X86196848Y-51302445D01*
X86171493Y-51255010D01*
X86155877Y-51203530D01*
X86150000Y-51143860D01*
X86150000Y-50356140D01*
X86155877Y-50296470D01*
X86171493Y-50244990D01*
X86196848Y-50197555D01*
X86230973Y-50155973D01*
X86272555Y-50121848D01*
X86319990Y-50096493D01*
X86371470Y-50080877D01*
X86431140Y-50075000D01*
X87318860Y-50075000D01*
X87378530Y-50080877D01*
X87378530Y-50080877D01*
G37*
G36*
X85628530Y-50080877D02*
G01*
X85680010Y-50096493D01*
X85727445Y-50121848D01*
X85769027Y-50155973D01*
X85803152Y-50197555D01*
X85828507Y-50244990D01*
X85844123Y-50296470D01*
X85850000Y-50356140D01*
X85850000Y-51143860D01*
X85844123Y-51203530D01*
X85828507Y-51255010D01*
X85803152Y-51302445D01*
X85769027Y-51344027D01*
X85727445Y-51378152D01*
X85680010Y-51403507D01*
X85628530Y-51419123D01*
X85568860Y-51425000D01*
X84681140Y-51425000D01*
X84621470Y-51419123D01*
X84569990Y-51403507D01*
X84522555Y-51378152D01*
X84480973Y-51344027D01*
X84446848Y-51302445D01*
X84421493Y-51255010D01*
X84405877Y-51203530D01*
X84400000Y-51143860D01*
X84400000Y-50356140D01*
X84405877Y-50296470D01*
X84421493Y-50244990D01*
X84446848Y-50197555D01*
X84480973Y-50155973D01*
X84522555Y-50121848D01*
X84569990Y-50096493D01*
X84621470Y-50080877D01*
X84681140Y-50075000D01*
X85568860Y-50075000D01*
X85628530Y-50080877D01*
X85628530Y-50080877D01*
G37*
G36*
X71935529Y-48730710D02*
G01*
X71985378Y-48745831D01*
X72031310Y-48770382D01*
X72071574Y-48803426D01*
X72104618Y-48843690D01*
X72129169Y-48889622D01*
X72144290Y-48939471D01*
X72150000Y-48997444D01*
X72150000Y-50002556D01*
X72144290Y-50060529D01*
X72129169Y-50110378D01*
X72104618Y-50156310D01*
X72071574Y-50196574D01*
X72031310Y-50229618D01*
X71985378Y-50254169D01*
X71935529Y-50269290D01*
X71877556Y-50275000D01*
X70622444Y-50275000D01*
X70564471Y-50269290D01*
X70514622Y-50254169D01*
X70468690Y-50229618D01*
X70428426Y-50196574D01*
X70395382Y-50156310D01*
X70370831Y-50110378D01*
X70355710Y-50060529D01*
X70350000Y-50002556D01*
X70350000Y-48997444D01*
X70355710Y-48939471D01*
X70370831Y-48889622D01*
X70395382Y-48843690D01*
X70428426Y-48803426D01*
X70468690Y-48770382D01*
X70514622Y-48745831D01*
X70564471Y-48730710D01*
X70622444Y-48725000D01*
X71877556Y-48725000D01*
X71935529Y-48730710D01*
X71935529Y-48730710D01*
G37*
M02*
