G04 #@! TF.GenerationSoftware,KiCad,Pcbnew,(5.0.1-3-g963ef8bb5)*
G04 #@! TF.CreationDate,2019-05-01T10:43:29-06:00*
G04 #@! TF.ProjectId,NuisanceEngine,4E756973616E6365456E67696E652E6B,rev?*
G04 #@! TF.SameCoordinates,Original*
G04 #@! TF.FileFunction,Soldermask,Top*
G04 #@! TF.FilePolarity,Negative*
%FSLAX46Y46*%
G04 Gerber Fmt 4.6, Leading zero omitted, Abs format (unit mm)*
G04 Created by KiCad (PCBNEW (5.0.1-3-g963ef8bb5)) date Wednesday, 01 May 2019 at 10:43:29*
%MOMM*%
%LPD*%
G01*
G04 APERTURE LIST*
%ADD10C,0.100000*%
G04 APERTURE END LIST*
D10*
G36*
X106350026Y-96846115D02*
X106568412Y-96936573D01*
X106764958Y-97067901D01*
X106932099Y-97235042D01*
X107063427Y-97431588D01*
X107153885Y-97649974D01*
X107200000Y-97881809D01*
X107200000Y-98118191D01*
X107153885Y-98350026D01*
X107063427Y-98568412D01*
X106932099Y-98764958D01*
X106764958Y-98932099D01*
X106568412Y-99063427D01*
X106350026Y-99153885D01*
X106118191Y-99200000D01*
X105881809Y-99200000D01*
X105649974Y-99153885D01*
X105431588Y-99063427D01*
X105235042Y-98932099D01*
X105067901Y-98764958D01*
X104936573Y-98568412D01*
X104846115Y-98350026D01*
X104800000Y-98118191D01*
X104800000Y-97881809D01*
X104846115Y-97649974D01*
X104936573Y-97431588D01*
X105067901Y-97235042D01*
X105235042Y-97067901D01*
X105431588Y-96936573D01*
X105649974Y-96846115D01*
X105881809Y-96800000D01*
X106118191Y-96800000D01*
X106350026Y-96846115D01*
X106350026Y-96846115D01*
G37*
G36*
X101350026Y-96846115D02*
X101568412Y-96936573D01*
X101764958Y-97067901D01*
X101932099Y-97235042D01*
X102063427Y-97431588D01*
X102153885Y-97649974D01*
X102200000Y-97881809D01*
X102200000Y-98118191D01*
X102153885Y-98350026D01*
X102063427Y-98568412D01*
X101932099Y-98764958D01*
X101764958Y-98932099D01*
X101568412Y-99063427D01*
X101350026Y-99153885D01*
X101118191Y-99200000D01*
X100881809Y-99200000D01*
X100649974Y-99153885D01*
X100431588Y-99063427D01*
X100235042Y-98932099D01*
X100067901Y-98764958D01*
X99936573Y-98568412D01*
X99846115Y-98350026D01*
X99800000Y-98118191D01*
X99800000Y-97881809D01*
X99846115Y-97649974D01*
X99936573Y-97431588D01*
X100067901Y-97235042D01*
X100235042Y-97067901D01*
X100431588Y-96936573D01*
X100649974Y-96846115D01*
X100881809Y-96800000D01*
X101118191Y-96800000D01*
X101350026Y-96846115D01*
X101350026Y-96846115D01*
G37*
G36*
X96350026Y-96846115D02*
X96568412Y-96936573D01*
X96764958Y-97067901D01*
X96932099Y-97235042D01*
X97063427Y-97431588D01*
X97153885Y-97649974D01*
X97200000Y-97881809D01*
X97200000Y-98118191D01*
X97153885Y-98350026D01*
X97063427Y-98568412D01*
X96932099Y-98764958D01*
X96764958Y-98932099D01*
X96568412Y-99063427D01*
X96350026Y-99153885D01*
X96118191Y-99200000D01*
X95881809Y-99200000D01*
X95649974Y-99153885D01*
X95431588Y-99063427D01*
X95235042Y-98932099D01*
X95067901Y-98764958D01*
X94936573Y-98568412D01*
X94846115Y-98350026D01*
X94800000Y-98118191D01*
X94800000Y-97881809D01*
X94846115Y-97649974D01*
X94936573Y-97431588D01*
X95067901Y-97235042D01*
X95235042Y-97067901D01*
X95431588Y-96936573D01*
X95649974Y-96846115D01*
X95881809Y-96800000D01*
X96118191Y-96800000D01*
X96350026Y-96846115D01*
X96350026Y-96846115D01*
G37*
G36*
X64350026Y-96846115D02*
X64568412Y-96936573D01*
X64764958Y-97067901D01*
X64932099Y-97235042D01*
X65063427Y-97431588D01*
X65153885Y-97649974D01*
X65200000Y-97881809D01*
X65200000Y-98118191D01*
X65153885Y-98350026D01*
X65063427Y-98568412D01*
X64932099Y-98764958D01*
X64764958Y-98932099D01*
X64568412Y-99063427D01*
X64350026Y-99153885D01*
X64118191Y-99200000D01*
X63881809Y-99200000D01*
X63649974Y-99153885D01*
X63431588Y-99063427D01*
X63235042Y-98932099D01*
X63067901Y-98764958D01*
X62936573Y-98568412D01*
X62846115Y-98350026D01*
X62800000Y-98118191D01*
X62800000Y-97881809D01*
X62846115Y-97649974D01*
X62936573Y-97431588D01*
X63067901Y-97235042D01*
X63235042Y-97067901D01*
X63431588Y-96936573D01*
X63649974Y-96846115D01*
X63881809Y-96800000D01*
X64118191Y-96800000D01*
X64350026Y-96846115D01*
X64350026Y-96846115D01*
G37*
G36*
X59350026Y-96846115D02*
X59568412Y-96936573D01*
X59764958Y-97067901D01*
X59932099Y-97235042D01*
X60063427Y-97431588D01*
X60153885Y-97649974D01*
X60200000Y-97881809D01*
X60200000Y-98118191D01*
X60153885Y-98350026D01*
X60063427Y-98568412D01*
X59932099Y-98764958D01*
X59764958Y-98932099D01*
X59568412Y-99063427D01*
X59350026Y-99153885D01*
X59118191Y-99200000D01*
X58881809Y-99200000D01*
X58649974Y-99153885D01*
X58431588Y-99063427D01*
X58235042Y-98932099D01*
X58067901Y-98764958D01*
X57936573Y-98568412D01*
X57846115Y-98350026D01*
X57800000Y-98118191D01*
X57800000Y-97881809D01*
X57846115Y-97649974D01*
X57936573Y-97431588D01*
X58067901Y-97235042D01*
X58235042Y-97067901D01*
X58431588Y-96936573D01*
X58649974Y-96846115D01*
X58881809Y-96800000D01*
X59118191Y-96800000D01*
X59350026Y-96846115D01*
X59350026Y-96846115D01*
G37*
G36*
X54350026Y-96846115D02*
X54568412Y-96936573D01*
X54764958Y-97067901D01*
X54932099Y-97235042D01*
X55063427Y-97431588D01*
X55153885Y-97649974D01*
X55200000Y-97881809D01*
X55200000Y-98118191D01*
X55153885Y-98350026D01*
X55063427Y-98568412D01*
X54932099Y-98764958D01*
X54764958Y-98932099D01*
X54568412Y-99063427D01*
X54350026Y-99153885D01*
X54118191Y-99200000D01*
X53881809Y-99200000D01*
X53649974Y-99153885D01*
X53431588Y-99063427D01*
X53235042Y-98932099D01*
X53067901Y-98764958D01*
X52936573Y-98568412D01*
X52846115Y-98350026D01*
X52800000Y-98118191D01*
X52800000Y-97881809D01*
X52846115Y-97649974D01*
X52936573Y-97431588D01*
X53067901Y-97235042D01*
X53235042Y-97067901D01*
X53431588Y-96936573D01*
X53649974Y-96846115D01*
X53881809Y-96800000D01*
X54118191Y-96800000D01*
X54350026Y-96846115D01*
X54350026Y-96846115D01*
G37*
G36*
X77050000Y-99050000D02*
X74950000Y-99050000D01*
X74950000Y-96950000D01*
X77050000Y-96950000D01*
X77050000Y-99050000D01*
X77050000Y-99050000D01*
G37*
G36*
X73208707Y-96957596D02*
X73285836Y-96965193D01*
X73417787Y-97005220D01*
X73483763Y-97025233D01*
X73666172Y-97122733D01*
X73826054Y-97253946D01*
X73957267Y-97413828D01*
X74054767Y-97596237D01*
X74054767Y-97596238D01*
X74114807Y-97794164D01*
X74135080Y-98000000D01*
X74114807Y-98205836D01*
X74074780Y-98337787D01*
X74054767Y-98403763D01*
X73957267Y-98586172D01*
X73826054Y-98746054D01*
X73666172Y-98877267D01*
X73483763Y-98974767D01*
X73417787Y-98994780D01*
X73285836Y-99034807D01*
X73208707Y-99042403D01*
X73131580Y-99050000D01*
X73028420Y-99050000D01*
X72951293Y-99042403D01*
X72874164Y-99034807D01*
X72742213Y-98994780D01*
X72676237Y-98974767D01*
X72493828Y-98877267D01*
X72333946Y-98746054D01*
X72202733Y-98586172D01*
X72105233Y-98403763D01*
X72085220Y-98337787D01*
X72045193Y-98205836D01*
X72024920Y-98000000D01*
X72045193Y-97794164D01*
X72105233Y-97596238D01*
X72105233Y-97596237D01*
X72202733Y-97413828D01*
X72333946Y-97253946D01*
X72493828Y-97122733D01*
X72676237Y-97025233D01*
X72742213Y-97005220D01*
X72874164Y-96965193D01*
X72951293Y-96957596D01*
X73028420Y-96950000D01*
X73131580Y-96950000D01*
X73208707Y-96957596D01*
X73208707Y-96957596D01*
G37*
G36*
X70668707Y-96957596D02*
X70745836Y-96965193D01*
X70877787Y-97005220D01*
X70943763Y-97025233D01*
X71126172Y-97122733D01*
X71286054Y-97253946D01*
X71417267Y-97413828D01*
X71514767Y-97596237D01*
X71514767Y-97596238D01*
X71574807Y-97794164D01*
X71595080Y-98000000D01*
X71574807Y-98205836D01*
X71534780Y-98337787D01*
X71514767Y-98403763D01*
X71417267Y-98586172D01*
X71286054Y-98746054D01*
X71126172Y-98877267D01*
X70943763Y-98974767D01*
X70877787Y-98994780D01*
X70745836Y-99034807D01*
X70668707Y-99042403D01*
X70591580Y-99050000D01*
X70488420Y-99050000D01*
X70411293Y-99042403D01*
X70334164Y-99034807D01*
X70202213Y-98994780D01*
X70136237Y-98974767D01*
X69953828Y-98877267D01*
X69793946Y-98746054D01*
X69662733Y-98586172D01*
X69565233Y-98403763D01*
X69545220Y-98337787D01*
X69505193Y-98205836D01*
X69484920Y-98000000D01*
X69505193Y-97794164D01*
X69565233Y-97596238D01*
X69565233Y-97596237D01*
X69662733Y-97413828D01*
X69793946Y-97253946D01*
X69953828Y-97122733D01*
X70136237Y-97025233D01*
X70202213Y-97005220D01*
X70334164Y-96965193D01*
X70411293Y-96957596D01*
X70488420Y-96950000D01*
X70591580Y-96950000D01*
X70668707Y-96957596D01*
X70668707Y-96957596D01*
G37*
G36*
X69050000Y-99050000D02*
X66950000Y-99050000D01*
X66950000Y-96950000D01*
X69050000Y-96950000D01*
X69050000Y-99050000D01*
X69050000Y-99050000D01*
G37*
G36*
X92168707Y-96957596D02*
X92245836Y-96965193D01*
X92377787Y-97005220D01*
X92443763Y-97025233D01*
X92626172Y-97122733D01*
X92786054Y-97253946D01*
X92917267Y-97413828D01*
X93014767Y-97596237D01*
X93014767Y-97596238D01*
X93074807Y-97794164D01*
X93095080Y-98000000D01*
X93074807Y-98205836D01*
X93034780Y-98337787D01*
X93014767Y-98403763D01*
X92917267Y-98586172D01*
X92786054Y-98746054D01*
X92626172Y-98877267D01*
X92443763Y-98974767D01*
X92377787Y-98994780D01*
X92245836Y-99034807D01*
X92168707Y-99042403D01*
X92091580Y-99050000D01*
X91988420Y-99050000D01*
X91911293Y-99042403D01*
X91834164Y-99034807D01*
X91702213Y-98994780D01*
X91636237Y-98974767D01*
X91453828Y-98877267D01*
X91293946Y-98746054D01*
X91162733Y-98586172D01*
X91065233Y-98403763D01*
X91045220Y-98337787D01*
X91005193Y-98205836D01*
X90984920Y-98000000D01*
X91005193Y-97794164D01*
X91065233Y-97596238D01*
X91065233Y-97596237D01*
X91162733Y-97413828D01*
X91293946Y-97253946D01*
X91453828Y-97122733D01*
X91636237Y-97025233D01*
X91702213Y-97005220D01*
X91834164Y-96965193D01*
X91911293Y-96957596D01*
X91988420Y-96950000D01*
X92091580Y-96950000D01*
X92168707Y-96957596D01*
X92168707Y-96957596D01*
G37*
G36*
X90550000Y-99050000D02*
X88450000Y-99050000D01*
X88450000Y-96950000D01*
X90550000Y-96950000D01*
X90550000Y-99050000D01*
X90550000Y-99050000D01*
G37*
G36*
X78668707Y-96957596D02*
X78745836Y-96965193D01*
X78877787Y-97005220D01*
X78943763Y-97025233D01*
X79126172Y-97122733D01*
X79286054Y-97253946D01*
X79417267Y-97413828D01*
X79514767Y-97596237D01*
X79514767Y-97596238D01*
X79574807Y-97794164D01*
X79595080Y-98000000D01*
X79574807Y-98205836D01*
X79534780Y-98337787D01*
X79514767Y-98403763D01*
X79417267Y-98586172D01*
X79286054Y-98746054D01*
X79126172Y-98877267D01*
X78943763Y-98974767D01*
X78877787Y-98994780D01*
X78745836Y-99034807D01*
X78668707Y-99042403D01*
X78591580Y-99050000D01*
X78488420Y-99050000D01*
X78411293Y-99042403D01*
X78334164Y-99034807D01*
X78202213Y-98994780D01*
X78136237Y-98974767D01*
X77953828Y-98877267D01*
X77793946Y-98746054D01*
X77662733Y-98586172D01*
X77565233Y-98403763D01*
X77545220Y-98337787D01*
X77505193Y-98205836D01*
X77484920Y-98000000D01*
X77505193Y-97794164D01*
X77565233Y-97596238D01*
X77565233Y-97596237D01*
X77662733Y-97413828D01*
X77793946Y-97253946D01*
X77953828Y-97122733D01*
X78136237Y-97025233D01*
X78202213Y-97005220D01*
X78334164Y-96965193D01*
X78411293Y-96957596D01*
X78488420Y-96950000D01*
X78591580Y-96950000D01*
X78668707Y-96957596D01*
X78668707Y-96957596D01*
G37*
G36*
X82510000Y-99050000D02*
X80410000Y-99050000D01*
X80410000Y-96950000D01*
X82510000Y-96950000D01*
X82510000Y-99050000D01*
X82510000Y-99050000D01*
G37*
G36*
X84128707Y-96957596D02*
X84205836Y-96965193D01*
X84337787Y-97005220D01*
X84403763Y-97025233D01*
X84586172Y-97122733D01*
X84746054Y-97253946D01*
X84877267Y-97413828D01*
X84974767Y-97596237D01*
X84974767Y-97596238D01*
X85034807Y-97794164D01*
X85055080Y-98000000D01*
X85034807Y-98205836D01*
X84994780Y-98337787D01*
X84974767Y-98403763D01*
X84877267Y-98586172D01*
X84746054Y-98746054D01*
X84586172Y-98877267D01*
X84403763Y-98974767D01*
X84337787Y-98994780D01*
X84205836Y-99034807D01*
X84128707Y-99042403D01*
X84051580Y-99050000D01*
X83948420Y-99050000D01*
X83871293Y-99042403D01*
X83794164Y-99034807D01*
X83662213Y-98994780D01*
X83596237Y-98974767D01*
X83413828Y-98877267D01*
X83253946Y-98746054D01*
X83122733Y-98586172D01*
X83025233Y-98403763D01*
X83005220Y-98337787D01*
X82965193Y-98205836D01*
X82944920Y-98000000D01*
X82965193Y-97794164D01*
X83025233Y-97596238D01*
X83025233Y-97596237D01*
X83122733Y-97413828D01*
X83253946Y-97253946D01*
X83413828Y-97122733D01*
X83596237Y-97025233D01*
X83662213Y-97005220D01*
X83794164Y-96965193D01*
X83871293Y-96957596D01*
X83948420Y-96950000D01*
X84051580Y-96950000D01*
X84128707Y-96957596D01*
X84128707Y-96957596D01*
G37*
G36*
X86668707Y-96957596D02*
X86745836Y-96965193D01*
X86877787Y-97005220D01*
X86943763Y-97025233D01*
X87126172Y-97122733D01*
X87286054Y-97253946D01*
X87417267Y-97413828D01*
X87514767Y-97596237D01*
X87514767Y-97596238D01*
X87574807Y-97794164D01*
X87595080Y-98000000D01*
X87574807Y-98205836D01*
X87534780Y-98337787D01*
X87514767Y-98403763D01*
X87417267Y-98586172D01*
X87286054Y-98746054D01*
X87126172Y-98877267D01*
X86943763Y-98974767D01*
X86877787Y-98994780D01*
X86745836Y-99034807D01*
X86668707Y-99042403D01*
X86591580Y-99050000D01*
X86488420Y-99050000D01*
X86411293Y-99042403D01*
X86334164Y-99034807D01*
X86202213Y-98994780D01*
X86136237Y-98974767D01*
X85953828Y-98877267D01*
X85793946Y-98746054D01*
X85662733Y-98586172D01*
X85565233Y-98403763D01*
X85545220Y-98337787D01*
X85505193Y-98205836D01*
X85484920Y-98000000D01*
X85505193Y-97794164D01*
X85565233Y-97596238D01*
X85565233Y-97596237D01*
X85662733Y-97413828D01*
X85793946Y-97253946D01*
X85953828Y-97122733D01*
X86136237Y-97025233D01*
X86202213Y-97005220D01*
X86334164Y-96965193D01*
X86411293Y-96957596D01*
X86488420Y-96950000D01*
X86591580Y-96950000D01*
X86668707Y-96957596D01*
X86668707Y-96957596D01*
G37*
G36*
X85453530Y-93655877D02*
X85505010Y-93671493D01*
X85552442Y-93696846D01*
X85594027Y-93730973D01*
X85628154Y-93772558D01*
X85653507Y-93819990D01*
X85669123Y-93871470D01*
X85675000Y-93931140D01*
X85675000Y-94818860D01*
X85669123Y-94878530D01*
X85653507Y-94930010D01*
X85628154Y-94977442D01*
X85594027Y-95019027D01*
X85552442Y-95053154D01*
X85505010Y-95078507D01*
X85453530Y-95094123D01*
X85393860Y-95100000D01*
X84606140Y-95100000D01*
X84546470Y-95094123D01*
X84494990Y-95078507D01*
X84447558Y-95053154D01*
X84405973Y-95019027D01*
X84371846Y-94977442D01*
X84346493Y-94930010D01*
X84330877Y-94878530D01*
X84325000Y-94818860D01*
X84325000Y-93931140D01*
X84330877Y-93871470D01*
X84346493Y-93819990D01*
X84371846Y-93772558D01*
X84405973Y-93730973D01*
X84447558Y-93696846D01*
X84494990Y-93671493D01*
X84546470Y-93655877D01*
X84606140Y-93650000D01*
X85393860Y-93650000D01*
X85453530Y-93655877D01*
X85453530Y-93655877D01*
G37*
G36*
X83585530Y-93105710D02*
X83635379Y-93120831D01*
X83681311Y-93145382D01*
X83721574Y-93178426D01*
X83754618Y-93218689D01*
X83779169Y-93264621D01*
X83794290Y-93314470D01*
X83800000Y-93372444D01*
X83800000Y-94627556D01*
X83794290Y-94685530D01*
X83779169Y-94735379D01*
X83754618Y-94781311D01*
X83721574Y-94821574D01*
X83681311Y-94854618D01*
X83635379Y-94879169D01*
X83585530Y-94894290D01*
X83527556Y-94900000D01*
X82522444Y-94900000D01*
X82464470Y-94894290D01*
X82414621Y-94879169D01*
X82368689Y-94854618D01*
X82328426Y-94821574D01*
X82295382Y-94781311D01*
X82270831Y-94735379D01*
X82255710Y-94685530D01*
X82250000Y-94627556D01*
X82250000Y-93372444D01*
X82255710Y-93314470D01*
X82270831Y-93264621D01*
X82295382Y-93218689D01*
X82328426Y-93178426D01*
X82368689Y-93145382D01*
X82414621Y-93120831D01*
X82464470Y-93105710D01*
X82522444Y-93100000D01*
X83527556Y-93100000D01*
X83585530Y-93105710D01*
X83585530Y-93105710D01*
G37*
G36*
X81535530Y-93105710D02*
X81585379Y-93120831D01*
X81631311Y-93145382D01*
X81671574Y-93178426D01*
X81704618Y-93218689D01*
X81729169Y-93264621D01*
X81744290Y-93314470D01*
X81750000Y-93372444D01*
X81750000Y-94627556D01*
X81744290Y-94685530D01*
X81729169Y-94735379D01*
X81704618Y-94781311D01*
X81671574Y-94821574D01*
X81631311Y-94854618D01*
X81585379Y-94879169D01*
X81535530Y-94894290D01*
X81477556Y-94900000D01*
X80472444Y-94900000D01*
X80414470Y-94894290D01*
X80364621Y-94879169D01*
X80318689Y-94854618D01*
X80278426Y-94821574D01*
X80245382Y-94781311D01*
X80220831Y-94735379D01*
X80205710Y-94685530D01*
X80200000Y-94627556D01*
X80200000Y-93372444D01*
X80205710Y-93314470D01*
X80220831Y-93264621D01*
X80245382Y-93218689D01*
X80278426Y-93178426D01*
X80318689Y-93145382D01*
X80364621Y-93120831D01*
X80414470Y-93105710D01*
X80472444Y-93100000D01*
X81477556Y-93100000D01*
X81535530Y-93105710D01*
X81535530Y-93105710D01*
G37*
G36*
X79085530Y-93105710D02*
X79135379Y-93120831D01*
X79181311Y-93145382D01*
X79221574Y-93178426D01*
X79254618Y-93218689D01*
X79279169Y-93264621D01*
X79294290Y-93314470D01*
X79300000Y-93372444D01*
X79300000Y-94627556D01*
X79294290Y-94685530D01*
X79279169Y-94735379D01*
X79254618Y-94781311D01*
X79221574Y-94821574D01*
X79181311Y-94854618D01*
X79135379Y-94879169D01*
X79085530Y-94894290D01*
X79027556Y-94900000D01*
X78022444Y-94900000D01*
X77964470Y-94894290D01*
X77914621Y-94879169D01*
X77868689Y-94854618D01*
X77828426Y-94821574D01*
X77795382Y-94781311D01*
X77770831Y-94735379D01*
X77755710Y-94685530D01*
X77750000Y-94627556D01*
X77750000Y-93372444D01*
X77755710Y-93314470D01*
X77770831Y-93264621D01*
X77795382Y-93218689D01*
X77828426Y-93178426D01*
X77868689Y-93145382D01*
X77914621Y-93120831D01*
X77964470Y-93105710D01*
X78022444Y-93100000D01*
X79027556Y-93100000D01*
X79085530Y-93105710D01*
X79085530Y-93105710D01*
G37*
G36*
X77035530Y-93105710D02*
X77085379Y-93120831D01*
X77131311Y-93145382D01*
X77171574Y-93178426D01*
X77204618Y-93218689D01*
X77229169Y-93264621D01*
X77244290Y-93314470D01*
X77250000Y-93372444D01*
X77250000Y-94627556D01*
X77244290Y-94685530D01*
X77229169Y-94735379D01*
X77204618Y-94781311D01*
X77171574Y-94821574D01*
X77131311Y-94854618D01*
X77085379Y-94879169D01*
X77035530Y-94894290D01*
X76977556Y-94900000D01*
X75972444Y-94900000D01*
X75914470Y-94894290D01*
X75864621Y-94879169D01*
X75818689Y-94854618D01*
X75778426Y-94821574D01*
X75745382Y-94781311D01*
X75720831Y-94735379D01*
X75705710Y-94685530D01*
X75700000Y-94627556D01*
X75700000Y-93372444D01*
X75705710Y-93314470D01*
X75720831Y-93264621D01*
X75745382Y-93218689D01*
X75778426Y-93178426D01*
X75818689Y-93145382D01*
X75864621Y-93120831D01*
X75914470Y-93105710D01*
X75972444Y-93100000D01*
X76977556Y-93100000D01*
X77035530Y-93105710D01*
X77035530Y-93105710D01*
G37*
G36*
X68247478Y-90568860D02*
X68452118Y-90609565D01*
X68602020Y-90671657D01*
X68734201Y-90726408D01*
X68988071Y-90896038D01*
X69203962Y-91111929D01*
X69373592Y-91365799D01*
X69373592Y-91365800D01*
X69490435Y-91647882D01*
X69521320Y-91803154D01*
X69550000Y-91947337D01*
X69550000Y-92252663D01*
X69540585Y-92299995D01*
X69490435Y-92552118D01*
X69412540Y-92740173D01*
X69373592Y-92834201D01*
X69203962Y-93088071D01*
X68988071Y-93303962D01*
X68734201Y-93473592D01*
X68667672Y-93501149D01*
X68452118Y-93590435D01*
X68252481Y-93630145D01*
X68152663Y-93650000D01*
X67847337Y-93650000D01*
X67747519Y-93630145D01*
X67547882Y-93590435D01*
X67332328Y-93501149D01*
X67265799Y-93473592D01*
X67011929Y-93303962D01*
X66796038Y-93088071D01*
X66626408Y-92834201D01*
X66587460Y-92740173D01*
X66509565Y-92552118D01*
X66459415Y-92299995D01*
X66450000Y-92252663D01*
X66450000Y-91947337D01*
X66478680Y-91803154D01*
X66509565Y-91647882D01*
X66626408Y-91365800D01*
X66626408Y-91365799D01*
X66796038Y-91111929D01*
X67011929Y-90896038D01*
X67265799Y-90726408D01*
X67397980Y-90671657D01*
X67547882Y-90609565D01*
X67752522Y-90568860D01*
X67847337Y-90550000D01*
X68152663Y-90550000D01*
X68247478Y-90568860D01*
X68247478Y-90568860D01*
G37*
G36*
X96247478Y-90568860D02*
X96452118Y-90609565D01*
X96602020Y-90671657D01*
X96734201Y-90726408D01*
X96988071Y-90896038D01*
X97203962Y-91111929D01*
X97373592Y-91365799D01*
X97373592Y-91365800D01*
X97490435Y-91647882D01*
X97521320Y-91803154D01*
X97550000Y-91947337D01*
X97550000Y-92252663D01*
X97540585Y-92299995D01*
X97490435Y-92552118D01*
X97412540Y-92740173D01*
X97373592Y-92834201D01*
X97203962Y-93088071D01*
X96988071Y-93303962D01*
X96734201Y-93473592D01*
X96667672Y-93501149D01*
X96452118Y-93590435D01*
X96252481Y-93630145D01*
X96152663Y-93650000D01*
X95847337Y-93650000D01*
X95747519Y-93630145D01*
X95547882Y-93590435D01*
X95332328Y-93501149D01*
X95265799Y-93473592D01*
X95011929Y-93303962D01*
X94796038Y-93088071D01*
X94626408Y-92834201D01*
X94587460Y-92740173D01*
X94509565Y-92552118D01*
X94459415Y-92299995D01*
X94450000Y-92252663D01*
X94450000Y-91947337D01*
X94478680Y-91803154D01*
X94509565Y-91647882D01*
X94626408Y-91365800D01*
X94626408Y-91365799D01*
X94796038Y-91111929D01*
X95011929Y-90896038D01*
X95265799Y-90726408D01*
X95397980Y-90671657D01*
X95547882Y-90609565D01*
X95752522Y-90568860D01*
X95847337Y-90550000D01*
X96152663Y-90550000D01*
X96247478Y-90568860D01*
X96247478Y-90568860D01*
G37*
G36*
X72953530Y-92155877D02*
X73005010Y-92171493D01*
X73052442Y-92196846D01*
X73094027Y-92230973D01*
X73128154Y-92272558D01*
X73153507Y-92319990D01*
X73169123Y-92371470D01*
X73175000Y-92431140D01*
X73175000Y-93318860D01*
X73169123Y-93378530D01*
X73153507Y-93430010D01*
X73128154Y-93477442D01*
X73094027Y-93519027D01*
X73052442Y-93553154D01*
X73005010Y-93578507D01*
X72953530Y-93594123D01*
X72893860Y-93600000D01*
X72106140Y-93600000D01*
X72046470Y-93594123D01*
X71994990Y-93578507D01*
X71947558Y-93553154D01*
X71905973Y-93519027D01*
X71871846Y-93477442D01*
X71846493Y-93430010D01*
X71830877Y-93378530D01*
X71825000Y-93318860D01*
X71825000Y-92431140D01*
X71830877Y-92371470D01*
X71846493Y-92319990D01*
X71871846Y-92272558D01*
X71905973Y-92230973D01*
X71947558Y-92196846D01*
X71994990Y-92171493D01*
X72046470Y-92155877D01*
X72106140Y-92150000D01*
X72893860Y-92150000D01*
X72953530Y-92155877D01*
X72953530Y-92155877D01*
G37*
G36*
X85453530Y-91905877D02*
X85505010Y-91921493D01*
X85552442Y-91946846D01*
X85594027Y-91980973D01*
X85628154Y-92022558D01*
X85653507Y-92069990D01*
X85669123Y-92121470D01*
X85675000Y-92181140D01*
X85675000Y-93068860D01*
X85669123Y-93128530D01*
X85653507Y-93180010D01*
X85628154Y-93227442D01*
X85594027Y-93269027D01*
X85552442Y-93303154D01*
X85505010Y-93328507D01*
X85453530Y-93344123D01*
X85393860Y-93350000D01*
X84606140Y-93350000D01*
X84546470Y-93344123D01*
X84494990Y-93328507D01*
X84447558Y-93303154D01*
X84405973Y-93269027D01*
X84371846Y-93227442D01*
X84346493Y-93180010D01*
X84330877Y-93128530D01*
X84325000Y-93068860D01*
X84325000Y-92181140D01*
X84330877Y-92121470D01*
X84346493Y-92069990D01*
X84371846Y-92022558D01*
X84405973Y-91980973D01*
X84447558Y-91946846D01*
X84494990Y-91921493D01*
X84546470Y-91905877D01*
X84606140Y-91900000D01*
X85393860Y-91900000D01*
X85453530Y-91905877D01*
X85453530Y-91905877D01*
G37*
G36*
X88888236Y-90720149D02*
X88905843Y-90727442D01*
X89130465Y-90820483D01*
X89174640Y-90850000D01*
X89348466Y-90966147D01*
X89533853Y-91151534D01*
X89533855Y-91151537D01*
X89679517Y-91369535D01*
X89743914Y-91525005D01*
X89779851Y-91611764D01*
X89831000Y-91868907D01*
X89831000Y-92131093D01*
X89779851Y-92388236D01*
X89762548Y-92430010D01*
X89679517Y-92630465D01*
X89679516Y-92630466D01*
X89533853Y-92848466D01*
X89348466Y-93033853D01*
X89348463Y-93033855D01*
X89130465Y-93179517D01*
X88960899Y-93249753D01*
X88888236Y-93279851D01*
X88631093Y-93331000D01*
X88368907Y-93331000D01*
X88111764Y-93279851D01*
X88039101Y-93249753D01*
X87869535Y-93179517D01*
X87651537Y-93033855D01*
X87651534Y-93033853D01*
X87466147Y-92848466D01*
X87320484Y-92630466D01*
X87320483Y-92630465D01*
X87237452Y-92430010D01*
X87220149Y-92388236D01*
X87169000Y-92131093D01*
X87169000Y-91868907D01*
X87220149Y-91611764D01*
X87256086Y-91525005D01*
X87320483Y-91369535D01*
X87466145Y-91151537D01*
X87466147Y-91151534D01*
X87651534Y-90966147D01*
X87825360Y-90850000D01*
X87869535Y-90820483D01*
X88094157Y-90727442D01*
X88111764Y-90720149D01*
X88368907Y-90669000D01*
X88631093Y-90669000D01*
X88888236Y-90720149D01*
X88888236Y-90720149D01*
G37*
G36*
X74953530Y-91155877D02*
X75005010Y-91171493D01*
X75052442Y-91196846D01*
X75094027Y-91230973D01*
X75128154Y-91272558D01*
X75153507Y-91319990D01*
X75169123Y-91371470D01*
X75175000Y-91431140D01*
X75175000Y-92318860D01*
X75169123Y-92378530D01*
X75153507Y-92430010D01*
X75128154Y-92477442D01*
X75094027Y-92519027D01*
X75052442Y-92553154D01*
X75005010Y-92578507D01*
X74953530Y-92594123D01*
X74893860Y-92600000D01*
X74106140Y-92600000D01*
X74046470Y-92594123D01*
X73994990Y-92578507D01*
X73947558Y-92553154D01*
X73905973Y-92519027D01*
X73871846Y-92477442D01*
X73846493Y-92430010D01*
X73830877Y-92378530D01*
X73825000Y-92318860D01*
X73825000Y-91431140D01*
X73830877Y-91371470D01*
X73846493Y-91319990D01*
X73871846Y-91272558D01*
X73905973Y-91230973D01*
X73947558Y-91196846D01*
X73994990Y-91171493D01*
X74046470Y-91155877D01*
X74106140Y-91150000D01*
X74893860Y-91150000D01*
X74953530Y-91155877D01*
X74953530Y-91155877D01*
G37*
G36*
X72953530Y-90405877D02*
X73005010Y-90421493D01*
X73052442Y-90446846D01*
X73094027Y-90480973D01*
X73128154Y-90522558D01*
X73153507Y-90569990D01*
X73169123Y-90621470D01*
X73175000Y-90681140D01*
X73175000Y-91568860D01*
X73169123Y-91628530D01*
X73153507Y-91680010D01*
X73128154Y-91727442D01*
X73094027Y-91769027D01*
X73052442Y-91803154D01*
X73005010Y-91828507D01*
X72953530Y-91844123D01*
X72893860Y-91850000D01*
X72106140Y-91850000D01*
X72046470Y-91844123D01*
X71994990Y-91828507D01*
X71947558Y-91803154D01*
X71905973Y-91769027D01*
X71871846Y-91727442D01*
X71846493Y-91680010D01*
X71830877Y-91628530D01*
X71825000Y-91568860D01*
X71825000Y-90681140D01*
X71830877Y-90621470D01*
X71846493Y-90569990D01*
X71871846Y-90522558D01*
X71905973Y-90480973D01*
X71947558Y-90446846D01*
X71994990Y-90421493D01*
X72046470Y-90405877D01*
X72106140Y-90400000D01*
X72893860Y-90400000D01*
X72953530Y-90405877D01*
X72953530Y-90405877D01*
G37*
G36*
X81628530Y-90330877D02*
X81680010Y-90346493D01*
X81727442Y-90371846D01*
X81769027Y-90405973D01*
X81803154Y-90447558D01*
X81828507Y-90494990D01*
X81844123Y-90546470D01*
X81850000Y-90606140D01*
X81850000Y-91393860D01*
X81844123Y-91453530D01*
X81828507Y-91505010D01*
X81803154Y-91552442D01*
X81769027Y-91594027D01*
X81727442Y-91628154D01*
X81680010Y-91653507D01*
X81628530Y-91669123D01*
X81568860Y-91675000D01*
X80681140Y-91675000D01*
X80621470Y-91669123D01*
X80569990Y-91653507D01*
X80522558Y-91628154D01*
X80480973Y-91594027D01*
X80446846Y-91552442D01*
X80421493Y-91505010D01*
X80405877Y-91453530D01*
X80400000Y-91393860D01*
X80400000Y-90606140D01*
X80405877Y-90546470D01*
X80421493Y-90494990D01*
X80446846Y-90447558D01*
X80480973Y-90405973D01*
X80522558Y-90371846D01*
X80569990Y-90346493D01*
X80621470Y-90330877D01*
X80681140Y-90325000D01*
X81568860Y-90325000D01*
X81628530Y-90330877D01*
X81628530Y-90330877D01*
G37*
G36*
X83378530Y-90330877D02*
X83430010Y-90346493D01*
X83477442Y-90371846D01*
X83519027Y-90405973D01*
X83553154Y-90447558D01*
X83578507Y-90494990D01*
X83594123Y-90546470D01*
X83600000Y-90606140D01*
X83600000Y-91393860D01*
X83594123Y-91453530D01*
X83578507Y-91505010D01*
X83553154Y-91552442D01*
X83519027Y-91594027D01*
X83477442Y-91628154D01*
X83430010Y-91653507D01*
X83378530Y-91669123D01*
X83318860Y-91675000D01*
X82431140Y-91675000D01*
X82371470Y-91669123D01*
X82319990Y-91653507D01*
X82272558Y-91628154D01*
X82230973Y-91594027D01*
X82196846Y-91552442D01*
X82171493Y-91505010D01*
X82155877Y-91453530D01*
X82150000Y-91393860D01*
X82150000Y-90606140D01*
X82155877Y-90546470D01*
X82171493Y-90494990D01*
X82196846Y-90447558D01*
X82230973Y-90405973D01*
X82272558Y-90371846D01*
X82319990Y-90346493D01*
X82371470Y-90330877D01*
X82431140Y-90325000D01*
X83318860Y-90325000D01*
X83378530Y-90330877D01*
X83378530Y-90330877D01*
G37*
G36*
X78878530Y-90330877D02*
X78930010Y-90346493D01*
X78977442Y-90371846D01*
X79019027Y-90405973D01*
X79053154Y-90447558D01*
X79078507Y-90494990D01*
X79094123Y-90546470D01*
X79100000Y-90606140D01*
X79100000Y-91393860D01*
X79094123Y-91453530D01*
X79078507Y-91505010D01*
X79053154Y-91552442D01*
X79019027Y-91594027D01*
X78977442Y-91628154D01*
X78930010Y-91653507D01*
X78878530Y-91669123D01*
X78818860Y-91675000D01*
X77931140Y-91675000D01*
X77871470Y-91669123D01*
X77819990Y-91653507D01*
X77772558Y-91628154D01*
X77730973Y-91594027D01*
X77696846Y-91552442D01*
X77671493Y-91505010D01*
X77655877Y-91453530D01*
X77650000Y-91393860D01*
X77650000Y-90606140D01*
X77655877Y-90546470D01*
X77671493Y-90494990D01*
X77696846Y-90447558D01*
X77730973Y-90405973D01*
X77772558Y-90371846D01*
X77819990Y-90346493D01*
X77871470Y-90330877D01*
X77931140Y-90325000D01*
X78818860Y-90325000D01*
X78878530Y-90330877D01*
X78878530Y-90330877D01*
G37*
G36*
X77128530Y-90330877D02*
X77180010Y-90346493D01*
X77227442Y-90371846D01*
X77269027Y-90405973D01*
X77303154Y-90447558D01*
X77328507Y-90494990D01*
X77344123Y-90546470D01*
X77350000Y-90606140D01*
X77350000Y-91393860D01*
X77344123Y-91453530D01*
X77328507Y-91505010D01*
X77303154Y-91552442D01*
X77269027Y-91594027D01*
X77227442Y-91628154D01*
X77180010Y-91653507D01*
X77128530Y-91669123D01*
X77068860Y-91675000D01*
X76181140Y-91675000D01*
X76121470Y-91669123D01*
X76069990Y-91653507D01*
X76022558Y-91628154D01*
X75980973Y-91594027D01*
X75946846Y-91552442D01*
X75921493Y-91505010D01*
X75905877Y-91453530D01*
X75900000Y-91393860D01*
X75900000Y-90606140D01*
X75905877Y-90546470D01*
X75921493Y-90494990D01*
X75946846Y-90447558D01*
X75980973Y-90405973D01*
X76022558Y-90371846D01*
X76069990Y-90346493D01*
X76121470Y-90330877D01*
X76181140Y-90325000D01*
X77068860Y-90325000D01*
X77128530Y-90330877D01*
X77128530Y-90330877D01*
G37*
G36*
X74953530Y-89405877D02*
X75005010Y-89421493D01*
X75052442Y-89446846D01*
X75094027Y-89480973D01*
X75128154Y-89522558D01*
X75153507Y-89569990D01*
X75169123Y-89621470D01*
X75175000Y-89681140D01*
X75175000Y-90568860D01*
X75169123Y-90628530D01*
X75153507Y-90680010D01*
X75128154Y-90727442D01*
X75094027Y-90769027D01*
X75052442Y-90803154D01*
X75005010Y-90828507D01*
X74953530Y-90844123D01*
X74893860Y-90850000D01*
X74106140Y-90850000D01*
X74046470Y-90844123D01*
X73994990Y-90828507D01*
X73947558Y-90803154D01*
X73905973Y-90769027D01*
X73871846Y-90727442D01*
X73846493Y-90680010D01*
X73830877Y-90628530D01*
X73825000Y-90568860D01*
X73825000Y-89681140D01*
X73830877Y-89621470D01*
X73846493Y-89569990D01*
X73871846Y-89522558D01*
X73905973Y-89480973D01*
X73947558Y-89446846D01*
X73994990Y-89421493D01*
X74046470Y-89405877D01*
X74106140Y-89400000D01*
X74893860Y-89400000D01*
X74953530Y-89405877D01*
X74953530Y-89405877D01*
G37*
G36*
X107309122Y-85596115D02*
X107425041Y-85619173D01*
X107551748Y-85671657D01*
X107743659Y-85751149D01*
X107752620Y-85754861D01*
X107809880Y-85793121D01*
X108047436Y-85951851D01*
X108298149Y-86202564D01*
X108298151Y-86202567D01*
X108495139Y-86497380D01*
X108630558Y-86824309D01*
X108630827Y-86824960D01*
X108700000Y-87172714D01*
X108700000Y-87527286D01*
X108690646Y-87574309D01*
X108630827Y-87875041D01*
X108495139Y-88202620D01*
X108368829Y-88391656D01*
X108298149Y-88497436D01*
X108047436Y-88748149D01*
X108047433Y-88748151D01*
X107752620Y-88945139D01*
X107425041Y-89080827D01*
X107309122Y-89103885D01*
X107077286Y-89150000D01*
X106722714Y-89150000D01*
X106490878Y-89103885D01*
X106374959Y-89080827D01*
X106047380Y-88945139D01*
X105752567Y-88748151D01*
X105752564Y-88748149D01*
X105501851Y-88497436D01*
X105431171Y-88391656D01*
X105304861Y-88202620D01*
X105169173Y-87875041D01*
X105109354Y-87574309D01*
X105100000Y-87527286D01*
X105100000Y-87172714D01*
X105169173Y-86824960D01*
X105169443Y-86824309D01*
X105304861Y-86497380D01*
X105501849Y-86202567D01*
X105501851Y-86202564D01*
X105752564Y-85951851D01*
X105990120Y-85793121D01*
X106047380Y-85754861D01*
X106056342Y-85751149D01*
X106248252Y-85671657D01*
X106374959Y-85619173D01*
X106490878Y-85596115D01*
X106722714Y-85550000D01*
X107077286Y-85550000D01*
X107309122Y-85596115D01*
X107309122Y-85596115D01*
G37*
G36*
X70953530Y-87155877D02*
X71005010Y-87171493D01*
X71052442Y-87196846D01*
X71094027Y-87230973D01*
X71128154Y-87272558D01*
X71153507Y-87319990D01*
X71169123Y-87371470D01*
X71175000Y-87431140D01*
X71175000Y-88318860D01*
X71169123Y-88378530D01*
X71153507Y-88430010D01*
X71128154Y-88477442D01*
X71094027Y-88519027D01*
X71052442Y-88553154D01*
X71005010Y-88578507D01*
X70953530Y-88594123D01*
X70893860Y-88600000D01*
X70106140Y-88600000D01*
X70046470Y-88594123D01*
X69994990Y-88578507D01*
X69947558Y-88553154D01*
X69905973Y-88519027D01*
X69871846Y-88477442D01*
X69846493Y-88430010D01*
X69830877Y-88378530D01*
X69825000Y-88318860D01*
X69825000Y-87431140D01*
X69830877Y-87371470D01*
X69846493Y-87319990D01*
X69871846Y-87272558D01*
X69905973Y-87230973D01*
X69947558Y-87196846D01*
X69994990Y-87171493D01*
X70046470Y-87155877D01*
X70106140Y-87150000D01*
X70893860Y-87150000D01*
X70953530Y-87155877D01*
X70953530Y-87155877D01*
G37*
G36*
X80409122Y-84946115D02*
X80525041Y-84969173D01*
X80852620Y-85104861D01*
X81143511Y-85299228D01*
X81147436Y-85301851D01*
X81398149Y-85552564D01*
X81398151Y-85552567D01*
X81595139Y-85847380D01*
X81730827Y-86174959D01*
X81737176Y-86206879D01*
X81794961Y-86497380D01*
X81800000Y-86522716D01*
X81800000Y-86877284D01*
X81730827Y-87225041D01*
X81595139Y-87552620D01*
X81400772Y-87843511D01*
X81398149Y-87847436D01*
X81147436Y-88098149D01*
X81147433Y-88098151D01*
X80852620Y-88295139D01*
X80525041Y-88430827D01*
X80428626Y-88450005D01*
X80177286Y-88500000D01*
X79822714Y-88500000D01*
X79571374Y-88450005D01*
X79474959Y-88430827D01*
X79147380Y-88295139D01*
X78852567Y-88098151D01*
X78852564Y-88098149D01*
X78601851Y-87847436D01*
X78599228Y-87843511D01*
X78404861Y-87552620D01*
X78269173Y-87225041D01*
X78200000Y-86877284D01*
X78200000Y-86522716D01*
X78205040Y-86497380D01*
X78262824Y-86206879D01*
X78269173Y-86174959D01*
X78404861Y-85847380D01*
X78601849Y-85552567D01*
X78601851Y-85552564D01*
X78852564Y-85301851D01*
X78856489Y-85299228D01*
X79147380Y-85104861D01*
X79474959Y-84969173D01*
X79590878Y-84946115D01*
X79822714Y-84900000D01*
X80177286Y-84900000D01*
X80409122Y-84946115D01*
X80409122Y-84946115D01*
G37*
G36*
X68953530Y-86155877D02*
X69005010Y-86171493D01*
X69052442Y-86196846D01*
X69094027Y-86230973D01*
X69128154Y-86272558D01*
X69153507Y-86319990D01*
X69169123Y-86371470D01*
X69175000Y-86431140D01*
X69175000Y-87318860D01*
X69169123Y-87378530D01*
X69153507Y-87430010D01*
X69128154Y-87477442D01*
X69094027Y-87519027D01*
X69052442Y-87553154D01*
X69005010Y-87578507D01*
X68953530Y-87594123D01*
X68893860Y-87600000D01*
X68106140Y-87600000D01*
X68046470Y-87594123D01*
X67994990Y-87578507D01*
X67947558Y-87553154D01*
X67905973Y-87519027D01*
X67871846Y-87477442D01*
X67846493Y-87430010D01*
X67830877Y-87378530D01*
X67825000Y-87318860D01*
X67825000Y-86431140D01*
X67830877Y-86371470D01*
X67846493Y-86319990D01*
X67871846Y-86272558D01*
X67905973Y-86230973D01*
X67947558Y-86196846D01*
X67994990Y-86171493D01*
X68046470Y-86155877D01*
X68106140Y-86150000D01*
X68893860Y-86150000D01*
X68953530Y-86155877D01*
X68953530Y-86155877D01*
G37*
G36*
X72953530Y-86155877D02*
X73005010Y-86171493D01*
X73052442Y-86196846D01*
X73094027Y-86230973D01*
X73128154Y-86272558D01*
X73153507Y-86319990D01*
X73169123Y-86371470D01*
X73175000Y-86431140D01*
X73175000Y-87318860D01*
X73169123Y-87378530D01*
X73153507Y-87430010D01*
X73128154Y-87477442D01*
X73094027Y-87519027D01*
X73052442Y-87553154D01*
X73005010Y-87578507D01*
X72953530Y-87594123D01*
X72893860Y-87600000D01*
X72106140Y-87600000D01*
X72046470Y-87594123D01*
X71994990Y-87578507D01*
X71947558Y-87553154D01*
X71905973Y-87519027D01*
X71871846Y-87477442D01*
X71846493Y-87430010D01*
X71830877Y-87378530D01*
X71825000Y-87318860D01*
X71825000Y-86431140D01*
X71830877Y-86371470D01*
X71846493Y-86319990D01*
X71871846Y-86272558D01*
X71905973Y-86230973D01*
X71947558Y-86196846D01*
X71994990Y-86171493D01*
X72046470Y-86155877D01*
X72106140Y-86150000D01*
X72893860Y-86150000D01*
X72953530Y-86155877D01*
X72953530Y-86155877D01*
G37*
G36*
X74953530Y-86155877D02*
X75005010Y-86171493D01*
X75052442Y-86196846D01*
X75094027Y-86230973D01*
X75128154Y-86272558D01*
X75153507Y-86319990D01*
X75169123Y-86371470D01*
X75175000Y-86431140D01*
X75175000Y-87318860D01*
X75169123Y-87378530D01*
X75153507Y-87430010D01*
X75128154Y-87477442D01*
X75094027Y-87519027D01*
X75052442Y-87553154D01*
X75005010Y-87578507D01*
X74953530Y-87594123D01*
X74893860Y-87600000D01*
X74106140Y-87600000D01*
X74046470Y-87594123D01*
X73994990Y-87578507D01*
X73947558Y-87553154D01*
X73905973Y-87519027D01*
X73871846Y-87477442D01*
X73846493Y-87430010D01*
X73830877Y-87378530D01*
X73825000Y-87318860D01*
X73825000Y-86431140D01*
X73830877Y-86371470D01*
X73846493Y-86319990D01*
X73871846Y-86272558D01*
X73905973Y-86230973D01*
X73947558Y-86196846D01*
X73994990Y-86171493D01*
X74046470Y-86155877D01*
X74106140Y-86150000D01*
X74893860Y-86150000D01*
X74953530Y-86155877D01*
X74953530Y-86155877D01*
G37*
G36*
X70953530Y-85405877D02*
X71005010Y-85421493D01*
X71052442Y-85446846D01*
X71094027Y-85480973D01*
X71128154Y-85522558D01*
X71153507Y-85569990D01*
X71169123Y-85621470D01*
X71175000Y-85681140D01*
X71175000Y-86568860D01*
X71169123Y-86628530D01*
X71153507Y-86680010D01*
X71128154Y-86727442D01*
X71094027Y-86769027D01*
X71052442Y-86803154D01*
X71005010Y-86828507D01*
X70953530Y-86844123D01*
X70893860Y-86850000D01*
X70106140Y-86850000D01*
X70046470Y-86844123D01*
X69994990Y-86828507D01*
X69947558Y-86803154D01*
X69905973Y-86769027D01*
X69871846Y-86727442D01*
X69846493Y-86680010D01*
X69830877Y-86628530D01*
X69825000Y-86568860D01*
X69825000Y-85681140D01*
X69830877Y-85621470D01*
X69846493Y-85569990D01*
X69871846Y-85522558D01*
X69905973Y-85480973D01*
X69947558Y-85446846D01*
X69994990Y-85421493D01*
X70046470Y-85405877D01*
X70106140Y-85400000D01*
X70893860Y-85400000D01*
X70953530Y-85405877D01*
X70953530Y-85405877D01*
G37*
G36*
X68953530Y-84405877D02*
X69005010Y-84421493D01*
X69052442Y-84446846D01*
X69094027Y-84480973D01*
X69128154Y-84522558D01*
X69153507Y-84569990D01*
X69169123Y-84621470D01*
X69175000Y-84681140D01*
X69175000Y-85568860D01*
X69169123Y-85628530D01*
X69153507Y-85680010D01*
X69128154Y-85727442D01*
X69094027Y-85769027D01*
X69052442Y-85803154D01*
X69005010Y-85828507D01*
X68953530Y-85844123D01*
X68893860Y-85850000D01*
X68106140Y-85850000D01*
X68046470Y-85844123D01*
X67994990Y-85828507D01*
X67947558Y-85803154D01*
X67905973Y-85769027D01*
X67871846Y-85727442D01*
X67846493Y-85680010D01*
X67830877Y-85628530D01*
X67825000Y-85568860D01*
X67825000Y-84681140D01*
X67830877Y-84621470D01*
X67846493Y-84569990D01*
X67871846Y-84522558D01*
X67905973Y-84480973D01*
X67947558Y-84446846D01*
X67994990Y-84421493D01*
X68046470Y-84405877D01*
X68106140Y-84400000D01*
X68893860Y-84400000D01*
X68953530Y-84405877D01*
X68953530Y-84405877D01*
G37*
G36*
X74953530Y-84405877D02*
X75005010Y-84421493D01*
X75052442Y-84446846D01*
X75094027Y-84480973D01*
X75128154Y-84522558D01*
X75153507Y-84569990D01*
X75169123Y-84621470D01*
X75175000Y-84681140D01*
X75175000Y-85568860D01*
X75169123Y-85628530D01*
X75153507Y-85680010D01*
X75128154Y-85727442D01*
X75094027Y-85769027D01*
X75052442Y-85803154D01*
X75005010Y-85828507D01*
X74953530Y-85844123D01*
X74893860Y-85850000D01*
X74106140Y-85850000D01*
X74046470Y-85844123D01*
X73994990Y-85828507D01*
X73947558Y-85803154D01*
X73905973Y-85769027D01*
X73871846Y-85727442D01*
X73846493Y-85680010D01*
X73830877Y-85628530D01*
X73825000Y-85568860D01*
X73825000Y-84681140D01*
X73830877Y-84621470D01*
X73846493Y-84569990D01*
X73871846Y-84522558D01*
X73905973Y-84480973D01*
X73947558Y-84446846D01*
X73994990Y-84421493D01*
X74046470Y-84405877D01*
X74106140Y-84400000D01*
X74893860Y-84400000D01*
X74953530Y-84405877D01*
X74953530Y-84405877D01*
G37*
G36*
X72953530Y-84405877D02*
X73005010Y-84421493D01*
X73052442Y-84446846D01*
X73094027Y-84480973D01*
X73128154Y-84522558D01*
X73153507Y-84569990D01*
X73169123Y-84621470D01*
X73175000Y-84681140D01*
X73175000Y-85568860D01*
X73169123Y-85628530D01*
X73153507Y-85680010D01*
X73128154Y-85727442D01*
X73094027Y-85769027D01*
X73052442Y-85803154D01*
X73005010Y-85828507D01*
X72953530Y-85844123D01*
X72893860Y-85850000D01*
X72106140Y-85850000D01*
X72046470Y-85844123D01*
X71994990Y-85828507D01*
X71947558Y-85803154D01*
X71905973Y-85769027D01*
X71871846Y-85727442D01*
X71846493Y-85680010D01*
X71830877Y-85628530D01*
X71825000Y-85568860D01*
X71825000Y-84681140D01*
X71830877Y-84621470D01*
X71846493Y-84569990D01*
X71871846Y-84522558D01*
X71905973Y-84480973D01*
X71947558Y-84446846D01*
X71994990Y-84421493D01*
X72046470Y-84405877D01*
X72106140Y-84400000D01*
X72893860Y-84400000D01*
X72953530Y-84405877D01*
X72953530Y-84405877D01*
G37*
G36*
X70953530Y-83155877D02*
X71005010Y-83171493D01*
X71052442Y-83196846D01*
X71094027Y-83230973D01*
X71128154Y-83272558D01*
X71153507Y-83319990D01*
X71169123Y-83371470D01*
X71175000Y-83431140D01*
X71175000Y-84318860D01*
X71169123Y-84378530D01*
X71153507Y-84430010D01*
X71128154Y-84477442D01*
X71094027Y-84519027D01*
X71052442Y-84553154D01*
X71005010Y-84578507D01*
X70953530Y-84594123D01*
X70893860Y-84600000D01*
X70106140Y-84600000D01*
X70046470Y-84594123D01*
X69994990Y-84578507D01*
X69947558Y-84553154D01*
X69905973Y-84519027D01*
X69871846Y-84477442D01*
X69846493Y-84430010D01*
X69830877Y-84378530D01*
X69825000Y-84318860D01*
X69825000Y-83431140D01*
X69830877Y-83371470D01*
X69846493Y-83319990D01*
X69871846Y-83272558D01*
X69905973Y-83230973D01*
X69947558Y-83196846D01*
X69994990Y-83171493D01*
X70046470Y-83155877D01*
X70106140Y-83150000D01*
X70893860Y-83150000D01*
X70953530Y-83155877D01*
X70953530Y-83155877D01*
G37*
G36*
X80409122Y-80246115D02*
X80525041Y-80269173D01*
X80852620Y-80404861D01*
X80993286Y-80498851D01*
X81147436Y-80601851D01*
X81398149Y-80852564D01*
X81398151Y-80852567D01*
X81595139Y-81147380D01*
X81730827Y-81474959D01*
X81749505Y-81568860D01*
X81800000Y-81822714D01*
X81800000Y-82177286D01*
X81771614Y-82319990D01*
X81730827Y-82525041D01*
X81658354Y-82700005D01*
X81595140Y-82852618D01*
X81398149Y-83147436D01*
X81147436Y-83398149D01*
X81147433Y-83398151D01*
X80852620Y-83595139D01*
X80525041Y-83730827D01*
X80409122Y-83753885D01*
X80177286Y-83800000D01*
X79822714Y-83800000D01*
X79590878Y-83753885D01*
X79474959Y-83730827D01*
X79147380Y-83595139D01*
X78852567Y-83398151D01*
X78852564Y-83398149D01*
X78601851Y-83147436D01*
X78404860Y-82852618D01*
X78341646Y-82700005D01*
X78269173Y-82525041D01*
X78228386Y-82319990D01*
X78200000Y-82177286D01*
X78200000Y-81822714D01*
X78250495Y-81568860D01*
X78269173Y-81474959D01*
X78404861Y-81147380D01*
X78601849Y-80852567D01*
X78601851Y-80852564D01*
X78852564Y-80601851D01*
X79006714Y-80498851D01*
X79147380Y-80404861D01*
X79474959Y-80269173D01*
X79590878Y-80246115D01*
X79822714Y-80200000D01*
X80177286Y-80200000D01*
X80409122Y-80246115D01*
X80409122Y-80246115D01*
G37*
G36*
X75050000Y-83650000D02*
X73850000Y-83650000D01*
X73850000Y-81350000D01*
X75050000Y-81350000D01*
X75050000Y-83650000D01*
X75050000Y-83650000D01*
G37*
G36*
X73150000Y-83650000D02*
X71950000Y-83650000D01*
X71950000Y-81350000D01*
X73150000Y-81350000D01*
X73150000Y-83650000D01*
X73150000Y-83650000D01*
G37*
G36*
X68953530Y-82155877D02*
X69005010Y-82171493D01*
X69052442Y-82196846D01*
X69094027Y-82230973D01*
X69128154Y-82272558D01*
X69153507Y-82319990D01*
X69169123Y-82371470D01*
X69175000Y-82431140D01*
X69175000Y-83318860D01*
X69169123Y-83378530D01*
X69153507Y-83430010D01*
X69128154Y-83477442D01*
X69094027Y-83519027D01*
X69052442Y-83553154D01*
X69005010Y-83578507D01*
X68953530Y-83594123D01*
X68893860Y-83600000D01*
X68106140Y-83600000D01*
X68046470Y-83594123D01*
X67994990Y-83578507D01*
X67947558Y-83553154D01*
X67905973Y-83519027D01*
X67871846Y-83477442D01*
X67846493Y-83430010D01*
X67830877Y-83378530D01*
X67825000Y-83318860D01*
X67825000Y-82431140D01*
X67830877Y-82371470D01*
X67846493Y-82319990D01*
X67871846Y-82272558D01*
X67905973Y-82230973D01*
X67947558Y-82196846D01*
X67994990Y-82171493D01*
X68046470Y-82155877D01*
X68106140Y-82150000D01*
X68893860Y-82150000D01*
X68953530Y-82155877D01*
X68953530Y-82155877D01*
G37*
G36*
X70953530Y-81405877D02*
X71005010Y-81421493D01*
X71052442Y-81446846D01*
X71094027Y-81480973D01*
X71128154Y-81522558D01*
X71153507Y-81569990D01*
X71169123Y-81621470D01*
X71175000Y-81681140D01*
X71175000Y-82568860D01*
X71169123Y-82628530D01*
X71153507Y-82680010D01*
X71128154Y-82727442D01*
X71094027Y-82769027D01*
X71052442Y-82803154D01*
X71005010Y-82828507D01*
X70953530Y-82844123D01*
X70893860Y-82850000D01*
X70106140Y-82850000D01*
X70046470Y-82844123D01*
X69994990Y-82828507D01*
X69947558Y-82803154D01*
X69905973Y-82769027D01*
X69871846Y-82727442D01*
X69846493Y-82680010D01*
X69830877Y-82628530D01*
X69825000Y-82568860D01*
X69825000Y-81681140D01*
X69830877Y-81621470D01*
X69846493Y-81569990D01*
X69871846Y-81522558D01*
X69905973Y-81480973D01*
X69947558Y-81446846D01*
X69994990Y-81421493D01*
X70046470Y-81405877D01*
X70106140Y-81400000D01*
X70893860Y-81400000D01*
X70953530Y-81405877D01*
X70953530Y-81405877D01*
G37*
G36*
X68953530Y-80405877D02*
X69005010Y-80421493D01*
X69052442Y-80446846D01*
X69094027Y-80480973D01*
X69128154Y-80522558D01*
X69153507Y-80569990D01*
X69169123Y-80621470D01*
X69175000Y-80681140D01*
X69175000Y-81568860D01*
X69169123Y-81628530D01*
X69153507Y-81680010D01*
X69128154Y-81727442D01*
X69094027Y-81769027D01*
X69052442Y-81803154D01*
X69005010Y-81828507D01*
X68953530Y-81844123D01*
X68893860Y-81850000D01*
X68106140Y-81850000D01*
X68046470Y-81844123D01*
X67994990Y-81828507D01*
X67947558Y-81803154D01*
X67905973Y-81769027D01*
X67871846Y-81727442D01*
X67846493Y-81680010D01*
X67830877Y-81628530D01*
X67825000Y-81568860D01*
X67825000Y-80681140D01*
X67830877Y-80621470D01*
X67846493Y-80569990D01*
X67871846Y-80522558D01*
X67905973Y-80480973D01*
X67947558Y-80446846D01*
X67994990Y-80421493D01*
X68046470Y-80405877D01*
X68106140Y-80400000D01*
X68893860Y-80400000D01*
X68953530Y-80405877D01*
X68953530Y-80405877D01*
G37*
G36*
X74100000Y-80650000D02*
X72900000Y-80650000D01*
X72900000Y-78350000D01*
X74100000Y-78350000D01*
X74100000Y-80650000D01*
X74100000Y-80650000D01*
G37*
G36*
X70878530Y-78330877D02*
X70930010Y-78346493D01*
X70977442Y-78371846D01*
X71019027Y-78405973D01*
X71053154Y-78447558D01*
X71078507Y-78494990D01*
X71094123Y-78546470D01*
X71100000Y-78606140D01*
X71100000Y-79393860D01*
X71094123Y-79453530D01*
X71078507Y-79505010D01*
X71053154Y-79552442D01*
X71019027Y-79594027D01*
X70977442Y-79628154D01*
X70930010Y-79653507D01*
X70878530Y-79669123D01*
X70818860Y-79675000D01*
X69931140Y-79675000D01*
X69871470Y-79669123D01*
X69819990Y-79653507D01*
X69772558Y-79628154D01*
X69730973Y-79594027D01*
X69696846Y-79552442D01*
X69671493Y-79505010D01*
X69655877Y-79453530D01*
X69650000Y-79393860D01*
X69650000Y-78606140D01*
X69655877Y-78546470D01*
X69671493Y-78494990D01*
X69696846Y-78447558D01*
X69730973Y-78405973D01*
X69772558Y-78371846D01*
X69819990Y-78346493D01*
X69871470Y-78330877D01*
X69931140Y-78325000D01*
X70818860Y-78325000D01*
X70878530Y-78330877D01*
X70878530Y-78330877D01*
G37*
G36*
X69128530Y-78330877D02*
X69180010Y-78346493D01*
X69227442Y-78371846D01*
X69269027Y-78405973D01*
X69303154Y-78447558D01*
X69328507Y-78494990D01*
X69344123Y-78546470D01*
X69350000Y-78606140D01*
X69350000Y-79393860D01*
X69344123Y-79453530D01*
X69328507Y-79505010D01*
X69303154Y-79552442D01*
X69269027Y-79594027D01*
X69227442Y-79628154D01*
X69180010Y-79653507D01*
X69128530Y-79669123D01*
X69068860Y-79675000D01*
X68181140Y-79675000D01*
X68121470Y-79669123D01*
X68069990Y-79653507D01*
X68022558Y-79628154D01*
X67980973Y-79594027D01*
X67946846Y-79552442D01*
X67921493Y-79505010D01*
X67905877Y-79453530D01*
X67900000Y-79393860D01*
X67900000Y-78606140D01*
X67905877Y-78546470D01*
X67921493Y-78494990D01*
X67946846Y-78447558D01*
X67980973Y-78405973D01*
X68022558Y-78371846D01*
X68069990Y-78346493D01*
X68121470Y-78330877D01*
X68181140Y-78325000D01*
X69068860Y-78325000D01*
X69128530Y-78330877D01*
X69128530Y-78330877D01*
G37*
G36*
X80409122Y-75546115D02*
X80525041Y-75569173D01*
X80852620Y-75704861D01*
X80991168Y-75797436D01*
X81147436Y-75901851D01*
X81398149Y-76152564D01*
X81398151Y-76152567D01*
X81550670Y-76380827D01*
X81595140Y-76447382D01*
X81730827Y-76774960D01*
X81800000Y-77122714D01*
X81800000Y-77477286D01*
X81730827Y-77825040D01*
X81595140Y-78152618D01*
X81398149Y-78447436D01*
X81147436Y-78698149D01*
X81147433Y-78698151D01*
X80852620Y-78895139D01*
X80525041Y-79030827D01*
X80409122Y-79053885D01*
X80177286Y-79100000D01*
X79822714Y-79100000D01*
X79590878Y-79053885D01*
X79474959Y-79030827D01*
X79147380Y-78895139D01*
X78852567Y-78698151D01*
X78852564Y-78698149D01*
X78601851Y-78447436D01*
X78404860Y-78152618D01*
X78269173Y-77825040D01*
X78200000Y-77477286D01*
X78200000Y-77122714D01*
X78269173Y-76774960D01*
X78404860Y-76447382D01*
X78449331Y-76380827D01*
X78601849Y-76152567D01*
X78601851Y-76152564D01*
X78852564Y-75901851D01*
X79008832Y-75797436D01*
X79147380Y-75704861D01*
X79474959Y-75569173D01*
X79590878Y-75546115D01*
X79822714Y-75500000D01*
X80177286Y-75500000D01*
X80409122Y-75546115D01*
X80409122Y-75546115D01*
G37*
G36*
X70230000Y-76650000D02*
X69230000Y-76650000D01*
X69230000Y-74750000D01*
X70230000Y-74750000D01*
X70230000Y-76650000D01*
X70230000Y-76650000D01*
G37*
G36*
X67690000Y-76650000D02*
X66690000Y-76650000D01*
X66690000Y-74750000D01*
X67690000Y-74750000D01*
X67690000Y-76650000D01*
X67690000Y-76650000D01*
G37*
G36*
X68960000Y-76650000D02*
X67960000Y-76650000D01*
X67960000Y-74750000D01*
X68960000Y-74750000D01*
X68960000Y-76650000D01*
X68960000Y-76650000D01*
G37*
G36*
X71500000Y-76650000D02*
X70500000Y-76650000D01*
X70500000Y-74750000D01*
X71500000Y-74750000D01*
X71500000Y-76650000D01*
X71500000Y-76650000D01*
G37*
G36*
X72770000Y-76650000D02*
X71770000Y-76650000D01*
X71770000Y-74750000D01*
X72770000Y-74750000D01*
X72770000Y-76650000D01*
X72770000Y-76650000D01*
G37*
G36*
X74040000Y-76650000D02*
X73040000Y-76650000D01*
X73040000Y-74750000D01*
X74040000Y-74750000D01*
X74040000Y-76650000D01*
X74040000Y-76650000D01*
G37*
G36*
X75310000Y-76650000D02*
X74310000Y-76650000D01*
X74310000Y-74750000D01*
X75310000Y-74750000D01*
X75310000Y-76650000D01*
X75310000Y-76650000D01*
G37*
G36*
X107309122Y-72896115D02*
X107425041Y-72919173D01*
X107752620Y-73054861D01*
X108043511Y-73249228D01*
X108047436Y-73251851D01*
X108298149Y-73502564D01*
X108298151Y-73502567D01*
X108495139Y-73797380D01*
X108630827Y-74124959D01*
X108700000Y-74472716D01*
X108700000Y-74827284D01*
X108630827Y-75175041D01*
X108495139Y-75502620D01*
X108360006Y-75704860D01*
X108298149Y-75797436D01*
X108047436Y-76048149D01*
X108047433Y-76048151D01*
X107752620Y-76245139D01*
X107425041Y-76380827D01*
X107309122Y-76403885D01*
X107077286Y-76450000D01*
X106722714Y-76450000D01*
X106490878Y-76403885D01*
X106374959Y-76380827D01*
X106047380Y-76245139D01*
X105752567Y-76048151D01*
X105752564Y-76048149D01*
X105501851Y-75797436D01*
X105439994Y-75704860D01*
X105304861Y-75502620D01*
X105169173Y-75175041D01*
X105100000Y-74827284D01*
X105100000Y-74472716D01*
X105169173Y-74124959D01*
X105304861Y-73797380D01*
X105501849Y-73502567D01*
X105501851Y-73502564D01*
X105752564Y-73251851D01*
X105756489Y-73249228D01*
X106047380Y-73054861D01*
X106374959Y-72919173D01*
X106490878Y-72896115D01*
X106722714Y-72850000D01*
X107077286Y-72850000D01*
X107309122Y-72896115D01*
X107309122Y-72896115D01*
G37*
G36*
X79378530Y-73330877D02*
X79430010Y-73346493D01*
X79477442Y-73371846D01*
X79519027Y-73405973D01*
X79553154Y-73447558D01*
X79578507Y-73494990D01*
X79594123Y-73546470D01*
X79600000Y-73606140D01*
X79600000Y-74393860D01*
X79594123Y-74453530D01*
X79578507Y-74505010D01*
X79553154Y-74552442D01*
X79519027Y-74594027D01*
X79477442Y-74628154D01*
X79430010Y-74653507D01*
X79378530Y-74669123D01*
X79318860Y-74675000D01*
X78431140Y-74675000D01*
X78371470Y-74669123D01*
X78319990Y-74653507D01*
X78272558Y-74628154D01*
X78230973Y-74594027D01*
X78196846Y-74552442D01*
X78171493Y-74505010D01*
X78155877Y-74453530D01*
X78150000Y-74393860D01*
X78150000Y-73606140D01*
X78155877Y-73546470D01*
X78171493Y-73494990D01*
X78196846Y-73447558D01*
X78230973Y-73405973D01*
X78272558Y-73371846D01*
X78319990Y-73346493D01*
X78371470Y-73330877D01*
X78431140Y-73325000D01*
X79318860Y-73325000D01*
X79378530Y-73330877D01*
X79378530Y-73330877D01*
G37*
G36*
X77628530Y-73330877D02*
X77680010Y-73346493D01*
X77727442Y-73371846D01*
X77769027Y-73405973D01*
X77803154Y-73447558D01*
X77828507Y-73494990D01*
X77844123Y-73546470D01*
X77850000Y-73606140D01*
X77850000Y-74393860D01*
X77844123Y-74453530D01*
X77828507Y-74505010D01*
X77803154Y-74552442D01*
X77769027Y-74594027D01*
X77727442Y-74628154D01*
X77680010Y-74653507D01*
X77628530Y-74669123D01*
X77568860Y-74675000D01*
X76681140Y-74675000D01*
X76621470Y-74669123D01*
X76569990Y-74653507D01*
X76522558Y-74628154D01*
X76480973Y-74594027D01*
X76446846Y-74552442D01*
X76421493Y-74505010D01*
X76405877Y-74453530D01*
X76400000Y-74393860D01*
X76400000Y-73606140D01*
X76405877Y-73546470D01*
X76421493Y-73494990D01*
X76446846Y-73447558D01*
X76480973Y-73405973D01*
X76522558Y-73371846D01*
X76569990Y-73346493D01*
X76621470Y-73330877D01*
X76681140Y-73325000D01*
X77568860Y-73325000D01*
X77628530Y-73330877D01*
X77628530Y-73330877D01*
G37*
G36*
X83253530Y-73330877D02*
X83305010Y-73346493D01*
X83352442Y-73371846D01*
X83394027Y-73405973D01*
X83428154Y-73447558D01*
X83453507Y-73494990D01*
X83469123Y-73546470D01*
X83475000Y-73606140D01*
X83475000Y-74393860D01*
X83469123Y-74453530D01*
X83453507Y-74505010D01*
X83428154Y-74552442D01*
X83394027Y-74594027D01*
X83352442Y-74628154D01*
X83305010Y-74653507D01*
X83253530Y-74669123D01*
X83193860Y-74675000D01*
X82306140Y-74675000D01*
X82246470Y-74669123D01*
X82194990Y-74653507D01*
X82147558Y-74628154D01*
X82105973Y-74594027D01*
X82071846Y-74552442D01*
X82046493Y-74505010D01*
X82030877Y-74453530D01*
X82025000Y-74393860D01*
X82025000Y-73606140D01*
X82030877Y-73546470D01*
X82046493Y-73494990D01*
X82071846Y-73447558D01*
X82105973Y-73405973D01*
X82147558Y-73371846D01*
X82194990Y-73346493D01*
X82246470Y-73330877D01*
X82306140Y-73325000D01*
X83193860Y-73325000D01*
X83253530Y-73330877D01*
X83253530Y-73330877D01*
G37*
G36*
X81503530Y-73330877D02*
X81555010Y-73346493D01*
X81602442Y-73371846D01*
X81644027Y-73405973D01*
X81678154Y-73447558D01*
X81703507Y-73494990D01*
X81719123Y-73546470D01*
X81725000Y-73606140D01*
X81725000Y-74393860D01*
X81719123Y-74453530D01*
X81703507Y-74505010D01*
X81678154Y-74552442D01*
X81644027Y-74594027D01*
X81602442Y-74628154D01*
X81555010Y-74653507D01*
X81503530Y-74669123D01*
X81443860Y-74675000D01*
X80556140Y-74675000D01*
X80496470Y-74669123D01*
X80444990Y-74653507D01*
X80397558Y-74628154D01*
X80355973Y-74594027D01*
X80321846Y-74552442D01*
X80296493Y-74505010D01*
X80280877Y-74453530D01*
X80275000Y-74393860D01*
X80275000Y-73606140D01*
X80280877Y-73546470D01*
X80296493Y-73494990D01*
X80321846Y-73447558D01*
X80355973Y-73405973D01*
X80397558Y-73371846D01*
X80444990Y-73346493D01*
X80496470Y-73330877D01*
X80556140Y-73325000D01*
X81443860Y-73325000D01*
X81503530Y-73330877D01*
X81503530Y-73330877D01*
G37*
G36*
X54350026Y-69846115D02*
X54568412Y-69936573D01*
X54764958Y-70067901D01*
X54932099Y-70235042D01*
X55063427Y-70431588D01*
X55153885Y-70649974D01*
X55200000Y-70881809D01*
X55200000Y-71118191D01*
X55153885Y-71350026D01*
X55063427Y-71568412D01*
X54932099Y-71764958D01*
X54764958Y-71932099D01*
X54568412Y-72063427D01*
X54350026Y-72153885D01*
X54118191Y-72200000D01*
X53881809Y-72200000D01*
X53649974Y-72153885D01*
X53431588Y-72063427D01*
X53235042Y-71932099D01*
X53067901Y-71764958D01*
X52936573Y-71568412D01*
X52846115Y-71350026D01*
X52800000Y-71118191D01*
X52800000Y-70881809D01*
X52846115Y-70649974D01*
X52936573Y-70431588D01*
X53067901Y-70235042D01*
X53235042Y-70067901D01*
X53431588Y-69936573D01*
X53649974Y-69846115D01*
X53881809Y-69800000D01*
X54118191Y-69800000D01*
X54350026Y-69846115D01*
X54350026Y-69846115D01*
G37*
G36*
X59350026Y-69846115D02*
X59568412Y-69936573D01*
X59764958Y-70067901D01*
X59932099Y-70235042D01*
X60063427Y-70431588D01*
X60153885Y-70649974D01*
X60200000Y-70881809D01*
X60200000Y-71118191D01*
X60153885Y-71350026D01*
X60063427Y-71568412D01*
X59932099Y-71764958D01*
X59764958Y-71932099D01*
X59568412Y-72063427D01*
X59350026Y-72153885D01*
X59118191Y-72200000D01*
X58881809Y-72200000D01*
X58649974Y-72153885D01*
X58431588Y-72063427D01*
X58235042Y-71932099D01*
X58067901Y-71764958D01*
X57936573Y-71568412D01*
X57846115Y-71350026D01*
X57800000Y-71118191D01*
X57800000Y-70881809D01*
X57846115Y-70649974D01*
X57936573Y-70431588D01*
X58067901Y-70235042D01*
X58235042Y-70067901D01*
X58431588Y-69936573D01*
X58649974Y-69846115D01*
X58881809Y-69800000D01*
X59118191Y-69800000D01*
X59350026Y-69846115D01*
X59350026Y-69846115D01*
G37*
G36*
X64350026Y-69846115D02*
X64568412Y-69936573D01*
X64764958Y-70067901D01*
X64932099Y-70235042D01*
X65063427Y-70431588D01*
X65153885Y-70649974D01*
X65200000Y-70881809D01*
X65200000Y-71118191D01*
X65153885Y-71350026D01*
X65063427Y-71568412D01*
X64932099Y-71764958D01*
X64764958Y-71932099D01*
X64568412Y-72063427D01*
X64350026Y-72153885D01*
X64118191Y-72200000D01*
X63881809Y-72200000D01*
X63649974Y-72153885D01*
X63431588Y-72063427D01*
X63235042Y-71932099D01*
X63067901Y-71764958D01*
X62936573Y-71568412D01*
X62846115Y-71350026D01*
X62800000Y-71118191D01*
X62800000Y-70881809D01*
X62846115Y-70649974D01*
X62936573Y-70431588D01*
X63067901Y-70235042D01*
X63235042Y-70067901D01*
X63431588Y-69936573D01*
X63649974Y-69846115D01*
X63881809Y-69800000D01*
X64118191Y-69800000D01*
X64350026Y-69846115D01*
X64350026Y-69846115D01*
G37*
G36*
X96350026Y-69846115D02*
X96568412Y-69936573D01*
X96764958Y-70067901D01*
X96932099Y-70235042D01*
X97063427Y-70431588D01*
X97153885Y-70649974D01*
X97200000Y-70881809D01*
X97200000Y-71118191D01*
X97153885Y-71350026D01*
X97063427Y-71568412D01*
X96932099Y-71764958D01*
X96764958Y-71932099D01*
X96568412Y-72063427D01*
X96350026Y-72153885D01*
X96118191Y-72200000D01*
X95881809Y-72200000D01*
X95649974Y-72153885D01*
X95431588Y-72063427D01*
X95235042Y-71932099D01*
X95067901Y-71764958D01*
X94936573Y-71568412D01*
X94846115Y-71350026D01*
X94800000Y-71118191D01*
X94800000Y-70881809D01*
X94846115Y-70649974D01*
X94936573Y-70431588D01*
X95067901Y-70235042D01*
X95235042Y-70067901D01*
X95431588Y-69936573D01*
X95649974Y-69846115D01*
X95881809Y-69800000D01*
X96118191Y-69800000D01*
X96350026Y-69846115D01*
X96350026Y-69846115D01*
G37*
G36*
X101350026Y-69846115D02*
X101568412Y-69936573D01*
X101764958Y-70067901D01*
X101932099Y-70235042D01*
X102063427Y-70431588D01*
X102153885Y-70649974D01*
X102200000Y-70881809D01*
X102200000Y-71118191D01*
X102153885Y-71350026D01*
X102063427Y-71568412D01*
X101932099Y-71764958D01*
X101764958Y-71932099D01*
X101568412Y-72063427D01*
X101350026Y-72153885D01*
X101118191Y-72200000D01*
X100881809Y-72200000D01*
X100649974Y-72153885D01*
X100431588Y-72063427D01*
X100235042Y-71932099D01*
X100067901Y-71764958D01*
X99936573Y-71568412D01*
X99846115Y-71350026D01*
X99800000Y-71118191D01*
X99800000Y-70881809D01*
X99846115Y-70649974D01*
X99936573Y-70431588D01*
X100067901Y-70235042D01*
X100235042Y-70067901D01*
X100431588Y-69936573D01*
X100649974Y-69846115D01*
X100881809Y-69800000D01*
X101118191Y-69800000D01*
X101350026Y-69846115D01*
X101350026Y-69846115D01*
G37*
G36*
X106350026Y-69846115D02*
X106568412Y-69936573D01*
X106764958Y-70067901D01*
X106932099Y-70235042D01*
X107063427Y-70431588D01*
X107153885Y-70649974D01*
X107200000Y-70881809D01*
X107200000Y-71118191D01*
X107153885Y-71350026D01*
X107063427Y-71568412D01*
X106932099Y-71764958D01*
X106764958Y-71932099D01*
X106568412Y-72063427D01*
X106350026Y-72153885D01*
X106118191Y-72200000D01*
X105881809Y-72200000D01*
X105649974Y-72153885D01*
X105431588Y-72063427D01*
X105235042Y-71932099D01*
X105067901Y-71764958D01*
X104936573Y-71568412D01*
X104846115Y-71350026D01*
X104800000Y-71118191D01*
X104800000Y-70881809D01*
X104846115Y-70649974D01*
X104936573Y-70431588D01*
X105067901Y-70235042D01*
X105235042Y-70067901D01*
X105431588Y-69936573D01*
X105649974Y-69846115D01*
X105881809Y-69800000D01*
X106118191Y-69800000D01*
X106350026Y-69846115D01*
X106350026Y-69846115D01*
G37*
G36*
X77453530Y-70155877D02*
X77505010Y-70171493D01*
X77552442Y-70196846D01*
X77594027Y-70230973D01*
X77628154Y-70272558D01*
X77653507Y-70319990D01*
X77669123Y-70371470D01*
X77675000Y-70431140D01*
X77675000Y-71318860D01*
X77669123Y-71378530D01*
X77653507Y-71430010D01*
X77628154Y-71477442D01*
X77594027Y-71519027D01*
X77552442Y-71553154D01*
X77505010Y-71578507D01*
X77453530Y-71594123D01*
X77393860Y-71600000D01*
X76606140Y-71600000D01*
X76546470Y-71594123D01*
X76494990Y-71578507D01*
X76447558Y-71553154D01*
X76405973Y-71519027D01*
X76371846Y-71477442D01*
X76346493Y-71430010D01*
X76330877Y-71378530D01*
X76325000Y-71318860D01*
X76325000Y-70431140D01*
X76330877Y-70371470D01*
X76346493Y-70319990D01*
X76371846Y-70272558D01*
X76405973Y-70230973D01*
X76447558Y-70196846D01*
X76494990Y-70171493D01*
X76546470Y-70155877D01*
X76606140Y-70150000D01*
X77393860Y-70150000D01*
X77453530Y-70155877D01*
X77453530Y-70155877D01*
G37*
G36*
X82252481Y-68369855D02*
X82452118Y-68409565D01*
X82566343Y-68456879D01*
X82734201Y-68526408D01*
X82988071Y-68696038D01*
X83203962Y-68911929D01*
X83373592Y-69165799D01*
X83373592Y-69165800D01*
X83490435Y-69447882D01*
X83490435Y-69447884D01*
X83546043Y-69727442D01*
X83550000Y-69747338D01*
X83550000Y-70052662D01*
X83490435Y-70352118D01*
X83412540Y-70540173D01*
X83373592Y-70634201D01*
X83203962Y-70888071D01*
X82988071Y-71103962D01*
X82734201Y-71273592D01*
X82640173Y-71312540D01*
X82452118Y-71390435D01*
X82253159Y-71430010D01*
X82152663Y-71450000D01*
X81847337Y-71450000D01*
X81746841Y-71430010D01*
X81547882Y-71390435D01*
X81359827Y-71312540D01*
X81265799Y-71273592D01*
X81011929Y-71103962D01*
X80796038Y-70888071D01*
X80626408Y-70634201D01*
X80587460Y-70540173D01*
X80509565Y-70352118D01*
X80450000Y-70052662D01*
X80450000Y-69747338D01*
X80453958Y-69727442D01*
X80509565Y-69447884D01*
X80509565Y-69447882D01*
X80626408Y-69165800D01*
X80626408Y-69165799D01*
X80796038Y-68911929D01*
X81011929Y-68696038D01*
X81265799Y-68526408D01*
X81433657Y-68456879D01*
X81547882Y-68409565D01*
X81747519Y-68369855D01*
X81847337Y-68350000D01*
X82152663Y-68350000D01*
X82252481Y-68369855D01*
X82252481Y-68369855D01*
G37*
G36*
X72770000Y-71250000D02*
X71770000Y-71250000D01*
X71770000Y-69350000D01*
X72770000Y-69350000D01*
X72770000Y-71250000D01*
X72770000Y-71250000D01*
G37*
G36*
X74040000Y-71250000D02*
X73040000Y-71250000D01*
X73040000Y-69350000D01*
X74040000Y-69350000D01*
X74040000Y-71250000D01*
X74040000Y-71250000D01*
G37*
G36*
X71500000Y-71250000D02*
X70500000Y-71250000D01*
X70500000Y-69350000D01*
X71500000Y-69350000D01*
X71500000Y-71250000D01*
X71500000Y-71250000D01*
G37*
G36*
X67690000Y-71250000D02*
X66690000Y-71250000D01*
X66690000Y-69350000D01*
X67690000Y-69350000D01*
X67690000Y-71250000D01*
X67690000Y-71250000D01*
G37*
G36*
X75310000Y-71250000D02*
X74310000Y-71250000D01*
X74310000Y-69350000D01*
X75310000Y-69350000D01*
X75310000Y-71250000D01*
X75310000Y-71250000D01*
G37*
G36*
X68960000Y-71250000D02*
X67960000Y-71250000D01*
X67960000Y-69350000D01*
X68960000Y-69350000D01*
X68960000Y-71250000D01*
X68960000Y-71250000D01*
G37*
G36*
X70230000Y-71250000D02*
X69230000Y-71250000D01*
X69230000Y-69350000D01*
X70230000Y-69350000D01*
X70230000Y-71250000D01*
X70230000Y-71250000D01*
G37*
G36*
X77453530Y-68405877D02*
X77505010Y-68421493D01*
X77552442Y-68446846D01*
X77594027Y-68480973D01*
X77628154Y-68522558D01*
X77653507Y-68569990D01*
X77669123Y-68621470D01*
X77675000Y-68681140D01*
X77675000Y-69568860D01*
X77669123Y-69628530D01*
X77653507Y-69680010D01*
X77628154Y-69727442D01*
X77594027Y-69769027D01*
X77552442Y-69803154D01*
X77505010Y-69828507D01*
X77453530Y-69844123D01*
X77393860Y-69850000D01*
X76606140Y-69850000D01*
X76546470Y-69844123D01*
X76494990Y-69828507D01*
X76447558Y-69803154D01*
X76405973Y-69769027D01*
X76371846Y-69727442D01*
X76346493Y-69680010D01*
X76330877Y-69628530D01*
X76325000Y-69568860D01*
X76325000Y-68681140D01*
X76330877Y-68621470D01*
X76346493Y-68569990D01*
X76371846Y-68522558D01*
X76405973Y-68480973D01*
X76447558Y-68446846D01*
X76494990Y-68421493D01*
X76546470Y-68405877D01*
X76606140Y-68400000D01*
X77393860Y-68400000D01*
X77453530Y-68405877D01*
X77453530Y-68405877D01*
G37*
G36*
X72453530Y-67155877D02*
X72505010Y-67171493D01*
X72552442Y-67196846D01*
X72594027Y-67230973D01*
X72628154Y-67272558D01*
X72653507Y-67319990D01*
X72669123Y-67371470D01*
X72675000Y-67431140D01*
X72675000Y-68318860D01*
X72669123Y-68378530D01*
X72653507Y-68430010D01*
X72628154Y-68477442D01*
X72594027Y-68519027D01*
X72552442Y-68553154D01*
X72505010Y-68578507D01*
X72453530Y-68594123D01*
X72393860Y-68600000D01*
X71606140Y-68600000D01*
X71546470Y-68594123D01*
X71494990Y-68578507D01*
X71447558Y-68553154D01*
X71405973Y-68519027D01*
X71371846Y-68477442D01*
X71346493Y-68430010D01*
X71330877Y-68378530D01*
X71325000Y-68318860D01*
X71325000Y-67431140D01*
X71330877Y-67371470D01*
X71346493Y-67319990D01*
X71371846Y-67272558D01*
X71405973Y-67230973D01*
X71447558Y-67196846D01*
X71494990Y-67171493D01*
X71546470Y-67155877D01*
X71606140Y-67150000D01*
X72393860Y-67150000D01*
X72453530Y-67155877D01*
X72453530Y-67155877D01*
G37*
G36*
X75453530Y-67155877D02*
X75505010Y-67171493D01*
X75552442Y-67196846D01*
X75594027Y-67230973D01*
X75628154Y-67272558D01*
X75653507Y-67319990D01*
X75669123Y-67371470D01*
X75675000Y-67431140D01*
X75675000Y-68318860D01*
X75669123Y-68378530D01*
X75653507Y-68430010D01*
X75628154Y-68477442D01*
X75594027Y-68519027D01*
X75552442Y-68553154D01*
X75505010Y-68578507D01*
X75453530Y-68594123D01*
X75393860Y-68600000D01*
X74606140Y-68600000D01*
X74546470Y-68594123D01*
X74494990Y-68578507D01*
X74447558Y-68553154D01*
X74405973Y-68519027D01*
X74371846Y-68477442D01*
X74346493Y-68430010D01*
X74330877Y-68378530D01*
X74325000Y-68318860D01*
X74325000Y-67431140D01*
X74330877Y-67371470D01*
X74346493Y-67319990D01*
X74371846Y-67272558D01*
X74405973Y-67230973D01*
X74447558Y-67196846D01*
X74494990Y-67171493D01*
X74546470Y-67155877D01*
X74606140Y-67150000D01*
X75393860Y-67150000D01*
X75453530Y-67155877D01*
X75453530Y-67155877D01*
G37*
G36*
X65453530Y-66155877D02*
X65505010Y-66171493D01*
X65552442Y-66196846D01*
X65594027Y-66230973D01*
X65628154Y-66272558D01*
X65653507Y-66319990D01*
X65669123Y-66371470D01*
X65675000Y-66431140D01*
X65675000Y-67318860D01*
X65669123Y-67378530D01*
X65653507Y-67430010D01*
X65628154Y-67477442D01*
X65594027Y-67519027D01*
X65552442Y-67553154D01*
X65505010Y-67578507D01*
X65453530Y-67594123D01*
X65393860Y-67600000D01*
X64606140Y-67600000D01*
X64546470Y-67594123D01*
X64494990Y-67578507D01*
X64447558Y-67553154D01*
X64405973Y-67519027D01*
X64371846Y-67477442D01*
X64346493Y-67430010D01*
X64330877Y-67378530D01*
X64325000Y-67318860D01*
X64325000Y-66431140D01*
X64330877Y-66371470D01*
X64346493Y-66319990D01*
X64371846Y-66272558D01*
X64405973Y-66230973D01*
X64447558Y-66196846D01*
X64494990Y-66171493D01*
X64546470Y-66155877D01*
X64606140Y-66150000D01*
X65393860Y-66150000D01*
X65453530Y-66155877D01*
X65453530Y-66155877D01*
G37*
G36*
X69453530Y-66155877D02*
X69505010Y-66171493D01*
X69552442Y-66196846D01*
X69594027Y-66230973D01*
X69628154Y-66272558D01*
X69653507Y-66319990D01*
X69669123Y-66371470D01*
X69675000Y-66431140D01*
X69675000Y-67318860D01*
X69669123Y-67378530D01*
X69653507Y-67430010D01*
X69628154Y-67477442D01*
X69594027Y-67519027D01*
X69552442Y-67553154D01*
X69505010Y-67578507D01*
X69453530Y-67594123D01*
X69393860Y-67600000D01*
X68606140Y-67600000D01*
X68546470Y-67594123D01*
X68494990Y-67578507D01*
X68447558Y-67553154D01*
X68405973Y-67519027D01*
X68371846Y-67477442D01*
X68346493Y-67430010D01*
X68330877Y-67378530D01*
X68325000Y-67318860D01*
X68325000Y-66431140D01*
X68330877Y-66371470D01*
X68346493Y-66319990D01*
X68371846Y-66272558D01*
X68405973Y-66230973D01*
X68447558Y-66196846D01*
X68494990Y-66171493D01*
X68546470Y-66155877D01*
X68606140Y-66150000D01*
X69393860Y-66150000D01*
X69453530Y-66155877D01*
X69453530Y-66155877D01*
G37*
G36*
X67453530Y-66155877D02*
X67505010Y-66171493D01*
X67552442Y-66196846D01*
X67594027Y-66230973D01*
X67628154Y-66272558D01*
X67653507Y-66319990D01*
X67669123Y-66371470D01*
X67675000Y-66431140D01*
X67675000Y-67318860D01*
X67669123Y-67378530D01*
X67653507Y-67430010D01*
X67628154Y-67477442D01*
X67594027Y-67519027D01*
X67552442Y-67553154D01*
X67505010Y-67578507D01*
X67453530Y-67594123D01*
X67393860Y-67600000D01*
X66606140Y-67600000D01*
X66546470Y-67594123D01*
X66494990Y-67578507D01*
X66447558Y-67553154D01*
X66405973Y-67519027D01*
X66371846Y-67477442D01*
X66346493Y-67430010D01*
X66330877Y-67378530D01*
X66325000Y-67318860D01*
X66325000Y-66431140D01*
X66330877Y-66371470D01*
X66346493Y-66319990D01*
X66371846Y-66272558D01*
X66405973Y-66230973D01*
X66447558Y-66196846D01*
X66494990Y-66171493D01*
X66546470Y-66155877D01*
X66606140Y-66150000D01*
X67393860Y-66150000D01*
X67453530Y-66155877D01*
X67453530Y-66155877D01*
G37*
G36*
X72453530Y-65405877D02*
X72505010Y-65421493D01*
X72552442Y-65446846D01*
X72594027Y-65480973D01*
X72628154Y-65522558D01*
X72653507Y-65569990D01*
X72669123Y-65621470D01*
X72675000Y-65681140D01*
X72675000Y-66568860D01*
X72669123Y-66628530D01*
X72653507Y-66680010D01*
X72628154Y-66727442D01*
X72594027Y-66769027D01*
X72552442Y-66803154D01*
X72505010Y-66828507D01*
X72453530Y-66844123D01*
X72393860Y-66850000D01*
X71606140Y-66850000D01*
X71546470Y-66844123D01*
X71494990Y-66828507D01*
X71447558Y-66803154D01*
X71405973Y-66769027D01*
X71371846Y-66727442D01*
X71346493Y-66680010D01*
X71330877Y-66628530D01*
X71325000Y-66568860D01*
X71325000Y-65681140D01*
X71330877Y-65621470D01*
X71346493Y-65569990D01*
X71371846Y-65522558D01*
X71405973Y-65480973D01*
X71447558Y-65446846D01*
X71494990Y-65421493D01*
X71546470Y-65405877D01*
X71606140Y-65400000D01*
X72393860Y-65400000D01*
X72453530Y-65405877D01*
X72453530Y-65405877D01*
G37*
G36*
X75453530Y-65405877D02*
X75505010Y-65421493D01*
X75552442Y-65446846D01*
X75594027Y-65480973D01*
X75628154Y-65522558D01*
X75653507Y-65569990D01*
X75669123Y-65621470D01*
X75675000Y-65681140D01*
X75675000Y-66568860D01*
X75669123Y-66628530D01*
X75653507Y-66680010D01*
X75628154Y-66727442D01*
X75594027Y-66769027D01*
X75552442Y-66803154D01*
X75505010Y-66828507D01*
X75453530Y-66844123D01*
X75393860Y-66850000D01*
X74606140Y-66850000D01*
X74546470Y-66844123D01*
X74494990Y-66828507D01*
X74447558Y-66803154D01*
X74405973Y-66769027D01*
X74371846Y-66727442D01*
X74346493Y-66680010D01*
X74330877Y-66628530D01*
X74325000Y-66568860D01*
X74325000Y-65681140D01*
X74330877Y-65621470D01*
X74346493Y-65569990D01*
X74371846Y-65522558D01*
X74405973Y-65480973D01*
X74447558Y-65446846D01*
X74494990Y-65421493D01*
X74546470Y-65405877D01*
X74606140Y-65400000D01*
X75393860Y-65400000D01*
X75453530Y-65405877D01*
X75453530Y-65405877D01*
G37*
G36*
X83378530Y-65330877D02*
X83430010Y-65346493D01*
X83477442Y-65371846D01*
X83519027Y-65405973D01*
X83553154Y-65447558D01*
X83578507Y-65494990D01*
X83594123Y-65546470D01*
X83600000Y-65606140D01*
X83600000Y-66393860D01*
X83594123Y-66453530D01*
X83578507Y-66505010D01*
X83553154Y-66552442D01*
X83519027Y-66594027D01*
X83477442Y-66628154D01*
X83430010Y-66653507D01*
X83378530Y-66669123D01*
X83318860Y-66675000D01*
X82431140Y-66675000D01*
X82371470Y-66669123D01*
X82319990Y-66653507D01*
X82272558Y-66628154D01*
X82230973Y-66594027D01*
X82196846Y-66552442D01*
X82171493Y-66505010D01*
X82155877Y-66453530D01*
X82150000Y-66393860D01*
X82150000Y-65606140D01*
X82155877Y-65546470D01*
X82171493Y-65494990D01*
X82196846Y-65447558D01*
X82230973Y-65405973D01*
X82272558Y-65371846D01*
X82319990Y-65346493D01*
X82371470Y-65330877D01*
X82431140Y-65325000D01*
X83318860Y-65325000D01*
X83378530Y-65330877D01*
X83378530Y-65330877D01*
G37*
G36*
X81628530Y-65330877D02*
X81680010Y-65346493D01*
X81727442Y-65371846D01*
X81769027Y-65405973D01*
X81803154Y-65447558D01*
X81828507Y-65494990D01*
X81844123Y-65546470D01*
X81850000Y-65606140D01*
X81850000Y-66393860D01*
X81844123Y-66453530D01*
X81828507Y-66505010D01*
X81803154Y-66552442D01*
X81769027Y-66594027D01*
X81727442Y-66628154D01*
X81680010Y-66653507D01*
X81628530Y-66669123D01*
X81568860Y-66675000D01*
X80681140Y-66675000D01*
X80621470Y-66669123D01*
X80569990Y-66653507D01*
X80522558Y-66628154D01*
X80480973Y-66594027D01*
X80446846Y-66552442D01*
X80421493Y-66505010D01*
X80405877Y-66453530D01*
X80400000Y-66393860D01*
X80400000Y-65606140D01*
X80405877Y-65546470D01*
X80421493Y-65494990D01*
X80446846Y-65447558D01*
X80480973Y-65405973D01*
X80522558Y-65371846D01*
X80569990Y-65346493D01*
X80621470Y-65330877D01*
X80681140Y-65325000D01*
X81568860Y-65325000D01*
X81628530Y-65330877D01*
X81628530Y-65330877D01*
G37*
G36*
X79378530Y-65330877D02*
X79430010Y-65346493D01*
X79477442Y-65371846D01*
X79519027Y-65405973D01*
X79553154Y-65447558D01*
X79578507Y-65494990D01*
X79594123Y-65546470D01*
X79600000Y-65606140D01*
X79600000Y-66393860D01*
X79594123Y-66453530D01*
X79578507Y-66505010D01*
X79553154Y-66552442D01*
X79519027Y-66594027D01*
X79477442Y-66628154D01*
X79430010Y-66653507D01*
X79378530Y-66669123D01*
X79318860Y-66675000D01*
X78431140Y-66675000D01*
X78371470Y-66669123D01*
X78319990Y-66653507D01*
X78272558Y-66628154D01*
X78230973Y-66594027D01*
X78196846Y-66552442D01*
X78171493Y-66505010D01*
X78155877Y-66453530D01*
X78150000Y-66393860D01*
X78150000Y-65606140D01*
X78155877Y-65546470D01*
X78171493Y-65494990D01*
X78196846Y-65447558D01*
X78230973Y-65405973D01*
X78272558Y-65371846D01*
X78319990Y-65346493D01*
X78371470Y-65330877D01*
X78431140Y-65325000D01*
X79318860Y-65325000D01*
X79378530Y-65330877D01*
X79378530Y-65330877D01*
G37*
G36*
X77628530Y-65330877D02*
X77680010Y-65346493D01*
X77727442Y-65371846D01*
X77769027Y-65405973D01*
X77803154Y-65447558D01*
X77828507Y-65494990D01*
X77844123Y-65546470D01*
X77850000Y-65606140D01*
X77850000Y-66393860D01*
X77844123Y-66453530D01*
X77828507Y-66505010D01*
X77803154Y-66552442D01*
X77769027Y-66594027D01*
X77727442Y-66628154D01*
X77680010Y-66653507D01*
X77628530Y-66669123D01*
X77568860Y-66675000D01*
X76681140Y-66675000D01*
X76621470Y-66669123D01*
X76569990Y-66653507D01*
X76522558Y-66628154D01*
X76480973Y-66594027D01*
X76446846Y-66552442D01*
X76421493Y-66505010D01*
X76405877Y-66453530D01*
X76400000Y-66393860D01*
X76400000Y-65606140D01*
X76405877Y-65546470D01*
X76421493Y-65494990D01*
X76446846Y-65447558D01*
X76480973Y-65405973D01*
X76522558Y-65371846D01*
X76569990Y-65346493D01*
X76621470Y-65330877D01*
X76681140Y-65325000D01*
X77568860Y-65325000D01*
X77628530Y-65330877D01*
X77628530Y-65330877D01*
G37*
G36*
X69453530Y-64405877D02*
X69505010Y-64421493D01*
X69552442Y-64446846D01*
X69594027Y-64480973D01*
X69628154Y-64522558D01*
X69653507Y-64569990D01*
X69669123Y-64621470D01*
X69675000Y-64681140D01*
X69675000Y-65568860D01*
X69669123Y-65628530D01*
X69653507Y-65680010D01*
X69628154Y-65727442D01*
X69594027Y-65769027D01*
X69552442Y-65803154D01*
X69505010Y-65828507D01*
X69453530Y-65844123D01*
X69393860Y-65850000D01*
X68606140Y-65850000D01*
X68546470Y-65844123D01*
X68494990Y-65828507D01*
X68447558Y-65803154D01*
X68405973Y-65769027D01*
X68371846Y-65727442D01*
X68346493Y-65680010D01*
X68330877Y-65628530D01*
X68325000Y-65568860D01*
X68325000Y-64681140D01*
X68330877Y-64621470D01*
X68346493Y-64569990D01*
X68371846Y-64522558D01*
X68405973Y-64480973D01*
X68447558Y-64446846D01*
X68494990Y-64421493D01*
X68546470Y-64405877D01*
X68606140Y-64400000D01*
X69393860Y-64400000D01*
X69453530Y-64405877D01*
X69453530Y-64405877D01*
G37*
G36*
X67453530Y-64405877D02*
X67505010Y-64421493D01*
X67552442Y-64446846D01*
X67594027Y-64480973D01*
X67628154Y-64522558D01*
X67653507Y-64569990D01*
X67669123Y-64621470D01*
X67675000Y-64681140D01*
X67675000Y-65568860D01*
X67669123Y-65628530D01*
X67653507Y-65680010D01*
X67628154Y-65727442D01*
X67594027Y-65769027D01*
X67552442Y-65803154D01*
X67505010Y-65828507D01*
X67453530Y-65844123D01*
X67393860Y-65850000D01*
X66606140Y-65850000D01*
X66546470Y-65844123D01*
X66494990Y-65828507D01*
X66447558Y-65803154D01*
X66405973Y-65769027D01*
X66371846Y-65727442D01*
X66346493Y-65680010D01*
X66330877Y-65628530D01*
X66325000Y-65568860D01*
X66325000Y-64681140D01*
X66330877Y-64621470D01*
X66346493Y-64569990D01*
X66371846Y-64522558D01*
X66405973Y-64480973D01*
X66447558Y-64446846D01*
X66494990Y-64421493D01*
X66546470Y-64405877D01*
X66606140Y-64400000D01*
X67393860Y-64400000D01*
X67453530Y-64405877D01*
X67453530Y-64405877D01*
G37*
G36*
X65453530Y-64405877D02*
X65505010Y-64421493D01*
X65552442Y-64446846D01*
X65594027Y-64480973D01*
X65628154Y-64522558D01*
X65653507Y-64569990D01*
X65669123Y-64621470D01*
X65675000Y-64681140D01*
X65675000Y-65568860D01*
X65669123Y-65628530D01*
X65653507Y-65680010D01*
X65628154Y-65727442D01*
X65594027Y-65769027D01*
X65552442Y-65803154D01*
X65505010Y-65828507D01*
X65453530Y-65844123D01*
X65393860Y-65850000D01*
X64606140Y-65850000D01*
X64546470Y-65844123D01*
X64494990Y-65828507D01*
X64447558Y-65803154D01*
X64405973Y-65769027D01*
X64371846Y-65727442D01*
X64346493Y-65680010D01*
X64330877Y-65628530D01*
X64325000Y-65568860D01*
X64325000Y-64681140D01*
X64330877Y-64621470D01*
X64346493Y-64569990D01*
X64371846Y-64522558D01*
X64405973Y-64480973D01*
X64447558Y-64446846D01*
X64494990Y-64421493D01*
X64546470Y-64405877D01*
X64606140Y-64400000D01*
X65393860Y-64400000D01*
X65453530Y-64405877D01*
X65453530Y-64405877D01*
G37*
G36*
X88888236Y-62720149D02*
X88888239Y-62720150D01*
X88888238Y-62720150D01*
X89130465Y-62820483D01*
X89130466Y-62820484D01*
X89348466Y-62966147D01*
X89533853Y-63151534D01*
X89533855Y-63151537D01*
X89679517Y-63369535D01*
X89735632Y-63505010D01*
X89779851Y-63611764D01*
X89831000Y-63868907D01*
X89831000Y-64131093D01*
X89779851Y-64388236D01*
X89779850Y-64388238D01*
X89679517Y-64630465D01*
X89679516Y-64630466D01*
X89533853Y-64848466D01*
X89348466Y-65033853D01*
X89348463Y-65033855D01*
X89130465Y-65179517D01*
X88943112Y-65257121D01*
X88888236Y-65279851D01*
X88631093Y-65331000D01*
X88368907Y-65331000D01*
X88111764Y-65279851D01*
X88056888Y-65257121D01*
X87869535Y-65179517D01*
X87651537Y-65033855D01*
X87651534Y-65033853D01*
X87466147Y-64848466D01*
X87320484Y-64630466D01*
X87320483Y-64630465D01*
X87220150Y-64388238D01*
X87220149Y-64388236D01*
X87169000Y-64131093D01*
X87169000Y-63868907D01*
X87220149Y-63611764D01*
X87264368Y-63505010D01*
X87320483Y-63369535D01*
X87466145Y-63151537D01*
X87466147Y-63151534D01*
X87651534Y-62966147D01*
X87869534Y-62820484D01*
X87869535Y-62820483D01*
X88111762Y-62720150D01*
X88111761Y-62720150D01*
X88111764Y-62720149D01*
X88368907Y-62669000D01*
X88631093Y-62669000D01*
X88888236Y-62720149D01*
X88888236Y-62720149D01*
G37*
G36*
X74100000Y-64650000D02*
X72900000Y-64650000D01*
X72900000Y-62350000D01*
X74100000Y-62350000D01*
X74100000Y-64650000D01*
X74100000Y-64650000D01*
G37*
G36*
X79378530Y-62330877D02*
X79430010Y-62346493D01*
X79477442Y-62371846D01*
X79519027Y-62405973D01*
X79553154Y-62447558D01*
X79578507Y-62494990D01*
X79594123Y-62546470D01*
X79600000Y-62606140D01*
X79600000Y-63393860D01*
X79594123Y-63453530D01*
X79578507Y-63505010D01*
X79553154Y-63552442D01*
X79519027Y-63594027D01*
X79477442Y-63628154D01*
X79430010Y-63653507D01*
X79378530Y-63669123D01*
X79318860Y-63675000D01*
X78431140Y-63675000D01*
X78371470Y-63669123D01*
X78319990Y-63653507D01*
X78272558Y-63628154D01*
X78230973Y-63594027D01*
X78196846Y-63552442D01*
X78171493Y-63505010D01*
X78155877Y-63453530D01*
X78150000Y-63393860D01*
X78150000Y-62606140D01*
X78155877Y-62546470D01*
X78171493Y-62494990D01*
X78196846Y-62447558D01*
X78230973Y-62405973D01*
X78272558Y-62371846D01*
X78319990Y-62346493D01*
X78371470Y-62330877D01*
X78431140Y-62325000D01*
X79318860Y-62325000D01*
X79378530Y-62330877D01*
X79378530Y-62330877D01*
G37*
G36*
X77628530Y-62330877D02*
X77680010Y-62346493D01*
X77727442Y-62371846D01*
X77769027Y-62405973D01*
X77803154Y-62447558D01*
X77828507Y-62494990D01*
X77844123Y-62546470D01*
X77850000Y-62606140D01*
X77850000Y-63393860D01*
X77844123Y-63453530D01*
X77828507Y-63505010D01*
X77803154Y-63552442D01*
X77769027Y-63594027D01*
X77727442Y-63628154D01*
X77680010Y-63653507D01*
X77628530Y-63669123D01*
X77568860Y-63675000D01*
X76681140Y-63675000D01*
X76621470Y-63669123D01*
X76569990Y-63653507D01*
X76522558Y-63628154D01*
X76480973Y-63594027D01*
X76446846Y-63552442D01*
X76421493Y-63505010D01*
X76405877Y-63453530D01*
X76400000Y-63393860D01*
X76400000Y-62606140D01*
X76405877Y-62546470D01*
X76421493Y-62494990D01*
X76446846Y-62447558D01*
X76480973Y-62405973D01*
X76522558Y-62371846D01*
X76569990Y-62346493D01*
X76621470Y-62330877D01*
X76681140Y-62325000D01*
X77568860Y-62325000D01*
X77628530Y-62330877D01*
X77628530Y-62330877D01*
G37*
G36*
X69628530Y-62330877D02*
X69680010Y-62346493D01*
X69727442Y-62371846D01*
X69769027Y-62405973D01*
X69803154Y-62447558D01*
X69828507Y-62494990D01*
X69844123Y-62546470D01*
X69850000Y-62606140D01*
X69850000Y-63393860D01*
X69844123Y-63453530D01*
X69828507Y-63505010D01*
X69803154Y-63552442D01*
X69769027Y-63594027D01*
X69727442Y-63628154D01*
X69680010Y-63653507D01*
X69628530Y-63669123D01*
X69568860Y-63675000D01*
X68681140Y-63675000D01*
X68621470Y-63669123D01*
X68569990Y-63653507D01*
X68522558Y-63628154D01*
X68480973Y-63594027D01*
X68446846Y-63552442D01*
X68421493Y-63505010D01*
X68405877Y-63453530D01*
X68400000Y-63393860D01*
X68400000Y-62606140D01*
X68405877Y-62546470D01*
X68421493Y-62494990D01*
X68446846Y-62447558D01*
X68480973Y-62405973D01*
X68522558Y-62371846D01*
X68569990Y-62346493D01*
X68621470Y-62330877D01*
X68681140Y-62325000D01*
X69568860Y-62325000D01*
X69628530Y-62330877D01*
X69628530Y-62330877D01*
G37*
G36*
X71378530Y-62330877D02*
X71430010Y-62346493D01*
X71477442Y-62371846D01*
X71519027Y-62405973D01*
X71553154Y-62447558D01*
X71578507Y-62494990D01*
X71594123Y-62546470D01*
X71600000Y-62606140D01*
X71600000Y-63393860D01*
X71594123Y-63453530D01*
X71578507Y-63505010D01*
X71553154Y-63552442D01*
X71519027Y-63594027D01*
X71477442Y-63628154D01*
X71430010Y-63653507D01*
X71378530Y-63669123D01*
X71318860Y-63675000D01*
X70431140Y-63675000D01*
X70371470Y-63669123D01*
X70319990Y-63653507D01*
X70272558Y-63628154D01*
X70230973Y-63594027D01*
X70196846Y-63552442D01*
X70171493Y-63505010D01*
X70155877Y-63453530D01*
X70150000Y-63393860D01*
X70150000Y-62606140D01*
X70155877Y-62546470D01*
X70171493Y-62494990D01*
X70196846Y-62447558D01*
X70230973Y-62405973D01*
X70272558Y-62371846D01*
X70319990Y-62346493D01*
X70371470Y-62330877D01*
X70431140Y-62325000D01*
X71318860Y-62325000D01*
X71378530Y-62330877D01*
X71378530Y-62330877D01*
G37*
G36*
X83378530Y-62330877D02*
X83430010Y-62346493D01*
X83477442Y-62371846D01*
X83519027Y-62405973D01*
X83553154Y-62447558D01*
X83578507Y-62494990D01*
X83594123Y-62546470D01*
X83600000Y-62606140D01*
X83600000Y-63393860D01*
X83594123Y-63453530D01*
X83578507Y-63505010D01*
X83553154Y-63552442D01*
X83519027Y-63594027D01*
X83477442Y-63628154D01*
X83430010Y-63653507D01*
X83378530Y-63669123D01*
X83318860Y-63675000D01*
X82431140Y-63675000D01*
X82371470Y-63669123D01*
X82319990Y-63653507D01*
X82272558Y-63628154D01*
X82230973Y-63594027D01*
X82196846Y-63552442D01*
X82171493Y-63505010D01*
X82155877Y-63453530D01*
X82150000Y-63393860D01*
X82150000Y-62606140D01*
X82155877Y-62546470D01*
X82171493Y-62494990D01*
X82196846Y-62447558D01*
X82230973Y-62405973D01*
X82272558Y-62371846D01*
X82319990Y-62346493D01*
X82371470Y-62330877D01*
X82431140Y-62325000D01*
X83318860Y-62325000D01*
X83378530Y-62330877D01*
X83378530Y-62330877D01*
G37*
G36*
X81628530Y-62330877D02*
X81680010Y-62346493D01*
X81727442Y-62371846D01*
X81769027Y-62405973D01*
X81803154Y-62447558D01*
X81828507Y-62494990D01*
X81844123Y-62546470D01*
X81850000Y-62606140D01*
X81850000Y-63393860D01*
X81844123Y-63453530D01*
X81828507Y-63505010D01*
X81803154Y-63552442D01*
X81769027Y-63594027D01*
X81727442Y-63628154D01*
X81680010Y-63653507D01*
X81628530Y-63669123D01*
X81568860Y-63675000D01*
X80681140Y-63675000D01*
X80621470Y-63669123D01*
X80569990Y-63653507D01*
X80522558Y-63628154D01*
X80480973Y-63594027D01*
X80446846Y-63552442D01*
X80421493Y-63505010D01*
X80405877Y-63453530D01*
X80400000Y-63393860D01*
X80400000Y-62606140D01*
X80405877Y-62546470D01*
X80421493Y-62494990D01*
X80446846Y-62447558D01*
X80480973Y-62405973D01*
X80522558Y-62371846D01*
X80569990Y-62346493D01*
X80621470Y-62330877D01*
X80681140Y-62325000D01*
X81568860Y-62325000D01*
X81628530Y-62330877D01*
X81628530Y-62330877D01*
G37*
G36*
X92128530Y-62330877D02*
X92180010Y-62346493D01*
X92227442Y-62371846D01*
X92269027Y-62405973D01*
X92303154Y-62447558D01*
X92328507Y-62494990D01*
X92344123Y-62546470D01*
X92350000Y-62606140D01*
X92350000Y-63393860D01*
X92344123Y-63453530D01*
X92328507Y-63505010D01*
X92303154Y-63552442D01*
X92269027Y-63594027D01*
X92227442Y-63628154D01*
X92180010Y-63653507D01*
X92128530Y-63669123D01*
X92068860Y-63675000D01*
X91181140Y-63675000D01*
X91121470Y-63669123D01*
X91069990Y-63653507D01*
X91022558Y-63628154D01*
X90980973Y-63594027D01*
X90946846Y-63552442D01*
X90921493Y-63505010D01*
X90905877Y-63453530D01*
X90900000Y-63393860D01*
X90900000Y-62606140D01*
X90905877Y-62546470D01*
X90921493Y-62494990D01*
X90946846Y-62447558D01*
X90980973Y-62405973D01*
X91022558Y-62371846D01*
X91069990Y-62346493D01*
X91121470Y-62330877D01*
X91181140Y-62325000D01*
X92068860Y-62325000D01*
X92128530Y-62330877D01*
X92128530Y-62330877D01*
G37*
G36*
X93878530Y-62330877D02*
X93930010Y-62346493D01*
X93977442Y-62371846D01*
X94019027Y-62405973D01*
X94053154Y-62447558D01*
X94078507Y-62494990D01*
X94094123Y-62546470D01*
X94100000Y-62606140D01*
X94100000Y-63393860D01*
X94094123Y-63453530D01*
X94078507Y-63505010D01*
X94053154Y-63552442D01*
X94019027Y-63594027D01*
X93977442Y-63628154D01*
X93930010Y-63653507D01*
X93878530Y-63669123D01*
X93818860Y-63675000D01*
X92931140Y-63675000D01*
X92871470Y-63669123D01*
X92819990Y-63653507D01*
X92772558Y-63628154D01*
X92730973Y-63594027D01*
X92696846Y-63552442D01*
X92671493Y-63505010D01*
X92655877Y-63453530D01*
X92650000Y-63393860D01*
X92650000Y-62606140D01*
X92655877Y-62546470D01*
X92671493Y-62494990D01*
X92696846Y-62447558D01*
X92730973Y-62405973D01*
X92772558Y-62371846D01*
X92819990Y-62346493D01*
X92871470Y-62330877D01*
X92931140Y-62325000D01*
X93818860Y-62325000D01*
X93878530Y-62330877D01*
X93878530Y-62330877D01*
G37*
G36*
X65628530Y-62330877D02*
X65680010Y-62346493D01*
X65727442Y-62371846D01*
X65769027Y-62405973D01*
X65803154Y-62447558D01*
X65828507Y-62494990D01*
X65844123Y-62546470D01*
X65850000Y-62606140D01*
X65850000Y-63393860D01*
X65844123Y-63453530D01*
X65828507Y-63505010D01*
X65803154Y-63552442D01*
X65769027Y-63594027D01*
X65727442Y-63628154D01*
X65680010Y-63653507D01*
X65628530Y-63669123D01*
X65568860Y-63675000D01*
X64681140Y-63675000D01*
X64621470Y-63669123D01*
X64569990Y-63653507D01*
X64522558Y-63628154D01*
X64480973Y-63594027D01*
X64446846Y-63552442D01*
X64421493Y-63505010D01*
X64405877Y-63453530D01*
X64400000Y-63393860D01*
X64400000Y-62606140D01*
X64405877Y-62546470D01*
X64421493Y-62494990D01*
X64446846Y-62447558D01*
X64480973Y-62405973D01*
X64522558Y-62371846D01*
X64569990Y-62346493D01*
X64621470Y-62330877D01*
X64681140Y-62325000D01*
X65568860Y-62325000D01*
X65628530Y-62330877D01*
X65628530Y-62330877D01*
G37*
G36*
X67378530Y-62330877D02*
X67430010Y-62346493D01*
X67477442Y-62371846D01*
X67519027Y-62405973D01*
X67553154Y-62447558D01*
X67578507Y-62494990D01*
X67594123Y-62546470D01*
X67600000Y-62606140D01*
X67600000Y-63393860D01*
X67594123Y-63453530D01*
X67578507Y-63505010D01*
X67553154Y-63552442D01*
X67519027Y-63594027D01*
X67477442Y-63628154D01*
X67430010Y-63653507D01*
X67378530Y-63669123D01*
X67318860Y-63675000D01*
X66431140Y-63675000D01*
X66371470Y-63669123D01*
X66319990Y-63653507D01*
X66272558Y-63628154D01*
X66230973Y-63594027D01*
X66196846Y-63552442D01*
X66171493Y-63505010D01*
X66155877Y-63453530D01*
X66150000Y-63393860D01*
X66150000Y-62606140D01*
X66155877Y-62546470D01*
X66171493Y-62494990D01*
X66196846Y-62447558D01*
X66230973Y-62405973D01*
X66272558Y-62371846D01*
X66319990Y-62346493D01*
X66371470Y-62330877D01*
X66431140Y-62325000D01*
X67318860Y-62325000D01*
X67378530Y-62330877D01*
X67378530Y-62330877D01*
G37*
G36*
X56200000Y-57152500D02*
X55262551Y-57152500D01*
X55238165Y-57154902D01*
X55214716Y-57162015D01*
X55193105Y-57173566D01*
X55174163Y-57189112D01*
X55158617Y-57208054D01*
X55147066Y-57229665D01*
X55139953Y-57253114D01*
X55137551Y-57277500D01*
X55139953Y-57301886D01*
X55147066Y-57325335D01*
X55158617Y-57346946D01*
X55174163Y-57365888D01*
X55193105Y-57381434D01*
X55214716Y-57392985D01*
X55250298Y-57401898D01*
X55273429Y-57404176D01*
X55382052Y-57437126D01*
X55490677Y-57470077D01*
X55690895Y-57577096D01*
X55866384Y-57721116D01*
X56010404Y-57896605D01*
X56117423Y-58096823D01*
X56117423Y-58096824D01*
X56183324Y-58314071D01*
X56205576Y-58540000D01*
X56183324Y-58765929D01*
X56154019Y-58862534D01*
X56117423Y-58983177D01*
X56010404Y-59183395D01*
X55866384Y-59358884D01*
X55690895Y-59502904D01*
X55490677Y-59609923D01*
X55429337Y-59628530D01*
X55273429Y-59675824D01*
X55185451Y-59684489D01*
X55174151Y-59685602D01*
X55150117Y-59690383D01*
X55127478Y-59699760D01*
X55107104Y-59713374D01*
X55089777Y-59730701D01*
X55076163Y-59751076D01*
X55066785Y-59773715D01*
X55062005Y-59797748D01*
X55062005Y-59822252D01*
X55066786Y-59846286D01*
X55076163Y-59868925D01*
X55089777Y-59889299D01*
X55107104Y-59906626D01*
X55127479Y-59920240D01*
X55150118Y-59929618D01*
X55174151Y-59934398D01*
X55273429Y-59944176D01*
X55370674Y-59973675D01*
X55490677Y-60010077D01*
X55690895Y-60117096D01*
X55866384Y-60261116D01*
X56010404Y-60436605D01*
X56117423Y-60636823D01*
X56183324Y-60854072D01*
X56205576Y-61080000D01*
X56183324Y-61305928D01*
X56117423Y-61523177D01*
X56010404Y-61723395D01*
X55866384Y-61898884D01*
X55690895Y-62042904D01*
X55490677Y-62149923D01*
X55382052Y-62182874D01*
X55273429Y-62215824D01*
X55216991Y-62221383D01*
X55104116Y-62232500D01*
X54895884Y-62232500D01*
X54783009Y-62221383D01*
X54726571Y-62215824D01*
X54617948Y-62182874D01*
X54509323Y-62149923D01*
X54309105Y-62042904D01*
X54133616Y-61898884D01*
X53989596Y-61723395D01*
X53882577Y-61523177D01*
X53816676Y-61305928D01*
X53794424Y-61080000D01*
X53816676Y-60854072D01*
X53882577Y-60636823D01*
X53989596Y-60436605D01*
X54133616Y-60261116D01*
X54309105Y-60117096D01*
X54509323Y-60010077D01*
X54629326Y-59973675D01*
X54726571Y-59944176D01*
X54825849Y-59934398D01*
X54849883Y-59929617D01*
X54872522Y-59920240D01*
X54892896Y-59906626D01*
X54910223Y-59889299D01*
X54923837Y-59868924D01*
X54933215Y-59846285D01*
X54937995Y-59822252D01*
X54937995Y-59797748D01*
X54933214Y-59773714D01*
X54923837Y-59751075D01*
X54910223Y-59730701D01*
X54892896Y-59713374D01*
X54872521Y-59699760D01*
X54849882Y-59690382D01*
X54825849Y-59685602D01*
X54814549Y-59684489D01*
X54726571Y-59675824D01*
X54570663Y-59628530D01*
X54509323Y-59609923D01*
X54309105Y-59502904D01*
X54133616Y-59358884D01*
X53989596Y-59183395D01*
X53882577Y-58983177D01*
X53845981Y-58862534D01*
X53816676Y-58765929D01*
X53794424Y-58540000D01*
X53816676Y-58314071D01*
X53882577Y-58096824D01*
X53882577Y-58096823D01*
X53989596Y-57896605D01*
X54133616Y-57721116D01*
X54309105Y-57577096D01*
X54509323Y-57470077D01*
X54617948Y-57437126D01*
X54726571Y-57404176D01*
X54749702Y-57401898D01*
X54773735Y-57397117D01*
X54796374Y-57387740D01*
X54816748Y-57374126D01*
X54834075Y-57356799D01*
X54847689Y-57336424D01*
X54857067Y-57313785D01*
X54861847Y-57289752D01*
X54861847Y-57265248D01*
X54857066Y-57241214D01*
X54847689Y-57218575D01*
X54834075Y-57198201D01*
X54816748Y-57180874D01*
X54796373Y-57167260D01*
X54773734Y-57157882D01*
X54737449Y-57152500D01*
X53800000Y-57152500D01*
X53800000Y-54847500D01*
X56200000Y-54847500D01*
X56200000Y-57152500D01*
X56200000Y-57152500D01*
G37*
G36*
X63200000Y-57152500D02*
X62262551Y-57152500D01*
X62238165Y-57154902D01*
X62214716Y-57162015D01*
X62193105Y-57173566D01*
X62174163Y-57189112D01*
X62158617Y-57208054D01*
X62147066Y-57229665D01*
X62139953Y-57253114D01*
X62137551Y-57277500D01*
X62139953Y-57301886D01*
X62147066Y-57325335D01*
X62158617Y-57346946D01*
X62174163Y-57365888D01*
X62193105Y-57381434D01*
X62214716Y-57392985D01*
X62250298Y-57401898D01*
X62273429Y-57404176D01*
X62382052Y-57437126D01*
X62490677Y-57470077D01*
X62690895Y-57577096D01*
X62866384Y-57721116D01*
X63010404Y-57896605D01*
X63117423Y-58096823D01*
X63117423Y-58096824D01*
X63183324Y-58314071D01*
X63205576Y-58540000D01*
X63183324Y-58765929D01*
X63154019Y-58862534D01*
X63117423Y-58983177D01*
X63010404Y-59183395D01*
X62866384Y-59358884D01*
X62690895Y-59502904D01*
X62490677Y-59609923D01*
X62429337Y-59628530D01*
X62273429Y-59675824D01*
X62185451Y-59684489D01*
X62174151Y-59685602D01*
X62150117Y-59690383D01*
X62127478Y-59699760D01*
X62107104Y-59713374D01*
X62089777Y-59730701D01*
X62076163Y-59751076D01*
X62066785Y-59773715D01*
X62062005Y-59797748D01*
X62062005Y-59822252D01*
X62066786Y-59846286D01*
X62076163Y-59868925D01*
X62089777Y-59889299D01*
X62107104Y-59906626D01*
X62127479Y-59920240D01*
X62150118Y-59929618D01*
X62174151Y-59934398D01*
X62273429Y-59944176D01*
X62370674Y-59973675D01*
X62490677Y-60010077D01*
X62690895Y-60117096D01*
X62866384Y-60261116D01*
X63010404Y-60436605D01*
X63117423Y-60636823D01*
X63183324Y-60854072D01*
X63205576Y-61080000D01*
X63183324Y-61305928D01*
X63117423Y-61523177D01*
X63010404Y-61723395D01*
X62866384Y-61898884D01*
X62690895Y-62042904D01*
X62490677Y-62149923D01*
X62382052Y-62182874D01*
X62273429Y-62215824D01*
X62216991Y-62221383D01*
X62104116Y-62232500D01*
X61895884Y-62232500D01*
X61783009Y-62221383D01*
X61726571Y-62215824D01*
X61617948Y-62182874D01*
X61509323Y-62149923D01*
X61309105Y-62042904D01*
X61133616Y-61898884D01*
X60989596Y-61723395D01*
X60882577Y-61523177D01*
X60816676Y-61305928D01*
X60794424Y-61080000D01*
X60816676Y-60854072D01*
X60882577Y-60636823D01*
X60989596Y-60436605D01*
X61133616Y-60261116D01*
X61309105Y-60117096D01*
X61509323Y-60010077D01*
X61629326Y-59973675D01*
X61726571Y-59944176D01*
X61825849Y-59934398D01*
X61849883Y-59929617D01*
X61872522Y-59920240D01*
X61892896Y-59906626D01*
X61910223Y-59889299D01*
X61923837Y-59868924D01*
X61933215Y-59846285D01*
X61937995Y-59822252D01*
X61937995Y-59797748D01*
X61933214Y-59773714D01*
X61923837Y-59751075D01*
X61910223Y-59730701D01*
X61892896Y-59713374D01*
X61872521Y-59699760D01*
X61849882Y-59690382D01*
X61825849Y-59685602D01*
X61814549Y-59684489D01*
X61726571Y-59675824D01*
X61570663Y-59628530D01*
X61509323Y-59609923D01*
X61309105Y-59502904D01*
X61133616Y-59358884D01*
X60989596Y-59183395D01*
X60882577Y-58983177D01*
X60845981Y-58862534D01*
X60816676Y-58765929D01*
X60794424Y-58540000D01*
X60816676Y-58314071D01*
X60882577Y-58096824D01*
X60882577Y-58096823D01*
X60989596Y-57896605D01*
X61133616Y-57721116D01*
X61309105Y-57577096D01*
X61509323Y-57470077D01*
X61617948Y-57437126D01*
X61726571Y-57404176D01*
X61749702Y-57401898D01*
X61773735Y-57397117D01*
X61796374Y-57387740D01*
X61816748Y-57374126D01*
X61834075Y-57356799D01*
X61847689Y-57336424D01*
X61857067Y-57313785D01*
X61861847Y-57289752D01*
X61861847Y-57265248D01*
X61857066Y-57241214D01*
X61847689Y-57218575D01*
X61834075Y-57198201D01*
X61816748Y-57180874D01*
X61796373Y-57167260D01*
X61773734Y-57157882D01*
X61737449Y-57152500D01*
X60800000Y-57152500D01*
X60800000Y-54847500D01*
X63200000Y-54847500D01*
X63200000Y-57152500D01*
X63200000Y-57152500D01*
G37*
G36*
X75050000Y-61650000D02*
X73850000Y-61650000D01*
X73850000Y-59350000D01*
X75050000Y-59350000D01*
X75050000Y-61650000D01*
X75050000Y-61650000D01*
G37*
G36*
X73150000Y-61650000D02*
X71950000Y-61650000D01*
X71950000Y-59350000D01*
X73150000Y-59350000D01*
X73150000Y-61650000D01*
X73150000Y-61650000D01*
G37*
G36*
X88953530Y-60155877D02*
X89005010Y-60171493D01*
X89052442Y-60196846D01*
X89094027Y-60230973D01*
X89128154Y-60272558D01*
X89153507Y-60319990D01*
X89169123Y-60371470D01*
X89175000Y-60431140D01*
X89175000Y-61318860D01*
X89169123Y-61378530D01*
X89153507Y-61430010D01*
X89128154Y-61477442D01*
X89094027Y-61519027D01*
X89052442Y-61553154D01*
X89005010Y-61578507D01*
X88953530Y-61594123D01*
X88893860Y-61600000D01*
X88106140Y-61600000D01*
X88046470Y-61594123D01*
X87994990Y-61578507D01*
X87947558Y-61553154D01*
X87905973Y-61519027D01*
X87871846Y-61477442D01*
X87846493Y-61430010D01*
X87830877Y-61378530D01*
X87825000Y-61318860D01*
X87825000Y-60431140D01*
X87830877Y-60371470D01*
X87846493Y-60319990D01*
X87871846Y-60272558D01*
X87905973Y-60230973D01*
X87947558Y-60196846D01*
X87994990Y-60171493D01*
X88046470Y-60155877D01*
X88106140Y-60150000D01*
X88893860Y-60150000D01*
X88953530Y-60155877D01*
X88953530Y-60155877D01*
G37*
G36*
X91953530Y-60155877D02*
X92005010Y-60171493D01*
X92052442Y-60196846D01*
X92094027Y-60230973D01*
X92128154Y-60272558D01*
X92153507Y-60319990D01*
X92169123Y-60371470D01*
X92175000Y-60431140D01*
X92175000Y-61318860D01*
X92169123Y-61378530D01*
X92153507Y-61430010D01*
X92128154Y-61477442D01*
X92094027Y-61519027D01*
X92052442Y-61553154D01*
X92005010Y-61578507D01*
X91953530Y-61594123D01*
X91893860Y-61600000D01*
X91106140Y-61600000D01*
X91046470Y-61594123D01*
X90994990Y-61578507D01*
X90947558Y-61553154D01*
X90905973Y-61519027D01*
X90871846Y-61477442D01*
X90846493Y-61430010D01*
X90830877Y-61378530D01*
X90825000Y-61318860D01*
X90825000Y-60431140D01*
X90830877Y-60371470D01*
X90846493Y-60319990D01*
X90871846Y-60272558D01*
X90905973Y-60230973D01*
X90947558Y-60196846D01*
X90994990Y-60171493D01*
X91046470Y-60155877D01*
X91106140Y-60150000D01*
X91893860Y-60150000D01*
X91953530Y-60155877D01*
X91953530Y-60155877D01*
G37*
G36*
X85953530Y-60155877D02*
X86005010Y-60171493D01*
X86052442Y-60196846D01*
X86094027Y-60230973D01*
X86128154Y-60272558D01*
X86153507Y-60319990D01*
X86169123Y-60371470D01*
X86175000Y-60431140D01*
X86175000Y-61318860D01*
X86169123Y-61378530D01*
X86153507Y-61430010D01*
X86128154Y-61477442D01*
X86094027Y-61519027D01*
X86052442Y-61553154D01*
X86005010Y-61578507D01*
X85953530Y-61594123D01*
X85893860Y-61600000D01*
X85106140Y-61600000D01*
X85046470Y-61594123D01*
X84994990Y-61578507D01*
X84947558Y-61553154D01*
X84905973Y-61519027D01*
X84871846Y-61477442D01*
X84846493Y-61430010D01*
X84830877Y-61378530D01*
X84825000Y-61318860D01*
X84825000Y-60431140D01*
X84830877Y-60371470D01*
X84846493Y-60319990D01*
X84871846Y-60272558D01*
X84905973Y-60230973D01*
X84947558Y-60196846D01*
X84994990Y-60171493D01*
X85046470Y-60155877D01*
X85106140Y-60150000D01*
X85893860Y-60150000D01*
X85953530Y-60155877D01*
X85953530Y-60155877D01*
G37*
G36*
X80409122Y-57946115D02*
X80525041Y-57969173D01*
X80852620Y-58104861D01*
X80910956Y-58143840D01*
X81147436Y-58301851D01*
X81398149Y-58552564D01*
X81398151Y-58552567D01*
X81595139Y-58847380D01*
X81730827Y-59174959D01*
X81738888Y-59215484D01*
X81800000Y-59522714D01*
X81800000Y-59877286D01*
X81780827Y-59973675D01*
X81730827Y-60225041D01*
X81595139Y-60552620D01*
X81400772Y-60843511D01*
X81398149Y-60847436D01*
X81147436Y-61098149D01*
X81147433Y-61098151D01*
X80852620Y-61295139D01*
X80525041Y-61430827D01*
X80428626Y-61450005D01*
X80177286Y-61500000D01*
X79822714Y-61500000D01*
X79571374Y-61450005D01*
X79474959Y-61430827D01*
X79147380Y-61295139D01*
X78852567Y-61098151D01*
X78852564Y-61098149D01*
X78601851Y-60847436D01*
X78599228Y-60843511D01*
X78404861Y-60552620D01*
X78269173Y-60225041D01*
X78219173Y-59973675D01*
X78200000Y-59877286D01*
X78200000Y-59522714D01*
X78261112Y-59215484D01*
X78269173Y-59174959D01*
X78404861Y-58847380D01*
X78601849Y-58552567D01*
X78601851Y-58552564D01*
X78852564Y-58301851D01*
X79089044Y-58143840D01*
X79147380Y-58104861D01*
X79474959Y-57969173D01*
X79590878Y-57946115D01*
X79822714Y-57900000D01*
X80177286Y-57900000D01*
X80409122Y-57946115D01*
X80409122Y-57946115D01*
G37*
G36*
X98294603Y-59028813D02*
X98294605Y-59028814D01*
X98294606Y-59028814D01*
X98362503Y-59056938D01*
X98478415Y-59104950D01*
X98643840Y-59215484D01*
X98784516Y-59356160D01*
X98895050Y-59521585D01*
X98939348Y-59628530D01*
X98960672Y-59680010D01*
X98971187Y-59705397D01*
X99010000Y-59900522D01*
X99010000Y-60099478D01*
X98974739Y-60276747D01*
X98971186Y-60294606D01*
X98944785Y-60358344D01*
X98895050Y-60478415D01*
X98784516Y-60643840D01*
X98643840Y-60784516D01*
X98478415Y-60895050D01*
X98362503Y-60943062D01*
X98294606Y-60971186D01*
X98294605Y-60971186D01*
X98294603Y-60971187D01*
X98099478Y-61010000D01*
X97900522Y-61010000D01*
X97705397Y-60971187D01*
X97705395Y-60971186D01*
X97705394Y-60971186D01*
X97637497Y-60943062D01*
X97521585Y-60895050D01*
X97356160Y-60784516D01*
X97215484Y-60643840D01*
X97104950Y-60478415D01*
X97055215Y-60358344D01*
X97028814Y-60294606D01*
X97025262Y-60276747D01*
X96990000Y-60099478D01*
X96990000Y-59900522D01*
X97028813Y-59705397D01*
X97039329Y-59680010D01*
X97060652Y-59628530D01*
X97104950Y-59521585D01*
X97215484Y-59356160D01*
X97356160Y-59215484D01*
X97521585Y-59104950D01*
X97637497Y-59056938D01*
X97705394Y-59028814D01*
X97705395Y-59028814D01*
X97705397Y-59028813D01*
X97900522Y-58990000D01*
X98099478Y-58990000D01*
X98294603Y-59028813D01*
X98294603Y-59028813D01*
G37*
G36*
X67675770Y-58515372D02*
X67791689Y-58538429D01*
X67973678Y-58613811D01*
X68137463Y-58723249D01*
X68276751Y-58862537D01*
X68386189Y-59026322D01*
X68461571Y-59208311D01*
X68484628Y-59324230D01*
X68491522Y-59358884D01*
X68500000Y-59401509D01*
X68500000Y-59598491D01*
X68461571Y-59791689D01*
X68386189Y-59973678D01*
X68276751Y-60137463D01*
X68137463Y-60276751D01*
X67973678Y-60386189D01*
X67791689Y-60461571D01*
X67707012Y-60478414D01*
X67598493Y-60500000D01*
X67401507Y-60500000D01*
X67292988Y-60478414D01*
X67208311Y-60461571D01*
X67026322Y-60386189D01*
X66862537Y-60276751D01*
X66723249Y-60137463D01*
X66613811Y-59973678D01*
X66538429Y-59791689D01*
X66500000Y-59598491D01*
X66500000Y-59401509D01*
X66508479Y-59358884D01*
X66515372Y-59324230D01*
X66538429Y-59208311D01*
X66613811Y-59026322D01*
X66723249Y-58862537D01*
X66862537Y-58723249D01*
X67026322Y-58613811D01*
X67208311Y-58538429D01*
X67324230Y-58515372D01*
X67401507Y-58500000D01*
X67598493Y-58500000D01*
X67675770Y-58515372D01*
X67675770Y-58515372D01*
G37*
G36*
X91953530Y-58405877D02*
X92005010Y-58421493D01*
X92052442Y-58446846D01*
X92094027Y-58480973D01*
X92128154Y-58522558D01*
X92153507Y-58569990D01*
X92169123Y-58621470D01*
X92175000Y-58681140D01*
X92175000Y-59568860D01*
X92169123Y-59628530D01*
X92153507Y-59680010D01*
X92128154Y-59727442D01*
X92094027Y-59769027D01*
X92052442Y-59803154D01*
X92005010Y-59828507D01*
X91953530Y-59844123D01*
X91893860Y-59850000D01*
X91106140Y-59850000D01*
X91046470Y-59844123D01*
X90994990Y-59828507D01*
X90947558Y-59803154D01*
X90905973Y-59769027D01*
X90871846Y-59727442D01*
X90846493Y-59680010D01*
X90830877Y-59628530D01*
X90825000Y-59568860D01*
X90825000Y-58681140D01*
X90830877Y-58621470D01*
X90846493Y-58569990D01*
X90871846Y-58522558D01*
X90905973Y-58480973D01*
X90947558Y-58446846D01*
X90994990Y-58421493D01*
X91046470Y-58405877D01*
X91106140Y-58400000D01*
X91893860Y-58400000D01*
X91953530Y-58405877D01*
X91953530Y-58405877D01*
G37*
G36*
X88953530Y-58405877D02*
X89005010Y-58421493D01*
X89052442Y-58446846D01*
X89094027Y-58480973D01*
X89128154Y-58522558D01*
X89153507Y-58569990D01*
X89169123Y-58621470D01*
X89175000Y-58681140D01*
X89175000Y-59568860D01*
X89169123Y-59628530D01*
X89153507Y-59680010D01*
X89128154Y-59727442D01*
X89094027Y-59769027D01*
X89052442Y-59803154D01*
X89005010Y-59828507D01*
X88953530Y-59844123D01*
X88893860Y-59850000D01*
X88106140Y-59850000D01*
X88046470Y-59844123D01*
X87994990Y-59828507D01*
X87947558Y-59803154D01*
X87905973Y-59769027D01*
X87871846Y-59727442D01*
X87846493Y-59680010D01*
X87830877Y-59628530D01*
X87825000Y-59568860D01*
X87825000Y-58681140D01*
X87830877Y-58621470D01*
X87846493Y-58569990D01*
X87871846Y-58522558D01*
X87905973Y-58480973D01*
X87947558Y-58446846D01*
X87994990Y-58421493D01*
X88046470Y-58405877D01*
X88106140Y-58400000D01*
X88893860Y-58400000D01*
X88953530Y-58405877D01*
X88953530Y-58405877D01*
G37*
G36*
X85953530Y-58405877D02*
X86005010Y-58421493D01*
X86052442Y-58446846D01*
X86094027Y-58480973D01*
X86128154Y-58522558D01*
X86153507Y-58569990D01*
X86169123Y-58621470D01*
X86175000Y-58681140D01*
X86175000Y-59568860D01*
X86169123Y-59628530D01*
X86153507Y-59680010D01*
X86128154Y-59727442D01*
X86094027Y-59769027D01*
X86052442Y-59803154D01*
X86005010Y-59828507D01*
X85953530Y-59844123D01*
X85893860Y-59850000D01*
X85106140Y-59850000D01*
X85046470Y-59844123D01*
X84994990Y-59828507D01*
X84947558Y-59803154D01*
X84905973Y-59769027D01*
X84871846Y-59727442D01*
X84846493Y-59680010D01*
X84830877Y-59628530D01*
X84825000Y-59568860D01*
X84825000Y-58681140D01*
X84830877Y-58621470D01*
X84846493Y-58569990D01*
X84871846Y-58522558D01*
X84905973Y-58480973D01*
X84947558Y-58446846D01*
X84994990Y-58421493D01*
X85046470Y-58405877D01*
X85106140Y-58400000D01*
X85893860Y-58400000D01*
X85953530Y-58405877D01*
X85953530Y-58405877D01*
G37*
G36*
X75300000Y-58800000D02*
X72700000Y-58800000D01*
X72700000Y-56200000D01*
X75300000Y-56200000D01*
X75300000Y-58800000D01*
X75300000Y-58800000D01*
G37*
G36*
X103294603Y-56528813D02*
X103294605Y-56528814D01*
X103294606Y-56528814D01*
X103362503Y-56556938D01*
X103478415Y-56604950D01*
X103643840Y-56715484D01*
X103784516Y-56856160D01*
X103895050Y-57021585D01*
X103895050Y-57021586D01*
X103968207Y-57198201D01*
X103971187Y-57205397D01*
X104010000Y-57400522D01*
X104010000Y-57599478D01*
X103971187Y-57794603D01*
X103895050Y-57978415D01*
X103784516Y-58143840D01*
X103643840Y-58284516D01*
X103478415Y-58395050D01*
X103362503Y-58443062D01*
X103294606Y-58471186D01*
X103294605Y-58471186D01*
X103294603Y-58471187D01*
X103099478Y-58510000D01*
X102900522Y-58510000D01*
X102705397Y-58471187D01*
X102705395Y-58471186D01*
X102705394Y-58471186D01*
X102637497Y-58443062D01*
X102521585Y-58395050D01*
X102356160Y-58284516D01*
X102215484Y-58143840D01*
X102104950Y-57978415D01*
X102028813Y-57794603D01*
X101990000Y-57599478D01*
X101990000Y-57400522D01*
X102028813Y-57205397D01*
X102031794Y-57198201D01*
X102104950Y-57021586D01*
X102104950Y-57021585D01*
X102215484Y-56856160D01*
X102356160Y-56715484D01*
X102521585Y-56604950D01*
X102637497Y-56556938D01*
X102705394Y-56528814D01*
X102705395Y-56528814D01*
X102705397Y-56528813D01*
X102900522Y-56490000D01*
X103099478Y-56490000D01*
X103294603Y-56528813D01*
X103294603Y-56528813D01*
G37*
G36*
X68500000Y-58000000D02*
X66500000Y-58000000D01*
X66500000Y-56000000D01*
X68500000Y-56000000D01*
X68500000Y-58000000D01*
X68500000Y-58000000D01*
G37*
G36*
X80315245Y-53227442D02*
X80525041Y-53269173D01*
X80852620Y-53404861D01*
X81143511Y-53599228D01*
X81147436Y-53601851D01*
X81398149Y-53852564D01*
X81398151Y-53852567D01*
X81567984Y-54106739D01*
X81595140Y-54147382D01*
X81730827Y-54474960D01*
X81789680Y-54770831D01*
X81800000Y-54822716D01*
X81800000Y-55177284D01*
X81730827Y-55525041D01*
X81595139Y-55852620D01*
X81515915Y-55971187D01*
X81398149Y-56147436D01*
X81147436Y-56398149D01*
X81147433Y-56398151D01*
X80852620Y-56595139D01*
X80852619Y-56595140D01*
X80852618Y-56595140D01*
X80756674Y-56634881D01*
X80525041Y-56730827D01*
X80409122Y-56753885D01*
X80177286Y-56800000D01*
X79822714Y-56800000D01*
X79590878Y-56753885D01*
X79474959Y-56730827D01*
X79243326Y-56634881D01*
X79147382Y-56595140D01*
X79147381Y-56595140D01*
X79147380Y-56595139D01*
X78852567Y-56398151D01*
X78852564Y-56398149D01*
X78601851Y-56147436D01*
X78484085Y-55971187D01*
X78404861Y-55852620D01*
X78269173Y-55525041D01*
X78200000Y-55177284D01*
X78200000Y-54822716D01*
X78210321Y-54770831D01*
X78269173Y-54474960D01*
X78404860Y-54147382D01*
X78432017Y-54106739D01*
X78601849Y-53852567D01*
X78601851Y-53852564D01*
X78852564Y-53601851D01*
X78856489Y-53599228D01*
X79147380Y-53404861D01*
X79474959Y-53269173D01*
X79684755Y-53227442D01*
X79822714Y-53200000D01*
X80177286Y-53200000D01*
X80315245Y-53227442D01*
X80315245Y-53227442D01*
G37*
G36*
X71685530Y-54755710D02*
X71735379Y-54770831D01*
X71781311Y-54795382D01*
X71821574Y-54828426D01*
X71854618Y-54868689D01*
X71879169Y-54914621D01*
X71894290Y-54964470D01*
X71900000Y-55022444D01*
X71900000Y-56027556D01*
X71894290Y-56085530D01*
X71879169Y-56135379D01*
X71854618Y-56181311D01*
X71821574Y-56221574D01*
X71781311Y-56254618D01*
X71735379Y-56279169D01*
X71685530Y-56294290D01*
X71627556Y-56300000D01*
X70372444Y-56300000D01*
X70314470Y-56294290D01*
X70264621Y-56279169D01*
X70218689Y-56254618D01*
X70178426Y-56221574D01*
X70145382Y-56181311D01*
X70120831Y-56135379D01*
X70105710Y-56085530D01*
X70100000Y-56027556D01*
X70100000Y-55022444D01*
X70105710Y-54964470D01*
X70120831Y-54914621D01*
X70145382Y-54868689D01*
X70178426Y-54828426D01*
X70218689Y-54795382D01*
X70264621Y-54770831D01*
X70314470Y-54755710D01*
X70372444Y-54750000D01*
X71627556Y-54750000D01*
X71685530Y-54755710D01*
X71685530Y-54755710D01*
G37*
G36*
X91150000Y-56200000D02*
X88850000Y-56200000D01*
X88850000Y-55175850D01*
X88847598Y-55151464D01*
X88840485Y-55128015D01*
X88828934Y-55106404D01*
X88813388Y-55087462D01*
X88794446Y-55071916D01*
X88772835Y-55060365D01*
X88749386Y-55053252D01*
X88725000Y-55050850D01*
X88700614Y-55053252D01*
X88677165Y-55060365D01*
X88655554Y-55071916D01*
X88636612Y-55087462D01*
X88621066Y-55106404D01*
X88609515Y-55128015D01*
X88602402Y-55151463D01*
X88565806Y-55335443D01*
X88479117Y-55544728D01*
X88353261Y-55733085D01*
X88193085Y-55893261D01*
X88004728Y-56019117D01*
X87795443Y-56105806D01*
X87573266Y-56150000D01*
X87346734Y-56150000D01*
X87124557Y-56105806D01*
X86915272Y-56019117D01*
X86726915Y-55893261D01*
X86566739Y-55733085D01*
X86440883Y-55544728D01*
X86354194Y-55335443D01*
X86310000Y-55113266D01*
X86310000Y-54886734D01*
X86354194Y-54664557D01*
X86440883Y-54455272D01*
X86566739Y-54266915D01*
X86726915Y-54106739D01*
X86915272Y-53980883D01*
X87124557Y-53894194D01*
X87346734Y-53850000D01*
X87573266Y-53850000D01*
X87795443Y-53894194D01*
X88004728Y-53980883D01*
X88193085Y-54106739D01*
X88353261Y-54266915D01*
X88479117Y-54455272D01*
X88565806Y-54664557D01*
X88602402Y-54848537D01*
X88609515Y-54871986D01*
X88621066Y-54893597D01*
X88636612Y-54912539D01*
X88655554Y-54928084D01*
X88677165Y-54939635D01*
X88700614Y-54946748D01*
X88725000Y-54949150D01*
X88749387Y-54946748D01*
X88772836Y-54939635D01*
X88794447Y-54928084D01*
X88813389Y-54912538D01*
X88828934Y-54893596D01*
X88840485Y-54871985D01*
X88847598Y-54848536D01*
X88850000Y-54824150D01*
X88850000Y-53800000D01*
X91150000Y-53800000D01*
X91150000Y-56200000D01*
X91150000Y-56200000D01*
G37*
G36*
X98294603Y-54028813D02*
X98294605Y-54028814D01*
X98294606Y-54028814D01*
X98326418Y-54041991D01*
X98478415Y-54104950D01*
X98643840Y-54215484D01*
X98784516Y-54356160D01*
X98895050Y-54521585D01*
X98971187Y-54705397D01*
X99010000Y-54900522D01*
X99010000Y-55099478D01*
X98971187Y-55294603D01*
X98895050Y-55478415D01*
X98784516Y-55643840D01*
X98643840Y-55784516D01*
X98478415Y-55895050D01*
X98362503Y-55943062D01*
X98294606Y-55971186D01*
X98294605Y-55971186D01*
X98294603Y-55971187D01*
X98099478Y-56010000D01*
X97900522Y-56010000D01*
X97705397Y-55971187D01*
X97705395Y-55971186D01*
X97705394Y-55971186D01*
X97637497Y-55943062D01*
X97521585Y-55895050D01*
X97356160Y-55784516D01*
X97215484Y-55643840D01*
X97104950Y-55478415D01*
X97028813Y-55294603D01*
X96990000Y-55099478D01*
X96990000Y-54900522D01*
X97028813Y-54705397D01*
X97104950Y-54521585D01*
X97215484Y-54356160D01*
X97356160Y-54215484D01*
X97521585Y-54104950D01*
X97673582Y-54041991D01*
X97705394Y-54028814D01*
X97705395Y-54028814D01*
X97705397Y-54028813D01*
X97900522Y-53990000D01*
X98099478Y-53990000D01*
X98294603Y-54028813D01*
X98294603Y-54028813D01*
G37*
G36*
X69453530Y-53655877D02*
X69505010Y-53671493D01*
X69552442Y-53696846D01*
X69594027Y-53730973D01*
X69628154Y-53772558D01*
X69653507Y-53819990D01*
X69669123Y-53871470D01*
X69675000Y-53931140D01*
X69675000Y-54818860D01*
X69669123Y-54878530D01*
X69653507Y-54930010D01*
X69628154Y-54977442D01*
X69594027Y-55019027D01*
X69552442Y-55053154D01*
X69505010Y-55078507D01*
X69453530Y-55094123D01*
X69393860Y-55100000D01*
X68606140Y-55100000D01*
X68546470Y-55094123D01*
X68494990Y-55078507D01*
X68447558Y-55053154D01*
X68405973Y-55019027D01*
X68371846Y-54977442D01*
X68346493Y-54930010D01*
X68330877Y-54878530D01*
X68325000Y-54818860D01*
X68325000Y-53931140D01*
X68330877Y-53871470D01*
X68346493Y-53819990D01*
X68371846Y-53772558D01*
X68405973Y-53730973D01*
X68447558Y-53696846D01*
X68494990Y-53671493D01*
X68546470Y-53655877D01*
X68606140Y-53650000D01*
X69393860Y-53650000D01*
X69453530Y-53655877D01*
X69453530Y-53655877D01*
G37*
G36*
X71685530Y-52705710D02*
X71735379Y-52720831D01*
X71781311Y-52745382D01*
X71821574Y-52778426D01*
X71854618Y-52818689D01*
X71879169Y-52864621D01*
X71894290Y-52914470D01*
X71900000Y-52972444D01*
X71900000Y-53977556D01*
X71894290Y-54035530D01*
X71879169Y-54085379D01*
X71854618Y-54131311D01*
X71821574Y-54171574D01*
X71781311Y-54204618D01*
X71735379Y-54229169D01*
X71685530Y-54244290D01*
X71627556Y-54250000D01*
X70372444Y-54250000D01*
X70314470Y-54244290D01*
X70264621Y-54229169D01*
X70218689Y-54204618D01*
X70178426Y-54171574D01*
X70145382Y-54131311D01*
X70120831Y-54085379D01*
X70105710Y-54035530D01*
X70100000Y-53977556D01*
X70100000Y-52972444D01*
X70105710Y-52914470D01*
X70120831Y-52864621D01*
X70145382Y-52818689D01*
X70178426Y-52778426D01*
X70218689Y-52745382D01*
X70264621Y-52720831D01*
X70314470Y-52705710D01*
X70372444Y-52700000D01*
X71627556Y-52700000D01*
X71685530Y-52705710D01*
X71685530Y-52705710D01*
G37*
G36*
X69453530Y-51905877D02*
X69505010Y-51921493D01*
X69552442Y-51946846D01*
X69594027Y-51980973D01*
X69628154Y-52022558D01*
X69653507Y-52069990D01*
X69669123Y-52121470D01*
X69675000Y-52181140D01*
X69675000Y-53068860D01*
X69669123Y-53128530D01*
X69653507Y-53180010D01*
X69628154Y-53227442D01*
X69594027Y-53269027D01*
X69552442Y-53303154D01*
X69505010Y-53328507D01*
X69453530Y-53344123D01*
X69393860Y-53350000D01*
X68606140Y-53350000D01*
X68546470Y-53344123D01*
X68494990Y-53328507D01*
X68447558Y-53303154D01*
X68405973Y-53269027D01*
X68371846Y-53227442D01*
X68346493Y-53180010D01*
X68330877Y-53128530D01*
X68325000Y-53068860D01*
X68325000Y-52181140D01*
X68330877Y-52121470D01*
X68346493Y-52069990D01*
X68371846Y-52022558D01*
X68405973Y-51980973D01*
X68447558Y-51946846D01*
X68494990Y-51921493D01*
X68546470Y-51905877D01*
X68606140Y-51900000D01*
X69393860Y-51900000D01*
X69453530Y-51905877D01*
X69453530Y-51905877D01*
G37*
G36*
X71685530Y-50755710D02*
X71735379Y-50770831D01*
X71781311Y-50795382D01*
X71821574Y-50828426D01*
X71854618Y-50868689D01*
X71879169Y-50914621D01*
X71894290Y-50964470D01*
X71900000Y-51022444D01*
X71900000Y-52027556D01*
X71894290Y-52085530D01*
X71879169Y-52135379D01*
X71854618Y-52181311D01*
X71821574Y-52221574D01*
X71781311Y-52254618D01*
X71735379Y-52279169D01*
X71685530Y-52294290D01*
X71627556Y-52300000D01*
X70372444Y-52300000D01*
X70314470Y-52294290D01*
X70264621Y-52279169D01*
X70218689Y-52254618D01*
X70178426Y-52221574D01*
X70145382Y-52181311D01*
X70120831Y-52135379D01*
X70105710Y-52085530D01*
X70100000Y-52027556D01*
X70100000Y-51022444D01*
X70105710Y-50964470D01*
X70120831Y-50914621D01*
X70145382Y-50868689D01*
X70178426Y-50828426D01*
X70218689Y-50795382D01*
X70264621Y-50770831D01*
X70314470Y-50755710D01*
X70372444Y-50750000D01*
X71627556Y-50750000D01*
X71685530Y-50755710D01*
X71685530Y-50755710D01*
G37*
G36*
X80409122Y-48546115D02*
X80525041Y-48569173D01*
X80852620Y-48704861D01*
X80985816Y-48793860D01*
X81147436Y-48901851D01*
X81398149Y-49152564D01*
X81398151Y-49152567D01*
X81550187Y-49380104D01*
X81595140Y-49447382D01*
X81619010Y-49505010D01*
X81689423Y-49675000D01*
X81730827Y-49774960D01*
X81800000Y-50122714D01*
X81800000Y-50477286D01*
X81774449Y-50605737D01*
X81730827Y-50825041D01*
X81595139Y-51152620D01*
X81576844Y-51180000D01*
X81398149Y-51447436D01*
X81147436Y-51698149D01*
X81147433Y-51698151D01*
X80852620Y-51895139D01*
X80852619Y-51895140D01*
X80852618Y-51895140D01*
X80788996Y-51921493D01*
X80525041Y-52030827D01*
X80428677Y-52049995D01*
X80177286Y-52100000D01*
X79822714Y-52100000D01*
X79571323Y-52049995D01*
X79474959Y-52030827D01*
X79211004Y-51921493D01*
X79147382Y-51895140D01*
X79147381Y-51895140D01*
X79147380Y-51895139D01*
X78852567Y-51698151D01*
X78852564Y-51698149D01*
X78601851Y-51447436D01*
X78423156Y-51180000D01*
X78404861Y-51152620D01*
X78269173Y-50825041D01*
X78225551Y-50605737D01*
X78200000Y-50477286D01*
X78200000Y-50122714D01*
X78269173Y-49774960D01*
X78310578Y-49675000D01*
X78380990Y-49505010D01*
X78404860Y-49447382D01*
X78449814Y-49380104D01*
X78601849Y-49152567D01*
X78601851Y-49152564D01*
X78852564Y-48901851D01*
X79014184Y-48793860D01*
X79147380Y-48704861D01*
X79474959Y-48569173D01*
X79590878Y-48546115D01*
X79822714Y-48500000D01*
X80177286Y-48500000D01*
X80409122Y-48546115D01*
X80409122Y-48546115D01*
G37*
G36*
X74254845Y-48598810D02*
X74499896Y-48673145D01*
X74725736Y-48793860D01*
X74923687Y-48956313D01*
X75086140Y-49154264D01*
X75206855Y-49380104D01*
X75281190Y-49625155D01*
X75306290Y-49880000D01*
X75281190Y-50134845D01*
X75206855Y-50379896D01*
X75086140Y-50605736D01*
X74923687Y-50803687D01*
X74725736Y-50966140D01*
X74499896Y-51086855D01*
X74254845Y-51161190D01*
X74063864Y-51180000D01*
X73936136Y-51180000D01*
X73745155Y-51161190D01*
X73500104Y-51086855D01*
X73274264Y-50966140D01*
X73076313Y-50803687D01*
X72913860Y-50605736D01*
X72793145Y-50379896D01*
X72718810Y-50134845D01*
X72693710Y-49880000D01*
X72718810Y-49625155D01*
X72793145Y-49380104D01*
X72913860Y-49154264D01*
X73076313Y-48956313D01*
X73274264Y-48793860D01*
X73500104Y-48673145D01*
X73745155Y-48598810D01*
X73936136Y-48580000D01*
X74063864Y-48580000D01*
X74254845Y-48598810D01*
X74254845Y-48598810D01*
G37*
G36*
X71685530Y-48705710D02*
X71735379Y-48720831D01*
X71781311Y-48745382D01*
X71821574Y-48778426D01*
X71854618Y-48818689D01*
X71879169Y-48864621D01*
X71894290Y-48914470D01*
X71900000Y-48972444D01*
X71900000Y-49977556D01*
X71894290Y-50035530D01*
X71879169Y-50085379D01*
X71854618Y-50131311D01*
X71821574Y-50171574D01*
X71781311Y-50204618D01*
X71735379Y-50229169D01*
X71685530Y-50244290D01*
X71627556Y-50250000D01*
X70372444Y-50250000D01*
X70314470Y-50244290D01*
X70264621Y-50229169D01*
X70218689Y-50204618D01*
X70178426Y-50171574D01*
X70145382Y-50131311D01*
X70120831Y-50085379D01*
X70105710Y-50035530D01*
X70100000Y-49977556D01*
X70100000Y-48972444D01*
X70105710Y-48914470D01*
X70120831Y-48864621D01*
X70145382Y-48818689D01*
X70178426Y-48778426D01*
X70218689Y-48745382D01*
X70264621Y-48720831D01*
X70314470Y-48705710D01*
X70372444Y-48700000D01*
X71627556Y-48700000D01*
X71685530Y-48705710D01*
X71685530Y-48705710D01*
G37*
G36*
X69378530Y-48830877D02*
X69430010Y-48846493D01*
X69477442Y-48871846D01*
X69519027Y-48905973D01*
X69553154Y-48947558D01*
X69578507Y-48994990D01*
X69594123Y-49046470D01*
X69600000Y-49106140D01*
X69600000Y-49893860D01*
X69594123Y-49953530D01*
X69578507Y-50005010D01*
X69553154Y-50052442D01*
X69519027Y-50094027D01*
X69477442Y-50128154D01*
X69430010Y-50153507D01*
X69378530Y-50169123D01*
X69318860Y-50175000D01*
X68431140Y-50175000D01*
X68371470Y-50169123D01*
X68319990Y-50153507D01*
X68272558Y-50128154D01*
X68230973Y-50094027D01*
X68196846Y-50052442D01*
X68171493Y-50005010D01*
X68155877Y-49953530D01*
X68150000Y-49893860D01*
X68150000Y-49106140D01*
X68155877Y-49046470D01*
X68171493Y-48994990D01*
X68196846Y-48947558D01*
X68230973Y-48905973D01*
X68272558Y-48871846D01*
X68319990Y-48846493D01*
X68371470Y-48830877D01*
X68431140Y-48825000D01*
X69318860Y-48825000D01*
X69378530Y-48830877D01*
X69378530Y-48830877D01*
G37*
G36*
X67628530Y-48830877D02*
X67680010Y-48846493D01*
X67727442Y-48871846D01*
X67769027Y-48905973D01*
X67803154Y-48947558D01*
X67828507Y-48994990D01*
X67844123Y-49046470D01*
X67850000Y-49106140D01*
X67850000Y-49893860D01*
X67844123Y-49953530D01*
X67828507Y-50005010D01*
X67803154Y-50052442D01*
X67769027Y-50094027D01*
X67727442Y-50128154D01*
X67680010Y-50153507D01*
X67628530Y-50169123D01*
X67568860Y-50175000D01*
X66681140Y-50175000D01*
X66621470Y-50169123D01*
X66569990Y-50153507D01*
X66522558Y-50128154D01*
X66480973Y-50094027D01*
X66446846Y-50052442D01*
X66421493Y-50005010D01*
X66405877Y-49953530D01*
X66400000Y-49893860D01*
X66400000Y-49106140D01*
X66405877Y-49046470D01*
X66421493Y-48994990D01*
X66446846Y-48947558D01*
X66480973Y-48905973D01*
X66522558Y-48871846D01*
X66569990Y-48846493D01*
X66621470Y-48830877D01*
X66681140Y-48825000D01*
X67568860Y-48825000D01*
X67628530Y-48830877D01*
X67628530Y-48830877D01*
G37*
G36*
X87378530Y-48330877D02*
X87430010Y-48346493D01*
X87477442Y-48371846D01*
X87519027Y-48405973D01*
X87553154Y-48447558D01*
X87578507Y-48494990D01*
X87594123Y-48546470D01*
X87600000Y-48606140D01*
X87600000Y-49393860D01*
X87594123Y-49453530D01*
X87578507Y-49505010D01*
X87553154Y-49552442D01*
X87519027Y-49594027D01*
X87477442Y-49628154D01*
X87430010Y-49653507D01*
X87378530Y-49669123D01*
X87318860Y-49675000D01*
X86431140Y-49675000D01*
X86371470Y-49669123D01*
X86319990Y-49653507D01*
X86272558Y-49628154D01*
X86230973Y-49594027D01*
X86196846Y-49552442D01*
X86171493Y-49505010D01*
X86155877Y-49453530D01*
X86150000Y-49393860D01*
X86150000Y-48606140D01*
X86155877Y-48546470D01*
X86171493Y-48494990D01*
X86196846Y-48447558D01*
X86230973Y-48405973D01*
X86272558Y-48371846D01*
X86319990Y-48346493D01*
X86371470Y-48330877D01*
X86431140Y-48325000D01*
X87318860Y-48325000D01*
X87378530Y-48330877D01*
X87378530Y-48330877D01*
G37*
G36*
X85628530Y-48330877D02*
X85680010Y-48346493D01*
X85727442Y-48371846D01*
X85769027Y-48405973D01*
X85803154Y-48447558D01*
X85828507Y-48494990D01*
X85844123Y-48546470D01*
X85850000Y-48606140D01*
X85850000Y-49393860D01*
X85844123Y-49453530D01*
X85828507Y-49505010D01*
X85803154Y-49552442D01*
X85769027Y-49594027D01*
X85727442Y-49628154D01*
X85680010Y-49653507D01*
X85628530Y-49669123D01*
X85568860Y-49675000D01*
X84681140Y-49675000D01*
X84621470Y-49669123D01*
X84569990Y-49653507D01*
X84522558Y-49628154D01*
X84480973Y-49594027D01*
X84446846Y-49552442D01*
X84421493Y-49505010D01*
X84405877Y-49453530D01*
X84400000Y-49393860D01*
X84400000Y-48606140D01*
X84405877Y-48546470D01*
X84421493Y-48494990D01*
X84446846Y-48447558D01*
X84480973Y-48405973D01*
X84522558Y-48371846D01*
X84569990Y-48346493D01*
X84621470Y-48330877D01*
X84681140Y-48325000D01*
X85568860Y-48325000D01*
X85628530Y-48330877D01*
X85628530Y-48330877D01*
G37*
M02*
